<?xml version="1.0" encoding="UTF-8"?>
<svg id="Layer_2" data-name="Layer 2" xmlns="http://www.w3.org/2000/svg" viewBox="0 0 454.86 500">
  <defs>
    <style>
      .cls-1 {
        fill: #575757;
      }

      .cls-2 {
        fill: #424242;
      }

      .cls-3 {
        fill: #3b3b3b;
      }

      .cls-4 {
        opacity: .07;
      }

      .cls-4, .cls-5 {
        isolation: isolate;
      }

      .cls-6 {
        fill: #dc2d3c;
      }

      .cls-5 {
        opacity: .1;
      }

      .cls-7 {
        fill: #a6a9b3;
      }

      .cls-8 {
        fill: #dadbe0;
      }
    </style>
  </defs>
  <g id="Layer_1-2" data-name="Layer 1">
    <g>
      <path class="cls-4" d="m454.86,295.52c0,38.48-40.67,66.39-58.62,97.45-18.56,31.98-23,81-55.05,99.56-31.07,17.98-75.29-2.13-113.77-2.13s-82.69,20.1-113.75,2.13c-31.97-18.52-36.5-67.52-55.05-99.56C40.65,361.91,0,333.99,0,295.52s40.63-66.36,58.62-97.42c18.55-31.98,23-81,55.05-99.58,31.06-17.96,75.28,2.13,113.75,2.13s82.7-20.1,113.77-2.13c31.97,18.55,36.49,67.53,55.05,99.58,17.97,31.06,58.62,58.96,58.62,97.42Z"/>
      <path class="cls-3" d="m382.83,307.84c0-85.99-69.96-155.94-155.94-155.94s-155.95,69.95-155.95,155.94c.01,27.12,7.1,53.78,20.56,77.33,13.46,23.55,32.82,43.19,56.18,56.97-2.05.48-3.99,1.37-5.7,2.6l-2.56,1.85c-12.49,9.05-6.09,28.78,9.34,28.78h157.25c15.43,0,21.84-19.75,9.34-28.78l-2.55-1.85c-1.93-1.39-4.15-2.33-6.49-2.76,23.3-13.79,42.61-33.42,56.03-56.93,13.42-23.52,20.48-50.12,20.5-77.2Zm-155.94,147.79c-81.49,0-147.79-66.3-147.79-147.79s66.3-147.79,147.79-147.79,147.78,66.3,147.78,147.79-66.3,147.79-147.78,147.79Z"/>
      <path class="cls-1" d="m352.49,307.84c-.03,32.42-12.6,63.58-35.08,86.94-22.48,23.36-53.14,37.11-85.53,38.37-32.4,1.26-64.03-10.06-88.26-31.6-24.23-21.54-39.19-51.62-41.74-83.94-2.55-32.32,7.51-64.38,28.07-89.45,20.56-25.07,50.02-41.21,82.22-45.04,32.2-3.83,64.62,4.95,90.49,24.49,25.87,19.55,43.17,48.35,48.27,80.36,1.05,6.57,1.57,13.21,1.57,19.87Z"/>
      <path class="cls-5" d="m350.93,287.97c-89.14,35.07-151.02-21.43-190.79-44.11-12.85-7.33-26.82-6.67-40.17-2,13.47-21.81,33.28-38.97,56.79-49.2,23.5-10.22,49.57-13.01,74.71-7.99,25.13,5.02,48.13,17.61,65.91,36.07,17.78,18.47,29.48,41.93,33.54,67.23h.02Z"/>
      <path class="cls-6" d="m364.83,311.06v-6.43c0-3.05-2.47-5.52-5.52-5.52h-23.9c-3.05,0-5.52,2.47-5.52,5.52v6.43c0,3.05,2.47,5.52,5.52,5.52h23.9c3.05,0,5.52-2.47,5.52-5.52Z"/>
      <path class="cls-6" d="m223.67,445.78h6.43c3.05,0,5.52-2.47,5.52-5.52v-23.9c0-3.05-2.47-5.52-5.52-5.52h-6.43c-3.05,0-5.52,2.47-5.52,5.52v23.9c0,3.05,2.47,5.52,5.52,5.52Z"/>
      <path class="cls-6" d="m87.81,304.62v6.43c0,3.05,2.47,5.52,5.52,5.52h23.9c3.05,0,5.52-2.47,5.52-5.52v-6.43c0-3.05-2.47-5.52-5.52-5.52h-23.9c-3.05,0-5.52,2.47-5.52,5.52Z"/>
      <path class="cls-6" d="m231.03,315.01l-65.99-30.22c-.57-.26-1.09-.64-1.52-1.1-.43-.46-.76-1-.98-1.6-.22-.59-.32-1.22-.3-1.85.02-.63.17-1.25.43-1.82.26-.57.63-1.09,1.1-1.52.46-.43,1-.76,1.6-.98.59-.22,1.22-.32,1.85-.3.63.02,1.25.17,1.82.43l53.7,24.59,7.36-78.76c.06-.63.24-1.24.53-1.8.3-.56.7-1.06,1.18-1.46.49-.4,1.05-.71,1.65-.9.6-.19,1.24-.25,1.87-.19.63.06,1.24.24,1.8.53.56.29,1.06.7,1.46,1.18.4.49.71,1.05.9,1.65.19.6.25,1.24.2,1.87l-8.67,92.25Z"/>
      <path class="cls-8" d="m199.51,157.08h33.29c2.4-.01,4.69-.97,6.38-2.66,1.69-1.69,2.65-3.99,2.65-6.38v-5.55c-.88-2.13-1.78-4.26-2.65-6.39-4.5-10.96-8.69-21.78-12.57-32.46.22,1.41,1.74,12.41-6.4,21.38-8.13,8.97-19.29,8.53-20.71,8.42-2.4.02-4.69.98-6.39,2.66-.85.84-1.52,1.83-1.98,2.93-.46,1.1-.69,2.28-.69,3.47v5.55c.01,2.4.97,4.69,2.67,6.39,1.7,1.69,3.99,2.65,6.39,2.65Z"/>
      <path class="cls-7" d="m199.51,157.08h33.29c2.4-.01,4.69-.97,6.38-2.66,1.69-1.69,2.65-3.99,2.65-6.38v-5.55c-.88-2.13-1.78-4.26-2.65-6.39-4.5-10.96-8.69-21.78-12.57-32.46.22,1.41,1.74,12.41-6.4,21.38-8.13,8.97-19.29,8.53-20.71,8.42-2.4.02-4.69.98-6.39,2.66-.85.84-1.52,1.83-1.98,2.93-.46,1.1-.69,2.28-.69,3.47v5.55c.01,2.4.97,4.69,2.67,6.39,1.7,1.69,3.99,2.65,6.39,2.65Z"/>
      <path class="cls-8" d="m278.08,129.46h-34.73c-5.69,0-10.31,4.62-10.31,10.31v7.9c0,5.69,4.61,10.31,10.31,10.31h34.73c5.69,0,10.31-4.61,10.31-10.31v-7.9c0-5.69-4.61-10.31-10.31-10.31Z"/>
      <path class="cls-7" d="m278.08,129.46h-34.73c-5.69,0-10.31,4.62-10.31,10.31v7.9c0,5.69,4.61,10.31,10.31,10.31h34.73c5.69,0,10.31-4.61,10.31-10.31v-7.9c0-5.69-4.61-10.31-10.31-10.31Z"/>
      <path class="cls-2" d="m264.03,114.46c.43-.3,18.78-4.53,22.32-17.4,1.93-7.04-2.94-12.09-7.3-23.18-1.98-5.03-9.37-24.51-5.92-40.24,4.09-18.44,22.47-29.21,31.61-33.64-5.78,25.06-1.07,39.44,4.47,48.07,7.96,12.33,18.3,13.39,24.04,28.5,1.39,3.68,7,18.6-.68,31.79-6.39,10.96-18.12,14.14-22.85,15.55-23.44,6.97-43.24-7.6-45.68-9.45Z"/>
      <path class="cls-2" d="m156.92,81.06s-8.29-23.5-37.24-30.05c0,0-1.33,37.94,17.77,53.06s19.47-23.01,19.47-23.01Z"/>
      <path class="cls-2" d="m163.51,72.94s-5.49-27.3,18.56-50.09c0,0,22.96,35.63,13.28,61.06-9.68,25.43-31.84-10.97-31.84-10.97Z"/>
      <path class="cls-8" d="m146.42,139.79c-9.23-6.01-15.94-15.19-18.86-25.81h.07c-2.44-8.82-2.14-18.2.87-26.85,3.01-8.66,8.59-16.2,15.99-21.61,7.4-5.41,16.27-8.44,25.43-8.69,9.16-.25,18.19,2.3,25.87,7.3,7.68,5.01,13.66,12.23,17.13,20.71.98,2.4,1.75,4.86,2.3,7.36,5.27-.57,11.15-.71,17.25-.01,7.47.89,14.89,2.21,22.21,3.93,4.56,1.05,9.16,1.87,13.8,2.45,6.05,1.05,12.27.38,17.95-1.95,5.96,4.24,10.86,9.8,14.31,16.24,4.38,8.31,6.23,17.72,5.33,27.07v18.2c.07,1.1-.12,2.19-.57,3.2-5.5,12.15-46.62-.79-51.07-2.53-1.21-.42-2.26-1.2-3.03-2.23-1.47-2.13-1.07-4.87-.65-6.39,0-1.68.41-3.34,1.2-4.82.79-1.49,1.92-2.76,3.31-3.7-4.68,0-9.29-.08-13.86-.17l-2.94-.14c-4.06,5.76-7.43,11.98-10.04,18.53-7.04,17.76-7.03,34.7-7.01,47.84.01,12.47.02,21.52-6,24.63-1.51.74-3.17,1.14-4.86,1.15-1.68.01-3.35-.35-4.87-1.07-15.79-8.1-8.08-64.5-2.28-98.9-.48.49-.96.96-1.46,1.43-6.7,6.25-15.15,10.32-24.22,11.65h-.07c-10.9,1.61-22-.82-31.23-6.83Z"/>
      <path class="cls-2" d="m143.56,120.8c.45-.13.83-.43,1.07-.82.24-.4.33-.87.24-1.33-.09-.46-.34-.87-.71-1.15-.37-.28-.83-.41-1.3-.37l-45.52,5.1c-.47.08-.89.34-1.17.73-.28.38-.41.86-.36,1.33.05.47.28.91.64,1.22.36.31.83.47,1.3.45l45.53-5.06.28-.09Z"/>
      <path class="cls-2" d="m118.12,143.3l.3-.09,28.01-13.18c.24-.09.46-.23.64-.42.18-.18.33-.4.42-.64s.14-.49.13-.75c0-.26-.07-.51-.18-.74-.11-.23-.27-.44-.46-.61-.19-.17-.42-.3-.66-.38-.24-.08-.5-.11-.76-.08-.26.02-.5.1-.73.23l-28.02,13.18c-.41.21-.72.57-.89,1-.16.43-.17.9,0,1.34.16.43.47.79.88,1,.41.22.88.28,1.32.17v-.03Z"/>
      <path class="cls-3" d="m166.29,121.21c3.38,0,6.13-2.74,6.13-6.13s-2.74-6.13-6.13-6.13-6.13,2.74-6.13,6.13,2.74,6.13,6.13,6.13Z"/>
      <path class="cls-2" d="m222.26,118.11c.42-.12.78-.38,1.03-.73.25-.35.37-.78.33-1.22-.03-.43-.21-.84-.51-1.15-.3-.31-.7-.51-1.13-.57l-30.75-3.59c-.47-.03-.94.12-1.3.43-.36.3-.6.73-.66,1.2-.06.47.06.94.33,1.33.27.39.68.66,1.15.75h.05l30.75,3.56c.24.04.48.04.71-.01Z"/>
      <path class="cls-2" d="m231.64,94.74c.47-.13.88-.44,1.12-.87.25-.43.32-.93.19-1.41-.12-.47-.42-.88-.84-1.14s-.92-.34-1.4-.22l-44.57,10.51c-.46.14-.84.45-1.08.86-.24.41-.31.9-.2,1.36.11.46.39.87.79,1.13.4.26.88.37,1.35.29l44.57-10.5.07-.02Z"/>
      <path class="cls-7" d="m280.74,116.43s-16.33,7.46-17.55,19.38c-.01,0-2.91-19.81,17.55-19.38Z"/>
    </g>
  </g>
</svg>