<?xml version="1.0" encoding="UTF-8"?>
<svg id="Layer_1" data-name="Layer 1" xmlns="http://www.w3.org/2000/svg" viewBox="0 0 561.68 480.58">
  <defs>
    <style>
      .cls-1 {
        fill: #dbdbdb;
      }

      .cls-2 {
        fill: #454c5e;
      }

      .cls-3 {
        fill: #ffcb9d;
      }

      .cls-4 {
        fill: #dadce0;
      }

      .cls-5 {
        opacity: .07;
      }

      .cls-5, .cls-6, .cls-7 {
        isolation: isolate;
      }

      .cls-8 {
        fill: #424242;
      }

      .cls-9 {
        fill: #3b3b3b;
      }

      .cls-6 {
        opacity: .1;
      }

      .cls-10 {
        fill: #dc2d3c;
      }

      .cls-7 {
        opacity: .5;
      }
    </style>
  </defs>
  <path class="cls-5" d="m0,240.29c0,45.21,47.8,78,68.91,114.5,21.8,37.64,27.03,95.18,64.7,117.01,36.51,21.12,88.48-2.5,133.69-2.5s97.17,23.62,133.68,2.5c37.67-21.83,42.9-79.37,64.7-117.01,21.12-36.5,68.91-69.29,68.91-114.5s-47.8-78.03-68.91-114.5c-21.8-37.65-27.03-95.24-64.7-117.01-36.5-21.12-88.48,2.5-133.68,2.5s-97.17-23.62-133.69-2.5c-37.67,21.78-42.9,79.36-64.7,117.01C47.79,162.26,0,195.08,0,240.29Z"/>
  <g>
    <path class="cls-1" d="m207.31,200.96c-.08.85-.14,1.59-.19,2.23-.34,3.67-.89,7.31-1.64,10.92-2.03,10.87-5,26.07-14.25,42.53-5.46,9.62-12.23,18.43-20.11,26.2l-14.82-42.72c1.39-3.33,20.99-50.7,10.31-57.54-3.09-1.98-9.87-1.25-16.26-.59-4.66.52-9.27,1.46-13.76,2.83l-25.14,7.51-3.1.98c-.34-2.3-.86-4.57-1.55-6.79-.55-1.78-1.22-3.51-2-5.2-2.28-5-5.51-9.51-9.49-13.3,1.83-1.1,4.39-2.5,7.51-4.13,0,0,3.09-1.56,7.78-3.53,2.82-1.18,6.26-2.5,9.85-3.75,2.3-.76,4.72-1.49,7.14-2.1,8.76-2.21,43.6-8.61,63.8,2.03,4.39,2.18,8.12,5.51,10.77,9.63.57.91,1.08,1.86,1.53,2.84.16.34.3.68.44,1.01.14.34.24.56.34.84.97,2.54,1.69,5.17,2.15,7.84,1.17,7.37,1.41,14.85.73,22.28Z"/>
    <path class="cls-1" d="m251.55,330.3l-.08.18-33.7,78.47c-12.72-3.98-25.39-8.08-38-12.07l-10.13-3.19c-22.98-7.17-25.36-7.91-27.3-8.61-4.42-1.61-8.55-3.94-12.22-6.89-20.71-16.67-36.95-66-36.95-66-3.54-11.32-7.98-27.45-11.39-47.39,25.24-9.09,50.48-18.17,75.71-27.26,5.4,14.74,18.82,44.82,49.68,68.89,16.3,12.71,32.41,19.81,44.38,23.87Z"/>
    <path class="cls-10" d="m217.78,408.95l228.85-2.16.08-12.23-155.97-31.54,23.04-19.14c13.11,27.75,26.22,55.51,39.34,83.28l12.25-1.25c-4.31-44.88-8.63-89.74-12.96-134.55l-100.93,39.13-33.7,78.47Z"/>
    <path class="cls-2" d="m465.04,372.56l-4.29,36.28s-9.45,1.25-12.64-4.37c-3.19-5.62,8.09-25.91,16.93-31.87"/>
    <path class="cls-2" d="m385.53,450.13l-34.7-11.26s.64-9.51,6.76-11.55,23.77,13,27.95,22.82"/>
    <path class="cls-6" d="m251.48,330.48l-33.7,78.47c-12.72-3.98-25.39-8.08-38-12.07-22.67-7.58-38.25-13.06-49.65-18.69-4.86-2.33-9.47-5.16-13.76-8.43-9.56-7.51-28.57-26.07-35.38-68.99,3.85,4.03,7.93,7.84,12.21,11.42,9.54,7.98,20.1,14.65,31.41,19.83,57.46,26.21,114.04,3.89,126.87-1.54Z"/>
    <path class="cls-3" d="m189.53,403.61c-1.68.67-3.46,1.1-5.27,1.25-8.96.55-17-4.29-17.96-10.98-.8-5.89,4.1-11.33,11.48-12.97l2.93-.54c8.28-.56,15.47,3.46,17.51,9.27.1.54.35,1.18.45,1.71.88,5.52-3.07,10.23-9.14,12.26Z"/>
    <path class="cls-6" d="m189.53,403.61c-1.68.67-3.46,1.1-5.27,1.25-8.96.55-17-4.29-17.96-10.98-.8-5.89,4.1-11.33,11.48-12.97,0,.27.26.64.36,1.18,1.89,4.32,6.26,10.37,11.38,11.08,3.54.59,6.44-1.6,8.58-3.36.1.54.35,1.18.45,1.7.99,5.37-2.95,10.08-9.03,12.11Z"/>
    <path class="cls-1" d="m179.91,371.34c-.5,14.68-1.01,29.35-1.51,44.02-17.75.07-35.47-1.24-53.02-3.93-6.5-.99-11.72-1.79-15.97-2.58-6.39-1.18-10.63-2.34-13.9-4.1-10.82-5.85-17.96-15.86-22.65-27.26-.61-1.5-1.19-3.01-1.73-4.55-9.02-25.98-6.73-57.01-6.26-62.94,2.3-31.12,13.27-44.76,17.91-45.53,3.15-.47,6.37-.4,9.49.21,1,.23,1.98.52,2.94.86.7.25,1.1.44,1.1.44l6.92,5.37c3.33,2.65,6.58,10.86,6.05,35.52-2.3,4.85-9.93,22.42-2.75,39.3,9.31,21.92,40.29,35,73.37,25.17Z"/>
    <path class="cls-6" d="m178.4,415.36c-17.75.07-35.47-1.24-53.02-3.93-16.26-2.5-24.43-3.75-29.87-6.68-12.23-6.63-19.78-18.56-24.38-31.81,14.3,17.75,43.76,39.15,107.27,42.42Z"/>
    <path class="cls-6" d="m290.73,363.02l-49.79-8.01,10.54-24.53c25.62-9.93,51.25-19.87,76.87-29.8,8.02-3.11,16.04-6.22,24.06-9.33.05.49,1.96,20.31,2.01,20.81.24,2.48,4.24,44,4.48,46.46,3,31.17,6.33,65.73,6.47,67.27l-12.25,1.25c-13.12-27.76-26.23-55.52-39.34-83.28l-23.06,19.15Z"/>
    <path class="cls-6" d="m136.55,184.76l-25.14,7.51-4.65-5.82-3.38-4.22c-2.66-3.34-5.32-6.67-7.98-10.01-1.83-2.26-3.64-4.54-5.45-6.81,1.19-.75,2.5-1.58,4.07-2.43,4.19-2.34,8.57-4.33,13.08-5.95.94.49,1.79,1.14,2.5,1.93.38.42.72.88,1.01,1.38,2.82-1.18,6.26-2.5,9.85-3.75,4.8,3,8.78,7.13,11.6,12.04,2.82,4.9,4.38,10.43,4.55,16.08l-.05.05Z"/>
    <path class="cls-3" d="m53.59,196.33c2.04,4.11,5.18,10.24,9.04,17.51.95,1.66,1.75,2.98,1.98,3.5,4.68,7.87,10.3,15.13,16.74,21.63.4.4.76.76,1.11,1.1,0,0,1.32,1.29,2.82,2.65,1.46,1.33,8.23,7.12,17.6,14.89,7.44,5.24,16.91,5.73,23.85,1.31,6.91-4.4,8.55-11.89,8.87-13.48-3.36-7.33-3.52-13.03-2.99-16.97,1.43-10.61,9.07-17.18,6-22.45-.31-.52-1.52-2.25-5-3.82-3.86-1.74-7.4-4.12-10.46-7.06-4.23-3.78-8.12-7.94-11.6-12.42-1.18-1.33-2.29-2.72-3.32-4.17l-18.65-5.77-32.32,14.39c2.75,5.25,3.06,9.72,1.48,10.85-1.59,1.12-4.48-1.16-5.14-1.71Z"/>
    <path class="cls-6" d="m53.59,196.33c2.04,4.11,5.18,10.24,9.04,17.51.95,1.66,1.75,2.98,1.98,3.5,4.68,7.87,10.3,15.13,16.74,21.63,1.78-1.63,3.25-3.56,4.35-5.7,1.14-2.39,1.84-4.97,2.06-7.61.09-2.82-.25-5.63-1-8.34-.4-1.75-.89-3.49-1.48-5.19,14.22-1.34,27.57-7.43,37.9-17.29-4.23-3.78-8.1-7.93-11.58-12.41-1.18-1.32-2.29-2.72-3.32-4.17l-18.65-5.72-32.3,14.36c2.76,5.25,3.08,9.72,1.49,10.85-1.59,1.12-4.58-.89-5.24-1.44"/>
    <path class="cls-8" d="m52.68,205.1c3.14,6.66,8.68,11.88,15.51,14.62,1.43.4,2.69.89,3.95,1.38,3.43,1.76,6.37,4.34,8.56,7.51.78-2.45.72-5.09-.18-7.51-1.38-3.58-5.9-9.51-6.25-10.38l-.23-.52c-.25-.52-.54-1.02-.88-1.49-.95-1.66-1.73-3.42-2.33-5.24l-.09-.18c10.46,1.41,39.22,3.05,49.48-15.72,1.57-2.95,2.77-6.09,3.58-9.33.13-.29.2-.61.21-.93.21-.82.33-1.66.38-2.5l.1-.26c.26-2.18.12-4.39-.4-6.52l-.12-.77c-.22-.94-.62-1.83-1.18-2.62-1.91-3.17-4.9-5.55-8.42-6.7-6.55-2.5-14.35-2.19-18.64-1.96-16.26.55-37.6,8.57-43.96,26.27-1.47,4.56-1.9,9.4-1.25,14.15.33,2.97,1.06,5.88,2.18,8.65"/>
    <path class="cls-7" d="m70.71,203.35c10.46,1.41,39.22,3.05,49.48-15.72,1.57-2.95,2.77-6.09,3.58-9.33.13-.29.2-.61.21-.93.21-.82.33-1.66.38-2.5-.02-.05-.02-.1,0-.15.02-.05.06-.09.1-.11.26-2.18.12-4.39-.4-6.52-2.12,5.2-5.05,10.04-8.68,14.32-18.05,21-48.12,18.28-52.9,17.89h-.43c2.78,1.06,5.73,2.05,8.67,3.04"/>
    <path class="cls-6" d="m207.31,200.96c-.08.85-.14,1.59-.19,2.23-.34,3.67-.89,7.31-1.64,10.92-2.03,10.87-5,26.07-14.25,42.53-3.42,6.03-7.37,11.75-11.78,17.1,0-.04,0-.08,0-.11,13.43-30.18,22.56-62.09,27.12-94.81,1.16,7.32,1.41,14.76.74,22.14Z"/>
    <path class="cls-2" d="m109.41,408.85c-6.39-1.18-10.63-2.34-13.9-4.1-10.82-5.85-17.96-15.86-22.66-27.26,6.12.06,14.86,4.15,22.85,11.26,7.48,6.59,12.43,14.18,13.7,20.1Z"/>
    <path class="cls-2" d="m207.31,200.96c-4.42-5.26-8.01-11.16-10.63-17.51-4.2-9.88-5.95-19.6-5.28-26.85,4.39,2.18,8.11,5.51,10.77,9.63.57.91,1.07,1.86,1.53,2.84.16.34.3.68.44,1.01s.24.56.34.84c3.95,10.02,3.36,23.13,2.84,30.04Z"/>
  </g>
  <g>
    <path class="cls-2" d="m548.91,241.46h-276.8c-3.38,0-6.62-1.35-9.01-3.73-2.39-2.39-3.74-5.62-3.75-9v-29.86c0-3.38,1.34-6.63,3.74-9.02,2.39-2.39,5.64-3.74,9.02-3.74h276.8c3.39,0,6.63,1.35,9.02,3.74,2.39,2.39,3.74,5.64,3.74,9.02v29.86c-.01,3.38-1.36,6.61-3.76,9-2.39,2.39-5.63,3.73-9.01,3.73Zm-276.8-49.52c-1.84,0-3.6.74-4.89,2.04-1.3,1.3-2.03,3.06-2.03,4.9v29.86c0,1.84.73,3.6,2.03,4.89,1.3,1.3,3.06,2.03,4.89,2.03h276.8c1.83-.01,3.58-.75,4.87-2.04,1.29-1.3,2.02-3.05,2.03-4.88v-29.86c0-1.84-.74-3.6-2.04-4.9-1.3-1.3-3.06-2.03-4.9-2.03h-276.76Z"/>
    <path class="cls-10" d="m349.97,199.91h-73.83c-1.21,0-2.19,2.45-2.19,5.46v16.46c0,3.02.98,5.46,2.19,5.46h73.83c1.21,0,2.19-2.45,2.19-5.46v-16.46c0-3.02-.98-5.46-2.19-5.46Z"/>
  </g>
  <g>
    <path class="cls-9" d="m374.2,89.23c6.99-31.99-13.28-63.58-45.27-70.57-31.99-6.99-63.58,13.28-70.57,45.27-6.99,31.99,13.28,63.58,45.27,70.57,31.99,6.99,63.58-13.28,70.57-45.27Z"/>
    <path class="cls-4" d="m316.38,139.16c-4.74-.02-9.46-.57-14.07-1.65-15.49-3.58-29.02-12.94-37.82-26.18-8.8-13.24-12.21-29.34-9.52-45.01,2.69-15.67,11.27-29.71,23.98-39.25,12.71-9.54,28.6-13.86,44.39-12.07,15.79,1.79,30.31,9.56,40.56,21.71,10.25,12.15,15.47,27.76,14.58,43.63-.89,15.87-7.82,30.8-19.36,41.73-11.55,10.93-26.83,17.02-42.73,17.04v.05Zm-.12-118.62c-10.55,0-20.88,2.97-29.81,8.58-8.93,5.61-16.1,13.62-20.68,23.12s-6.38,20.1-5.2,30.58c1.18,10.48,5.29,20.41,11.86,28.66,6.57,8.25,15.34,14.47,25.29,17.96,9.95,3.49,20.69,4.09,30.97,1.75,10.28-2.34,19.69-7.54,27.15-14.99,7.46-7.45,12.66-16.86,15.02-27.14,1.87-8.2,1.86-16.72-.01-24.93-1.87-8.2-5.57-15.88-10.82-22.46-5.24-6.58-11.9-11.9-19.48-15.55-7.58-3.66-15.88-5.56-24.3-5.57Z"/>
    <path class="cls-10" d="m296.58,86.45c-.87-.01-1.71-.33-2.36-.91-.65-.57-1.09-1.36-1.22-2.22-.13-.86.05-1.74.5-2.48.45-.74,1.16-1.3,1.98-1.57l17.62-5.5,8.26-39.38c.25-.9.84-1.66,1.64-2.15.8-.48,1.75-.64,2.66-.45.91.19,1.72.72,2.25,1.48.54.76.76,1.7.64,2.62l-9.07,43.57-21.7,6.89c-.39.1-.8.12-1.2.09Z"/>
  </g>
</svg>