<?xml version="1.0" encoding="UTF-8"?>
<svg id="Layer_1" data-name="Layer 1" xmlns="http://www.w3.org/2000/svg" viewBox="0 0 587.19 480.58">
  <defs>
    <style>
      .cls-1 {
        fill: #dbdbdb;
      }

      .cls-2 {
        fill: #ffcb9d;
      }

      .cls-3 {
        opacity: .3;
      }

      .cls-3, .cls-4, .cls-5 {
        isolation: isolate;
      }

      .cls-6 {
        fill: #dadce0;
      }

      .cls-7 {
        fill: #424242;
      }

      .cls-8 {
        fill: #3b3b3b;
      }

      .cls-4 {
        opacity: .07;
      }

      .cls-9 {
        fill: #dc2d3c;
      }

      .cls-5 {
        opacity: .1;
      }
    </style>
  </defs>
  <path class="cls-4" d="m25.51,240.29c0,45.21,47.8,78,68.91,114.5,21.8,37.64,27.03,95.18,64.7,117.01,36.51,21.12,88.48-2.5,133.69-2.5s97.17,23.62,133.68,2.5c37.67-21.83,42.9-79.37,64.7-117.01,21.12-36.5,68.91-69.29,68.91-114.5s-47.8-78.03-68.91-114.5c-21.8-37.65-27.03-95.24-64.7-117.01-36.5-21.12-88.48,2.5-133.68,2.5s-97.17-23.62-133.69-2.5c-37.67,21.78-42.9,79.36-64.7,117.01-21.13,36.46-68.91,69.29-68.91,114.5Z"/>
  <path class="cls-1" d="m232.82,214.01c-.08.72-.14,1.34-.19,1.87-.34,3.08-.89,6.15-1.64,9.18-2.03,9.14-5,21.91-14.25,35.75-5.46,8.08-12.23,15.5-20.11,22.02-5.13-8.44-10.25-16.88-15.38-25.31,1.83-4.21,22.88-53.34,10.86-58.97-3.33-1.56-11.54-.93-16.26-.49-4.66.43-9.27,1.23-13.76,2.38l-25.14,6.31-3.1.82c-.34-1.94-.86-3.84-1.55-5.71-.55-1.49-1.22-2.95-2-4.37-2.28-4.2-5.51-8-9.49-11.18,1.83-.93,4.39-2.1,7.51-3.47,0,0,3.09-1.31,7.78-2.96,2.82-.99,6.26-2.1,9.85-3.15,2.3-.64,4.72-1.25,7.14-1.77,8.76-1.86,43.6-7.23,63.8,1.7,4.39,1.83,8.12,4.63,10.77,8.1.57.77,1.08,1.57,1.53,2.39.16.28.3.57.44.85.14.28.24.47.34.7.97,2.13,1.69,4.34,2.15,6.59,1.17,6.19,1.41,12.48.73,18.73Z"/>
  <path class="cls-1" d="m259.92,317.41c-4.44,3.37-9.49,8.24-13.43,15.1-13.9,24.22-1.63,51.72.15,55.56-5.72-1.76-11.44-3.52-17.15-5.3-5.7-1.78-11.4-3.55-17.07-5.3l-9.13-2.8c-20.7-6.29-22.84-6.94-24.58-7.56-3.99-1.41-7.7-3.46-11.01-6.05-18.65-14.64-33.28-57.96-33.28-57.96-1.05-5.27-2.66-11.38-5.17-17.97-1.94-5.1-4.08-9.59-6.18-13.46,2.67-2.77,7.08-6.69,13.45-9.85,6.11-3.02,11.68-4.18,15.42-4.65,21.99-6.53,34.47-3.01,41.89,1.75,14.27,9.16,13.09,24.81,28.22,40.15,6.58,6.67,17.84,14.71,37.86,18.36Z"/>
  <path class="cls-9" d="m246.65,388.07c5.03,3.7,11.54,7.74,19.56,11.13,15.84,6.7,30.25,7.76,39.49,7.64,20.83-.69,42.07-1.14,63.71-1.31,35.29-.28,69.55.18,102.73,1.26.03-4.08.05-8.16.08-12.23-51-13.07-101.99-26.14-152.99-39.21,6.69-3.82,13.38-7.65,20.06-11.47,13.11,27.75,26.22,55.51,39.34,83.28l12.25-1.25c-4.31-44.88-8.63-89.74-12.96-134.55-39.33,8.69-78.66,17.37-117.99,26.06-4.12,3.39-13.95,12.41-18.35,27.66-6.21,21.52,3.04,39.31,5.07,43Z"/>
  <path class="cls-8" d="m490.55,372.56l-4.29,36.28s-9.45,1.25-12.64-4.37c-3.19-5.62,8.09-25.91,16.93-31.87"/>
  <path class="cls-8" d="m411.04,450.13l-34.7-11.26s.64-9.51,6.76-11.55,23.77,13,27.95,22.82"/>
  <path class="cls-5" d="m259.92,317.41c-3.99,3.27-14.37,12.69-18.66,28.77-5.63,21.08,3.33,38.17,5.39,41.89-13.43-4.18-27.97-9.4-43.28-15.93-17.79-7.59-33.62-15.68-47.46-23.58-4.13-5.52-9.4-13.87-13.22-24.96-3.21-9.32-4.38-17.65-4.77-23.89,7.23,7.08,17.93,15.59,32.55,21.6,41.22,16.94,80.36.26,89.46-3.9Z"/>
  <path class="cls-2" d="m222.02,385.06c-1.68.67-3.46,1.1-5.27,1.25-8.96.55-17-4.29-17.96-10.98-.8-5.89,4.1-11.33,11.48-12.97l2.93-.54c8.28-.56,15.47,3.46,17.51,9.27.1.54.35,1.18.45,1.71.88,5.52-3.07,10.23-9.14,12.26Z"/>
  <path class="cls-5" d="m222.02,385.06c-1.68.67-3.46,1.1-5.27,1.25-8.96.55-17-4.29-17.96-10.98-.8-5.89,4.1-11.33,11.48-12.97,0,.27.26.64.36,1.18,1.89,4.32,6.26,10.37,11.38,11.08,3.54.59,6.44-1.6,8.58-3.36.1.54.35,1.18.45,1.7.99,5.37-2.95,10.08-9.03,12.11Z"/>
  <path class="cls-1" d="m205.42,357.72c-.42,11.82-.85,23.63-1.28,35.45-15.05.06-30.08-1-44.95-3.16-5.51-.8-9.94-1.44-13.54-2.07-5.42-.95-9.02-1.88-11.78-3.3-9.17-4.71-15.23-12.77-19.21-21.95-.52-1.21-1.01-2.43-1.46-3.67-7.65-20.92-5.71-45.9-5.3-50.68,1.95-25.06,11.25-36.04,15.19-36.67,2.67-.38,5.4-.32,8.05.17.84.18,1.68.42,2.49.69.59.2.93.35.93.35l5.87,4.32c2.82,2.14,5.58,8.74,5.13,28.6-1.95,3.91-8.42,18.05-2.33,31.65,7.89,17.65,34.16,28.19,62.2,20.27Z"/>
  <path class="cls-5" d="m319.22,355.35c-24.6-6.65-49.21-13.31-73.81-19.96,1.33-2.73,3.25-6.08,6.03-9.57,2.96-3.71,5.99-6.46,8.48-8.41h0c39.34-8.69,78.67-17.37,118.01-26.06.05.49,1.96,20.31,2.01,20.81.24,2.48,4.24,44,4.48,46.46,3,31.17,6.33,65.73,6.47,67.27l-12.25,1.25c-13.12-27.76-26.23-55.52-39.34-83.28-6.69,3.83-13.38,7.65-20.08,11.48Z"/>
  <path class="cls-5" d="m162.07,201.04l-22.27,5.65-4.12-4.38-2.99-3.18c-2.36-2.51-4.71-5.03-7.07-7.54-1.62-1.71-3.22-3.42-4.83-5.13,1.05-.57,2.22-1.19,3.6-1.83,3.71-1.76,7.59-3.26,11.59-4.49.83.37,1.58.86,2.22,1.45.34.32.64.67.9,1.04,2.49-.89,5.54-1.88,8.72-2.83,4.25,2.26,7.77,5.37,10.27,9.07,2.49,3.69,3.88,7.86,4.03,12.11l-.04.04Z"/>
  <path class="cls-5" d="m232.84,212.91c-.07.72-.14,1.35-.19,1.89-.34,3.11-.88,6.21-1.61,9.27-1.99,9.23-4.92,22.14-14.02,36.12-3.37,5.12-7.25,9.98-11.6,14.52,0-.03,0-.06,0-.1,13.21-25.63,22.2-52.73,26.69-80.51,1.14,6.22,1.39,12.53.73,18.8Z"/>
  <g>
    <path class="cls-8" d="m574.42,241.46h-276.8c-3.38,0-6.62-1.35-9.01-3.73-2.39-2.39-3.74-5.62-3.75-9v-29.86c0-3.38,1.34-6.63,3.74-9.02,2.39-2.39,5.64-3.74,9.02-3.74h276.8c3.39,0,6.63,1.35,9.02,3.74,2.39,2.39,3.74,5.64,3.74,9.02v29.86c-.01,3.38-1.36,6.61-3.76,9-2.39,2.39-5.63,3.73-9.01,3.73Zm-276.8-49.52c-1.84,0-3.6.74-4.89,2.04-1.3,1.3-2.03,3.06-2.03,4.9v29.86c0,1.84.73,3.6,2.03,4.89,1.3,1.3,3.06,2.03,4.89,2.03h276.8c1.83-.01,3.58-.75,4.87-2.04,1.29-1.3,2.02-3.05,2.03-4.88v-29.86c0-1.84-.74-3.6-2.04-4.9-1.3-1.3-3.06-2.03-4.9-2.03h-276.76Z"/>
    <path class="cls-9" d="m375.48,199.91h-73.83c-1.21,0-2.19,2.45-2.19,5.46v16.46c0,3.02.98,5.46,2.19,5.46h73.83c1.21,0,2.19-2.45,2.19-5.46v-16.46c0-3.02-.98-5.46-2.19-5.46Z"/>
  </g>
  <g>
    <path class="cls-8" d="m399.71,89.23c6.99-31.99-13.28-63.58-45.27-70.57-31.99-6.99-63.58,13.28-70.57,45.27-6.99,31.99,13.28,63.58,45.27,70.57,31.99,6.99,63.58-13.28,70.57-45.27Z"/>
    <path class="cls-6" d="m341.88,139.16c-4.74-.02-9.46-.57-14.07-1.65-15.49-3.58-29.02-12.94-37.82-26.18-8.8-13.24-12.21-29.34-9.52-45.01,2.69-15.67,11.27-29.71,23.98-39.25,12.71-9.54,28.6-13.86,44.39-12.07,15.79,1.79,30.31,9.56,40.56,21.71,10.25,12.15,15.47,27.76,14.58,43.63-.89,15.87-7.82,30.8-19.36,41.73-11.55,10.93-26.83,17.02-42.73,17.04v.05Zm-.12-118.62c-10.55,0-20.88,2.97-29.81,8.58-8.93,5.61-16.1,13.62-20.68,23.12s-6.38,20.1-5.2,30.58c1.18,10.48,5.29,20.41,11.86,28.66,6.57,8.25,15.34,14.47,25.29,17.96,9.95,3.49,20.69,4.09,30.97,1.75,10.28-2.34,19.69-7.54,27.15-14.99,7.46-7.45,12.66-16.86,15.02-27.14,1.87-8.2,1.86-16.72-.01-24.93-1.87-8.2-5.57-15.88-10.82-22.46-5.24-6.58-11.9-11.9-19.48-15.55-7.58-3.66-15.88-5.56-24.3-5.57Z"/>
    <path class="cls-9" d="m322.09,86.45c-.87-.01-1.71-.33-2.36-.91-.65-.57-1.09-1.36-1.22-2.22-.13-.86.05-1.74.5-2.48.45-.74,1.16-1.3,1.98-1.57l17.62-5.5,8.26-39.38c.25-.9.84-1.66,1.64-2.15.8-.48,1.75-.64,2.66-.45.91.19,1.72.72,2.25,1.48.54.76.76,1.7.64,2.62l-9.07,43.57-21.7,6.89c-.39.1-.8.12-1.2.09Z"/>
  </g>
  <path class="cls-2" d="m151.81,225.97c-2.67-3.42-4.07-2.31-8.59-7.91-3.29-4.07-6.29-8.37-8.99-12.85-1.6-2.54-2.5-4.25-2.5-4.25l-16.3-7.68-31.44,8.9c1.92,5.18,1.42,9.38-.06,10.07-1.48.69-4.01-1.63-4.53-2.14,1.33,4.06,3.33,9.99,6.03,17.23.63,1.6,1.17,2.98,1.34,3.45,2.32,5.65,5.15,11.09,8.45,16.23,1.26,1.98,2.61,3.93,4.01,5.78,1.04,1.34,2.05,2.6,3.12,3.8,1.15,1.28,2.63,1.59,3.43,1.88,22.78,8.26,32.2,5.67,32.2,5.67,3.29-.9,10.32-2.84,14.84-9.31,6.17-8.84,4.57-21.72-1.02-28.87Z"/>
  <path class="cls-5" d="m110.96,303.37c.69,1.13,1.65,2.07,2.79,2.75-1.45-2.5-3.04-4.92-4.76-7.24.61,1.57,1.24,3.05,1.98,4.5Zm23.26-98.15c-1.6-2.54-2.5-4.25-2.5-4.25l-16.3-7.64-31.44,8.9c1.92,5.18,1.42,9.38-.06,10.07s-4.01-1.63-4.53-2.13c1.33,4.06,3.33,9.99,6.03,17.23.63,1.6,1.17,2.99,1.34,3.45,2.32,5.65,5.15,11.09,8.45,16.23l.15-.46c1.71-4.88.84-7.66,3.55-11.61,1.85-2.65,4.4-4.75,7.36-6.05,13.19.6,26.2-3.23,36.96-10.87-3.29-4.07-6.3-8.37-9.01-12.85Z"/>
  <path class="cls-7" d="m124.09,181.87c-20.25-1.39-35.68,12.36-39.72,15.96-1.73,1.52-28.39,26.01-22.4,51.57,2.88,12.31,10.04,14.26,12.42,23.14,3.42,12.8-5.13,34.51-60.91,73.34-10.49,9.89-14.86,18.16-13.09,24.79,4.3,16.17,45.03,22.64,122.19,19.43-19.4-10.63-32.89-26.86-31.42-40.64.8-7.51,6.72-20.44,13.43-30.39.91-1.35.94-1.27,1.53-2.2,9.57-15.13,13.7-41.45,3.47-59.83-3.95-7.07-9.57-12.22-13.17-19.01-1.6-2.97-2.68-6.19-3.2-9.52-.11-.72-.18-1.49-.26-2.26-.22-2.6,2.74-6.71,3.07-11.15,6.92,1.69,32.25,6.75,44.12-7.34.53-.62,4.64-5.61,5.48-11.08.38-1.99.2-4.04-.53-5.93-3.19-7.65-15.69-8.52-20.99-8.88Z"/>
  <path class="cls-3" d="m109.59,257.05c-3.95-7.07-9.57-12.22-13.17-19.01,2.04,6.21,4.54,16.33,3.47,28.45-3.87,43.59-49.44,60.69-46.63,90.82.77,8.23,5.4,20.18,25.01,33.53,5.97.15,12.1.2,18.4.14,8.96-.09,17.6-.39,25.9-.87-7.09-3.59-12.29-7.72-15.89-11.1-6.42-6.03-14.85-13.95-15.67-25.7-.46-6.51,1.58-11.97,3.42-15.56,6.46-11.61,11.2-20.09,11.33-20.31.25-.4.27-.42.36-.57,9.57-15.13,13.74-41.45,3.47-59.82Zm36.02-60.46c-7.65,6.76-16.84,11.54-26.76,13.92-9.92,2.38-20.28,2.29-30.16-.26,2.27,1.86,4.73,3.47,7.34,4.8,6.92,1.69,32.25,6.75,44.12-7.34.53-.62,4.64-5.6,5.48-11.08v-.04Z"/>
</svg>