<?xml version="1.0" encoding="utf-8"?>
<!-- Generator: Adobe Illustrator 27.3.1, SVG Export Plug-In . SVG Version: 6.00 Build 0)  -->
<svg version="1.1" id="Layer_1" xmlns="http://www.w3.org/2000/svg" xmlns:xlink="http://www.w3.org/1999/xlink" x="0px" y="0px"
	 viewBox="0 0 800 600" style="enable-background:new 0 0 800 600;" xml:space="preserve">
<style type="text/css">
	.st0{opacity:7.000000e-02;enable-background:new    ;}
	.st1{fill:#DBDBDB;}
	.st2{fill:#DC2D3C;}
	.st3{fill:#454C5E;}
	.st4{opacity:0.1;enable-background:new    ;}
	.st5{fill:#FFCB9D;}
	.st6{fill:#3B3B3B;}
	.st7{fill:#DADCE0;}
	.st8{fill:#424242;}
	.st9{opacity:0.3;enable-background:new    ;}
</style>
<path class="st0" d="M117.1,300c0,45.2,47.8,78,68.9,114.5c21.8,37.6,27,95.2,64.7,117c36.5,21.1,88.5-2.5,133.7-2.5
	s97.2,23.6,133.7,2.5c37.7-21.8,42.9-79.4,64.7-117c21.1-36.5,68.9-69.3,68.9-114.5c0-45.2-47.8-78-68.9-114.5
	c-21.8-37.7-27-95.2-64.7-117C481.5,47.4,429.6,71,384.4,71s-97.2-23.6-133.7-2.5c-37.7,21.8-42.9,79.4-64.7,117
	C164.8,222,117.1,254.8,117.1,300z"/>
<path class="st1" d="M324.4,273.7c-0.1,0.7-0.1,1.3-0.2,1.9c-0.3,3.1-0.9,6.1-1.6,9.2c-2,9.1-5,21.9-14.2,35.8
	c-5.5,8.1-12.2,15.5-20.1,22c-5.1-8.4-10.3-16.9-15.4-25.3c1.8-4.2,22.9-53.3,10.9-59c-3.3-1.6-11.5-0.9-16.3-0.5
	c-4.7,0.4-9.3,1.2-13.8,2.4l-25.1,6.3l-3.1,0.8c-0.3-1.9-0.9-3.8-1.6-5.7c-0.6-1.5-1.2-3-2-4.4c-2.3-4.2-5.5-8-9.5-11.2
	c1.8-0.9,4.4-2.1,7.5-3.5c0,0,3.1-1.3,7.8-3c2.8-1,6.3-2.1,9.8-3.2c2.3-0.6,4.7-1.3,7.1-1.8c8.8-1.9,43.6-7.2,63.8,1.7
	c4.4,1.8,8.1,4.6,10.8,8.1c0.6,0.8,1.1,1.6,1.5,2.4c0.2,0.3,0.3,0.6,0.4,0.9c0.1,0.3,0.2,0.5,0.3,0.7c1,2.1,1.7,4.3,2.2,6.6
	C324.8,261.2,325,267.5,324.4,273.7z"/>
<path class="st1" d="M351.5,377.1c-4.4,3.4-9.5,8.2-13.4,15.1c-13.9,24.2-1.6,51.7,0.2,55.6c-5.7-1.8-11.4-3.5-17.2-5.3
	c-5.7-1.8-11.4-3.6-17.1-5.3l-9.1-2.8c-20.7-6.3-22.8-6.9-24.6-7.6c-4-1.4-7.7-3.5-11-6.1c-18.7-14.6-33.3-58-33.3-58
	c-1.1-5.3-2.7-11.4-5.2-18c-1.9-5.1-4.1-9.6-6.2-13.5c2.7-2.8,7.1-6.7,13.5-9.8c6.1-3,11.7-4.2,15.4-4.7c22-6.5,34.5-3,41.9,1.7
	c14.3,9.2,13.1,24.8,28.2,40.1C320.2,365.4,331.4,373.5,351.5,377.1z"/>
<path class="st2" d="M338.2,447.8c5,3.7,11.5,7.7,19.6,11.1c15.8,6.7,30.2,7.8,39.5,7.6c20.8-0.7,42.1-1.1,63.7-1.3
	c35.3-0.3,69.6,0.2,102.7,1.3c0-4.1,0.1-8.2,0.1-12.2c-51-13.1-102-26.1-153-39.2c6.7-3.8,13.4-7.6,20.1-11.5
	c13.1,27.8,26.2,55.5,39.3,83.3l12.2-1.3c-4.3-44.9-8.6-89.7-13-134.6c-39.3,8.7-78.7,17.4-118,26.1c-4.1,3.4-13.9,12.4-18.3,27.7
	C326.9,426.3,336.2,444.1,338.2,447.8z"/>
<path class="st3" d="M582.1,432.3l-4.3,36.3c0,0-9.4,1.3-12.6-4.4C562,458.6,573.3,438.3,582.1,432.3"/>
<path class="st3" d="M502.6,509.8l-34.7-11.3c0,0,0.6-9.5,6.8-11.5S498.4,500,502.6,509.8"/>
<path class="st4" d="M351.5,377.1c-4,3.3-14.4,12.7-18.7,28.8c-5.6,21.1,3.3,38.2,5.4,41.9c-13.4-4.2-28-9.4-43.3-15.9
	c-17.8-7.6-33.6-15.7-47.5-23.6c-4.1-5.5-9.4-13.9-13.2-25c-3.2-9.3-4.4-17.6-4.8-23.9c7.2,7.1,17.9,15.6,32.5,21.6
	C303.2,398,342.4,381.3,351.5,377.1z"/>
<path class="st5" d="M313.6,444.8c-1.7,0.7-3.5,1.1-5.3,1.3c-9,0.6-17-4.3-18-11c-0.8-5.9,4.1-11.3,11.5-13l2.9-0.5
	c8.3-0.6,15.5,3.5,17.5,9.3c0.1,0.5,0.4,1.2,0.5,1.7C323.6,438,319.6,442.7,313.6,444.8z"/>
<path class="st4" d="M313.6,444.8c-1.7,0.7-3.5,1.1-5.3,1.3c-9,0.6-17-4.3-18-11c-0.8-5.9,4.1-11.3,11.5-13c0,0.3,0.3,0.6,0.4,1.2
	c1.9,4.3,6.3,10.4,11.4,11.1c3.5,0.6,6.4-1.6,8.6-3.4c0.1,0.5,0.4,1.2,0.5,1.7C323.6,438,319.6,442.7,313.6,444.8z"/>
<path class="st1" d="M297,417.4c-0.4,11.8-0.9,23.6-1.3,35.4c-15,0.1-30.1-1-44.9-3.2c-5.5-0.8-9.9-1.4-13.5-2.1
	c-5.4-0.9-9-1.9-11.8-3.3c-9.2-4.7-15.2-12.8-19.2-21.9c-0.5-1.2-1-2.4-1.5-3.7c-7.6-20.9-5.7-45.9-5.3-50.7
	c2-25.1,11.3-36,15.2-36.7c2.7-0.4,5.4-0.3,8,0.2c0.8,0.2,1.7,0.4,2.5,0.7c0.6,0.2,0.9,0.4,0.9,0.4l5.9,4.3
	c2.8,2.1,5.6,8.7,5.1,28.6c-2,3.9-8.4,18.1-2.3,31.6C242.6,414.8,268.9,425.3,297,417.4z"/>
<path class="st4" d="M410.8,415.1c-24.6-6.7-49.2-13.3-73.8-20c1.3-2.7,3.3-6.1,6-9.6c3-3.7,6-6.5,8.5-8.4l0,0
	c39.3-8.7,78.7-17.4,118-26.1c0,0.5,2,20.3,2,20.8c0.2,2.5,4.2,44,4.5,46.5c3,31.2,6.3,65.7,6.5,67.3l-12.2,1.3
	c-13.1-27.8-26.2-55.5-39.3-83.3C424.1,407.4,417.5,411.2,410.8,415.1z"/>
<path class="st4" d="M253.6,260.8l-22.3,5.7l-4.1-4.4l-3-3.2c-2.4-2.5-4.7-5-7.1-7.5c-1.6-1.7-3.2-3.4-4.8-5.1
	c1.1-0.6,2.2-1.2,3.6-1.8c3.7-1.8,7.6-3.3,11.6-4.5c0.8,0.4,1.6,0.9,2.2,1.5c0.3,0.3,0.6,0.7,0.9,1c2.5-0.9,5.5-1.9,8.7-2.8
	c4.2,2.3,7.8,5.4,10.3,9.1C252.1,252.3,253.5,256.5,253.6,260.8L253.6,260.8z"/>
<path class="st4" d="M324.4,272.6c-0.1,0.7-0.1,1.3-0.2,1.9c-0.3,3.1-0.9,6.2-1.6,9.3c-2,9.2-4.9,22.1-14,36.1
	c-3.4,5.1-7.2,10-11.6,14.5c0,0,0-0.1,0-0.1c13.2-25.6,22.2-52.7,26.7-80.5C324.8,260,325,266.4,324.4,272.6z"/>
<g>
	<path class="st3" d="M666,301.2H389.2c-3.4,0-6.6-1.3-9-3.7c-2.4-2.4-3.7-5.6-3.7-9v-29.9c0-3.4,1.3-6.6,3.7-9
		c2.4-2.4,5.6-3.7,9-3.7H666c3.4,0,6.6,1.4,9,3.7c2.4,2.4,3.7,5.6,3.7,9v29.9c0,3.4-1.4,6.6-3.8,9
		C672.6,299.8,669.3,301.2,666,301.2z M389.2,251.6c-1.8,0-3.6,0.7-4.9,2c-1.3,1.3-2,3.1-2,4.9v29.9c0,1.8,0.7,3.6,2,4.9
		c1.3,1.3,3.1,2,4.9,2H666c1.8,0,3.6-0.7,4.9-2c1.3-1.3,2-3,2-4.9v-29.9c0-1.8-0.7-3.6-2-4.9c-1.3-1.3-3.1-2-4.9-2H389.2z"/>
	<path class="st2" d="M467,259.6h-73.8c-1.2,0-2.2,2.4-2.2,5.5v16.5c0,3,1,5.5,2.2,5.5H467c1.2,0,2.2-2.4,2.2-5.5v-16.5
		C469.2,262.1,468.2,259.6,467,259.6z"/>
</g>
<g>
	<path class="st6" d="M491.2,148.9c7-32-13.3-63.6-45.3-70.6c-32-7-63.6,13.3-70.6,45.3c-7,32,13.3,63.6,45.3,70.6
		C452.7,201.2,484.3,180.9,491.2,148.9z"/>
	<path class="st7" d="M433.4,198.9c-4.7,0-9.5-0.6-14.1-1.6c-15.5-3.6-29-12.9-37.8-26.2c-8.8-13.2-12.2-29.3-9.5-45
		c2.7-15.7,11.3-29.7,24-39.3c12.7-9.5,28.6-13.9,44.4-12.1c15.8,1.8,30.3,9.6,40.6,21.7c10.3,12.1,15.5,27.8,14.6,43.6
		c-0.9,15.9-7.8,30.8-19.4,41.7C464.6,192.7,449.3,198.8,433.4,198.9L433.4,198.9z M433.3,80.3c-10.5,0-20.9,3-29.8,8.6
		c-8.9,5.6-16.1,13.6-20.7,23.1s-6.4,20.1-5.2,30.6c1.2,10.5,5.3,20.4,11.9,28.7c6.6,8.2,15.3,14.5,25.3,18c10,3.5,20.7,4.1,31,1.8
		c10.3-2.3,19.7-7.5,27.2-15c7.5-7.5,12.7-16.9,15-27.1c1.9-8.2,1.9-16.7,0-24.9c-1.9-8.2-5.6-15.9-10.8-22.5
		c-5.2-6.6-11.9-11.9-19.5-15.6C450,82.2,441.7,80.3,433.3,80.3z"/>
	<path class="st2" d="M413.6,146.2c-0.9,0-1.7-0.3-2.4-0.9c-0.7-0.6-1.1-1.4-1.2-2.2c-0.1-0.9,0-1.7,0.5-2.5c0.5-0.7,1.2-1.3,2-1.6
		l17.6-5.5l8.3-39.4c0.3-0.9,0.8-1.7,1.6-2.1c0.8-0.5,1.7-0.6,2.7-0.5c0.9,0.2,1.7,0.7,2.3,1.5c0.5,0.8,0.8,1.7,0.6,2.6l-9.1,43.6
		l-21.7,6.9C414.4,146.2,414,146.2,413.6,146.2z"/>
</g>
<path class="st5" d="M243.3,285.7c-2.7-3.4-4.1-2.3-8.6-7.9c-3.3-4.1-6.3-8.4-9-12.8c-1.6-2.5-2.5-4.3-2.5-4.3L207,253l-31.4,8.9
	c1.9,5.2,1.4,9.4-0.1,10.1c-1.5,0.7-4-1.6-4.5-2.1c1.3,4.1,3.3,10,6,17.2c0.6,1.6,1.2,3,1.3,3.4c2.3,5.7,5.1,11.1,8.5,16.2
	c1.3,2,2.6,3.9,4,5.8c1,1.3,2,2.6,3.1,3.8c1.2,1.3,2.6,1.6,3.4,1.9c22.8,8.3,32.2,5.7,32.2,5.7c3.3-0.9,10.3-2.8,14.8-9.3
	C250.5,305.7,248.9,292.8,243.3,285.7z"/>
<path class="st4" d="M202.5,363.1c0.7,1.1,1.6,2.1,2.8,2.7c-1.4-2.5-3-4.9-4.8-7.2C201.1,360.1,201.8,361.6,202.5,363.1z
	 M225.8,264.9c-1.6-2.5-2.5-4.3-2.5-4.3L207,253l-31.4,8.9c1.9,5.2,1.4,9.4-0.1,10.1c-1.5,0.7-4-1.6-4.5-2.1c1.3,4.1,3.3,10,6,17.2
	c0.6,1.6,1.2,3,1.3,3.5c2.3,5.7,5.1,11.1,8.5,16.2l0.1-0.5c1.7-4.9,0.8-7.7,3.5-11.6c1.9-2.7,4.4-4.7,7.4-6
	c13.2,0.6,26.2-3.2,37-10.9C231.5,273.7,228.5,269.4,225.8,264.9z"/>
<path class="st8" d="M215.6,241.6c-20.3-1.4-35.7,12.4-39.7,16c-1.7,1.5-28.4,26-22.4,51.6c2.9,12.3,10,14.3,12.4,23.1
	c3.4,12.8-5.1,34.5-60.9,73.3c-10.5,9.9-14.9,18.2-13.1,24.8c4.3,16.2,45,22.6,122.2,19.4c-19.4-10.6-32.9-26.9-31.4-40.6
	c0.8-7.5,6.7-20.4,13.4-30.4c0.9-1.3,0.9-1.3,1.5-2.2c9.6-15.1,13.7-41.4,3.5-59.8c-4-7.1-9.6-12.2-13.2-19c-1.6-3-2.7-6.2-3.2-9.5
	c-0.1-0.7-0.2-1.5-0.3-2.3c-0.2-2.6,2.7-6.7,3.1-11.1c6.9,1.7,32.3,6.8,44.1-7.3c0.5-0.6,4.6-5.6,5.5-11.1c0.4-2,0.2-4-0.5-5.9
	C233.4,242.8,220.9,241.9,215.6,241.6z"/>
<path class="st9" d="M201.1,316.8c-4-7.1-9.6-12.2-13.2-19c2,6.2,4.5,16.3,3.5,28.4c-3.9,43.6-49.4,60.7-46.6,90.8
	c0.8,8.2,5.4,20.2,25,33.5c6,0.1,12.1,0.2,18.4,0.1c9-0.1,17.6-0.4,25.9-0.9c-7.1-3.6-12.3-7.7-15.9-11.1
	c-6.4-6-14.9-13.9-15.7-25.7c-0.5-6.5,1.6-12,3.4-15.6c6.5-11.6,11.2-20.1,11.3-20.3c0.3-0.4,0.3-0.4,0.4-0.6
	C207.2,361.4,211.4,335.1,201.1,316.8z M237.2,256.3c-7.6,6.8-16.8,11.5-26.8,13.9c-9.9,2.4-20.3,2.3-30.2-0.3
	c2.3,1.9,4.7,3.5,7.3,4.8c6.9,1.7,32.3,6.8,44.1-7.3C232.2,266.8,236.3,261.8,237.2,256.3L237.2,256.3z"/>
</svg>
