<?xml version="1.0" encoding="UTF-8"?>
<svg id="Layer_2" data-name="Layer 2" xmlns="http://www.w3.org/2000/svg" viewBox="0 0 3803.95 3803.95">
  <defs>
    <style>
      .cls-1 {
        fill: #1a1a1a;
      }
    </style>
  </defs>
  <g id="Layer_1-2" data-name="Layer 1">
    <g>
      <ellipse cx="1905.08" cy="1922.71" rx="1898.88" ry="1881.24"/>
      <g>
        <path class="cls-1" d="m3776.73,1859.79c0,1027.1-845.42,1859.76-1888.32,1859.76S0,2886.89,0,1859.79,845.46,0,1888.4,0s1888.32,832.64,1888.32,1859.79Z"/>
        <path d="m1888.4,126.48c237.57,0,468.06,45.81,685.05,136.19,209.52,87.28,397.72,212.28,559.38,371.49,161.66,159.21,288.58,344.57,377.2,550.98,91.8,213.64,138.31,440.64,138.31,674.67s-46.51,461-138.31,674.64c-88.63,206.41-215.55,391.79-377.2,550.97-161.66,159.21-349.85,284.21-559.38,371.49-216.99,90.37-447.48,136.19-685.05,136.19s-468.15-45.82-685.06-136.19c-209.58-87.28-397.82-212.28-559.42-371.49-161.65-159.18-288.57-344.56-377.2-550.97-91.76-213.64-138.31-440.64-138.31-674.64s46.55-461.03,138.31-674.67c88.63-206.41,215.55-391.77,377.2-550.98,161.6-159.21,349.84-284.2,559.42-371.49,216.92-90.38,447.45-136.19,685.06-136.19h0Zm0-43.13C892.22,83.35,84.66,878.71,84.66,1859.79s807.55,1776.41,1803.74,1776.41,1803.72-795.33,1803.72-1776.41S2884.54,83.35,1888.4,83.35h0Z"/>
        <path d="m3185.6,1859.82c0,705.56-580.79,1277.53-1297.2,1277.53s-1297.22-571.97-1297.22-1277.53S1171.95,582.21,1888.4,582.21s1297.2,571.97,1297.2,1277.61Z"/>
        <path d="m3158,1859.82c0,690.55-568.39,1250.35-1269.59,1250.35s-1269.64-559.8-1269.64-1250.35S1187.19,609.4,1888.4,609.4s1269.59,559.82,1269.59,1250.42Z"/>
      </g>
    </g>
  </g>
</svg>