<?xml version="1.0" encoding="utf-8"?>
<!-- Generator: Adobe Illustrator 27.3.1, SVG Export Plug-In . SVG Version: 6.00 Build 0)  -->
<svg version="1.1" id="Layer_1_copy" xmlns="http://www.w3.org/2000/svg" xmlns:xlink="http://www.w3.org/1999/xlink" x="0px"
	 y="0px" viewBox="0 0 579 574.4" style="enable-background:new 0 0 579 574.4;" xml:space="preserve">
<style type="text/css">
	.st0{fill:#424242;}
	.st1{fill:#A7AAB3;}
	.st2{opacity:0.22;enable-background:new    ;}
	.st3{fill:#3B3B3B;}
	.st4{fill:#2E2E2E;}
	.st5{opacity:0.19;enable-background:new    ;}
	.st6{opacity:0.1;enable-background:new    ;}
	.st7{fill:#FFCB9D;}
	.st8{fill:#DC2D3C;}
	.st9{fill:#DADBE0;}
	.st10{opacity:0.15;enable-background:new    ;}
	.st11{opacity:0.35;enable-background:new    ;}
	.st12{opacity:0.5;enable-background:new    ;}
	.st13{fill:none;}
</style>
<g>
	<path class="st0" d="M413.9,224.3l-5.5,28.2h-63.7l5.3-27.2l-5.3-1.1l-60.7,308.4l5.3,1.1l5.6-28.8h63.8l-5.5,27.8l5.3,1.1
		l60.7-308.6L413.9,224.3L413.9,224.3z M407.2,257.8l-11.1,56.4h-63.7l11.1-56.4H407.2L407.2,257.8z M320.3,376l11.1-56.4h63.7
		L384,376H320.3z M383.1,381.5l-11.1,56.4h-63.7l11.1-56.4H383.1z M296,499.7l11.1-56.4h63.7l-11.1,56.4H296z"/>
	<path class="st1" d="M463.5,449.2l-9.1-47l-35.1-178.1l-5.5,1.1l5.3,27h-63.6l-5.5-28.1l-5.5,1.1l60.9,308.5l5.5-1.1l-5.5-27.6H469
		l5.6,28.7l5.5-1.1L463.5,449.2L463.5,449.2z M356.7,258h63.6l10.9,56.3h-63.6L356.7,258z M368.8,319.7h63.6l10.9,56.3h-63.6
		L368.8,319.7z M381.1,381.6h63.6l5.8,29.3l5.3,26.8h-63.7L381.1,381.6L381.1,381.6z M404.2,499.7l-10.9-56.3h63.6l0.3,1.5l0.6,3.2
		l10,51.6H404.2L404.2,499.7z"/>
	<path class="st2" d="M463.5,449.2l-5.9-1.1l-0.6-3.2l-0.3-1.5h-25.2c1.4-2.4,3.5-4.4,6.1-5.6h17.9l-5.3-26.8l4-8.5L463.5,449.2
		L463.5,449.2z"/>
	<path class="st3" d="M150.7,43H435c9.1,0,16.5,7.3,16.5,16.5v162.7c0,9.1-7.3,16.5-16.5,16.5H150.7c-9.1,0-16.5-7.3-16.5-16.5V59.6
		C134.2,50.4,141.5,43,150.7,43z"/>
	<path class="st4" d="M435,39.2H150.7c-11.2,0-20.5,9.1-20.5,20.5v162.7c0,11.2,9.1,20.5,20.5,20.5H435c11.2,0,20.5-9.1,20.5-20.5
		V59.6C455.5,48.3,446.3,39.2,435,39.2L435,39.2z M447.7,222.2c0,4.9-2.9,9.4-7.3,11.4c-1.7,0.8-3.5,1.2-5.3,1.2H150.7
		c-7,0-12.6-5.6-12.6-12.6V59.6c0-7,5.6-12.6,12.6-12.6H435c7,0,12.6,5.6,12.6,12.6L447.7,222.2L447.7,222.2L447.7,222.2z"/>
	<path class="st5" d="M410.8,242.8h-51.9c-3-2.3-5.8-4.9-8.4-7.8c-0.3-0.3-0.6-0.8-0.9-1.1c-5.3-5.9-8.8-13.2-10.2-21.1
		c-0.2-0.6-0.2-1.4-0.3-1.8c0.9-3.5,4.1-6.1,7.6-6.2c2.3,0.2,4.4,1.2,5.8,3c2.3,4.6,5.2,8.7,8.7,12.2c4.9,4.9,9.9,7.8,16.8,10.8
		C388.6,235.7,399.5,239.6,410.8,242.8L410.8,242.8z"/>
	<path class="st1" d="M197.1,106.9L176.6,82h-10.8v46.7h12.9v-24.9l20.6,24.9h10.8V82h-12.9C197.1,82,197.1,106.9,197.1,106.9z
		 M261.6,87.9c-2.4-2.1-5.2-4-8.2-5c-6.7-2.4-13.8-2.4-20.6,0c-6.1,2.1-11.1,6.8-13.7,12.8c-1.4,3-2,6.2-2,9.6s0.6,6.5,2,9.6
		c1.2,2.9,3,5.5,5.5,7.8c2.4,2.3,5.2,4,8.2,5c6.7,2.4,13.8,2.4,20.6,0c3-1.1,5.8-2.9,8.2-5c2.3-2.1,4.1-4.7,5.5-7.6
		c1.4-3,2-6.4,2-9.7c0-3.3-0.6-6.5-2-9.6C265.7,92.6,263.8,90.1,261.6,87.9L261.6,87.9z M254.6,110.8c-0.6,1.5-1.5,3-2.7,4.3
		c-1.1,1.2-2.4,2.1-4,2.7c-3.2,1.2-6.7,1.2-9.9,0c-1.5-0.6-2.9-1.5-4-2.7c-1.2-1.2-2.1-2.6-2.7-4.3c-1.2-3.5-1.2-7.4,0-10.9
		c0.6-1.5,1.5-3,2.7-4.3c1.1-1.2,2.6-2.1,4-2.7c3.2-1.2,6.7-1.2,9.9,0c1.5,0.6,2.9,1.5,4,2.7c1.2,1.2,2,2.6,2.7,4.3
		C255.8,103.4,255.8,107.3,254.6,110.8z M270.8,82v10.5h14.3v36.1h13.1V92.5h14.3V82H270.8L270.8,82z"/>
	<path class="st1" d="M165.7,191.7H179v-16.1h20.5v-10.2H179v-10h23.4V145h-36.6V191.7L165.7,191.7z M250.2,150.9
		c-2.4-2.3-5.2-4-8.2-5c-6.7-2.4-14.1-2.4-20.8,0c-6.1,2.3-10.9,6.8-13.5,12.8c-1.4,3-2,6.2-2,9.6c0,3.4,0.6,6.7,2,9.7
		c2.6,5.9,7.6,10.6,13.7,12.8c6.7,2.4,14.1,2.4,20.6,0c3-1.1,5.8-2.9,8.2-5c2.3-2.1,4.1-4.7,5.5-7.8c1.4-3,2-6.4,2-9.7
		C257.7,161.8,254.9,155.6,250.2,150.9L250.2,150.9z M243.2,173.8c-0.6,1.5-1.5,3-2.7,4.3c-1.1,1.2-2.4,2.1-4,2.7
		c-3.2,1.2-6.7,1.2-9.9,0c-1.5-0.6-2.9-1.5-4-2.7c-1.2-1.2-2.1-2.6-2.6-4.3c-1.2-3.5-1.2-7.4,0-10.9c0.6-1.5,1.5-3,2.6-4.3
		c1.2-1.2,2.6-2.1,4-2.7c3.2-1.2,6.7-1.2,9.9,0c1.5,0.6,2.9,1.5,4,2.7c1.2,1.2,2.1,2.6,2.7,4.3C244.6,166.3,244.6,170.3,243.2,173.8
		z M294.9,170.6c0,4-0.8,6.8-2.3,8.5c-1.7,1.8-4,2.7-6.4,2.6c-2.4,0.2-4.7-0.8-6.4-2.6c-1.5-1.7-2.3-4.6-2.3-8.5v-25.5h-13V171
		c0,6.8,2,12.2,5.8,16.1c3.8,3.8,9.1,5.6,16.2,5.6s12.2-1.8,16.1-5.6c3.8-3.8,5.8-9.1,5.8-16.1v-25.9h-13.1L294.9,170.6L294.9,170.6
		z M348.2,169.8l-20.5-24.9h-10.9v46.8h12.9v-24.9l11.1,13.4l9.4,11.4h10.8V145h-12.9L348.2,169.8L348.2,169.8z M415.4,156
		c-2.3-3.5-5.3-6.2-9.1-8.1c-4.3-2-8.8-2.9-13.5-2.9h-22.1v46.8h22.1c4.7,0.2,9.3-0.9,13.5-2.9c3.8-1.8,6.8-4.6,9.1-8.1
		c2.3-3.6,3.5-8.1,3.3-12.3C418.9,163.9,417.7,159.7,415.4,156z M403.6,175.2c-1.1,1.8-2.6,3.5-4.6,4.4c-2.1,1.1-4.6,1.5-7,1.5h-8.2
		v-25.6h8.2c2.4,0,4.9,0.5,7,1.5c2,0.9,3.5,2.4,4.6,4.4C405.9,165.7,405.9,170.9,403.6,175.2L403.6,175.2z"/>
	<path class="st6" d="M361.2,180.2v11.6h-10.8l-9.4-11.4c2.4-2.4,5.6-3.8,9-4.1h2.4C355.8,176.4,358.8,177.7,361.2,180.2
		L361.2,180.2z"/>
	<path class="st7" d="M61,309.9c-3.2,2.9-10.6,0.6-11.4-2.7c-0.2-0.6-0.3-1.8,1.4-4c-0.9,0.2-6.1,1.2-9.6-1.7
		c-0.3-0.2-0.5-0.5-0.6-0.6c-0.6-0.6-1.4-1.4-1.2-2.1c0.6-3.2,14.6-7,20.5-0.5c0.6,0.8,1.1,1.5,1.5,2.4
		C63,303.5,63.3,307.7,61,309.9L61,309.9z"/>
	<path class="st6" d="M61,309.9c-3.2,2.9-10.6,0.6-11.4-2.7c-0.2-0.6-0.3-1.8,1.4-4c-0.9,0.2-6.1,1.2-9.6-1.7
		c3.8-1.2,7.8-1.7,11.9-1.7c2.7,0,5.5,0.3,8.2,0.8C63,303.5,63.3,307.7,61,309.9L61,309.9z"/>
	<path class="st7" d="M176.5,309.9c3.2,2.9,10.6,0.6,11.4-2.7c0.2-0.6,0.3-1.8-1.4-4c0.9,0.2,6.1,1.2,9.6-1.7
		c0.3-0.2,0.5-0.5,0.6-0.6c0.6-0.6,1.4-1.4,1.2-2.1c-0.6-3.2-14.6-7-20.5-0.5c-0.6,0.8-1.1,1.5-1.5,2.4
		C174.5,303.5,174.2,307.7,176.5,309.9L176.5,309.9z"/>
	<path class="st6" d="M176.5,309.9c3.2,2.9,10.6,0.6,11.4-2.7c0.2-0.6,0.3-1.8-1.4-4c0.9,0.2,6.1,1.2,9.6-1.7
		c-3.8-1.2-7.8-1.7-11.9-1.7c-2.7,0-5.5,0.3-8.2,0.8C174.4,303.5,174.1,307.7,176.5,309.9L176.5,309.9z"/>
	<path class="st8" d="M154.8,319.1l-1.8,20.6c-0.9,9.7-1.7,19.6-2.6,29.3l-0.9,10.5l-0.6,7.8l-2,23.2H94.3L92,387.1
		c-0.3-2.4-0.5-5-0.8-7.6c-0.3-4-0.8-7.8-1.2-11.7l-0.6-5.8c-1.4-14.3-2.9-28.7-4.3-43L154.8,319.1L154.8,319.1z"/>
	<path class="st9" d="M94.1,410.5l4.6,109.7h8.8l12.3-84.7l8.5,84.6h6.5l11.9-109.7H94.1C94.1,410.4,94.1,410.5,94.1,410.5z"/>
	<path class="st10" d="M128.4,520.1l-8.5-84.6l3.8-25h23.2l-11.9,109.6H128.4L128.4,520.1z"/>
	<path class="st8" d="M101.4,318.4c0,0,7.1,0.3,10-4l17.9-1.2c0,0,5.3,9,10.5,9.3c5.2,0.3-14.3,2.7-14.3,2.7l-24.3-2.7L101.4,318.4
		L101.4,318.4z"/>
	<path class="st7" d="M93.6,279.7c1.2,2.4,3,6.1,5.3,10.3l1.2,2.1c2.7,4.7,6.1,9,9.9,12.9c0.8,0.8,1.5,1.5,2.3,2.1
		c2.9,2.4,16.4,1.1,26.1-4.4c9.7-5.5,9-17.1,2.7-19.4c-2.3-1.1-4.3-2.4-6.1-4.3c-2.4-2.3-4.7-4.7-6.8-7.4c-1.2-1.5-2-2.4-2-2.4
		l-10.9-3.3l-19.2,8.4c1.7,3.2,1.7,5.8,0.8,6.4C95.9,281.3,93.9,279.8,93.6,279.7L93.6,279.7z"/>
	<path class="st6" d="M93.6,279.7c1.2,2.4,3,6.1,5.3,10.3l1.2,2.1c2.7,4.7,6.1,9,9.9,12.9c1.1-0.9,2-2.1,2.6-3.3
		c0.8-1.4,1.1-2.9,1.2-4.4c0-1.7-0.2-3.3-0.6-4.9c-0.3-1.1-0.5-2-0.9-3c8.4-0.8,16.4-4.3,22.6-10c-2.4-2.3-4.7-4.7-6.8-7.3
		c-1.2-1.5-2-2.4-2-2.4l-10.9-3.3L96,274.8c1.7,3.2,1.7,5.8,0.8,6.4C95.8,281.6,93.9,279.8,93.6,279.7L93.6,279.7z"/>
	<path class="st0" d="M135.2,263.2c1.7-1.7,2.7-4,2.7-6.7c0-5.2-4.1-9.3-9.3-9.3c-4.1,0-7.6,2.7-8.8,6.4c-1.2-3.8-4.7-6.4-8.8-6.4
		c-4.7,0-8.7,3.6-9.1,8.2c-1.4-0.9-3-1.4-4.9-1.4c-5.2,0-9.3,4.1-9.3,9.3c0,2,0.6,3.8,1.7,5.3c-2.7,1.1-4.9,3.6-4.9,6.8
		c0,4.1,3.3,7.3,7.3,7.3h0.2c0.2,0.6,0.3,1.1,0.6,1.7c1.8,4,5,7,9.1,8.7c0.8,0.2,1.5,0.5,2.3,0.8c2,1.1,3.8,2.6,5,4.6
		c0.5-1.5,0.5-3,0-4.4c-1.1-2.1-2.3-4.3-3.6-6.2l-0.2-0.3c-0.2-0.3-0.3-0.5-0.5-0.9c-0.5-0.9-0.9-2-1.4-3v-0.2
		c6.1,0.8,23.2,2,29.4-9.1c0.9-1.7,1.7-3.6,2.1-5.5c0-0.2,0.2-0.3,0.2-0.5c0.2-0.5,0.2-1.1,0.2-1.5v-0.2
		C135.8,265.7,135.8,264.4,135.2,263.2L135.2,263.2z"/>
	<path class="st6" d="M102.4,374c-0.8,6.1-4.9,11.1-10.6,13.1c-0.3-2.4-0.5-5-0.8-7.6c-0.3-4-0.8-7.8-1.2-11.7l12.5-37.2
		C102.4,330.8,104.6,359.1,102.4,374L102.4,374z M150.4,369l-0.9,10.5l-0.6,7.8c-6.1-1.8-10.5-7-11.2-13.4c-2.1-14.9,0-43.3,0-43.3
		L150.4,369z"/>
	<path class="st8" d="M107,319c-5.5,24-12,52.6-12,52.6c-0.5,1.1-1.1,2.3-1.8,3.2c-1.4,1.7-2.9,3.2-4.6,4.6c-1.2,1.2-2.7,2-4.4,2.6
		c-4.4,1.1-10.3-5-15.8-13.1c-2.7-4.3-5.2-8.7-7.1-13.2c-4.1-9.3-3.6-12.5-9.9-32.2c-2.4-7.6-4.6-13.7-6.1-18l27.8-1.1
		c0.3,2.1,0.8,5,1.2,8.4c1.7,12.2,2.9,23.7,3.5,31v-4.6c0.2-3.3,0.5-6.5,1.1-9.7c1.1-5.3,4-19.6,11.7-21.2
		C96.2,307.3,102.6,312,107,319z M195.1,305.6c-1.5,4.1-3.6,10.3-6.1,18c-6.2,19.7-5.8,22.9-9.9,32.2c-2.3,5.2-5,10-8.1,14.6
		c-5,7.4-10.6,12.8-14.8,11.7c-1.8-0.6-3.5-1.7-5-3c-1.4-1.2-2.7-2.6-4-4.1c-0.6-1.1-1.2-2.1-1.7-3.2l-12-52.6
		c1.1-2.3,5.2-10.6,11.2-11.1c8.1-0.5,14.8,13.1,16.7,21.5c0.6,3.2,0.9,6.5,1.1,9.7v4.6c0.6-7.3,1.8-18.8,3.5-31
		c0.5-3.5,0.9-6.4,1.2-8.4L195.1,305.6L195.1,305.6z"/>
	<path class="st10" d="M455.5,165.4V232c-1.1,0.9-2.4,1.7-3.8,2.1l-0.3,0.2c-3.6,1.2-7.4,1.4-11.1,0.2l0.2-0.9
		c4.4-2.1,7.3-6.5,7.3-11.4v-61.1c0.3,0,0.6,0.2,0.9,0.2C451.4,161.9,453.6,163.5,455.5,165.4L455.5,165.4z"/>
	<path class="st9" d="M513.1,348.4l-0.9-5l-2.9-14.9l-3.6,0.8l-16.5,3.2l-3,0.6l2.9,14.9l0.9,5l0.3,2l23.2-4.6L513.1,348.4
		L513.1,348.4z M504.8,332.4l2.1-0.5l2.3,12l0.8,4l-17.4,3.3l-0.8-4l-2.3-12h0.2L504.8,332.4z"/>
	<path class="st11" d="M513.1,348.4l-0.9-5l-2.9-14.9l-3.6,0.8l-16.5,3.2l-3,0.6l2.9,14.9l0.9,5l0.3,2l23.2-4.6L513.1,348.4
		L513.1,348.4z M504.8,332.4l2.1-0.5l2.3,12l0.8,4l-17.4,3.3l-0.8-4l-2.3-12h0.2L504.8,332.4z"/>
	<path class="st9" d="M539.5,375.6l-6.1-31.1l-0.9-5l-9.9,1.8l0.9,4.9l2.7,14.1c0.3,1.4-0.6,2.6-1.8,2.9l-4,0.8
		c-1.4,0.3-2.6-0.6-2.9-1.8l-2.7-14.1l-0.9-4.9l-3.6,0.6l-20.3,4l-3.3,0.6l0.9,4.9l2.7,14.1c0.3,1.4-0.6,2.6-1.8,2.9l-4,0.8
		c-1.4,0.3-2.6-0.6-2.9-1.8l-2.7-14.1l-0.9-4.9l-11.9,2.3l7,36.1l5.6-1.1L539.5,375.6L539.5,375.6z"/>
	<path class="st6" d="M539.5,375.6l-6.1-31.1l-0.9-5l-9.9,1.8l0.9,4.9l2.7,14.1c0.3,1.4-0.6,2.6-1.8,2.9l-4,0.8
		c-1.4,0.3-2.6-0.6-2.9-1.8l-2.7-14.1l-0.9-4.9l-3.6,0.6l-20.3,4l-3.3,0.6l0.9,4.9l2.7,14.1c0.3,1.4-0.6,2.6-1.8,2.9l-4,0.8
		c-1.4,0.3-2.6-0.6-2.9-1.8l-2.7-14.1l-0.9-4.9l-11.9,2.3l7,36.1l5.6-1.1L539.5,375.6L539.5,375.6z"/>
	<path class="st9" d="M539.5,375.6l-60.8,11.9l-6.1-31.1l6.2-1.2l2.7,14.1c0.3,1.4,1.5,2.1,2.9,2l4-0.8c1.4-0.3,2.1-1.5,1.8-2.9
		l-2.7-13.8l3.6-0.8l20.3-4l3.5-0.6l2.7,14.1c0.3,1.4,1.5,2.1,2.9,1.8l4-0.8c1.4-0.3,2.1-1.5,2-2.7l-2.7-14.1l9.7-1.8l4,20
		L539.5,375.6L539.5,375.6z"/>
	<path class="st8" d="M490.2,367.4l-2.7-13.8l-0.9-4.9c-0.3-1.2-1.5-2.1-2.7-1.8l-4,0.8c-1.2,0.3-2.1,1.5-1.8,2.7l0.9,4.9l2.7,14.1
		c0.3,1.4,1.5,2.1,2.9,2l4-0.8C489.6,369.9,490.4,368.7,490.2,367.4L490.2,367.4z M526.2,360.3l-2.7-14.1l-0.9-4.9
		c-0.3-1.2-1.5-2.1-2.7-1.8l-4,0.8c-1.2,0.3-2.1,1.5-1.8,2.9l0.9,4.9l2.7,14.1c0.3,1.4,1.5,2.1,2.9,1.8l4-0.8
		C525.7,362.9,526.5,361.7,526.2,360.3L526.2,360.3z"/>
	<path class="st7" d="M459.3,176.4c0.6,2.7,1.4,6.7,2.1,11.7c0.2,1.1,0.3,2.1,0.3,2.4c0.8,5.5,0.8,11.1,0,16.7
		c-0.2,1.1-0.3,2.1-0.6,3.2c-0.6,2.9-7.3,7.4-15.3,10.3c-2.7,0.9-5.6,1.7-8.5,2.1c-9,1.2-15.1-4.9-15.3-10.2c0-1.4,0.3-2.6,1.1-3.6
		c1.2-2.3,2-4.7,2.3-7.3c0.6-3.3,0.9-6.8,0.9-10.2c0.2-2,0-3.2,0-3.2l6.8-9.6l20.8-5c0.6,3.5,2.1,5.8,3.2,5.6
		C458.2,179.2,459.1,176.8,459.3,176.4L459.3,176.4z"/>
	<path class="st6" d="M459.3,176.4c0.6,2.7,1.4,6.7,2.1,11.7c0.2,1.1,0.3,2.1,0.3,2.4c0.8,5.5,0.8,11.1,0,16.7
		c-1.4-0.2-2.9-0.5-4.1-1.1c-1.4-0.8-2.7-1.7-3.8-2.9c-1.1-1.2-2-2.7-2.6-4.3c-0.5-0.9-0.9-2-1.2-3c-3.6,2.3-7.6,4-11.9,4.9
		c-4.1,0.9-8.4,1.2-12.6,0.8c0.6-3.3,0.9-6.8,0.9-10.2c0.2-2,0-3.2,0-3.2l6.8-9.6l20.8-5c0.6,3.5,2.1,5.8,3.2,5.6
		C458.2,179,459.1,176.8,459.3,176.4L459.3,176.4z"/>
	<path class="st0" d="M462.9,180.2c0.9,4.3,0.3,8.8-2,12.6c-0.5,0.6-0.9,1.4-1.4,2.1c-0.9,2.1-1.4,4.4-1.4,6.7
		c-1.2-0.9-2.1-2.1-2.7-3.6c-0.5-2.4-0.8-4.9-0.8-7.3v-0.3c0-0.2,0-0.5-0.2-0.9c-0.2-1.1-0.5-2.3-0.8-3.3v-0.2
		c-4.4,4.4-17.6,15.9-29.4,10.6c-1.8-0.8-3.6-1.8-5.2-3.2c-0.2-0.2-0.3-0.2-0.5-0.3c-0.3-0.3-0.8-0.6-1.1-1.1l-0.2-0.2
		c-0.9-0.9-1.5-2.1-2.1-3.2l-0.2-0.5c-0.9-2.6-0.5-5.6,1.2-7.9c2.1-3,4.9-5.8,8.2-7.8c7.9-5.6,21.2-9.7,30.6-3.6
		c2.4,1.7,4.4,3.8,5.8,6.2C462,176.8,462.6,178.5,462.9,180.2L462.9,180.2z"/>
	<path class="st7" d="M489,327.5c-0.3,1.1-0.5,2.1-0.3,3.2c0,4,2.1,7,5.3,7.6c4.1,0.8,8.4-2.9,9.7-8.2c0.2-0.6,0.3-1.2,0.3-1.7
		c0.5-4.6-1.7-8.4-5.2-9C494.6,318.7,490.4,322.3,489,327.5L489,327.5z"/>
	<path class="st6" d="M489,327.5c-0.3,1.1-0.5,2.1-0.3,3.2l1.2,0.2c5.3,0.2,7.6-1.7,13.4-2.4h0.8c0.5-4.6-1.7-8.4-5.2-9
		C494.6,318.7,490.4,322.3,489,327.5L489,327.5z"/>
	<path class="st7" d="M351.7,181.2c-0.5-1.1-1.1-2-1.7-2.7c-2.4-3-5.9-4.3-8.8-2.7c-3.6,2-4.7,7.4-2.6,12.5c0.3,0.5,0.6,1.1,0.9,1.5
		c2.4,3.8,6.5,5.6,9.7,3.8C352.7,191.8,353.8,186.1,351.7,181.2L351.7,181.2z"/>
	<path class="st6" d="M351.7,181.2c-0.5-1.1-1.1-2-1.7-2.7c-0.3,0.3-0.6,0.5-0.9,0.8c-4.3,3.2-4.9,6.1-9,10.2
		c-0.2,0.2-0.3,0.3-0.6,0.5c2.4,3.8,6.5,5.6,9.7,3.8C352.7,191.8,353.8,186.1,351.7,181.2L351.7,181.2z"/>
	<path class="st8" d="M469.6,316.4l-1.5,8.8l-17.4,98.8c-2,0.8-3.8,1.5-5.8,2.3c-2.3-9.1-4.3-18.6-6.1-28.8
		c-3.5-20.5-5.6-41-6.2-61.6c-4.7-1.2-9.6-2.4-14.4-3.6l-13.2-3.2c-0.2,5.5-0.3,11.4,0,17.7c0.2,5.8,0.6,11.2,1.2,16.5l-8.1,0.9
		c-6.7-20.9-13.5-41.7-20.3-62.8l17,1.4c7.1,0.6,14.1,1.2,21.2,2L469.6,316.4L469.6,316.4z"/>
	<path class="st9" d="M514.8,310.6c-0.3,7-1.5,13.1-2.7,18.3l-7.9-1.8l-13.5-3.2l-1.1-0.3l-1.2-0.3l-2.1-0.5l-2.4-0.6
		c-1.4-0.3-2.9-0.8-4.6-1.1c4.5-7.4,7.3-15.6,8.4-24.3c0,0,1.8-14.4-2.7-26.8l-0.3-0.9c-1.7-4-4.1-7.8-7-10.9l-0.8-0.8
		c-0.3,5.3-0.8,10-1.1,14.3c-0.9,10.3-2.3,19.2-3,25c-1.5,11.2-3.2,21.1-4.6,28.4l-52.5-20.6c-0.2-1.5-1.4-14.8-1.4-16.4
		c-0.2-2.6-0.8-9.6-1.5-17.1c-0.8-7.4-1.4-15.5-1.7-20.2c-1.5-0.2-2.9-0.2-4.6-0.5c-5.5-0.6-10.8-1.5-16.2-2.7l-3.6-0.9
		c-4.1-1.2-8.2-2.7-12.2-4.6c-5.8-2.6-11.2-5.9-16.2-9.7c-3.5-2.7-6.7-5.8-9.6-9.1c-3.2-3.5-6.2-7.2-9.1-10.9c-2.6-3.5-4.9-7-7-10.6
		c4.1-3.5,7.4-6.4,9.6-8.2c4.7-4.3,6.8-6.2,10.8-8.5c2.1-1.2,4.3-2.3,6.5-3c1.2,4.7,2.9,9.4,5,13.8c4.6,9.6,12.8,21.7,27.2,28.4
		c1.2,0.6,2.4,1.1,3.6,1.5c2.6,0.9,5.2,1.7,7.9,2.3c2.6,0.5,5.2,0.9,7.8,1.1c7.6,0.5,14.4,0.6,20.5,0.6c21.5,0,32.6-2.3,32.6-2.3
		s9.1-2,13.7,1.7l0.5,0.3c4.6,3.6,8.8,7.6,12.9,11.9c1.1,1.2,2.1,2.4,3.2,3.8c3.6,4.6,6.8,9.4,9.6,14.6c2.6,5,4.7,10.2,6.4,15.4
		c0.3,0.9,0.6,1.8,0.9,2.9c1.8,6.2,2.6,11.1,2.7,12.5c0.3,2.1,0.6,4.9,0.8,8.2C514.9,302.2,514.9,306.3,514.8,310.6L514.8,310.6z"/>
	<path class="st7" d="M450.1,227.6c-2.9,3-6.5,5-10.6,5.8c-0.2,0-0.5,0-0.6,0.2l-10-4.6L450.1,227.6L450.1,227.6z"/>
	<path class="st6" d="M476.7,257.5c-0.3,5.3-0.8,10-1.1,14.3c-0.9,10.3-2.3,19.2-3,25c-1.5,11.4-3.2,21.1-4.6,28.5l-52.5-20.6
		C465.5,303,476.7,257.5,476.7,257.5L476.7,257.5z M514.8,310.6c-0.3,7-1.5,13.1-2.7,18.3l-7.9-1.8l-13.5-3.2l-1.1-0.3l-1.2-0.3
		l-2.1-0.5l-2.4-0.6c3.6-3.8,7.4-8.1,11.1-13.2c8.1-11.1,13.1-22,16.5-31.1c1.8,6.2,2.6,11.1,2.7,12.5c0.3,2.1,0.6,4.9,0.8,8.2
		C514.9,302.2,514.9,306.3,514.8,310.6L514.8,310.6z"/>
	<path class="st0" d="M514,290.6c-4-3-7.1-7-9.1-11.7c-3.8-8.2-4.1-16.5-0.9-19.2c2.1,4,4.6,8.8,6.5,14.9
		C512.5,280.7,513.6,286.2,514,290.6z"/>
	<path class="st6" d="M467.9,325.4l-17.4,98.8c-2,0.8-3.8,1.5-5.8,2.3c-2.3-9.1-4.3-18.6-6.1-28.8c-3.5-20.5-5.6-41-6.1-61.8
		l0.8-24.3L467.9,325.4L467.9,325.4z"/>
	<path class="st0" d="M88.8,379.5c-1.2,1.2-2.7,2-4.4,2.6c-4.4,1.1-10.3-5-15.8-13.1c7.3-3.2,15.9,0,19.2,7.3
		C88.2,377.4,88.6,378.4,88.8,379.5z M170.9,370.4c-5,7.4-10.6,12.8-14.8,11.7c-1.8-0.6-3.5-1.7-5-3c2.4-7.6,10.6-11.7,18.3-9.3
		C169.8,370.1,170.4,370.2,170.9,370.4L170.9,370.4z"/>
	<path class="st8" d="M476.5,155.9c-3-1.2-6.4,0.3-7.4,3.3c-1.2,3,0.3,6.4,3.3,7.4c3,1.2,6.4-0.3,7.4-3.3
		C481.1,160.3,479.6,156.9,476.5,155.9z M487.3,109.6l-11.2,37.8l6.8,2.6l14.8-34.9L487.3,109.6L487.3,109.6z"/>
	<path class="st6" d="M539.5,375.6l-60.8,11.9c1.4-0.5,41.1-12.9,58.7-23L539.5,375.6L539.5,375.6z M450.1,227.6
		c-2.9,3-6.5,5-10.6,5.8c-0.2,0-0.5,0-0.6,0.2l-10-4.6L450.1,227.6L450.1,227.6z"/>
	<path class="st8" d="M439.4,233.4l19.1-11.9l4.4,4l-12.9,17L439.4,233.4L439.4,233.4z M438.8,233.6l-12.5-9.1l-2.9,3l8.5,12.8
		L438.8,233.6L438.8,233.6z"/>
	<path class="st6" d="M438.9,233.6l-12.5-9.1l-2.9,3l8.5,12.8L438.9,233.6L438.9,233.6z"/>
	<path class="st2" d="M421.6,380.7v0.8h-25.5v-0.8c0-1.7,0.6-3.5,1.7-4.9h22.1C421.2,377.4,421.6,379.1,421.6,380.7L421.6,380.7z"/>
	<path class="st0" d="M457,444.9l-0.3-1.5C456.8,443.8,456.8,444.3,457,444.9z M433.8,441.3l19.6-2.1c0,0,0.8-5-2.3-6.8
		C448,430.5,436.8,436.5,433.8,441.3L433.8,441.3z M391.1,384.8l17.9-8.1c0,0-0.9-5-4.4-5.8C401,370.2,392.7,379.4,391.1,384.8z
		 M117.6,535.2l-19.9-2.3c0,0-0.8-5.2,2.4-7C103.4,524.1,114.4,530.5,117.6,535.2L117.6,535.2z M146.9,535.2l-19.9-2.3
		c0,0-0.8-5.2,2.4-7C132.6,524.1,143.7,530.5,146.9,535.2L146.9,535.2z"/>
	<path class="st12" d="M453.6,186.1c-4.4,4.4-17.6,15.9-29.4,10.6c-1.8-0.8-3.6-1.8-5.2-3.2c-0.2-0.2-0.3-0.2-0.5-0.3
		c-0.5-0.3-0.8-0.6-1.1-1.1l-0.2-0.2c-0.9-0.9-1.5-2.1-2.1-3.2c2.9,1.7,6.1,2.9,9.4,3.6c16.4,3.3,29.7-9,31.9-10.9l0.2-0.2
		C455.8,183,454.9,184.5,453.6,186.1L453.6,186.1z"/>
	<path class="st12" d="M103.7,283.8c6.1,0.9,23.2,2,29.4-9.1c0.9-1.7,1.7-3.6,2.1-5.5c0-0.2,0.2-0.3,0.2-0.5
		c0.2-0.5,0.2-1.1,0.2-1.5v-0.2c0.2-1.2,0-2.6-0.3-3.8c-1.2,3-3,5.9-5.2,8.4c-10.8,12.3-28.5,10.5-31.4,10.3h-0.2
		C100,282.6,101.8,283.3,103.7,283.8L103.7,283.8z"/>
	<path class="st0" d="M386.6,246.9c-4.1-0.9-9.7-2.6-15.8-5.6c-5.3-2.7-9.3-5.8-12.3-8.4c2.4-0.3,9.4-0.8,16.8,3
		C382,239.3,385.4,244.6,386.6,246.9L386.6,246.9z"/>
</g>
<rect class="st13" width="579" height="574.4"/>
</svg>
