<?xml version="1.0" encoding="utf-8"?>
<!-- Generator: Adobe Illustrator 27.3.1, SVG Export Plug-In . SVG Version: 6.00 Build 0)  -->
<svg version="1.1" id="Layer_1" xmlns="http://www.w3.org/2000/svg" xmlns:xlink="http://www.w3.org/1999/xlink" x="0px" y="0px"
	 viewBox="0 0 800 600" style="enable-background:new 0 0 800 600;" xml:space="preserve">
<style type="text/css">
	.st0{opacity:7.000000e-02;enable-background:new    ;}
	.st1{fill:#424242;}
	.st2{fill:#A7AAB3;}
	.st3{opacity:0.22;enable-background:new    ;}
	.st4{fill:#3B3B3B;}
	.st5{fill:#2E2E2E;}
	.st6{opacity:0.19;enable-background:new    ;}
	.st7{fill:#DC2D3C;}
	.st8{opacity:0.1;enable-background:new    ;}
	.st9{fill:#FFCB9D;}
	.st10{fill:#DADBE0;}
	.st11{opacity:0.15;enable-background:new    ;}
	.st12{opacity:0.35;enable-background:new    ;}
	.st13{opacity:0.5;enable-background:new    ;}
</style>
<path class="st0" d="M146,285.7c0,42.2,44.7,72.8,64.3,106.8c20.4,35.1,25.2,88.9,60.3,109.1c34,19.8,82.5-2.3,124.8-2.3
	s90.7,22,124.8,2.3c35.1-20.4,40-74,60.3-109.1c19.8-34,64.3-64.7,64.3-106.8c0-42.1-44.7-72.8-64.3-106.8
	c-20.2-35.1-25.2-88.9-60.3-109.1C486.1,50,437.6,72,395.4,72s-90.7-22-124.8-2.3c-35.1,20.4-40,74-60.3,109.1
	C190.5,212.9,146,243.6,146,285.7z"/>
<path class="st1" d="M529,234.5l-5.5,28.1H460l5.3-27.1l-5.3-1.1l-60.5,307.4l5.3,1.1l5.6-28.7H474l-5.5,27.7l5.3,1.1l60.5-307.6
	L529,234.5z M522.4,267.9l-11.1,56.2h-63.5l11.1-56.2H522.4z M435.7,385.7l11.1-56.2h63.5l-11.1,56.2H435.7z M498.3,391.2
	l-11.1,56.2h-63.5l11.1-56.2H498.3z M411.5,509l11.1-56.2h63.5L475,509H411.5z"/>
<path class="st2" d="M578.5,458.7l-9.1-46.8l-35-177.5l-5.5,1.1l5.3,26.9h-63.4l-5.5-28l-5.5,1.1L520.5,543l5.5-1.1l-5.5-27.5h63.4
	l5.6,28.6l5.5-1.1L578.5,458.7z M472,268.1h63.4l10.9,56.1h-63.4L472,268.1z M484.1,329.6h63.4l10.9,56.1h-63.4L484.1,329.6z
	 M496.3,391.3h63.4l5.8,29.2l5.3,26.7h-63.5L496.3,391.3z M519.4,509l-10.9-56.1h63.4l0.3,1.5l0.6,3.2l10,51.4H519.4z"/>
<path class="st3" d="M578.5,458.7l-5.9-1.1l-0.6-3.2l-0.3-1.5h-25.1c1.4-2.4,3.5-4.4,6.1-5.6h17.8l-5.3-26.7l4-8.5L578.5,458.7z"/>
<path class="st4" d="M266.7,53.8h283.4c9.1,0,16.4,7.3,16.4,16.4v162.2c0,9.1-7.3,16.4-16.4,16.4H266.7c-9.1,0-16.4-7.3-16.4-16.4
	v-162C250.3,61.2,257.5,53.8,266.7,53.8z"/>
<path class="st5" d="M550.1,50H266.7c-11.2,0-20.4,9.1-20.4,20.4v162.2c0,11.2,9.1,20.4,20.4,20.4h283.4c11.2,0,20.4-9.1,20.4-20.4
	V70.4C570.5,59.1,561.3,50,550.1,50z M562.7,232.4c0,4.9-2.9,9.4-7.3,11.4c-1.7,0.8-3.5,1.2-5.3,1.2H266.7c-7,0-12.6-5.6-12.6-12.6
	v-162c0-7,5.6-12.6,12.6-12.6h283.4c7,0,12.6,5.6,12.6,12.6V232.4z"/>
<path class="st6" d="M525.9,252.9h-51.7c-3-2.3-5.8-4.9-8.4-7.8c-0.3-0.3-0.6-0.8-0.9-1.1c-5.3-5.9-8.8-13.2-10.2-21
	c-0.2-0.6-0.2-1.4-0.3-1.8c0.9-3.5,4.1-6.1,7.6-6.2c2.3,0.2,4.4,1.2,5.8,3c2.3,4.6,5.2,8.7,8.7,12.2c4.9,4.9,9.9,7.8,16.7,10.8
	C503.8,245.9,514.7,249.8,525.9,252.9z"/>
<path class="st7" d="M313,117.5l-20.5-24.8h-10.8v46.5h12.9v-24.8l20.5,24.8h10.8V92.7H313V117.5z M377.2,98.6c-2.4-2.1-5.2-4-8.2-5
	c-6.7-2.4-13.8-2.4-20.5,0c-6.1,2.1-11.1,6.8-13.7,12.8c-1.4,3-2,6.2-2,9.6c0,3.3,0.6,6.5,2,9.6c1.2,2.9,3,5.5,5.5,7.8
	c2.4,2.3,5.2,4,8.2,5c6.7,2.4,13.8,2.4,20.5,0c3-1.1,5.8-2.9,8.2-5c2.3-2.1,4.1-4.7,5.5-7.6c1.4-3,2-6.4,2-9.7c0-3.3-0.6-6.5-2-9.6
	C381.3,103.3,379.4,100.8,377.2,98.6z M370.3,121.4c-0.6,1.5-1.5,3-2.7,4.3c-1.1,1.2-2.4,2.1-4,2.7c-3.2,1.2-6.7,1.2-9.9,0
	c-1.5-0.6-2.9-1.5-4-2.7c-1.2-1.2-2.1-2.6-2.7-4.3c-1.2-3.5-1.2-7.4,0-10.9c0.6-1.5,1.5-3,2.7-4.3c1.1-1.2,2.6-2.1,4-2.7
	c3.2-1.2,6.7-1.2,9.9,0c1.5,0.6,2.9,1.5,4,2.7c1.2,1.2,2,2.6,2.7,4.3C371.5,114,371.5,117.9,370.3,121.4z M386.4,92.7v10.5h14.3v36
	h13.1v-36h14.3V92.7H386.4z"/>
<path class="st2" d="M281.7,202h13.2v-16h20.4v-10.2h-20.4v-10h23.3v-10.3h-36.5V202z M365.9,161.4c-2.4-2.3-5.2-4-8.2-5
	c-6.7-2.4-14-2.4-20.7,0c-6.1,2.3-10.9,6.8-13.5,12.8c-1.4,3-2,6.2-2,9.6c0,3.3,0.6,6.7,2,9.7c2.6,5.9,7.6,10.6,13.7,12.8
	c6.7,2.4,14,2.4,20.5,0c3-1.1,5.8-2.9,8.2-5c2.3-2.1,4.1-4.7,5.5-7.8c1.4-3,2-6.4,2-9.7C373.4,172.2,370.6,166,365.9,161.4z
	 M358.9,184.2c-0.6,1.5-1.5,3-2.7,4.3c-1.1,1.2-2.4,2.1-4,2.7c-3.2,1.2-6.7,1.2-9.9,0c-1.5-0.6-2.9-1.5-4-2.7
	c-1.2-1.2-2.1-2.6-2.6-4.3c-1.2-3.5-1.2-7.4,0-10.9c0.6-1.5,1.5-3,2.6-4.3c1.2-1.2,2.6-2.1,4-2.7c3.2-1.2,6.7-1.2,9.9,0
	c1.5,0.6,2.9,1.5,4,2.7c1.2,1.2,2.1,2.6,2.7,4.3C360.3,176.7,360.3,180.7,358.9,184.2z M410.4,181c0,4-0.8,6.8-2.3,8.5
	c-1.7,1.8-4,2.7-6.4,2.6c-2.4,0.2-4.7-0.8-6.4-2.6c-1.5-1.7-2.3-4.6-2.3-8.5v-25.4H380v25.8c0,6.8,2,12.2,5.8,16
	c3.8,3.8,9.1,5.6,16.1,5.6c6.8,0,12.2-1.8,16-5.6c3.8-3.8,5.8-9.1,5.8-16v-25.8h-13.1L410.4,181z M463.6,180.2l-20.4-24.8h-10.9V202
	h12.9v-24.8l11.1,13.4l9.4,11.4h10.8v-46.5h-12.9V180.2z M530.5,166.4c-2.3-3.5-5.3-6.2-9.1-8.1c-4.3-2-8.8-2.9-13.5-2.9h-22V202h22
	c4.7,0.2,9.3-0.9,13.5-2.9c3.8-1.8,6.8-4.6,9.1-8.1c2.3-3.6,3.5-8.1,3.3-12.3C534,174.3,532.8,170.1,530.5,166.4z M518.8,185.6
	c-1.1,1.8-2.6,3.5-4.6,4.4c-2.1,1.1-4.6,1.5-7,1.5H499V166h8.2c2.4,0,4.9,0.5,7,1.5c2,0.9,3.5,2.4,4.6,4.4
	C521.1,176.1,521.1,181.3,518.8,185.6z"/>
<path class="st8" d="M476.5,190.6v11.6h-10.8l-9.4-11.4c2.4-2.4,5.6-3.8,9-4.1h2.4C471.1,186.8,474.1,188.1,476.5,190.6z"/>
<path class="st9" d="M177.3,319.8c-3.2,2.9-10.6,0.6-11.4-2.7c-0.2-0.6-0.3-1.8,1.4-4c-0.9,0.2-6.1,1.2-9.6-1.7
	c-0.3-0.2-0.5-0.5-0.6-0.6c-0.6-0.6-1.4-1.4-1.2-2.1c0.6-3.2,14.6-7,20.4-0.5c0.6,0.8,1.1,1.5,1.5,2.4
	C179.3,313.5,179.6,317.6,177.3,319.8z"/>
<path class="st8" d="M177.3,319.8c-3.2,2.9-10.6,0.6-11.4-2.7c-0.2-0.6-0.3-1.8,1.4-4c-0.9,0.2-6.1,1.2-9.6-1.7
	c3.8-1.2,7.8-1.7,11.9-1.7c2.7,0,5.5,0.3,8.2,0.8C179.3,313.5,179.6,317.6,177.3,319.8z"/>
<path class="st9" d="M292.4,319.8c3.2,2.9,10.6,0.6,11.4-2.7c0.2-0.6,0.3-1.8-1.4-4c0.9,0.2,6.1,1.2,9.6-1.7
	c0.3-0.2,0.5-0.5,0.6-0.6c0.6-0.6,1.4-1.4,1.2-2.1c-0.6-3.2-14.6-7-20.4-0.5c-0.6,0.8-1.1,1.5-1.5,2.4
	C290.4,313.5,290.1,317.6,292.4,319.8z"/>
<path class="st8" d="M292.4,319.8c3.2,2.9,10.6,0.6,11.4-2.7c0.2-0.6,0.3-1.8-1.4-4c0.9,0.2,6.1,1.2,9.6-1.7
	c-3.8-1.2-7.8-1.7-11.9-1.7c-2.7,0-5.5,0.3-8.2,0.8C290.4,313.5,290.1,317.6,292.4,319.8z"/>
<path class="st7" d="M270.8,329l-1.8,20.5c-0.9,9.7-1.7,19.5-2.6,29.2l-0.9,10.5l-0.6,7.8l-2,23.1h-52.4l-2.3-23.3
	c-0.3-2.4-0.5-5-0.8-7.6c-0.3-4-0.8-7.8-1.2-11.7l-0.6-5.8c-1.4-14.3-2.9-28.6-4.3-42.9L270.8,329z"/>
<path class="st10" d="M210.3,420.1l4.6,109.3h8.8L236,445l8.5,84.3h6.5l11.9-109.3H210.3z"/>
<path class="st11" d="M244.5,529.3L236,445l3.8-24.9h23.1L251,529.3H244.5z"/>
<path class="st7" d="M217.6,328.3c0,0,7.1,0.3,10-4l17.8-1.2c0,0,5.3,9,10.5,9.3c5.2,0.3-14.3,2.7-14.3,2.7l-24.2-2.7L217.6,328.3z"
	/>
<path class="st9" d="M209.8,289.7c1.2,2.4,3,6.1,5.3,10.3l1.2,2.1c2.7,4.7,6.1,9,9.9,12.9c0.8,0.8,1.5,1.5,2.3,2.1
	c2.9,2.4,16.3,1.1,26-4.4c9.7-5.5,9-17,2.7-19.3c-2.3-1.1-4.3-2.4-6.1-4.3c-2.4-2.3-4.7-4.7-6.8-7.4c-1.2-1.5-2-2.4-2-2.4l-10.9-3.3
	l-19.1,8.4c1.7,3.2,1.7,5.8,0.8,6.4C212.1,291.3,210.1,289.8,209.8,289.7z"/>
<path class="st8" d="M209.8,289.7c1.2,2.4,3,6.1,5.3,10.3l1.2,2.1c2.7,4.7,6.1,9,9.9,12.9c1.1-0.9,2-2.1,2.6-3.3
	c0.8-1.4,1.1-2.9,1.2-4.4c0-1.7-0.2-3.3-0.6-4.9c-0.3-1.1-0.5-2-0.9-3c8.4-0.8,16.3-4.3,22.5-10c-2.4-2.3-4.7-4.7-6.8-7.3
	c-1.2-1.5-2-2.4-2-2.4l-10.9-3.3l-19.1,8.4c1.7,3.2,1.7,5.8,0.8,6.4C212,291.6,210.1,289.8,209.8,289.7z"/>
<path class="st1" d="M251.3,273.3c1.7-1.7,2.7-4,2.7-6.7c0-5.2-4.1-9.3-9.3-9.3c-4.1,0-7.6,2.7-8.8,6.4c-1.2-3.8-4.7-6.4-8.8-6.4
	c-4.7,0-8.7,3.6-9.1,8.2c-1.4-0.9-3-1.4-4.9-1.4c-5.2,0-9.3,4.1-9.3,9.3c0,2,0.6,3.8,1.7,5.3c-2.7,1.1-4.9,3.6-4.9,6.8
	c0,4.1,3.3,7.3,7.3,7.3h0.2c0.2,0.6,0.3,1.1,0.6,1.7c1.8,4,5,7,9.1,8.7c0.8,0.2,1.5,0.5,2.3,0.8c2,1.1,3.8,2.6,5,4.6
	c0.5-1.5,0.5-3,0-4.4c-1.1-2.1-2.3-4.3-3.6-6.2l-0.2-0.3c-0.2-0.3-0.3-0.5-0.5-0.9c-0.5-0.9-0.9-2-1.4-3v-0.2
	c6.1,0.8,23.1,2,29.3-9.1c0.9-1.7,1.7-3.6,2.1-5.5c0-0.2,0.2-0.3,0.2-0.5c0.2-0.5,0.2-1.1,0.2-1.5v-0.2
	C251.8,275.8,251.8,274.5,251.3,273.3z"/>
<path class="st8" d="M218.6,383.7c-0.8,6.1-4.9,11.1-10.6,13.1c-0.3-2.4-0.5-5-0.8-7.6c-0.3-4-0.8-7.8-1.2-11.7l12.5-37.1
	C218.6,340.6,220.8,368.8,218.6,383.7z M266.4,378.7l-0.9,10.5l-0.6,7.8c-6.1-1.8-10.5-7-11.2-13.4c-2.1-14.9,0-43.2,0-43.2
	L266.4,378.7z"/>
<path class="st7" d="M223.2,328.9c-5.5,23.9-12,52.4-12,52.4c-0.5,1.1-1.1,2.3-1.8,3.2c-1.4,1.7-2.9,3.2-4.6,4.6
	c-1.2,1.2-2.7,2-4.4,2.6c-4.4,1.1-10.3-5-15.7-13.1c-2.7-4.3-5.2-8.7-7.1-13.2c-4.1-9.3-3.6-12.5-9.9-32.1
	c-2.4-7.6-4.6-13.7-6.1-17.9l27.7-1.1c0.3,2.1,0.8,5,1.2,8.4c1.7,12.2,2.9,23.6,3.5,30.9v-4.6c0.2-3.3,0.5-6.5,1.1-9.7
	c1.1-5.3,4-19.5,11.7-21.1C212.4,317.2,218.8,321.9,223.2,328.9z M311,315.5c-1.5,4.1-3.6,10.3-6.1,17.9
	c-6.2,19.6-5.8,22.8-9.9,32.1c-2.3,5.2-5,10-8.1,14.6c-5,7.4-10.6,12.8-14.7,11.7c-1.8-0.6-3.5-1.7-5-3c-1.4-1.2-2.7-2.6-4-4.1
	c-0.6-1.1-1.2-2.1-1.7-3.2l-12-52.4c1.1-2.3,5.2-10.6,11.2-11.1c8.1-0.5,14.7,13.1,16.6,21.4c0.6,3.2,0.9,6.5,1.1,9.7v4.6
	c0.6-7.3,1.8-18.7,3.5-30.9c0.5-3.5,0.9-6.4,1.2-8.4L311,315.5z"/>
<path class="st11" d="M570.5,175.8v66.4c-1.1,0.9-2.4,1.7-3.8,2.1l-0.3,0.2c-3.6,1.2-7.4,1.4-11.1,0.2l0.2-0.9
	c4.4-2.1,7.3-6.5,7.3-11.4v-60.9c0.3,0,0.6,0.2,0.9,0.2C566.4,172.3,568.6,173.9,570.5,175.8z"/>
<path class="st10" d="M627.9,358.2l-0.9-5l-2.9-14.9l-3.6,0.8l-16.4,3.2l-3,0.6l2.9,14.9l0.9,5l0.3,2l23.1-4.6L627.9,358.2z
	 M619.6,342.2l2.1-0.5l2.3,12l0.8,4l-17.3,3.3l-0.8-4l-2.3-12h0.2L619.6,342.2z"/>
<path class="st12" d="M627.9,358.2l-0.9-5l-2.9-14.9l-3.6,0.8l-16.4,3.2l-3,0.6l2.9,14.9l0.9,5l0.3,2l23.1-4.6L627.9,358.2z
	 M619.6,342.2l2.1-0.5l2.3,12l0.8,4l-17.3,3.3l-0.8-4l-2.3-12h0.2L619.6,342.2z"/>
<path class="st10" d="M654.2,385.3l-6.1-31l-0.9-5l-9.9,1.8l0.9,4.9l2.7,14c0.3,1.4-0.6,2.6-1.8,2.9l-4,0.8
	c-1.4,0.3-2.6-0.6-2.9-1.8l-2.7-14l-0.9-4.9l-3.6,0.6l-20.2,4l-3.3,0.6l0.9,4.9l2.7,14c0.3,1.4-0.6,2.6-1.8,2.9l-4,0.8
	c-1.4,0.3-2.6-0.6-2.9-1.8l-2.7-14l-0.9-4.9l-11.9,2.3l7,36l5.6-1.1L654.2,385.3z"/>
<path class="st8" d="M654.2,385.3l-6.1-31l-0.9-5l-9.9,1.8l0.9,4.9l2.7,14c0.3,1.4-0.6,2.6-1.8,2.9l-4,0.8c-1.4,0.3-2.6-0.6-2.9-1.8
	l-2.7-14l-0.9-4.9l-3.6,0.6l-20.2,4l-3.3,0.6l0.9,4.9l2.7,14c0.3,1.4-0.6,2.6-1.8,2.9l-4,0.8c-1.4,0.3-2.6-0.6-2.9-1.8l-2.7-14
	l-0.9-4.9l-11.9,2.3l7,36l5.6-1.1L654.2,385.3z"/>
<path class="st10" d="M654.2,385.3l-60.6,11.9l-6.1-31l6.2-1.2l2.7,14c0.3,1.4,1.5,2.1,2.9,2l4-0.8c1.4-0.3,2.1-1.5,1.8-2.9
	l-2.7-13.8l3.6-0.8l20.2-4l3.5-0.6l2.7,14c0.3,1.4,1.5,2.1,2.9,1.8l4-0.8c1.4-0.3,2.1-1.5,2-2.7l-2.7-14l9.7-1.8l4,19.9L654.2,385.3
	z"/>
<path class="st7" d="M605.1,377.1l-2.7-13.8l-0.9-4.9c-0.3-1.2-1.5-2.1-2.7-1.8l-4,0.8c-1.2,0.3-2.1,1.5-1.8,2.7l0.9,4.9l2.7,14
	c0.3,1.4,1.5,2.1,2.9,2l4-0.8C604.5,379.6,605.3,378.4,605.1,377.1z M641,370.1l-2.7-14l-0.9-4.9c-0.3-1.2-1.5-2.1-2.7-1.8l-4,0.8
	c-1.2,0.3-2.1,1.5-1.8,2.9l0.9,4.9l2.7,14c0.3,1.4,1.5,2.1,2.9,1.8l4-0.8C640.5,372.6,641.3,371.4,641,370.1z"/>
<path class="st9" d="M574.3,186.8c0.6,2.7,1.4,6.7,2.1,11.7c0.2,1.1,0.3,2.1,0.3,2.4c0.8,5.5,0.8,11.1,0,16.6
	c-0.2,1.1-0.3,2.1-0.6,3.2c-0.6,2.9-7.3,7.4-15.2,10.3c-2.7,0.9-5.6,1.7-8.5,2.1c-9,1.2-15-4.9-15.2-10.2c0-1.4,0.3-2.6,1.1-3.6
	c1.2-2.3,2-4.7,2.3-7.3c0.6-3.3,0.9-6.8,0.9-10.2c0.2-2,0-3.2,0-3.2l6.8-9.6l20.7-5c0.6,3.5,2.1,5.8,3.2,5.6
	C573.2,189.5,574.1,187.2,574.3,186.8z"/>
<path class="st8" d="M574.3,186.8c0.6,2.7,1.4,6.7,2.1,11.7c0.2,1.1,0.3,2.1,0.3,2.4c0.8,5.5,0.8,11.1,0,16.6
	c-1.4-0.2-2.9-0.5-4.1-1.1c-1.4-0.8-2.7-1.7-3.8-2.9c-1.1-1.2-2-2.7-2.6-4.3c-0.5-0.9-0.9-2-1.2-3c-3.6,2.3-7.6,4-11.9,4.9
	c-4.1,0.9-8.4,1.2-12.6,0.8c0.6-3.3,0.9-6.8,0.9-10.2c0.2-2,0-3.2,0-3.2l6.8-9.6l20.7-5c0.6,3.5,2.1,5.8,3.2,5.6
	C573.2,189.4,574.1,187.2,574.3,186.8z"/>
<path class="st1" d="M577.9,190.6c0.9,4.3,0.3,8.8-2,12.6c-0.5,0.6-0.9,1.4-1.4,2.1c-0.9,2.1-1.4,4.4-1.4,6.7
	c-1.2-0.9-2.1-2.1-2.7-3.6c-0.5-2.4-0.8-4.9-0.8-7.3v-0.3c0-0.2,0-0.5-0.2-0.9c-0.2-1.1-0.5-2.3-0.8-3.3v-0.2
	c-4.4,4.4-17.5,15.8-29.3,10.6c-1.8-0.8-3.6-1.8-5.2-3.2c-0.2-0.2-0.3-0.2-0.5-0.3c-0.3-0.3-0.8-0.6-1.1-1.1l-0.2-0.2
	c-0.9-0.9-1.5-2.1-2.1-3.2l-0.2-0.5c-0.9-2.6-0.5-5.6,1.2-7.9c2.1-3,4.9-5.8,8.2-7.8c7.9-5.6,21.1-9.7,30.5-3.6
	c2.4,1.7,4.4,3.8,5.8,6.2C577,187.2,577.6,188.9,577.9,190.6z"/>
<path class="st9" d="M603.9,337.4c-0.3,1.1-0.5,2.1-0.3,3.2c0,4,2.1,7,5.3,7.6c4.1,0.8,8.4-2.9,9.7-8.2c0.2-0.6,0.3-1.2,0.3-1.7
	c0.5-4.6-1.7-8.4-5.2-9C609.5,328.6,605.3,332.2,603.9,337.4z"/>
<path class="st8" d="M603.9,337.4c-0.3,1.1-0.5,2.1-0.3,3.2l1.2,0.2c5.3,0.2,7.6-1.7,13.4-2.4h0.8c0.5-4.6-1.7-8.4-5.2-9
	C609.5,328.6,605.3,332.2,603.9,337.4z"/>
<path class="st9" d="M467,191.6c-0.5-1.1-1.1-2-1.7-2.7c-2.4-3-5.9-4.3-8.8-2.7c-3.6,2-4.7,7.4-2.6,12.5c0.3,0.5,0.6,1.1,0.9,1.5
	c2.4,3.8,6.5,5.6,9.7,3.8C468,202.1,469.1,196.5,467,191.6z"/>
<path class="st8" d="M467,191.6c-0.5-1.1-1.1-2-1.7-2.7c-0.3,0.3-0.6,0.5-0.9,0.8c-4.3,3.2-4.9,6.1-9,10.2c-0.2,0.2-0.3,0.3-0.6,0.5
	c2.4,3.8,6.5,5.6,9.7,3.8C468,202.1,469.1,196.5,467,191.6z"/>
<path class="st7" d="M584.5,326.3l-1.5,8.8l-17.3,98.5c-2,0.8-3.8,1.5-5.8,2.3c-2.3-9.1-4.3-18.5-6.1-28.7
	c-3.5-20.4-5.6-40.9-6.2-61.4c-4.7-1.2-9.6-2.4-14.4-3.6l-13.2-3.2c-0.2,5.5-0.3,11.4,0,17.6c0.2,5.8,0.6,11.2,1.2,16.4l-8.1,0.9
	c-6.7-20.8-13.5-41.6-20.2-62.6l16.9,1.4c7.1,0.6,14.1,1.2,21.1,2L584.5,326.3z"/>
<path class="st10" d="M629.6,320.5c-0.3,7-1.5,13.1-2.7,18.2l-7.9-1.8l-13.5-3.2l-1.1-0.3l-1.2-0.3l-2.1-0.5l-2.4-0.6
	c-1.4-0.3-2.9-0.8-4.6-1.1c4.5-7.4,7.3-15.6,8.4-24.2c0,0,1.8-14.4-2.7-26.7l-0.3-0.9c-1.7-4-4.1-7.8-7-10.9l-0.8-0.8
	c-0.3,5.3-0.8,10-1.1,14.3c-0.9,10.3-2.3,19.1-3,24.9c-1.5,11.2-3.2,21-4.6,28.3l-52.3-20.5c-0.2-1.5-1.4-14.7-1.4-16.3
	c-0.2-2.6-0.8-9.6-1.5-17c-0.8-7.4-1.4-15.4-1.7-20.1c-1.5-0.2-2.9-0.2-4.6-0.5c-5.5-0.6-10.8-1.5-16.1-2.7l-3.6-0.9
	c-4.1-1.2-8.2-2.7-12.2-4.6c-5.8-2.6-11.2-5.9-16.1-9.7c-3.5-2.7-6.7-5.8-9.6-9.1c-3.2-3.5-6.2-7.2-9.1-10.9c-2.6-3.5-4.9-7-7-10.6
	c4.1-3.5,7.4-6.4,9.6-8.2c4.7-4.3,6.8-6.2,10.8-8.5c2.1-1.2,4.3-2.3,6.5-3c1.2,4.7,2.9,9.4,5,13.8c4.6,9.6,12.8,21.6,27.1,28.3
	c1.2,0.6,2.4,1.1,3.6,1.5c2.6,0.9,5.2,1.7,7.9,2.3c2.6,0.5,5.2,0.9,7.8,1.1c7.6,0.5,14.4,0.6,20.4,0.6c21.4,0,32.5-2.3,32.5-2.3
	s9.1-2,13.7,1.7l0.5,0.3c4.6,3.6,8.8,7.6,12.9,11.9c1.1,1.2,2.1,2.4,3.2,3.8c3.6,4.6,6.8,9.4,9.6,14.6c2.6,5,4.7,10.2,6.4,15.3
	c0.3,0.9,0.6,1.8,0.9,2.9c1.8,6.2,2.6,11.1,2.7,12.5c0.3,2.1,0.6,4.9,0.8,8.2C629.7,312.2,629.7,316.3,629.6,320.5z"/>
<path class="st9" d="M565.1,237.8c-2.9,3-6.5,5-10.6,5.8c-0.2,0-0.5,0-0.6,0.2l-10-4.6L565.1,237.8z"/>
<path class="st8" d="M591.6,267.6c-0.3,5.3-0.8,10-1.1,14.3c-0.9,10.3-2.3,19.1-3,24.9c-1.5,11.4-3.2,21-4.6,28.4l-52.3-20.5
	C580.5,312.9,591.6,267.6,591.6,267.6z M629.6,320.5c-0.3,7-1.5,13.1-2.7,18.2l-7.9-1.8l-13.5-3.2l-1.1-0.3l-1.2-0.3l-2.1-0.5
	l-2.4-0.6c3.6-3.8,7.4-8.1,11.1-13.2c8.1-11.1,13.1-21.9,16.4-31c1.8,6.2,2.6,11.1,2.7,12.5c0.3,2.1,0.6,4.9,0.8,8.2
	C629.7,312.2,629.7,316.3,629.6,320.5z"/>
<path class="st1" d="M628.8,300.6c-4-3-7.1-7-9.1-11.7c-3.8-8.2-4.1-16.4-0.9-19.1c2.1,4,4.6,8.8,6.5,14.9
	C627.3,290.7,628.4,296.2,628.8,300.6z"/>
<path class="st8" d="M582.9,335.3l-17.3,98.5c-2,0.8-3.8,1.5-5.8,2.3c-2.3-9.1-4.3-18.5-6.1-28.7c-3.5-20.4-5.6-40.9-6.1-61.6
	l0.8-24.2L582.9,335.3z"/>
<path class="st1" d="M205,389.2c-1.2,1.2-2.7,2-4.4,2.6c-4.4,1.1-10.3-5-15.7-13.1c7.3-3.2,15.8,0,19.1,7.3
	C204.4,387.1,204.8,388.1,205,389.2z M286.9,380.1c-5,7.4-10.6,12.8-14.7,11.7c-1.8-0.6-3.5-1.7-5-3c2.4-7.6,10.6-11.7,18.2-9.3
	C285.8,379.8,286.4,379.9,286.9,380.1z"/>
<path class="st7" d="M591.4,166.3c-3-1.2-6.4,0.3-7.4,3.3c-1.2,3,0.3,6.4,3.3,7.4c3,1.2,6.4-0.3,7.4-3.3
	C596,170.7,594.5,167.3,591.4,166.3z M602.2,120.2L591,157.9l6.8,2.6l14.7-34.8L602.2,120.2z"/>
<path class="st8" d="M654.2,385.3l-60.6,11.9c1.4-0.5,41-12.9,58.5-22.9L654.2,385.3z M565.1,237.8c-2.9,3-6.5,5-10.6,5.8
	c-0.2,0-0.5,0-0.6,0.2l-10-4.6L565.1,237.8z"/>
<path class="st7" d="M554.5,243.6l19-11.9l4.4,4L565,252.6L554.5,243.6z M553.9,243.8l-12.5-9.1l-2.9,3l8.5,12.8L553.9,243.8z"/>
<path class="st8" d="M553.9,243.8l-12.5-9.1l-2.9,3l8.5,12.8L553.9,243.8z"/>
<path class="st3" d="M536.7,390.4v0.8h-25.4v-0.8c0-1.7,0.6-3.5,1.7-4.9h22C536.3,387.1,536.7,388.8,536.7,390.4z"/>
<path class="st1" d="M572,454.4l-0.3-1.5C571.8,453.3,571.8,453.8,572,454.4z M548.9,450.8l19.5-2.1c0,0,0.8-5-2.3-6.8
	C563,440,551.9,446,548.9,450.8z M506.3,394.5l17.8-8.1c0,0-0.9-5-4.4-5.8C516.2,379.9,507.9,389.1,506.3,394.5z M233.7,544.4
	l-19.8-2.3c0,0-0.8-5.2,2.4-7C219.6,533.3,230.5,539.7,233.7,544.4z M262.9,544.4l-19.8-2.3c0,0-0.8-5.2,2.4-7
	C248.7,533.3,259.7,539.7,262.9,544.4z"/>
<path class="st13" d="M568.6,196.4c-4.4,4.4-17.5,15.8-29.3,10.6c-1.8-0.8-3.6-1.8-5.2-3.2c-0.2-0.2-0.3-0.2-0.5-0.3
	c-0.5-0.3-0.8-0.6-1.1-1.1l-0.2-0.2c-0.9-0.9-1.5-2.1-2.1-3.2c2.9,1.7,6.1,2.9,9.4,3.6c16.3,3.3,29.6-9,31.8-10.9l0.2-0.2
	C570.8,193.3,569.9,194.8,568.6,196.4z"/>
<path class="st13" d="M219.9,293.8c6.1,0.9,23.1,2,29.3-9.1c0.9-1.7,1.7-3.6,2.1-5.5c0-0.2,0.2-0.3,0.2-0.5c0.2-0.5,0.2-1.1,0.2-1.5
	v-0.2c0.2-1.2,0-2.6-0.3-3.8c-1.2,3-3,5.9-5.2,8.4c-10.8,12.3-28.4,10.5-31.3,10.3h-0.2C216.2,292.6,218,293.3,219.9,293.8z"/>
<path class="st1" d="M501.8,257c-4.1-0.9-9.7-2.6-15.7-5.6c-5.3-2.7-9.3-5.8-12.3-8.4c2.4-0.3,9.4-0.8,16.7,3
	C497.2,249.5,500.6,254.7,501.8,257z"/>
</svg>
