<?xml version="1.0" encoding="UTF-8"?>
<svg id="Layer_2" data-name="Layer 2" xmlns="http://www.w3.org/2000/svg" viewBox="0 0 540 960">
  <defs>
    <style>
      .cls-1 {
        fill: #b7b7b7;
      }

      .cls-2 {
        fill: #a7a7a7;
      }

      .cls-3 {
        fill: #fff;
      }

      .cls-4 {
        fill: #dbdbdb;
      }

      .cls-5 {
        fill: silver;
      }

      .cls-6 {
        fill: #333;
      }

      .cls-7 {
        fill: #e6e6e6;
      }

      .cls-8 {
        fill: gray;
      }

      .cls-9 {
        fill: #aaa;
      }

      .cls-10 {
        fill: #bebebe;
      }

      .cls-11 {
        fill: none;
      }

      .cls-12 {
        fill: #b3b3b3;
      }

      .cls-13 {
        fill: #191919;
      }

      .cls-14 {
        fill: #1a1a1a;
      }

      .cls-15 {
        fill: #f3f3f3;
      }

      .cls-16 {
        fill: #d9d9d9;
      }

      .cls-17 {
        fill: #eee;
      }

      .cls-18 {
        fill: #666;
      }

      .cls-19 {
        fill: #a2a2a2;
      }

      .cls-20 {
        fill: #ededed;
      }
    </style>
  </defs>
  <g id="Layer_2-2" data-name="Layer 2">
    <g>
      <g>
        <g>
          <path class="cls-6" d="m127.81,581.76h8.09c1.38,0,2.49-1.32,2.49-2.97v-6.9c0-1.63-1.12-2.97-2.49-2.97h-70.45c-1.39,0-2.5,1.34-2.5,2.97v6.9c0,1.65,1.12,2.97,2.5,2.97h9.31"/>
          <path class="cls-7" d="m143.78,710.21c1.35.28,2.38,1.47,2.38,2.91v6.9c0,1.65-1.32,2.97-2.96,2.97H59.58c-1.63,0-2.97-1.32-2.97-2.97v-6.9c0-1.44,1.03-2.63,2.4-2.91-19.95-13.31-33.04-35.75-33.04-61.2,0-29.84,18.01-55.55,43.95-67.25h62.97c25.94,11.7,43.95,37.41,43.95,67.25,0,25.45-13.11,47.89-33.04,61.2Z"/>
          <rect class="cls-6" x="24.33" y="723" width="491.35" height="25.89" rx="5.31" ry="5.31"/>
          <path class="cls-14" d="m80.4,748.89h47.08v13.59c0,3.13-2.54,5.67-5.67,5.67h-35.73c-3.13,0-5.67-2.54-5.67-5.67v-13.59h0Z"/>
          <path class="cls-14" d="m413.77,748.89h47.08v13.59c0,3.13-2.54,5.67-5.67,5.67h-35.73c-3.13,0-5.67-2.54-5.67-5.67v-13.59h0Z"/>
          <path class="cls-8" d="m394.09,639.65v66.07c0,9.53-7.72,17.27-17.27,17.27h-73.72c-9.55,0-17.29-7.74-17.29-17.27v-66.07c0-11.58,5.86-21.79,14.77-27.84v.43h79.34c8.58,6.08,14.17,16.1,14.17,27.41Z"/>
          <path class="cls-6" d="m379.62,612.24v-19.8c0-3.71-3-6.72-6.71-6.72h-65.91c-3.72,0-6.72,3.02-6.72,6.72v19.38"/>
          <rect class="cls-5" x="182.66" y="617.6" width="87.53" height="105.39" rx="6.11" ry="6.11"/>
          <path class="cls-6" d="m188.77,617.6h75.31c3.37,0,6.11,2.74,6.11,6.11v13.15h-87.53v-13.15c0-3.37,2.74-6.11,6.11-6.11Z"/>
          <ellipse class="cls-12" cx="135.66" cy="633.6" rx="25.52" ry="18.78"/>
          <ellipse class="cls-12" cx="65.16" cy="631.51" rx="24.44" ry="16.69" transform="translate(-53.91 7.91) rotate(-4.92)"/>
          <ellipse class="cls-12" cx="106.13" cy="669.71" rx="32.42" ry="8.67"/>
          <ellipse class="cls-12" cx="71.06" cy="656.52" rx="30.34" ry="10.88"/>
          <ellipse class="cls-12" cx="68.69" cy="681.56" rx="27.97" ry="14.15"/>
          <ellipse class="cls-12" cx="137.99" cy="670.34" rx="27.85" ry="13.82"/>
          <ellipse class="cls-12" cx="113.27" cy="653" rx="22.39" ry="13.14"/>
          <ellipse class="cls-12" cx="106.13" cy="690.26" rx="32.42" ry="11.88"/>
          <ellipse class="cls-12" cx="83.02" cy="711.44" rx="27.13" ry="6.74"/>
          <ellipse class="cls-12" cx="84.03" cy="697.8" rx="31.03" ry="13.64"/>
          <ellipse class="cls-12" cx="122.28" cy="702.99" rx="25.62" ry="7.27"/>
          <ellipse class="cls-12" cx="82.74" cy="637.4" rx="23.96" ry="10.17"/>
          <ellipse class="cls-12" cx="146.71" cy="658.64" rx="24.43" ry="11.07"/>
          <ellipse class="cls-12" cx="134.03" cy="684.28" rx="23.89" ry="5.98"/>
          <rect class="cls-7" x="202.61" y="661.05" width="47.64" height="32.26" rx="3.94" ry="3.94"/>
          <rect class="cls-12" x="304.45" y="647.6" width="70.98" height="37.08" rx="4.24" ry="4.24"/>
        </g>
        <g>
          <g>
            <path class="cls-18" d="m106.69,433.83c-.18-66.88-.35-133.75-.53-200.63.01-.67-.06-2.05-.86-3.53-.62-1.14-1.42-1.86-1.93-2.25-5.35-5.37-10.7-10.73-16.05-16.1v-15.84c.59-.5,1.36-1.27,2.03-2.35,1-1.61,1.33-3.14,1.45-4.07v-17.59h-34.18v17.59c.12.92.44,2.46,1.45,4.07.67,1.08,1.44,1.85,2.03,2.35v15.84c-5.35,5.37-10.7,10.73-16.05,16.1-.5.39-1.3,1.1-1.93,2.25-.8,1.48-.87,2.86-.86,3.53-.18,66.88-.35,133.75-.53,200.63-.02.55-.01,2.15,1.07,3.69.77,1.11,1.74,1.67,2.25,1.93h59.33c.51-.25,1.47-.82,2.25-1.93,1.08-1.54,1.09-3.14,1.07-3.69Z"/>
            <rect class="cls-6" x="53.65" y="150.22" width="40.13" height="21.25" rx="3.15" ry="3.15"/>
          </g>
          <path class="cls-6" d="m129.51,312.33h63.34c1.12,0,2.04.91,2.04,2.04v9.95h-67.41v-9.95c0-1.12.91-2.04,2.04-2.04Z"/>
          <rect class="cls-20" x="115.06" y="324.31" width="91.59" height="114.06" rx="8.58" ry="8.58"/>
          <path class="cls-6" d="m227.73,302.17h61.44c.76,0,1.38.62,1.38,1.38v8.78h-64.2v-8.78c0-.76.62-1.38,1.38-1.38Z"/>
          <rect class="cls-15" x="216.07" y="312.33" width="84.1" height="126.05" rx="6.58" ry="6.58"/>
          <path class="cls-10" d="m314.94,391.51h21.19v44.52c0,1.29-1.05,2.35-2.35,2.35h-16.5c-1.29,0-2.35-1.05-2.35-2.35v-44.52h0Z"/>
          <rect class="cls-19" x="311.81" y="383.86" width="27.2" height="7.65" rx="2.16" ry="2.16"/>
          <path class="cls-10" d="m349.45,391.51h21.19v44.52c0,1.29-1.05,2.35-2.35,2.35h-16.5c-1.29,0-2.35-1.05-2.35-2.35v-44.52h0Z"/>
          <rect class="cls-19" x="346.32" y="383.86" width="27.2" height="7.65" rx="2.16" ry="2.16"/>
          <g>
            <path class="cls-1" d="m384.92,391.51h21.19v44.52c0,1.29-1.05,2.35-2.35,2.35h-16.5c-1.29,0-2.35-1.05-2.35-2.35v-44.52h0Z"/>
            <rect class="cls-9" x="381.79" y="383.86" width="27.2" height="7.65" rx="2.16" ry="2.16"/>
          </g>
          <path class="cls-8" d="m510.75,417.19c-.06-5.16.18-7.74-.31-11.32-.74-5.36-2.18-9.49-3.32-12.73-1.3-3.68-1.84-4.39-3.22-7.84-1.86-4.67-4.06-10.27-4.92-17.12-.29-2.29-.82-7.87,1.07-17.98,3.41-18.23,8.81-19.68,10.27-32.53,1.4-12.36-2.28-22.16-3.42-25.04-6.1-15.38-18.06-23.51-23.11-26.54h-42.59c-5.06,3.02-17.01,11.16-23.11,26.54-1.14,2.88-4.83,12.68-3.42,25.04,1.46,12.85,6.86,14.3,10.27,32.53,1.89,10.1,1.36,15.68,1.07,17.98-.76,6.04-2.55,10.79-4.92,17.12-1.32,3.51-2.73,5.45-4.22,10.04-1.57,4.82-2.14,8.51-2.27,9.35-.62,4.14-.54,7.06-.36,12.49.27,8.34.4,12.59,2.14,15.41,2.36,3.84,5.98,5.83,8.35,6.85h75.54c2.37-1.02,5.99-3.01,8.35-6.85,1.95-3.17,2.25-6.31,2.14-15.41Z"/>
          <path class="cls-16" d="m496.82,398.59c-.02-1.68-.06-3.59-.13-5.71-.08-2.28-.1-3.41-.16-3.88-.23-1.91-.7-3.47-2.22-7.35-1.15-2.92-1.88-4.57-2.36-5.74-1.09-2.63-2.84-6.96-3.5-12.18-.21-1.63-.58-5.6.76-12.79,2.43-12.97,6.27-14,7.31-23.14,1.1-9.64-1.43-22.14-9.98-29.53-7.95-6.87-17.49-7.04-23.61-7.15-6.1-.11-15.39-.27-23.43,6.06-9.37,7.38-13.72,20.98-11.02,30.62.78,2.8,1.88,5.83,5.14,14.93.77,2.14,1.52,4.75,2.16,8.21,1.34,7.19.97,11.15.76,12.79-.54,4.3-1.81,7.68-3.5,12.18-1.12,2.97-1.46,3.11-2.39,5.8-1.73,5.04-2.19,8.91-2.31,10-.26,2.46-.21,4.18-.17,6.88.07,5.7.06,8.58,1.52,10.96,1.68,2.73,4.25,4.15,5.94,4.87,8.31.46,17.05.72,26.17.74,9.63.01,18.83-.26,27.56-.74,3.22-1.27,7.62-2.8,7.46-15.83Z"/>
          <path class="cls-18" d="m488.95,249.52c-3.28-.57-6.56-1.14-9.84-1.71-3.07-9.45-6.13-18.9-9.2-28.36-1.46-.37-3.22-.71-5.24-.86-1.39-.1-2.66-.1-3.81-.04-1.16-.06-2.43-.07-3.81.04-2.02.15-3.79.49-5.24.86-3.07,9.45-6.13,18.9-9.2,28.36-3.28.57-6.56,1.14-9.84,1.71-.38.31-3.87,3.26-3.64,8.13.22,4.71,3.74,7.29,4.17,7.6,8.64.32,17.28.64,25.92.96,0,.04,0,.08,0,.12l1.64-.06c.55.02,1.1.04,1.64.06,0-.04,0-.08,0-.12,8.64-.32,17.28-.64,25.92-.96.43-.3,3.95-2.89,4.17-7.6.23-4.87-3.26-7.83-3.64-8.13Z"/>
          <rect class="cls-13" x="24.33" y="439.45" width="491.35" height="25.89" rx="5.31" ry="5.31"/>
          <path class="cls-14" d="m80.4,465.34h47.08v13.59c0,3.13-2.54,5.67-5.67,5.67h-35.73c-3.13,0-5.67-2.54-5.67-5.67v-13.59h0Z"/>
          <path class="cls-14" d="m413.77,465.34h47.08v13.59c0,3.13-2.54,5.67-5.67,5.67h-35.73c-3.13,0-5.67-2.54-5.67-5.67v-13.59h0Z"/>
          <path class="cls-2" d="m161.99,395.81c2.26,3.17,7.44,3.35,11.57.41,5.96-4.66,21.2-12.27,15.56-19.75-2.26-3.17-7.44-3.35-11.57-.41-5.96,4.66-21.2,12.27-15.56,19.75Z"/>
          <path class="cls-2" d="m138.55,428.32c-5.05,0-9.15-4.1-9.15-9.15.89-7.75-4.07-27.99,9.15-27.66,5.05,0,9.15,4.1,9.15,9.15-.89,7.75,4.07,27.99-9.15,27.66Z"/>
          <path class="cls-2" d="m131.41,402.26c-5.05,0-9.15-4.1-9.15-9.15.89-7.75-4.07-27.99,9.15-27.66,5.05,0,9.15,4.1,9.15,9.15-.89,7.75,4.07,27.99-9.15,27.66Z"/>
          <path class="cls-2" d="m194.89,402.26c-5.05,0-9.15-4.1-9.15-9.15.89-7.75-4.07-27.99,9.15-27.66,5.05,0,9.15,4.1,9.15,9.15-.89,7.75,4.07,27.99-9.15,27.66Z"/>
          <path class="cls-2" d="m152.47,392.95c4.63-1.99,6.98-7.45,4.34-11.95-4.78-5.51-11.17-29.07-22.24-22.16-4.64,1.99-6.99,7.45-4.34,11.95,4.78,5.51,11.17,29.07,22.25,22.16Z"/>
          <path class="cls-2" d="m171.39,355.82c-3.62-1.69-8.11-.03-9.43,4.13-.8,6.03-11.58,23.26-1.66,26.09,3.62,1.69,8.11.03,9.43-4.13.8-6.03,11.58-23.26,1.66-26.09Z"/>
          <path class="cls-2" d="m175.56,431.55c10.81.29,5.86-19.12,6.9-25.2,0-3.81-3.09-6.9-6.9-6.9-10.81-.29-5.86,19.12-6.9,25.2,0,3.81,3.09,6.9,6.9,6.9Z"/>
          <path class="cls-2" d="m164.37,427.77c10.01-4.08-2.33-19.86-3.82-25.85-1.53-3.49-5.61-5.08-9.1-3.54-10.01,4.08,2.33,19.86,3.82,25.85,1.53,3.49,5.61,5.08,9.1,3.54Z"/>
          <path class="cls-2" d="m120.96,416.28c-2.49,10.52,17.52,9.64,23.26,11.9,3.73.78,7.39-1.62,8.16-5.35,2.49-10.52-17.52-9.64-23.26-11.9-3.73-.78-7.39,1.62-8.16,5.35Z"/>
          <path class="cls-2" d="m198.24,430.34c4.29-2.21,5.98-7.48,3.77-11.77-4.56-6.29-9.76-29.13-21.54-22.77-4.29,2.21-5.98,7.48-3.77,11.77,4.56,6.29,9.76,29.13,21.54,22.77Z"/>
          <path class="cls-4" d="m264.71,392.84c1.45,2.87-.95,5.13.72,7.35,1.44,1.92,4.7,2.18,5.3,2.23,1.92.16,2.54-.42,4.07.1.26.09,2.15.76,3.13,2.6,1.62,3.04-.71,6.51-.84,6.7-2.05,2.97-5.74,3.38-7.68,3.59-1.03.11-5.48.5-9.81-2.15-6.96-4.26-10.54-14.47-7.15-20.08.24-.4,2.11-3.38,5.44-3.77,2.68-.31,5.66,1.14,6.82,3.42Z"/>
          <path class="cls-4" d="m255.11,366.19c1.67,2.75-.55,5.19,1.28,7.28,1.59,1.8,4.85,1.82,5.46,1.82,1.92,0,2.5-.61,4.07-.21.27.07,2.2.59,3.32,2.35,1.84,2.91-.21,6.54-.32,6.74-1.82,3.12-5.46,3.81-7.38,4.17-1.02.19-5.43.92-9.95-1.39-7.27-3.71-11.62-13.62-8.67-19.47.21-.41,1.85-3.54,5.14-4.17,2.64-.51,5.73.7,7.06,2.89Z"/>
          <path class="cls-4" d="m243.35,348.86c-1.98,2.54-5.05,1.32-6.35,3.78-1.12,2.12.02,5.18.24,5.75.67,1.8,1.46,2.12,1.64,3.72.03.27.23,2.27-1.02,3.94-2.06,2.76-6.19,2.13-6.42,2.09-3.56-.59-5.5-3.75-6.52-5.42-.54-.88-2.79-4.75-2.23-9.8.89-8.11,8.61-15.7,15.13-15.02.46.05,3.96.47,5.72,3.32,1.42,2.29,1.38,5.61-.19,7.63Z"/>
          <path class="cls-4" d="m251.77,347.51c2.54,1.97,1.34,5.04,3.8,6.34,2.12,1.12,5.18-.04,5.75-.25,1.8-.68,2.12-1.47,3.72-1.65.27-.03,2.27-.23,3.94,1.01,2.76,2.05,2.15,6.18,2.11,6.41-.58,3.56-3.74,5.51-5.4,6.54-.88.54-4.74,2.8-9.79,2.26-8.12-.87-15.72-8.56-15.06-15.09.05-.46.46-3.96,3.3-5.73,2.29-1.42,5.6-1.4,7.63.17Z"/>
          <path class="cls-4" d="m273.33,350.76c3.19.4,3.72,3.66,6.5,3.51,2.4-.12,4.44-2.67,4.82-3.15,1.2-1.5,1.07-2.34,2.36-3.32.22-.17,1.83-1.36,3.91-1.14,3.42.36,5,4.23,5.08,4.44,1.31,3.36-.41,6.64-1.32,8.38-.48.92-2.65,4.82-7.27,6.93-7.42,3.39-17.89.65-20.65-5.3-.2-.42-1.63-3.64-.08-6.62,1.24-2.39,4.11-4.06,6.65-3.74Z"/>
          <path class="cls-4" d="m257.57,412.71c1.67,2.75-.55,5.19,1.28,7.28,1.59,1.8,4.85,1.82,5.46,1.82,1.92,0,2.5-.61,4.07-.21.27.07,2.2.59,3.32,2.35,1.84,2.91-.21,6.54-.32,6.74-1.82,3.12-5.46,3.81-7.38,4.17-1.02.19-5.43.92-9.95-1.39-7.27-3.71-11.62-13.62-8.67-19.47.21-.41,1.85-3.54,5.14-4.17,2.64-.51,5.73.7,7.06,2.89Z"/>
          <path class="cls-4" d="m280.34,389.14c1.67,2.75-.55,5.19,1.28,7.28,1.59,1.8,4.85,1.82,5.46,1.82,1.92,0,2.5-.61,4.07-.21.27.07,2.2.59,3.32,2.35,1.84,2.91-.21,6.54-.32,6.74-1.82,3.12-5.46,3.81-7.38,4.17-1.02.19-5.43.92-9.95-1.39-7.27-3.71-11.62-13.62-8.67-19.47.21-.41,1.85-3.54,5.14-4.17,2.64-.51,5.73.7,7.06,2.89Z"/>
          <path class="cls-4" d="m283.13,411.31c1.67,2.75-.55,5.19,1.28,7.28,1.59,1.8,4.85,1.82,5.46,1.82,1.92,0,2.5-.61,4.07-.21.27.07,2.2.59,3.32,2.35,1.84,2.91-.21,6.54-.32,6.74-1.82,3.12-5.46,3.81-7.38,4.17-1.02.19-5.43.92-9.95-1.39-7.27-3.71-11.62-13.62-8.67-19.47.21-.41,1.85-3.54,5.14-4.17,2.64-.51,5.73.7,7.06,2.89Z"/>
          <path class="cls-4" d="m283.13,366.19c1.67,2.75-.55,5.19,1.28,7.28,1.59,1.8,4.85,1.82,5.46,1.82,1.92,0,2.5-.61,4.07-.21.27.07,2.2.59,3.32,2.35,1.84,2.91-.21,6.54-.32,6.74-1.82,3.12-5.46,3.81-7.38,4.17-1.02.19-5.43.92-9.95-1.39-7.27-3.71-11.62-13.62-8.67-19.47.21-.41,1.85-3.54,5.14-4.17,2.64-.51,5.73.7,7.06,2.89Z"/>
          <path class="cls-4" d="m234.37,366.19c1.67,2.75-.55,5.19,1.28,7.28,1.59,1.8,4.85,1.82,5.46,1.82,1.92,0,2.5-.61,4.07-.21.27.07,2.2.59,3.32,2.35,1.84,2.91-.21,6.54-.32,6.74-1.82,3.12-5.46,3.81-7.38,4.17-1.02.19-5.43.92-9.95-1.39-7.27-3.71-11.62-13.62-8.67-19.47.21-.41,1.85-3.54,5.14-4.17,2.64-.51,5.73.7,7.06,2.89Z"/>
          <path class="cls-4" d="m235.73,390.69c1.67,2.75-.55,5.19,1.28,7.28,1.59,1.8,4.85,1.82,5.46,1.82,1.92,0,2.5-.61,4.07-.21.27.07,2.2.59,3.32,2.35,1.84,2.91-.21,6.54-.32,6.74-1.82,3.12-5.46,3.81-7.38,4.17-1.02.19-5.43.92-9.95-1.39-7.27-3.71-11.62-13.62-8.67-19.47.21-.41,1.85-3.54,5.14-4.17,2.64-.51,5.73.7,7.06,2.89Z"/>
          <path class="cls-4" d="m230.44,411.31c1.67,2.75-.55,5.19,1.28,7.28,1.59,1.8,4.85,1.82,5.46,1.82,1.92,0,2.5-.61,4.07-.21.27.07,2.2.59,3.32,2.35,1.84,2.91-.21,6.54-.32,6.74-1.82,3.12-5.46,3.81-7.38,4.17-1.02.19-5.43.92-9.95-1.39-7.27-3.71-11.62-13.62-8.67-19.47.21-.41,1.85-3.54,5.14-4.17,2.64-.51,5.73.7,7.06,2.89Z"/>
          <rect class="cls-12" x="47.92" y="295.47" width="51.94" height="33.25" rx="3.48" ry="3.48"/>
          <rect class="cls-17" x="225.33" y="358.41" width="65.59" height="41.99" rx="5.21" ry="5.21"/>
          <path class="cls-4" d="m254.23,369.64c2.54,1.97,1.34,5.04,3.8,6.34,2.12,1.12,5.18-.04,5.75-.25,1.8-.68,2.12-1.47,3.72-1.65.27-.03,2.27-.23,3.94,1.01,2.76,2.05,2.15,6.18,2.11,6.41-.58,3.56-3.74,5.51-5.4,6.54-.88.54-4.74,2.8-9.79,2.26-8.12-.87-15.72-8.56-15.06-15.09.05-.46.46-3.96,3.3-5.73,2.29-1.42,5.6-1.4,7.63.17Z"/>
          <rect class="cls-3" x="322.64" y="397.79" width="9.31" height="33.66" rx="1.47" ry="1.47"/>
          <rect class="cls-3" x="357.85" y="397.79" width="9.31" height="33.66" rx="1.47" ry="1.47"/>
          <rect class="cls-3" x="393.48" y="397.79" width="9.31" height="33.66" rx="1.47" ry="1.47"/>
        </g>
      </g>
      <rect class="cls-11" width="540" height="960"/>
    </g>
  </g>
</svg>