<?xml version="1.0" encoding="UTF-8"?>
<svg id="Layer_2" data-name="Layer 2" xmlns="http://www.w3.org/2000/svg" viewBox="0 0 894.42 694.33">
  <defs>
    <style>
      .cls-1 {
        fill: #b7b7b7;
      }

      .cls-2 {
        fill: #a7a7a7;
      }

      .cls-3 {
        fill: #fff;
      }

      .cls-4 {
        fill: #dbdbdb;
      }

      .cls-5 {
        fill: silver;
      }

      .cls-6 {
        fill: #333;
      }

      .cls-7 {
        fill: #e6e6e6;
      }

      .cls-8 {
        fill: gray;
      }

      .cls-9 {
        fill: #aaa;
      }

      .cls-10 {
        fill: #bebebe;
      }

      .cls-11 {
        fill: #b3b3b3;
      }

      .cls-12 {
        fill: #191919;
      }

      .cls-13 {
        fill: #1a1a1a;
      }

      .cls-14 {
        fill: #f3f3f3;
      }

      .cls-15 {
        fill: #d9d9d9;
      }

      .cls-16 {
        fill: #eee;
      }

      .cls-17 {
        fill: #666;
      }

      .cls-18 {
        fill: #a2a2a2;
      }

      .cls-19 {
        fill: #ededed;
      }
    </style>
  </defs>
  <g>
    <path class="cls-6" d="m116.27,484.89h9.09c1.55,0,2.8-1.49,2.8-3.34v-7.75c0-1.84-1.25-3.34-2.8-3.34H46.21c-1.56,0-2.81,1.5-2.81,3.34v7.75c0,1.85,1.25,3.34,2.81,3.34h10.46"/>
    <path class="cls-7" d="m134.23,629.23c1.52.31,2.68,1.65,2.68,3.27v7.75c0,1.85-1.49,3.34-3.32,3.34H39.62c-1.83,0-3.34-1.49-3.34-3.34v-7.75c0-1.62,1.16-2.96,2.69-3.27-22.42-14.96-37.13-40.17-37.13-68.77,0-33.53,20.23-62.42,49.38-75.57h70.76c29.15,13.14,49.38,42.04,49.38,75.57,0,28.6-14.73,53.81-37.13,68.77Z"/>
    <rect class="cls-6" y="643.59" width="552.1" height="29.1" rx="5.31" ry="5.31"/>
    <path class="cls-13" d="m63,672.69h52.9v15.97c0,3.13-2.54,5.67-5.67,5.67h-41.56c-3.13,0-5.67-2.54-5.67-5.67v-15.97h0Z"/>
    <path class="cls-13" d="m437.59,672.69h52.9v15.97c0,3.13-2.54,5.67-5.67,5.67h-41.56c-3.13,0-5.67-2.54-5.67-5.67v-15.97h0Z"/>
    <path class="cls-8" d="m415.48,549.94v74.24c0,10.71-8.68,19.41-19.41,19.41h-82.84c-10.73,0-19.42-8.7-19.42-19.41v-74.24c0-13.01,6.58-24.48,16.6-31.28v.48h89.16c9.64,6.83,15.92,18.09,15.92,30.8Z"/>
    <path class="cls-6" d="m399.22,519.14v-22.25c0-4.17-3.37-7.55-7.54-7.55h-74.06c-4.18,0-7.55,3.39-7.55,7.55v21.77"/>
    <rect class="cls-5" x="177.91" y="525.17" width="98.35" height="118.43" rx="6.11" ry="6.11"/>
    <path class="cls-6" d="m184.02,525.17h86.13c3.37,0,6.11,2.74,6.11,6.11v15.53h-98.35v-15.53c0-3.37,2.74-6.11,6.11-6.11Z"/>
    <ellipse class="cls-11" cx="125.1" cy="543.14" rx="28.67" ry="21.1"/>
    <ellipse class="cls-11" cx="45.88" cy="540.8" rx="27.46" ry="18.76" transform="translate(-46.2 5.93) rotate(-4.92)"/>
    <ellipse class="cls-11" cx="91.92" cy="583.72" rx="36.43" ry="9.74"/>
    <ellipse class="cls-11" cx="52.51" cy="568.9" rx="34.09" ry="12.23"/>
    <ellipse class="cls-11" cx="49.85" cy="597.03" rx="31.43" ry="15.9"/>
    <ellipse class="cls-11" cx="127.72" cy="584.42" rx="31.29" ry="15.53"/>
    <ellipse class="cls-11" cx="99.94" cy="564.94" rx="25.16" ry="14.76"/>
    <ellipse class="cls-11" cx="91.92" cy="606.8" rx="36.43" ry="13.35"/>
    <ellipse class="cls-11" cx="65.95" cy="630.61" rx="30.48" ry="7.57"/>
    <ellipse class="cls-11" cx="67.09" cy="615.28" rx="34.87" ry="15.33"/>
    <ellipse class="cls-11" cx="110.06" cy="621.11" rx="28.79" ry="8.17"/>
    <ellipse class="cls-11" cx="65.63" cy="547.41" rx="26.92" ry="11.42"/>
    <ellipse class="cls-11" cx="137.51" cy="571.27" rx="27.45" ry="12.44"/>
    <ellipse class="cls-11" cx="123.27" cy="600.09" rx="26.84" ry="6.71"/>
    <rect class="cls-7" x="200.32" y="573.98" width="53.53" height="36.25" rx="3.94" ry="3.94"/>
    <rect class="cls-11" x="314.76" y="558.87" width="79.76" height="41.66" rx="4.24" ry="4.24"/>
  </g>
  <path class="cls-10" d="m378.43,271.12h23.81v50.32c0,1.29-1.05,2.35-2.35,2.35h-19.11c-1.29,0-2.35-1.05-2.35-2.35v-50.32h0Z"/>
  <rect class="cls-18" x="374.91" y="262.52" width="30.57" height="8.6" rx="2.16" ry="2.16"/>
  <path class="cls-10" d="m417.2,271.12h23.81v50.32c0,1.29-1.05,2.35-2.35,2.35h-19.11c-1.29,0-2.35-1.05-2.35-2.35v-50.32h0Z"/>
  <rect class="cls-18" x="413.69" y="262.52" width="30.57" height="8.6" rx="2.16" ry="2.16"/>
  <g>
    <path class="cls-1" d="m457.06,271.12h23.81v50.32c0,1.29-1.05,2.35-2.35,2.35h-19.11c-1.29,0-2.35-1.05-2.35-2.35v-50.32h0Z"/>
    <rect class="cls-9" x="453.54" y="262.52" width="30.57" height="8.6" rx="2.16" ry="2.16"/>
  </g>
  <g>
    <path class="cls-8" d="m842.64,299.97c-.07-5.8.2-8.7-.35-12.72-.83-6.02-2.45-10.67-3.73-14.3-1.46-4.14-2.07-4.94-3.61-8.81-2.09-5.24-4.56-11.53-5.53-19.24-.32-2.58-.92-8.84,1.2-20.2,3.83-20.48,9.9-22.11,11.54-36.55,1.58-13.88-2.56-24.9-3.85-28.13-6.85-17.28-20.29-26.42-25.97-29.82h-47.85c-5.68,3.4-19.12,12.54-25.97,29.82-1.28,3.23-5.43,14.25-3.85,28.13,1.64,14.44,7.71,16.07,11.54,36.55,2.12,11.35,1.53,17.62,1.2,20.2-.86,6.79-2.86,12.13-5.53,19.24-1.48,3.94-3.06,6.13-4.74,11.28-1.76,5.41-2.4,9.56-2.55,10.51-.69,4.65-.6,7.93-.41,14.04.3,9.37.45,14.14,2.4,17.31,2.65,4.31,6.71,6.55,9.38,7.69h84.88c2.66-1.14,6.73-3.38,9.38-7.69,2.19-3.56,2.53-7.09,2.4-17.31Z"/>
    <path class="cls-15" d="m826.98,279.07c-.02-1.89-.07-4.03-.15-6.41-.09-2.56-.12-3.84-.18-4.36-.25-2.15-.78-3.9-2.5-8.26-1.29-3.28-2.11-5.13-2.65-6.44-1.22-2.96-3.2-7.82-3.93-13.68-.23-1.83-.66-6.29.86-14.37,2.73-14.57,7.04-15.73,8.21-26,1.23-10.83-1.6-24.88-11.22-33.18-8.94-7.72-19.65-7.91-26.53-8.03-6.85-.12-17.29-.31-26.33,6.81-10.53,8.3-15.41,23.57-12.38,34.4.88,3.14,2.11,6.55,5.78,16.78.86,2.4,1.7,5.34,2.43,9.22,1.51,8.08,1.09,12.53.86,14.37-.61,4.83-2.03,8.63-3.93,13.68-1.25,3.34-1.64,3.49-2.68,6.52-1.95,5.67-2.46,10.01-2.59,11.23-.3,2.76-.23,4.7-.2,7.73.08,6.4.06,9.64,1.71,12.31,1.89,3.07,4.78,4.66,6.67,5.47,9.34.51,19.15.81,29.4.83,10.82.02,21.16-.29,30.97-.83,3.62-1.43,8.56-3.14,8.38-17.79Z"/>
    <path class="cls-17" d="m818.15,111.57c-3.69-.64-7.37-1.28-11.06-1.92-3.45-10.62-6.89-21.24-10.34-31.86-1.64-.42-3.62-.79-5.89-.96-1.56-.12-2.99-.11-4.29-.04-1.3-.07-2.73-.07-4.29.04-2.27.17-4.26.55-5.89.96-3.45,10.62-6.89,21.24-10.34,31.86-3.69.64-7.37,1.28-11.06,1.92-.42.34-4.35,3.66-4.09,9.14.25,5.29,4.21,8.19,4.69,8.54,9.71.36,19.42.72,29.13,1.08,0,.05,0,.09,0,.14l1.85-.07c.62.02,1.23.05,1.85.07,0-.05,0-.09,0-.14,9.71-.36,19.42-.72,29.13-1.08.48-.34,4.44-3.25,4.69-8.54.26-5.47-3.67-8.79-4.09-9.14Z"/>
  </g>
  <rect class="cls-12" y="324.98" width="894.42" height="29.1" rx="5.31" ry="5.31"/>
  <path class="cls-13" d="m63,354.08h52.9v15.97c0,3.13-2.54,5.67-5.67,5.67h-41.56c-3.13,0-5.67-2.54-5.67-5.67v-15.97h0Z"/>
  <path class="cls-13" d="m431.54,354.08h52.9v15.97c0,3.13-2.54,5.67-5.67,5.67h-41.56c-3.13,0-5.67-2.54-5.67-5.67v-15.97h0Z"/>
  <g>
    <path class="cls-6" d="m164.85,182.15h71.67c1.12,0,2.04.91,2.04,2.04v11.43h-75.74v-11.43c0-1.12.91-2.04,2.04-2.04Z"/>
    <rect class="cls-19" x="148.87" y="195.61" width="102.92" height="128.17" rx="8.58" ry="8.58"/>
    <path class="cls-2" d="m201.6,275.95c2.54,3.56,8.36,3.77,13.01.46,6.69-5.23,23.82-13.78,17.48-22.19-2.54-3.56-8.36-3.77-13-.46-6.69,5.23-23.82,13.78-17.49,22.19Z"/>
    <path class="cls-2" d="m175.26,312.48c-5.68,0-10.28-4.6-10.28-10.28,1-8.7-4.57-31.45,10.28-31.08,5.68,0,10.28,4.6,10.28,10.28-1,8.7,4.57,31.45-10.28,31.08Z"/>
    <path class="cls-2" d="m167.24,283.2c-5.68,0-10.28-4.6-10.28-10.28,1-8.7-4.57-31.45,10.28-31.08,5.68,0,10.28,4.6,10.28,10.28-1,8.7,4.57,31.45-10.28,31.08Z"/>
    <path class="cls-2" d="m238.56,283.2c-5.68,0-10.28-4.6-10.28-10.28,1-8.7-4.57-31.45,10.28-31.08,5.68,0,10.28,4.6,10.28,10.28-1,8.7,4.57,31.45-10.28,31.08Z"/>
    <path class="cls-2" d="m190.9,272.73c5.21-2.24,7.85-8.37,4.87-13.43-5.37-6.19-12.55-32.66-24.99-24.9-5.21,2.24-7.85,8.37-4.87,13.43,5.37,6.19,12.55,32.66,25,24.9Z"/>
    <path class="cls-2" d="m212.16,231.02c-4.06-1.9-9.12-.03-10.59,4.64-.9,6.77-13.02,26.14-1.86,29.31,4.06,1.9,9.12.03,10.59-4.64.9-6.77,13.02-26.14,1.86-29.31Z"/>
    <path class="cls-2" d="m216.85,316.11c12.15.32,6.58-21.49,7.76-28.31,0-4.28-3.47-7.75-7.76-7.75-12.15-.32-6.58,21.49-7.76,28.31,0,4.28,3.47,7.75,7.76,7.75Z"/>
    <path class="cls-2" d="m204.28,311.86c11.25-4.59-2.61-22.32-4.29-29.04-1.72-3.92-6.3-5.7-10.22-3.98-11.25,4.59,2.61,22.32,4.29,29.04,1.72,3.92,6.3,5.7,10.22,3.98Z"/>
    <path class="cls-2" d="m155.5,298.95c-2.8,11.82,19.69,10.83,26.14,13.37,4.19.87,8.3-1.82,9.17-6.01,2.8-11.82-19.69-10.83-26.14-13.37-4.19-.87-8.3,1.82-9.17,6.01Z"/>
    <path class="cls-2" d="m242.33,314.75c4.82-2.48,6.72-8.4,4.24-13.22-5.13-7.07-10.96-32.73-24.2-25.59-4.82,2.48-6.72,8.4-4.24,13.22,5.13,7.07,10.96,32.73,24.2,25.59Z"/>
  </g>
  <g>
    <g>
      <path class="cls-17" d="m125.88,318.67c-.2-75.14-.39-150.29-.59-225.43.01-.75-.07-2.31-.97-3.97-.7-1.28-1.6-2.09-2.16-2.52-6.01-6.03-12.02-12.06-18.03-18.09v-17.8c.67-.57,1.53-1.43,2.28-2.65,1.12-1.81,1.49-3.53,1.62-4.57v-19.76h-38.41v19.76c.13,1.04.5,2.76,1.62,4.57.76,1.22,1.62,2.08,2.28,2.65v17.8c-6.01,6.03-12.02,12.06-18.03,18.09-.57.43-1.47,1.24-2.16,2.52-.9,1.66-.98,3.21-.97,3.97-.2,75.14-.39,150.29-.59,225.43-.02.62-.01,2.41,1.2,4.15.87,1.24,1.95,1.88,2.52,2.16h66.66c.57-.28,1.66-.92,2.52-2.16,1.21-1.73,1.22-3.53,1.2-4.15Z"/>
      <rect class="cls-6" x="66.27" width="45.09" height="23.88" rx="3.15" ry="3.15"/>
    </g>
    <rect class="cls-11" x="59.85" y="163.2" width="58.37" height="37.36" rx="3.48" ry="3.48"/>
  </g>
  <g>
    <path class="cls-6" d="m279.02,170.73h69.37c.76,0,1.38.62,1.38,1.38v10.04h-72.14v-10.04c0-.76.62-1.38,1.38-1.38Z"/>
    <rect class="cls-14" x="266.1" y="182.15" width="94.5" height="141.63" rx="6.58" ry="6.58"/>
    <path class="cls-4" d="m320.76,272.61c1.63,3.22-1.07,5.76.81,8.26,1.62,2.15,5.28,2.45,5.96,2.51,2.15.18,2.86-.47,4.57.11.29.1,2.41.85,3.51,2.92,1.82,3.42-.79,7.31-.94,7.52-2.31,3.34-6.44,3.8-8.63,4.04-1.16.13-6.16.56-11.03-2.42-7.82-4.79-11.84-16.26-8.03-22.57.27-.45,2.37-3.8,6.11-4.23,3.01-.34,6.36,1.28,7.66,3.85Z"/>
    <path class="cls-4" d="m309.96,242.66c1.88,3.09-.62,5.83,1.44,8.18,1.78,2.02,5.45,2.04,6.13,2.04,2.16,0,2.81-.69,4.57-.24.3.08,2.47.67,3.73,2.65,2.07,3.27-.23,7.35-.36,7.57-2.04,3.5-6.13,4.28-8.3,4.69-1.14.22-6.1,1.03-11.18-1.56-8.17-4.17-13.06-15.3-9.74-21.88.24-.47,2.07-3.97,5.77-4.69,2.97-.57,6.44.79,7.94,3.25Z"/>
    <path class="cls-4" d="m296.75,223.2c-2.22,2.85-5.67,1.49-7.13,4.25-1.26,2.38.03,5.82.27,6.46.76,2.02,1.64,2.38,1.85,4.19.03.31.25,2.55-1.15,4.42-2.32,3.1-6.95,2.39-7.21,2.35-4-.67-6.18-4.21-7.33-6.09-.61-.99-3.13-5.33-2.51-11.01,1-9.12,9.67-17.64,17-16.87.52.05,4.45.53,6.43,3.73,1.59,2.57,1.55,6.3-.22,8.57Z"/>
    <path class="cls-4" d="m306.22,221.67c2.86,2.21,1.5,5.67,4.27,7.12,2.39,1.25,5.82-.04,6.46-.28,2.02-.76,2.38-1.65,4.18-1.86.31-.04,2.55-.26,4.43,1.14,3.1,2.31,2.41,6.95,2.37,7.2-.66,4-4.2,6.19-6.07,7.35-.99.61-5.33,3.14-11,2.54-9.12-.97-17.67-9.62-16.92-16.95.05-.52.52-4.45,3.71-6.44,2.57-1.6,6.3-1.57,8.57.19Z"/>
    <path class="cls-4" d="m330.44,225.33c3.58.45,4.18,4.11,7.3,3.95,2.69-.14,4.98-3,5.41-3.54,1.35-1.69,1.2-2.63,2.65-3.73.24-.19,2.06-1.52,4.39-1.28,3.85.4,5.62,4.75,5.71,4.99,1.48,3.78-.46,7.46-1.48,9.41-.54,1.03-2.98,5.42-8.17,7.79-8.34,3.81-20.1.73-23.2-5.96-.22-.47-1.83-4.09-.09-7.44,1.39-2.69,4.62-4.56,7.47-4.2Z"/>
    <path class="cls-4" d="m312.72,294.93c1.88,3.09-.62,5.83,1.44,8.18,1.78,2.02,5.45,2.04,6.13,2.04,2.16,0,2.81-.69,4.57-.24.3.08,2.47.67,3.73,2.65,2.07,3.27-.23,7.35-.36,7.57-2.04,3.5-6.13,4.28-8.3,4.69-1.14.22-6.1,1.03-11.18-1.56-8.17-4.17-13.06-15.3-9.74-21.88.24-.47,2.07-3.97,5.77-4.69,2.97-.57,6.44.79,7.94,3.25Z"/>
    <path class="cls-4" d="m338.31,268.46c1.88,3.09-.62,5.83,1.44,8.18,1.78,2.02,5.45,2.04,6.13,2.04,2.16,0,2.81-.69,4.57-.24.3.08,2.47.67,3.73,2.65,2.07,3.27-.23,7.35-.36,7.57-2.04,3.5-6.13,4.28-8.3,4.69-1.14.22-6.1,1.03-11.18-1.56-8.17-4.17-13.06-15.3-9.74-21.88.24-.47,2.07-3.97,5.77-4.69,2.97-.57,6.44.79,7.94,3.25Z"/>
    <path class="cls-4" d="m341.45,293.37c1.88,3.09-.62,5.83,1.44,8.18,1.78,2.02,5.45,2.04,6.13,2.04,2.16,0,2.81-.69,4.57-.24.3.08,2.47.67,3.73,2.65,2.07,3.27-.23,7.35-.36,7.57-2.04,3.5-6.13,4.28-8.3,4.69-1.14.22-6.1,1.03-11.18-1.56-8.17-4.17-13.06-15.3-9.74-21.88.24-.47,2.07-3.97,5.77-4.69,2.97-.57,6.44.79,7.94,3.25Z"/>
    <path class="cls-4" d="m341.45,242.66c1.88,3.09-.62,5.83,1.44,8.18,1.78,2.02,5.45,2.04,6.13,2.04,2.16,0,2.81-.69,4.57-.24.3.08,2.47.67,3.73,2.65,2.07,3.27-.23,7.35-.36,7.57-2.04,3.5-6.13,4.28-8.3,4.69-1.14.22-6.1,1.03-11.18-1.56-8.17-4.17-13.06-15.3-9.74-21.88.24-.47,2.07-3.97,5.77-4.69,2.97-.57,6.44.79,7.94,3.25Z"/>
    <path class="cls-4" d="m286.66,242.66c1.88,3.09-.62,5.83,1.44,8.18,1.78,2.02,5.45,2.04,6.13,2.04,2.16,0,2.81-.69,4.57-.24.3.08,2.47.67,3.73,2.65,2.07,3.27-.23,7.35-.36,7.57-2.04,3.5-6.13,4.28-8.3,4.69-1.14.22-6.1,1.03-11.18-1.56-8.17-4.17-13.06-15.3-9.74-21.88.24-.47,2.07-3.97,5.77-4.69,2.97-.57,6.44.79,7.94,3.25Z"/>
    <path class="cls-4" d="m288.19,270.2c1.88,3.09-.62,5.83,1.44,8.18,1.78,2.02,5.45,2.04,6.13,2.04,2.16,0,2.81-.69,4.57-.24.3.08,2.47.67,3.73,2.65,2.07,3.27-.23,7.35-.36,7.57-2.04,3.5-6.13,4.28-8.3,4.69-1.14.22-6.1,1.03-11.18-1.56-8.17-4.17-13.06-15.3-9.74-21.88.24-.47,2.07-3.97,5.77-4.69,2.97-.57,6.44.79,7.94,3.25Z"/>
    <path class="cls-4" d="m282.25,293.37c1.88,3.09-.62,5.83,1.44,8.18,1.78,2.02,5.45,2.04,6.13,2.04,2.16,0,2.81-.69,4.57-.24.3.08,2.47.67,3.73,2.65,2.07,3.27-.23,7.35-.36,7.57-2.04,3.5-6.13,4.28-8.3,4.69-1.14.22-6.1,1.03-11.18-1.56-8.17-4.17-13.06-15.3-9.74-21.88.24-.47,2.07-3.97,5.77-4.69,2.97-.57,6.44.79,7.94,3.25Z"/>
    <rect class="cls-16" x="276.5" y="233.92" width="73.7" height="47.18" rx="5.21" ry="5.21"/>
    <path class="cls-4" d="m308.98,246.54c2.86,2.21,1.5,5.67,4.27,7.12,2.39,1.25,5.82-.04,6.46-.28,2.02-.76,2.38-1.65,4.18-1.86.31-.04,2.55-.26,4.43,1.14,3.1,2.31,2.41,6.95,2.37,7.2-.66,4-4.2,6.19-6.07,7.35-.99.61-5.33,3.14-11,2.54-9.12-.97-17.67-9.62-16.92-16.95.05-.52.52-4.45,3.71-6.44,2.57-1.6,6.3-1.57,8.57.19Z"/>
  </g>
  <rect class="cls-3" x="387.09" y="278.18" width="10.46" height="37.82" rx="1.47" ry="1.47"/>
  <rect class="cls-3" x="426.64" y="278.18" width="10.46" height="37.82" rx="1.47" ry="1.47"/>
  <rect class="cls-3" x="466.68" y="278.18" width="10.46" height="37.82" rx="1.47" ry="1.47"/>
  <g>
    <rect class="cls-5" x="611.34" y="205.87" width="98.35" height="118.43" rx="6.11" ry="6.11"/>
    <path class="cls-6" d="m617.45,205.87h86.13c3.37,0,6.11,2.74,6.11,6.11v15.53h-98.35v-15.53c0-3.37,2.74-6.11,6.11-6.11Z"/>
    <rect class="cls-7" x="633.75" y="254.68" width="53.53" height="36.25" rx="3.94" ry="3.94"/>
  </g>
  <path class="cls-13" d="m800.09,354.08h52.9v15.97c0,3.13-2.54,5.67-5.67,5.67h-41.56c-3.13,0-5.67-2.54-5.67-5.67v-15.97h0Z"/>
  <g>
    <g>
      <path class="cls-1" d="m430.35,591.62h23.81v50.32c0,1.29-1.05,2.35-2.35,2.35h-19.11c-1.29,0-2.35-1.05-2.35-2.35v-50.32h0Z"/>
      <rect class="cls-9" x="426.83" y="583.03" width="30.57" height="8.6" rx="2.16" ry="2.16"/>
    </g>
    <rect class="cls-3" x="439.97" y="598.68" width="10.46" height="37.82" rx="1.47" ry="1.47"/>
  </g>
  <g>
    <g>
      <path class="cls-1" d="m467.56,591.62h23.81v50.32c0,1.29-1.05,2.35-2.35,2.35h-19.11c-1.29,0-2.35-1.05-2.35-2.35v-50.32h0Z"/>
      <rect class="cls-9" x="464.04" y="583.03" width="30.57" height="8.6" rx="2.16" ry="2.16"/>
    </g>
    <rect class="cls-3" x="477.18" y="598.68" width="10.46" height="37.82" rx="1.47" ry="1.47"/>
  </g>
  <g>
    <g>
      <path class="cls-6" d="m510.27,170.96h69.37c.76,0,1.38.62,1.38,1.38v10.04h-72.14v-10.04c0-.76.62-1.38,1.38-1.38Z"/>
      <rect class="cls-14" x="497.34" y="182.38" width="94.5" height="141.63" rx="6.58" ry="6.58"/>
      <circle class="cls-4" cx="537.72" cy="291.62" r="10.13"/>
      <circle class="cls-4" cx="549.1" cy="291.62" r="10.13"/>
      <circle class="cls-4" cx="564.11" cy="293.86" r="10.13"/>
      <circle class="cls-4" cx="578.77" cy="290.27" r="10.13"/>
      <circle class="cls-4" cx="534.82" cy="273.59" r="10.13"/>
      <circle class="cls-4" cx="547.81" cy="253.32" r="10.13"/>
      <circle class="cls-4" cx="533.41" cy="259.91" r="10.13"/>
      <circle class="cls-4" cx="532.57" cy="243.18" r="10.13"/>
      <circle class="cls-4" cx="559.23" cy="249.78" r="10.13"/>
      <circle class="cls-4" cx="581.43" cy="245.87" r="10.13"/>
      <circle class="cls-4" cx="568.63" cy="259.91" r="10.13"/>
      <circle class="cls-4" cx="581.43" cy="268.07" r="10.13"/>
      <circle class="cls-4" cx="569.17" cy="273.59" r="10.13"/>
      <circle class="cls-4" cx="552.69" cy="271.35" r="10.13"/>
      <g>
        <circle class="cls-4" cx="522.86" cy="307.12" r="10.13"/>
        <circle class="cls-4" cx="535.3" cy="313.23" r="10.13"/>
        <circle class="cls-4" cx="549.58" cy="310.71" r="10.13"/>
        <circle class="cls-4" cx="563.31" cy="313.23" r="10.13"/>
        <circle class="cls-4" cx="507.84" cy="290.69" r="10.13"/>
        <circle class="cls-4" cx="523.76" cy="291.14" r="10.13"/>
        <circle class="cls-4" cx="507.84" cy="313.23" r="10.13"/>
        <circle class="cls-4" cx="579.25" cy="310.71" r="10.13"/>
        <circle class="cls-4" cx="507.84" cy="272.66" r="10.13"/>
        <circle class="cls-4" cx="522.92" cy="268.49" r="10.13"/>
        <circle class="cls-4" cx="513.63" cy="254.21" r="10.13"/>
      </g>
    </g>
    <g>
      <rect class="cls-16" x="508.1" y="226.19" width="73.7" height="47.18" rx="5.21" ry="5.21"/>
      <circle class="cls-4" cx="544.95" cy="249.78" r="10.13"/>
    </g>
  </g>
</svg>