<?xml version="1.0" encoding="UTF-8"?>
<svg id="Layer_2" data-name="Layer 2" xmlns="http://www.w3.org/2000/svg" viewBox="0 0 491.35 659.23">
  <defs>
    <style>
      .cls-1 {
        fill: #fff;
      }

      .cls-2 {
        fill: #f8efca;
      }

      .cls-3 {
        fill: #cd8184;
      }

      .cls-4 {
        fill: #b3c8a2;
      }

      .cls-5 {
        fill: #f6f2e6;
      }

      .cls-6 {
        fill: #bfbf69;
      }

      .cls-7 {
        fill: #9fa983;
      }

      .cls-8 {
        fill: #b56320;
      }

      .cls-9 {
        fill: #e79286;
      }

      .cls-10 {
        fill: #fce4a0;
      }

      .cls-11 {
        fill: #d9f7ee;
      }

      .cls-12 {
        fill: #fe9b92;
      }

      .cls-13 {
        fill: #c28185;
      }

      .cls-14 {
        fill: #e2c8ab;
      }

      .cls-15 {
        fill: #ffe1a5;
      }

      .cls-16 {
        fill: #7fbd9f;
      }

      .cls-17 {
        fill: #afb5a0;
      }

      .cls-18 {
        fill: #f7d99d;
      }

      .cls-19 {
        fill: #f3aba6;
      }

      .cls-20 {
        fill: #fb9c8e;
      }

      .cls-21 {
        fill: #f8b98d;
      }

      .cls-22 {
        fill: #f8f3e3;
      }

      .cls-23 {
        fill: #fdc49d;
      }

      .cls-24 {
        fill: #e6b986;
      }

      .cls-25 {
        fill: #dbb08f;
      }
    </style>
  </defs>
  <g id="Layer_2-2" data-name="Layer 2">
    <g>
      <g>
        <path class="cls-6" d="m82.36,283.6c-.18-66.88-.35-133.75-.53-200.63.01-.67-.06-2.05-.86-3.53-.62-1.14-1.42-1.86-1.93-2.25-5.35-5.37-10.7-10.73-16.05-16.1v-15.84c.59-.5,1.36-1.27,2.03-2.35,1-1.61,1.33-3.14,1.45-4.07v-17.59h-34.18v17.59c.12.92.44,2.46,1.45,4.07.67,1.08,1.44,1.85,2.03,2.35v15.84c-5.35,5.37-10.7,10.73-16.05,16.1-.5.39-1.3,1.1-1.93,2.25-.8,1.48-.87,2.86-.86,3.53-.18,66.88-.35,133.75-.53,200.63-.02.55-.01,2.15,1.07,3.69.77,1.11,1.74,1.67,2.25,1.93h59.33c.51-.25,1.47-.82,2.25-1.93,1.08-1.54,1.09-3.14,1.07-3.69Z"/>
        <rect class="cls-8" x="29.32" width="40.13" height="21.25" rx="3.15" ry="3.15"/>
      </g>
      <path class="cls-17" d="m105.18,162.11h63.34c1.12,0,2.04.91,2.04,2.04v9.95h-67.41v-9.95c0-1.12.91-2.04,2.04-2.04Z"/>
      <rect class="cls-11" x="90.74" y="174.09" width="91.59" height="114.06" rx="8.58" ry="8.58"/>
      <path class="cls-23" d="m203.4,151.94h61.44c.76,0,1.38.62,1.38,1.38v8.78h-64.2v-8.78c0-.76.62-1.38,1.38-1.38Z"/>
      <rect class="cls-22" x="191.74" y="162.11" width="84.1" height="126.05" rx="6.58" ry="6.58"/>
      <path class="cls-15" d="m290.61,241.29h21.19v44.52c0,1.29-1.05,2.35-2.35,2.35h-16.5c-1.29,0-2.35-1.05-2.35-2.35v-44.52h0Z"/>
      <rect class="cls-24" x="287.48" y="233.64" width="27.2" height="7.65" rx="2.16" ry="2.16"/>
      <path class="cls-4" d="m325.12,241.29h21.19v44.52c0,1.29-1.05,2.35-2.35,2.35h-16.5c-1.29,0-2.35-1.05-2.35-2.35v-44.52h0Z"/>
      <rect class="cls-7" x="321.99" y="233.64" width="27.2" height="7.65" rx="2.16" ry="2.16"/>
      <g>
        <path class="cls-20" d="m360.59,241.29h21.19v44.52c0,1.29-1.05,2.35-2.35,2.35h-16.5c-1.29,0-2.35-1.05-2.35-2.35v-44.52h0Z"/>
        <rect class="cls-9" x="357.46" y="233.64" width="27.2" height="7.65" rx="2.16" ry="2.16"/>
      </g>
      <path class="cls-10" d="m486.42,266.97c-.06-5.16.18-7.74-.31-11.32-.74-5.36-2.18-9.49-3.32-12.73-1.3-3.68-1.84-4.39-3.22-7.84-1.86-4.67-4.06-10.27-4.92-17.12-.29-2.29-.82-7.87,1.07-17.98,3.41-18.23,8.81-19.68,10.27-32.53,1.4-12.36-2.28-22.16-3.42-25.04-6.1-15.38-18.06-23.51-23.11-26.54h-42.59c-5.06,3.02-17.01,11.16-23.11,26.54-1.14,2.88-4.83,12.68-3.42,25.04,1.46,12.85,6.86,14.3,10.27,32.53,1.89,10.1,1.36,15.68,1.07,17.98-.76,6.04-2.55,10.79-4.92,17.12-1.32,3.51-2.73,5.45-4.22,10.04-1.57,4.82-2.14,8.51-2.27,9.35-.62,4.14-.54,7.06-.36,12.49.27,8.34.4,12.59,2.14,15.41,2.36,3.84,5.98,5.83,8.35,6.85h75.54c2.37-1.02,5.99-3.01,8.35-6.85,1.95-3.17,2.25-6.31,2.14-15.41Z"/>
      <path class="cls-2" d="m472.49,248.37c-.02-1.68-.06-3.59-.13-5.71-.08-2.28-.1-3.41-.16-3.88-.23-1.91-.7-3.47-2.22-7.35-1.15-2.92-1.88-4.57-2.36-5.74-1.09-2.63-2.84-6.96-3.5-12.18-.21-1.63-.58-5.6.76-12.79,2.43-12.97,6.27-14,7.31-23.14,1.1-9.64-1.43-22.14-9.98-29.53-7.95-6.87-17.49-7.04-23.61-7.15-6.1-.11-15.39-.27-23.43,6.06-9.37,7.38-13.72,20.98-11.02,30.62.78,2.8,1.88,5.83,5.14,14.93.77,2.14,1.52,4.75,2.16,8.21,1.34,7.19.97,11.15.76,12.79-.54,4.3-1.81,7.68-3.5,12.18-1.12,2.97-1.46,3.11-2.39,5.8-1.73,5.04-2.19,8.91-2.31,10-.26,2.46-.21,4.18-.17,6.88.07,5.7.06,8.58,1.52,10.96,1.68,2.73,4.25,4.15,5.94,4.87,8.31.46,17.05.72,26.17.74,9.63.01,18.83-.26,27.56-.74,3.22-1.27,7.62-2.8,7.46-15.83Z"/>
      <path class="cls-10" d="m464.63,99.3c-3.28-.57-6.56-1.14-9.84-1.71-3.07-9.45-6.13-18.9-9.2-28.36-1.46-.37-3.22-.71-5.24-.86-1.39-.1-2.66-.1-3.81-.04-1.16-.06-2.43-.07-3.81.04-2.02.15-3.79.49-5.24.86-3.07,9.45-6.13,18.9-9.2,28.36-3.28.57-6.56,1.14-9.84,1.71-.38.31-3.87,3.26-3.64,8.13.22,4.71,3.74,7.29,4.17,7.6,8.64.32,17.28.64,25.92.96,0,.04,0,.08,0,.12l1.64-.06c.55.02,1.1.04,1.64.06,0-.04,0-.08,0-.12,8.64-.32,17.28-.64,25.92-.96.43-.3,3.95-2.89,4.17-7.6.23-4.87-3.26-7.83-3.64-8.13Z"/>
      <path class="cls-21" d="m103.48,472.83h8.09c1.38,0,2.49-1.32,2.49-2.97v-6.9c0-1.63-1.12-2.97-2.49-2.97H41.12c-1.39,0-2.5,1.34-2.5,2.97v6.9c0,1.65,1.12,2.97,2.5,2.97h9.31"/>
      <path class="cls-5" d="m119.46,601.29c1.35.28,2.38,1.47,2.38,2.91v6.9c0,1.65-1.32,2.97-2.96,2.97H35.26c-1.63,0-2.97-1.32-2.97-2.97v-6.9c0-1.44,1.03-2.63,2.4-2.91-19.95-13.31-33.04-35.75-33.04-61.2,0-29.84,18.01-55.55,43.95-67.25h62.97c25.94,11.7,43.95,37.41,43.95,67.25,0,25.45-13.11,47.89-33.04,61.2Z"/>
      <rect class="cls-25" y="289.22" width="491.35" height="25.89" rx="5.31" ry="5.31"/>
      <path class="cls-25" d="m56.07,315.12h47.08v13.59c0,3.13-2.54,5.67-5.67,5.67h-35.73c-3.13,0-5.67-2.54-5.67-5.67v-13.59h0Z"/>
      <path class="cls-25" d="m389.44,315.12h47.08v13.59c0,3.13-2.54,5.67-5.67,5.67h-35.73c-3.13,0-5.67-2.54-5.67-5.67v-13.59h0Z"/>
      <rect class="cls-25" y="614.07" width="491.35" height="25.89" rx="5.31" ry="5.31"/>
      <path class="cls-25" d="m56.07,639.97h47.08v13.59c0,3.13-2.54,5.67-5.67,5.67h-35.73c-3.13,0-5.67-2.54-5.67-5.67v-13.59h0Z"/>
      <path class="cls-25" d="m389.44,639.97h47.08v13.59c0,3.13-2.54,5.67-5.67,5.67h-35.73c-3.13,0-5.67-2.54-5.67-5.67v-13.59h0Z"/>
      <path class="cls-12" d="m369.76,530.72v66.07c0,9.53-7.72,17.27-17.27,17.27h-73.72c-9.55,0-17.29-7.74-17.29-17.27v-66.07c0-11.58,5.86-21.79,14.77-27.84v.43h79.34c8.58,6.08,14.17,16.1,14.17,27.41Z"/>
      <path class="cls-3" d="m355.29,503.32v-19.8c0-3.71-3-6.72-6.71-6.72h-65.91c-3.72,0-6.72,3.02-6.72,6.72v19.38"/>
      <rect class="cls-19" x="158.34" y="508.68" width="87.53" height="105.39" rx="6.11" ry="6.11"/>
      <path class="cls-13" d="m164.44,508.68h75.31c3.37,0,6.11,2.74,6.11,6.11v13.15h-87.53v-13.15c0-3.37,2.74-6.11,6.11-6.11Z"/>
      <path class="cls-16" d="m137.67,245.58c2.26,3.17,7.44,3.35,11.57.41,5.96-4.66,21.2-12.27,15.56-19.75-2.26-3.17-7.44-3.35-11.57-.41-5.96,4.66-21.2,12.27-15.56,19.75Z"/>
      <path class="cls-16" d="m114.22,278.09c-5.05,0-9.15-4.1-9.15-9.15.89-7.75-4.07-27.99,9.15-27.66,5.05,0,9.15,4.1,9.15,9.15-.89,7.75,4.07,27.99-9.15,27.66Z"/>
      <path class="cls-16" d="m107.08,252.04c-5.05,0-9.15-4.1-9.15-9.15.89-7.75-4.07-27.99,9.15-27.66,5.05,0,9.15,4.1,9.15,9.15-.89,7.75,4.07,27.99-9.15,27.66Z"/>
      <path class="cls-16" d="m170.56,252.04c-5.05,0-9.15-4.1-9.15-9.15.89-7.75-4.07-27.99,9.15-27.66,5.05,0,9.15,4.1,9.15,9.15-.89,7.75,4.07,27.99-9.15,27.66Z"/>
      <path class="cls-16" d="m128.14,242.72c4.63-1.99,6.98-7.45,4.34-11.95-4.78-5.51-11.17-29.07-22.24-22.16-4.64,1.99-6.99,7.45-4.34,11.95,4.78,5.51,11.17,29.07,22.25,22.16Z"/>
      <path class="cls-16" d="m147.06,205.6c-3.62-1.69-8.11-.03-9.43,4.13-.8,6.03-11.58,23.26-1.66,26.09,3.62,1.69,8.11.03,9.43-4.13.8-6.03,11.58-23.26,1.66-26.09Z"/>
      <path class="cls-16" d="m151.23,281.33c10.81.29,5.86-19.12,6.9-25.2,0-3.81-3.09-6.9-6.9-6.9-10.81-.29-5.86,19.12-6.9,25.2,0,3.81,3.09,6.9,6.9,6.9Z"/>
      <path class="cls-16" d="m140.04,277.54c10.01-4.08-2.33-19.86-3.82-25.85-1.53-3.49-5.61-5.08-9.1-3.54-10.01,4.08,2.33,19.86,3.82,25.85,1.53,3.49,5.61,5.08,9.1,3.54Z"/>
      <path class="cls-16" d="m96.63,266.05c-2.49,10.52,17.52,9.64,23.26,11.9,3.73.78,7.39-1.62,8.16-5.35,2.49-10.52-17.52-9.64-23.26-11.9-3.73-.78-7.39,1.62-8.16,5.35Z"/>
      <path class="cls-16" d="m173.91,280.12c4.29-2.21,5.98-7.48,3.77-11.77-4.56-6.29-9.76-29.13-21.54-22.77-4.29,2.21-5.98,7.48-3.77,11.77,4.56,6.29,9.76,29.13,21.54,22.77Z"/>
      <path class="cls-18" d="m240.39,242.61c1.45,2.87-.95,5.13.72,7.35,1.44,1.92,4.7,2.18,5.3,2.23,1.92.16,2.54-.42,4.07.1.26.09,2.15.76,3.13,2.6,1.62,3.04-.71,6.51-.84,6.7-2.05,2.97-5.74,3.38-7.68,3.59-1.03.11-5.48.5-9.81-2.15-6.96-4.26-10.54-14.47-7.15-20.08.24-.4,2.11-3.38,5.44-3.77,2.68-.31,5.66,1.14,6.82,3.42Z"/>
      <path class="cls-18" d="m230.78,215.96c1.67,2.75-.55,5.19,1.28,7.28,1.59,1.8,4.85,1.82,5.46,1.82,1.92,0,2.5-.61,4.07-.21.27.07,2.2.59,3.32,2.35,1.84,2.91-.21,6.54-.32,6.74-1.82,3.12-5.46,3.81-7.38,4.17-1.02.19-5.43.92-9.95-1.39-7.27-3.71-11.62-13.62-8.67-19.47.21-.41,1.85-3.54,5.14-4.17,2.64-.51,5.73.7,7.06,2.89Z"/>
      <path class="cls-18" d="m219.02,198.64c-1.98,2.54-5.05,1.32-6.35,3.78-1.12,2.12.02,5.18.24,5.75.67,1.8,1.46,2.12,1.64,3.72.03.27.23,2.27-1.02,3.94-2.06,2.76-6.19,2.13-6.42,2.09-3.56-.59-5.5-3.75-6.52-5.42-.54-.88-2.79-4.75-2.23-9.8.89-8.11,8.61-15.7,15.13-15.02.46.05,3.96.47,5.72,3.32,1.42,2.29,1.38,5.61-.19,7.63Z"/>
      <path class="cls-18" d="m227.45,197.28c2.54,1.97,1.34,5.04,3.8,6.34,2.12,1.12,5.18-.04,5.75-.25,1.8-.68,2.12-1.47,3.72-1.65.27-.03,2.27-.23,3.94,1.01,2.76,2.05,2.15,6.18,2.11,6.41-.58,3.56-3.74,5.51-5.4,6.54-.88.54-4.74,2.8-9.79,2.26-8.12-.87-15.72-8.56-15.06-15.09.05-.46.46-3.96,3.3-5.73,2.29-1.42,5.6-1.4,7.63.17Z"/>
      <path class="cls-18" d="m249,200.53c3.19.4,3.72,3.66,6.5,3.51,2.4-.12,4.44-2.67,4.82-3.15,1.2-1.5,1.07-2.34,2.36-3.32.22-.17,1.83-1.36,3.91-1.14,3.42.36,5,4.23,5.08,4.44,1.31,3.36-.41,6.64-1.32,8.38-.48.92-2.65,4.82-7.27,6.93-7.42,3.39-17.89.65-20.65-5.3-.2-.42-1.63-3.64-.08-6.62,1.24-2.39,4.11-4.06,6.65-3.74Z"/>
      <path class="cls-18" d="m233.24,262.48c1.67,2.75-.55,5.19,1.28,7.28,1.59,1.8,4.85,1.82,5.46,1.82,1.92,0,2.5-.61,4.07-.21.27.07,2.2.59,3.32,2.35,1.84,2.91-.21,6.54-.32,6.74-1.82,3.12-5.46,3.81-7.38,4.17-1.02.19-5.43.92-9.95-1.39-7.27-3.71-11.62-13.62-8.67-19.47.21-.41,1.85-3.54,5.14-4.17,2.64-.51,5.73.7,7.06,2.89Z"/>
      <path class="cls-18" d="m256.01,238.92c1.67,2.75-.55,5.19,1.28,7.28,1.59,1.8,4.85,1.82,5.46,1.82,1.92,0,2.5-.61,4.07-.21.27.07,2.2.59,3.32,2.35,1.84,2.91-.21,6.54-.32,6.74-1.82,3.12-5.46,3.81-7.38,4.17-1.02.19-5.43.92-9.95-1.39-7.27-3.71-11.62-13.62-8.67-19.47.21-.41,1.85-3.54,5.14-4.17,2.64-.51,5.73.7,7.06,2.89Z"/>
      <path class="cls-18" d="m258.81,261.09c1.67,2.75-.55,5.19,1.28,7.28,1.59,1.8,4.85,1.82,5.46,1.82,1.92,0,2.5-.61,4.07-.21.27.07,2.2.59,3.32,2.35,1.84,2.91-.21,6.54-.32,6.74-1.82,3.12-5.46,3.81-7.38,4.17-1.02.19-5.43.92-9.95-1.39-7.27-3.71-11.62-13.62-8.67-19.47.21-.41,1.85-3.54,5.14-4.17,2.64-.51,5.73.7,7.06,2.89Z"/>
      <path class="cls-18" d="m258.81,215.96c1.67,2.75-.55,5.19,1.28,7.28,1.59,1.8,4.85,1.82,5.46,1.82,1.92,0,2.5-.61,4.07-.21.27.07,2.2.59,3.32,2.35,1.84,2.91-.21,6.54-.32,6.74-1.82,3.12-5.46,3.81-7.38,4.17-1.02.19-5.43.92-9.95-1.39-7.27-3.71-11.62-13.62-8.67-19.47.21-.41,1.85-3.54,5.14-4.17,2.64-.51,5.73.7,7.06,2.89Z"/>
      <path class="cls-18" d="m210.04,215.96c1.67,2.75-.55,5.19,1.28,7.28,1.59,1.8,4.85,1.82,5.46,1.82,1.92,0,2.5-.61,4.07-.21.27.07,2.2.59,3.32,2.35,1.84,2.91-.21,6.54-.32,6.74-1.82,3.12-5.46,3.81-7.38,4.17-1.02.19-5.43.92-9.95-1.39-7.27-3.71-11.62-13.62-8.67-19.47.21-.41,1.85-3.54,5.14-4.17,2.64-.51,5.73.7,7.06,2.89Z"/>
      <path class="cls-18" d="m211.41,240.47c1.67,2.75-.55,5.19,1.28,7.28,1.59,1.8,4.85,1.82,5.46,1.82,1.92,0,2.5-.61,4.07-.21.27.07,2.2.59,3.32,2.35,1.84,2.91-.21,6.54-.32,6.74-1.82,3.12-5.46,3.81-7.38,4.17-1.02.19-5.43.92-9.95-1.39-7.27-3.71-11.62-13.62-8.67-19.47.21-.41,1.85-3.54,5.14-4.17,2.64-.51,5.73.7,7.06,2.89Z"/>
      <path class="cls-18" d="m206.12,261.09c1.67,2.75-.55,5.19,1.28,7.28,1.59,1.8,4.85,1.82,5.46,1.82,1.92,0,2.5-.61,4.07-.21.27.07,2.2.59,3.32,2.35,1.84,2.91-.21,6.54-.32,6.74-1.82,3.12-5.46,3.81-7.38,4.17-1.02.19-5.43.92-9.95-1.39-7.27-3.71-11.62-13.62-8.67-19.47.21-.41,1.85-3.54,5.14-4.17,2.64-.51,5.73.7,7.06,2.89Z"/>
      <rect class="cls-1" x="23.6" y="145.24" width="51.94" height="33.25" rx="3.48" ry="3.48"/>
      <rect class="cls-2" x="201" y="208.18" width="65.59" height="41.99"/>
      <path class="cls-18" d="m229.9,219.41c2.54,1.97,1.34,5.04,3.8,6.34,2.12,1.12,5.18-.04,5.75-.25,1.8-.68,2.12-1.47,3.72-1.65.27-.03,2.27-.23,3.94,1.01,2.76,2.05,2.15,6.18,2.11,6.41-.58,3.56-3.74,5.51-5.4,6.54-.88.54-4.74,2.8-9.79,2.26-8.12-.87-15.72-8.56-15.06-15.09.05-.46.46-3.96,3.3-5.73,2.29-1.42,5.6-1.4,7.63.17Z"/>
      <ellipse class="cls-14" cx="111.33" cy="524.67" rx="25.52" ry="18.78"/>
      <ellipse class="cls-14" cx="40.83" cy="522.59" rx="24.44" ry="16.69" transform="translate(-44.66 5.43) rotate(-4.92)"/>
      <ellipse class="cls-14" cx="81.8" cy="560.79" rx="32.42" ry="8.67"/>
      <ellipse class="cls-14" cx="46.73" cy="547.6" rx="30.34" ry="10.88"/>
      <ellipse class="cls-14" cx="44.36" cy="572.63" rx="27.97" ry="14.15"/>
      <ellipse class="cls-14" cx="113.66" cy="561.41" rx="27.85" ry="13.82"/>
      <ellipse class="cls-14" cx="88.94" cy="544.07" rx="22.39" ry="13.14"/>
      <ellipse class="cls-14" cx="81.8" cy="581.33" rx="32.42" ry="11.88"/>
      <ellipse class="cls-14" cx="58.69" cy="602.52" rx="27.13" ry="6.74"/>
      <ellipse class="cls-14" cx="59.71" cy="588.87" rx="31.03" ry="13.64"/>
      <ellipse class="cls-14" cx="97.95" cy="594.06" rx="25.62" ry="7.27"/>
      <ellipse class="cls-14" cx="58.41" cy="528.47" rx="23.96" ry="10.17"/>
      <ellipse class="cls-14" cx="122.38" cy="549.71" rx="24.43" ry="11.07"/>
      <ellipse class="cls-14" cx="109.7" cy="575.36" rx="23.89" ry="5.98"/>
      <rect class="cls-1" x="178.28" y="552.12" width="47.64" height="32.26" rx="3.94" ry="3.94"/>
      <rect class="cls-1" x="280.13" y="538.67" width="70.98" height="37.08" rx="4.24" ry="4.24"/>
      <rect class="cls-1" x="298.32" y="247.57" width="9.31" height="33.66" rx="1.47" ry="1.47"/>
      <rect class="cls-1" x="333.52" y="247.57" width="9.31" height="33.66" rx="1.47" ry="1.47"/>
      <rect class="cls-1" x="369.15" y="247.57" width="9.31" height="33.66" rx="1.47" ry="1.47"/>
    </g>
  </g>
</svg>