<?xml version="1.0" encoding="UTF-8"?>
<svg id="Layer_2" data-name="Layer 2" xmlns="http://www.w3.org/2000/svg" viewBox="0 0 2077.32 3801.64">
  <defs>
    <style>
      .cls-1 {
        opacity: .41;
      }

      .cls-1, .cls-2 {
        fill: #edc098;
      }

      .cls-2 {
        opacity: .43;
      }

      .cls-3 {
        fill: #b4b4b4;
      }

      .cls-4 {
        fill: #ffd7ae;
      }

      .cls-5 {
        fill: #929292;
      }

      .cls-6 {
        fill: #878787;
      }

      .cls-7 {
        fill: none;
      }

      .cls-8 {
        fill: #a5a4a4;
        opacity: .31;
      }
    </style>
  </defs>
  <g id="Layer_1-2" data-name="Layer 1">
    <g>
      <g>
        <path class="cls-6" d="m1201.5,724.52c-.46,2.98-.91,5.98-1.35,8.99-.32,2.18-.63,4.35-.94,6.52-7.13,4.86-48.78,32.31-91.09,17.87-62.49-21.34-85.37-120.09-55.89-150.47,17.04-17.56,49.6-10.39,55.35-9.14,46.84,10.22,83.4,59.99,93.92,126.23Z"/>
        <path class="cls-4" d="m1471.41,1516.72c-3.12-21.66-6.86-39.43-9.69-51.62-.22-28.66-1.31-71.13-5.37-122.5-10.52-133.49-36.27-264.41-36.27-264.41-.73-3.26-1.71-8.13-2.61-14.11-2.25-15.02-2.21-26.41-2.21-29.64-.15-28.91-7.69-98.34-14.11-143.28-3.7-25.9-7.44-46.58-17.74-70.92-8-18.9-14.22-28.38-21.77-35.88-14.68-14.58-31.79-20.64-38.38-22.9-7.35-2.52-12.73-3.48-21.67-5.08-22.49-4.02-33.14-2.74-48.95-4.49-10.91-1.21-22.37-4.88-45.34-11.86,0,0-20.22-6.14-46.22-16.11-7.65-2.93-13.87-5.51-20.51-8.58-3.53-1.63-6.41-3.05-8.33-4-8.41-11.71-20.11-29.43-31.38-52.34-31.75-64.58-22.34-93.82-43.53-111.22-39.76-32.65-133.05,19.66-168.46,39.47-45.85,25.68-116.33,74.29-181.12,164.72-16.83,2.79-48.61,10.59-76.21,36.24-2.18,2.03-10.67,10.05-18.9,21.8-7.54,10.77-31.7,48.72-28.48,148.07,1.02,31.2,4.9,74.65,17.74,125.73-.36,85.9-.72,171.8-1.09,257.7-5.33,16.03-12.66,40.3-18.79,70.41-11.35,55.65-11.97,98.59-12.37,120.9-1.23,68.12-4.53,162.62-8.6,281.6-1.85,6.67-4.28,17.12-5.37,30.11-2.21,25.83,2.83,38.34,4.83,70.37,1.16,18.57.58,32.25,0,45.71-1.34,31.56-2.03,47.85-7.8,69.18-4.24,15.71-7.58,20.64-8.45,34.28-1.05,16.03,2.25,29.42,5.22,38.27-.83,8.81-1.12,24.45,5.37,42.04,5.95,16.11,14.69,26.19,18.83,30.91,29.53,33.99,79.15,41.97,90.29,43.53,17.38,45.45,30.22,85.03,39.5,116.08,11.35,37.98,22.27,74.94,31.41,124.97,2.32,12.66,5.62,32.18,12.12,89.45,4.43,39.39,9.94,92.83,15.02,157.21-10.08,63.88-12.48,118.44-12.33,159.61.22,83.47,10.92,147.09,18.25,189.68,5.08,29.31,10.99,57.86,32.25,141.62,14.76,58.11,35.4,136.97,62.07,231.36,2.36,8.09,2.72,14.87,2.65,19.33-.18,10.16-2.72,13.89-3.45,14.91-2.25,3.16-5.15,4.93-7.04,5.84-13.39,4.1-27.17,8.63-41.32,13.64-16.76,5.95-32.72,12.08-47.85,18.28-2.68,0-7.15.44-11.28,3.23-9,6.09-9.11,18.5-9.14,23.11-.15,17.16,11.75,29.13,15.05,32.25,4.83,2.21,12.08,5.62,20.79,9.94,17.78,8.71,18.43,9.65,48.03,24.99,18.83,9.76,21.4,10.85,27.39,15.05,5.88,4.1,9.36,7.22,16.69,11.21,1.56.87,8.89,4.82,19.33,8.13,7.84,2.47,13.17,3.23,53,5.51,15.49.91,26.77,1.42,37.87-4.82,1.49-.83,3.27-1.85,5.33-3.66,2.32-2.03,11.28-10.63,10.99-33.7-.18-16.69-5.04-27.64-8.85-39.1-4.53-13.6-9.5-33.48-10.48-59.64,1.6-4.75,3.66-12.12,4.28-21.26,1.63-23.22-7.29-37.98-13.42-58.55-3.3-11.06-4.43-25.57-6.71-54.56-3.23-41.03-5.95-130.77-5.91-248.55,4.75-13.53,11.1-34.57,14.51-60.87,5.66-43.71.29-78.86-6.46-120.9-6.42-40.05-10.23-43.82-17.19-91.48-2.9-19.81-5.8-43.71-4.28-74.18.65-13.46,2.03-24.7,3.19-32.76,3.77-7.94,8.89-19.7,13.46-34.42,11.64-37.4,12.48-69.97,11.28-103.17-2.07-57.17-8.34-63.37-12.37-117.17-5.04-67.47.18-119.31,2.14-136.5,3.66-32.03,11.03-75.42,26.88-125.73,3.08-11.25,6.78-27.06,9.14-46.21,2.03-16.72,4.9-40.08,1.09-65.58-2.43-16.14-9.72-47.74-36.57-82.2,17.23-13.31,40.99-12.95,56.44,0,17.63,14.73,20.79,42.77,5.37,62.57-.07,7.98.07,19.37,1.09,33.08,2.39,33.7,8.23,57.79,15.56,88.11,14.15,58.62,21.22,87.93,22.56,94.6,4.17,20.17,8.2,43.49,14,95.11,5.19,46.32,11.72,114.3,16.36,201.8-.04,10.77.62,22.71,2.43,35.48,5.3,37.11,18.32,66.6,29.82,87.06-2.61,50.75-6.93,91.74-10.48,120.11-3.12,25.25-8.41,62.72-12.08,115.24-2.68,38.42-2.29,53.32.8,70.16,6.24,33.92,20.57,59.67,31.45,75.78-1.27,46-1.63,93.84-.8,143.47.76,45.05,2.43,88.62,4.82,130.59-.14,2.65-.47,6.57-1.2,11.28-1.99,12.55-5.33,19.73-8.27,28.22-4.35,12.62-8.56,24.85-7.47,38.41.54,6.2,2.47,16.32,10.23,28.22,1.6,17.45-.58,30.83-2.97,40.05-3.16,12.22-7.18,18.64-12.48,40.05-1.81,7.36-3.05,13.46-3.63,20.93-.69,9.14-1.2,16.98,2.03,26.23,1.49,4.32,4.28,12.12,12.08,18.14,9.25,7.15,19.59,7.11,22.96,6.96,10.66.58,26.23.87,45.16-.94,5.73-.54,10.66-.91,15.71-2,23.51-5.11,39.83-18.28,48.75-27.02,2.39-2.72,6.46-6.96,12.37-10.88,12.22-8.13,20.13-6.89,27.68-12.88,4.68-3.74,10.23-11.03,11.57-27.02,1.85-2.14,4.64-5.91,6.02-11.28,2.83-10.81-2.14-19.91-4.03-23.36-6.31-11.61-16.94-16.32-20.53-17.74-7.44-6.31-16.54-13.17-27.42-19.77-9.5-5.77-18.54-10.23-26.59-13.68-.44-14.11-.44-35.04,2.14-60.22,4.13-40.48,12.62-70.01,15.6-80.6,8.31-29.67,17.52-79.26,35.98-178.4,8.45-45.45,22.74-122.17,25.79-210.68,2-57.64-.11-140.38-19.95-240.5,4.68-76.14,11.35-141.73,17.81-194.25,6.42-52.31,14.98-121.05,33.84-210.65,4.24-20.06,8.02-36.67,10.74-48.25,23.36-12.81,40.99-25.97,53.22-36.13,23.07-19.19,29.89-30.25,33.59-40.3,1.92-5.19.87-4.28,4.86-21.26,6.57-28.04,10.08-33.26,12.08-46.32,1.52-10.01,2.14-24.41-2.43-42.73-3.92-15.09-7.51-32.79-9.65-52.82-2.29-21.15-2.43-40.19-1.63-56.41.36-3.88,1.09-9.65,2.83-16.54,1.74-6.89,3.55-11.21,4.42-13.71,2.32-6.67,3.67-17.27-1.6-33.84,4.57-58.33,9.18-118.44,15.02-196.83,4.21-55.97,7.51-103.75-1.6-167.12Zm-698.61-53.61c-9.14,18.21-17.23,36.93-26.19,55.21-11.35,23.03-24.09,57.86-28.22,107.63-25.46,83.32-50.89,166.68-76.32,250.04.29-19.12,1.49-47.01,5.77-80.35,1.49-11.5,5.69-41.86,25.39-118.91,19.7-76.9,29.53-115.35,43.13-156.38,6.67-20.13,11.03-31.7,13.71-50.93,4.03-28.95-.11-43.67.54-90.54.18-13.46.65-21,1.89-43.82,2.47-45.67,6.2-119.45,11.28-221.38,10.99,70.37,22.02,140.78,33.05,211.19,3.05,17.23,6.67,36.42,10.88,57.24,2.79,13.82,3.41,16.21,3.63,21.33.94,22.27-7.91,38.52-18.54,59.67Zm594.11,424.41c-3.12,19.23-8.16,31.23-11.61,42.01-4.35,13.64-8.81,33.52-8.56,60.11-24.99-36.46-72.51-117.49-69.32-224.65.98-32.9,6.57-61.88,13.42-85.97.62-19.33-.07-41.03-3.23-64.5-8.81-66.16-32.97-117.89-53.18-152.1-1.67-3.41-3.3-7.44-4.57-12.08-3.37-12.12-2.83-22.78-1.78-29.93,4.35-34.53,8.71-69.07,13.06-103.6-3.85-27.64-6.42-73.71,9.69-126.56,9.14-30.07,21.8-54.09,33.05-71.75,1.85,29.67,5.04,53.65,7.55,69.97,3.45,22.27,8.78,47.37,19.3,96.6,8.27,38.67,7.33,32.68,8.6,39.79,2,11.06,12.41,69.07,10.77,109.62-.18,4.39-.87,17.52,1.6,34.93,1.12,7.84,2.43,13.57,2.97,15.85,6.02,26.41,10.16,53.21,15.31,79.8,9.9,51.11,13.28,118.91,16.11,175.71,1.52,30.11,3.01,70.81,3.23,119.31-.11,6.49-.58,16.03-2.39,27.42Z"/>
        <path class="cls-1" d="m1367.98,2177.39c16.3-12.52,32.59-25.04,48.89-37.56.2-2.74.79-6.68,2.57-11.07,2.02-4.98,4.75-8.53,6.7-10.7-1.63-1.36-4.45-4.1-6.18-8.46-3.03-7.66-.42-14.58.27-16.26-1.02.03-2.72-.08-4.37-1.07-2.82-1.71-4.32-5.29-3.92-9.16-1.17-5.42-3.13-13.66-6.28-23.48-6.12-19.1-11.57-28.14-15.99-39.82-4.12-10.87-8.56-27.21-8.54-49.53-3.45,10.09-6.94,20.21-10.48,30.36-2.62,7.51-5.24,15-7.87,22.45,2.82,23.24,4.96,48.54,5.91,75.65.99,28.17.58,54.49-.72,78.65Z"/>
        <path class="cls-1" d="m634.24,1927.64c-4.66,26.35-12.77,44.92-19.45,57.14-8.8,16.11-15.41,21.76-17.2,36.54-1.39,11.49,1.08,20.74-5.37,29.02-4.27,5.48-10.41,7.92-15.05,9.14,5.42,3.1,7.36,9.45,5.11,13.97-1.63,3.27-5.33,5.33-9.4,5.37,9.68.07,17.57,7.45,18.27,16.39.62,7.86-4.42,15.5-12.36,18.27,3.94,6.92,9.9,15.57,18.81,23.91,17.98,16.84,37.78,22.92,48.2,25.29-5.25-20.43-10.03-43.87-13.23-69.96-3.5-28.51-4.43-54.47-4.02-77.09,1.9-29.33,3.8-58.67,5.7-88Z"/>
        <path class="cls-3" d="m759.08,737.21c22.91,39.93,46.62,88.92,66.1,146.71,10.16,30.13,17.86,58.77,23.72,85.37,3.02,12.63,7.47,39.18-2.63,69.42-2.02,6.06-7.07,20.75-18.67,35.04-28.21,34.76-72.38,39.12-83.83,39.9,1.65,29.71,4.68,61.82,9.67,95.93,6.18,42.22,14.39,80.77,23.38,115.27,62.32-11.31,137.07-20.2,221.68-20.96,94.63-.85,177.49,8.7,245.06,20.96,6.59-38.49,13.83-77.73,21.76-117.69,5.98-30.09,12.17-59.65,18.54-88.67-16.82,1.15-43.44,0-68.52-15.32-45.63-27.85-67.53-91.17-53.2-158.27,7.09-26.57,14.13-53.31,21.1-80.24,10.65-41.14,20.98-81.98,30.99-122.52-16.77-5.71-33.55-11.43-50.32-17.14-3.74,14.24-7.9,29.77-12.47,46.43-4.4,16.01-8.12,29.2-10.78,38.53,0,0-1.34,4.72-2.7,9.46-4.96,17.27-19.51,65.31-39.5,129.78-15.8,46.3-61.09,75.59-108.02,70.94-42.94-4.26-79.3-36.15-89.88-79.4-9.7-35.61-22.7-75.34-40.31-117.69-16.03-38.56-33.17-72.8-49.91-102.64-17.09,5.6-34.17,11.19-51.26,16.79Z"/>
        <path class="cls-3" d="m718.62,1623.23c-8.98,23.68-20.89,56.4-33.7,95.81-14.73,45.32-27.68,85.47-37.89,132.2-8.8,40.28-17.92,97.21-18.54,168.07,24.09,12.53,59.16,28.53,103.45,41.25,42.39,12.17,76.39,21.92,120.38,18.27,23.5-1.95,67.42-9.19,116.57-41.2,2.05-1.27,5.16-2.9,9.18-3.94,17.06-4.42,32.08,6.55,36.01,9.67,4.36,3.48,10.06,8.02,12.63,16.39,3.17,10.34-.63,19.36-1.88,22.03,12.76,6.77,31.55,15.23,55.35,20.69,11.4,2.62,51.68,10.91,117.69-3.76,72.5-16.11,129.15-49.5,166.6-76.85-12.56-42.69-24.53-87.86-35.47-135.43-16.98-73.81-29.28-143.82-38.12-209.08-2.6-2.62-7.37-7.14-14.01-11.79-.85-.59-16.89-11.64-37.62-16.66-39.53-9.58-171.82-17.89-230.55-25.26-57.69-7.23-148.31-26.58-204.21-27.94-11.56-.28-35.19-.11-60.73,11.82-11.48,5.36-19.96,11.53-25.15,15.7Z"/>
        <path class="cls-8" d="m716.5,1704.32c20.21-12.62,43.46-20.47,67.35-23.17,5.98-.67,12-.91,18.02-.91,6.02.02,11.98.38,17.96.69,11.94.74,23.83,2.04,35.68,3.49,47.37,5.93,93.94,16.78,140.97,21.58,23.47,2.51,47.04,2.87,70.41-.3,11.7-1.47,23.48-3.55,35.51-4.6,12.02-1.12,24.18-1.03,36.16.16,23.93,2.6,47.4,7.79,70.12,15.29,22.64,7.68,44.59,17.34,65.19,29.29-21.36-10.5-43.45-19.44-66.24-25.93-22.68-6.75-46.08-11.26-69.53-13.14-11.73-.78-23.45-.6-35.12.52-11.68,1.12-23.34,3.28-35.24,4.9-11.88,1.65-23.95,2.57-35.99,2.68-12.06.23-24.06-.67-36.01-1.72-23.86-2.59-47.33-6.88-70.76-11.09-23.41-4.3-46.81-8.46-70.23-12.18-11.72-1.76-23.47-3.38-35.26-4.43-5.89-.46-11.8-.98-17.68-1.17-5.88-.18-11.77-.06-17.64.36-23.53,1.48-46.67,8.47-67.66,19.68Z"/>
        <path class="cls-8" d="m1002.9,1640.97c-3.43,29.7-6.38,59.39-8.87,89.1-2.38,29.72-4.25,59.46-5.3,89.23-1.18,29.77-1.52,59.56-1.34,89.37.28,29.81,1.01,59.63,2.21,89.51-3.97-29.63-6.59-59.47-7.81-89.37-1.32-29.9-1.29-59.86-.23-89.78,2.34-59.81,8.95-119.54,21.35-178.05Z"/>
        <path class="cls-5" d="m707.76,751.98c1.92-19.6,5.48-50.11,12.36-87.06,14.04-75.41,26.63-95.79,42.99-173.58,14.9-70.83,7.09-66.48,20.96-120.11,14.4-55.7,25.58-97.11,59.11-137.84,18.73-22.75,47.69-57.92,96.73-65.56,40.92-6.38,74.44,9.73,88.67,17.73,17.53,1.04,31.38,5.37,41.92,10.21,80.45,36.91,85.73,157.13,85.99,165.52,3.35,13.9,8.09,35.55,11.82,62.34,10.57,75.84-1.48,88.06,9.67,142.95,6.78,33.32,15.01,46.89,20.32,69.92,3.46,15.01,3.98,25.32,4.4,30.03,2.13,23.91.64,43.94-1.21,57.98-8.18-3.38-16.77-7.68-25.46-13.16-42.66-26.94-63.09-67.09-72.35-90.23,1.29,11.74,4.46,27.73,12.46,45.12,14.25,30.94,36.01,49.28,47.97,57.93-15-4.53-34.64-12.43-54.79-26.67-9.39-6.64-17.27-13.5-23.78-19.95,1.33,7.68,4.06,18.46,10.08,30.23,6.51,12.72,14.37,21.73,20.15,27.41-18.36-13.88-41.73-34.74-63.28-64.49-13.96-19.27-23.91-37.78-31.04-53.61,1.02,7.85,3.06,17.89,7.26,29.02,4.19,11.13,9.29,20.03,13.7,26.6-8.83-8.74-18.57-19.55-28.21-32.65-9.2-12.49-16.37-24.44-21.96-35.05-9.33,2.11-18.66,4.22-27.99,6.32-27.63,30.78-54.07,51.39-73.38,64.6-24.5,16.75-45.93,27.46-77.79,43.13-27.69,13.62-51.08,23.83-67.31,30.63-6.84-.31-14.49-.26-22.77.4-5.43.44-10.53,1.09-15.25,1.88Z"/>
        <path class="cls-1" d="m743.77,1113.66c-3.11-18.01-7.29-37.32-12.9-57.64-10.36-37.54-23.3-70.15-36.27-97.54,13.9,28.53,27.61,59.17,40.71,91.9,7.14,17.84,13.7,35.32,19.75,52.4,3.56.67,7.52,1.14,11.82,1.21,17.4.29,31.16-6,39.13-10.62-8.7,5.52-21.17,12.04-37.13,16.24-9.36,2.46-17.89,3.6-25.11,4.06Z"/>
        <path class="cls-1" d="m1283.86,1118.49c12.84-35.1,24.42-75.84,31.84-121.72,2.24-13.86,3.96-27.31,5.24-40.31-6.27,32.93-15.67,69.54-29.83,108.42-5.84,16.03-12.01,31.15-18.34,45.34-4.93.73-11.57,1.32-19.35.81-33.49-2.2-55.93-22.68-56.33-22.05-.37.58,17.92,18.66,47.82,26.4,15.6,4.04,29.33,3.96,38.95,3.11Z"/>
        <path class="cls-1" d="m704.27,2114.84c14.16.62,28.29.91,42.4.53,14.11-.38,28.19-1.21,42.19-2.89,14.03-1.43,27.96-3.7,41.8-6.42,13.85-2.7,27.58-6.07,41.27-9.76-6.6,2.59-13.34,4.8-20.11,6.95-6.8,2.03-13.66,3.86-20.57,5.54-13.82,3.31-27.88,5.57-41.99,7.3-14.15,1.39-28.36,2.28-42.57,2.06-14.21-.2-28.4-1.2-42.42-3.31Z"/>
        <path class="cls-1" d="m1069.97,2139.56c13.41,2.85,26.85,5.34,40.37,7.17,13.52,1.81,27.09,3.2,40.72,3.67,13.61.78,27.25.63,40.88.07,6.82-.26,13.63-.72,20.44-1.33,6.82-.49,13.61-1.29,20.43-2.05-6.68,1.57-13.44,2.72-20.22,3.82-6.79.98-13.62,1.74-20.47,2.35-13.7,1.15-27.48,1.27-41.22.76-13.73-.77-27.45-2.13-40.98-4.54-13.53-2.42-26.92-5.62-39.94-9.91Z"/>
        <path class="cls-1" d="m786.76,2700.07c5.91-.55,11.84-.72,17.78-.85,5.94-.02,11.88.15,17.81.46,11.88.61,23.7,2.18,35.4,4.31,11.69,2.2,23.26,5.1,34.57,8.76,5.64,1.88,11.25,3.83,16.79,5.98,5.49,2.26,10.97,4.53,16.3,7.15-11.24-3.77-22.49-7.36-33.88-10.45-11.4-3-22.85-5.77-34.44-7.87-11.57-2.2-23.23-3.84-34.96-5.11-11.73-1.24-23.52-1.91-35.37-2.37Z"/>
        <path class="cls-1" d="m1143.59,2715.39c4.89-3.62,10.07-6.84,15.34-9.91,5.32-2.98,10.81-5.68,16.4-8.15,11.19-4.94,22.97-8.56,34.96-11.02,12.01-2.43,24.27-3.65,36.5-3.48,12.23.14,24.43,1.51,36.26,4.35-6.05-.64-12.08-1.25-18.12-1.43-6.04-.31-12.08-.38-18.1-.13-12.04.49-24.04,1.78-35.81,4.24-11.8,2.33-23.36,5.78-34.63,10.04-11.27,4.28-22.17,9.57-32.79,15.49Z"/>
        <path class="cls-1" d="m865.49,3452.23c.62,4.19.87,8.39,1,12.59.2,4.21,0,8.4-.28,12.59-.68,8.37-1.91,16.71-4.49,24.79-.27-8.47.3-16.76.87-25.06.75-8.29,1.14-16.58,2.89-24.91Z"/>
        <path class="cls-1" d="m1240.33,3464.26c1.5,5.36,1.89,10.73,2.01,16.1.01,5.37-.24,10.75-1.61,16.14-1.51-5.36-1.89-10.73-2.01-16.1,0-5.37.25-10.75,1.61-16.14Z"/>
        <path class="cls-1" d="m1136.34,3098.28c8.55-5.68,15.81-12.64,20.99-21.05,5.25-8.37,8.3-17.94,9.64-28.12.77,5.09.56,10.39-.62,15.5-1.11,5.13-3.2,10.04-5.95,14.54-2.83,4.45-6.32,8.49-10.44,11.74-4.06,3.31-8.73,5.83-13.63,7.39Z"/>
        <path class="cls-1" d="m958.19,3107.15c-4.21-.47-8.36-2.08-11.94-4.59-3.58-2.51-6.58-5.9-8.7-9.77-2.08-3.88-3.36-8.14-3.8-12.44-.42-4.29-.18-8.64,1.06-12.71.55,8.39,2.12,16.46,5.92,23.41,1.84,3.49,4.36,6.56,7.27,9.29,2.96,2.68,6.42,4.88,10.19,6.8Z"/>
        <path class="cls-2" d="m652.27,2207.54c-13.81-2.34-27.14-7.5-39.37-14.46-12.18-7.03-23.39-15.9-32.38-26.65,10.98,8.67,22.19,16.69,34.18,23.51,11.93,6.91,24.54,12.51,37.56,17.6Z"/>
        <path class="cls-2" d="m645.42,2189.4c-4.07-1.14-8.04-2.56-12.04-3.96-3.95-1.5-7.85-3.11-11.74-4.79-7.76-3.37-15.28-7.32-22.52-11.76-7.18-4.5-14.24-9.4-20.22-15.59-5.98-6.16-10.82-13.34-14.1-21.13,2.33,3.52,4.72,6.97,7.45,10.13,2.63,3.23,5.48,6.26,8.58,8.99,6.18,5.48,13.08,10.16,20.19,14.52,7.07,4.43,14.42,8.41,21.82,12.34,7.42,3.89,14.99,7.53,22.57,11.25Z"/>
        <path class="cls-2" d="m1368.5,2210.76c8.96-6.77,17.96-13.17,26.69-19.98,8.8-6.72,17.27-13.8,26.11-20.73-6.8,8.96-15.04,16.71-23.9,23.6-8.92,6.81-18.51,12.81-28.9,17.11Z"/>
        <path class="cls-2" d="m1362.05,2242.61c1.59-18.28,3.01-36.55,3.92-54.85.88-18.29,1.57-36.59,1.45-54.89.21-18.3-.32-36.61-1.11-54.9-.36-9.15-.88-18.3-1.53-27.44-.52-9.15-1.31-18.28-1.99-27.44,2.93,18.12,4.97,36.39,6.31,54.71,1.37,18.32,1.87,36.7,1.95,55.08-.19,18.37-.82,36.75-2.31,55.06-1.49,18.31-3.61,36.57-6.69,54.66Z"/>
        <path class="cls-2" d="m663.96,2220.03c-6.86-16-12.58-32.49-17.45-49.23-4.9-16.74-8.61-33.81-11.78-50.96-2.82-17.22-5-34.55-6.05-51.95-.49-8.7-.79-17.42-.87-26.13.04-8.71.16-17.42.72-26.11.26,8.7.5,17.39,1.06,26.06.44,8.67,1.05,17.33,1.87,25.97,1.62,17.27,3.75,34.49,6.84,51.55,2.85,17.1,6.58,34.04,10.89,50.85,4.29,16.81,9.32,33.44,14.77,49.97Z"/>
        <path class="cls-1" d="m1376.59,1483.42c1.22-6.63,4.34-13.01,8.89-18.27,4.49-5.34,10.66-9.3,17.32-11.57,6.72-2.1,14.03-2.53,20.81-.87,6.78,1.57,13.05,4.88,17.95,9.52-5.95-3.11-12.3-5-18.61-5.86-6.34-.8-12.7-.19-18.67,1.74-5.96,1.96-11.47,5.22-16.12,9.6-4.6,4.41-8.6,9.68-11.57,15.71Z"/>
        <path class="cls-1" d="m625.94,1456.67c3.48-4.78,8.46-8.69,14.28-10.72,5.79-2.18,12.33-2.15,18.24-.74,5.84,1.52,11.53,3.48,16.75,6.61,5.2,3.05,9.78,7.05,13.49,11.66-4.7-3.6-9.66-6.66-14.83-9.16-5.14-2.45-10.71-4.2-16.24-5.58-5.48-1.36-11.13-1.54-16.58-.1-5.43,1.42-10.6,4.21-15.11,8.03Z"/>
        <path class="cls-1" d="m1014.62,1332.11c.21,21.98.02,43.96-.22,65.93-.24,21.97-.8,43.94-1.19,65.91-.68,21.96-1.2,43.93-2.03,65.89l-1.31,32.94c-.57,10.98-1.01,21.95-1.7,32.93-.14-10.99-.05-21.98-.08-32.97l.3-32.96c.25-21.97.8-43.94,1.2-65.91.69-21.96,1.2-43.93,2.04-65.89.83-21.96,1.72-43.92,3-65.86Z"/>
        <path class="cls-2" d="m1381.13,1970.28c.15,5,.38,9.96,1.06,14.87.56,4.92,1.41,9.79,2.6,14.57,2.28,9.6,5.95,18.68,10.22,27.67,4.2,9.07,7.94,18.46,10.76,28.07,1.42,4.81,2.71,9.65,3.85,14.52,1.02,4.9,2.03,9.8,2.68,14.76-1.46-4.78-2.8-9.58-4.4-14.29-1.47-4.75-3.05-9.46-4.78-14.11-3.42-9.32-7.16-18.45-11.41-27.44-4.2-9.04-7.96-18.62-9.64-28.6-1.82-9.93-2.21-20.1-.95-30.02Z"/>
        <path class="cls-2" d="m1373.74,2174.09c3.29-3.24,6.65-6.39,10.09-9.44,3.43-3.06,6.92-6.05,10.45-8.99,7.07-5.86,14.24-11.59,21.62-17.06l-.59,1.12c.8-8.36,4.78-16.28,10.84-21.65-4.75,6.53-7.41,14.19-7.7,21.87l-.02.64-.57.48c-7,5.95-14.2,11.64-21.51,17.2-3.66,2.78-7.36,5.49-11.12,8.14-3.75,2.66-7.58,5.22-11.48,7.69Z"/>
        <path class="cls-2" d="m1374.14,2135.8c3.99-6.11,7.28-12.19,9.37-18.79,2.16-6.57,3.08-13.43,3.53-20.71,2.43,6.93,2.17,14.74-.08,21.83-2.33,7.07-6.74,13.55-12.82,17.67Z"/>
        <path class="cls-6" d="m745.78,749.7c22.73-13.92,56.93-38.63,88.27-78.86,31.85-40.88,47.49-80.76,55.35-106.41-1.87,23.93-7.29,55.22-21.9,88.94-5.42,12.52-11.37,23.66-17.33,33.45,13.92-6.71,28.98-14.96,44.61-25.12,27.86-18.12,49.96-37.43,66.96-54.65,10.17-.68,20.34-1.35,30.51-2.03-9.33,2.11-18.66,4.22-27.99,6.32-9.47,10.3-28.56,30.34-51.19,48.24-7.52,5.95-14.94,11.39-22.19,16.36-6.21,4.13-14.73,9.62-25.09,15.72-10.53,6.2-20.89,11.81-34.29,18.54-34.16,17.15-73.57,34.26-85.72,39.5Z"/>
        <path class="cls-8" d="m806.99,1293.28c33.7-8.71,68.05-15.15,102.72-19.05,34.66-4.02,69.61-5.69,104.52-5.17,17.45.34,34.9,1.12,52.3,2.47,17.39,1.49,34.75,3.33,52.01,5.93,34.53,4.99,68.68,12.45,102.09,22.21-34.08-7.05-68.38-12.61-102.81-16.65-34.45-3.97-69.05-6.33-103.69-6.78-34.64-.66-69.3.69-103.85,3.55-34.55,2.94-68.99,7.5-103.28,13.49Z"/>
      </g>
      <rect class="cls-7" width="2077.32" height="3801.64"/>
    </g>
  </g>
</svg>