<?xml version="1.0" encoding="UTF-8"?>
<svg id="Layer_2" data-name="Layer 2" xmlns="http://www.w3.org/2000/svg" xmlns:xlink="http://www.w3.org/1999/xlink" viewBox="0 0 2061.08 3801.64">
  <defs>
    <style>
      .cls-1 {
        fill: #333;
      }

      .cls-2 {
        clip-path: url(#clippath);
      }

      .cls-3 {
        fill: none;
      }

      .cls-4 {
        fill: #12081a;
        opacity: .45;
      }

      .cls-5 {
        fill: #1a1a1a;
      }

      .cls-6 {
        fill: url(#linear-gradient);
      }
    </style>
    <clipPath id="clippath">
      <rect class="cls-3" width="2061.08" height="3801.64"/>
    </clipPath>
    <linearGradient id="linear-gradient" x1="1044.38" y1="3059.76" x2="1044.38" y2="1977.65" gradientUnits="userSpaceOnUse">
      <stop offset="0" stop-color="#1a1a1a"/>
      <stop offset=".48" stop-color="#171717"/>
      <stop offset=".76" stop-color="#0f0f0f"/>
      <stop offset=".98" stop-color="#010101"/>
      <stop offset="1" stop-color="#000"/>
    </linearGradient>
  </defs>
  <g id="Layer_1-2" data-name="Layer 1">
    <g class="cls-2">
      <g>
        <path d="m73.69,2902.1c64.54-459.33,64.85-825.04,52.63-1076.82-8.56-176.46-26.74-368.4,5.26-650.16,42-369.8,130.71-544.54,205.25-655.24,0,0,135.98-201.96,344.71-299.68,118.68-55.56,192.15-45.17,223.67-38.1,39.84,8.94,70.14,25.5,89.47,38.1,20.14-12.49,53.43-30.34,97.36-40.64,262.41-61.48,515.71,237.96,528.91,253.97,79.86,96.85,117.39,191.96,149.99,292.06,116.94,359.07,128.27,652.79,152.62,1040,9.36,148.84,24.46,372.15,47.36,647.62,14.38,78.8,39.75,173.78,85.54,276.13,90.6,202.5,219.24,340.15,309.16,421.02-419.02,50.19-965.49,68.32-1586.72-38.1-260.15-44.57-495.91-104.55-705.21-170.16Z"/>
        <path class="cls-1" d="m-798.82,5388.45c-18.52-58.03-43.78-144.69-65.7-251.48-48.88-238.17-54.1-416.29-45.31-659.3,19.03-526.06,80.83-1045.65,104.98-1238.57,7.44-48.94,27.61-133.64,89.86-215.96,124.27-164.33,316.04-186.69,353.44-190.31,230.83-29.32,461.66-58.65,692.48-87.97,495.68,11.58,991.36,23.15,1487.04,34.73,185.78,63.06,371.56,126.12,557.34,189.18,48.15,10.49,123.85,33.93,199.37,90.62,138.65,104.09,181.3,248.67,193.39,297.42,58.7,231.33,117.3,570.81,92.08,980.39-23,373.57-107.91,678.45-185.48,892.1-143.59,74.19-287.18,148.39-430.77,222.58-11.54,98.41-19.02,209.36-18.12,330.78,1.12,152.17,15.13,288.56,33.98,405.55-344.04,52.03-728.82,92.5-1148.67,108.75-465.21,18.01-890.68,3.07-1267.7-28.58-19.23-232.89-38.46-465.79-57.69-698.68-194.84-60.42-389.69-120.83-584.53-181.25Z"/>
        <path class="cls-4" d="m2065.39,4771.91c30.3-168.61,54.03-363.78,60.33-580.99,8.65-298.44-17.85-560.59-54.38-774.84-.91,184.49-4.18,373.25-10.16,566.09-5.77,186.12-13.81,368.28-23.82,546.33,9.34,81.14,18.69,162.28,28.03,243.41Z"/>
        <path class="cls-6" d="m623.59,2107.18c-.83,99.46-1.65,198.93-2.48,298.39-4.36,58.51-20.79,102.76-36.25,133.36-98.71,195.36-352.94,220.31-380.86,222.63,106.05,82,362.43,256.94,733.97,292.06,490.16,46.34,846.86-182.24,946.79-251.36-71.94-26.54-166.13-73.69-252.28-158.57-32.06-31.58-81.38-81.03-119.05-160.95-37.5-79.56-47.1-152.65-49.21-200.32-.43-101.59-.85-203.17-1.27-304.76-279.79,43.17-559.57,86.35-839.36,129.52Z"/>
        <path class="cls-5" d="m473.78,1718.6c4.23,45.57,9.77,84.57,14.92,115.56,10.62,63.91,20.74,98.44,33.33,131.43,7.86,20.58,31.72,76.9,144.76,180.95,53.15,48.92,130.37,112.4,233.89,174.62,21.68,12.82,70.87,37.96,138.17,38.72,73.02.82,126.09-27.52,147.54-40.58,99.07-72.55,180.19-138.67,242.3-191.81,93.46-79.96,125.7-114.98,148.57-167.62,24.93-57.39,36.39-130.32,40-153.33,6.46-41.12,8.72-75.96,9.52-100.95,11.74.73,32.1.2,53.33-10.48,49.16-24.7,58.13-81.17,59.05-87.62,34.75-54.42,55.88-102.28,68.57-135.24,51.96-134.97,53.69-257.25,21.45-290.13-12.69-12.94-27.13-14.42-27.13-14.42-3.17-.38-16.37-1.55-33.74,10.18-36.21,24.46-50.42,77.93-79.62,140.08-7.49,15.95-19.41,39.76-36.51,67.94-2.09-26.77-5.43-67.39-10.16-116.83-3.13-32.8-14.21-148.64-20.32-185.4-22.56-135.73-157.36-275.5-297.14-337.78-150.58-67.09-268.19-27-350.48-132.06-22.79-29.1-34.4-58.51-40.64-78.73-7.06,23.9-21.03,59.43-50.79,91.43-74.11,79.67-169.53,54.99-282.21,129.39-50.31,33.21-79.17,69.74-103.18,100.13-119.97,151.83-116.42,341.75-110.49,418.78-1.05-13.94-5.12-37.98-21.89-60.68-8.4-11.37-21.61-29.25-43.81-33.33,0,0-25.37-4.67-50.48,14.29-36.44,27.51-34.22,110.09,1.9,204.76,42.3,79.68,64.07,134.94,76.19,171.43,11.53,34.7,32.52,66.72,38.1,102.86,1.37,8.86,4.24,31.01,20.95,47.62,4.45,4.42,15.22,15.12,31.43,15.24,20.12.14,32.88-16.14,34.6-18.41Z"/>
      </g>
    </g>
  </g>
</svg>