<?xml version="1.0" encoding="UTF-8"?>
<svg id="Layer_2" data-name="Layer 2" xmlns="http://www.w3.org/2000/svg" xmlns:xlink="http://www.w3.org/1999/xlink" viewBox="0 0 2061.08 3801.64">
  <defs>
    <style>
      .cls-1 {
        fill: #a5a4a4;
        opacity: .45;
      }

      .cls-2 {
        fill: #b4b4b4;
      }

      .cls-3 {
        fill: #ffd7ae;
      }

      .cls-4 {
        fill: #929292;
      }

      .cls-5 {
        clip-path: url(#clippath);
      }

      .cls-6 {
        fill: none;
      }

      .cls-7 {
        fill: url(#linear-gradient);
      }
    </style>
    <clipPath id="clippath">
      <rect class="cls-6" width="2061.08" height="3801.64"/>
    </clipPath>
    <linearGradient id="linear-gradient" x1="1040.88" y1="3106.54" x2="1040.88" y2="2003.23" gradientUnits="userSpaceOnUse">
      <stop offset="0" stop-color="#ffd7ae"/>
      <stop offset=".45" stop-color="#fcd5ad"/>
      <stop offset=".71" stop-color="#f4d0ab"/>
      <stop offset=".92" stop-color="#e6c8a9"/>
      <stop offset="1" stop-color="#dfc4a8"/>
    </linearGradient>
  </defs>
  <g id="Layer_1-2" data-name="Layer 1">
    <g class="cls-5">
      <g>
        <path class="cls-4" d="m70.19,2945.79c64.74-468.33,65.04-841.2,52.79-1097.92-8.59-179.92-26.82-375.61,5.28-662.9,42.13-377.04,131.1-555.2,205.86-668.07,0,0,136.39-205.91,345.74-305.55,119.03-56.65,192.72-46.06,224.34-38.84,39.96,9.12,70.35,26,89.74,38.84,20.2-12.73,53.6-30.94,97.65-41.43,263.2-62.69,517.26,242.63,530.49,258.94,80.1,98.74,117.74,195.72,150.44,297.78,117.29,366.11,128.65,665.58,153.08,1060.37,9.39,151.75,24.53,379.44,47.51,660.31,14.43,80.34,39.87,177.19,85.8,281.54,90.87,206.46,219.9,346.82,310.09,429.26-420.28,51.18-968.39,69.66-1591.48-38.84-260.93-45.44-497.4-106.6-707.32-173.49Z"/>
        <path class="cls-2" d="m-838.43,5480.85c-18.88-59.17-44.64-147.52-66.99-256.41-49.84-242.84-55.16-424.45-46.2-672.21,19.4-536.36,82.41-1066.13,107.04-1262.83,7.59-49.9,28.15-136.26,91.62-220.19,126.7-167.55,322.23-190.35,360.36-194.04,235.35-29.9,470.7-59.8,706.05-89.7,505.39,11.8,1010.79,23.61,1516.18,35.41,189.42,64.3,378.84,128.59,568.26,192.89,49.1,10.7,126.28,34.59,203.28,92.4,141.36,106.13,184.85,253.54,197.18,303.25,59.85,235.87,119.6,581.99,93.89,999.59-23.45,380.89-110.03,691.74-189.12,909.58-146.4,75.65-292.81,151.3-439.21,226.95-11.77,100.34-19.39,213.47-18.48,337.26,1.14,155.15,15.43,294.21,34.65,413.49-350.78,53.04-743.09,94.31-1171.17,110.88-474.32,18.36-908.13,3.13-1292.54-29.14-19.6-237.46-39.21-474.91-58.82-712.37-198.66-61.6-397.32-123.2-595.98-184.8Z"/>
        <path class="cls-1" d="m2081.9,4852.23c30.9-171.91,55.09-370.91,61.51-592.37,8.82-304.29-18.2-571.57-55.44-790.02-.92,188.1-4.27,380.56-10.36,577.18-5.88,189.77-14.08,375.5-24.29,557.03,9.53,82.73,19.05,165.46,28.58,248.18Z"/>
        <path class="cls-7" d="m611.85,2135.29c-.84,101.41-1.68,202.82-2.53,304.23-4.45,59.65-21.2,104.77-36.96,135.97-100.64,199.18-359.85,224.62-388.33,226.99,108.13,83.6,369.53,261.97,748.35,297.78,499.76,47.25,863.46-185.81,965.34-256.28-73.35-27.06-169.38-75.13-257.22-161.68-32.68-32.2-82.97-82.61-121.38-164.11-38.23-81.12-48.02-155.64-50.17-204.24-.43-103.58-.87-207.15-1.3-310.73-285.27,44.02-570.54,88.04-855.81,132.06Z"/>
        <path class="cls-3" d="m459.1,1739.11c4.31,46.46,9.96,86.22,15.21,117.82,10.83,65.16,21.14,100.37,33.99,134,8.01,20.99,32.34,78.41,147.6,184.5,54.19,49.88,132.92,114.6,238.47,178.04,22.1,13.07,72.26,38.7,140.88,39.48,74.46.84,128.56-28.06,150.43-41.37,101.01-73.97,183.72-141.38,247.05-195.56,95.29-81.52,128.16-117.24,151.48-170.9,25.42-58.51,37.1-132.88,40.78-156.34,6.58-41.93,8.89-77.45,9.71-102.93,11.97.74,32.73.2,54.38-10.68,50.12-25.19,59.27-82.76,60.2-89.34,35.43-55.48,56.98-104.28,69.91-137.89,52.98-137.61,54.74-262.29,21.87-295.81-12.93-13.19-27.66-14.7-27.67-14.7-3.23-.39-16.69-1.58-34.4,10.38-36.92,24.94-51.41,79.46-81.18,142.82-7.64,16.26-19.79,40.54-37.22,69.27-2.13-27.29-5.54-68.71-10.36-119.11-3.2-33.44-14.49-151.55-20.72-189.03-23-138.39-160.44-280.89-302.96-344.39-153.53-68.41-273.44-27.53-357.34-134.65-23.23-29.67-35.07-59.66-41.43-80.27-7.2,24.36-21.44,60.6-51.79,93.22-75.57,81.24-172.85,56.07-287.74,131.93-51.29,33.86-80.72,71.11-105.2,102.09-122.32,154.8-118.7,348.45-112.66,426.98-1.07-14.22-5.22-38.72-22.32-61.87-8.57-11.6-22.03-29.82-44.67-33.99,0,0-25.87-4.76-51.47,14.57-37.15,28.05-34.89,112.25,1.94,208.77,43.13,81.24,65.32,137.59,77.68,174.79,11.75,35.38,33.16,68.03,38.84,104.87,1.39,9.04,4.32,31.62,21.36,48.55,4.53,4.51,15.52,15.42,32.04,15.54,20.52.15,33.53-16.46,35.28-18.77Z"/>
      </g>
    </g>
  </g>
</svg>