<?xml version="1.0" encoding="UTF-8"?>
<svg id="Layer_2" data-name="Layer 2" xmlns="http://www.w3.org/2000/svg" xmlns:xlink="http://www.w3.org/1999/xlink" viewBox="0 0 2061.08 3801.64">
  <defs>
    <style>
      .cls-1 {
        fill: url(#linear-gradient-2);
      }

      .cls-2 {
        fill: url(#linear-gradient-5);
      }

      .cls-3 {
        fill: none;
      }

      .cls-4 {
        opacity: .43;
      }

      .cls-5 {
        fill: #12081a;
        opacity: .45;
      }

      .cls-6 {
        fill: #2d1440;
      }

      .cls-7 {
        fill: url(#linear-gradient-3);
      }

      .cls-8 {
        fill: #1a1a1a;
      }

      .cls-9 {
        fill: url(#linear-gradient);
      }

      .cls-10 {
        fill: #021a00;
      }

      .cls-11 {
        fill: url(#linear-gradient-4);
      }
    </style>
    <linearGradient id="linear-gradient" x1="515.15" y1="3386.94" x2="665.33" y2="3386.94" gradientUnits="userSpaceOnUse">
      <stop offset="0" stop-color="#1a1a1a"/>
      <stop offset=".48" stop-color="#171717"/>
      <stop offset=".76" stop-color="#0f0f0f"/>
      <stop offset=".98" stop-color="#010101"/>
      <stop offset="1" stop-color="#000"/>
    </linearGradient>
    <linearGradient id="linear-gradient-2" x1="-7037.08" y1="3364.55" x2="-6886.91" y2="3364.55" gradientTransform="translate(-5671.35) rotate(-180) scale(1 -1)" xlink:href="#linear-gradient"/>
    <linearGradient id="linear-gradient-3" x1="1071.55" y1="810.15" x2="1071.55" y2="568.45" xlink:href="#linear-gradient"/>
    <linearGradient id="linear-gradient-4" x1="1030.48" y1="1416.81" x2="1030.48" y2="1065.24" xlink:href="#linear-gradient"/>
    <linearGradient id="linear-gradient-5" x1="1331.08" y1="1194.14" x2="1331.08" y2="1043.57" xlink:href="#linear-gradient"/>
  </defs>
  <g id="Layer_1-2" data-name="Layer 1">
    <g>
      <g>
        <path class="cls-9" d="m653.11,3296.1c-1.2-1.98-2.4-3.96-3.61-5.95-.13-17.52-.25-35.04-.38-52.56-36.4-2.89-72.8-5.77-109.2-8.66-2.02,10.9-5.09,28.62-7.89,50.59-4.36,34.28-5.69,66.05-8.73,128.15-.88,18.04-2.32,46.28-4.36,81.54-1.27,14.42-2.53,28.84-3.8,43.27,16.73,7.89,31.18,10.76,40.61,11.96,16.39,2.07,36.48-2.48,76.66-11.58,12.12-2.74,19.59-4.72,25.43-11.58,9.31-10.94,7.71-26.36,6.64-32.83-3.8-64.12-7.59-128.24-11.39-192.36Z"/>
        <path class="cls-1" d="m1227.76,3288.51c1.2-1.98,2.4-3.96,3.61-5.95.15-30.15.3-60.3.44-90.45,34.92-.13,69.83-.25,104.75-.38,4.42,23.07,8.8,50,12.27,80.2,5.01,43.66,6.47,81.9,8.73,128.15.88,18.04,2.32,46.28,4.36,81.54,1.27,14.42,2.53,28.84,3.8,43.27-16.73,7.89-31.18,10.76-40.61,11.96-16.39,2.07-36.48-2.48-76.66-11.58-12.12-2.74-19.59-4.72-25.43-11.58-9.31-10.94-7.71-26.36-6.64-32.83,3.8-64.12,7.59-128.24,11.39-192.36Z"/>
        <path d="m800.54,1572.16c-8.4,18.68-19.65,45.56-30.62,78.69-20.09,60.69-29.93,114.23-38.71,184.45-9.14,73.08-11.75,121.22-18.22,230.75-8.13,137.7-12.19,206.55-13.66,223.16-12.28,138.77-35.78,238.65-50.1,303.62-27.46,124.62-65.57,322.37-109.3,636.09,20.2,6.94,46.57,13.94,77.93,17.21,28.26,2.94,53.05,2.06,72.87,0,3.04-22.27,6.07-44.53,9.11-66.8,27.18-66.38,53.77-138.47,78.44-216.08,35.64-112.12,61.53-217.72,80.46-314.25,45.43-141.4,89.96-283.09,133.59-425.07,28.73-93.49,57.07-187.11,85.01-280.85,17.99,144.78,36.21,289.51,54.65,434.18,7.72,60.54,15.48,121.1,23.28,181.67.69,9.51,2.17,20.46,5.06,32.39,1.79,7.39,3.89,14.15,6.07,20.24-9.68,95.91-5.75,172.78-.25,225.69,6.29,60.57,15.11,94.3,28.84,195.08,9.21,67.57,14.87,123.03,18.22,159.4,4.71,4.59,34.87,33.07,79.7,29.6,33.18-2.56,54.81-21.11,61.48-27.33,16.72-169.27,28.43-349.95,32.64-540.96,2.66-120.51,2.14-236.84-.89-348.64.25-22.3,1.54-56.52,6.96-97.94,6.1-46.59,14.08-76.75,24.29-122.21,16.6-73.92,24.9-110.88,29.6-151.05,5.23-44.65,16.75-153.11-27.33-274.78-16.81-46.4-37.07-81.94-51.62-104.75-100.99,7.39-206.08,12.88-315.01,15.94-86.6,2.43-170.82,3.18-252.51,2.53Z"/>
        <path d="m841.78,774.93c15.15-102.59,15.22-184.28,12.35-240.52-2.01-39.41-6.27-82.28,1.24-145.22,9.86-82.6,30.67-121.63,48.17-146.35,0,0,31.91-45.11,80.89-66.94,27.85-12.41,45.09-10.09,52.49-8.51,9.35,2,16.46,5.7,21,8.51,4.73-2.79,12.54-6.78,22.85-9.08,61.58-13.73,121.02,53.15,124.12,56.73,18.74,21.63,27.55,42.88,35.2,65.23,27.44,80.2,30.1,145.81,35.82,232.29,2.2,33.24,5.74,83.12,11.12,144.65,3.38,17.6,9.33,38.82,20.07,61.67,21.26,45.23,51.45,75.98,72.55,94.04-98.33,11.21-226.57,15.26-372.36-8.51-61.05-9.95-116.38-23.35-165.49-38.01Z"/>
        <path class="cls-10" d="m518.87,3489.11c-3.61,12.71-7.21,25.43-10.82,38.14v53.39c-.25,4.19-.04,11.12,3.54,18.22,2.85,5.66,7.9,11.53,20.24,17.71,25.1,12.58,50.59,11.54,57.18,11.13,25.54-1.59,43.09-10.86,54.15-16.7,18.69-9.88,24-17.77,25.81-20.75,7.08-11.64,6.69-23.74,6.58-28.34-.63-25.59.22-99.15,1.01-199.38,1.11-6.54,2-17.07-1.01-29.35-4.91-20.04-17.17-32.39-22.52-37.19,4.52,100.93,7.39,174.89,7.84,193.05.06,2.45.03,7.96-2.53,14.17-1.57,3.8-7.05,14.19-27.58,22.27-13.99,5.5-26.52,6.58-59.31,5.78-13.54-.33-31.51-1.01-52.78-2.49.06-13.22.13-26.44.19-39.66Z"/>
        <path class="cls-10" d="m1362.01,3481.51c3.61,12.71,7.21,25.43,10.82,38.14v53.39c.25,4.19.04,11.12-3.54,18.22-2.85,5.66-7.9,11.53-20.24,17.71-25.1,12.58-50.59,11.54-57.18,11.13-25.54-1.59-43.09-10.86-54.15-16.7-18.69-9.88-24-17.77-25.81-20.75-7.08-11.64-6.69-23.74-6.58-28.34.63-25.59-.22-99.15-1.01-199.38-1.11-6.54-2-17.07,1.01-29.35,4.91-20.04,17.17-32.39,22.52-37.19-4.52,100.93-7.39,174.89-7.84,193.05-.06,2.45-.03,7.96,2.53,14.17,1.57,3.8,7.05,14.19,27.58,22.27,13.99,5.5,26.52,6.58,59.31,5.78,13.54-.33,31.51-1.01,52.78-2.49-.06-13.22-.13-26.44-.19-39.66Z"/>
        <path class="cls-6" d="m659.86,1330.27c-4.14-12.96-9.78-32.32-14.68-56.17-10.92-53.2-12.08-92.98-10.12-147.26,4.25-117.5,18.05-233.55,23.45-276.64,1.66-10.93,6.17-29.85,20.07-48.24,27.76-36.7,70.59-41.7,78.94-42.51,51.56-6.55,103.11-13.1,154.67-19.65,110.71,2.59,221.43,5.17,332.14,7.76,41.5,14.08,82.99,28.17,124.49,42.25,10.76,2.34,27.66,7.58,44.53,20.24,30.97,23.25,40.49,55.54,43.19,66.43,13.11,51.67,26.2,127.49,20.57,218.98-5.14,83.44-24.1,151.54-41.43,199.26-32.07,16.57-64.14,33.14-96.21,49.72-2.58,21.98-4.25,46.76-4.05,73.88.25,33.99,3.38,64.45,7.59,90.58-76.84,11.62-162.79,20.66-256.56,24.29-103.91,4.02-198.94.68-283.15-6.38-4.29-52.02-8.59-104.04-12.89-156.05-43.52-13.49-87.04-26.99-130.56-40.48Z"/>
        <path class="cls-8" d="m803.31,1526.81c-.92,15.12-1.84,30.23-2.76,45.35,84.74,8.63,182.23,13.4,289.96,9.61,103.19-3.63,196.36-14.44,277.56-28.09-8.35-14.93-16.7-29.86-25.05-44.78-93.11,14.07-199.06,24.29-315.73,25.82-80.29,1.05-155.22-2.14-223.98-7.91Z"/>
        <path class="cls-5" d="m809.06,1158.94c-4.05-86.03-8.1-172.05-12.14-258.08,10.12,93.11,20.24,186.22,30.36,279.33-6.07-7.08-12.15-14.17-18.22-21.25Z"/>
        <path class="cls-5" d="m1299.6,1192.57c6.77-37.66,12.07-81.25,13.47-129.77,1.93-66.66-3.99-125.21-12.15-173.07-.2,41.21-.93,83.37-2.27,126.44-1.29,41.57-3.08,82.26-5.32,122.03,2.09,18.12,4.17,36.25,6.26,54.37Z"/>
        <path d="m886.8,1532.34c-1.11,22.29-2.22,44.57-3.32,66.86h28.26c1.51-21.89,3.01-43.79,4.52-65.68-9.82-.39-19.64-.79-29.46-1.18Z"/>
        <path d="m1272.1,1518.51c1.15,22.87,2.3,45.74,3.45,68.61h-28.26c-1.5-21.76-3-43.53-4.49-65.29,9.77-1.11,19.54-2.21,29.31-3.32Z"/>
        <rect x="1016.09" y="1533.01" width="86.98" height="50.58" rx="13.66" ry="13.66" transform="translate(-33.34 23.2) rotate(-1.24)"/>
        <path class="cls-4" d="m1077.01,1939.94c.18-28.16.12-56.27-.21-84.36-.42-28.09-1.14-56.16-2.48-84.2-1.21-28.05-3.01-56.07-5.12-84.08-2.21-28-4.66-56.01-7.38-84.04,5.34,27.65,9.58,55.53,12.68,83.54,3.2,28,5.3,56.12,6.63,84.28,1.21,28.16,1.63,56.36.97,84.53-.57,28.17-2.28,56.32-5.1,84.34Z"/>
        <path class="cls-4" d="m1077.37,1938.38c4.82-5.32,10.38-9.88,16.31-13.87,5.93-4,12.23-7.48,18.82-10.31,6.57-2.87,13.42-5.09,20.4-6.67,6.97-1.59,14.1-2.53,21.28-2.39-6.67,2.66-13.24,5.01-19.74,7.5-6.5,2.48-12.88,5.11-19.23,7.84-6.34,2.74-12.62,5.62-18.88,8.64-6.26,3.03-12.47,6.23-18.97,9.27Z"/>
        <path class="cls-4" d="m1006.51,1895.39c7.11.96,14.02,2.98,20.67,5.61,6.65,2.64,13.09,5.86,19.15,9.69,6.08,3.8,11.79,8.19,17.04,13.05,5.25,4.85,10.06,10.2,14.01,16.2-5.96-3.99-11.62-8.09-17.34-12.04-5.72-3.96-11.5-7.73-17.34-11.42-5.84-3.68-11.77-7.23-17.8-10.68-6.04-3.45-12.19-6.76-18.38-10.4Z"/>
        <path class="cls-7" d="m977.57,597.38c-.18,22.22-.37,44.43-.55,66.65-.97,13.07-4.64,22.95-8.1,29.79-22.05,43.63-78.83,49.21-85.07,49.73,23.69,18.31,80.95,57.39,163.94,65.23,109.48,10.35,189.15-40.7,211.47-56.14-16.07-5.93-37.11-16.46-56.35-35.42-7.16-7.05-18.18-18.1-26.59-35.95-8.37-17.77-10.52-34.09-10.99-44.74-.1-22.69-.19-45.38-.28-68.07-62.49,9.64-124.98,19.29-187.48,28.93Z"/>
        <path class="cls-11" d="m742.6,1129.38c-10.37-10.37-20.75-20.75-31.12-31.12-18.09-5.44-36.18-10.88-54.27-16.32-3.42-.6-6.36-2.6-7.21-5.31-1.28-4.08,2.09-9.95,8.73-11.39,22.14,2.4,44.28,4.81,66.42,7.21,2.42.2,5.77.74,9.49,2.28,5.17,2.13,8.66,5.19,10.63,7.21,17.73,17.19,37.06,34.88,58.07,52.75,19.45,16.55,38.51,31.7,56.93,45.54,5.75,2.72,12.34,5.44,19.73,7.84,10.45,3.4,20.07,5.4,28.34,6.58,89.48,3.29,178.97,6.58,268.45,9.87,10.74-3.83,25.73-8.37,44.03-11.39,16.77-2.76,51.68-6.77,94.88,2.28,5.75,1.21,52.31,11.39,92.61,40.99,9.3,6.83,18.2,14.65,23.53,27.33,6.82,16.22,4.18,31.8,2.28,39.47-5.5,10.25-11.01,20.49-16.51,30.74-2.25,3.31-5.72,7.58-10.82,11.58-8.03,6.29-16.13,8.78-20.91,9.84-15.97,1.23-39.94,3.23-69.16,6.29-37.2,3.9-48.36,5.91-68.32,7.08-20.4,1.2-49.58,1.51-85.52-3.04-27.45,11.92-68.21,27.26-119.43,37.95-62.03,12.96-111.09,13.11-161.43,13.16-36.23.04-84.07-1.77-140.17-9.11-7.04,1.93-23.12,5.2-37.45-3.04-7.66-4.41-11.9-10.43-16.19-17.21-7.79-12.28-18.38-31.12-28.34-57.18,10.9-12.45,26.63-27.83,48.07-42,28.07-18.56,54.78-27.67,73.38-32.39-12.52-5.1-25.05-10.21-37.57-15.31-3.6-1.27-10.25-3.08-18.6-2.28-9.08.87-15.68,4.39-18.98,6.45-14.15,7.25-28.3,14.5-42.45,21.74-4.12.56-8.16-1.1-10.3-4.28-2.78-4.13-1.98-10.24,2.28-14.04,10.25-10.25,20.49-20.49,30.74-30.74,1.52-1.49,3.78-3.39,6.83-5.06,3.12-1.7,5.99-2.57,8.1-3.04,13.07-1.69,26.15-3.37,39.22-5.06-15.33-3.58-30.66-7.17-45.99-10.75-1.11-.06-2.8-.02-4.74.57-1.57.48-2.78,1.15-3.61,1.71-12.67,12.02-25.34,24.04-38.02,36.06-4.7,5.54-12.87,6.42-18.34,2.28-5.01-3.78-6.66-10.93-3.67-16.83,4.32-6.48,8.63-12.96,12.95-19.45-2.56-.31-6.45-1.27-9.28-4.34-5.12-5.55-4.96-16.04,1.52-25.05,15.18-15.18,30.36-30.36,45.54-45.54,1.58-1.08,4.14-2.56,7.59-3.42,4.05-1.01,7.48-.71,9.49-.38,16.19,3.42,32.39,6.83,48.58,10.25Z"/>
        <path class="cls-2" d="m1220.81,1193.14c18.47-21.42,36.94-42.84,55.41-64.27.8-4.18,2.26-9.48,5.06-15.18,2.98-6.07,7.54-12.63,16.19-20.24,11.97-10.53,37.71-28.3,72.87-48.07,4.68-3.05,10.92-2.15,14.48,2.02,3.68,4.3,3.46,10.86-.58,14.97-12.48,8.56-24.95,17.11-37.43,25.67,17.84-1.66,35.69-3.33,53.53-4.99,2.5-.23,5.03-.13,7.51.3,8.12,1.43,16.24,2.85,24.35,4.28,5.9.81,9.97,6.4,9.01,12.1-.93,5.48-6.22,9.32-11.78,8.58-13-.15-25.67-.3-38.67-.46l-30.28,5.21c21.51,2.91,43.01,5.82,64.52,8.73,9.08.28,14.66,7.87,13.66,13.28-.95,5.12-8.11,10-16.32,7.97-26.44.13-52.88.25-79.32.38,7.08,2.53,14.17,5.06,21.25,7.59,8.06,2.72,16.13,5.45,24.2,8.17,4.41,1.49,6.82,6.55,4.71,10.69-.02.04-.04.08-.06.12-2.49,4.73-8.96,7.21-15.56,5.31-20.62.38-41.24.76-61.86,1.14-2.17,5.9-4.33,11.8-6.5,17.7-13.46-2.49-29.86-4.42-48.53-4.31-14.98.08-28.38,1.46-39.85,3.31Z"/>
        <path d="m781.31,1255.89c12.78,4.13,25.43,8.66,38.04,13.32,6.31,2.33,12.58,4.75,18.81,7.3,6.3,2.53,12.27,5.39,18.56,6.73,6.32,1.46,12.74,1.88,19.15,1.14,6.42-.7,12.97-2.33,19.85-3.1,13.76-1.71,27.89-.12,41.05,3.98l.15.05.16.07c36.05,15.2,72.59,29.2,109.53,42.1,18.47,6.46,37.05,12.62,55.71,18.55,18.65,5.98,37.43,11.59,56.24,17.15-19.23-3.91-38.31-8.53-57.3-13.52-18.98-5.03-37.81-10.64-56.52-16.62-18.68-6.07-37.26-12.49-55.62-19.48-18.41-6.88-36.59-14.35-54.63-22.12l.31.12c-12.42-3.92-25.5-5.78-38.44-4.39-6.48.63-13.05,2.02-20,2.57-6.95.58-14.09-.11-20.79-1.9-6.82-1.76-12.91-5.07-18.94-7.78l-18.32-8.27c-12.25-5.46-24.65-10.59-37-15.88Z"/>
        <path d="m639.16,1197.85c5.24-8.4,10.99-16.38,16.94-24.2,2.92-3.95,6.03-7.75,9.05-11.61,1.52-1.93,3.11-3.79,4.66-5.69l2.43-2.92c1.01-1.09,2.13-2.07,3.37-2.91,4.92-3.38,11.76-3.88,16.89-1.94,4.68,1.41,9.39,2.7,14.04,4.23,9.33,2.94,18.6,6.12,27.72,9.96-9.84-1.09-19.54-2.84-29.17-4.83-4.84-.93-9.61-2.11-14.41-3.16-4.11-1.31-8.04-.77-11.27,1.42-.81.52-1.56,1.14-2.23,1.83l-2.32,2.68c-1.61,1.84-3.17,3.73-4.82,5.54-3.3,3.62-6.5,7.32-9.9,10.85-6.69,7.16-13.57,14.16-20.97,20.74Z"/>
        <path class="cls-8" d="m944.11,510.59c.95,10.18,2.18,18.89,3.33,25.81,2.37,14.27,4.63,21.99,7.45,29.36,1.76,4.6,7.08,17.18,32.33,40.42,11.87,10.93,29.12,25.11,52.24,39,4.84,2.86,15.83,8.48,30.86,8.65,16.31.18,28.16-6.15,32.95-9.06,22.13-16.21,40.25-30.97,54.12-42.84,20.88-17.86,28.08-25.68,33.18-37.44,5.57-12.82,8.13-29.11,8.93-34.25,1.44-9.18,1.95-16.97,2.13-22.55,2.62.16,7.17.04,11.91-2.34,10.98-5.52,12.98-18.13,13.19-19.57,7.76-12.15,12.48-22.84,15.32-30.21,11.61-30.15,11.99-57.46,4.79-64.8-2.83-2.89-6.06-3.22-6.06-3.22-.71-.08-3.66-.35-7.54,2.27-8.09,5.46-11.26,17.41-17.78,31.29-1.67,3.56-4.33,8.88-8.15,15.17-.47-5.98-1.21-15.05-2.27-26.09-.7-7.33-3.17-33.2-4.54-41.41-5.04-30.32-35.15-61.53-66.37-75.44-33.63-14.99-59.9-6.03-78.28-29.5-5.09-6.5-7.68-13.07-9.08-17.58-1.58,5.34-4.7,13.27-11.35,20.42-16.55,17.8-37.86,12.28-63.03,28.9-11.24,7.42-17.68,15.58-23.05,22.36-26.8,33.91-26,76.33-24.68,93.54-.23-3.11-1.14-8.48-4.89-13.55-1.88-2.54-4.83-6.53-9.79-7.45,0,0-5.67-1.04-11.27,3.19-8.14,6.15-7.64,24.59.43,45.73,9.45,17.8,14.31,30.14,17.02,38.29,2.57,7.75,7.26,14.9,8.51,22.97.31,1.98.95,6.93,4.68,10.64.99.99,3.4,3.38,7.02,3.4,4.49.03,7.34-3.61,7.73-4.11Z"/>
      </g>
      <rect class="cls-3" x="0" width="2061.08" height="3801.64"/>
    </g>
  </g>
</svg>