<?xml version="1.0" encoding="UTF-8"?>
<svg id="Layer_2" data-name="Layer 2" xmlns="http://www.w3.org/2000/svg" xmlns:xlink="http://www.w3.org/1999/xlink" viewBox="0 0 2075.38 3688.98">
  <defs>
    <style>
      .cls-1 {
        clip-path: url(#clippath);
      }

      .cls-2 {
        fill: none;
      }

      .cls-3 {
        fill: #1a1a1a;
      }

      .cls-4 {
        fill: url(#linear-gradient);
      }
    </style>
    <clipPath id="clippath">
      <rect class="cls-2" width="2075.38" height="3688.98"/>
    </clipPath>
    <linearGradient id="linear-gradient" x1="672.24" y1="2243.96" x2="1264.71" y2="2243.96" gradientUnits="userSpaceOnUse">
      <stop offset="0" stop-color="#1a1a1a"/>
      <stop offset=".48" stop-color="#171717"/>
      <stop offset=".76" stop-color="#0f0f0f"/>
      <stop offset=".98" stop-color="#010101"/>
      <stop offset="1" stop-color="#000"/>
    </linearGradient>
  </defs>
  <g id="Layer_1-2" data-name="Layer 1">
    <g class="cls-1">
      <g>
        <path d="m337.75,3685.72c93.82,0,187.65.02,281.47.03,12.76-380.99,46.65-785.61,109.84-1209.82,127.68-857.26,343.95-1588.95,563.42-2174.06-112.35-41.59-373.99-120.11-661.44-25.54-33.87,11.14-182.39,63.25-331.77,195.71,0,0-180.32,159.89-292.56,431.77-135.89,329.15-251.98,1145.78-251.32,2234.72,3.86,175.39,7.71,350.78,11.56,526.17,190.27,7.01,380.53,14.02,570.8,21.03Z"/>
        <path d="m-222.16,2363.26c-3.94,71.08-16.27,175.52-56.78,294.06-60.63,177.39-132.88,235.67-179.53,373.72-31.51,93.23-54.67,232.69-8.72,427.4-5.12-46.4-9.83-148.95,43.88-258.93,31.91-65.35,73.25-110.41,103.29-137.99-28.08,66.23-65.03,171.88-75.82,304.69-21.46,263.93,80.44,388.34,72.68,632.78-3.12,98.35-24.84,242.82-117.54,417.88,40.8-33.31,116.2-103.93,166.9-219.43,54.21-123.49,51.95-233.96,47.44-286.88,26.04,112.57,49.16,271.36,33.31,459.71-10.27,121.95-34.39,226.79-60.19,310.7,31.94-45.75,63.89-91.51,95.83-137.26,29.69,93.25,61.17,230.37,57.35,397.15-5.61,244.48-84.28,431.17-136.52,532.64,44.76-40.53,98.07-96.06,149.23-168.79,49.31-70.11,82.83-136.58,105.68-190.91,4.75,97.18,4.38,207.43-5.82,328.01-12.81,151.5-38.25,285.26-66.78,397.9,46.5-54.05,102.02-128.84,151.26-225.44,50.64-99.36,78.8-190.7,95.08-261.39,19.56,48.57,47.29,104.03,87.12,160.92,14.26,20.37,28.74,39.02,43.07,56.04-20.53-65.57-46.62-163.33-61.41-283.85-36.55-297.83,20.86-531.33,41.71-617.53,247.76-1023.99,371.63-1535.99,212.7-1842.27-79.39-153-260.88-350.79-737.43-462.91Z"/>
        <path d="m1830.45,782.59c-25.33-62.3-73.87-161.89-164.21-259.03-229.22-246.45-579.28-317.7-853.52-264.1-71.06,13.89-195.72,39.77-318.42,138.61-106.28,85.61-161.07,185.57-187.31,243.5-40.84,38.88-99.31,105.4-134.86,202.29-22.06,60.14-32.68,124.84-26.22,269.72,4.66,104.59,18.1,248.47,56.19,419.57-23.71,57.98-19.24,101.79-14.98,123.62,16.44,84.35,87.29,136.04,150.57,182.22,38.55,28.13,73.36,46.49,96.62,57.56,25.92,20.08,66.29,46.12,119.93,59.92,92.79,23.88,265.85,21.6,629.35-324.66,173.93-165.68,420.74-438.01,646.86-849.2Z"/>
        <path d="m-146.82,4212.6c114.95,331.27,229.89,662.54,344.83,993.8,271.08,7.22,542.17,14.45,813.25,21.67,224.1-29.25,456.16-52.9,695.84-69.61,53.05-3.7,105.74-7.01,158.08-9.94,42.1-2.34,96-.53,156.28,14,24.35,5.87,46.45,13.02,66.18,20.6v-187.32c34.09-29.45,85.56-81.04,126.12-158.57,80.85-154.56,60.69-302.07,53.69-348.39-15.93-105.43-56.31-177.67-92.4-242.25-50.35-90.07-91.61-130.05-218.52-277.21-48.15-55.83-118.45-138.48-202.71-241.92-220.46-197.47-386.58-368.35-499.06-489.82-172.59-186.38-390.35-330.96-545.69-531.95-15.68-20.29-59.98-79.19-137.36-104.89-63.99-21.25-120.24-9.72-179.82,2.5-126.8,26-213.36,88.3-254.77,118.77-51.09,37.59-88.43,75.15-112.97,102.49-18.55,16.49-45.46,42.54-72.92,78.37-99.41,129.7-119.19,274.1-136.22,410.04-5.91,47.2-11.77,112.83-11.23,192.05,16.46,235.87,32.93,471.73,49.39,707.6Z"/>
        <path class="cls-3" d="m84.91,4384.85c-33.64-6.56-82.3-20.87-128.8-55.84-13.58-10.21-37.05-24.96-60.94-51.9-30.45-34.32-58.63-85.21-78.91-245.3-12.95-102.25-13.24-162.36-13.24-162.36-1.09-226.96,13.67-502.51,18.86-594.36,5.04-53.18,31.21-263.71,207.91-415.82,30.66-26.39,160.28-137.97,340.9-139.86,27.42-.29,90.04-.35,163.02,27.67,66.28,25.45,111.13,62.57,160.08,103.75,51.49,43.32,85.1,82.15,102.08,100.21,79.86,84.92,149.5,169.13,284.71,348.39,43.98,58.3,102.35,136.56,170.45,230.39,14.61,21.9,33.39,54.72,46.83,97.4,38.85,123.35.59,237.03-14.98,282.83-79.53,233.86-319.88,343.26-361.5,361.5,15.31,115.44,35.94,278.46,57.44,474.51,16.68,152.06,33.3,316.37,44.95,459.53,15.6,191.49,25.29,465.72-5,811.66,30.21,97.44,59.1,204.42,84.29,320.29,25.14,115.69,43.24,224.86,56.19,325.91,17.2,262.41,44.22,540.99,84.29,833.51,49.77,363.29,113.24,701.21,183.56,1011.45,40.31,57.95,93.75,145.57,136.73,260.36,65.26,174.28,73.85,324.3,78.67,421.44,5.31,107-4.13,127.54-3.72,421.47.07,55.4.47,100.86.8,130.58-2.55,15.74-7.59,42.79-17.32,75.45-20.06,67.31-43.63,103.24-86.97,194.96-9.96,21.08-25.38,54.43-43.26,96.59-8.63,16.04-26.22,25.01-43.7,22.48-19.12-2.78-34.29-18.78-36.21-38.71-3.25,16.71-6.5,33.42-9.75,50.13-8.63,47.05-56.25,74.76-97.02,62.25-37.75-11.59-61.64-55.22-48.7-97.4,5.58-31.39,11.16-62.79,16.74-94.18-18.76.31-62.69-1.55-107.27-29.44-62.63-39.19-81.34-101.46-85.48-116.77-16.07,12.94-37.34,16.64-55.62,9.38-20.27-8.04-28.37-26.17-29.97-29.97-19.98-45.79-39.96-91.57-59.94-137.36-6.02-14.55-12.2-33.04-16.24-54.94-5.08-27.59-5.11-51.68-3.75-69.93-9.16-218.94-18.31-437.88-27.47-656.82-3.65-29.02-5.7-63.12-3.75-101.15,3.33-64.83,17.17-118.9,31-158.92,4.42-8.9,9.84-22.42,12.08-39.63,2.86-21.98-.74-39.97-3.75-50.57-133.63-436.75-228.63-798.46-294.07-1065.77-50.39-205.86-84.59-361.26-116.13-531.95-59.87-324.02-81.63-548.91-89.91-644.33-7.79-89.73-12.3-164.66-14.98-217.28-42.7-214.66-91.17-434.61-146.1-659.32-20.86-85.31-42.21-169.54-64.02-252.68-23.82-186.81-47.64-373.62-71.46-560.44-13.88-87.04-27.77-174.08-41.65-261.12Z"/>
        <path class="cls-3" d="m1880.35,1623.11c15.3,48.04,38.85,84.71,59.34,110.28,11.61,14.49,11.03,35.08-.5,49.63-9.37,11.83-20.73,24.36-34.39,36.64-37.76,33.88-76.2,51.08-101.15,60.01,2.7,15.85,5.56,31.86,8.43,47.71,3.37.67,18.37,3.54,25.29,16.01,4.89,8.77,3.2,17.87,2.36,22.59-6.24,34.39-58.33,65.07-65.24,69.12,2.02,1.35,34.89,24.95,32.37,64.73-.17,1.69-2.86,38.1-28.49,52.43-20.06,10.96-37.09-.51-52.6,12.14-10.62,8.77-13.32,23.09-13.99,34.22,3.88,13.65,17.53,67.26-9.94,124.91-3.2,6.74-31.19,63.38-96.26,88.67-54.96,21.41-104.85,8.26-149.7-3.71-35.4-9.44-61.87-22.42-112.44-47.54-33.38-16.35-60.18-31.52-78.72-42.31-22.59,26.47-54.79,70.46-77.38,132.33-21.07,57.65-25.79,108.56-26.3,142.28v337.15c83.45,117.33,169.08,235.5,257.25,354.68,118.68,160.31,237.02,315.91,354.68,466.95,6.24,10.79,26.81,47.54,14.5,60.86,0,0-2.53,2.7-6.58,3.88-59.17,17.2-162.67-69.62-162.67-69.62-235.17-197.06-339.68-314.73-339.68-314.73-30.4-34.21-57.45-64.95-81.61-92.6-47.5-54.36-83.4-96.17-110.73-128.06,0,0-191.76-224.07-305.93-340.63-13.35-13.63-39.07-39.45-76.17-69.3-10.11-8.14-26.04-20.9-47.14-35.28-29.37-20.01-73.23-49.45-133.97-68.95-44.7-14.35-80.66-17.52-102.33-19.39-95.75-8.26-171.44,13.49-188.64,18.71-103,31.19-171.95,90.86-207.86,127.61,127.61-133.18,220.16-252.19,282.87-339.85,33.34-46.61,68.04-97.95,105.74-171.39,85.16-165.9,111.83-308.39,125.88-386.82,28.6-159.58,27.11-299.95,16.58-355.51-.88-4.63-5.5-28.13-9.09-60.31-2.67-23.92-6.27-57.33-4.58-96.9,1.25-29.3,5.76-70.3,20.19-118.54,3.03-12.14,19.22-70.13,72.99-97.44,59.85-30.01,121.54.17,148.01,13.15,91.37,44.84,121.04,138.91,127.44,161.16,15.34-20.73,37.42-52.76,58.66-94.91,50.91-100.81,35.07-135.53,69.96-169.92,66.76-65.74,177,11.13,244.6-42.31,34.39-27.14,64.57-93.22,22.59-274.78,26.97-29.33,84.29-82.27,172.28-104.85,186.11-48.04,337.83,84.46,352.15,97.27,50.91,79.23,78.9,151.21,94.91,202.12,25.46,81.59,56.31,180.54,22.42,292.48-11.63,38.27-27.64,67.6-39.78,86.99-11.12,18.04-25.62,45.35-35.07,80.92-21.91,82.6-1.01,151.38,7.42,178.02Z"/>
        <path class="cls-4" d="m1264.71,2318.65c-22.59,26.47-54.79,70.46-77.38,132.33-21.07,57.65-25.79,108.56-26.3,142.28-74.44-48.65-171.19-124.05-262.15-235.97-143.65-176.75-201.59-356.89-226.64-462.65,110.45,98.24,239.83,200.68,389.67,299.77,69.26,45.8,137.1,87.05,202.8,124.24Z"/>
        <path d="m561.75,1295.23c-3.12,38.2-.47,76.37,7.36,113.23,8.05,36.88,21.63,72.34,39.54,105.14,9.16,16.31,19.24,32.08,30.71,46.8,11.56,14.65,24.38,28.23,37.88,41.08,27.49,25.2,59.04,46.08,93.25,61.4l1.36.61.82.86c9.58,10.19,21.79,18.02,35.33,21.94,13.86,4.08,28.61,6.13,41.77,1.75,13.16-3.99,23.41-15.59,27.25-29.64,3.99-14.01,2.65-29.58-2.49-43.79,7.01,13.4,10.21,29.36,7.21,44.91-2.67,15.31-12.99,30.93-28.96,36.71-15.59,6.14-32.5,4.48-47.61.99-15.82-3.62-30.51-11.86-42.3-23.07l2.17,1.47c-36.09-14.77-69.78-35.76-98.72-62.17-28.93-26.4-53.17-57.95-71.06-92.67-18.12-34.62-29.98-72.22-36.01-110.47-6.29-38.3-5.07-77.57,2.5-115.08Z"/>
        <path d="m673.17,1514.42c-23.82-29.52-42.15-64.25-51.57-101.75-4.54-18.92-7.39-37.56-9.36-56.97-1.6-19.28-1.1-39.74,6.47-59.04,7.25-19.35,22.62-35.93,41.38-44.83,18.44-8.9,40.36-12.1,60.64-7.26,20.13,4.41,39.3,15.71,51.71,33.09,12.57,17.28,16.75,39.67,13.24,59.98l-1.14,6.59-6.43-.05c-20.24-.17-40.55,7.04-55.74,20.5-15.44,13.13-24.93,33.06-24.84,53.63.22,20.55,8.72,41.51,21.81,58.04,13.6,16.48,33.5,27.66,54.98,32.44-21.95-2.13-43.54-12.02-59.5-28.36-15.75-16.52-26.01-38.3-27.51-61.82-1.35-23.56,8.53-47.6,25.9-63.92,17.28-16.54,41.02-25.45,64.8-25.93l-7.56,6.54c2.36-17.05-.99-34.75-11.07-48.23-9.84-13.6-25.5-22.69-42.25-26.65-33.06-8.15-72.43,9.24-85.06,41.65-13.11,32.6-7.11,72.18-1.41,108.56,7.14,36.62,21.99,71.81,42.51,103.78Z"/>
        <path d="m705.32,1461.93c4.86,2.64,41.13,21.51,80.24,4.72,25.09-10.77,37.79-30.39,42.14-37.93-2.54,10.5-4.43,23.15-4.21,37.46.68,45.33,22.08,78.69,33.25,93.65.19.47,3.98,10.6-.94,16.39-5.02,5.91-18.25,6.27-28.09-3.75-18.51-21.35-37.02-42.7-55.54-64.05-8.27-1.37-23.67-5.03-39.43-16.22-14.94-10.61-23.31-23.09-27.42-30.28Z"/>
        <path d="m921.35,4271.57c-4.2-27.29-6.84-54.75-9.52-82.24-2.17-27.52-3.61-55.11-4.63-82.72-2-55.23-.59-110.57,3-165.75,3.91-55.15,10.14-110.16,19.58-164.61,4.76-27.22,9.99-54.34,15.87-81.32,6.4-26.87,12.76-53.72,20.66-80.17-4.27,27.26-9.05,54.37-12.75,81.65-4.24,27.17-8.05,54.39-11.27,81.67-6.45,54.55-12.19,109.15-15.71,163.91-3.96,54.74-5.79,109.59-6.8,164.52-.85,54.94.24,109.92,1.57,165.08Z"/>
        <path d="m1782.03,1857.79c-7.75,4.02-15.67,7.29-23.65,10.29l-.59.1c-12.53,2.59-25.71.88-37.6-5.25-11.75-6.22-21.24-17.09-25.49-29.77-4.4-12.57-4.15-26.17.21-38.28,4.5-12,13.06-22,23.71-27.4-6.71,9.75-11.09,20.05-12.47,30.36-1.48,10.2-.06,20.7,3.51,29.76,3.68,9,9.99,16.74,18.21,22.04,8.11,5.4,18.55,8.45,28.98,9.24l-.59.1c8.49-.83,17.05-1.39,25.77-1.2Z"/>
      </g>
    </g>
  </g>
</svg>