<?xml version="1.0" encoding="UTF-8"?>
<svg id="Layer_2" data-name="Layer 2" xmlns="http://www.w3.org/2000/svg" xmlns:xlink="http://www.w3.org/1999/xlink" viewBox="0 0 2069.32 3801.64">
  <defs>
    <style>
      .cls-1 {
        fill: #b4b4b4;
      }

      .cls-2 {
        fill: #ffd7ae;
      }

      .cls-3 {
        fill: #929292;
      }

      .cls-4 {
        fill: none;
      }

      .cls-5 {
        fill: #a5a4a4;
        opacity: .31;
      }

      .cls-6 {
        fill: #edc098;
      }

      .cls-7 {
        fill: url(#linear-gradient);
      }
    </style>
    <linearGradient id="linear-gradient" x1="945.47" y1="606.42" x2="1074.29" y2="606.42" gradientUnits="userSpaceOnUse">
      <stop offset="0" stop-color="#ffd7ae"/>
      <stop offset=".45" stop-color="#fcd5ad"/>
      <stop offset=".71" stop-color="#f4d0ab"/>
      <stop offset=".92" stop-color="#e6c8a9"/>
      <stop offset="1" stop-color="#dfc4a8"/>
    </linearGradient>
  </defs>
  <g id="Layer_1-2" data-name="Layer 1">
    <g>
      <g>
        <path class="cls-3" d="m872.73,919.92c20.4,0,40.8,0,61.2,0,2.77-82.84,10.14-170.83,23.88-263.07,27.76-186.41,74.79-345.51,122.51-472.74-24.43-9.04-81.32-26.12-143.83-5.55-7.37,2.42-39.66,13.75-72.14,42.56,0,0-39.21,34.77-63.62,93.88-29.55,71.57-54.79,249.14-54.65,485.93.84,38.14,1.68,76.28,2.51,114.41,41.37,1.52,82.74,3.05,124.12,4.57Z"/>
        <path class="cls-3" d="m750.98,632.36c-.86,15.46-3.54,38.17-12.35,63.94-13.18,38.57-28.89,51.25-39.04,81.26-6.85,20.27-11.89,50.6-1.9,92.94-1.11-10.09-2.14-32.39,9.54-56.3,6.94-14.21,15.93-24.01,22.46-30-6.11,14.4-14.14,37.37-16.49,66.25-4.67,57.39,17.49,84.44,15.8,137.59-.68,21.39-5.4,52.8-25.56,90.87,8.87-7.24,25.27-22.6,36.29-47.71,11.79-26.85,11.3-50.87,10.32-62.38,5.66,24.48,10.69,59.01,7.24,99.96-2.23,26.52-7.48,49.31-13.09,67.56,6.95-9.95,13.89-19.9,20.84-29.85,6.46,20.28,13.3,50.09,12.47,86.36-1.22,53.16-18.33,93.76-29.68,115.82,9.73-8.81,21.33-20.89,32.45-36.7,10.72-15.24,18.01-29.7,22.98-41.51,1.03,21.13.95,45.1-1.26,71.32-2.79,32.94-8.32,62.03-14.52,86.52,10.11-11.75,22.18-28.02,32.89-49.02,11.01-21.61,17.13-41.47,20.67-56.84,4.25,10.56,10.28,22.62,18.94,34.99,3.1,4.43,6.25,8.48,9.37,12.19-4.46-14.26-10.14-35.52-13.35-61.72-7.95-64.76,4.53-115.53,9.07-134.28,53.87-222.66,80.81-333.99,46.25-400.59-17.26-33.27-56.73-76.28-160.35-100.66Z"/>
        <path class="cls-2" d="m814.46,2132.32c-6.6,40.18-11.3,75.09-14.66,103.18-6.26,52.25-2.47,35.36-9.77,103.18-1.76,16.3-3.4,30.53-2.17,50.5,1.12,18.09,3.83,28.47,9.23,54.3,8.01,38.29,12.02,57.44,14.12,74.94,4.36,36.33,4,69.33,3.8,83.63-.11,8.06-.35,14.8-.54,19.55-9.18,22.9-19.01,50.02-28.24,80.91-3.76,12.58-13.63,46.55-22.81,93.4-10.65,54.36-19.83,101.21-17.11,161.56,1.1,24.25,3.91,46.1,5.7,58.38,5.25,35.96,12.21,61.24,15.75,74.94,7.95,30.76,13.99,73.36,26.07,158.57,4.92,34.71,10.71,78.83,16.29,130.33-2.26,47.7-4.53,95.4-6.79,143.09-1.65,3.4-14.42,30.87-.41,58.24,12.56,24.54,37.52,31.15,46.02,33.4,24.46,6.47,44.84-.66,52.02-3.55,3.76-1.52,7.19-2.87,13.15-4.18,13.79-3.05,25.86-1.61,34.01.13,84.5,12.44,116.8,18.02,127,20.51.59.14,3.79.93,8.15,1.92,6.87,1.55,17,3.68,29.32,5.69,20.65,3.36,37.72,4.76,48.87,5.43,1.92.2,9.12.72,15.34-4.14,2.72-2.13,4.36-4.57,5.29-6.31,1.9-.03,4.99-.08,8.81-.14,8.65-.13,13-.26,14.28-.51,1.63-.32,12.3-2.42,17.02-11.73,3.19-6.3,2.01-12.65,1.36-15.24,2.8.39,11.01,1.13,18.86-3.85,2.69-1.71,9.02-5.73,10.39-13.36.88-4.9-.7-8.97-1.59-10.85,1.36-.47,5.89-2.23,8.66-7.03,1.59-2.76,1.95-5.4,2.04-6.92,1.73-.84,4.27-2.33,6.76-4.83,1.42-1.43,5.69-5.85,6.61-12.44t0,0c0-5.58-1.27-9.9-1.59-10.85-1.78-5.27-8.54-8.37-10.56-9.29-17.09-7.82-52.5-.93-81.46-2.91-15.18-1.04-25.98-4.04-38.29-8.15-8.9-2.97-40.78-14.2-78.61-43.17-20.35-15.59-40.02-30.65-57.56-57.97-4.79-7.46-16.69-27.15-24.44-55.39-4.75-17.33-6.48-32.55-7.06-43.99,6.13-79.58,10.52-163.32,12.49-250.89,2.09-92.61,1.3-181.08-1.63-265.01,13.36-33.02,24.7-59.39,32.58-77.38,10.23-23.35,14.86-33.05,20.77-50.5,4.02-11.88,11.43-34.08,15.61-62.18,3.22-21.64,5.59-53.9-.54-93.4,12.77-29.11,25.4-60.35,37.47-93.68,14.51-40.05,26.5-78.37,36.45-114.45,16.2-55.91,31.01-120.85,40.66-193.73,6.43-48.57,9.69-94.05,10.86-135.76-10.07-10.14-26.18-23.9-48.87-33.67-101.21-43.58-213.34,43.79-223.74,52.13-58.41,46.84-83.05,106.75-93.41,139.56Z"/>
        <path class="cls-1" d="m910.03,1582.75c-7.51,11.79-19.56,29.92-35.84,51.05-20.08,26.06-30.39,35.64-53.76,62.99-34.21,40.04-51.31,60.06-61.91,80.37-23.26,44.6-25.67,86.36-26.07,99.38-1.88,61.51,22,106.28,33.13,126.53,17.98,32.72,39.29,55.42,54.36,69.31-1.83,19.98-3.66,39.95-5.48,59.93,21.64,5.71,45.21,10.79,70.6,14.66,65.04,9.92,123.11,9.05,170.52,4.34,30.77-32.94,61.55-65.89,92.32-98.83,1.32-24.18,2.63-48.36,3.95-72.54,4.11-.11,8.98-.53,14.38-1.58,5.54-1.08,10.33-2.58,14.26-4.07-3.12-28.92-6.25-57.83-9.37-86.75-.71-7.67-.96-16.9,0-27.29,1.23-13.2,4.06-24.36,6.92-32.99,12.49-32.99,24.98-65.98,37.47-98.97-13.18-21.19-31.08-44.35-55.39-65.98-93.47-83.13-212.24-81.62-250.07-79.56Z"/>
        <path class="cls-2" d="m1253.24,1245.52c-1.81,54.85-3.62,109.7-5.43,164.54-.65,9.94-1.38,24.66-1.36,42.49.04,30.12,2.19,49.92,3.26,64.35.23,3.17,3.71,53.26-3.26,103.86-3.59,26.11-11.53,63.67-30.95,107.52-17.84-15.81-43.89-35.53-78.61-52.13-39.6-18.93-75.64-26.71-101.01-30.14-25.4-28.14-89.11-106.4-95.44-220.21-.91-16.34-9.6-216.69,108.61-256.32,64.54-21.64,144.6,12.12,204.19,76.03Z"/>
        <path class="cls-3" d="m1197.31,288.65c-5.51-13.55-16.06-35.2-35.71-56.32-49.84-53.59-125.96-69.08-185.59-57.43-15.45,3.02-42.56,8.65-69.24,30.14-23.11,18.61-35.02,40.35-40.73,52.95-8.88,8.46-21.6,22.92-29.32,43.99-4.8,13.08-7.11,27.15-5.7,58.65,1.01,22.74,3.94,54.03,12.22,91.23-5.15,12.61-4.18,22.13-3.26,26.88,3.58,18.34,18.98,29.58,32.74,39.62,8.38,6.12,15.95,10.11,21.01,12.52,5.64,4.37,14.41,10.03,26.08,13.03,20.18,5.19,57.81,4.7,136.85-70.6,37.82-36.03,91.49-95.24,140.66-184.65Z"/>
        <path class="cls-1" d="m767.37,1034.49c24.99,72.03,49.99,144.06,74.98,216.1,58.95,1.57,117.89,3.14,176.84,4.71,48.73-6.36,99.19-11.5,151.31-15.14,11.53-.8,22.99-1.52,34.37-2.16,9.15-.51,20.87-.12,33.98,3.04,5.3,1.28,10.1,2.83,14.39,4.48v-40.73c7.41-6.4,18.61-17.62,27.42-34.48,17.58-33.61,13.2-65.68,11.68-75.76-3.46-22.92-12.24-38.63-20.09-52.68-10.95-19.59-19.92-28.28-47.52-60.28-10.47-12.14-25.76-30.11-44.08-52.6-47.94-42.94-84.06-80.1-108.52-106.51-37.53-40.53-84.88-71.97-118.66-115.67-3.41-4.41-13.04-17.22-29.87-22.81-13.91-4.62-26.14-2.11-39.1.54-27.57,5.65-46.39,19.2-55.4,25.83-11.11,8.17-19.23,16.34-24.56,22.29-4.03,3.59-9.89,9.25-15.86,17.04-21.62,28.2-25.92,59.6-29.62,89.16-1.29,10.26-2.56,24.53-2.44,41.76,3.58,51.29,7.16,102.58,10.74,153.86Z"/>
        <path class="cls-2" d="m817.75,1071.94c-7.32-1.43-17.9-4.54-28.01-12.14-2.95-2.22-8.06-5.43-13.25-11.28-6.62-7.46-12.75-18.53-17.16-53.34-2.82-22.23-2.88-35.3-2.88-35.3-.24-49.35,2.97-109.27,4.1-129.24,1.1-11.56,6.79-57.34,45.21-90.42,6.67-5.74,34.85-30,74.13-30.41,5.96-.06,19.58-.08,35.45,6.02,14.41,5.53,24.16,13.6,34.81,22.56,11.2,9.42,18.51,17.86,22.2,21.79,17.36,18.47,32.51,36.78,61.91,75.76,9.56,12.68,22.25,29.69,37.06,50.1,3.18,4.76,7.26,11.9,10.18,21.18,8.45,26.82.13,51.54-3.26,61.5-17.29,50.85-69.56,74.64-78.61,78.61,3.33,25.1,7.81,60.55,12.49,103.18,3.63,33.07,7.24,68.79,9.78,99.92,3.39,41.64,5.5,101.27-1.09,176.49,6.57,21.19,12.85,44.45,18.33,69.65,5.47,25.16,9.4,48.89,12.22,70.87,3.74,57.06,9.61,117.64,18.33,181.24,10.82,78.99,24.62,152.47,39.91,219.93,8.76,12.6,20.39,31.65,29.73,56.61,14.19,37.9,16.06,70.52,17.11,91.64,1.15,23.27-.9,27.73-.81,91.65.02,12.05.1,21.93.17,28.39-.55,3.42-1.65,9.3-3.77,16.41-4.36,14.64-9.49,22.45-18.91,42.39-2.17,4.58-5.52,11.84-9.41,21-1.88,3.49-5.7,5.44-9.5,4.89-4.16-.6-7.46-4.08-7.87-8.42-.71,3.63-1.41,7.27-2.12,10.9-1.88,10.23-12.23,16.26-21.1,13.54-8.21-2.52-13.4-12.01-10.59-21.18,1.21-6.83,2.43-13.65,3.64-20.48-4.08.07-13.63-.34-23.33-6.4-13.62-8.52-17.69-22.06-18.59-25.39-3.49,2.81-8.12,3.62-12.09,2.04-4.41-1.75-6.17-5.69-6.52-6.52-4.34-9.96-8.69-19.91-13.03-29.87-1.31-3.16-2.65-7.18-3.53-11.95-1.11-6-1.11-11.24-.81-15.21-1.99-47.61-3.98-95.21-5.97-142.82-.79-6.31-1.24-13.72-.81-21.99.72-14.1,3.73-25.85,6.74-34.56.96-1.94,2.14-4.87,2.63-8.62.62-4.78-.16-8.69-.82-11-29.06-94.97-49.72-173.62-63.94-231.75-10.96-44.76-18.39-78.55-25.25-115.67-13.02-70.46-17.75-119.36-19.55-140.11-1.69-19.51-2.67-35.8-3.26-47.25-9.29-46.68-19.82-94.5-31.77-143.36-4.53-18.55-9.18-36.87-13.92-54.94-5.18-40.62-10.36-81.24-15.54-121.86-3.02-18.93-6.04-37.85-9.06-56.78Z"/>
        <path class="cls-2" d="m1208.16,471.42c3.33,10.45,8.45,18.42,12.9,23.98,2.52,3.15,2.4,7.63-.11,10.79-2.04,2.57-4.51,5.3-7.48,7.97-8.21,7.37-16.57,11.11-21.99,13.05.59,3.45,1.21,6.93,1.83,10.37.73.15,3.99.77,5.5,3.48,1.06,1.91.7,3.89.51,4.91-1.36,7.48-12.68,14.15-14.19,15.03.44.29,7.59,5.42,7.04,14.08-.04.37-.62,8.28-6.19,11.4-4.36,2.38-8.06-.11-11.44,2.64-2.31,1.91-2.9,5.02-3.04,7.44.84,2.97,3.81,14.63-2.16,27.16-.7,1.47-6.78,13.78-20.93,19.28-11.95,4.66-22.8,1.8-32.55-.81-7.7-2.05-13.45-4.88-24.45-10.34-7.26-3.56-13.09-6.85-17.12-9.2-4.91,5.75-11.91,15.32-16.83,28.77-4.58,12.54-5.61,23.61-5.72,30.94v73.31c18.15,25.51,36.77,51.21,55.94,77.12,25.81,34.86,51.54,68.69,77.12,101.54,1.36,2.35,5.83,10.34,3.15,13.23,0,0-.55.59-1.43.84-12.87,3.74-35.37-15.14-35.37-15.14-51.14-42.85-73.86-68.44-73.86-68.44-6.61-7.44-12.49-14.12-17.75-20.14-10.33-11.82-18.14-20.91-24.08-27.85,0,0-41.7-48.72-66.52-74.07-2.9-2.96-8.5-8.58-16.56-15.07-2.2-1.77-5.66-4.54-10.25-7.67-6.39-4.35-15.92-10.75-29.13-14.99-9.72-3.12-17.54-3.81-22.25-4.22-20.82-1.8-37.28,2.93-41.02,4.07-22.4,6.78-37.39,19.76-45.2,27.75,27.75-28.96,47.87-54.84,61.51-73.9,7.25-10.14,14.79-21.3,22.99-37.27,18.52-36.07,24.32-67.06,27.37-84.11,6.22-34.7,5.89-65.22,3.61-77.3-.19-1.01-1.2-6.12-1.98-13.11-.58-5.2-1.36-12.47-1-21.07.27-6.37,1.25-15.29,4.39-25.78.66-2.64,4.18-15.25,15.87-21.19,13.01-6.52,26.43.04,32.18,2.86,19.87,9.75,26.32,30.2,27.71,35.04,3.34-4.51,8.14-11.47,12.76-20.64,11.07-21.92,7.62-29.47,15.21-36.95,14.52-14.3,38.49,2.42,53.19-9.2,7.48-5.9,14.04-20.27,4.91-59.75,5.87-6.38,18.33-17.89,37.46-22.8,40.47-10.45,73.46,18.36,76.57,21.15,11.07,17.23,17.16,32.88,20.64,43.95,5.54,17.74,12.24,39.26,4.87,63.6-2.53,8.32-6.01,14.7-8.65,18.91-2.42,3.92-5.57,9.86-7.62,17.59-4.76,17.96-.22,32.92,1.61,38.71Z"/>
        <path class="cls-7" d="m1074.29,622.66c-4.91,5.75-11.91,15.32-16.83,28.77-4.58,12.54-5.61,23.61-5.72,30.94-16.19-10.58-37.22-26.97-57-51.31-31.24-38.43-43.83-77.6-49.28-100.6,24.02,21.36,52.15,43.64,84.73,65.18,15.06,9.96,29.81,18.93,44.1,27.02Z"/>
        <path class="cls-6" d="m921.44,400.12c-.68,8.31-.1,16.61,1.6,24.62,1.75,8.02,4.7,15.73,8.6,22.86,1.99,3.55,4.18,6.97,6.68,10.18,2.51,3.19,5.3,6.14,8.24,8.93,5.98,5.48,12.84,10.02,20.28,13.35l.29.13.18.19c2.08,2.22,4.74,3.92,7.68,4.77,3.01.89,6.22,1.33,9.08.38,2.86-.87,5.09-3.39,5.92-6.44.87-3.05.58-6.43-.54-9.52,1.52,2.91,2.22,6.38,1.57,9.77-.58,3.33-2.83,6.73-6.3,7.98-3.39,1.34-7.07.97-10.35.21-3.44-.79-6.63-2.58-9.2-5.02l.47.32c-7.85-3.21-15.17-7.78-21.47-13.52-6.29-5.74-11.56-12.6-15.45-20.15-3.94-7.53-6.52-15.7-7.83-24.02-1.37-8.33-1.1-16.87.54-25.02Z"/>
        <path class="cls-6" d="m945.67,447.78c-5.18-6.42-9.17-13.97-11.21-22.12-.99-4.11-1.61-8.17-2.04-12.39-.35-4.19-.24-8.64,1.41-12.84,1.58-4.21,4.92-7.81,9-9.75,4.01-1.94,8.78-2.63,13.19-1.58,4.38.96,8.55,3.42,11.24,7.19,2.73,3.76,3.64,8.63,2.88,13.04l-.25,1.43h-1.4c-4.4-.05-8.82,1.52-12.12,4.45-3.36,2.86-5.42,7.19-5.4,11.66.05,4.47,1.9,9.03,4.74,12.62,2.96,3.58,7.29,6.01,11.95,7.05-4.77-.46-9.47-2.61-12.94-6.17-3.42-3.59-5.66-8.33-5.98-13.44-.29-5.12,1.86-10.35,5.63-13.9,3.76-3.6,8.92-5.53,14.09-5.64l-1.64,1.42c.51-3.71-.22-7.56-2.41-10.49-2.14-2.96-5.54-4.93-9.19-5.79-7.19-1.77-15.75,2.01-18.5,9.06-2.85,7.09-1.55,15.7-.31,23.61,1.55,7.96,4.78,15.61,9.24,22.57Z"/>
        <path class="cls-6" d="m952.66,436.37c1.06.57,8.94,4.68,17.45,1.03,5.46-2.34,8.22-6.61,9.16-8.25-.55,2.28-.96,5.03-.92,8.15.15,9.86,4.8,17.11,7.23,20.36.04.1.87,2.3-.2,3.56-1.09,1.29-3.97,1.36-6.11-.81-4.03-4.64-8.05-9.28-12.08-13.93-1.8-.3-5.15-1.09-8.57-3.53-3.25-2.31-5.07-5.02-5.96-6.58Z"/>
        <path class="cls-6" d="m999.63,1047.31c-.91-5.93-1.49-11.91-2.07-17.88-.47-5.98-.78-11.98-1.01-17.99-.43-12.01-.13-24.04.65-36.04.85-11.99,2.2-23.95,4.26-35.79,1.04-5.92,2.17-11.82,3.45-17.68,1.39-5.84,2.77-11.68,4.49-17.43-.93,5.93-1.97,11.82-2.77,17.75-.92,5.91-1.75,11.83-2.45,17.76-1.4,11.86-2.65,23.73-3.42,35.64-.86,11.9-1.26,23.83-1.48,35.77-.18,11.95.05,23.9.34,35.9Z"/>
        <path class="cls-6" d="m998.42,985.34c.89-9.12,4.76-17.96,10.5-25.26,5.76-7.27,13.49-13.1,22.21-15.96-7.38,5.37-13.99,11.23-19.41,18.17-5.52,6.87-9.68,14.67-13.3,23.04Z"/>
        <path class="cls-6" d="m842.35,1250.58c-2.76-23.56-5.73-47.08-9.11-70.53-3.49-23.44-7.13-46.84-11.39-70.16-4.34-23.31-7.9-46.82-10.85-70.37-3.01-23.55-5.04-47.21-6.57-70.89l.15.4-20.53-29.79,21.82,28.86.13.17.02.24c2.13,23.61,5.02,47.13,8.1,70.61,3.02,23.5,7.13,46.81,11.1,70.19,3.98,23.38,7.77,46.84,10.51,70.41,2.89,23.56,5.13,47.19,6.62,70.86Z"/>
        <path class="cls-6" d="m1034.25,2180.79c.28,16.01-.71,31.91-2.05,47.79v-.4c.39,3.2.79,6.39,1.12,9.6.34,3.2.76,6.4.86,9.62.33,6.44.51,12.89.48,19.32-1.22-6.35-2.22-12.69-3.07-19.04-.37-3.18-1.01-6.33-1.46-9.5-.52-3.16-.97-6.32-1.41-9.49l-.03-.21v-.19c1.21-15.89,2.75-31.75,5.56-47.51Z"/>
        <path class="cls-6" d="m1073.35,2191.38l-.5,25.89c-.16,4.31-.05,8.62-.09,12.92-.07,4.3.02,8.6.34,12.88.55,8.55,2.03,17.05,2.78,25.68l2.48,25.83.02.19-.05.24-3.91,20.04-.02.1-.05.13c-1.32,4.03-1.21,8.68.65,12.41,1.85,3.75,5.34,6.77,9.37,8.04,4.02,1.33,8.51.63,11.94-1.88,3.5-2.48,5.91-6.35,6.44-10.63v-.07s.04-.12.04-.12l5.63-24c1.97-7.98,3.57-16.08,5.07-24.14,2.89-16.14,3.99-32.62,3.31-49.1,1.65,16.39,1.37,33.08-1.17,49.45-1.28,8.18-2.65,16.3-4.4,24.37l-5.34,24.21.04-.19c-.58,5.11-3.49,9.92-7.66,12.92-4.14,3.14-9.96,4.11-14.91,2.49-4.96-1.54-9.23-5.08-11.54-9.79-2.27-4.77-2.33-10.23-.69-15.1l-.06.23,4.1-20-.03.42-2.19-25.74c-.5-8.59-1.75-17.17-2.07-25.87-.21-4.34-.18-8.68.02-13,.14-4.33.31-8.65.63-12.96l1.82-25.85Z"/>
        <path class="cls-6" d="m1116.93,2197.08c.42,9.89.44,19.78.41,29.67-.02,9.89-.21,19.78-.59,29.66-.47,9.88-1.18,19.84-2.92,29.64-.86,4.89-1.85,9.76-2.99,14.59-1.26,4.8-2.52,9.59-4.14,14.28.84-4.88,1.76-9.73,2.42-14.62.78-4.86,1.46-9.74,1.98-14.63,1.08-9.77,1.69-19.55,2.08-29.41.47-9.86.76-19.73,1.43-29.59.6-9.86,1.27-19.72,2.32-29.58Z"/>
        <path class="cls-6" d="m1132.41,2297.27c3.88-10.38,8.12-20.61,12.42-30.81,2.03-5.18,4.56-10.09,6.14-15.22,1.66-5.14,2.76-10.45,3.2-15.82.59-5.39.16-10.72-.02-16.36-.09-5.56-.11-11.12.13-16.66.38-11.08,1.1-22.14,2.31-33.16l.44,33.17c.16,5.52.21,11.03.5,16.52.27,5.4.76,11.15.2,16.79-.52,5.64-1.7,11.23-3.56,16.58-1.89,5.39-4.48,10.33-6.85,15.29-4.81,9.96-9.68,19.89-14.9,29.67Z"/>
        <path class="cls-6" d="m1022.25,1254.9c1.4,14.29,2.33,28.62,3.04,42.96.71,14.35.95,28.71.99,43.08.13,28.74-1.32,57.48-3.78,86.12l-.07-.65c11.36,36.07,19.74,73.06,25.92,110.34,5.9,37.34,9.31,75.07,9.71,112.83-2.07-37.68-6.1-75.23-12.68-112.33-3.17-18.57-6.94-37.03-11.35-55.34-4.44-18.3-9.39-36.47-14.84-54.5l-.1-.33.03-.32c2.69-28.53,4.09-57.17,4.69-85.83.48-28.66-.08-57.35-1.56-86.02Z"/>
        <path class="cls-5" d="m1151.69,1981.62c1-37.8,1.23-76.84.54-117.03-.34-19.67-.89-39.04-1.63-58.11,8.73-21.31,17.47-42.63,26.2-63.94-6.45,22.33-12.9,44.67-19.35,67,.46,19.74.56,40.09.2,61.03-.66,39.02-2.8,76.1-5.97,111.05Z"/>
        <path class="cls-6" d="m1147.89,2052.49c2.91,9.38,5.05,18.97,6.73,28.66,1.71,9.68,2.75,19.48,3.31,29.31.39,9.84.64,19.61.2,29.42l-.58,14.7c-.32,4.89-.52,9.79-.96,14.67-.38-4.9-.52-9.8-.79-14.69l-.42-14.66c-.14-4.88-.19-9.77-.43-14.65-.15-4.88-.31-9.75-.59-14.61-.46-9.72-1.4-19.41-2.45-29.1-1.1-9.69-2.55-19.35-4.02-29.05Z"/>
        <path class="cls-6" d="m996.27,2154.66l2.76,47.95v.03s0,.05,0,.05c-.31,5.03.05,10.08,1,15.01.95,4.95,2.56,9.68,4.72,14.29l12.41,27.98-.04-.09c1.47,2.72,4.07,4.82,7.04,5.38,1.47.32,3.01.25,4.51-.1,1.48-.35,2.99-1.03,4.19-1.84l1.43-.98.82,1.59c2.21,4.3,4.22,8.65,6.58,12.9,2.39,4.14,4.72,8.6,7.89,11.64,3.29,3.02,7.76,4.66,12.34,5.44,4.61.78,9.4.76,14.13.34l2.2-.2-.4,2.17-3.84,20.91c-.35,6.22,2.6,13.37,7.38,17.45,4.72,4.23,12.58,2.28,16.9-2.34,2.23-2.38,3.7-5.24,4.3-8.61l2.21-10.43,2.03-9.59,1.22,9.69c.38,3.05,2.72,5.76,5.68,6.49,2.93.81,6.28-.54,8.02-3.09.79-1.11,1.48-3.15,2.23-4.74l2.2-5.07c1.51-3.37,3.16-6.73,4.74-10.09l18.17-40.32,2.26-5.05,1.48-5.23c1.09-3.46,1.85-7.04,2.24-10.66.44-3.62.59-7.27.51-10.93-.16-3.62-.27-7.38-.31-11.07-.31-14.8.14-29.6,1.32-44.33-.55,14.76-.67,29.55.08,44.27.14,3.7.35,7.32.62,11.07.19,3.73.07,7.48-.31,11.2-.34,3.73-1.05,7.41-2.12,11.03l-1.45,5.45-2.18,5.11-17.59,40.79c-1.54,3.34-3.14,6.62-4.63,10l-2.19,5.11c-.83,1.74-1.21,3.3-2.49,5.27-2.4,3.58-7.12,5.56-11.41,4.42-4.29-1.03-7.58-4.86-8.16-9.17l3.25.11-2.16,10.49c-.62,3.66-2.44,7.43-5.11,10.24-2.69,2.82-6.25,4.86-10.17,5.56-1.98.33-3.93.4-6.01-.09-2.04-.49-3.87-1.5-5.42-2.73-3.09-2.52-5.19-5.83-6.65-9.32-1.41-3.54-2.29-7.23-1.96-11.31l3.99-21.1,1.8,1.97c-4.96.41-9.99.42-14.99-.46-4.95-.88-10.03-2.7-13.96-6.33-3.84-3.8-5.97-8.22-8.43-12.47-2.34-4.28-4.41-8.79-6.62-13.17l2.25.62c-1.67,1.12-3.39,1.81-5.27,2.24-1.87.42-3.86.47-5.77.03-3.85-.81-7.07-3.55-8.8-6.93l-.03-.05-.02-.04-11.93-28.2c-4.27-9.37-6.22-19.97-5.25-30.25v.09l-1.26-48.02Z"/>
        <path class="cls-6" d="m1182.1,3629.91c.07-2.17-.15-4.32-.87-6.26-.77-1.92-1.83-3.67-3.26-5.07-1.41-1.41-3.08-2.57-4.9-3.44-1.8-.87-3.79-1.57-5.67-1.91l-.18-.03-.3-.14c-3.28-1.51-6.57-3.02-9.81-4.62-3.22-1.64-6.51-3.14-9.85-4.53-6.66-2.82-13.42-5.46-20.28-8.08,7.29.94,14.47,2.71,21.41,5.16,1.73.62,3.47,1.24,5.17,1.93,1.7.71,3.34,1.54,5.02,2.31,3.33,1.57,6.63,3.22,9.92,4.87l-.47-.17c2.35.58,4.42,1.44,6.44,2.6,1.97,1.2,3.81,2.68,5.24,4.53,2.94,3.68,3.72,8.72,2.39,12.85Z"/>
        <path class="cls-6" d="m1223.77,3602.99c-3.36-4.82-8.48-7.53-13.82-8.74-5.63-1.1-11.25-2.79-16.74-4.48-10.98-3.54-21.8-7.47-32.3-12.41,11.38,2.25,22.41,5.57,33.38,9,5.5,1.76,10.87,3.54,16.41,5.21,2.86.92,5.6,2.34,7.91,4.27,1.14.99,2.17,2.08,3.03,3.29.81,1.25,1.46,2.58,2.12,3.85Z"/>
        <path class="cls-6" d="m1251.23,3574.22c-3.36-3.65-7.69-5.9-12.21-6.68-4.71-.76-9.56-1.98-14.31-3.1-9.51-2.43-18.99-5.13-28.12-8.87,9.85,1.01,19.38,3.06,28.86,5.38,4.76,1.2,9.36,2.53,14.21,3.89,5.05,1.36,9.39,4.94,11.57,9.38Z"/>
        <path class="cls-6" d="m1261.93,3560.26c-.25-5.43-2.42-11-6.75-13.17-2.16-.99-4.84-1.48-7.49-1.94-2.66-.48-5.32-.9-8.01-1.21-5.35-.73-10.76-1.06-16.23-1.56-5.47-.5-10.93-1.25-16.37-2.21,5.52-.42,11.01-.61,16.49-.57,5.48-.07,11.04.12,16.57.8,2.76.39,5.51.84,8.22,1.45,2.68.68,5.49,1.19,8.19,2.83,2.71,1.68,4.38,4.41,5.18,7.19.72,2.82.77,5.69.21,8.4Z"/>
        <path class="cls-6" d="m1186.78,522.45c-1.68.87-3.41,1.59-5.14,2.24l-.13.02c-2.72.56-5.59.19-8.18-1.14-2.56-1.35-4.62-3.72-5.54-6.47-.96-2.73-.9-5.69.05-8.32.98-2.61,2.84-4.78,5.16-5.96-1.46,2.12-2.41,4.36-2.71,6.6-.32,2.22-.01,4.5.76,6.47.8,1.96,2.17,3.64,3.96,4.79,1.76,1.17,4.03,1.84,6.3,2.01l-.13.02c1.85-.18,3.71-.3,5.6-.26Z"/>
        <path class="cls-5" d="m1235.73,1206.15c-17.5-1.15-34.89-1.73-52.24-1.3-17.33.38-34.5,2.24-51.82,4.42-17.32,2.03-34.69,4.15-52.1,5.78-17.4,1.69-34.84,3.13-52.36,3.86,17.15-3.68,34.39-6.66,51.66-9.39,17.28-2.76,34.57-5.17,51.95-7.34,8.7-.97,17.44-1.94,26.24-2.52,8.8-.49,17.66-.77,26.47-.37,17.61.62,35.15,2.78,52.21,6.86Z"/>
      </g>
      <rect class="cls-4" width="2069.32" height="3801.64"/>
    </g>
  </g>
</svg>