<?xml version="1.0" encoding="UTF-8"?>
<svg id="Layer_2" data-name="Layer 2" xmlns="http://www.w3.org/2000/svg" viewBox="0 0 2091.38 3688.98">
  <defs>
    <style>
      .cls-1 {
        fill: #ced4da;
      }

      .cls-2 {
        fill: #d7dadd;
      }

      .cls-3 {
        fill: none;
      }

      .cls-4 {
        fill: #e9ecef;
      }
    </style>
  </defs>
  <g id="Layer_1-2" data-name="Layer 1">
    <g>
      <g>
        <path class="cls-1" d="m80.2,1751.06c24.71-166.23,90.63-424.68,285.5-658.96,42.3-50.86,85.95-94.89,128.87-132.97-12.78-25.38-29.98-68.4-29.78-122.59.35-93.27,52.02-158.61,75.3-188.05,135.61-171.49,413.27-175.9,491.34-177.14,61.82-.98,381.74-6.07,520.41,177.43,24.42,32.32,83.4,110.36,65.53,201.24-6.21,31.59-19.94,55.77-30.76,71.39,40.62,31.33,81.39,67.42,120.91,109.05,243.69,256.74,299.89,577.05,314.63,753.95-647.31-11.12-1294.63-22.23-1941.94-33.35Z"/>
        <path class="cls-1" d="m490.89,2879.57c-60.04-56.96-140.65-143.69-215.28-263.11-68.82-110.12-242.38-395.42-206.25-782.33,11.18-119.66,52.5-357.3,226.07-585.08,62.33-81.8,195.29-251.61,440.89-344.23,225.01-84.86,421.82-58.65,499.43-44.25,27.12,5.03,313.48,62.01,524.71,290.81,353.77,383.18,360.45,1100.59-11.06,1512.5-240.07,266.18-561.15,319.48-611.64,327.16-321.99,48.94-567.69-69.19-646.86-111.46Z"/>
        <path class="cls-2" d="m490.89,2879.57c-24.69-22.57-50.32-47.91-76.14-76.24-43.64-47.88-79.25-94.86-108.17-137.98,26.28,36.5,107.96,139.69,254.31,180.28,31.49,8.74,199.1,55.22,339.8-41.09,39.97-27.36,66.84-58.76,83.76-82.18-15.09,9.13-36.91,20.02-64.8,26.87-40.48,9.94-74.95,6.75-95.62,3.16,17.45.04,48.26-2.33,81.39-18.97,54.09-27.16,77.58-73.86,84.55-89.3-10.88,7.47-28.47,17.63-52.15,23.71-21.26,5.45-39.64,5.61-52.16,4.74,13.2-3.56,30.21-9.66,48.21-20.55,29.54-17.86,47.75-40.13,57.69-54.53-19.91,10.81-49.26,23.61-86.53,29.63-65.03,10.5-117.7-5.53-143.43-15.41,18.18,4.66,54.99,11.51,99.57,1.19,46.72-10.82,77.74-34.9,91.86-47.41-12.74,4.9-30.03,10.1-50.97,12.45-17.83,1.99-33.39,1.37-45.64,0,9.23-.55,21.29-2.41,34.37-7.71,31.5-12.75,48.23-37.02,54.53-47.41-18.99,6.13-46.62,12.6-80.21,12.25-48.76-.51-86.42-15.15-107.47-25.29,19.79,3.81,62.39,9.25,112.21-7.11,47.52-15.6,77.76-43.21,91.67-57.69-10.96,7.12-29.25,16.95-53.74,21.34-15.59,2.79-29.21,2.58-39.51,1.58,15.2-3.81,35.44-10.7,56.9-23.71,33.04-20.03,53.21-45.02,64.01-60.85-21.72,8.83-49.68,17.98-82.98,23.71-38.24,6.58-71.62,6.61-97.2,4.74,24.23-2.18,62.39-8.61,104.31-29.24,45.88-22.58,75.91-52.15,92.46-71.12-19.48,10.77-45.48,22.44-77.44,30.03-16.03,3.81-30.93,5.97-44.25,7.11,12.73-5.02,28.04-12.29,44.25-22.92,18.35-12.04,32.41-24.81,42.67-35.56-16.16,3.34-33.03,6.15-50.58,8.3-112.33,13.73-211.24-5.16-286.85-29.63,39.07,4.49,104.44,6.88,180.17-15.81,96-28.76,158.46-82.79,188.08-112.21-20.03,7.84-52.88,17.88-94.43,18.17-42.95.31-76.88-9.93-97.2-17.78,25.78-.65,63.51-4.77,105.5-21.34,64.04-25.27,104-66.1,123.28-88.9-18.41,6.67-38.59,13.14-60.45,18.97-18.27,4.87-35.71,8.75-52.16,11.85,19.21-13.62,45.4-35.92,66.38-69.94,42.81-69.41,36.02-142.36,27.26-224.03-5.82-54.27-20.62-134.63-61.88-226.45-.72,15.79-3.18,36.15-10.04,58.92-8.73,29.02-21.38,51.29-31.61,66.38,5.28-32.52,8.33-73.5,3.16-120.12-12.51-112.82-65.87-193.17-96.41-232.33,25.37,10.65,66.08,32.51,96.41,75.86,7.19,10.27,12.87,20.43,17.38,30.03,2.76-20.93,8.52-46.67,20.55-74.28,30.44-69.89,82.53-109.24,109.05-126.44-13.99,25.27-31.99,65.17-39.51,116.95-10.61,73.11,5.17,132.14,15.8,162.79,6.24-17.39,15.25-38.07,28.45-60.06,15.8-26.31,32.89-46.67,47.41-61.64-4.14,19.86-7.16,42.1-7.9,66.38-2.89,93.96,29.74,168.63,53.73,211.78,3.62-34.4,13.84-84.44,43.98-136.15,72.77-124.89,203.71-159.96,234.19-167.3-34.8,23.81-107.58,80.5-156.47,181.75-45.35,93.92-47.53,179.35-45.83,221.27,5.71-20.66,20.36-62.11,58.47-97.99,20.4-19.2,41.22-30.87,56.9-37.93-17.81,26.35-43.49,71.39-56.9,132.76-12.64,57.84-9.26,106.76-4.74,137.5,9.02-21.38,28.92-60.44,69.54-94.83,32.29-27.34,64.71-40.73,85.34-47.41-34.27,42.15-73.59,98.83-107.47,170.69-50.85,107.83-69.04,206.5-75.86,275,10.91-19.79,27.83-44.64,53.73-67.96,62.62-56.38,135.57-65.83,164.37-67.96-16.88,5.21-83.26,27.85-118.53,94.83-14.66,27.84-19.2,54.33-20.54,72.7,9.94-13.87,26.11-32.71,50.57-48.99,13.07-8.7,25.61-14.73,36.35-18.97-14.27,16.08-42.7,52.56-53.74,107.47-13.72,68.23,7.95,122.45,16.6,141.45-25.5-14.87-57.39-36.88-89.3-68.75-41.31-41.26-66.83-83.26-82.18-113.79-2.8,23.41-3.86,56.64,4.74,94.83,15.65,69.53,54.23,115.23,74.28,135.92-17.68-6.45-38.26-15.53-60.06-28.45-29.95-17.76-52.89-37.26-69.54-53.74,8.08,22.63,19.22,47.37,34.77,72.7,58.36,95.07,144.1,141.89,191.24,162.79-33.92-3.78-81.05-12.97-132.76-36.35-36.22-16.37-65.13-35.39-86.93-52.15,2.84,19.93,12.71,70.3,53.74,116.95,38.44,43.72,83.33,60.4,102.73,66.38-17.31,2.64-41.42,4.33-69.54,0-18.79-2.89-34.75-7.76-47.41-12.64,1.09,13.71,4.77,33.46,17.38,52.15,29.45,43.63,86.57,50.22,116.95,53.74,147.2,17.01,407.65-153.92,427.57-167.17-7.08,8.79-17.56,21.41-30.88,35.99-26.86,29.42-84.02,83.36-193.27,153.88-112.25,72.45-218.55,115.47-301.41,141.67,0,0,0,0,0,0-89.99,45-327.22,110.77-574.89,22.12-46.6-16.68-114.61-46.58-188.92-101.98Z"/>
        <path class="cls-4" d="m480.34,2869.81c29.9,46.35,93.95,131.5,206.59,193.53,76.33,42.03,147.52,58.32,195.58,65.19,11.73,14.15,23.32,21.73,32.01,26.08,11.38,5.69,21.46,7.67,33.19,17.78,6.25,5.39,10.44,10.91,13.04,14.82,10.85,21.46,24.95,45.53,43.26,70.53,11.96,16.33,24.01,30.71,35.56,43.27,9.07,8.36,33.63,28.62,67.57,28.45,2.88-.01,12.79-.21,23.9-3.56,47.76-14.36,72.38-73.16,89.89-114.98,8.59-20.51,19.68-51.26,27.26-90.68,43.97-3.76,112.59-14.93,188.27-50.97,22.95-10.93,97.53-48.42,169.11-125.65,96.78-104.43,130.84-219.77,143.82-279.74-98.7,99.85-198.77,142.37-255.24,161.21-83.49,27.85-231.49,77.21-331.9-2.37-54.58-43.25-73.36-107.37-80.6-144.61-8.43-125.71-6-227.16-2.37-295.55,9.29-175.17,41-408.19,42.67-420.4,11.42-83.1,13.93-89.17,12.64-113.79-7.22-137.9-101.79-244.97-183.33-315.3,31.87,37.4,77.8,101.57,104.31,192.03,14.51,49.5,19.47,94.13,20.55,129.6-.56,24.54-1.78,61.93-4.74,107.47-11.29,173.7-31.28,209.25-41.09,224.43-14.47,22.37-45.05,59.58-110.63,86.93,20.38-2.98,44.34-8.19,70.33-17.39,15.26-5.4,28.97-11.37,41.09-17.38-10.64,65.99-18.71,143.07-19.76,229.17-1.12,92.07,6.05,174.19,16.2,243.8,2.89,24.19,3.36,59.96-13.04,96-53.9,118.41-238.96,127.55-290.26,128.24-5,.07-8.64.06-10.03.05-106.92-.75-183.73-34.94-233.84-66.18Z"/>
        <path class="cls-1" d="m1291.45,3070.45c39.64-9.37,88.16-25.06,139.87-52.16,99.89-52.35,163.65-122.14,199.14-168.32-14.24,31.47-63.73,130.12-177.8,184.91-65.26,31.35-125.64,35.84-161.21,35.56Z"/>
        <path class="cls-1" d="m927.66,3091.57c-36.64-2.53-80.61-8.96-128.75-23.41-97.15-29.15-167.4-77.77-210.37-113.48,20.97,27.46,84.27,102.75,194.52,131.09,60.12,15.46,112.07,11.27,144.6,5.79Z"/>
      </g>
      <rect class="cls-3" width="2091.38" height="3688.98"/>
    </g>
  </g>
</svg>