<?xml version="1.0" encoding="UTF-8"?>
<svg xmlns="http://www.w3.org/2000/svg" xmlns:xlink="http://www.w3.org/1999/xlink" viewBox="0 0 4000 7110">
  <defs>
    <style>
      .cls-1 {
        fill: #393939;
      }

      .cls-1, .cls-2, .cls-3 {
        mix-blend-mode: screen;
      }

      .cls-4 {
        fill: #a7a7a7;
      }

      .cls-5, .cls-2 {
        fill: #fff;
      }

      .cls-6 {
        fill: #585858;
      }

      .cls-7, .cls-8 {
        fill: #a5a5a5;
      }

      .cls-9 {
        fill: #bfbfbf;
      }

      .cls-10 {
        fill: #989898;
      }

      .cls-11 {
        isolation: isolate;
      }

      .cls-12 {
        fill: #4d4d4d;
      }

      .cls-13 {
        fill: #c7c7c7;
      }

      .cls-14 {
        fill: #333;
      }

      .cls-15 {
        fill: #929292;
      }

      .cls-16 {
        fill: gray;
      }

      .cls-17 {
        fill: #414141;
      }

      .cls-18 {
        mix-blend-mode: lighten;
        opacity: .2;
      }

      .cls-19 {
        opacity: .16;
      }

      .cls-20 {
        fill: #c5c5c5;
      }

      .cls-20, .cls-8, .cls-21 {
        mix-blend-mode: multiply;
      }

      .cls-22 {
        fill: none;
      }

      .cls-23 {
        fill: #999;
      }

      .cls-8 {
        opacity: .5;
      }

      .cls-24 {
        fill: #b1b1b1;
      }

      .cls-25 {
        fill: #383838;
      }

      .cls-26 {
        fill: #b3b3b3;
      }

      .cls-27 {
        fill: #1a1a1a;
      }

      .cls-28 {
        fill: #7a7a7a;
      }

      .cls-29 {
        fill: url(#linear-gradient);
      }

      .cls-30 {
        fill: #666;
      }

      .cls-31 {
        fill: #5e5e5e;
      }

      .cls-32 {
        fill: #a2a2a2;
      }
    </style>
    <linearGradient id="linear-gradient" x1="957.13" y1="4255.07" x2="2882.45" y2="4255.07" gradientUnits="userSpaceOnUse">
      <stop offset="0" stop-color="#1a1a1a"/>
      <stop offset="1" stop-color="#121212"/>
    </linearGradient>
  </defs>
  <g class="cls-11">
    <g id="Layer_2" data-name="Layer 2">
      <g id="Layer_1-2" data-name="Layer 1">
        <g>
          <g>
            <g>
              <ellipse cx="2001.5" cy="3572.67" rx="1870.14" ry="1881.24"/>
              <g>
                <path class="cls-27" d="m3844.82,3509.76c0,1027.1-832.63,1859.76-1859.74,1859.76S125.26,4536.86,125.26,3509.76s832.66-1859.79,1859.82-1859.79,1859.74,832.64,1859.74,1859.79Z"/>
                <path d="m1985.08,1776.44c233.97,0,460.98,45.81,674.68,136.19,206.35,87.28,391.7,212.28,550.91,371.49,159.21,159.21,284.21,344.57,371.49,550.98,90.41,213.64,136.21,440.64,136.21,674.67s-45.81,461-136.21,674.64c-87.28,206.41-212.28,391.79-371.49,550.97-159.21,159.21-344.56,284.21-550.91,371.49-213.7,90.37-440.71,136.19-674.68,136.19s-461.06-45.82-674.69-136.19c-206.41-87.28-391.8-212.28-550.95-371.49-159.2-159.18-284.2-344.56-371.49-550.97-90.37-213.64-136.21-440.64-136.21-674.64s45.84-461.03,136.21-674.67c87.28-206.41,212.28-391.77,371.49-550.98,159.15-159.21,344.54-284.2,550.95-371.49,213.63-90.38,440.67-136.19,674.69-136.19h0Zm0-43.13c-981.11,0-1776.44,795.36-1776.44,1776.45s795.33,1776.41,1776.44,1776.41,1776.42-795.33,1776.42-1776.41-795.36-1776.45-1776.42-1776.45h0Z"/>
                <path d="m3262.64,3509.78c0,705.56-572,1277.53-1277.56,1277.53s-1277.58-571.97-1277.58-1277.53,571.97-1277.61,1277.58-1277.61,1277.56,571.97,1277.56,1277.61Z"/>
                <path d="m3235.45,3509.78c0,690.55-559.79,1250.35-1250.37,1250.35s-1250.42-559.8-1250.42-1250.35,559.82-1250.42,1250.42-1250.42,1250.37,559.82,1250.37,1250.42Z"/>
              </g>
            </g>
            <g>
              <path class="cls-23" d="m2234.39,2934.66s-12.51-127.38,72.62-263.84c85.11-136.39,213.07-194.67,275.6-300.8,62.36-106.09,96.41-151.52,207.18-160.52,110.75-8.91,103,40.38,95.37,65.05-7.64,24.78,16.71,53.36,52.32,59.27,35.62,5.82,86.04,68.83,70.78,108.64,54.28,32.61,52.25,49.76,20.18,97.08-32.12,47.38-2.12,45.56,16.39,98.9,18.51,53.39,16.37,112.17-49.44,140.45-65.86,28.18-69.54-2.25-93.77-21.42-24.28-19.11-50.69,5.49-71.44,26.29-20.82,20.85-92.27,60.37-169.22,61.92-77,1.49-62.27,58.58-125.85,12.54-44.9-32.44-67.54-15.5-105.13,14.82-37.68,30.16-98.18,100.14-139.41,99.94-41.34-.21-54.41-17.4-56.17-38.32Z"/>
              <path class="cls-26" d="m2267.6,2774.88c15.26-14.03,28.42-31.23,46.42-41.87,18.32-10.86,38.02-17.83,58.45-23.32,51.28-13.83,95.99-34.44,137.46-68.72,48.5-40.13,81.07-87.37,90.77-150.56,5-32.08,2.89-62.11,30.1-83.53,25.03-19.54,76.89-26.47,63.66-70.04-9.12-30-31.5-51.41-28.93-81.21-28.94,25.73-52.68,62.78-82.92,114.4-62.53,106.13-190.48,164.41-275.6,300.8-25.05,40.22-41.57,79.49-52.54,115.03,4.42-3.4,8.83-6.9,13.13-10.97Z"/>
              <path class="cls-26" d="m3028.43,2539.54c32.08-47.32,34.11-64.47-20.18-97.08,4.46-11.74,3.13-25.62-1.71-39.36-20.21,0-40.27,1.46-60.42,4.6-64.09,10.35-124.51,33.15-179.38,68.44-51.25,32.88-97.72,72.46-147.38,107.64-48.35,34.26-95.45,70.58-138.01,112.22-46.24,45.26-90.22,94.28-133.9,142.22-30.61,33.56-63.36,65.82-101.68,90.27-3.8,2.37-7.54,4.43-11.39,6.73,2,20.7,15.16,37.55,56.17,37.76,41.23.21,101.73-69.78,139.41-99.94,37.59-30.32,60.23-47.27,105.13-14.82,63.58,46.04,48.85-11.05,125.85-12.54,76.95-1.55,148.4-41.07,169.22-61.92,20.75-20.8,47.16-45.4,71.44-26.29,24.23,19.17,27.91,49.6,93.77,21.42,65.82-28.27,67.95-87.06,49.44-140.45-18.51-53.34-48.51-51.52-16.39-98.9Z"/>
              <g class="cls-21">
                <path class="cls-23" d="m2296.45,2884.5s5.7-7.46,16.21-19.79c10.7-12.25,25.88-29.87,45.33-49.92,9.55-10.19,20.19-20.83,31.55-32.09,11.17-11.39,23.55-22.92,36.3-34.94,12.96-11.5,26.24-23.77,40.13-35.66,14.01-11.75,27.96-24.12,42.61-35.65,14.41-11.44,29.1-23,43.99-33.6,7.38-5.49,14.66-10.83,21.89-16.13,7.41-5.08,14.68-10,21.88-14.95,7.16-4.87,14.2-9.78,21.23-14.47,7.08-4.25,14.12-8.63,20.9-12.8,13.63-8.28,26.42-16.31,38.66-22.89,12.22-6.66,23.42-12.75,33.28-18.24,10.19-4.79,19.11-9.04,26.33-12.54,14.79-6.87,23.13-10.83,23.13-10.83,0,0-8.16,4.49-22.28,12.43-7.03,3.95-15.65,8.75-25.53,14.23-9.59,5.78-20.34,12.45-32.25,19.62-11.96,6.9-24.35,15.37-37.67,24.11-6.61,4.43-13.32,8.93-20.34,13.56-6.8,4.76-13.74,9.66-20.81,14.58-7.03,5.08-14.3,10.16-21.52,15.22-7.14,5.4-14.38,10.82-21.71,16.33-14.52,10.74-29.06,22.3-43.39,34.01-14.61,11.1-28.64,23.24-42.78,34.83-13.91,11.68-27.29,23.72-40.3,35.06-12.65,11.93-25.43,22.81-36.97,33.74-11.76,10.78-22.69,21.17-32.62,30.88-19.9,19.39-36.39,35.67-47.62,47.49-11.25,11.69-17.62,18.42-17.62,18.42Z"/>
                <path class="cls-23" d="m2491.41,2696.03s10.62-6.28,27.67-13.42c4.15-2,8.9-3.63,13.87-5.34,4.97-1.92,10.21-3.88,15.67-5.61,11.01-3.07,22.7-6.8,34.78-9.14,6.01-1.14,12.05-2.28,18.07-3.31,5.85-1.42,11.86-1.9,17.56-2.43,5.78-.58,11.29-1,16.58-1.49,5.22-.58,10.21-.8,14.82-.54,9.2.18,16.92.7,22.25.86,5.37.4,8.27.67,8.27.67,0,0-2.91.43-8.27,1.26-5.27.59-12.86,1.77-21.82,2.73-9.14.64-19.47,3.32-30.7,4.83-11.15,1.47-22.84,4.58-34.71,6.73-5.97,1.07-11.85,2.56-17.56,4.02-5.83,1.36-11.57,2.6-17.09,4.03-10.89,2.94-21.25,5.4-29.97,7.97-8.75,2.41-16.26,4.19-21.23,5.86-5.26,1.42-8.18,2.3-8.18,2.3Z"/>
                <path class="cls-23" d="m2605.51,2612.66s.99-8.31,4.84-20.35c1.63-6.01,4.3-12.81,7.29-20,2.88-7.41,6.95-14.63,10.75-22.13,2.17-3.56,4.44-7.06,6.69-10.54,2.22-3.6,4.18-7.09,6.84-10.07,2.36-3.11,4.95-5.94,7.32-8.67,2.32-2.73,4.41-5.43,6.8-7.54,9.59-8.27,16.28-12.99,16.28-12.99,0,0-4.7,7.19-12.12,16.6-2.02,2.51-3.45,5.43-5.42,8.31-1.87,2.99-3.9,6.12-6.05,9.12-2.21,3.07-3.79,6.8-5.96,10.03-2.01,3.48-4.13,6.92-6.23,10.47-1.93,3.62-3.87,7.19-5.8,10.61-1.79,3.59-3.99,6.93-5.55,10.43-3.67,6.73-7.01,13.04-9.87,18.52-5.94,10.91-9.81,18.21-9.81,18.21Z"/>
              </g>
            </g>
            <g>
              <path class="cls-7" d="m2231.45,2843.62s-70.81-178.58-133.45-264.75c-62.67-86.23-83.26-308.65-47.8-458.17,39.68-103.37,70.11-111.96,122.16-78.71,52.01,33.27,75.72,79.7,112.81,51.25,37.06-28.48,84.99-48,139.09-8.17,54.2,39.91,51.93,44.31,51.74,81.81-.16,37.4-11.18,83.5,51.73,114.73,62.87,31.09,75.73,70.74,75.45,132.48-.32,61.6-20.08,79.04-76.61,103.07-56.71,23.87-52.51,50.4-22.25,85.69,30.27,35.42,49.63,86.12,19.14,105.75-30.61,19.63-36.95-.17-45.94,48.23-8.94,48.4-101.26,272.53-246.06,86.79Z"/>
              <path class="cls-8" d="m2526.57,2517.16c56.54-24.03,76.3-41.47,76.61-103.07.29-61.74-12.57-101.39-75.45-132.48-62.91-31.23-51.89-77.33-51.73-114.73.19-37.49,2.46-41.9-51.74-81.81-38.29-28.18-73.41-26.6-103.84-13.21-40.9,92.96-78.02,190.23-82.75,291.64-1.44,29.84-3.05,63.18,7.81,91.5,8.52,22.24,12.68,101.53,28.01,119.51,15.8,18.26,43.1-24.66,53-2.12,9.73,22.12,15.32,45.46,18.85,69.38,12.73,86.33,3.85,178.18-36.23,256.54-1.61,3.1-3.43,5.94-5.02,9.03,102.54,47.22,166.12-110.77,173.41-150.5,8.99-48.4,15.34-28.6,45.94-48.23,30.5-19.63,11.13-70.34-19.14-105.75-30.26-35.29-34.46-61.82,22.25-85.69Z"/>
              <g class="cls-21">
                <path class="cls-7" d="m2260.41,2264.79s-4.9,19.54-9.08,49.09c-2.33,14.71-3.9,32.09-5.24,50.61-.54,9.28-1.17,18.91-1.26,28.72-.11,4.76-.25,9.68-.32,14.7l.27,14.89c-.14,9.84.66,19.76,1.25,29.51.45,9.65,1.73,19.23,2.56,28.45.69,9.38,2.43,18.08,3.5,26.55,1.05,8.56,2.68,16.45,4.26,23.76,1.68,7.28,2.7,14.1,4.06,19.98,1.49,5.88,2.78,10.96,3.86,15.21,2.04,8.55,3.2,13.47,3.2,13.47,0,0-1.79-4.7-4.92-12.84-1.5-4.14-3.34-9.12-5.46-14.84-2.17-5.75-3.85-12.48-5.94-19.73-2.13-7.27-4.25-15.13-5.8-23.68-1.74-8.47-4.06-17.33-5.03-26.77-1.09-9.36-3-18.93-3.39-28.93-.62-9.97-1.63-19.9-1.58-30.08l-.13-15.05c.13-5.03.33-10.03.53-15,.11-9.92,1.32-19.65,2.09-29.07.85-9.38,2.32-18.4,3.64-26.92,1.58-8.48,2.99-16.58,4.66-23.93,3.02-14.77,6.9-26.82,9.52-35.14,2.73-8.32,4.74-12.94,4.74-12.94Z"/>
                <path class="cls-7" d="m2186.21,2317.21s3.6,7.39,8.64,18.51c4.84,10.96,11.31,25.64,17.79,40.34,1.65,3.71,3.29,7.3,4.94,10.91,1.76,3.5,2.95,7.16,4.74,10.48,1.68,3.32,3.13,6.64,4.73,9.73,1.46,3.05,2.6,6.12,4.03,8.88,5.74,10.45,8.96,18.18,8.96,18.18,0,0-5.81-5.72-13.53-15.37-2.03-2.33-3.74-5.22-5.62-8.08-1.95-3-3.96-6.1-5.88-9.39-4.06-6.61-7.35-14.1-10.98-21.42-3.13-7.52-6.26-15.11-8.58-22.4-2.35-7.28-4.58-14.12-5.74-20.09-2.94-11.93-3.51-20.27-3.51-20.27Z"/>
                <path class="cls-7" d="m2279.12,2436.58s-2.46,4.86-5.97,12.05c-1.85,3.35-3.63,7.59-5.93,11.79-1.2,2.28-1.97,4.63-3.13,6.84-1.01,2.27-2.35,4.49-3.11,7-.91,2.19-1.9,4.58-2.88,6.93-.88,2.38-2.04,4.6-2.51,6.8-.65,2.36-1.39,4.49-2.08,6.64-.73,2.06-1.74,4.09-1.9,5.94-1.44,7.52-3.27,12.93-3.27,12.93,0,0-1.4-5.19-2.04-13.56-.48-4.17.54-8.87,1.26-14.06.61-5.35,3-10.35,4.71-15.54.97-2.63,2.49-4.89,3.69-7.32,1.28-2.39,2.62-4.68,4.01-6.85,3.08-4.12,5.74-7.94,8.69-10.81,5.57-5.99,10.46-8.77,10.46-8.77Z"/>
              </g>
            </g>
            <g>
              <path class="cls-24" d="m2970.59,3749.19c-5.78,18.72-42.66,26.33-50.17,44.12-7.59,17.99-13.76,35.3-23.03,52.32-9.31,17.09-26.94,27.32-37.86,43.4-10.9,16.06-16.61,34.02-29.03,49.04-12.34,14.92-5.82,46.94-19.58,60.8-13.61,13.72-22.43,34.97-37.34,47.62-14.72,12.48-32.71,23.76-48.62,35.18-15.66,11.24-36.86,16.65-53.6,26.83-16.46,10.01-38.79,11.01-56.23,19.97-17.13,8.81-27.04,35.29-45.04,43.05-17.69,7.63-46.86-12.04-65.32-5.43-18.14,6.49-34.76,17.44-53.59,22.91-18.5,5.38-40.22-2.77-59.34,1.61-18.79,4.31-38.09,1.93-57.41,5.25-19,3.27-36.38,12.33-55.85,14.63-19.15,2.26-36.6,21.59-56.15,22.89-19.25,1.28-39.18-18.69-58.77-18.35-19.29.33-37.65-7.39-57.22-8-19.29-.6-39.55,24.39-59.08,22.87-19.24-1.5-36.15-23.24-55.57-25.66-19.17-2.38-38.19-1.34-57.5-4.62-19.04-3.24-38.92-.08-58.06-4.22-18.88-4.08-39.77.37-58.71-4.6-18.69-4.9-38.81-5.76-57.52-11.53-18.7-5.77-31.73-27.81-49.93-34.3-18.44-6.57-40.95-1.5-58.84-8.77-18.14-7.37-45.44,5.39-63-2.66-17.79-8.16-35.48-18.63-52.65-27.47-17.41-8.96-14.4-55.31-31.15-64.92-16.98-9.74-31.18-21.89-47.45-32.27-16.51-10.53-54.97,12.09-70.73.94-16-11.32-22.01-36.54-37.2-48.46-15.42-12.1-20.35-36.1-34.9-48.76-14.78-12.87-51.47-1.8-65.32-15.21-14.08-13.63-8.21-46.91-21.3-61.06-13.32-14.4-34.95-21.07-47.21-35.95-12.47-15.14-36.89-21.62-48.22-37.21-11.53-15.87-22.1-33.53-32.41-49.81-10.49-16.57-23.54-32.89-32.72-49.82-9.35-17.23,19.56-53.22,11.6-70.78-8.09-17.85-27.55-29.64-34.15-47.76-6.7-18.4-31.54-31-36.66-49.61-5.19-18.86-15.34-37.72-18.85-56.72-3.55-19.2-11.78-39.48-13.56-58.75-1.79-19.4,12.3-40.88,12.35-60.28.05-19.43-8.77-40.53-6.82-59.89,1.94-19.27,4.16-40.36,8.03-59.49,3.83-18.92,18.33-36.64,24.1-55.35,5.78-18.72,42.94-25.02,50.45-42.81,7.59-17.99-11.6-47.79-2.33-64.8,9.31-17.09,22.5-32.3,33.42-48.38,10.9-16.06,13.75-39.21,26.17-54.22,12.34-14.92,45.15-11.53,58.9-25.39,13.61-13.72,27.47-25.75,42.39-38.41,14.72-12.48,26.28-27.89,42.19-39.31,15.66-11.24,37.19-12.07,53.93-22.25,16.46-10.01,13.64-55.01,31.07-63.97,17.13-8.81,38.13-12.84,56.14-20.6,17.69-7.63,49.31,20,67.77,13.4,18.14-6.49,36.8-7.33,55.63-12.81,18.51-5.38,34.38-16.41,53.49-20.79,18.79-4.31,37.24-5.4,56.56-8.72,19-3.27,34.12-31.11,53.58-33.41,19.15-2.26,38.42-8.12,57.97-9.42,19.25-1.28,38.78-17.88,58.37-18.21,19.29-.33,38.36,47.91,57.93,48.51,19.29.6,38.28-7.84,57.81-6.32,19.24,1.5,41.15-22.88,60.57-20.46,19.16,2.38,38.19,9.5,57.49,12.79,19.04,3.24,37.88,9.54,57.02,13.67,18.88,4.08,35.7,17.37,54.64,22.34,18.69,4.9,42.62-7.36,61.32-1.58,18.7,5.77,41.2,2.29,59.4,8.77,18.44,6.57,34.5,21.46,52.4,28.73,18.14,7.37,30.49,28.75,48.04,36.8,17.79,8.16,38.48,10.55,55.65,19.38,17.41,8.95,32.13,23.09,48.88,32.7,16.98,9.74,29.45,26.56,45.73,36.94,16.51,10.53,48.38-1.31,64.13,9.84,16,11.32,16.96,43.38,32.15,55.3,15.42,12.1,17.01,39.66,31.56,52.32,14.78,12.87,36.78,16.33,50.63,29.75,14.09,13.64,35.44,19.55,48.53,33.7,13.32,14.4,27.64,27.81,39.89,42.69,12.47,15.14,30.27,26.41,41.59,42,11.53,15.87,8.09,41.77,18.4,58.04,10.49,16.57,36.75,23.82,45.94,40.75,9.35,17.23,11.58,38.43,19.53,55.98,8.09,17.85,4.03,40.29,10.63,58.41,6.7,18.4,45.02,27.29,50.13,45.9,5.19,18.86-14.06,44.36-10.55,63.36,3.55,19.2,24.78,36.8,26.56,56.07,1.79,19.4-17.68,40.59-17.72,59.99-.05,19.43,13.07,40.14,11.13,59.5-1.94,19.27-13.97,37.96-17.84,57.09-3.83,18.92,6.06,42.69.28,61.4Z"/>
              <g>
                <path class="cls-32" d="m2806.82,3365.02l-111.74,80.91c-15.36,11.12-18.8,32.59-7.68,47.95h0c11.12,15.36,32.59,18.8,47.95,7.67l111.74-80.91c15.36-11.12,18.8-32.59,7.68-47.95h0c-11.12-15.36-32.59-18.8-47.95-7.67Z"/>
                <path class="cls-32" d="m2681.79,3209.05l-38.99,132.33c-5.36,18.19,5.04,37.28,23.23,42.64h0c18.19,5.36,37.28-5.04,42.64-23.23l38.99-132.33c5.36-18.19-5.04-37.28-23.23-42.64h0c-18.19-5.36-37.28,5.04-42.64,23.23Z"/>
                <path class="cls-32" d="m2672.82,3652.11l-133.5,34.79c-18.35,4.78-29.35,23.53-24.57,41.89h0c4.78,18.35,23.53,29.35,41.89,24.57l133.5-34.79c18.35-4.78,29.35-23.53,24.57-41.89h0c-4.78-18.35-23.53-29.35-41.89-24.57Z"/>
                <path class="cls-32" d="m2772.46,2993.13l-124.22-60.02c-17.08-8.25-37.6-1.1-45.85,15.98h0c-8.25,17.07-1.1,37.6,15.98,45.86l124.22,60.02c17.07,8.25,37.6,1.1,45.85-15.98h0c8.25-17.08,1.1-37.61-15.98-45.86Z"/>
                <path class="cls-32" d="m2374.81,3096.17l-124.22-60.02c-17.08-8.25-37.6-1.1-45.85,15.98h0c-8.25,17.07-1.1,37.6,15.98,45.86l124.22,60.02c17.07,8.25,37.6,1.1,45.85-15.98h0c8.25-17.08,1.1-37.61-15.98-45.86Z"/>
                <path class="cls-32" d="m2693.03,3331.03l-137.72-8.07c-18.93-1.11-35.18,13.34-36.29,32.27h0c-1.11,18.93,13.34,35.18,32.27,36.29l137.72,8.07c18.93,1.11,35.17-13.34,36.28-32.27h0c1.11-18.93-13.34-35.18-32.27-36.28Z"/>
                <path class="cls-32" d="m2676.74,3016.48l-111.74,80.91c-15.36,11.12-18.8,32.59-7.68,47.95h0c11.12,15.36,32.59,18.8,47.95,7.68l111.74-80.91c15.36-11.12,18.8-32.59,7.68-47.95h0c-11.12-15.36-32.59-18.8-47.95-7.68Z"/>
                <path class="cls-32" d="m2667.98,3178.47l-40.58-131.85c-5.58-18.12-24.79-28.29-42.92-22.72h0c-18.13,5.58-28.3,24.79-22.72,42.92l40.58,131.85c5.58,18.12,24.79,28.29,42.92,22.71h0c18.12-5.58,28.29-24.79,22.72-42.92Z"/>
                <path class="cls-32" d="m2581.83,3212.41l-79.1,113.03c-10.87,15.54-7.09,36.95,8.44,47.82h0c15.54,10.87,36.95,7.09,47.82-8.44l79.1-113.03c10.87-15.54,7.09-36.95-8.44-47.82h0c-15.54-10.87-36.95-7.09-47.82,8.44Z"/>
                <path class="cls-32" d="m2504.75,3511.37l-58.18,125.09c-8,17.19-.54,37.62,16.65,45.61h0c17.2,8,37.62.54,45.62-16.65l58.18-125.09c8-17.19.54-37.62-16.65-45.61h0c-17.19-8-37.62-.54-45.61,16.65Z"/>
                <path class="cls-32" d="m2879.19,3663.41l-35.84-133.22c-4.93-18.31-23.76-29.16-42.07-24.24h0c-18.31,4.93-29.17,23.76-24.24,42.08l35.83,133.22c4.93,18.31,23.76,29.16,42.08,24.24h0c18.31-4.93,29.16-23.76,24.24-42.08Z"/>
                <path class="cls-32" d="m2741.82,3635.54l-35.84-133.22c-4.93-18.31-23.76-29.16-42.07-24.24h0c-18.31,4.93-29.17,23.76-24.24,42.08l35.83,133.22c4.93,18.31,23.76,29.16,42.08,24.24h0c18.31-4.93,29.16-23.76,24.24-42.08Z"/>
                <path class="cls-32" d="m2736.5,3766.39l-107.85,86.03c-14.83,11.83-17.26,33.43-5.43,48.25h0c11.83,14.83,33.43,17.26,48.26,5.43l107.85-86.03c14.82-11.82,17.26-33.43,5.43-48.25h0c-11.82-14.82-33.43-17.26-48.25-5.43Z"/>
                <path class="cls-32" d="m2593.85,3718.44l-107.85,86.03c-14.83,11.83-17.26,33.43-5.43,48.25h0c11.83,14.83,33.43,17.26,48.26,5.43l107.85-86.03c14.82-11.82,17.26-33.43,5.43-48.25h0c-11.82-14.82-33.43-17.26-48.25-5.43Z"/>
                <path class="cls-32" d="m2445.64,3378.85l-30.41,134.56c-4.18,18.5,7.42,36.88,25.92,41.06h0c18.5,4.18,36.88-7.43,41.06-25.92l30.41-134.56c4.18-18.5-7.42-36.88-25.92-41.06h0c-18.5-4.18-36.88,7.43-41.06,25.92Z"/>
                <path class="cls-32" d="m2520.59,3229.83l-129.84,46.63c-17.85,6.41-27.12,26.07-20.71,43.92h0c6.41,17.85,26.07,27.12,43.92,20.71l129.84-46.62c17.85-6.41,27.12-26.07,20.71-43.92h0c-6.41-17.85-26.07-27.12-43.92-20.71Z"/>
                <path class="cls-32" d="m2449.8,2862.67l30.44,134.56c4.18,18.5,22.57,30.1,41.07,25.91h0c18.5-4.18,30.1-22.57,25.91-41.07l-30.44-134.56c-4.18-18.5-22.57-30.1-41.07-25.91h0c-18.5,4.18-30.1,22.57-25.91,41.07Z"/>
                <path class="cls-32" d="m2474.11,3485.27l-99.68-95.37c-13.7-13.11-35.44-12.63-48.55,1.07h0c-13.11,13.7-12.63,35.44,1.07,48.55l99.68,95.37c13.7,13.11,35.44,12.63,48.55-1.07h0c13.11-13.7,12.63-35.44-1.07-48.55Z"/>
                <path class="cls-32" d="m2438.81,3439.65l-136,23.15c-18.7,3.18-31.27,20.92-28.09,39.61h0c3.18,18.7,20.92,31.27,39.61,28.09l136-23.15c18.7-3.18,31.27-20.92,28.09-39.61h0c-3.18-18.7-20.92-31.27-39.61-28.09Z"/>
                <path class="cls-32" d="m2325.04,3819.02l-101.22,93.74c-13.91,12.89-14.75,34.61-1.86,48.52h0c12.88,13.91,34.61,14.75,48.52,1.86l101.22-93.74c13.91-12.89,14.75-34.61,1.86-48.52h0c-12.89-13.91-34.61-14.75-48.52-1.86Z"/>
                <path class="cls-32" d="m2006.65,2872.43l-101.22,93.74c-13.91,12.89-14.75,34.61-1.86,48.52h0c12.88,13.91,34.61,14.75,48.52,1.86l101.22-93.74c13.91-12.89,14.75-34.61,1.86-48.52h0c-12.89-13.91-34.61-14.75-48.52-1.86Z"/>
                <path class="cls-32" d="m2476.72,3821.69l-37.89-132.65c-5.21-18.23-24.21-28.79-42.45-23.58h0c-18.23,5.21-28.79,24.21-23.58,42.45l37.89,132.65c5.21,18.23,24.21,28.79,42.45,23.58h0c18.23-5.21,28.79-24.21,23.58-42.45Z"/>
                <path class="cls-32" d="m2603.31,4007.93l-77.37-114.22c-10.64-15.7-31.98-19.81-47.68-9.17h0c-15.7,10.64-19.81,31.99-9.17,47.68l77.37,114.22c10.63,15.7,31.98,19.81,47.68,9.17h0c15.7-10.64,19.81-31.98,9.17-47.68Z"/>
                <path class="cls-32" d="m2352.65,3616.59l-110.03-83.23c-15.12-11.44-36.66-8.45-48.1,6.67h0c-11.44,15.12-8.45,36.66,6.67,48.1l110.03,83.23c15.12,11.44,36.66,8.45,48.1-6.67h0c11.44-15.12,8.45-36.66-6.67-48.1Z"/>
                <path class="cls-32" d="m2314.63,3339.25l-105.82,88.52c-14.55,12.17-16.47,33.82-4.3,48.37h0c12.17,14.54,33.82,16.47,48.37,4.3l105.81-88.52c14.55-12.17,16.47-33.82,4.3-48.37h0c-12.17-14.54-33.82-16.47-48.37-4.3Z"/>
                <path class="cls-32" d="m2362.18,3197.97l-137-16.26c-18.83-2.24-35.91,11.22-38.14,30.05h0c-2.24,18.83,11.22,35.91,30.05,38.14l137,16.26c18.83,2.24,35.91-11.22,38.14-30.05h0c2.24-18.83-11.22-35.91-30.05-38.14Z"/>
                <path class="cls-32" d="m2371.62,3915.86l-102.6,92.22c-14.1,12.68-15.26,34.39-2.58,48.49h0c12.68,14.1,34.39,15.26,48.49,2.58l102.6-92.22c14.1-12.68,15.26-34.39,2.58-48.49h0c-12.68-14.1-34.39-15.26-48.49-2.58Z"/>
                <path class="cls-32" d="m2254.92,3563.98l-25.71-135.54c-3.53-18.63-21.5-30.87-40.13-27.34h0c-18.63,3.53-30.87,21.5-27.34,40.13l25.71,135.54c3.53,18.63,21.5,30.87,40.13,27.34h0c18.63-3.53,30.87-21.5,27.34-40.13Z"/>
                <path class="cls-32" d="m2172.11,3784.68l-110.51,82.59c-15.19,11.35-18.3,32.87-6.95,48.06h0c11.35,15.19,32.87,18.3,48.06,6.95l110.51-82.59c15.19-11.35,18.3-32.87,6.95-48.06h0c-11.35-15.19-32.87-18.3-48.06-6.95Z"/>
                <path class="cls-32" d="m2178.43,3575.05l-110.51,82.59c-15.19,11.35-18.3,32.87-6.95,48.06h0c11.35,15.19,32.87,18.3,48.06,6.95l110.51-82.59c15.19-11.35,18.3-32.87,6.95-48.06h0c-11.35-15.19-32.87-18.3-48.06-6.95Z"/>
                <path class="cls-32" d="m2319.78,2956.34l-87.02-107.05c-11.96-14.71-33.59-16.95-48.3-4.99h0c-14.71,11.96-16.95,33.59-4.98,48.3l87.02,107.05c11.96,14.71,33.59,16.95,48.3,4.98h0c14.71-11.96,16.95-33.59,4.99-48.3Z"/>
                <path class="cls-32" d="m2254.74,3224.13l-137.05-15.83c-18.84-2.17-35.87,11.33-38.05,30.17h0c-2.17,18.84,11.33,35.87,30.17,38.05l137.05,15.83c18.84,2.18,35.87-11.33,38.05-30.17h0c2.18-18.84-11.33-35.87-30.17-38.05Z"/>
                <path class="cls-32" d="m2252.78,3328.54l-137.05-15.83c-18.84-2.17-35.87,11.33-38.05,30.17h0c-2.17,18.84,11.33,35.87,30.17,38.05l137.05,15.83c18.84,2.18,35.87-11.33,38.05-30.17h0c2.18-18.84-11.33-35.87-30.17-38.05Z"/>
                <path class="cls-32" d="m2108.49,3918.35l-127.64,52.33c-17.55,7.19-25.94,27.25-18.74,44.79h0c7.19,17.55,27.25,25.94,44.79,18.74l127.64-52.33c17.55-7.19,25.94-27.25,18.74-44.79h0c-7.19-17.55-27.25-25.94-44.79-18.74Z"/>
                <path class="cls-32" d="m2228.24,3034.82l-28.67-134.94c-3.94-18.55-22.17-30.39-40.72-26.45h0c-18.55,3.94-30.39,22.17-26.45,40.72l28.67,134.95c3.94,18.55,22.17,30.39,40.72,26.45h0c18.55-3.94,30.39-22.17,26.45-40.72Z"/>
                <path class="cls-32" d="m2198.39,2844.66l-105.15,89.31c-14.45,12.28-16.22,33.95-3.94,48.4h0c12.28,14.45,33.95,16.22,48.4,3.94l105.15-89.31c14.45-12.28,16.22-33.94,3.94-48.4h0c-12.28-14.45-33.94-16.22-48.4-3.94Z"/>
                <path class="cls-32" d="m2058.93,3741.58l-115.85,74.91c-15.92,10.3-20.49,31.55-10.19,47.48h0c10.3,15.92,31.55,20.49,47.48,10.19l115.85-74.91c15.92-10.3,20.49-31.55,10.19-47.48h0c-10.3-15.93-31.55-20.49-47.48-10.19Z"/>
                <path class="cls-32" d="m2046.1,4004.02l15.01,137.14c2.06,18.85,19.02,32.46,37.87,30.39h0c18.85-2.06,32.46-19.02,30.39-37.87l-15.01-137.14c-2.06-18.85-19.02-32.46-37.87-30.39h0c-18.85,2.06-32.46,19.02-30.4,37.87Z"/>
                <path class="cls-32" d="m2116.62,3008.74l-134.06,32.58c-18.43,4.48-29.73,23.05-25.26,41.47h0c4.48,18.43,23.05,29.74,41.47,25.26l134.06-32.58c18.43-4.48,29.74-23.05,25.26-41.47h0c-4.48-18.43-23.05-29.74-41.47-25.26Z"/>
                <path class="cls-32" d="m1927.09,3615.8l-86.32,107.62c-11.87,14.79-9.49,36.4,5.3,48.27h0c14.79,11.87,36.4,9.49,48.27-5.3l86.32-107.62c11.87-14.79,9.49-36.4-5.3-48.27h0c-14.79-11.87-36.4-9.49-48.27,5.3Z"/>
                <path class="cls-32" d="m1852.89,4039.95l25.84,135.52c3.55,18.63,21.53,30.85,40.16,27.3h0c18.63-3.55,30.85-21.53,27.3-40.16l-25.84-135.52c-3.55-18.63-21.53-30.85-40.16-27.3h0c-18.63,3.55-30.85,21.53-27.3,40.16Z"/>
                <path class="cls-32" d="m2110.03,2732.79l-125.68,56.88c-17.28,7.82-24.94,28.16-17.12,45.44h0c7.82,17.28,28.16,24.94,45.44,17.12l125.68-56.89c17.28-7.82,24.94-28.16,17.12-45.44h0c-7.82-17.28-28.16-24.94-45.44-17.12Z"/>
                <path class="cls-32" d="m2055.99,3228.84l-116.24-74.3c-15.98-10.21-37.21-5.54-47.42,10.44h0c-10.21,15.98-5.54,37.21,10.44,47.42l116.24,74.3c15.98,10.21,37.21,5.54,47.42-10.44h0c10.21-15.98,5.54-37.21-10.44-47.42Z"/>
                <path class="cls-32" d="m2032.66,3239.04l-125.48-57.34c-17.25-7.88-37.62-.29-45.5,16.96h0c-7.88,17.25-.29,37.62,16.96,45.5l125.48,57.34c17.25,7.88,37.62.29,45.5-16.96h0c7.88-17.25.29-37.62-16.96-45.5Z"/>
                <path class="cls-32" d="m1672.49,3365.26l-125.48-57.34c-17.25-7.88-37.62-.29-45.5,16.96h0c-7.88,17.25-.29,37.62,16.96,45.5l125.48,57.34c17.25,7.88,37.62.29,45.5-16.96h0c7.88-17.25.29-37.62-16.96-45.5Z"/>
                <path class="cls-32" d="m1875.8,3120.08l-125.48-57.34c-17.25-7.88-37.62-.29-45.5,16.96h0c-7.88,17.25-.29,37.62,16.96,45.5l125.48,57.34c17.25,7.88,37.62.29,45.5-16.96h0c7.88-17.25.29-37.62-16.96-45.5Z"/>
                <path class="cls-32" d="m1334.8,3355.93l-125.48-57.34c-17.25-7.88-37.62-.29-45.5,16.96h0c-7.88,17.25-.29,37.62,16.96,45.5l125.48,57.34c17.25,7.88,37.62.29,45.5-16.96h0c7.88-17.25.29-37.62-16.96-45.5Z"/>
                <path class="cls-32" d="m2169.59,3580.17l-125.48-57.34c-17.25-7.88-37.62-.29-45.5,16.96h0c-7.88,17.25-.29,37.62,16.96,45.5l125.48,57.34c17.25,7.88,37.62.29,45.5-16.96h0c7.88-17.25.29-37.62-16.96-45.5Z"/>
                <path class="cls-32" d="m2134.7,3414.32l-125.48-57.34c-17.25-7.88-37.62-.29-45.5,16.96h0c-7.88,17.25-.29,37.62,16.96,45.5l125.48,57.34c17.25,7.88,37.62.29,45.5-16.96h0c7.88-17.25.29-37.62-16.96-45.5Z"/>
                <path class="cls-32" d="m2164.74,2838.81l-125.48-57.34c-17.25-7.88-37.62-.29-45.5,16.96h0c-7.88,17.25-.29,37.62,16.96,45.5l125.48,57.34c17.25,7.88,37.62.29,45.5-16.96h0c7.88-17.25.29-37.62-16.96-45.5Z"/>
                <path class="cls-32" d="m2665.39,3441.63l-125.48-57.34c-17.25-7.88-37.62-.29-45.5,16.96h0c-7.88,17.25-.29,37.62,16.96,45.5l125.48,57.34c17.25,7.88,37.62.29,45.5-16.96h0c7.88-17.25.29-37.62-16.96-45.5Z"/>
                <path class="cls-32" d="m1728.3,3627.11l-125.48-57.34c-17.25-7.88-37.62-.29-45.5,16.96h0c-7.88,17.25-.29,37.62,16.96,45.5l125.48,57.34c17.25,7.88,37.62.29,45.5-16.96h0c7.88-17.25.29-37.62-16.96-45.5Z"/>
                <path class="cls-32" d="m1617.11,3044.58l-125.48-57.34c-17.25-7.88-37.62-.29-45.5,16.96h0c-7.88,17.25-.29,37.62,16.96,45.5l125.48,57.34c17.25,7.88,37.62.29,45.5-16.96h0c7.88-17.25.29-37.62-16.96-45.5Z"/>
                <path class="cls-32" d="m1963.9,3013.67l-57.12,125.58c-7.85,17.26-.22,37.62,17.04,45.47h0c17.26,7.85,37.62.22,45.47-17.04l57.12-125.58c7.85-17.26.22-37.62-17.04-45.47h0c-17.26-7.85-37.62-.22-45.47,17.04Z"/>
                <path class="cls-32" d="m1918.43,3239.04l-125.48-57.34c-17.25-7.88-37.62-.29-45.5,16.96h0c-7.88,17.25-.29,37.62,16.96,45.5l125.48,57.34c17.25,7.88,37.62.29,45.5-16.96h0c7.88-17.25.29-37.62-16.96-45.5Z"/>
                <path class="cls-32" d="m1901.23,3865.08l-135.9,23.76c-18.68,3.27-31.17,21.06-27.91,39.74h0c3.27,18.68,21.06,31.17,39.74,27.91l135.9-23.76c18.68-3.27,31.17-21.06,27.91-39.74h0c-3.27-18.68-21.06-31.17-39.74-27.91Z"/>
                <path class="cls-32" d="m1827.56,4043.77l-114.07,77.58c-15.68,10.66-19.75,32.02-9.08,47.7h0c10.67,15.68,32.02,19.75,47.7,9.08l114.08-77.58c15.68-10.67,19.75-32.02,9.08-47.7h0c-10.67-15.68-32.02-19.75-47.7-9.08Z"/>
                <path class="cls-32" d="m2105.68,3450.83l-111.3,81.52c-15.3,11.21-18.62,32.69-7.41,47.99h0c11.21,15.3,32.69,18.62,47.99,7.41l111.3-81.52c15.3-11.21,18.62-32.69,7.41-47.99h0c-11.21-15.3-32.69-18.62-47.99-7.41Z"/>
                <path class="cls-32" d="m1751.88,3382.42l-9.99,137.6c-1.37,18.91,12.85,35.36,31.76,36.73h0c18.91,1.37,35.36-12.85,36.73-31.76l9.99-137.6c1.37-18.91-12.85-35.36-31.76-36.73h0c-18.91-1.37-35.36,12.85-36.73,31.76Z"/>
                <path class="cls-32" d="m1418.73,3452.16l40.69-131.82c5.59-18.12-4.56-37.34-22.68-42.94h0c-18.12-5.6-37.34,4.56-42.94,22.68l-40.69,131.82c-5.59,18.12,4.56,37.34,22.68,42.94h0c18.12,5.59,37.34-4.56,42.94-22.68Z"/>
                <path class="cls-32" d="m1697.83,3961.89l-84.53-109.03c-11.62-14.98-33.19-17.71-48.17-6.1h0c-14.99,11.62-17.72,33.19-6.1,48.18l84.53,109.03c11.62,14.99,33.19,17.72,48.18,6.1h0c14.98-11.62,17.72-33.19,6.1-48.17Z"/>
                <path class="cls-32" d="m2466.3,3117.4l-88.26-106.03c-12.13-14.57-33.78-16.55-48.36-4.42h0c-14.57,12.13-16.55,33.78-4.42,48.36l88.26,106.03c12.13,14.57,33.78,16.55,48.36,4.42h0c14.58-12.13,16.55-33.78,4.42-48.36Z"/>
                <path class="cls-32" d="m2297.31,3186.37l-88.26-106.03c-12.13-14.57-33.78-16.55-48.36-4.42h0c-14.57,12.13-16.55,33.78-4.42,48.36l88.26,106.03c12.13,14.57,33.78,16.55,48.36,4.42h0c14.58-12.13,16.55-33.78,4.42-48.36Z"/>
                <path class="cls-32" d="m1629.49,3290.2l-88.26-106.03c-12.13-14.57-33.78-16.55-48.36-4.42h0c-14.57,12.13-16.55,33.78-4.42,48.36l88.26,106.03c12.13,14.57,33.78,16.55,48.36,4.42h0c14.58-12.13,16.55-33.78,4.42-48.36Z"/>
                <path class="cls-32" d="m1925.32,2852.04l-137.16,14.86c-18.85,2.04-32.48,18.98-30.44,37.83h0c2.04,18.85,18.98,32.48,37.83,30.44l137.15-14.86c18.85-2.04,32.48-18.98,30.44-37.83h0c-2.04-18.85-18.98-32.48-37.83-30.44Z"/>
                <path class="cls-32" d="m1760.23,3920.91l-59.45-124.49c-8.17-17.11-28.67-24.36-45.78-16.19h0c-17.11,8.17-24.36,28.67-16.19,45.78l59.45,124.49c8.17,17.11,28.67,24.36,45.78,16.19h0c17.11-8.17,24.36-28.67,16.19-45.78Z"/>
                <path class="cls-32" d="m1800.85,3753.02l-119.92-68.21c-16.48-9.38-37.45-3.61-46.82,12.87h0c-9.38,16.48-3.61,37.45,12.87,46.82l119.92,68.21c16.48,9.38,37.45,3.61,46.82-12.87h0c9.38-16.48,3.61-37.45-12.87-46.82Z"/>
                <path class="cls-32" d="m1784.33,3529.52l-134.75,29.58c-18.52,4.07-30.24,22.38-26.17,40.9h0c4.07,18.52,22.38,30.24,40.9,26.17l134.75-29.58c18.52-4.07,30.24-22.38,26.17-40.9h0c-4.07-18.52-22.38-30.24-40.9-26.17Z"/>
                <path class="cls-32" d="m1740.17,3428.05l-134.75,29.58c-18.52,4.07-30.24,22.38-26.17,40.9h0c4.07,18.52,22.38,30.24,40.9,26.17l134.75-29.58c18.52-4.07,30.24-22.38,26.17-40.9h0c-4.07-18.52-22.38-30.24-40.9-26.17Z"/>
                <path class="cls-32" d="m1659.17,3323.89l95.45-99.61c13.12-13.69,12.66-35.43-1.04-48.55h0c-13.69-13.12-35.43-12.66-48.55,1.04l-95.45,99.61c-13.12,13.69-12.65,35.43,1.04,48.55h0c13.69,13.12,35.43,12.66,48.55-1.04Z"/>
                <path class="cls-32" d="m1731.33,2891.87l-36.32,133.09c-4.99,18.29,5.79,37.17,24.08,42.16h0c18.29,4.99,37.17-5.79,42.17-24.08l36.32-133.09c4.99-18.29-5.79-37.17-24.08-42.16h0c-18.3-4.99-37.17,5.79-42.17,24.08Z"/>
                <path class="cls-32" d="m1222.77,3240.22l-132.93,36.9c-18.27,5.07-28.97,24-23.9,42.27h0c5.07,18.27,24,28.97,42.27,23.9l132.93-36.9c18.27-5.07,28.97-24,23.9-42.27h0c-5.07-18.27-24-28.97-42.27-23.9Z"/>
                <path class="cls-32" d="m1724.09,3191.12l-15.77-137.05c-2.17-18.84-19.2-32.35-38.04-30.19h0c-18.84,2.17-32.35,19.2-30.19,38.04l15.77,137.05c2.17,18.84,19.2,32.35,38.04,30.19h0c18.84-2.17,32.35-19.2,30.18-38.04Z"/>
                <path class="cls-32" d="m1792.49,2753.41l-109.06-84.49c-14.99-11.61-36.56-8.87-48.17,6.12h0c-11.61,14.99-8.88,36.56,6.12,48.17l109.06,84.49c14.99,11.61,36.56,8.88,48.17-6.12h0c11.61-14.99,8.87-36.56-6.12-48.17Z"/>
                <path class="cls-32" d="m2389.99,2856.47l-109.06-84.49c-14.99-11.61-36.56-8.87-48.17,6.12h0c-11.61,14.99-8.88,36.56,6.12,48.17l109.06,84.49c14.99,11.61,36.56,8.88,48.17-6.12h0c11.61-14.99,8.87-36.56-6.12-48.17Z"/>
                <path class="cls-32" d="m1935.33,3076.19l-115.37-75.64c-15.86-10.4-37.14-5.97-47.54,9.89h0c-10.4,15.86-5.97,37.14,9.89,47.54l115.37,75.64c15.86,10.4,37.14,5.97,47.54-9.89h0c10.4-15.86,5.97-37.14-9.89-47.54Z"/>
                <path class="cls-32" d="m1739.9,2829.89l-105.83-88.5c-14.55-12.16-36.2-10.23-48.37,4.31h0c-12.17,14.55-10.23,36.2,4.31,48.37l105.83,88.5c14.55,12.17,36.2,10.23,48.37-4.31h0c12.16-14.55,10.23-36.2-4.31-48.37Z"/>
                <path class="cls-32" d="m1805.06,3242.93l-109.99,83.28c-15.12,11.45-18.09,32.98-6.65,48.1h0c11.45,15.12,32.98,18.1,48.1,6.65l109.99-83.28c15.12-11.45,18.1-32.98,6.65-48.1h0c-11.45-15.12-32.98-18.09-48.1-6.65Z"/>
                <path class="cls-32" d="m1910.83,3712.79l130.47,44.83c17.93,6.16,37.47-3.38,43.63-21.32h0c6.16-17.93-3.38-37.47-21.31-43.63l-130.47-44.83c-17.94-6.16-37.47,3.38-43.63,21.31h0c-6.16,17.94,3.38,37.47,21.32,43.63Z"/>
                <path class="cls-32" d="m1637.04,3541.16l-29.03-134.87c-3.99-18.54-22.25-30.33-40.79-26.34h0c-18.54,3.99-30.33,22.25-26.34,40.79l29.03,134.87c3.99,18.54,22.25,30.33,40.79,26.34h0c18.54-3.99,30.33-22.25,26.34-40.79Z"/>
                <path class="cls-32" d="m1509.27,3803.67l-86.32,107.62c-11.86,14.79-9.49,36.4,5.3,48.27h0c14.79,11.87,36.4,9.49,48.27-5.3l86.32-107.62c11.86-14.79,9.49-36.4-5.3-48.27h0c-14.79-11.87-36.4-9.49-48.27,5.3Z"/>
                <path class="cls-32" d="m1972.67,3551.51l-115.88-74.86c-15.93-10.29-37.18-5.72-47.47,10.21h0c-10.29,15.93-5.72,37.18,10.21,47.47l115.88,74.86c15.93,10.29,37.18,5.72,47.47-10.21h0c10.29-15.93,5.72-37.18-10.21-47.47Z"/>
                <path class="cls-32" d="m1513.02,3325.96l-84.13-109.33c-11.56-15.03-33.12-17.84-48.15-6.27h0c-15.03,11.56-17.84,33.12-6.27,48.15l84.13,109.33c11.57,15.03,33.12,17.84,48.15,6.27h0c15.03-11.56,17.84-33.12,6.27-48.15Z"/>
                <path class="cls-32" d="m1637.16,2935.09l-133.51-34.74c-18.35-4.78-37.1,6.23-41.88,24.58h0c-4.77,18.35,6.23,37.1,24.58,41.88l133.51,34.74c18.35,4.77,37.1-6.23,41.88-24.58h0c4.77-18.35-6.23-37.1-24.59-41.88Z"/>
                <path class="cls-32" d="m1419.41,3572.3l-19.91,136.51c-2.74,18.76,10.26,36.19,29.02,38.93h0c18.76,2.74,36.19-10.26,38.93-29.02l19.91-136.52c2.74-18.76-10.26-36.19-29.02-38.93h0c-18.77-2.74-36.19,10.26-38.93,29.02Z"/>
                <path class="cls-32" d="m1985.97,3455.51l-36.73-132.98c-5.05-18.28-23.96-29-42.24-23.95h0c-18.28,5.05-29,23.96-23.96,42.24l36.73,132.98c5.05,18.28,23.96,29,42.24,23.95h0c18.28-5.05,29-23.96,23.95-42.24Z"/>
                <path class="cls-32" d="m2139.2,3255.29l-36.73-132.98c-5.05-18.28-23.96-29-42.24-23.95h0c-18.28,5.05-29,23.96-23.96,42.24l36.73,132.98c5.05,18.28,23.96,29,42.24,23.95h0c18.28-5.05,29-23.96,23.95-42.24Z"/>
                <path class="cls-32" d="m1548.35,3135.8l-129.66-47.14c-17.82-6.48-37.52,2.72-44,20.54h0c-6.48,17.82,2.72,37.52,20.54,44l129.66,47.14c17.82,6.48,37.52-2.72,44-20.54h0c6.48-17.82-2.72-37.52-20.54-44Z"/>
                <path class="cls-32" d="m2665.43,3581.52l-129.66-47.14c-17.82-6.48-37.52,2.72-44,20.54h0c-6.48,17.82,2.72,37.52,20.54,44l129.66,47.14c17.82,6.48,37.52-2.72,44-20.54h0c6.48-17.82-2.72-37.52-20.54-44Z"/>
                <path class="cls-32" d="m1894.78,3688.1l-129.66-47.14c-17.82-6.48-37.52,2.72-44,20.54h0c-6.48,17.82,2.72,37.52,20.54,44l129.66,47.14c17.82,6.48,37.52-2.72,44-20.54h0c6.48-17.82-2.72-37.52-20.54-44Z"/>
                <path class="cls-32" d="m2331.03,3749.44l-129.66-47.14c-17.82-6.48-37.52,2.72-44,20.54h0c-6.48,17.82,2.72,37.52,20.54,44l129.66,47.14c17.82,6.48,37.52-2.72,44-20.54h0c6.48-17.82-2.72-37.52-20.54-44Z"/>
                <path class="cls-32" d="m1637.01,3733.82l-80.91-111.74c-11.12-15.36-32.59-18.8-47.95-7.67h0c-15.36,11.12-18.8,32.59-7.68,47.95l80.91,111.74c11.12,15.36,32.59,18.8,47.95,7.68h0c15.36-11.12,18.8-32.59,7.68-47.95Z"/>
                <path class="cls-32" d="m1561.01,3518.5l-80.91-111.74c-11.12-15.36-32.59-18.8-47.95-7.67h0c-15.36,11.12-18.8,32.59-7.68,47.95l80.91,111.74c11.12,15.36,32.59,18.8,47.95,7.68h0c15.36-11.12,18.8-32.59,7.68-47.95Z"/>
                <path class="cls-32" d="m1450.01,2719.12l-106.03,88.26c-14.57,12.13-16.55,33.78-4.42,48.36h0c12.13,14.57,33.78,16.55,48.36,4.42l106.03-88.26c14.58-12.13,16.55-33.78,4.42-48.36h0c-12.13-14.58-33.78-16.55-48.36-4.42Z"/>
                <path class="cls-32" d="m1325.31,3689.89l-65.96,121.17c-9.07,16.65-2.91,37.51,13.74,46.57h0c16.65,9.07,37.51,2.91,46.57-13.74l65.96-121.17c9.07-16.65,2.91-37.51-13.74-46.57h0c-16.66-9.07-37.51-2.91-46.57,13.74Z"/>
                <path class="cls-32" d="m1168.31,3100.35l-65.96,121.17c-9.07,16.65-2.91,37.51,13.74,46.57h0c16.65,9.07,37.51,2.91,46.57-13.74l65.96-121.17c9.07-16.65,2.91-37.51-13.74-46.57h0c-16.66-9.07-37.51-2.91-46.57,13.74Z"/>
                <path class="cls-32" d="m1374.88,3531.58l-97.65-97.45c-13.42-13.39-35.16-13.37-48.56.05h0c-13.39,13.42-13.37,35.16.05,48.56l97.65,97.45c13.42,13.39,35.16,13.37,48.56-.05h0c13.4-13.42,13.37-35.16-.05-48.56Z"/>
                <path class="cls-32" d="m1351.97,3182.66l-14.72-137.17c-2.02-18.86-18.95-32.5-37.8-30.48h0c-18.86,2.02-32.5,18.95-30.48,37.8l14.72,137.17c2.02,18.86,18.95,32.5,37.8,30.48h0c18.86-2.02,32.5-18.95,30.48-37.8Z"/>
                <path class="cls-32" d="m1382.32,2940.57l-137.57-10.39c-18.91-1.43-35.4,12.74-36.82,31.65h0c-1.43,18.91,12.74,35.4,31.65,36.83l137.57,10.39c18.91,1.43,35.4-12.74,36.82-31.65h0c1.43-18.91-12.74-35.4-31.65-36.82Z"/>
                <path class="cls-32" d="m1229.13,3612.72l-66.08-121.1c-9.08-16.65-29.94-22.78-46.59-13.69h0c-16.65,9.08-22.78,29.94-13.69,46.59l66.08,121.1c9.08,16.65,29.94,22.78,46.59,13.69h0c16.64-9.08,22.78-29.94,13.69-46.59Z"/>
                <path class="cls-32" d="m1240.28,3683.77l-91.6,103.16c-12.59,14.18-11.3,35.88,2.88,48.47h0c14.18,12.59,35.88,11.3,48.47-2.88l91.6-103.16c12.59-14.18,11.3-35.88-2.88-48.47h0c-14.18-12.59-35.88-11.3-48.47,2.88Z"/>
              </g>
            </g>
            <g>
              <path class="cls-9" d="m2402.56,3648.48c-4.06,43.24-42.4,75-85.63,70.95-43.24-4.06-75-42.4-70.95-85.63,4.06-43.24,42.4-75,85.63-70.95,43.24,4.06,75,42.4,70.95,85.63Z"/>
              <path class="cls-9" d="m2392.17,3635.94c-3.46,36.91-36.19,64.02-73.09,60.56-36.91-3.46-64.02-36.19-60.56-73.09,3.46-36.91,36.19-64.02,73.09-60.56,36.91,3.46,64.02,36.19,60.56,73.09Z"/>
              <g class="cls-18">
                <path d="m2281,3593.26c16.12-13.39,39.27-17.26,59.17-11.07,6.52,2.18,13.29,5.41,18.22,9.95-5.67-3.98-11.93-7.04-18.52-8.99-19.76-6.23-42.6-2.59-58.87,10.12h0Z"/>
              </g>
              <g class="cls-18">
                <path d="m2369.1,3607.36c7.07,8.48,13.06,18.5,14.88,29.53,0,0-.1.02-.1.02-1.89-5.22-3.81-10.37-6.14-15.39-2.29-4.99-5.62-9.79-8.64-14.16h0Z"/>
              </g>
            </g>
            <g>
              <path class="cls-9" d="m2017.63,3360.03c-4.06,43.24-42.4,75-85.63,70.95-43.24-4.06-75-42.39-70.95-85.63,4.06-43.24,42.4-75,85.63-70.95,43.24,4.05,75,42.39,70.95,85.63Z"/>
              <path class="cls-9" d="m2007.24,3347.49c-3.46,36.91-36.19,64.02-73.09,60.56-36.91-3.46-64.02-36.19-60.56-73.09,3.46-36.91,36.19-64.02,73.09-60.56,36.91,3.46,64.02,36.19,60.56,73.09Z"/>
              <g class="cls-18">
                <path d="m1896.07,3304.8c16.12-13.39,39.27-17.27,59.17-11.07,6.52,2.18,13.29,5.41,18.22,9.95-5.67-3.98-11.93-7.04-18.52-8.99-19.76-6.23-42.6-2.59-58.87,10.12h0Z"/>
              </g>
              <g class="cls-18">
                <path d="m1984.17,3318.9c7.07,8.48,13.06,18.5,14.88,29.53,0,0-.1.02-.1.02-1.89-5.22-3.81-10.37-6.14-15.39-2.29-4.99-5.62-9.79-8.64-14.16h0Z"/>
              </g>
            </g>
            <g>
              <g>
                <path class="cls-12" d="m2086.46,3443.86c-20.08,19.38-60.28,37.43-93.74,38.83-17.38.7-32.93-3.08-42.99-13.51-10.06-10.42-13.28-26.11-11.96-43.45,2.6-33.39,22.08-72.91,42.16-92.29,30.48-29.41,79.06-28.54,108.47,1.94,29.41,30.48,28.54,79.06-1.94,108.47Z"/>
                <path class="cls-26" d="m1992.72,3482.69c-17.38.7-32.93-3.08-42.99-13.51-10.06-10.42-13.28-26.11-11.96-43.45,14.05,1.12,27.71,7.15,38.26,18.07,10.54,10.93,16.07,24.79,16.69,38.88Z"/>
              </g>
              <g class="cls-18">
                <path d="m1963.95,3411.5c4.57-21.47,19.18-40.19,38.42-50.59,2.67-1.44,5.43-2.72,8.26-3.82s5.71-1.69,8.43-2.84c.18-.08.09-.39-.1-.37-2.65.25-5.36,1.35-7.84,2.29s-4.95,2.03-7.33,3.25c-4.9,2.5-9.51,5.55-13.75,9.05-8.45,6.99-15.44,15.76-20.27,25.61-2.71,5.52-4.71,11.36-5.94,17.39-.01.07.1.11.11.03h0Z"/>
              </g>
            </g>
            <g>
              <g>
                <path class="cls-12" d="m1488.39,3264.97c7.86,26.78,5.23,70.76-9.04,101.06-7.43,15.72-17.99,27.76-31.89,31.84-13.9,4.08-29.29-.33-44.04-9.54-28.38-17.77-54.38-53.36-62.24-80.13-11.93-40.64,11.35-83.28,52-95.22,40.64-11.93,83.28,11.35,95.22,52Z"/>
                <path class="cls-26" d="m1479.34,3366.03c-7.43,15.72-17.99,27.76-31.89,31.84-13.9,4.08-29.29-.33-44.04-9.54,7.51-11.93,19.18-21.25,33.75-25.52,14.57-4.28,29.42-2.75,42.19,3.23Z"/>
              </g>
              <g class="cls-18">
                <path d="m1371.92,3266.34c-5.55,11.86-6.81,25.25-4.42,38.07s8.41,25.21,17.39,34.77c5.01,5.34,11.04,9.93,17.75,12.9.23.1.43-.22.2-.34-11.49-6.08-20.85-15.18-27.14-26.58s-9.36-24.42-8.62-37.36c.42-7.35,2.09-14.58,5.12-21.29.09-.19-.19-.36-.28-.17h0Z"/>
              </g>
            </g>
            <g>
              <g>
                <path class="cls-16" d="m2822.59,3305.67c23.74,93.46-40.26,190.37-40.26,190.37,0,0-102.5-54.61-126.25-148.06-23.75-93.46,40.25-190.37,40.25-190.37,0,0,102.5,54.61,126.25,148.07Z"/>
                <path class="cls-23" d="m2744.66,3120.7c94.17-30.88,198.01,27.97,198.01,27.97,0,0-48.83,108.92-143,139.8-94.17,30.88-198.01-27.97-198.01-27.97,0,0,48.83-108.92,143-139.8Z"/>
                <path class="cls-16" d="m2662.71,3388.89c52.79,17.09,80.37,77.96,80.37,77.96,0,0-58.01,33.17-110.8,16.09-52.79-17.08-80.36-77.96-80.36-77.96,0,0,58.01-33.18,110.8-16.09Z"/>
                <path class="cls-23" d="m2850.81,3366.46c-36.89-43.48-28.07-111.6-28.07-111.6,0,0,68.64,2.39,105.53,45.87,36.89,43.48,28.07,111.6,28.07,111.6,0,0-68.64-2.39-105.53-45.87Z"/>
              </g>
              <g>
                <path class="cls-16" d="m2947.63,2958.32c-77.58-57.26-89.46-172.79-89.46-172.79,0,0,113.9-22.69,191.48,34.58,77.58,57.26,89.46,172.79,89.46,172.79,0,0-113.9,22.69-191.48-34.58Z"/>
                <path class="cls-23" d="m3125.11,3052.06c-53.29,83.55-170.92,103.81-170.92,103.81,0,0-31.22-115.2,22.07-198.75,53.29-83.55,170.92-103.81,170.92-103.81,0,0,31.22,115.2-22.07,198.75Z"/>
                <path class="cls-16" d="m3018.6,2792.65c-51.67,20.22-111.57-9.41-111.57-9.41,0,0,23.87-62.42,75.54-82.65,51.67-20.22,111.57,9.41,111.57,9.41,0,0-23.87,62.42-75.54,82.65Z"/>
                <path class="cls-23" d="m2887.29,2929.17c56.09,10.27,92.42,68.56,92.42,68.56,0,0-54.62,41.64-110.71,31.37-56.09-10.27-92.41-68.56-92.41-68.56,0,0,54.62-41.64,110.71-31.37Z"/>
              </g>
              <g>
                <g>
                  <path class="cls-31" d="m3298.56,3732.62c15.65,122.4-70.89,234.32-193.29,249.97-122.4,15.65-234.32-70.89-249.97-193.29-15.65-122.4,70.89-234.32,193.29-249.97,122.4-15.65,234.32,70.89,249.97,193.29Z"/>
                  <path class="cls-25" d="m3100.99,3949.1c-103.74,13.27-198.93-60.34-212.2-164.09-13.26-103.74,60.35-198.93,164.09-212.2,103.74-13.26,198.93,60.34,212.2,164.09,13.26,103.74-60.34,198.93-164.09,212.2Z"/>
                  <path class="cls-31" d="m3088.08,3848.19c-48.1,6.15-92.24-27.98-98.38-76.08-6.15-48.1,27.98-92.24,76.08-98.39,48.1-6.15,92.24,27.98,98.39,76.08,6.15,48.1-27.98,92.23-76.08,98.38Z"/>
                  <path class="cls-31" d="m3061.96,3621.65c3.58,5.5,6.22,11.13,8.7,16.77,1.17,2.83,3.95,5.46,2.97,8.56-.86,3.09-2.47,6.28-7.17,9.86l-1.84.24c-5.45-2.28-7.81-4.96-9.42-7.74-1.73-2.76.3-6,.72-9.03.99-6.09,2.12-12.19,4.2-18.42l1.84-.24Z"/>
                  <path class="cls-31" d="m2984.82,3628.7c.43,1.36,4.84,4.46,7.53,7.07l8.49,8.45c2.72,2.88,6.82,4.92,7.7,8.94.98,3.96,1.31,8.31-1.01,14.31l-1.58.98c-6.4-.62-10.14-2.87-13.23-5.52-3.2-2.59-3.18-7.16-4.53-10.89l-3.74-11.38-1.54-5.89c-.16-1.49-2.29-5.02.69-7.45l1.23,1.39Z"/>
                  <path class="cls-31" d="m2917.47,3718.28c9.15,1.18,17.94,4.04,26.42,7.77,4.18,1.91,9.36,2.78,12.09,6.77,2.76,3.87,4.91,8.46,4.52,15.19l-1.29,1.34c-6.66.69-11.03-.5-15-2.14-4.01-1.52-5.79-5.88-8.77-8.93-5.84-6.17-12.18-12.05-18.76-18.33l.8-1.68Z"/>
                  <path class="cls-31" d="m2936,3854.22c3.91-6.44,8.31-12.05,12.77-17.53,2.28-2.69,3.56-6.64,7.13-7.58,3.5-1.04,7.46-1.47,13.38.52l1.14,1.47c.37,6.09-1.23,9.76-3.28,12.83-1.99,3.16-6.25,3.31-9.53,4.73-6.65,2.73-13.35,5.32-20.55,7.09l-1.07-1.52Z"/>
                  <path class="cls-31" d="m3036.36,3922.17l1.24-22.37c.23-3.62-1.23-7.55.88-10.6,2-3.11,4.64-6.09,10.29-8.82l1.83.31c4.44,4.49,5.64,8.69,5.99,12.71.45,4.08-2.88,7.23-4.73,10.63-3.85,6.81-8.23,13.26-13.79,18.88l-1.7-.74Z"/>
                  <path class="cls-31" d="m3133.23,3918.47c-1.29-7.41-5.58-12.28-9.61-18.83-1.98-3.21-5.47-5.9-5.4-9.82-.04-3.89.64-8.03,4.26-13.19l1.76-.61c6.05,1.79,9.15,4.61,11.54,7.68,2.5,3.03,1.43,7.3,1.89,11.05.7,7.16,2.17,16.89-2.63,24.17l-1.8-.45Z"/>
                  <path class="cls-31" d="m3200.65,3857.83c-.43-.83-4.47-2.38-7.67-4.15l-9.27-5.52c-3-1.92-7.16-2.73-8.6-6.17-1.53-3.36-2.52-7.24-1.28-13.3l1.33-1.3c6.09-1.08,9.95,0,13.26,1.63,3.4,1.54,4.09,5.71,5.94,8.76l5.27,9.41,2.36,4.97c.74,1.51,2.9,4.98-.3,7.2l-1.05-1.54Z"/>
                  <path class="cls-31" d="m3251.02,3772.49c-8.79.56-17.32.21-25.82-.29-4.23-.32-8.88.92-12.54-1.49-3.69-2.3-7.18-5.32-9.86-11.36l.49-1.79c5.36-3.84,9.91-4.68,14.25-4.78,4.38-.22,7.76,3.21,11.57,5.08,7.57,3.88,15.11,7.9,22.4,12.85l-.49,1.79Z"/>
                  <path class="cls-31" d="m3217.59,3672.12c-3.01,2.26-4.96,4.99-7.5,8.13l-7.78,8.51c-2.66,2.73-4.44,6.81-8.29,7.74-3.8,1.02-8.01,1.42-13.95-.79l-1.03-1.55c.28-6.33,2.28-10.06,4.7-13.16,2.35-3.2,6.8-3.25,10.35-4.64l10.87-3.86c3.66-.92,7.88-2.73,12.22-2.2l.42,1.81Z"/>
                  <path class="cls-31" d="m3164.02,3624.37c-2.87,1.15-4.16,6.02-6.56,9.89l-6.94,11.48c-2.4,3.74-3.63,8.58-7.62,10.84-3.9,2.34-8.35,4.16-15.07,3.85l-1.36-1.27c-.74-6.69.79-11.25,2.87-15.29,2-4.12,6.75-5.66,10.33-8.3l11.01-7.66,5.82-3.59c1.94-1.24,4.96-2.99,7.84-1.77l-.31,1.83Z"/>
                </g>
                <g>
                  <path class="cls-31" d="m3433.03,3549.51c15.65,122.4-70.89,234.32-193.29,249.97-122.4,15.65-234.32-70.89-249.97-193.29-15.65-122.4,70.89-234.32,193.29-249.97,122.4-15.65,234.32,70.89,249.97,193.29Z"/>
                  <path class="cls-25" d="m3235.45,3765.99c-103.74,13.26-198.93-60.35-212.2-164.09-13.26-103.74,60.35-198.93,164.09-212.2,103.74-13.26,198.93,60.35,212.2,164.09,13.26,103.74-60.35,198.93-164.09,212.2Z"/>
                  <path class="cls-31" d="m3222.55,3665.08c-48.1,6.15-92.24-27.98-98.38-76.08-6.15-48.1,27.98-92.24,76.08-98.39,48.1-6.15,92.24,27.98,98.39,76.08,6.15,48.1-27.98,92.24-76.08,98.39Z"/>
                  <path class="cls-31" d="m3196.42,3438.54c3.58,5.5,6.22,11.13,8.7,16.77,1.18,2.83,3.95,5.46,2.97,8.56-.86,3.09-2.47,6.28-7.18,9.86l-1.84.24c-5.45-2.28-7.81-4.96-9.42-7.74-1.73-2.76.29-6,.72-9.03.99-6.09,2.12-12.19,4.21-18.42l1.84-.24Z"/>
                  <path class="cls-31" d="m3119.29,3445.6c.43,1.36,4.83,4.46,7.53,7.07l8.49,8.45c2.72,2.88,6.82,4.91,7.7,8.94.98,3.96,1.31,8.31-1.01,14.3l-1.58.98c-6.4-.62-10.14-2.87-13.24-5.52-3.2-2.59-3.18-7.16-4.53-10.89l-3.74-11.38-1.54-5.89c-.16-1.49-2.29-5.02.69-7.45l1.23,1.39Z"/>
                  <path class="cls-31" d="m3051.94,3535.17c9.15,1.18,17.93,4.04,26.42,7.77,4.18,1.91,9.36,2.78,12.09,6.77,2.76,3.87,4.91,8.46,4.52,15.19l-1.29,1.34c-6.66.69-11.03-.5-15-2.14-4.01-1.52-5.79-5.88-8.77-8.93-5.84-6.17-12.18-12.05-18.76-18.33l.8-1.68Z"/>
                  <path class="cls-31" d="m3070.47,3671.11c3.91-6.44,8.31-12.05,12.77-17.53,2.27-2.68,3.56-6.64,7.13-7.58,3.5-1.04,7.46-1.47,13.38.52l1.14,1.47c.37,6.09-1.23,9.76-3.28,12.83-1.99,3.16-6.25,3.31-9.53,4.73-6.65,2.73-13.35,5.32-20.54,7.09l-1.07-1.52Z"/>
                  <path class="cls-31" d="m3170.82,3739.06l1.24-22.37c.23-3.62-1.23-7.55.87-10.6,2-3.11,4.64-6.09,10.29-8.82l1.83.31c4.44,4.49,5.64,8.69,5.99,12.71.45,4.08-2.88,7.23-4.73,10.64-3.85,6.81-8.23,13.26-13.79,18.88l-1.71-.74Z"/>
                  <path class="cls-31" d="m3267.7,3735.36c-1.29-7.41-5.58-12.28-9.61-18.83-1.98-3.21-5.47-5.9-5.4-9.83-.04-3.89.64-8.03,4.26-13.19l1.76-.61c6.05,1.79,9.15,4.61,11.54,7.68,2.5,3.03,1.43,7.31,1.89,11.05.7,7.16,2.17,16.89-2.63,24.17l-1.8-.45Z"/>
                  <path class="cls-31" d="m3335.11,3674.72c-.43-.83-4.47-2.38-7.67-4.16l-9.27-5.52c-3-1.93-7.16-2.73-8.6-6.17-1.53-3.36-2.52-7.24-1.28-13.3l1.33-1.3c6.09-1.08,9.95,0,13.26,1.63,3.4,1.54,4.09,5.71,5.94,8.76l5.27,9.41,2.36,4.98c.74,1.51,2.9,4.98-.3,7.2l-1.05-1.53Z"/>
                  <path class="cls-31" d="m3385.49,3589.38c-8.79.56-17.32.21-25.82-.29-4.23-.32-8.88.92-12.54-1.49-3.69-2.3-7.18-5.32-9.85-11.36l.49-1.79c5.36-3.84,9.91-4.68,14.26-4.78,4.38-.22,7.76,3.21,11.57,5.08,7.58,3.88,15.11,7.9,22.4,12.85l-.49,1.79Z"/>
                  <path class="cls-31" d="m3352.05,3489.02c-3.01,2.26-4.96,4.99-7.49,8.13l-7.78,8.51c-2.66,2.73-4.43,6.81-8.3,7.73-3.8,1.03-8.01,1.42-13.95-.79l-1.03-1.55c.28-6.33,2.28-10.06,4.7-13.16,2.36-3.2,6.8-3.25,10.35-4.64l10.87-3.86c3.66-.92,7.88-2.73,12.21-2.2l.42,1.81Z"/>
                  <path class="cls-31" d="m3298.49,3441.26c-2.87,1.15-4.16,6.03-6.56,9.89l-6.94,11.48c-2.4,3.74-3.63,8.58-7.62,10.84-3.9,2.34-8.35,4.16-15.08,3.85l-1.36-1.27c-.74-6.69.79-11.25,2.87-15.29,2-4.12,6.75-5.66,10.33-8.3l11.01-7.66,5.81-3.59c1.94-1.24,4.96-2.98,7.84-1.77l-.31,1.83Z"/>
                </g>
                <g>
                  <path class="cls-31" d="m3320.24,3273.49c15.65,122.4-70.89,234.32-193.29,249.97-122.4,15.65-234.32-70.89-249.97-193.29-15.65-122.4,70.89-234.32,193.29-249.97,122.4-15.65,234.32,70.89,249.97,193.29Z"/>
                  <path class="cls-25" d="m3122.67,3489.97c-103.74,13.26-198.93-60.34-212.2-164.09-13.26-103.74,60.34-198.93,164.09-212.2,103.74-13.27,198.93,60.34,212.2,164.09,13.26,103.74-60.35,198.93-164.09,212.2Z"/>
                  <path class="cls-31" d="m3109.76,3389.06c-48.1,6.15-92.23-27.98-98.38-76.08-6.15-48.1,27.98-92.23,76.08-98.38,48.1-6.15,92.24,27.98,98.38,76.08,6.15,48.1-27.98,92.24-76.08,98.38Z"/>
                  <path class="cls-31" d="m3083.64,3162.52c3.58,5.5,6.22,11.13,8.7,16.77,1.18,2.83,3.95,5.46,2.97,8.56-.86,3.09-2.47,6.27-7.18,9.86l-1.84.24c-5.45-2.28-7.81-4.96-9.42-7.74-1.73-2.76.29-6,.72-9.03.99-6.09,2.12-12.19,4.21-18.42l1.84-.24Z"/>
                  <path class="cls-31" d="m3006.5,3169.58c.43,1.36,4.83,4.46,7.53,7.07l8.49,8.45c2.72,2.88,6.82,4.91,7.7,8.94.98,3.96,1.31,8.31-1.01,14.3l-1.58.98c-6.39-.62-10.14-2.87-13.23-5.52-3.2-2.59-3.18-7.16-4.53-10.89l-3.74-11.38-1.54-5.89c-.16-1.49-2.29-5.02.69-7.45l1.23,1.39Z"/>
                  <path class="cls-31" d="m2939.15,3259.15c9.15,1.18,17.94,4.04,26.42,7.77,4.18,1.91,9.36,2.78,12.09,6.77,2.76,3.87,4.91,8.46,4.52,15.2l-1.29,1.34c-6.66.69-11.03-.5-15-2.14-4.01-1.52-5.79-5.88-8.78-8.93-5.84-6.17-12.18-12.05-18.76-18.33l.8-1.68Z"/>
                  <path class="cls-31" d="m2957.68,3395.09c3.91-6.44,8.31-12.05,12.77-17.53,2.27-2.68,3.56-6.64,7.13-7.58,3.5-1.04,7.46-1.47,13.38.52l1.14,1.47c.37,6.09-1.23,9.76-3.28,12.83-1.99,3.16-6.25,3.31-9.53,4.73-6.65,2.73-13.35,5.32-20.54,7.09l-1.07-1.52Z"/>
                  <path class="cls-31" d="m3058.04,3463.04l1.24-22.37c.23-3.62-1.23-7.55.87-10.6,2-3.11,4.64-6.09,10.29-8.82l1.83.31c4.44,4.49,5.64,8.69,5.99,12.71.45,4.08-2.88,7.23-4.73,10.64-3.85,6.81-8.23,13.26-13.79,18.88l-1.71-.74Z"/>
                  <path class="cls-31" d="m3154.91,3459.34c-1.29-7.41-5.58-12.28-9.61-18.83-1.98-3.21-5.47-5.89-5.4-9.82-.04-3.89.64-8.03,4.26-13.19l1.76-.61c6.05,1.79,9.15,4.61,11.54,7.68,2.5,3.03,1.43,7.3,1.89,11.05.7,7.15,2.17,16.89-2.63,24.17l-1.8-.45Z"/>
                  <path class="cls-31" d="m3222.33,3398.7c-.43-.83-4.47-2.38-7.67-4.16l-9.27-5.52c-3-1.92-7.16-2.73-8.6-6.16-1.53-3.36-2.52-7.24-1.28-13.3l1.33-1.3c6.09-1.08,9.95,0,13.26,1.63,3.4,1.54,4.09,5.71,5.94,8.76l5.27,9.41,2.36,4.98c.74,1.51,2.9,4.98-.3,7.2l-1.05-1.53Z"/>
                  <path class="cls-31" d="m3272.7,3313.36c-8.79.56-17.32.21-25.82-.29-4.23-.32-8.88.92-12.54-1.49-3.69-2.3-7.18-5.32-9.85-11.36l.49-1.79c5.36-3.84,9.91-4.68,14.25-4.79,4.38-.22,7.76,3.21,11.57,5.08,7.58,3.88,15.11,7.91,22.4,12.85l-.49,1.79Z"/>
                  <path class="cls-31" d="m3239.27,3213c-3.01,2.26-4.96,4.99-7.49,8.13l-7.78,8.51c-2.66,2.73-4.43,6.81-8.3,7.73-3.8,1.03-8.01,1.42-13.95-.79l-1.03-1.55c.28-6.33,2.28-10.06,4.7-13.16,2.35-3.2,6.8-3.25,10.35-4.64l10.87-3.86c3.66-.92,7.88-2.73,12.21-2.2l.42,1.81Z"/>
                  <path class="cls-31" d="m3185.7,3165.24c-2.87,1.15-4.15,6.03-6.56,9.89l-6.94,11.48c-2.4,3.74-3.63,8.58-7.62,10.84-3.9,2.34-8.35,4.16-15.08,3.84l-1.36-1.27c-.74-6.69.79-11.25,2.87-15.29,2-4.12,6.75-5.66,10.33-8.3l11.01-7.66,5.81-3.59c1.94-1.24,4.96-2.98,7.84-1.77l-.32,1.83Z"/>
                </g>
              </g>
              <g>
                <circle class="cls-23" cx="2523.51" cy="3106.05" r="197.06" transform="translate(-1457.19 2694.13) rotate(-45)"/>
                <path class="cls-16" d="m2678.24,2965.28c77.62,85.32,71.36,217.87-13.95,295.49-85.32,77.62-217.87,71.36-295.49-13.95-77.62-85.32-71.36-217.87,13.95-295.49,85.32-77.62,217.87-71.36,295.49,13.95Zm-298.54,271.62c72.15,79.3,195.36,85.12,274.66,12.97,79.3-72.15,85.12-195.36,12.97-274.66-72.15-79.3-195.36-85.12-274.66-12.97-79.3,72.15-85.12,195.36-12.97,274.66Z"/>
                <g>
                  <g>
                    <path class="cls-23" d="m2424.95,3248.38c-9.72,5.85-60.52-49.57-50.62-60.26,9.9-10.68,103.11-74.55,112.07-69.32,8.97,5.24,28.57,17.54,21.24,32.58-7.33,15.04-69.11,88.82-82.69,96.99Z"/>
                    <path class="cls-13" d="m2499.45,3133.16c-6.2,16.8-25.23,50.3-42.76,49.51-17.53-.79-28.74-9.01-5.7-28.85,23.04-19.85,33.35-27,38.64-27.34,5.29-.35,9.82,6.69,9.82,6.69Z"/>
                  </g>
                  <g>
                    <path class="cls-23" d="m2597.49,3262.58c.21,11.34-73.19,27.62-77.49,13.71-4.3-13.91-13.01-126.57-4-131.71,9.02-5.15,29.47-15.97,38.83-2.1,9.36,13.87,42.37,104.26,42.66,120.11Z"/>
                    <path class="cls-13" d="m2534.96,3140.44c11.45,13.77,30.95,46.99,21.49,61.78-9.45,14.79-22.17,20.39-27.84-9.49-5.67-29.88-6.7-42.38-4.36-47.13,2.34-4.75,10.7-5.16,10.7-5.16Z"/>
                  </g>
                  <g>
                    <path class="cls-23" d="m2696.06,3120.24c9.92,5.49-12.68,77.2-26.87,73.97-14.2-3.23-116.12-52.01-116.07-62.4.05-10.38.91-33.51,17.6-34.68,16.69-1.17,111.48,15.44,125.34,23.11Z"/>
                    <path class="cls-13" d="m2559.02,3113.33c17.65-3.03,56.17-3.3,64.25,12.28,8.08,15.58,6.57,29.4-22.14,19.37-28.71-10.03-40.05-15.39-43-19.79-2.95-4.41.88-11.85.88-11.85Z"/>
                  </g>
                  <g>
                    <path class="cls-23" d="m2622.08,2963.71c9.72-5.85,60.52,49.58,50.62,60.26-9.9,10.68-103.1,74.55-112.07,69.32-8.97-5.23-28.57-17.54-21.24-32.58,7.33-15.04,69.1-88.82,82.69-97Z"/>
                    <path class="cls-13" d="m2547.58,3078.94c6.2-16.8,25.23-50.3,42.76-49.51,17.53.79,28.74,9.01,5.7,28.85-23.04,19.85-33.35,27-38.64,27.34-5.29.35-9.82-6.69-9.82-6.69Z"/>
                  </g>
                  <g>
                    <path class="cls-23" d="m2449.53,2949.52c-.2-11.34,73.19-27.62,77.49-13.71,4.3,13.91,13.01,126.57,3.99,131.72-9.02,5.15-29.47,15.97-38.83,2.1-9.36-13.87-42.37-104.26-42.66-120.11Z"/>
                    <path class="cls-13" d="m2512.07,3071.65c-11.45-13.77-30.94-47-21.49-61.78,9.45-14.79,22.17-20.39,27.84,9.49,5.67,29.88,6.7,42.38,4.36,47.13-2.34,4.75-10.7,5.16-10.7,5.16Z"/>
                  </g>
                  <g>
                    <path class="cls-23" d="m2350.96,3091.85c-9.92-5.49,12.68-77.2,26.88-73.96,14.2,3.23,116.12,52.01,116.07,62.4-.05,10.38-.9,33.51-17.6,34.68-16.69,1.17-111.48-15.44-125.34-23.11Z"/>
                    <path class="cls-13" d="m2488.01,3098.76c-17.65,3.03-56.17,3.3-64.25-12.28-8.08-15.58-6.57-29.4,22.14-19.37,28.71,10.03,40.05,15.39,43,19.79,2.94,4.41-.88,11.85-.88,11.85Z"/>
                  </g>
                </g>
                <path class="cls-13" d="m2668.81,2973.87c72.88,80.11,67.01,204.58-13.11,277.47-80.11,72.89-204.58,67.01-277.46-13.1-72.89-80.12-67.01-204.58,13.1-277.47,80.12-72.89,204.59-67.01,277.48,13.1Zm-280.88,255.55c68.02,74.76,184.18,80.24,258.94,12.22,74.77-68.02,80.25-184.19,12.24-258.95-68.02-74.76-184.19-80.25-258.95-12.23-74.76,68.02-80.24,184.18-12.22,258.95Z"/>
              </g>
              <g>
                <circle class="cls-23" cx="2691.17" cy="2984.13" r="197.06" transform="translate(-1321.88 2776.98) rotate(-45)"/>
                <path class="cls-16" d="m2845.9,2843.37c77.62,85.32,71.36,217.87-13.95,295.49-85.32,77.62-217.87,71.36-295.49-13.95-77.62-85.32-71.36-217.87,13.95-295.49,85.32-77.62,217.87-71.36,295.49,13.95Zm-298.54,271.62c72.15,79.3,195.36,85.12,274.66,12.97,79.3-72.15,85.12-195.36,12.97-274.66-72.15-79.3-195.36-85.12-274.66-12.97-79.3,72.15-85.12,195.36-12.97,274.66Z"/>
                <g>
                  <g>
                    <path class="cls-23" d="m2592.61,3126.47c-9.72,5.85-60.52-49.58-50.62-60.26,9.9-10.68,103.11-74.55,112.07-69.32,8.97,5.24,28.57,17.54,21.23,32.58-7.33,15.04-69.1,88.82-82.69,96.99Z"/>
                    <path class="cls-13" d="m2667.11,3011.24c-6.2,16.8-25.23,50.3-42.76,49.51-17.53-.79-28.74-9.01-5.7-28.85,23.04-19.85,33.35-27,38.64-27.34,5.29-.35,9.82,6.69,9.82,6.69Z"/>
                  </g>
                  <g>
                    <path class="cls-23" d="m2765.15,3140.66c.2,11.34-73.19,27.62-77.49,13.71-4.3-13.91-13.01-126.57-4-131.71,9.02-5.15,29.47-15.97,38.83-2.1,9.36,13.87,42.37,104.26,42.66,120.11Z"/>
                    <path class="cls-13" d="m2702.62,3018.53c11.45,13.77,30.94,47,21.49,61.78-9.45,14.79-22.17,20.39-27.84-9.49-5.67-29.88-6.7-42.38-4.36-47.13,2.34-4.75,10.7-5.16,10.7-5.16Z"/>
                  </g>
                  <g>
                    <path class="cls-23" d="m2863.72,2998.33c9.92,5.49-12.68,77.2-26.88,73.96-14.2-3.23-116.12-52.01-116.07-62.4.05-10.38.9-33.51,17.6-34.68,16.69-1.17,111.48,15.44,125.34,23.11Z"/>
                    <path class="cls-13" d="m2726.68,2991.42c17.65-3.03,56.17-3.3,64.25,12.28,8.08,15.58,6.57,29.4-22.14,19.37-28.71-10.03-40.05-15.39-43-19.79-2.94-4.41.88-11.85.88-11.85Z"/>
                  </g>
                  <g>
                    <path class="cls-23" d="m2789.74,2841.8c9.72-5.85,60.52,49.58,50.62,60.26-9.9,10.68-103.1,74.55-112.07,69.32-8.97-5.24-28.57-17.54-21.23-32.58,7.33-15.04,69.1-88.82,82.69-96.99Z"/>
                    <path class="cls-13" d="m2715.23,2957.02c6.2-16.8,25.23-50.3,42.76-49.51,17.53.79,28.74,9.01,5.7,28.85-23.04,19.85-33.35,27-38.64,27.34-5.29.35-9.82-6.69-9.82-6.69Z"/>
                  </g>
                  <g>
                    <path class="cls-23" d="m2617.19,2827.6c-.2-11.34,73.19-27.62,77.49-13.71,4.3,13.91,13.01,126.57,4,131.71-9.02,5.15-29.47,15.97-38.83,2.1-9.36-13.87-42.37-104.26-42.66-120.11Z"/>
                    <path class="cls-13" d="m2679.73,2949.74c-11.45-13.77-30.94-47-21.49-61.78,9.45-14.79,22.17-20.39,27.84,9.49,5.67,29.88,6.7,42.38,4.36,47.13-2.34,4.75-10.7,5.16-10.7,5.16Z"/>
                  </g>
                  <g>
                    <path class="cls-23" d="m2518.63,2969.94c-9.92-5.49,12.68-77.2,26.87-73.97,14.2,3.23,116.12,52.01,116.07,62.4-.05,10.38-.91,33.51-17.6,34.68-16.69,1.17-111.48-15.44-125.34-23.11Z"/>
                    <path class="cls-13" d="m2655.67,2976.85c-17.65,3.03-56.17,3.3-64.25-12.28-8.08-15.58-6.57-29.4,22.14-19.37,28.71,10.03,40.06,15.39,43,19.79,2.94,4.41-.88,11.85-.88,11.85Z"/>
                  </g>
                </g>
                <path class="cls-13" d="m2836.47,2851.96c72.88,80.11,67.01,204.57-13.11,277.46-80.11,72.89-204.58,67.01-277.46-13.1-72.89-80.12-67.02-204.58,13.1-277.47,80.12-72.89,204.58-67.01,277.48,13.1Zm-280.88,255.55c68.01,74.76,184.18,80.24,258.94,12.22,74.77-68.02,80.25-184.19,12.24-258.95-68.02-74.77-184.19-80.25-258.96-12.23-74.76,68.02-80.25,184.19-12.22,258.95Z"/>
              </g>
            </g>
            <g>
              <path class="cls-30" d="m1721.19,2952.72c-210.78,0-382.27-171.48-382.27-382.26s171.49-382.27,382.27-382.27,382.27,171.49,382.27,382.27-171.48,382.26-382.27,382.26Z"/>
              <circle class="cls-9" cx="1721.19" cy="2570.46" r="345.6"/>
              <g>
                <path class="cls-15" d="m1623.94,2320.34l97.02,229.86,97.9-229.49c8.35-19.57-5.99-41.32-27.26-41.36l-140.23-.27c-21.28-.04-35.7,21.65-27.42,41.25Z"/>
                <path class="cls-15" d="m1818.43,2820.58l-97.02-229.86-97.9,229.49c-8.35,19.57,5.99,41.32,27.26,41.36l140.23.27c21.28.04,35.7-21.65,27.42-41.25Z"/>
                <path class="cls-15" d="m1971.31,2473.21l-229.86,97.02,229.49,97.9c19.57,8.35,41.32-5.99,41.36-27.26l.27-140.23c.04-21.28-21.65-35.7-41.25-27.42Z"/>
                <path class="cls-15" d="m1471.07,2667.7l229.86-97.02-229.49-97.9c-19.57-8.35-41.32,5.99-41.36,27.26l-.27,140.23c-.04,21.28,21.65,35.7,41.25,27.42Z"/>
                <path class="cls-15" d="m1971.19,2682.87l-231.14-93.94,93.05,231.5c7.94,19.74,33.45,24.98,48.52,9.97l99.34-98.96c15.08-15.02,9.93-40.55-9.78-48.56Z"/>
                <path class="cls-15" d="m1471.18,2458.04l231.14,93.94-93.05-231.5c-7.94-19.74-33.45-24.98-48.52-9.97l-99.35,98.96c-15.08,15.02-9.93,40.55,9.78,48.56Z"/>
                <path class="cls-15" d="m1608.77,2820.46l93.94-231.14-231.5,93.05c-19.74,7.94-24.98,33.45-9.97,48.52l98.96,99.34c15.02,15.08,40.55,9.93,48.56-9.78Z"/>
                <path class="cls-15" d="m1833.6,2320.45l-93.94,231.14,231.5-93.05c19.74-7.94,24.98-33.45,9.97-48.52l-98.96-99.34c-15.02-15.08-40.55-9.93-48.56,9.78Z"/>
              </g>
            </g>
            <g>
              <path class="cls-30" d="m1275.6,3094.43c-210.78,0-382.27-171.48-382.27-382.26s171.49-382.26,382.27-382.26,382.27,171.48,382.27,382.26-171.49,382.26-382.27,382.26Z"/>
              <circle class="cls-9" cx="1275.6" cy="2712.17" r="345.6" transform="translate(-1544.18 1696.36) rotate(-45)"/>
              <g>
                <path class="cls-15" d="m1172.98,2448.23l102.38,242.57,103.31-242.17c8.81-20.66-6.32-43.6-28.77-43.65l-147.97-.28c-22.46-.04-37.67,22.85-28.94,43.53Z"/>
                <path class="cls-15" d="m1378.22,2976.11l-102.38-242.57-103.31,242.17c-8.81,20.66,6.32,43.6,28.77,43.65l147.97.28c22.46.04,37.67-22.85,28.94-43.53Z"/>
                <path class="cls-15" d="m1539.54,2609.55l-242.57,102.38,242.17,103.31c20.65,8.81,43.6-6.32,43.65-28.77l.28-147.97c.04-22.46-22.85-37.67-43.53-28.94Z"/>
                <path class="cls-15" d="m1011.66,2814.79l242.57-102.38-242.17-103.31c-20.65-8.81-43.6,6.32-43.65,28.77l-.28,147.97c-.04,22.46,22.85,37.67,43.53,28.94Z"/>
                <path class="cls-15" d="m1539.42,2830.79l-243.91-99.13,98.19,244.29c8.37,20.84,35.3,26.36,51.21,10.52l104.83-104.43c15.91-15.85,10.48-42.79-10.32-51.25Z"/>
                <path class="cls-15" d="m1011.78,2593.54l243.91,99.13-98.19-244.29c-8.37-20.84-35.3-26.36-51.2-10.52l-104.84,104.43c-15.91,15.85-10.48,42.79,10.32,51.25Z"/>
                <path class="cls-15" d="m1156.97,2975.99l99.13-243.91-244.29,98.19c-20.84,8.38-26.36,35.3-10.52,51.21l104.43,104.84c15.85,15.91,42.79,10.48,51.25-10.32Z"/>
                <path class="cls-15" d="m1394.22,2448.35l-99.13,243.91,244.29-98.19c20.84-8.38,26.36-35.3,10.52-51.21l-104.43-104.84c-15.85-15.91-42.79-10.48-51.25,10.32Z"/>
              </g>
            </g>
            <g>
              <path d="m1158.87,4719.1c16.57,7.2,33.72,13.14,50.79,18.03,139.1,36.72,282.35,65.14,424.59,94.26,175.21,35.86,348.57,83.08,513.56,64.63,94.2-10.53,182.86-43.81,277.74-56.81,152.52-20.9,296.5,8.74,397.62-161.9,56.29-95,76.9-211.38,84.11-325.36,6.56-103.88,24.15-289.77-32.36-377.19-44.3-68.52-118.75-84.39-189.06-76.03-67.66,8.04-130.67,55.48-198.24,73.87-77.62,20.08-157.36,20.01-237.04-5.6-164.64-52.92-331.78-180.87-503.87-202.36-179.85-22.46-365.32,2.96-534.94,75.91-54.33,23.37-116.2,31.41-166.1,60.44-40.25,22.18-78.99,68.63-86.96,123.89-4.81,33.35,2.03,66.02,11.05,96.36,15.27,51.41,36.74,99.6,52.82,152.79,33.05,109.35,1.77,212.39,19.17,312.36,12.47,71.64,61.72,108.62,117.12,132.7Z"/>
              <path class="cls-29" d="m1155.5,4595.57c16.29,6.27,33.16,11.46,49.95,15.71,136.78,32.01,277.64,56.78,417.51,82.16,172.29,31.26,342.76,72.41,505,56.34,92.63-9.18,179.81-38.19,273.11-49.52,149.97-18.22,291.56,7.62,390.99-141.12,55.35-82.8,75.62-184.24,82.71-283.59,6.46-90.54,23.75-252.57-31.83-328.77-43.56-59.72-116.77-73.56-185.9-66.27-66.53,7.01-128.49,48.36-194.93,64.39-76.33,17.5-154.73,17.44-233.09-4.88-161.89-46.13-326.25-157.65-495.47-176.38-176.85-19.57-359.23,2.58-526.02,66.16-53.43,20.37-114.27,27.38-163.33,52.68-39.58,19.33-77.67,59.82-85.51,107.98-4.73,29.06,2,57.55,10.86,83.99,15.02,44.81,36.13,86.81,51.94,133.18,32.5,95.31,1.74,185.13,18.85,272.27,12.26,62.44,60.69,94.68,115.17,115.67Z"/>
              <path class="cls-1" d="m2091.64,3919.7c-48.11-25.78-109.5-39.01-162.41-53.18-50.41-13.5-97.34-33.48-146.03-49.76-78.65-26.29-189-21.96-271.06-17.41-52.45,2.91-98.31,20.65-149.79,30.79-66.76,13.14-134.93,28.56-200.04,48.42-60.94,18.6-144.21,51.58-167.76,112.39-26.24,67.75,16.65,113.53,49.01,171.52,13.67,24.5,32.08,118.29,73.81,106.74,11.68-99.69-59.4-211.16,2.18-305.21,20.26-30.94,34.86-56.53,75.7-58.42,43.61-2.01,69.73,43.06,101.48,67.57,28.08-14.14,27.09-47.1,44.92-69.9,22.8-29.16,65.97-35.53,100.5-43.72,55.57-13.18,86.09-2.31,118.37,37.36,18.89,23.21,42.47,36.26,69.35,14.6,10.63-8.57,12.62-25.77,22.7-33.76,22.46-17.81,55.11-10.43,80.7-3.09,59.36,17.03,79.31,74.62,110.75,123.56,20.47,31.86,63.23,77.08,92.71,24.49,22.6-40.31,8.01-79.57,66.46-73.35,43.9,4.67,87.18,12.64,128.24,29.42,21.72,8.88,43.39,17.22,66.74,21.56,32.35,6.01,92.74,18.26,118.01-7.83-24.46-32.26-93.42-40.05-130.94-50.42-37.74-10.43-82.63-16.37-118.78-30.76"/>
              <g class="cls-21">
                <path class="cls-10" d="m1334.75,4527.57c-95.96-182.03-156.38-375.93-184.76-579.61-1.09-7.87,26.05-16.8,29.69-9.48,91.37,183.71,158.59,375.28,185.92,579.24,1.15,8.56-27.04,17.07-30.84,9.85Z"/>
              </g>
              <g class="cls-21">
                <path class="cls-10" d="m1581.27,4543.67c-103.26-207.2-170.95-426.23-206.57-654.87-1.37-8.84,25.79-17.71,29.72-9.39,98.67,208.89,173.17,425.59,207.73,654.51,1.45,9.61-26.78,17.97-30.87,9.76Z"/>
              </g>
              <g class="cls-21">
                <path class="cls-10" d="m1848.36,4619.42c-107.27-219.29-168.92-456.99-186.06-700.26-.67-9.39,27.17-15.81,30.44-6.69,81.68,228.73,148.33,457.22,186.49,697.18,1.59,10.08-26.64,18.48-30.87,9.77Z"/>
              </g>
              <g class="cls-21">
                <path class="cls-10" d="m2131.28,4605.18c-100.63-181.74-146.71-389.99-137.36-596.93.33-7.97,28.63-11.91,30.9-4.03,56.39,197.36,105.78,387.8,137.08,590.45,1.28,8.52-26.67,17.74-30.62,10.51Z"/>
              </g>
              <g class="cls-21">
                <path class="cls-10" d="m2456.84,4544.2c-102.11-154.14-154.48-336.14-154.93-520.43-.04-7.1,27.92-12.94,30.56-6.15,65.35,170.3,120.16,335.18,154.35,514.32,1.41,7.53-25.95,18.39-29.97,12.26Z"/>
              </g>
              <g class="cls-21">
                <path class="cls-10" d="m2665.82,4446.39c-78.01-129.1-112.12-276.8-103.06-426.9.34-5.79,28.43-11,30.68-5.51,56.01,137.82,94.69,273.78,103.3,422.77.35,6.26-27.84,14.76-30.91,9.63Z"/>
              </g>
              <g class="cls-3">
                <path class="cls-14" d="m2020.97,3956.01c-2,0-4.03-.36-6.01-1.12-19.48-7.46-38.87-15.44-58.23-23.4-23.73-9.76-48.28-19.85-72.3-28.66-208.48-76.48-446.9-74.64-654.17,5.06-8.64,3.31-18.38-.99-21.71-9.65-3.32-8.66.99-18.38,9.65-21.71,214.76-82.57,461.81-84.47,677.78-5.24,24.64,9.04,49.49,19.25,73.52,29.14,19.12,7.86,38.26,15.74,57.48,23.11,8.66,3.32,12.99,13.03,9.67,21.69-2.56,6.68-8.93,10.79-15.68,10.79Z"/>
              </g>
              <g class="cls-3">
                <path class="cls-14" d="m2195.28,3995.23c-35.16,0-72.43-5.78-113.29-17.52-8.92-2.56-14.07-11.86-11.51-20.77,2.57-8.92,11.88-14.12,20.77-11.51,45.46,13.05,85.75,18.12,123.22,15.55,9.49-.55,17.28,6.35,17.92,15.59.64,9.26-6.34,17.28-15.59,17.92-7.09.49-14.26.74-21.53.74Z"/>
              </g>
              <g class="cls-3">
                <path class="cls-14" d="m2795.06,4055.25c-7.68,0-14.61-5.31-16.37-13.11-7.66-34.08-32.25-64.02-64.2-78.14-31.95-14.13-70.67-12.16-101,5.12-8.09,4.58-18.32,1.76-22.9-6.29-4.58-8.06-1.77-18.32,6.29-22.9,39.45-22.42,89.72-24.98,131.2-6.64,41.49,18.34,73.45,57.23,83.39,101.5,2.03,9.05-3.66,18.03-12.7,20.07-1.24.28-2.48.41-3.7.41Z"/>
              </g>
              <path class="cls-1" d="m2855.78,4023.27c-33.06-75.14-95.5-109.43-174.91-117.59-85.77-8.81-158.05,49.08-233.75,75.6-49.82,17.45-6.19,66.23,16.04,100.6,21.01-39.75,48.07-89.21,95.95-94.44,66.23-7.23,131.1,23.7,149.73,87.48,19.95,68.32,43.84,144.4,75.71,207.36,10.31,20.38,25.31,32.54,45.29,15.82,32.2-26.92,15.84-103.47,15.38-137.79-.68-51.29,11.08-103.86-.63-153.85"/>
              <path class="cls-1" d="m2248.39,4238.79c44.47,64.46,54.16,155.28,97.97,223.37,18.42,28.63,36.83,56.9,53.95,86.69,7.17,12.48,27.43,35.85,26.98,49.86-1.97,61.72-112.11,48.45-130.73,4.58-7.95-18.74-4.38-39.25-6.19-58.78-2.53-27.46-14.07-49.36-25.12-74.46-26.82-60.92-57.11-130.21-70.8-195.64-4.93-23.54-23.37-109.31,20.35-96.56,32.12,9.36,36.27,61.41,47.59,86.13"/>
              <path class="cls-1" d="m2004.87,4630.66c-14.93-10.71-18.8-36.02-25.13-53.06-22.7-61.13-39.4-122.95-58.27-185.5-11.31-37.49-22.87-118.54-50.96-149.04-42.66,74.95,49.36,169.46,60.28,243.69,5.27,35.81,11.15,57.63,24.88,91.9,11.33,28.27,19.2,33.28,38,52.02"/>
              <path class="cls-1" d="m1680.18,4571.88c-31.14-77.7-54.33-154.89-72.7-237.68-11.12-50.13-22.45-95.18-43.46-141.32-16.01-35.16-25.31-72.5-39.88-108.23-9.38-22.99-28.23-49.45-25.47-74.94,48.34,4.86,77.77,79.84,95.22,117.13,23.22,49.6,28.58,102.84,47.2,153.24,33.19,89.84,90.37,168.77,103.39,264.36,2.81,20.65,25.14,94.81-13.88,91.39-19.11-1.67-50.56-61.94-61.63-77.94"/>
              <path class="cls-1" d="m1355.49,4277.98c28.01,39.44,44.76,118.32,53.28,166.3,5.97,33.64,5.22,74.83,28.59,101.98,36.29-26.56-20.95-117.26-25.78-151.04-6.35-44.42-14.17-102.97-39.22-139.98-8.05,3.86-8.32,8.97-8.47,17.14"/>
            </g>
            <g class="cls-19">
              <path class="cls-5" d="m1158.87,4719.1c16.57,7.2,33.72,13.14,50.79,18.03,139.1,36.72,282.35,65.14,424.59,94.26,175.21,35.86,348.57,83.08,513.56,64.63,94.2-10.53,182.86-43.81,277.74-56.81,152.52-20.9,296.5,8.74,397.62-161.9,56.29-95,76.9-211.38,84.11-325.36,6.56-103.88,24.15-289.77-32.36-377.19-44.3-68.52-118.75-84.39-189.06-76.03-67.66,8.04-130.67,55.48-198.24,73.87-77.62,20.08-157.36,20.01-237.04-5.6-164.64-52.92-331.78-180.87-503.87-202.36-179.85-22.46-365.32,2.96-534.94,75.91-54.33,23.37-116.2,31.41-166.1,60.44-40.25,22.18-78.99,68.63-86.96,123.89-4.81,33.35,2.03,66.02,11.05,96.36,15.27,51.41,36.74,99.6,52.82,152.79,33.05,109.35,1.77,212.39,19.17,312.36,12.47,71.64,61.72,108.62,117.12,132.7Z"/>
              <path class="cls-5" d="m1155.5,4595.57c16.29,6.27,33.16,11.46,49.95,15.71,136.78,32.01,277.64,56.78,417.51,82.16,172.29,31.26,342.76,72.41,505,56.34,92.63-9.18,179.81-38.19,273.11-49.52,149.97-18.22,291.56,7.62,390.99-141.12,55.35-82.8,75.62-184.24,82.71-283.59,6.46-90.54,23.75-252.57-31.83-328.77-43.56-59.72-116.77-73.56-185.9-66.27-66.53,7.01-128.49,48.36-194.93,64.39-76.33,17.5-154.73,17.44-233.09-4.88-161.89-46.13-326.25-157.65-495.47-176.38-176.85-19.57-359.23,2.58-526.02,66.16-53.43,20.37-114.27,27.38-163.33,52.68-39.58,19.33-77.67,59.82-85.51,107.98-4.73,29.06,2,57.55,10.86,83.99,15.02,44.81,36.13,86.81,51.94,133.18,32.5,95.31,1.74,185.13,18.85,272.27,12.26,62.44,60.69,94.68,115.17,115.67Z"/>
              <path class="cls-2" d="m2091.64,3919.7c-48.11-25.78-109.5-39.01-162.41-53.18-50.41-13.5-97.34-33.48-146.03-49.76-78.65-26.29-189-21.96-271.06-17.41-52.45,2.91-98.31,20.65-149.79,30.79-66.76,13.14-134.93,28.56-200.04,48.42-60.94,18.6-144.21,51.58-167.76,112.39-26.24,67.75,16.65,113.53,49.01,171.52,13.67,24.5,32.08,118.29,73.81,106.74,11.68-99.69-59.4-211.16,2.18-305.21,20.26-30.94,34.86-56.53,75.7-58.42,43.61-2.01,69.73,43.06,101.48,67.57,28.08-14.14,27.09-47.1,44.92-69.9,22.8-29.16,65.97-35.53,100.5-43.72,55.57-13.18,86.09-2.31,118.37,37.36,18.89,23.21,42.47,36.26,69.35,14.6,10.63-8.57,12.62-25.77,22.7-33.76,22.46-17.81,55.11-10.43,80.7-3.09,59.36,17.03,79.31,74.62,110.75,123.56,20.47,31.86,63.23,77.08,92.71,24.49,22.6-40.31,8.01-79.57,66.46-73.35,43.9,4.67,87.18,12.64,128.24,29.42,21.72,8.88,43.39,17.22,66.74,21.56,32.35,6.01,92.74,18.26,118.01-7.83-24.46-32.26-93.42-40.05-130.94-50.42-37.74-10.43-82.63-16.37-118.78-30.76"/>
              <g class="cls-21">
                <path class="cls-5" d="m1334.75,4527.57c-95.96-182.03-156.38-375.93-184.76-579.61-1.09-7.87,26.05-16.8,29.69-9.48,91.37,183.71,158.59,375.28,185.92,579.24,1.15,8.56-27.04,17.07-30.84,9.85Z"/>
              </g>
              <g class="cls-21">
                <path class="cls-5" d="m1581.27,4543.67c-103.26-207.2-170.95-426.23-206.57-654.87-1.37-8.84,25.79-17.71,29.72-9.39,98.67,208.89,173.17,425.59,207.73,654.51,1.45,9.61-26.78,17.97-30.87,9.76Z"/>
              </g>
              <g class="cls-21">
                <path class="cls-5" d="m1848.36,4619.42c-107.27-219.29-168.92-456.99-186.06-700.26-.67-9.39,27.17-15.81,30.44-6.69,81.68,228.73,148.33,457.22,186.49,697.18,1.59,10.08-26.64,18.48-30.87,9.77Z"/>
              </g>
              <g class="cls-21">
                <path class="cls-5" d="m2131.28,4605.18c-100.63-181.74-146.71-389.99-137.36-596.93.33-7.97,28.63-11.91,30.9-4.03,56.39,197.36,105.78,387.8,137.08,590.45,1.28,8.52-26.67,17.74-30.62,10.51Z"/>
              </g>
              <g class="cls-21">
                <path class="cls-5" d="m2456.84,4544.2c-102.11-154.14-154.48-336.14-154.93-520.43-.04-7.1,27.92-12.94,30.56-6.15,65.35,170.3,120.16,335.18,154.35,514.32,1.41,7.53-25.95,18.39-29.97,12.26Z"/>
              </g>
              <g class="cls-21">
                <path class="cls-5" d="m2665.82,4446.39c-78.01-129.1-112.12-276.8-103.06-426.9.34-5.79,28.43-11,30.68-5.51,56.01,137.82,94.69,273.78,103.3,422.77.35,6.26-27.84,14.76-30.91,9.63Z"/>
              </g>
              <g class="cls-3">
                <path class="cls-5" d="m2020.97,3956.01c-2,0-4.03-.36-6.01-1.12-19.48-7.46-38.87-15.44-58.23-23.4-23.73-9.76-48.28-19.85-72.3-28.66-208.48-76.48-446.9-74.64-654.17,5.06-8.64,3.31-18.38-.99-21.71-9.65-3.32-8.66.99-18.38,9.65-21.71,214.76-82.57,461.81-84.47,677.78-5.24,24.64,9.04,49.49,19.25,73.52,29.14,19.12,7.86,38.26,15.74,57.48,23.11,8.66,3.32,12.99,13.03,9.67,21.69-2.56,6.68-8.93,10.79-15.68,10.79Z"/>
              </g>
              <g class="cls-3">
                <path class="cls-5" d="m2195.28,3995.23c-35.16,0-72.43-5.78-113.29-17.52-8.92-2.56-14.07-11.86-11.51-20.77,2.57-8.92,11.88-14.12,20.77-11.51,45.46,13.05,85.75,18.12,123.22,15.55,9.49-.55,17.28,6.35,17.92,15.59.64,9.26-6.34,17.28-15.59,17.92-7.09.49-14.26.74-21.53.74Z"/>
              </g>
              <g class="cls-3">
                <path class="cls-5" d="m2795.06,4055.25c-7.68,0-14.61-5.31-16.37-13.11-7.66-34.08-32.25-64.02-64.2-78.14-31.95-14.13-70.67-12.16-101,5.12-8.09,4.58-18.32,1.76-22.9-6.29-4.58-8.06-1.77-18.32,6.29-22.9,39.45-22.42,89.72-24.98,131.2-6.64,41.49,18.34,73.45,57.23,83.39,101.5,2.03,9.05-3.66,18.03-12.7,20.07-1.24.28-2.48.41-3.7.41Z"/>
              </g>
              <path class="cls-2" d="m2855.78,4023.27c-33.06-75.14-95.5-109.43-174.91-117.59-85.77-8.81-158.05,49.08-233.75,75.6-49.82,17.45-6.19,66.23,16.04,100.6,21.01-39.75,48.07-89.21,95.95-94.44,66.23-7.23,131.1,23.7,149.73,87.48,19.95,68.32,43.84,144.4,75.71,207.36,10.31,20.38,25.31,32.54,45.29,15.82,32.2-26.92,15.84-103.47,15.38-137.79-.68-51.29,11.08-103.86-.63-153.85"/>
              <path class="cls-2" d="m2248.39,4238.79c44.47,64.46,54.16,155.28,97.97,223.37,18.42,28.63,36.83,56.9,53.95,86.69,7.17,12.48,27.43,35.85,26.98,49.86-1.97,61.72-112.11,48.45-130.73,4.58-7.95-18.74-4.38-39.25-6.19-58.78-2.53-27.46-14.07-49.36-25.12-74.46-26.82-60.92-57.11-130.21-70.8-195.64-4.93-23.54-23.37-109.31,20.35-96.56,32.12,9.36,36.27,61.41,47.59,86.13"/>
              <path class="cls-2" d="m2004.87,4630.66c-14.93-10.71-18.8-36.02-25.13-53.06-22.7-61.13-39.4-122.95-58.27-185.5-11.31-37.49-22.87-118.54-50.96-149.04-42.66,74.95,49.36,169.46,60.28,243.69,5.27,35.81,11.15,57.63,24.88,91.9,11.33,28.27,19.2,33.28,38,52.02"/>
              <path class="cls-2" d="m1680.18,4571.88c-31.14-77.7-54.33-154.89-72.7-237.68-11.12-50.13-22.45-95.18-43.46-141.32-16.01-35.16-25.31-72.5-39.88-108.23-9.38-22.99-28.23-49.45-25.47-74.94,48.34,4.86,77.77,79.84,95.22,117.13,23.22,49.6,28.58,102.84,47.2,153.24,33.19,89.84,90.37,168.77,103.39,264.36,2.81,20.65,25.14,94.81-13.88,91.39-19.11-1.67-50.56-61.94-61.63-77.94"/>
              <path class="cls-2" d="m1355.49,4277.98c28.01,39.44,44.76,118.32,53.28,166.3,5.97,33.64,5.22,74.83,28.59,101.98,36.29-26.56-20.95-117.26-25.78-151.04-6.35-44.42-14.17-102.97-39.22-139.98-8.05,3.86-8.32,8.97-8.47,17.14"/>
            </g>
            <g>
              <g>
                <circle class="cls-17" cx="848.91" cy="3566.45" r="331.06"/>
                <path class="cls-6" d="m848.91,3235.39c182.84,0,331.06,148.22,331.06,331.06s-148.22,331.06-331.06,331.06-331.06-148.22-331.06-331.06,148.22-331.06,331.06-331.06m0-16.79c-191.81,0-347.86,156.05-347.86,347.86s156.05,347.86,347.86,347.86,347.86-156.05,347.86-347.86-156.05-347.86-347.86-347.86h0Z"/>
              </g>
              <circle class="cls-28" cx="848.91" cy="3566.45" r="298.19"/>
              <path class="cls-20" d="m582.91,3576.25c0-164.42,133.77-298.19,298.19-298.19,24.2,0,47.61,3.21,70.15,8.68-31.98-11.74-66.35-18.48-102.34-18.48-164.42,0-298.19,133.77-298.19,298.19,0,140.22,97.41,257.83,228.03,289.51-114.08-41.89-195.84-151.29-195.84-279.71Z"/>
              <path class="cls-4" d="m1102.08,3556.28c0,157.41-128.06,285.47-285.47,285.47-23.17,0-45.58-3.08-67.16-8.31,30.61,11.24,63.52,17.69,97.98,17.69,157.41,0,285.47-128.06,285.47-285.47,0-134.24-93.26-246.83-218.3-277.15,109.21,40.1,187.49,144.83,187.49,267.78Z"/>
            </g>
          </g>
          <rect class="cls-22" width="4000" height="7110"/>
        </g>
      </g>
    </g>
  </g>
</svg>