<?xml version="1.0" encoding="UTF-8"?>
<svg id="Layer_2" data-name="Layer 2" xmlns="http://www.w3.org/2000/svg" viewBox="0 0 2075.38 3688.98">
  <defs>
    <style>
      .cls-1 {
        fill: #ced4da;
      }

      .cls-2 {
        fill: #d7dadd;
      }

      .cls-3 {
        fill: none;
      }

      .cls-4 {
        fill: #e9ecef;
      }
    </style>
  </defs>
  <g id="Layer_1-2" data-name="Layer 1">
    <g>
      <g>
        <path class="cls-4" d="m1093.46,2730.74c-125.91,105.69-282.54,171.15-449.49,173.8-1.15.02-2.21-.1-3.34-.11,14.28,9.85,29.55,19.4,45.95,28.43,73.31,40.37,141.68,56.01,187.84,62.61,11.26,13.59,22.39,20.87,30.74,25.05,10.93,5.47,20.61,7.36,31.87,17.08,6,5.17,10.02,10.48,12.53,14.23,10.42,20.61,23.96,43.73,41.55,67.74,11.49,15.68,23.06,29.5,34.15,41.55,8.71,8.03,32.3,27.49,64.89,27.32,2.76-.01,12.28-.2,22.96-3.42,45.87-13.8,69.51-70.26,86.33-110.43,8.25-19.7,18.9-49.23,26.18-87.09,41.36-3.53,105.47-14.05,176.38-46.99-120.41-39.58-228.87-108.01-308.53-209.78Z"/>
        <path class="cls-1" d="m1239.23,2934.28c-2.39-7.65,58.05-26.58,134.58-69.25,84.47-47.1,147.42-100.18,191-142.5-25.91,51.03-77.19,131.37-170.76,177.59-71.91,35.52-152.16,42.68-154.82,34.15Z"/>
        <path class="cls-1" d="m893.53,2952.65c.97-6.82-47.05-15.83-109.87-35.89-69.67-22.25-142.08-53.14-215.82-95.57,33.05,40.1,94.22,101.19,186.82,125.9,66.42,17.73,137.71,13.73,138.88,5.56Z"/>
        <path class="cls-1" d="m2010.39,1894.95c-6.45,34.55-18.54,62.66-29.82,83.62,2.92,2.62,26.49,24.88,23.87,59.64-2.42,32.94-26.29,51.18-29.82,53.8,2.72,6.35,16.72,41.2,0,77.57-8.77,18.94-22.16,30.22-29.92,35.86,4.03,13,16.62,59.94-6.25,110.41-14.3,31.43-36.07,50.27-48.15,59.34,5.34,7.46,7.15,14.1,7.86,19.04,3.02,23.37-15.72,49.16-47.05,64.88,2.22,1.31,16.62,10.28,19.04,26.9,2.42,17.03-8.86,35.06-28.01,42.51,17.63,8.06,23.07,18.23,24.98,23.17,10.18,25.69-12.49,66.69-61.96,94.39,13.5,16.72,16.42,31.93,17.23,39.89,3.53,35.96-22.57,73.74-65.68,93.99-1.81,10.88-7.96,38.38-31.33,62.76-30.32,31.33-68.1,35.16-77.67,35.76,7.45,12.39,7.65,21.06,6.04,26.9-10.58,38.38-117.87,37.38-129.85,37.27-37.37-.3-67.5-6.75-86.64-11.89,9.17,11.38,18.23,25.89,13.5,34.25-11.49,20.25-95.4-7.46-117.97-14.91-61.66-20.35-153.63-62.96-257.19-161.99-2.32-2.12-4.63-4.43-6.95-6.65-40.8,40.09-121.09,106.18-239.56,132.07-220.52,48.36-393.09-81.9-425.33-107.39-81.7-64.68-126.23-139.53-148.49-184.36,10.48,5.44,20.95,10.98,31.33,16.42-20.05-19.64-61.25-65.38-77.57-136.61-8.97-38.99-7.56-72.84-4.53-96.21-13.1-16.72-33.25-47.05-42.51-89.56-5.14-23.67-5.54-44.53-4.43-60.44-3.93-2.52-35.36-22.77-38.08-59.74-1.31-17.73,4.53-31.63,8.16-38.79-15.51-16.82-34.76-41.91-48.46-76.06-33.14-82.51-10.78-158.67-2.22-183.65-12.19-57.93-23.17-142.65-12.69-244,11.18-109.1,42.92-194.93,68.61-250.75-6.15-19.24-13.8-51.88-8.96-91.78,7.96-65.08,43.82-107.69,58.23-123.11-1.01-16.93-3.83-97.22,56.01-167.94,59.04-69.81,137.31-80.79,154.44-82.81,3.33-25.69,14.71-85.73,62.66-138.82,82.21-90.87,201.28-84.02,217.2-82.81,7.76-13.2,40.5-65.38,105.17-82.81,67.5-18.13,142.65,8.76,191.11,68.61,16.22-15.01,93.29-82.91,205.92-77.57,65.58,3.12,113.84,29.52,137.31,44.73,43.52-3.43,159.47-6.85,280.57,62.76,106.28,61.05,160.48,146.18,182.14,185.06,23.07,14,63.06,42.51,95.5,92.48,40.7,62.76,46.75,124.32,47.75,152.22,5.84,3.12,43.12,23.67,53.7,68.71,8.36,35.36-4.94,63.77-8.97,71.63,18.64,41.91,42.72,110.01,47.75,196.95,5.34,91.17-12.39,164.51-26.8,208.94,14.21,29.52,43.32,100.84,26.8,188.08Z"/>
        <path class="cls-2" d="m1011.94,2667.93c17.05-95.46,33.04-194,47.69-295.51,8.15-56.48,15.64-112.21,22.52-167.16,17.22,24.38,34.44,48.75,51.66,73.13-15.74-34.95-36.85-93.27-41.06-168.65-2.64-47.31,2.14-87.7,7.95-117.9,15.01,12.44,30.02,24.87,45.04,37.31-9.64-23.35-19.41-50.79-27.82-82.09-9.47-35.22-15.13-67.58-18.55-95.52,29.14,5.47,58.28,10.94,87.43,16.42-34.88-82.09-69.76-164.17-104.65-246.26,13.69-50.33,31.7-106.27,55.64-165.66,20.2-50.13,41.47-94.92,62.26-134.32-27.38,13.43-54.75,26.86-82.13,40.3,10.88-17.08,23.99-35.33,39.74-53.73,35.54-41.52,72.23-69.46,102-88.06-41.95-4.97-83.89-9.95-125.84-14.92,22.94-25.88,53.92-55.54,94.05-82.09,19.53-12.92,38.31-23.17,55.63-31.34-49.89-4.48-99.79-8.95-149.68-13.43,2.56-6.44,5.1-12.91,7.62-19.4,37-95.47,66.65-190.12,90.08-283.23-75.07,100.38-150.13,200.76-225.2,301.14-3.97,22.39-7.95,44.77-11.92,67.16-13.58-10.77-27.15-21.55-40.73-32.32-17.91-72.63-35.82-145.27-53.73-217.9-.5,73.13-.99,146.26-1.49,219.39-19.35,6.17-38.69,12.35-58.04,18.52,14.9,52.24,29.8,104.47,44.71,156.71-19.54,26.86-39.08,53.73-58.62,80.59,28.81,5.6,57.62,11.19,86.43,16.79-12.15,46.52-27.94,97.82-48.68,152.23-24.18,63.44-50.34,118.71-75.5,165.66,27.49-10.45,54.97-20.89,82.46-31.34-12.69,101.99-25.39,203.97-38.08,305.96,15.9-2.49,31.79-4.97,47.69-7.46-7.95,75.62-15.9,151.24-23.84,226.86,20.75-3.98,41.51-7.96,62.26-11.94,4.41,68.16,8.83,136.31,13.25,204.47,11.04-7.21,22.08-14.43,33.12-21.64,4.86,61.44,9.71,122.88,14.57,184.32,11.37-15.92,22.74-31.84,34.11-47.76-.77,54.23-1.54,108.45-2.32,162.68Z"/>
        <path class="cls-4" d="m974.37,2553.01c-1.74-.55,2.3-33.73,3.88-85.07,2.05-66.85-1.37-122.03-4.85-159.69-11.31,27.36-22.62,54.72-33.93,82.09,3.51-25.93,6.53-53.84,8.73-83.58,5.33-72.35,4.44-137.47.97-192.53-21.65,27.86-43.3,55.72-64.95,83.58,10.18-27.92,21.43-65.51,29.08-111.94,12.49-75.75,9.78-140.94,5.82-182.08-17.45,24.87-34.9,49.75-52.35,74.62,12.42-40.13,25.26-90.17,34.9-149.25,13.75-84.26,16.39-158.65,15.51-214.92-19.39,14.92-38.78,29.85-58.17,44.77,13.48-31.57,27.34-67.38,40.72-107.46,16.35-49.01,28.97-95.39,38.78-137.31-12.86,2.98-32.83,5.08-56.23-2.98-32.6-11.23-54.89-36.34-65.92-50.74,27.14-3.98,54.29-7.96,81.43-11.94,10.99-19.9,21.97-39.8,32.96-59.7-3.01-17.42-7.56-37.32-14.54-58.21-19.12-57.2-46.51-92-63.98-110.44,20.04,1.59,54.66,8.84,90.16,41.79,15.57,14.46,27.71,30.51,36.84,44.77,10.61-42.74,21.23-85.47,31.84-128.21,26.87-31.89,53.74-63.78,80.61-95.66-11.28,22.99-25.8,59.04-33.93,107.46-3.5,20.85-5.16,40.07-5.82,56.71,14.54-12.93,29.08-25.87,43.63-38.8h41.69c-29.73,27.36-59.46,54.72-89.19,82.09-11.31,36.32-22.62,72.63-33.93,108.95,7.19-10.11,16.79-21.5,29.08-31.34,27.36-21.91,53.29-24.34,67.86-23.88-16.47,11.62-50.58,39.81-78.52,98.5-29.23,61.4-35.91,122.98-37.81,150.74,24.88-23.88,49.76-47.76,74.65-71.64-17.14,54.16-33.51,114.87-47.5,182.08-3.9,18.73-7.44,37.15-10.66,55.22,25.21,51.24,50.41,102.48,75.62,153.72-14.37-15.28-33.78-32.29-58.17-44.77-10.71-5.48-20.82-9.29-30.05-11.94.62,23.25,2.96,53.2,9.69,86.56,10.4,51.51,26.79,88.94,38.78,111.93-15.51-10.45-31.02-20.89-46.53-31.34-1.11,26.87-.65,66.51,7.76,111.93,11.56,62.48,32.5,105.44,45.56,128.35-18.74-8.96-37.49-17.91-56.23-26.86,1.29,43.28,2.59,86.56,3.88,129.85,8.73-12.44,17.45-24.87,26.17-37.31-39.83,266.62-50.99,324.61-53.32,323.87Z"/>
        <path class="cls-1" d="m1075.6,2788.13c-2.32-2.12-4.63-4.43-6.95-6.65-40.8,40.09-121.09,106.18-239.56,132.07-220.52,48.36-393.09-81.9-425.33-107.39-81.7-64.68-126.23-139.53-148.49-184.36,10.48,5.44,20.95,10.98,31.33,16.42-20.05-19.64-61.25-65.38-77.57-136.61-8.97-38.99-7.56-72.84-4.53-96.21-13.1-16.72-33.25-47.05-42.51-89.56-5.14-23.67-5.54-44.53-4.43-60.44-3.93-2.52-35.36-22.77-38.08-59.74-1.31-17.73,4.53-31.63,8.16-38.79-15.51-16.82-34.76-41.91-48.46-76.06-33.14-82.51-10.78-158.67-2.22-183.65-12.19-57.93-23.17-142.65-12.69-244,11.18-109.1,42.92-194.93,68.61-250.75-6.15-19.24-13.8-51.88-8.96-91.78,7.96-65.08,43.82-107.69,58.23-123.11-1.01-16.93-3.83-97.22,56.01-167.94,59.04-69.81,137.31-80.79,154.44-82.81,3.33-25.69,14.71-85.73,62.66-138.82,82.21-90.87,201.28-84.02,217.2-82.81,7.76-13.2,40.5-65.38,105.17-82.81,67.5-18.13,142.65,8.76,191.11,68.61-13.3-5.94-108.4-46.64-196.55,2.62-33.75,18.84-54.9,44.53-67.09,62.66-12.79-2.22-43.32-5.74-71.63,11.28-40.6,24.28-60.14,80.69-44.83,138.72-27.4,12.09-123.81,58.43-172.37,167.94-24.88,56.21-27.8,107.79-26.9,139.53-11.28,9.87-50.67,46.34-59.64,107.49-6.35,42.92,5.44,77.07,11.89,92.48-32.74,101.04-72.43,274.32-35.76,480.64,13.8,77.87,35.76,145.17,58.93,200.68-3.83,7.46-34.05,67.8-4.43,129.86,17.83,37.48,48.05,56.01,60.44,62.66-8.36,22.26-25.49,77.27-11.28,145.57,15.62,74.65,59.24,120.49,76.16,136.5-19.44-4.43-38.79-8.87-58.23-13.4,6.85,13.7,118.07,228.48,349.27,248.53,143.86,12.49,250.14-57.72,282.08-80.59,5.64,18.03,11.18,36.07,16.82,54Z"/>
        <path class="cls-1" d="m2010.39,1894.95c-6.45,34.55-18.54,62.66-29.82,83.62,2.92,2.62,26.49,24.88,23.87,59.64-2.42,32.94-26.29,51.18-29.82,53.8,2.72,6.35,16.72,41.2,0,77.57-8.77,18.94-22.16,30.22-29.92,35.86,4.03,13,16.62,59.94-6.25,110.41-14.3,31.43-36.07,50.27-48.15,59.34,5.34,7.46,7.15,14.1,7.86,19.04,3.02,23.37-15.72,49.16-47.05,64.88,2.22,1.31,16.62,10.28,19.04,26.9,2.42,17.03-8.86,35.06-28.01,42.51,17.63,8.06,23.07,18.23,24.98,23.17,10.18,25.69-12.49,66.69-61.96,94.39,13.5,16.72,16.42,31.93,17.23,39.89,3.53,35.96-22.57,73.74-65.68,93.99-1.81,10.88-7.96,38.38-31.33,62.76-30.32,31.33-68.1,35.16-77.67,35.76,7.45,12.39,7.65,21.06,6.04,26.9-10.58,38.38-117.87,37.38-129.85,37.27-37.37-.3-67.5-6.75-86.64-11.89,9.17,11.38,18.23,25.89,13.5,34.25-11.49,20.25-95.4-7.46-117.97-14.91-61.66-20.35-153.63-62.96-257.19-161.99-2.32-2.12-4.63-4.43-6.95-6.65-3.33-15.82-6.55-31.53-9.87-47.35,28.81,21.76,70.72,51.38,124.21,81.7,54.6,30.93,187.98,106.48,218.51,73.74,6.95-7.35,11.08-23.07-3.22-59.94,120.28,46.04,184.96,60.95,194.03,44.73,4.43-7.86-4.54-23.27-26.8-46.24,20.15-1.21,52.39-6.45,82.01-28.31,52.49-38.79,74.85-113.03,58.23-189.6,6.05,5.04,14.61,10.17,23.88,8.97,32.94-4.33,46.04-85.53,49.26-105.98,5.64-34.96,9.37-93.59-13.4-168.64,22.97-7.15,56.92-21.66,70.12-52.18,27.6-64.07-70.62-118.47-67.19-220.93,2.62-77.87,60.95-90.26,86.64-199.97,14.51-62.16,9.47-116.96,2.92-153.73,14.61-44.12,39.69-141.24,8.96-255.18-14.41-53.7-37.07-95.7-56.72-125.42,4.73-7.76,20.25-35.16,14.91-71.63-4.33-29.92-20.25-49.36-26.8-56.72,7.86-23.77,19.04-68.5,8.96-122.4-18.94-100.54-97.11-153.53-113.44-164.11-16.72-37.48-50.07-98.42-113.44-152.32-106.99-90.77-227.37-100.44-268.48-101.85,43.52-3.43,159.47-6.85,280.57,62.76,106.28,61.05,160.48,146.18,182.14,185.06,23.07,14,63.06,42.51,95.5,92.48,40.7,62.76,46.75,124.32,47.75,152.22,5.84,3.12,43.12,23.67,53.7,68.71,8.36,35.36-4.94,63.77-8.97,71.63,18.64,41.91,42.72,110.01,47.75,196.95,5.34,91.17-12.39,164.51-26.8,208.94,14.21,29.52,43.32,100.84,26.8,188.08Z"/>
      </g>
      <rect class="cls-3" width="2075.38" height="3688.98"/>
    </g>
  </g>
</svg>