<?xml version="1.0" encoding="UTF-8"?>
<svg id="Layer_2" data-name="Layer 2" xmlns="http://www.w3.org/2000/svg" xmlns:xlink="http://www.w3.org/1999/xlink" viewBox="0 0 2079.53 3688.98">
  <defs>
    <style>
      .cls-1 {
        fill: #ced4da;
      }

      .cls-2 {
        clip-path: url(#clippath);
      }

      .cls-3 {
        fill: none;
      }

      .cls-4 {
        fill: #e9ecef;
      }
    </style>
    <clipPath id="clippath">
      <rect class="cls-3" x="0" width="2079.53" height="3688.98"/>
    </clipPath>
  </defs>
  <g id="Layer_1-2" data-name="Layer 1">
    <g class="cls-2">
      <g>
        <path class="cls-1" d="m342.83,1465.31c-8.83-88.18-13.01-188.33-7.71-298.11,2.91-60.17,8.36-116.83,15.42-169.62-19.27,23.56-38.55,47.12-57.83,70.67,9.05-37.67,22.84-82.48,44.33-131.07,21.59-48.8,45.59-89.31,67.46-121.43-28.91,19.92-57.82,39.83-86.74,59.75-.74-17.68-.81-72.84,36.62-127.21,36.82-53.47,87.22-73.22,104.08-79.03-11.32-.41-45.26-3.14-71.32-28.91-32.67-32.31-39.59-87.59-15.42-136.85,13.62,32.11,28.52,38.78,36.62,40.48,35.73,7.49,85.99-50.88,125.28-148.41,1.36,12.57,4.91,28.48,15.42,32.77,27.03,11.03,75.07-65.01,111.79-100.23,52.11-49.97,156.11-89.32,385.49-34.69-10.92-14.13-21.84-28.27-32.77-42.4,24.38,4.72,49.47,10.44,75.17,17.35,129.79,34.88,236.67,89.62,320.6,144.56-16.28-24.41-32.55-48.83-48.83-73.24,19.35,8.11,39.07,17.94,58.79,29.88,138.8,83.99,198.67,224.16,223.91,301.65,7.51-9.3,24.94-28.23,53.97-38.55,43.81-15.58,82.01-.17,91.23,3.85-12.64,3.19-44.1,13-65.53,42.4-18.47,25.33-20.02,52.2-20.56,64.25-3.74,83.41,76.55,129.89,110.51,221.01,30.43,81.64-8.6,112.53-25.7,321.24-7.2,87.84-6.62,159.76-5.14,205.59-113.89,111.6-359.15,316.69-714.44,363.64-153.43,20.28-408.14,53.94-582.09-111.79-96.41-91.85-129.65-208.4-142.63-277.55Z"/>
        <path class="cls-4" d="m470.72,2670.6c-21.73,21.75-55.01,52.94-98.94,86.09-55.54,41.91-121.64,82.06-291.68,152.91-119.87,49.95-246.3,96.37-281.41,109.22-83.74,30.66-150.36,53.44-230.01,107.94-43.47,29.74-76.19,58.92-97.66,79.67-66.58,3.07-161.38,14.45-268.56,52.04-24.13,8.47-160.28,57.45-287.19,161.91-310.99,255.97-356.63,672.35-373.28,824.3-15.96,145.65-8.53,266.42,0,344.37,2.48,15.6,4.89,38.92,2.57,66.82-5.81,69.97-37.31,119.54-48.83,138.78-30.29,50.59-49.32,116.82-87.38,249.28-11.21,39.03-20.62,81.82-33.41,398.34-10.85,268.37-4.59,249.91-12.85,305.82-18.3,123.87-51.2,229.13-97.66,377.78-29.62,94.76-52.75,159.23-61.68,185.04-21.74,62.84-94.35,286.8-107.94,806.96-5.64,215.86,4.87,253.58,12.85,621.92,6.09,280.84,5.43,510.54,3.85,663.04-18.63,60.35-19.41,108.55-16.71,141.35,7.18,87.18,44.3,130.28,43.69,226.15-.23,36.29-5.78,65.88-10.28,84.81-12.82,84.4-23.02,177.25-28.27,277.55-4.35,83.09-4.77,161.29-2.57,233.86-6.17,9.08-14.42,23.91-17.99,43.69-7.18,39.83,9.73,71.32,15.42,80.95,22.19,40.53,36.61,75.09,45.62,98.94,24.33,64.44,27.89,100.26,55.9,186.96,11.19,34.65,21.48,62.53,28.27,80.31,2.34,8.99,5.95,19.09,11.56,29.55,20.18,37.6,53.41,55.67,69.39,62.96,16.28,4.28,32.56,8.57,48.83,12.85,5.88,6.59,13.09,13.67,21.84,20.56,20.66,16.28,41.38,24.86,56.54,29.55,96.22,24.16,192.45,48.32,288.67,72.48,19.22,5.04,39.42-.6,51.85-14.65,15.41-17.43,16.42-45,1.28-65.53-67.67-62.11-135.35-124.21-203.02-186.32-15.42-146.91-30.84-293.83-46.26-440.74,11.85-3.48,28.56-9.89,45.94-22.17,23.52-16.61,37.2-36.12,44.33-48.19,31.8,124.64,63.61,249.28,95.41,373.92,2.12,13.77,8.6,42.64,31.81,68.42,7.16,7.96,48.48,51.82,104.08,41.44,9.07-1.69,41.8-9.18,60.22-37.2,26.96-41.01,5.1-98.33-4.32-124.71-24.56-68.72-51.08-169.15-70.35-322.2,3.2-23.96,6.54-60.78,3.86-105.37-9.39-156.05-84.58-274.88-124.64-336.66-40.06-61.77-62.57-79.75-120.79-174.76-24.48-39.96-43.14-73.73-55.26-96.37,14.44-200.34,44.66-359.41,69.39-467.08,44.11-192.07,84.05-278.6,167.69-591.73,0,0,42.81-160.27,75.17-300.68,46.93-203.61,101.79-520.1,111.79-959.87,29.97-51.81,71.96-131.54,109.22-233.86,54.81-150.52,63.11-250.3,97.66-418.9,19.45-94.92,51.05-230.36,102.8-393.2,9.25,70.51,27.08,156.05,61.68,249.28,60.08,161.91,145.7,279.66,210.73,354.65,48.16,192.34,38.09,339.96,23.13,431.75-15.06,92.44-45.12,189.89-74.53,285.26-34.05,110.4-57.82,168.76-71.96,210.73-37.27,110.65-65.17,278.42-17.99,524.27,292.22,120.76,817.79,293.63,1490.56,274.98,611.08-16.93,1086.91-184.75,1367.2-308.39,16.03-83.69,31.95-210.82,15.42-362.36-30.79-282.34-139.43-330.51-146.48-573.09-6.8-233.7,87-430.84,116.93-492.14,57.99-118.77,95.77-141.3,154.2-262.13,80.21-165.9,104.09-320.12,111.79-424.04,64.53,331.34,108.35,569.99,138.78,751.7,28.3,169.03,39.19,253.93,82.24,382.92,20.38,61.07,42.21,114.75,61.68,203.02,25.15,114.03,27.75,201.39,29.55,248.64,7.61,199.25,18.4,481.76,88.66,765.2,28.86,116.43,31.89,88.31,84.81,281.41,66.39,242.26,100.17,427.15,111.79,493.43,18.85,107.48,39.04,242.98,53.97,400.91-22.21,34.24-57.21,86.02-104.08,146.49-69.4,89.52-87.26,98.02-128.5,161.91-29.43,45.6-69.98,109.64-89.95,200.45-10.5,47.78-3.07,47.29-12.85,128.5-6.85,56.9-14.89,93.62-48.83,239-21.57,92.4-39.37,167.73-51.4,218.44-1.28,7.71-6.05,41.57,15.42,66.82,27.38,32.19,77.41,26.88,106.65,14.13,31.52-13.74,47.18-39.76,52.68-50.11,21.8-53.59,43.15-111.9,62.96-174.75,26.22-83.19,45.76-161.7,60.39-233.86,3.5-3.88,8.97-8.77,16.71-11.56,27.36-9.87,58,15.58,65.53,21.84,42.57,35.37,42.95,103.77,42.41,178.61-.33,45.58-4.61,108.44-21.84,182.46-9.86,29.3-35.47,92.45-97.66,147.77-63.28,56.3-130.33,74.15-160.62,80.31-2.98,1.11-38.87,15.2-48.19,53.97-.67,2.8-9.36,41.9,18.63,70.03,19.74,19.84,44.76,21.19,50.76,21.35,45.11-3.31,88.82-6.8,131.06-10.43,114.95-9.86,132.27-13.65,156.12-25.06,4.23-2.02,2.01-1.12,86.74-52.04,15.99-9.61,28.49-17.76,48.19-28.91,33.67-19.07,43.66-22.36,53.97-28.91,39.7-25.24,49.68-77.04,55.9-104.08,14.67-63.83,45.89-153.21,102.16-283.33,6.19-14.69,14.67-37.22,21.2-65.53,15.19-65.89,9.66-119.06,7.71-138.78-17.86-180.43-33.56-339.02-9.63-493.43,10.36-66.9,19.46-76.86,28.27-154.2,13.72-120.54,4.71-211.48,2.57-236.43-17.22-200.46,35.21-486.1,65.53-1093.5,23.8-476.9,7.42-620.35-11.56-720.86-45.25-239.58-95.09-385.49-95.09-385.49-23.48-68.73-42.19-112.26-64.25-195.31-30.73-115.67-40.67-205.33-48.83-282.69-46.62-442.05-37.92-511.19-79.67-668.18-28.61-107.59-64.35-194.11-92.52-254.42-7.23-23.39-16.12-57.85-20.56-100.23-7.45-71.12,1.74-125.63,5.14-146.49,0,0,20.45-125.77,35.34-320.6,12.63-165.31-36.05-295.95-75.17-400.91-44.05-118.18-105.35-282.68-265.99-416.97-189.31-158.26-404.71-181.06-496-185.04-87.37-87.11-168.59-141.41-226.15-174.75-118.74-68.77-282.22-132.55-436.89-218.44-26.63-14.79-85.43-48.33-128.5-115.65-15.91-24.86-25.34-47.58-30.84-62.96-245.24-40.43-513.36-71.18-801.82-84.81-115.22-5.44-227.1-7.84-335.37-7.71Z"/>
        <path class="cls-4" d="m494.26,2202.88c-7.84,155.91-15.69,311.82-23.53,467.73,379.06,30.84,758.13,61.68,1137.19,92.52-7.14-212.88-14.29-425.75-21.44-638.63-364.07,26.13-728.15,52.26-1092.22,78.38Z"/>
        <path class="cls-4" d="m494.25,2202.88c-5.26,104.51-10.52,209.02-15.77,313.53,86.96,71.8,258.79,194.26,508.8,254.42,278.84,67.1,509.72,21.77,620.63-7.71-7.15-212.88-14.29-425.75-21.44-638.63-364.07,26.13-728.15,52.26-1092.22,78.38Z"/>
        <path class="cls-4" d="m1673.46,1550.12c5.43-68.89,37.73-123.04,81.75-135.88,6.62-1.93,41.68-12.16,68.12,11.56,29.73,26.67,22.17,72.6,21.77,74.81-11.8,94.24-23.59,188.49-35.39,282.73-.48,9.09-6.61,99.14-76.3,142.63-30.66,19.13-61.12,21.45-78.11,21.2-28.65,114.41-42.1,186.65-49.05,233.22-1.46,9.76-4.04,27.85-12.71,50.11-20.14,51.69-56.24,82.58-87.2,106.01-103.9,78.65-257.39,154.76-279.74,165.76-19,9.71-42.75,19.69-70.84,26.98-46.57,12.09-87.26,12.18-116.26,9.64-26.76,2.22-68.25,2.75-116.26-9.64-32.94-8.5-56.25-19.81-70.84-26.98-22.36-11-175.85-87.11-279.75-165.76-30.96-23.43-67.06-54.32-87.2-106.01-8.68-22.27-11.26-40.35-12.71-50.11-6.95-46.57-20.39-118.81-49.05-233.22-17,.25-47.45-2.07-78.11-21.2-69.68-43.49-75.82-133.54-76.3-142.63-11.8-94.24-23.59-188.49-35.39-282.73-.4-2.21-7.96-48.13,21.77-74.81,13.29-11.92,39.39-18.59,62.87-12.97,5.23,1.25,9.49,2.94,12.4,4.27,14.76,6.71,27.02,18.64,39.27,40.06,14.32,25.04,33.96,72.38,51.65,135.36,5.18-39.72,12.51-99.8,19.56-173.63,7.88-82.54,8.01-104.91,15.14-140.55,9.83-49.11,31.84-117.85,86.74-196.6-10.9-13.12-30.96-41.04-36.62-80.95-8.44-59.53,20.94-104.99,33.38-124.23,30.67-47.44,71.55-70.62,86.73-78.99,124.73-68.8,331.4-37.12,414.69-27.52,116.33,13.41,279.78,16.91,484.81-27.53-4.24,14.01-9.1,36.1-6.42,62.32,9.51,93.14,100.22,101.78,125.92,187.6,25.25,84.28-48.11,123.07-18.82,239.21,9.53,37.78,19.3,41.67,34.24,84.61,29.89,85.93,23.91,165.76,13.59,221.13l-1.33,12.74Z"/>
        <path class="cls-1" d="m-354.23,3248.84c70.06,1.41,140.04,4.63,209.99,8.13,69.97,3.46,139.82,8.4,209.74,12.53l26.18,1.97c8.94.99,17.05,1.92,25.62,2.19,16.94.63,33.94-.5,50.64-3.38,16.66-3.03,33-7.83,48.58-14.48,7.83-3.27,15.29-7.25,22.59-11.58,7.62-3.79,14.51-8.73,21.45-13.64,27.86-19.64,49.81-46.98,66.88-76.86,16.97-30.07,28.91-63.22,35.34-97.63-2.73,35.02-13.18,69.27-28.15,101.41-16.08,31.54-37.78,61.08-66.34,83.21-28.13,22.59-62.12,37.67-97.61,44.4-17.75,3.32-35.83,4.79-53.87,4.37-8.94-.15-18.25-1.06-26.7-1.88l-26.18-1.63c-69.72-5.5-139.53-10.19-209.21-16.36-69.69-6.14-139.37-12.54-208.95-20.77Z"/>
        <path class="cls-1" d="m2282.51,3325.94c-72.29-.5-144.49-2.66-216.67-4.63-72.18-1.89-144.31-4.92-216.42-5.84l-54.06-1.25c-17.85-.4-36.31-.02-54.88-2.43-36.92-4.39-73.42-18.08-102.59-41.44-29.54-22.86-51.96-53.26-68.48-85.78-16.07-32.88-26.9-67.87-33.37-103.43,10.1,34.66,22.42,68.75,40.53,99.6,17.53,30.96,40.28,59.16,68.94,79.4,28.5,20.3,61.82,33.24,96.69,36.68,17.32,2.01,35.09,1.43,53.32,1.57l54.26.54c72.29,2.31,144.52,5.09,216.63,9.7,72.12,4.62,144.17,9.97,216.1,17.3Z"/>
        <path class="cls-1" d="m582.51,2855.64c21.7,36.07,41.76,72.94,61.58,109.94,19.99,36.91,38.82,74.41,57.63,111.89,18.46,37.67,36.9,75.35,54.19,113.6l25.88,57.41c8.08,19.4,16.67,38.55,24.31,58.18-11-17.95-21.03-36.39-31.59-54.57l-30.02-55.35c-19.97-36.92-38.81-74.41-57.6-111.91-18.45-37.68-36.89-75.36-54.16-113.62-17.44-38.17-34.64-76.47-50.22-115.57Z"/>
        <path class="cls-1" d="m1106.77,3322.08c13.97-35.89,29.56-70.97,45.4-105.94,15.67-35.04,32.5-69.51,49.34-103.98,17.19-34.29,34.42-68.56,52.78-102.27l27.62-50.53c9.74-16.57,18.98-33.4,29.17-49.76-6.83,18.03-14.62,35.57-21.9,53.36l-23.47,52.59c-15.68,35.04-32.51,69.5-49.37,103.96-17.22,34.28-34.43,68.56-52.81,102.26-18.21,33.79-36.67,67.45-56.76,100.31Z"/>
      </g>
    </g>
  </g>
</svg>