<?xml version="1.0" encoding="UTF-8"?>
<svg id="Layer_2" data-name="Layer 2" xmlns="http://www.w3.org/2000/svg" xmlns:xlink="http://www.w3.org/1999/xlink" viewBox="0 0 2079.53 3696.36">
  <defs>
    <style>
      .cls-1 {
        fill: #ffd7ae;
      }

      .cls-2 {
        fill: #929292;
      }

      .cls-3 {
        fill: #f7cca6;
      }

      .cls-4 {
        clip-path: url(#clippath);
      }

      .cls-5 {
        fill: none;
      }

      .cls-6 {
        fill: url(#linear-gradient);
      }
    </style>
    <clipPath id="clippath">
      <rect class="cls-5" width="2079.53" height="3696.36"/>
    </clipPath>
    <linearGradient id="linear-gradient" x1="817.86" y1="2245.26" x2="1516.93" y2="2245.26" gradientUnits="userSpaceOnUse">
      <stop offset="0" stop-color="#ffd7ae"/>
      <stop offset=".37" stop-color="#f7d2ac"/>
      <stop offset=".93" stop-color="#e2c5a8"/>
      <stop offset="1" stop-color="#dfc4a8"/>
    </linearGradient>
  </defs>
  <g id="Layer_1-2" data-name="Layer 1">
    <g class="cls-4">
      <g>
        <path class="cls-1" d="m2200.45,8604.35c-5.72,25.23-17.46,63.38-42.84,105.63-1.76,22.89-3.52,45.92-5.58,69.25-3.96,46.95-8.36,93.16-13.2,138.64-.44,11.3-3.37,36.09-20.83,59.42-8.07,10.86-17.02,18.34-24.21,23.18-116.64,79.66-233.27,159.18-349.9,238.7-15.7,9.68-35.21,9.54-49.15-.44-15.99-11.44-17.46-30.08-17.6-32.86-16.87,17.46-41.08,24.06-62.06,16.87-20.83-7.34-30.22-25.23-32.28-29.49-11.88,22.45-37.56,34.33-62.35,28.9-24.21-5.43-42.25-26.11-44.16-51.06-7.04-58.83-9.1-133.5,6.01-217.72,5.28-29.49,12.03-56.78,19.51-81.72,5.87-18.49,12.32-37.41,19.22-56.63,10.12-28.31,20.68-55.31,31.39-80.84-118.54-267.6-188.23-472.4-199.67-541.36-11.3-67.93,0-125.44,0-125.44,4.7-24.35,11.44-43.72,16.43-56.19-.73-34.04-1.61-68.22-2.49-102.26.88-9.1,1.17-22.89-3.23-38.88-3.08-11-7.48-19.81-11.29-26.11-276.25-310.88-447.61-489.13-558.96-598.57-42.1-41.37-149.94-145.98-274.05-303.69-52.08-66.17-91.99-122.94-117.81-160.65h-250.73c32.13-52.38,85.24-155.07,96.24-294.88,3.37-42.55,11-191.75-69.25-351.51-20.84-41.52-42.69-73.79-58.98-95.8-12.18-14.38-29.05-38.73-38.44-72.47-4.26-15.4-6.02-29.49-6.6-41.37.59-65.87-3.52-140.99-16.43-222.7-6.16-38.44-13.64-74.53-21.86-108.27-70.13-165.34-139.67-335.96-208.18-511.72-78.78-202.46-151.99-400.66-220.06-594.17-66.17-66.31-211.12-230.77-224.46-451.13-8.22-136.15,34.33-287.55,46.21-330.09,17.16-61.03,36.09-110.62,50.61-145.24,8.36-78.05,24.79-169.6,56.19-269.06,16.14-51.35,34.18-98.15,52.82-140.25v-49.59c1.46-35.36,9.68-114.29,64.26-191.45,32.28-45.48,69.25-74.38,95.21-91.25,124.7-69.69,214.05-144.21,272.88-200.26,85.23-81.42,124.11-140.69,133.65-155.66,39.47-61.47,57.07-109.59,86.41-189.84,64.26-175.46,79.96-310.88,84.5-355.77,3.52-36.09,4.99-66.02,5.72-86.56,19.07-97.71,53.26-232.09,118.84-382.91,56.92-130.86,160.35-368.97,376.31-554.56,300.46-258.21,786.07-386.43,927.49-224.46,46.95,53.69,47.97,129.84,42.99,181.48,12.17,104.02,33.3,183.97,51.2,239.43,20.25,63.23,44.16,119.13,18.93,172.38-13.64,28.75-36.68,46.51-53.69,56.92,14.96,56.19,36.53,121.03,68.51,190.72,23.92,52.08,49.59,97.71,74.24,137.03,18.49,21.42,22.59,50.17,10.86,71.74-10.42,18.78-29.19,25.38-34.62,27.14-30.52,3.81-61.18,7.78-91.69,11.59-2.64,1.91-21.42,16.14-21.86,39.61-.14,11,3.67,19.51,6.16,23.91,21.57,14.96,31.54,38.29,25.53,56.92-3.23,10.27-10.56,17.02-15.55,20.69-19.37,14.38-38.58,28.61-57.8,42.99,17.9,12.76,26.85,32.86,22.59,50.61-2.64,10.71-9.69,17.75-13.79,21.42-18.34,14.08-36.68,28.17-55.02,42.4-2.35,1.47-16.73,11.88-18.2,30.22-.73,8.95,2.06,15.99,3.81,19.81,9.83,12.03,45.33,58.24,37.41,114.43-1.02,7.63-3.52,23.91-14.08,41.52-18.04,29.93-46.51,41.67-58.54,46.51-25.09,10.27-48.12,10.86-62.64,9.83-34.18-2.05-68.22-4.26-102.4-6.46-53.55-3.23-107.1-6.6-160.65-9.98-13.35-1.47-45.63-3.08-75.85,16.43-21.13,13.64-31.99,31.4-39.61,44.01-14.82,24.65-13.06,36.09-25.38,71.59-.29.88-.59,1.76-1.02,2.93-4.55,13.35-17.17,46.07-38.59,79.52-11.3,17.9-29.49,42.69-57.22,68.22-10.42,13.06-25.82,32.57-44.01,56.78-8.65,11.59-20.83,28.02-25.23,34.62-26.41,38.44-53.4,118.1-27.58,192.48,15.26,43.87,45.33,75.7,53.99,84.8,27.44,28.61,49.3,37.41,64.84,68.22,12.62,24.5,13.94,49,13.21,65.43,22.45,36.68,60.3,98.44,107.39,174.88,133.06,216.54,220.36,355.92,323.49,543.12,82.89,150.52,116.05,223,135.27,320.12,16.87,84.94,16.43,154.48,15.99,213.46-.73,107.39-14.67,159.91-30.81,200.26-7.05,17.46-14.09,31.54-19.22,41.23-7.19,20.83-14.67,50.47-13.79,86.41.29,15.11,2.05,28.9,4.4,40.79,30.81,85.82,41.81,152.87,46.21,198.06,2.64,27.29,6.45,84.94,8.8,141.87,1.91,46.51.88,44.75,2.49,60.74,6.89,73.5,25.23,83.62,36.97,151.11,2.49,13.64,18.19,103.28.88,161.67-2.06,7.04-10.42,33.6-13.21,70.13-.73,11.15-.88,20.39-.73,26.11,7.34,70.86,13.35,145.09,17.61,222.26,4.99,91.4,6.89,178.84,6.6,261.88,19.51,48.12,47.68,127.49,63.82,228.87,24.94,156.25,8.22,282.27-22.01,497.93-9.09,65.14-23.91,159.03-47.39,272.29-81.86-17.16-178.84-44.31-283.88-88.03-83.91-34.77-156.24-73.21-216.69-110.03,43.72,68.22,102.4,159.91,171.65,268.48,77.32,121.18,146.71,247.79,229.45,365.3,65.87,93.75,151.11,205.39,176.49,316.89,2.06,8.66,12.18,54.87,23.18,105.63,12.32,57.22,22.15,104.02,28.61,135.41,70.13,90.52,125.14,158.74,168.27,205.69,14.08,15.26,43.72,46.51,51.79,94.63,3.81,23.03,1.47,42.84-1.17,56.19,10.42,14.23,24.8,34.77,40.79,60.44,23.18,37.41,34.77,56.04,40.64,74.82,13.06,42.11,4.7,78.78-4.4,117.81Z"/>
        <path class="cls-6" d="m1516.93,2310.84c-.29.59-.59,1.32-.88,2.05-53.55-3.23-107.1-6.6-160.65-9.98-13.35-1.47-45.63-3.08-75.85,16.43-21.13,13.64-31.99,31.4-39.61,44.01-14.82,24.65-13.06,36.09-25.38,71.59-.29.88-.59,1.76-1.02,2.93-200.7-126.02-325.4-280.95-395.68-385.26,138.06,73.5,302.81,146.41,493.68,204.36,71,21.57,139.67,39.32,205.39,53.84Z"/>
        <path class="cls-2" d="m331.09,1831.97c-12.26-95.89-34.89-207.02-75.92-326.79-17.51-51.09-36.54-98.42-56.12-141.94-26.91-35.28-61.92-89.47-85.82-161.74-61.27-185.28-3.05-348.97,23.11-422.51,22.3-62.72,100.52-256.91,306.98-392.81,164.56-108.31,323.76-122.44,406.01-128.73,211.86-16.2,377.1,43.28,458.82,79.22,48.3,4.92,104.13,13.85,165.04,29.71,54.67,14.23,102.9,31.3,144.14,48.41-8.07-16.14-16.14-32.28-24.21-48.41,42.18,27.87,84.36,55.75,126.53,83.62,1.47-14.67,2.93-29.34,4.4-44.01,27.9,17.68,77.67,54.47,116.63,118.83,32.21,53.2,43.77,103.32,48.41,134.24,30.81,26.77,61.62,53.55,92.42,80.32-17.06,3.85-34.11,7.7-51.16,11.55,15.95,7.15,31.91,14.3,47.86,21.46-60.52,26.41-121.03,52.81-181.55,79.22-3.21-9.99-9.29-24.5-21.45-37.96-31.81-35.21-79.16-34.39-146.89-41.26-36.39-3.69-88.33-10.58-151.84-24.76,33.09,14.58,55.41,46.46,57.77,82.52,2.34,35.92-15.49,70.31-46.21,89.12,24.76-9.35,49.51-18.71,74.27-28.06-39.76,33.76-82.12,76.09-122.13,128.73-135.01,177.62-164.42,368.77-171.65,472.03-45.66-3.3-91.32-6.6-136.99-9.9,2.81-37.77,3.55-92.91-8.11-158.03-10.78-60.27-16.48-92.13-41.96-125.85-46.09-61-119.85-79.07-147.44-85.82-26.6-6.51-49.59-8.38-66.02-8.8-31.93,21.48-71.06,52.14-110.03,94.63-44.02,47.99-73.29,95.24-92.43,132.04-10.09,66.37-19.65,133.86-28.6,202.45-4.63,35.46-9.03,70.67-13.2,105.63-11.19-21.82-22.37-43.65-33.56-65.47-8.23,30.58-15.68,64.22-21.46,100.68-10.73,67.79-13.09,129.2-11.55,181.55-10.2-15.85-44.3-64.34-108.93-84.17-34.04-10.45-63.94-9.08-82.52-6.6-11.55,22.56-23.11,45.11-34.66,67.67Z"/>
        <path class="cls-3" d="m991.01,1130.56c-26.43-12.28-55.7-19.46-84.26-16.37-14.16,1.51-28.1,5.62-40.48,12-12.34,6.76-23.42,15.96-33.3,26.23-39.79,41.59-60.7,97.82-67.01,154.69-3.49,28.69-3.81,57.42-.47,85.95,3.04,28.49,9.35,56.67,19.48,83.5,19.89,53.82,54.56,101.83,98.49,139.16l.8.67.39.75c6.6,12.41,16.36,23.2,28.42,30.56,12.24,7.46,25.82,13.46,39.86,12.91,14.04-.19,27-9.18,34.26-21.63,7.39-12.45,10.19-27.64,8.75-42.42,2.61,14.58,1.25,30.39-5.9,44.01-6.78,13.55-20.56,24.74-36.67,25.96-15.96,1.67-31.3-4.35-44.4-11.83-13.66-7.65-24.99-19.26-32.84-32.82l1.18,1.41c-47.02-36.31-83.86-86.04-105.09-141.89-10.85-27.82-17.89-57.09-21.28-86.76-3.13-29.65-2.39-59.83,1.54-89.18,3.75-29.49,10.89-58.86,22.96-86.32,11.93-27.52,29.39-52.56,50.75-73.53,10.79-10.4,22.8-19.71,36.42-26.55,13.82-6.64,28.74-10,43.72-10.68,30.02-1.35,59.41,7.58,84.69,22.17Z"/>
        <path class="cls-3" d="m832.59,1447.79c-14.42-34.36-22.26-72.07-20.99-109.97.83-19.05,3.19-37.44,6.57-56.24,3.7-18.59,9.69-37.72,22.02-53.73,12.02-16.17,30.85-27.39,50.73-30.73,19.61-3.48,40.96-.72,58.7,9.17,17.75,9.39,32.64,25.21,39.56,44.74,7.13,19.51,4.89,41.46-3.65,59.55l-2.44,5.18-5.37-1.54c-19.33-5.54-40.62-4.01-58.7,4.76-18.24,8.38-32.63,24.82-38.05,44.44-5.3,19.61-2.83,41.76,5.22,60.93,8.52,19.23,24.41,35.12,43.48,45.29-20.12-8.02-37.77-23.2-48.36-42.9-10.33-19.8-14.12-43.09-9.2-65.57,5.07-22.48,20.8-42.36,41.48-53.01,20.66-10.85,45.32-12.72,67.68-6.73l-7.81,3.63c7.03-15.62,8.45-33.6,2.45-49.23-5.79-15.72-18.35-28.52-33.19-36.93-29.28-16.97-71.84-11.05-92.52,16.76-21.13,27.68-26.03,66.64-30.33,102.62-3,36.59,1.74,73.86,12.72,109.51Z"/>
        <path class="cls-3" d="m877.06,1406.83c3.89,3.8,33.08,31.37,74.55,26.02,26.6-3.43,43.87-18.57,50.01-24.52-5.21,9.24-10.4,20.68-14.04,34.27-11.53,43.01-.28,80.29,6.26,97.42.05.5.91,11.08-5.29,15.23-6.33,4.24-18.93,1.03-25.54-11.09-11.76-25.14-23.52-50.29-35.27-75.43-7.45-3.51-21.01-11.11-32.9-25.92-11.27-14.04-15.83-28.08-17.77-35.98Z"/>
        <g>
          <path class="cls-3" d="m1008.87,3216.14c48.03,78.72,83.68,165.16,105.73,255.14,11.1,44.97,18.45,90.9,22.51,137.12,2.45,23.1,2.82,46.33,3.58,69.56-.49,23.22-.44,46.48-2.68,69.64-6.38,92.76-27.83,184.57-62.42,271.07-34.54,86.53-81.67,168.26-140.71,240.79l2.83-8.71c15.88,247.18,15.36,495.46-1.76,742.65-4.35,61.8-10.24,123.48-16.86,185.06-3.35,30.79-6.94,61.55-10.8,92.27l-5.97,46.09-3.21,23.38-4.07,22.75c-19.79,119.85-9.95,244.22,26.82,360.22l-.74-1.81c42.61,85.23,81.16,172.44,117.25,260.57,35.95,88.2,68.77,177.63,98.66,268,29.94,90.36,56.03,181.95,79.04,274.23,23.08,92.27,43.01,185.28,59.08,278.93-19.96-92.89-42.5-185.16-68.02-276.57-25.44-91.43-54.61-181.74-85.53-271.35-31.33-89.49-65.53-177.94-102.82-265.06-37.19-87.17-77.85-172.77-120.21-257.46l-.43-.85-.31-.97c-38.59-119.32-49.58-247.97-29.79-372.21,18.4-121.3,29.63-244.58,38.78-367.32,18.43-245.79,20.37-492.86,5.95-739.02l-.29-4.94,3.12-3.78c57.82-70.02,105.79-148.61,140.83-232.74,35.28-83.99,57.87-173.53,65.7-264.53,8.6-90.94,2.79-183.31-16.26-273.02-19.46-89.64-52.29-176.54-97-257.15Z"/>
          <path class="cls-3" d="m40.61,5614.78c-26.68-89.61-45.98-181.45-60.19-274.1-13.65-92.76-21-186.54-22.04-280.45l.72,4.06c-34.1-89.78-58.09-183.49-71.74-278.7-3.32-23.82-6.08-47.72-8.12-71.69l-5.49-71.33-11.1-142.39-10.72-142.41c-3.37-47.49-4.7-95.15-7.15-142.72l-12.1-285.52,1.94,5.49c-40.17-56.47-75.31-116.51-103.2-179.73-28.13-63.06-50.32-128.69-64.89-195.86,19.54,65.86,44.21,130.04,75.25,190.94,31.05,60.85,67.19,118.96,108.74,172.87l1.73,2.24.21,3.25,18.56,284.78c3.06,47.46,5.56,94.93,9.08,142.37l11.45,142.29,11.09,142.31,5.11,71.05c1.87,23.47,4.45,46.88,7.59,70.22,12.31,93.38,34.55,185.46,65.97,274.43l.75,2.11-.02,1.96c-1.05,92.91,3.31,185.98,13.27,278.55,4.82,46.31,10.9,92.54,18.6,138.54,7.77,45.98,16.68,91.81,26.73,137.45Z"/>
          <path class="cls-3" d="m1039.68,2692.4c-4.96-23.4-7.03-46.66-8.09-69.87-1.05-23.21-1.08-46.37.04-69.47,1.02-23.11,3.29-46.16,6.51-69.16,3.25-23.01,7.54-45.96,14.74-68.78,5,23.4,7.09,46.66,8.14,69.87,1.02,23.2,1.09,46.37-.09,69.47-1.08,23.1-3.32,46.15-6.56,69.16-3.25,23-7.53,45.95-14.69,68.78Z"/>
          <path class="cls-3" d="m641.37,2747.41c-7.72,17.68-14.51,36.07-14.26,53.58-.28,17.69,8.83,30.9,23.12,38.65,7.23,4.02,14.99,6.52,24.1,9.29l27.79,8.98c18.32,6.4,36.28,13.51,54.26,20.52,35.61,14.84,70.79,30.47,105.18,47.85,34.46,17.2,68.39,35.53,101.09,56.59-37.62-9.89-74.07-22.35-110.16-35.57-36.15-13.06-71.68-27.48-107.18-41.71l-52.95-21.75-26.37-10.66c-9.08-3.3-19.38-7.86-28.22-14.43-8.86-6.53-17.31-15.18-21.7-26.13-4.63-10.81-5.06-22.56-3.22-32.97,4.27-20.95,15.45-37.92,28.52-52.24Z"/>
        </g>
        <polygon class="cls-3" points="1780.22 1949.07 1731.56 1965.74 1773.54 1936.01 1780.22 1949.07"/>
      </g>
    </g>
  </g>
</svg>