<?xml version="1.0" encoding="UTF-8"?>
<svg id="Layer_2" data-name="Layer 2" xmlns="http://www.w3.org/2000/svg" xmlns:xlink="http://www.w3.org/1999/xlink" viewBox="0 0 2061.08 3801.64">
  <defs>
    <style>
      .cls-1 {
        fill: #b4b4b4;
      }

      .cls-2 {
        fill: #ffd7ae;
      }

      .cls-3 {
        fill: #929292;
      }

      .cls-4 {
        clip-path: url(#clippath);
      }

      .cls-5 {
        fill: none;
      }

      .cls-6 {
        fill: url(#linear-gradient);
      }
    </style>
    <clipPath id="clippath">
      <rect class="cls-5" width="2061.08" height="3801.64"/>
    </clipPath>
    <linearGradient id="linear-gradient" x1="1095.09" y1="3377.12" x2="1095.09" y2="2016.29" gradientUnits="userSpaceOnUse">
      <stop offset="0" stop-color="#ffd7ae"/>
      <stop offset="0" stop-color="#fed6ad"/>
      <stop offset=".62" stop-color="#e7c9a9"/>
      <stop offset="1" stop-color="#dfc4a8"/>
    </linearGradient>
  </defs>
  <g id="Layer_1-2" data-name="Layer 1">
    <g class="cls-4">
      <g>
        <path class="cls-1" d="m-672.51,7630.75c-43.25-96.77-93.03-159.2-131.29-198.76-32.05-33.14-74.42-69.27-93-133.12-10.63-36.52-9.72-69.24-7.29-91.18-22.21-36.29-43.6-74.56-63.82-114.88-167.9-334.66-186.63-672.73-166.55-927.57-18.04-16.42-47.75-48.75-59.57-97.26-18.87-77.47,15.83-163.7,87.53-222.47,17.4-179.01,30.48-333.51,40.12-455.88,35.86-455.21,85.3-909.24,126.43-1364,3.18-35.13,19.45-215.19,102.12-427.92,64.61-166.26,127.16-242.83,170.2-286.9,86.18-88.26,175.23-129.28,221.25-150.75,194.88-90.87,455.16-221.19,782.9-386.59,505.73-39.71,1011.45-79.42,1517.18-119.14,216.97,52.27,436.65,107.33,658.9,165.33,140.9,36.77,280.31,74.07,418.2,111.84,21.5,8.32,46.83,20.57,72.94,38.9,59.93,42.08,92.82,94.32,109.41,126.43,115.73,283.49,228.28,598.4,328.24,943.37,163.06,562.76,256.9,1082.31,310,1535.41,23.75,47.34,56.51,125.03,69.29,224.9,14.61,114.18-3.95,202.28-12.16,243.14-93.8,466.83-15.98,635.69-177.49,968.9-24.62,50.78-66.2,128.92-131.29,218.82,2.62,42.29.99,101.28-18.23,167.76-38.55,133.31-124.02,214.49-164.12,248-79.42,138.99-158.85,277.99-238.28,416.98-162.9-114.27-325.81-228.55-488.71-342.82,38.9-81.05,77.81-162.09,116.71-243.14-12.03-20.24-25.87-50.75-25.04-87.58,1.02-45.3,23.6-72.44,46.78-120.42,15.74-32.58,34.6-80.63,45.36-145.26,1.22-65.62,10.61-163.61,50.82-274.66,39.2-108.26,92.89-188.03,133.12-238.88,13.65-102.9,16.41-186.78,16.41-244.35,0-110.5-10.17-168.69,2.43-269.88,8.89-71.39,24.69-128.58,36.47-165.33-25.92-25.67-60.58-65.71-87.53-121.57-48.12-99.75-35.17-174.3-43.76-306.35-5.65-86.78-23.48-170-59.15-336.42-18.12-84.57-45.55-199.31-86.73-334.64-.91,114.58-3.15,308.38-9.72,549.49-15.87,582.17-39.22,788.84-19.45,1142.75,7.5,134.29,24.16,342.63,67.1,599.85-3.27,61.7-20.22,102.34-35.49,128.34-11.11,18.92-27.21,40.1-41.91,78.86-7.56,19.94-13.75,36.63-14.74,58.47-1.63,35.94,11.68,66.36,25.04,87.58-38.9,81.05-77.81,162.09-116.71,243.14-172.53,44.88-345.05,89.76-517.58,134.64-276.23,63.92-648.67,121.97-1089.56,112.15-440.74-9.82-810.12-84.35-1083.18-160.47-19.05-156.82-38.09-313.65-57.14-470.47,3.85-3.96,10.64-12.13,13.37-24.31,5.53-24.66-10.42-44.14-12.58-46.7-28.83-66.48-57.67-132.97-86.5-199.45,47.62-30.65,101.57-77.19,108.2-139.83,7.85-74.17-56.62-114.52-94.82-218.82-29.23-79.8-24.44-146.12-16.41-242.53,49.25-591.45,58.35-649.18,58.35-649.18,24.55-155.59,61.96-395.58,113.06-735.49-13.96,97.12-41.63,216.6-97.25,345.25-23.81,55.07-49.57,104.49-75.37,148.31-17.05,167.17-16.17,276.71-9.73,352.55,2.56,30.13,9.07,91.08-24.31,150.75-20.31,36.3-48.28,59.4-68.08,72.94,7.15,18.8,17.24,47.31,26.75,82.67,44.67,166.2,27.17,301,21.88,362.27-9.12,105.68-5.14,261.31,57.74,471.1,33.03,82.05,66.05,164.1,99.08,246.15-20.67,33.03-41.33,66.05-62,99.08-155.61,72.94-311.22,145.88-466.82,218.82Z"/>
        <path class="cls-3" d="m343.96,1363.06c-8.75-87.38-12.9-186.62-7.64-295.42,2.88-59.63,8.28-115.78,15.28-168.08-19.1,23.34-38.2,46.69-57.3,70.03,8.97-37.33,22.63-81.73,43.93-129.88,21.39-48.36,45.18-88.5,66.85-120.33-28.65,19.74-57.3,39.47-85.95,59.21-.73-17.52-.81-72.18,36.29-126.06,36.48-52.99,86.43-72.56,103.14-78.31-11.22-.4-44.85-3.11-70.67-28.65-32.38-32.02-39.23-86.8-15.28-135.61,13.5,31.82,28.27,38.43,36.29,40.11,35.4,7.43,85.22-50.42,124.15-147.07,1.35,12.45,4.86,28.22,15.28,32.47,26.78,10.93,74.39-64.43,110.78-99.32,51.64-49.51,154.7-88.52,382-34.38-10.82-14.01-21.65-28.01-32.47-42.02,24.16,4.67,49.02,10.35,74.49,17.19,128.62,34.57,234.53,88.81,317.7,143.25-16.13-24.19-32.26-48.39-48.39-72.58,19.18,8.04,38.72,17.78,58.26,29.61,137.55,83.23,196.88,222.13,221.88,298.92,7.44-9.22,24.72-27.97,53.48-38.2,43.42-15.44,81.27-.17,90.41,3.82-12.52,3.16-43.7,12.88-64.94,42.02-18.3,25.1-19.84,51.73-20.38,63.67-3.7,82.66,75.85,128.72,109.51,219.02,30.15,80.9-8.52,111.52-25.47,318.34-7.13,87.05-6.56,158.31-5.09,203.74-112.87,110.59-355.9,313.83-707.98,360.36-152.05,20.09-404.45,53.45-576.83-110.78-95.54-91.02-128.48-206.52-141.35-275.04Z"/>
        <path class="cls-6" d="m548.04,2056.22c.81,181.54,1.62,363.09,2.43,544.63-71.32,57.54-142.64,115.08-213.96,172.63,59.5,85.33,140.6,184.54,249.22,282.04,196.75,176.61,398.21,270.8,536.91,321.61,107.24-57.48,242.09-143.58,378.5-270.55,174.41-162.34,285-329.72,352.55-452.24-40.07-10.1-88.83-26.4-141.02-53.49-85.78-44.53-145.48-99.87-182.87-140.93-4.51-147.87-9.01-295.75-13.52-443.62-322.75,13.31-645.49,26.62-968.24,39.93Z"/>
        <path class="cls-2" d="m1662.56,1447.1c5.38-68.27,37.39-121.93,81.01-134.66,6.56-1.91,41.31-12.05,67.5,11.46,29.46,26.43,21.97,71.94,21.57,74.13-11.69,93.39-23.38,186.79-35.07,280.18-.47,9.01-6.55,98.25-75.61,141.34-30.39,18.96-60.56,21.25-77.41,21.01-28.4,113.37-41.72,184.97-48.6,231.11-1.44,9.67-4,27.59-12.6,49.66-19.96,51.23-55.73,81.83-86.41,105.05-102.96,77.94-255.06,153.36-277.21,164.26-18.83,9.62-42.36,19.51-70.2,26.74-46.15,11.98-86.47,12.07-115.21,9.55-26.51,2.2-67.64,2.73-115.21-9.55-32.64-8.42-55.75-19.63-70.2-26.74-22.16-10.9-174.26-86.33-277.22-164.26-30.68-23.22-66.45-53.83-86.41-105.05-8.6-22.07-11.15-39.99-12.6-49.66-6.88-46.15-20.21-117.74-48.6-231.11-16.84.24-47.02-2.05-77.41-21.01-69.05-43.1-75.13-132.33-75.61-141.34-11.69-93.39-23.38-186.79-35.07-280.18-.39-2.19-7.89-47.7,21.58-74.13,13.17-11.81,39.03-18.42,62.3-12.85,5.18,1.24,9.4,2.91,12.29,4.23,14.62,6.65,26.78,18.47,38.92,39.7,14.19,24.82,33.65,71.73,51.18,134.14,5.13-39.36,12.4-98.89,19.38-172.06,7.81-81.79,7.94-103.96,15-139.28,9.74-48.67,31.55-116.79,85.95-194.82-10.8-13-30.68-40.67-36.29-80.22-8.36-58.99,20.75-104.04,33.08-123.11,30.39-47.01,70.91-69.98,85.95-78.28,123.61-68.18,328.41-36.79,410.95-27.27,115.28,13.29,277.26,16.75,480.43-27.28-4.2,13.89-9.02,35.77-6.37,61.76,9.43,92.3,99.31,100.86,124.79,185.91,25.02,83.51-47.67,121.96-18.65,237.04,9.44,37.44,19.13,41.29,33.93,83.84,29.62,85.15,23.7,164.26,13.46,219.13l-1.32,12.62Z"/>
      </g>
    </g>
  </g>
</svg>