<?xml version="1.0" encoding="UTF-8"?>
<svg id="Layer_2" data-name="Layer 2" xmlns="http://www.w3.org/2000/svg" xmlns:xlink="http://www.w3.org/1999/xlink" viewBox="0 0 2061.08 3801.64">
  <defs>
    <style>
      .cls-1 {
        fill: #262626;
        opacity: .58;
      }

      .cls-2 {
        fill: #010d00;
      }

      .cls-3 {
        fill: #0d0d0d;
      }

      .cls-4 {
        fill: none;
      }

      .cls-5 {
        opacity: .43;
      }

      .cls-6 {
        fill: #12081a;
        opacity: .45;
      }

      .cls-7 {
        fill: #2d1440;
      }

      .cls-8 {
        fill: #1a1a1a;
      }

      .cls-9 {
        fill: url(#linear-gradient);
      }

      .cls-10 {
        fill: #021a00;
      }
    </style>
    <linearGradient id="linear-gradient" x1="756.62" y1="704.71" x2="1079.28" y2="704.71" gradientUnits="userSpaceOnUse">
      <stop offset="0" stop-color="#1a1a1a"/>
      <stop offset=".55" stop-color="#080808"/>
      <stop offset="1" stop-color="#000"/>
    </linearGradient>
  </defs>
  <g id="Layer_1-2" data-name="Layer 1">
    <g>
      <g>
        <path class="cls-10" d="m888.74,3373.96c-8.43,20.58-17.34,41.53-26.76,62.83-8.09,18.29-16.24,36.13-24.43,53.52-22,11.12-37.8,23.81-48.09,33.35-12.81,11.88-25.55,23.97-33.35,44.21-3.21,8.32-4.69,15.69-5.43,20.94-6.19,7.43-7.7,17.67-3.88,26.37,4.13,9.41,13.81,15.4,24.3,15,26.47,2.07,49.24,3.09,67.22,3.62,26.8.78,47.71.6,69.29-3.62,10.83-2.12,21.44-5.18,32.58-10.34,7.48-3.47,13.41-7.06,17.58-9.82.52-5.86,1.03-11.72,1.55-17.58,1.98-1.78,6.34-5.21,12.93-6.72,5.67-1.3,10.39-.58,12.93,0,5.66-.69,11.72-1.69,18.1-3.1,12.5-2.77,23.41-6.5,32.58-10.34,1.8-.39,4.94-1.36,7.63-4.01,6.56-6.46,4.03-16.52,3.88-17.06v-63.21c3.93-15.04,3.67-26.88,2.71-34.9-1.51-12.71-4.83-16.31-8.53-36.45-1.97-10.7-2.73-18.9-3.49-27.15-1.3-14.02-1.68-26.35-1.68-36.45-49.21,6.98-98.42,13.96-147.63,20.94Z"/>
        <path class="cls-10" d="m1246.3,3328.71c-1.14,3.94-2.99,9.93-5.69,17.06-7.6,20.1-16.05,33.74-18.1,37.23-7.41,12.66-14.78,35.86-13.96,82.22-.27-.03-2.49-.19-4.14,1.55-1.73,1.82-1.34,4.16-1.29,4.4.09,17.41.17,34.82.26,52.23-.11,1.63-.11,4.92,1.55,8.53,2.1,4.58,5.59,6.92,6.98,7.76,18.36,9.82,36.71,19.65,55.07,29.47,1.4.66,3.54,1.61,6.21,2.59,8.82,3.22,15.88,3.91,17.58,4.14,6.14.82,15.49,5.43,29.47,22.23,1.16,2.32,2.94,5.29,5.69,8.27,4.1,4.46,8.49,6.94,11.38,8.27,15.1,5.05,34.48,10.63,57.4,15,35.54,6.77,64,7.66,78.08,7.76,16.82.11,37.91-.75,62.05-4.14,2.16-.48,6.83-1.85,10.86-5.95,4.25-4.32,5.37-9.21,5.95-11.89,2.79-12.97-4.91-24.13-6.72-26.63.65-3.51,1.25-8.82.39-15.12-1.67-12.25-7.79-20.44-11.38-25.25-17.14-22.96-53.73-36.64-58.43-38.35-3.93-2.22-9.79-6.18-15.12-12.8-3.92-4.86-6.3-9.6-7.76-13.19-10.39-25.06-20.99-50.27-31.8-75.62-8.16-19.15-16.35-38.15-24.56-57.01-13.01-9.1-40.66-25.8-79.63-29.99-30.94-3.33-55.96,2.63-70.32,7.24Z"/>
        <path class="cls-1" d="m1047.2,3502.28c-9.94,4.48-20.16,8.37-30.24,12.49-13.98,5.7-32.84,9.95-42.33,22.34-8.28,10.81-11.22,25.3-19.79,35.68-19.23,23.3-62.06,19.91-88.87,20.23-18.8.22-37.65.58-56.44.16-18.51-.42-37.33-2.32-55.76.23-1.86.26-3.61.23-5.28,0-4.15,7-4.79,15.6-1.49,23.06,4.16,9.4,13.86,15.36,24.35,14.92,26.48,1.99,49.25,2.94,67.23,3.4,26.8.7,47.71.44,69.28-3.84,10.83-2.15,21.43-5.25,32.54-10.45,7.46-3.49,13.39-7.11,17.55-9.88.5-5.86,1-11.72,1.49-17.59,1.98-1.79,6.33-5.23,12.91-6.76,5.66-1.32,10.39-.61,12.93-.04,5.66-.71,11.71-1.73,18.09-3.16,12.5-2.81,23.39-6.58,32.54-10.45,1.8-.39,4.93-1.38,7.61-4.03,6.54-6.48,3.97-16.53,3.82-17.08l-.16-49.23Z"/>
        <path class="cls-1" d="m1545.04,3587.53c.02-.09.03-.2.04-.29-2.48,5.17-7.42,9.09-14.86,9.2-25.36.36-50.8,3.66-76.14,1.65-22.84-1.81-46.06-6.09-68.66-9.88-18.3-3.07-36.38-8.84-47.84-24.42-5.18-7.05-7.5-15.26-11.65-22.86-5.1-9.34-13.43-13.27-20.25-20.99-1.78-2.01-2.97-4.13-3.7-6.28-3.39-3.04-6.93-5.9-11.16-8.19-8.86-4.81-18.42-7.94-27.9-11.27-15.51-5.45-33.36-8.98-46.07-19.73-.51-.43-.97-.87-1.41-1.32-3.55-1.92-5.95-6.11-7.18-9.79,0,.57,0,1.1.02,1.68-.27-.02-2.49-.18-4.13,1.56-1.72,1.83-1.32,4.16-1.28,4.4.14,17.41.28,34.82.43,52.22-.11,1.63-.09,4.92,1.58,8.53,2.12,4.57,5.61,6.9,7.01,7.73,18.39,9.77,36.78,19.53,55.16,29.3,1.4.65,3.54,1.6,6.21,2.57,8.83,3.19,15.89,3.86,17.59,4.08,6.14.8,15.5,5.38,29.55,22.14,1.16,2.32,2.96,5.28,5.71,8.25,4.11,4.44,8.52,6.91,11.4,8.24,15.11,5,34.52,10.52,57.44,14.81,35.56,6.66,64.02,7.46,78.1,7.5,16.82.06,37.9-.87,62.04-4.34,2.16-.49,6.82-1.87,10.84-5.98,4.24-4.33,5.34-9.23,5.91-11.91,2.75-12.98-4.99-24.12-6.81-26.61Z"/>
        <path class="cls-3" d="m632,1920.17c.01,29,1.84,49.44,7.76,103.42,26.31,239.89,40.75,296.04,49.64,327.32,11.27,39.64,22.8,71.68,31.03,93.08.71,4.08,1.57,10.39,1.55,18.1-.03,12.76-2.41,16.79-2.59,24.3-.33,14.47,8.08,17.79,16.03,37.75,2.85,7.16,2.64,8.92,8.27,40.85,1.86,10.53,4.64,26,8.27,44.99-22.25,20.86-25.38,34.75-23.27,43.95,4.54,19.78,34.17,21.63,36.71,41.88,1.91,15.26-13.99,21.45-11.89,41.88,1.29,12.56,7.45,11.72,8.79,24.82,1.81,17.61-8.72,24.67-6.98,42.14.92,9.21,4.76,16.4,7.76,20.94,6.75,78.6,20.64,167.55,46.8,263.2,9.87,36.1,20.69,70.25,32.06,102.38-3.39,26.43,2.03,43.49,7.76,54.29,5.74,10.81,9.35,10.74,12.93,21.2,6.08,17.76-1.27,26.95,5.69,47.05,3.31,9.57,5.11,7.86,8.27,17.06,7.85,22.8-3,33.83,2.59,43.95,13.27,24.05,96.34,1.32,102.9-.52,23.58-6.61,42.11-14.99,54.29-21.2-1.08-42.97-3.67-88.4-8.27-135.99-7.73-79.9-19.9-153.25-34.13-219.25.61-31.94-.6-68.1-5.17-107.55-5.97-51.56-16.29-96.75-27.41-134.44,4.92-9.01,10.01-22.06,6.21-35.16-4.09-14.09-14.72-15.33-18.62-29.99-3.76-14.16,4.26-20.17,4.65-39.3.19-9.14-1.35-22.03-9.31-37.75,22.18-44.5,23.03-77.87,15.77-102.9-3.65-12.57-5.96-11.39-8.53-23.27-8.8-40.66,15.47-67.46.78-98.51-2.21-4.67-4.68-8.11-6.21-10.08,1.15-44.28,3.39-90.36,6.98-138.06,5.21-69.2,12.71-134.71,21.72-196.23,4.53,37.25,13.7,65.4,20.94,83.77,20.48,51.92,44.26,73.08,80.67,138.06,17.33,30.93,29.31,57.14,36.45,73.68,1.8,13.81,5.08,24.53,7.76,31.8,12.93,35.11,32.52,45.67,35.68,75.24,1.16,10.85-.63,17.37-1.55,24.82-2.99,24.17,2.7,61.61,44.21,117.9-1.22,2.6-2.97,7.19-2.71,12.8.8,17.35,19.8,22.16,22.11,38.78,1.73,12.47-8.5,13.11-8.14,27.92.46,19.03,17.53,26.17,13.96,41.5-1.43,6.16-4.41,5.95-7.76,15.12-4.27,11.69-3.05,21.96-2.71,25.6,2.74,29.36-12.3,43.86,3.1,216.79,5.44,61.11,14.33,137.93,29.47,227-6.15,5.8-13.18,14.46-12.93,24.82.29,12.07,10.21,15.64,15,31.54,2.77,9.22,1.12,13.63-.52,35.16-.79,10.35-1.63,25.38-1.55,43.95,16.07,7.26,37.54,15.06,63.6,19.65,35.37,6.23,65.55,4.17,86.35,1.03,2.58-5.91,4.88-12.29,6.72-19.13,12.96-48.08-3.64-91.87-14.48-114.28,6.87-4.61,15.39-12.04,19.13-23.27,5.31-15.91-1.73-31.21-4.14-37.23-10.17-25.41-2.56-46.95,6.21-101.87,1.53-9.56,17.91-114.62,15-218.21-.83-29.44-3.06-53.24-4.65-67.74,4.24-3.69,9.69-9.68,10.34-17.58.8-9.71-6.42-12.98-10.34-24.3-5.55-16.03,4.79-21.43,4.14-48.09-.47-19.14-5.84-18.19-4.14-31.54,2.76-21.61,17.37-28.29,13.44-40.33-3.44-10.56-16.1-9.8-18.62-21.2-1.79-8.13,4.21-10.48,5.69-21.72,2.21-16.82-9.83-22.27-10.34-39.3-.45-14.89,8.5-19.31,12.41-33.09,3.59-12.66,2.81-32.83-20.17-64.12,2-18.73,4.07-46.52,3.1-80.15-.88-30.64-4.5-73.49-29.99-174.78-10.85-43.12-26.29-99.3-47.83-164.69,1.82-2.27,4.38-5.92,6.2-10.86,8.98-24.29-10.81-49.6-34.13-89.2-9.36-15.89-22.12-38.9-35.68-68.26-16.81-42.4-33.61-84.8-50.42-127.2-188.22,17.58-376.44,35.16-564.66,52.74-8,35.66-17.1,88.99-17.06,154.09Z"/>
        <path class="cls-7" d="m542.03,1754.05c-9.2-20.58-19.79-33.86-27.92-42.27-6.82-7.05-15.83-14.73-19.78-28.31-2.26-7.77-2.07-14.72-1.55-19.39-4.72-7.72-9.27-15.86-13.57-24.43-35.71-71.17-39.69-143.07-35.42-197.27-3.84-3.49-10.16-10.37-12.67-20.68-4.01-16.48,3.37-34.82,18.62-47.31,3.7-38.07,6.48-70.93,8.53-96.95,7.63-96.81,18.14-193.37,26.89-290.09.68-7.47,4.14-45.77,21.72-91.01,13.74-35.36,27.04-51.64,36.2-61.02,18.33-18.77,37.27-27.5,47.05-32.06,41.44-19.33,96.8-47.04,166.5-82.22,107.55-8.45,215.11-16.89,322.66-25.34,46.14,11.12,92.86,22.83,140.13,35.16,29.97,7.82,59.61,15.75,88.94,23.79,4.57,1.77,9.96,4.37,15.51,8.27,12.75,8.95,19.74,20.06,23.27,26.89,24.61,60.29,48.55,127.26,69.81,200.63,34.68,119.68,54.64,230.18,65.93,326.54,5.05,10.07,12.02,26.59,14.74,47.83,3.11,24.28-.84,43.02-2.59,51.71-19.95,99.28-3.4,135.2-37.75,206.06-5.24,10.8-14.08,27.42-27.92,46.54.56,8.99.21,21.54-3.88,35.68-8.2,28.35-26.38,45.62-34.9,52.74-16.89,29.56-33.78,59.12-50.67,88.68-34.64-24.3-69.29-48.61-103.93-72.91,8.27-17.24,16.55-34.47,24.82-51.71-2.56-4.3-5.5-10.79-5.33-18.62.22-9.63,5.02-15.41,9.95-25.61,3.35-6.93,7.36-17.15,9.65-30.89.26-13.96,2.26-34.79,10.81-58.41,8.34-23.02,19.75-39.99,28.31-50.8,2.9-21.88,3.49-39.72,3.49-51.97,0-23.5-2.16-35.88.52-57.4,1.89-15.18,5.25-27.34,7.76-35.16-5.51-5.46-12.88-13.97-18.62-25.85-10.23-21.21-7.48-37.07-9.31-65.15-1.2-18.46-4.99-36.15-12.58-71.55-3.85-17.99-9.69-42.39-18.45-71.17-.19,24.37-.67,65.58-2.07,116.86-3.37,123.81-8.34,167.77-4.14,243.03,1.6,28.56,5.14,72.87,14.27,127.57-.7,13.12-4.3,21.77-7.55,27.3-2.36,4.02-5.79,8.53-8.91,16.77-1.61,4.24-2.92,7.79-3.13,12.43-.35,7.64,2.48,14.11,5.33,18.62-8.27,17.24-16.55,34.47-24.82,51.71-36.69,9.54-73.38,19.09-110.07,28.63-58.75,13.59-137.95,25.94-231.72,23.85-93.73-2.09-172.29-17.94-230.36-34.13-4.05-33.35-8.1-66.7-12.15-100.06.82-.84,2.26-2.58,2.84-5.17,1.18-5.24-2.22-9.39-2.68-9.93-6.13-14.14-12.26-28.28-18.4-42.42,10.13-6.52,21.6-16.42,23.01-29.74,1.67-15.77-12.04-24.36-20.17-46.54-6.22-16.97-5.2-31.08-3.49-51.58,10.47-125.79,12.41-138.06,12.41-138.06,5.22-33.09,13.18-84.13,24.04-156.42-2.97,20.65-8.85,46.06-20.68,73.43-5.06,11.71-10.54,22.22-16.03,31.54-3.63,35.55-3.44,58.85-2.07,74.98.54,6.41,1.93,19.37-5.17,32.06-4.32,7.72-10.27,12.63-14.48,15.51,1.52,4,3.67,10.06,5.69,17.58,9.5,35.35,5.78,64.01,4.65,77.05-1.94,22.48-1.09,55.57,12.28,100.19,7.02,17.45,14.05,34.9,21.07,52.35-4.4,7.02-8.79,14.05-13.19,21.07-33.09,15.51-66.19,31.03-99.28,46.54Z"/>
        <path d="m758.21,421.08c-1.86-18.58-2.74-39.69-1.62-62.83.61-12.68,1.76-24.62,3.25-35.75-4.06,4.96-8.12,9.93-12.19,14.89,1.91-7.94,4.81-17.38,9.34-27.62,4.55-10.29,9.61-18.82,14.22-25.59-6.09,4.2-12.19,8.4-18.28,12.59-.16-3.73-.17-15.35,7.72-26.81,7.76-11.27,18.38-15.43,21.94-16.65-2.39-.09-9.54-.66-15.03-6.09-6.89-6.81-8.34-18.46-3.25-28.84,2.87,6.77,6.01,8.17,7.72,8.53,7.53,1.58,18.12-10.72,26.4-31.28.29,2.65,1.03,6,3.25,6.91,5.7,2.32,15.82-13.7,23.56-21.12,10.98-10.53,32.9-18.83,81.24-7.31-2.3-2.98-4.6-5.96-6.91-8.94,5.14.99,10.43,2.2,15.84,3.66,27.35,7.35,49.88,18.89,67.57,30.47-3.43-5.15-6.86-10.29-10.29-15.44,4.08,1.71,8.23,3.78,12.39,6.3,29.25,17.7,41.87,47.24,47.19,63.57,1.58-1.96,5.26-5.95,11.37-8.12,9.23-3.28,17.28-.04,19.23.81-2.66.67-9.29,2.74-13.81,8.94-3.89,5.34-4.22,11-4.33,13.54-.79,17.58,16.13,27.38,23.29,46.58,6.41,17.21-1.81,23.72-5.42,67.7-1.52,18.51-1.4,33.67-1.08,43.33-24,23.52-75.69,66.74-150.57,76.64-32.34,4.27-86.02,11.37-122.68-23.56-20.32-19.36-27.32-43.92-30.06-58.49Z"/>
        <path class="cls-9" d="m801.61,568.5c.17,38.61.34,77.22.52,115.83-15.17,12.24-30.34,24.48-45.5,36.71,12.65,18.15,29.9,39.25,53,59.98,41.84,37.56,84.69,57.59,114.19,68.4,22.81-12.22,51.49-30.54,80.5-57.54,37.09-34.52,60.61-70.12,74.98-96.18-8.52-2.15-18.89-5.61-29.99-11.38-18.24-9.47-30.94-21.24-38.89-29.97-.96-31.45-1.92-62.9-2.87-94.35-68.64,2.83-137.28,5.66-205.92,8.49Z"/>
        <path class="cls-8" d="m1038.64,438.96c1.14-14.52,7.95-25.93,17.23-28.64,1.39-.41,8.78-2.56,14.36,2.44,6.27,5.62,4.67,15.3,4.59,15.77-2.49,19.86-4.97,39.72-7.46,59.59-.1,1.92-1.39,20.89-16.08,30.06-6.46,4.03-12.88,4.52-16.46,4.47-6.04,24.11-8.87,39.34-10.34,49.15-.31,2.06-.85,5.87-2.68,10.56-4.24,10.89-11.85,17.4-18.38,22.34-21.9,16.57-54.24,32.62-58.96,34.93-4,2.05-9.01,4.15-14.93,5.69-9.81,2.55-18.39,2.57-24.5,2.03-5.64.47-14.38.58-24.5-2.03-6.94-1.79-11.86-4.17-14.93-5.69-4.71-2.32-37.06-18.36-58.96-34.93-6.52-4.94-14.13-11.45-18.38-22.34-1.83-4.69-2.37-8.5-2.68-10.56-1.46-9.81-4.3-25.04-10.34-49.15-3.58.05-10-.44-16.46-4.47-14.69-9.17-15.98-28.14-16.08-30.06-2.49-19.86-4.97-39.72-7.46-59.59-.08-.47-1.68-10.14,4.59-15.77,2.8-2.51,8.3-3.92,13.25-2.73,1.1.26,2,.62,2.61.9,3.11,1.41,5.69,3.93,8.28,8.44,3.02,5.28,7.16,15.26,10.89,28.53,1.09-8.37,2.64-21.03,4.12-36.59,1.66-17.4,1.69-22.11,3.19-29.62,2.07-10.35,6.71-24.84,18.28-41.43-2.3-2.77-6.53-8.65-7.72-17.06-1.78-12.55,4.41-22.13,7.03-26.18,6.46-10,15.08-14.88,18.28-16.65,26.29-14.5,69.84-7.82,87.4-5.8,24.52,2.83,58.96,3.56,102.18-5.8-.89,2.95-1.92,7.61-1.35,13.13,2,19.63,21.12,21.45,26.54,39.54,5.32,17.76-10.14,25.94-3.97,50.41,2.01,7.96,4.07,8.78,7.22,17.83,6.3,18.11,5.04,34.93,2.86,46.6l-.28,2.68Z"/>
        <path class="cls-8" d="m542.03,1754.05c6.13-11.24,16.14-25.77,32.06-38.65,9.82-7.95,26.41-21.07,51.19-24.3,11.04-1.44,20.3-.5,26.37.52,19.3,21.98,38.61,43.95,57.91,65.93,1.3,1.69,3.12,4.58,3.88,8.53,1.7,8.81-3.26,15.72-4.27,17.06-4.65,5.43-9.31,10.86-13.96,16.29,17.71,36.58,35.42,73.17,53.13,109.75,1.4,1.91,4.83,7.14,4.65,14.35-.06,2.38-.17,6.75-3.1,10.47-4.95,6.28-14.73,6.66-21.33,4.27-4.26-1.54-7.07-4.2-8.53-5.82-6.85-6.68-13.7-13.36-20.55-20.04.65,2.05,1.64,6.27-.26,10.34-1.4,3-3.76,4.59-5.43,5.69-11.51,7.54-17.26,11.31-21.46,11.63-12.61.99-22.02-9.18-23.53-10.86-.55.76-3.79,5.1-9.82,5.95-6.45.9-10.97-2.91-11.63-3.49-6.2-7.5-12.41-15-18.61-22.49-.04.64-.31,3.52-2.71,5.62-.1.08-2.08,1.77-4.85,1.94-3.79.23-7.65-2.48-9.89-6.79-11.51-13.96-23.01-27.92-34.52-41.88-1.78-2.78-4.18-7.12-5.82-12.8-2.26-7.87-1.83-14.11-1.55-19.39.6-11.24.4-22.62,0-45.37-.13-7.45-.35-13.01-1.94-20.17-1.56-7.04-3.77-12.61-5.43-16.29Z"/>
        <path class="cls-8" d="m1231.82,1769.69c12.27,1.18,33.8,4.92,56.36,18.62,31.63,19.2,46.32,46.42,51.71,57.91-2.66,6.95-5.76,14.76-9.31,23.27-26.39,63.29-52.79,105.35-60.5,117.38-5.42,8.46-10.12,15.38-13.44,20.17-1.31,1.06-3.48,2.54-6.46,3.36-5.7,1.56-10.49-.33-12.93-1.29-1.85-.73-7.39-3.01-11.38-9.05-3.56-5.39-3.87-10.75-3.88-12.93-7.97,6.92-15.94,13.85-23.91,20.77-1.39,1-4.53,2.96-8.93,3.27-4.94.35-8.56-1.61-10.34-2.59-8.14-4.44-10.62-13.12-11.12-15-2.45,2.72-4.9,5.45-7.35,8.17-1.36,1.39-4.32,4-8.68,4.76-6.5,1.13-11.87-2.31-14.48-4.65-3.09-2.77-8.41-8.36-11.38-17.06-1.45-4.26-1.94-8.12-2.07-11.12-1.83,1.69-4.67,4.01-8.53,6.08-3.55,1.9-10,5.26-18.62,4.78-2.36-.13-8.33-.53-14.17-4.47-1.97-1.32-3.57-3.1-6.78-6.65-6.38-7.07-8.79-11.78-9.82-15.25-.48-1.63-.83-3.56-.45-5.75.13-.75.4-2.31,1.36-3.68,2.44-3.48,7.62-3.26,8.22-3.23,2.68-.44,5.72-1.15,8.97-2.33,7.67-2.77,13.24-6.89,16.81-10.08,10.44-9.73,21.73-21.39,33.09-35.16,10.65-12.92,19.48-25.4,26.76-36.84,1.16-2.37,2.25-5.09,3.1-8.14,3.4-12.21,1.1-23.02-.78-29.09-3.04.65-6.08,1.29-9.11,1.94-4.01-2.17-8.61-5.07-13.38-8.92-6.4-5.17-11.14-10.49-14.54-14.93,2.53-5.59,6.86-13.59,14.16-21.65,4.49-4.96,7.82-8.64,12.67-11.38,14.35-8.09,27.65.22,57.91,1.29,9.19.33,16.65-.13,21.2-.52Z"/>
        <path d="m1123.8,1974.51c3.15-4.92,6.76-9.33,10.55-13.57,3.78-4.23,7.73-8.29,11.87-12.15,4.12-3.88,8.44-7.53,12.92-11.02,4.48-3.49,9.13-6.79,14.26-9.59-3.14,4.92-6.75,9.34-10.54,13.57-3.79,4.23-7.73,8.29-11.87,12.14-4.13,3.87-8.45,7.53-12.93,11.01-4.48,3.49-9.13,6.79-14.25,9.6Z"/>
        <path d="m1167.71,1993.59c1.45-3.86,3.45-7.23,5.57-10.5,2.16-3.23,4.52-6.29,7.06-9.19,2.54-2.9,5.26-5.64,8.19-8.2,2.96-2.53,6.05-4.95,9.69-6.88-1.44,3.86-3.44,7.24-5.56,10.5-2.16,3.23-4.52,6.29-7.07,9.18-2.55,2.9-5.27,5.64-8.19,8.2-2.96,2.53-6.05,4.95-9.68,6.89Z"/>
        <path d="m1222.26,1985.58c.94-3.15,2.41-5.81,4-8.35,1.63-2.51,3.46-4.84,5.46-7.01,2-2.17,4.18-4.17,6.56-5.99,2.41-1.79,4.95-3.46,8.03-4.63-.93,3.16-2.4,5.82-4,8.36-1.63,2.51-3.46,4.84-5.46,7-2.01,2.16-4.19,4.17-6.56,5.98-2.41,1.79-4.95,3.46-8.02,4.64Z"/>
        <path d="m700.01,1914.46c-4.32-5.14-8.17-10.55-11.97-16-3.72-5.49-7.29-11.06-10.73-16.71l-5.06-8.53-4.83-8.66c-3.15-5.81-6.17-11.7-9.04-17.68l-.19-.41-.02-.09c-1.35-6.37-2.63-12.76-3.42-19.31,3.01,5.86,5.52,11.88,7.96,17.92l-.21-.49c3.72,5.48,7.3,11.05,10.74,16.7l5.06,8.53,4.83,8.66c3.16,5.81,6.18,11.7,9.05,17.67,2.8,6.02,5.54,12.07,7.82,18.38Z"/>
        <path d="m648.81,1929.22c-4.28-6.28-8.07-12.8-11.8-19.34-3.65-6.58-7.15-13.23-10.5-19.95l-4.93-10.13-4.7-10.24c-3.06-6.86-5.97-13.78-8.73-20.79l-.14-.35v-.05c-1.36-7.21-2.63-14.45-3.41-21.81,3.01,6.77,5.53,13.67,7.97,20.59l-.15-.4c3.66,6.57,7.16,13.22,10.53,19.93l4.93,10.13,4.7,10.23c3.07,6.85,5.98,13.78,8.76,20.77,2.69,7.03,5.32,14.09,7.47,21.39Z"/>
        <path d="m608.73,1909.18c-3.31-3.73-6.26-7.67-9.09-11.67-2.81-4.01-5.46-8.11-8-12.27-5.09-8.32-9.66-16.92-13.77-25.78l-.25-.53-.03-.18c-.54-3.33-.96-6.69-1.34-10.06-.3-3.39-.63-6.77-.62-10.23,1.55,3.09,2.78,6.26,4.03,9.42,1.18,3.18,2.31,6.37,3.32,9.59l-.28-.71c5.37,8.16,10.28,16.58,14.67,25.28,2.19,4.35,4.29,8.76,6.22,13.26,1.91,4.51,3.71,9.09,5.13,13.87Z"/>
        <path d="m695.22,1799.43c-2.21.53-4,.08-5.68-.6-1.64-.78-3.17-1.79-4.27-3.79,2.22-.53,4-.08,5.68.6,1.64.79,3.17,1.8,4.27,3.79Z"/>
        <g>
          <path class="cls-5" d="m912.01,1845.19c3.59,18.19,6.14,36.48,8.34,54.8,1.19,9.15,2.02,18.33,3.01,27.51l2.43,27.55,1.87,27.58.7,13.8.34,6.9c.1,2.44-.06,4.44.17,6.52.76,8.3,4.08,16.5,9.95,22.86,5.75,6.47,13.9,11.01,22.83,13.38-9.28-.07-18.78-3.41-26.38-9.65-3.77-3.15-6.97-7.03-9.48-11.36-2.49-4.35-4.11-9.17-5.02-14.12-.5-2.48-.56-5.09-.85-7.24l-.73-6.87-1.44-13.73-2.41-27.49-1.85-27.52c-.43-9.18-1.03-18.36-1.27-27.56-.66-18.39-.95-36.81-.22-55.34Z"/>
          <path class="cls-5" d="m958.54,1850.62c3.52,15.98,6,32.04,8.13,48.14,1.16,8.04,1.95,16.11,2.91,24.17l2.32,24.21,1.76,24.26c.39,8.1.97,16.19,1.17,24.31.59,16.22.82,32.48,0,48.82-3.53-15.98-6.02-32.04-8.14-48.13-1.16-8.04-1.94-16.11-2.9-24.17l-2.31-24.22-1.75-24.26c-.4-8.1-.97-16.19-1.17-24.31-.59-16.22-.82-32.48-.02-48.82Z"/>
          <path class="cls-5" d="m996.55,2053.83c10.43.15,20.64,1.31,30.76,2.82,10.14,1.45,20.16,3.41,30.12,5.65,9.95,2.27,19.84,4.84,29.61,7.91,9.78,3.01,19.49,6.38,28.96,10.77-10.44-.14-20.64-1.29-30.77-2.8-10.14-1.45-20.16-3.41-30.12-5.67-9.95-2.28-19.83-4.85-29.6-7.92-9.78-3.01-19.49-6.38-28.96-10.76Z"/>
          <path class="cls-5" d="m962.42,2060.04c-3.51,5.52-7.66,10.21-12.01,14.66-4.37,4.42-9,8.51-13.84,12.33-4.84,3.82-9.91,7.35-15.23,10.56-5.35,3.18-10.89,6.1-17.09,8.2,3.5-5.53,7.65-10.23,12-14.68,4.37-4.42,9-8.51,13.85-12.32,4.85-3.81,9.92-7.34,15.24-10.55,5.35-3.18,10.89-6.11,17.08-8.22Z"/>
          <path class="cls-5" d="m902.96,2017.38c-10.99-4.47-21.43-9.8-31.67-15.45-10.27-5.59-20.27-11.62-30.1-17.89-9.82-6.3-19.48-12.85-28.85-19.84-9.41-6.94-18.62-14.19-27.27-22.31,11,4.45,21.44,9.79,31.68,15.43,10.27,5.59,20.27,11.62,30.09,17.91,9.81,6.31,19.47,12.86,28.85,19.85,9.41,6.94,18.62,14.19,27.28,22.3Z"/>
          <path class="cls-5" d="m787.13,2720.62c9.87,6.73,19.56,13.27,29.78,17.96,10.16,4.63,21.03,7.18,30.67,4.7,4.56-1.22,9.76-4.08,14.88-6.7,5.16-2.68,10.4-5.45,15.64-8.01,10.44-5.31,20.9-10.64,31.83-15.52-8.46,8.48-17.85,15.84-27.66,22.55-4.9,3.42-9.85,6.53-14.95,9.65-5.18,3.01-10.25,6.2-17.07,8.16-6.7,1.63-13.54,1.45-19.86-.1-6.32-1.55-12.13-4.23-17.34-7.56-10.48-6.61-19.07-15.32-25.9-25.12Z"/>
          <path class="cls-5" d="m1256.64,2686.49c12.41,4.93,24.71,9.14,37.23,12.15,3.13.75,6.28,1.35,9.42,2.03,3.23.64,6.44,1.28,9.61,1.83,6.33,1.18,12.53,2.18,18.62,2.14,12.12.23,24.03-3.31,34.59-9.93,10.59-6.62,19.75-15.92,28.07-26.32-4.53,12.55-12.41,24.23-23.33,32.98-10.82,8.76-25.15,14.13-39.47,13.73-7.12-.18-14-1.35-20.55-2.93-3.27-.82-6.49-1.71-9.66-2.6-3.27-.9-6.5-1.94-9.67-3.15-12.7-4.67-24.67-11.28-34.86-19.94Z"/>
        </g>
        <g>
          <path class="cls-6" d="m1266.99,1159.01c-8.35-17.83-14.66-36.6-19.43-55.75-2.41-9.57-4.3-19.28-5.97-29.02-.81-4.88-1.5-9.77-2.06-14.68-.64-4.9-1.14-9.82-1.58-14.74-.76-9.86-1.21-19.74-1.3-29.62.06-9.88.25-19.76,1.08-29.6,1.5-19.68,4.53-39.23,9.62-58.24-.78,19.67-1.49,39.12-1.45,58.54.16,9.71.16,19.4.67,29.08.39,9.67.9,19.34,1.82,28.97.66,9.65,1.79,19.27,2.99,28.87.5,4.82,1.29,9.6,1.92,14.4l2.23,14.38c3.2,19.15,7.23,38.19,11.46,57.41Z"/>
          <path class="cls-6" d="m669.23,1211.76c-.86-7.22-1.61-14.45-2.27-21.68-.62-7.23-1.28-14.46-1.76-21.69l.3,1.24c-18.89-34.26-32.89-71.28-42.2-109.35-4.61-19.05-8.02-38.39-10.08-57.85-2.04-19.46-2.83-39.03-1.9-58.53,2.78,19.31,5.56,38.48,9.22,57.46,3.49,19,7.82,37.79,12.61,56.43,4.98,18.6,10.51,37.04,16.84,55.23,6.26,18.22,13.35,36.16,20.9,53.98l.31.74v.51c-.15,7.25-.46,14.5-.74,21.75-.32,7.25-.72,14.5-1.24,21.76Z"/>
          <path class="cls-6" d="m647.81,1121.18c-14.49-16.46-27.44-34.25-39.26-52.74-5.99-9.21-11.5-18.71-16.89-28.29-5.3-9.62-10.27-19.43-15.1-29.3-4.61-9.97-9.11-20-13.25-30.18-4.01-10.23-7.97-20.48-11.33-30.94-6.9-20.84-12.52-42.11-16.16-63.74,7.84,20.48,15.56,40.81,23.82,60.9,8.32,20.06,17,39.92,26.36,59.46,9.25,19.59,19.2,38.85,29.54,57.95,10.38,19.08,21.29,37.9,32.26,56.89Z"/>
          <path class="cls-6" d="m1251.47,1102.13c-1.29-24.11-.65-48.29,1.29-72.37.86-12.05,2.35-24.05,3.87-36.04,1.69-11.97,3.63-23.9,5.83-35.78,2.37-11.85,4.84-23.69,7.73-35.42,3.01-11.71,6.02-23.41,9.64-34.94,7.08-23.1,15.34-45.83,25.41-67.78-5.96,23.39-11.98,46.61-17.53,69.91-2.65,11.68-5.45,23.31-7.86,35.03-2.57,11.68-4.93,23.4-7.11,35.16-4.57,23.47-8.4,47.08-11.89,70.77-3.44,23.71-6.34,47.51-9.38,71.46Z"/>
          <path class="cls-6" d="m1347.14,1388.08c6.15-11.57,15.06-21.79,25.67-29.93,2.65-2.04,5.37-4.02,8.24-5.76,2.84-1.8,5.61-3.38,8.56-5.01,5.87-3.18,12.12-5.92,18.67-7.86,13.06-4,27.39-4.48,40.55-1.09,13.19,3.26,25.27,10.17,34.3,19.66-11.63-5.97-23.63-10.09-35.83-11.63-12.21-1.47-24.4-.45-36.04,3.1-5.85,1.69-11.53,4.03-17.18,6.67-5.7,2.72-11.33,5.52-16.68,8.65-10.75,6.39-20.68,14.3-30.26,23.21Z"/>
          <path class="cls-6" d="m1323.87,1344.13c5.16-7.25,11.83-13.27,19.14-18.36,7.37-5.01,15.46-9.03,23.94-11.88,8.47-2.9,17.35-4.51,26.22-5.04,8.88-.39,17.81.22,26.36,2.71-8.68,1.9-17.02,3.48-25.21,5.44-8.17,1.98-16.19,4.14-24.04,6.81-7.86,2.64-15.56,5.69-23.23,9.1-7.69,3.4-15.21,7.31-23.18,11.22Z"/>
          <path class="cls-6" d="m607.96,1441.08c-7.85-6.36-15.5-12.3-23.59-17.43-8.03-5.2-16.44-9.55-25.12-13.22-8.7-3.65-17.72-6.53-27.05-8.67-9.33-2.24-18.92-3.61-28.94-4.89,9.65-3.1,19.95-3.96,30.15-3.26,10.21.72,20.38,3.15,29.89,7.16,9.5,4.03,18.41,9.5,26.05,16.35,7.62,6.85,14.17,14.85,18.62,23.96Z"/>
          <path class="cls-6" d="m439.65,1401.53c8.67-9.63,19.64-17.28,31.64-22.72,11.98-5.58,25.15-8.71,38.42-9.55,13.29-.68,26.72.9,39.27,5.01,12.54,4.02,24.37,10.22,34.16,18.73-12.02-4.76-24.02-8.46-36.18-10.81-12.17-2.29-24.43-3.09-36.63-2.47-6.09.45-12.18,1.08-18.2,2.21-6.02,1.13-11.97,2.67-17.89,4.48-11.81,3.74-23.24,8.92-34.58,15.13Z"/>
          <path class="cls-6" d="m509.45,1660.59c2.66-9.22,7.91-17.7,14.67-24.83,6.81-7.11,15.32-12.68,24.55-16.37,9.24-3.72,19.21-5.33,28.97-5.03,9.74.31,19.41,2.35,27.99,6.67-9.56-.04-18.68.26-27.57,1.55-8.88,1.2-17.45,3.3-25.55,6.54-8.08,3.24-15.8,7.43-22.93,12.76-7.18,5.28-13.67,11.65-20.13,18.7Z"/>
          <path class="cls-6" d="m1305.25,1683.08c8.12-3.7,17.39-4.81,26.53-3.82,9.15,1.04,18.13,4.49,25.79,9.84,7.72,5.31,13.97,12.59,18.17,20.72,4.14,8.13,6.64,17.06,6.3,26-3.94-7.93-8.24-15.14-13.26-21.6-4.99-6.46-10.71-12.05-17.2-16.54-6.47-4.52-13.65-8.04-21.42-10.39-7.78-2.39-16.06-3.61-24.9-4.22Z"/>
          <path class="cls-6" d="m1235.97,1770.16c1.28-4.45,2.72-8.81,4.3-13.11,1.5-4.33,3.26-8.54,4.91-12.8,3.52-8.41,7.13-16.77,11.1-24.95l.09,4.77c-3.79-6.33-6.38-14-6.08-21.98.12-3.94,1-7.98,2.54-11.59,1.54-3.62,3.55-6.7,5.4-9.5,3.75-5.43,6.83-11.05,9.64-17.09,2.78-6.01,5.09-12.33,7.39-18.85.38,6.9-.31,13.87-1.86,20.71-1.49,6.83-4.13,13.59-7.36,19.79-3.27,6.12-5.46,11.04-5.38,16.78-.09,5.64,1.69,11.34,4.53,16.78l1.31,2.5-1.22,2.27c-4.3,8.01-8.96,15.84-13.71,23.61-2.49,3.83-4.87,7.72-7.5,11.47-2.55,3.8-5.24,7.53-8.1,11.17Z"/>
          <path class="cls-6" d="m651.65,1691.61c1.11-2.45,1.3-4.85.79-6.79-.28-.97-.69-1.84-1.2-2.63-.49-.78-1.18-1.53-1.77-2.01l-.46-.79c-4.96-7.88-8.94-16.19-12.19-24.82-1.61-4.32-3.01-8.73-4.13-13.26-1.09-4.55-1.97-9.18-2.23-14.08,3.4,3.54,6.18,7.35,8.76,11.25,2.54,3.92,4.8,7.95,6.85,12.08,4.08,8.27,7.42,16.85,9.79,25.86l-.46-.79c.92,1.51,1.39,3.03,1.69,4.62.25,1.6.25,3.24-.16,4.77-.71,3.08-2.82,5.52-5.27,6.58Z"/>
        </g>
        <path class="cls-2" d="m752.23,3592.69c17.74-1.13,35.52-1.79,53.32-2.18,4.45-.08,8.91-.28,13.35-.26l13.28.06,26.51-.16,26.53-.58c8.35-.35,17.25-1.34,25.82-2.59,8.64-1.24,17.4-2.44,25.16-4.94,7.71-2.54,14.9-6.71,21.07-12.19l-1.51,3.32c.41-9.54,3.04-19.23,8.37-27.34,2.59-4.09,5.91-7.76,9.57-10.81,3.64-3.1,7.64-5.48,11.6-7.72,7.99-4.36,15.95-8.16,24.24-11.72,8.27-3.48,16.77-6.33,25.4-8.59-8.14,3.64-16.07,7.61-23.77,11.92-3.87,2.14-7.61,4.42-11.4,6.76-3.79,2.3-7.57,4.57-11.17,7-7.21,4.86-13.62,10.25-17.46,17.39-3.96,7.08-5.87,15.19-5.95,23.38l-.02,1.89-1.49,1.43c-6.83,6.58-15.12,11.88-24.27,14.91-9.13,3.03-18.04,4.29-26.93,5.68-9,1.18-17.77,2.09-27.16,2.36-8.81.18-17.81.04-26.7-.16-17.81-.22-35.66-1.82-53.29-2.77-17.68-1.02-35.38-2.31-53.12-4.08Z"/>
        <path class="cls-2" d="m1208.56,3465.22c4.44,6.79,10.86,12,18.05,15,1.8.74,3.65,1.36,5.53,1.86,1.93.48,3.96,1.08,5.88,1.63,3.9,1.13,7.79,2.33,11.66,3.59,7.72,2.56,15.38,5.43,22.9,8.46,7.47,3.04,15.19,5.97,22.52,10.76,7.12,4.69,13.43,10.62,18.72,17.14,5.36,6.52,9.89,13.19,14.55,19.96,2.31,3.43,4.53,7.05,6.48,10.85,1.95,3.98,3.22,6.32,5.8,9.15,4.65,5.38,10.96,9.15,18.03,12.11,14.11,5.95,29.95,9.47,45.49,12.34,15.62,2.89,31.57,4.23,47.6,5.47,16.04,1.07,32.14,1.91,48.25,2.39,8.06.32,16.13.47,24.2.63l6.04.11c2.06.09,3.86.01,5.74-.58,3.7-1.06,7-3.73,8.92-7.3-1.43,3.78-4.46,7.08-8.37,8.78-1.91.89-4.18,1.23-6.16,1.34l-6.07.55c-8.07.7-16.16,1.17-24.26,1.61-16.2.72-32.42,1-48.67.63-16.25-.28-32.57-1.44-48.85-3.85-8.14-1.24-16.16-2.94-24.16-4.89-7.99-2.02-15.99-4.27-23.85-7.62-7.74-3.31-15.71-8.05-21.61-15.02-1.45-1.67-2.84-3.48-4.1-5.55-1.27-2.09-2.11-4.01-2.98-5.71-1.71-3.41-3.7-6.7-5.77-10.05-4.29-6.67-8.67-13.51-13.4-19.62-4.75-6.13-10.09-11.63-16.24-16.19-5.98-4.45-13.37-7.63-20.61-11.19-7.25-3.53-14.53-6.82-21.95-9.92-3.69-1.58-7.42-3.09-11.16-4.55-1.91-.73-3.7-1.45-5.64-2.12-1.98-.71-3.89-1.6-5.73-2.6-7.38-3.98-13.33-10.28-16.8-17.6Z"/>
        <path class="cls-2" d="m835.74,3502.46c10.44-4.04,21.87-5.94,33.32-5.66,5.74.05,11.46.83,17.13,1.94,5.68,1.08,11.2,2.9,16.61,5l-6.29,2.48c3.79-9.59,7.98-19,12.02-28.48,4.14-9.43,8.45-18.79,12.93-28.08,2.18-4.67,4.44-9.3,6.79-13.9,2.29-4.62,4.62-9.23,7.06-13.78,4.78-9.15,9.79-18.21,15.24-27.07-2.83,10.01-6.09,19.83-9.58,29.55-1.69,4.88-3.51,9.71-5.35,14.53-1.79,4.84-3.67,9.64-5.62,14.41-3.8,9.58-7.77,19.1-11.89,28.54-4.23,9.39-8.32,18.85-12.8,28.14l-2.15,4.45-4.14-1.97c-4.78-2.28-9.79-4.05-14.86-5.68-5.09-1.61-10.33-2.69-15.64-3.6-10.64-1.65-21.62-1.9-32.75-.81Z"/>
        <path class="cls-2" d="m1298.53,3367.49c10.04,7.99,19.28,17.04,27.7,26.82,4.26,4.85,8.24,9.95,12.06,15.17,3.83,5.21,7.46,10.59,10.81,16.13,6.89,10.99,12.65,22.65,17.78,34.56,4.9,12.01,9.2,24.28,12.23,36.89l-7.99-2c4.95-4.97,10.86-9.17,17.47-11.64,6.54-2.62,13.59-3.79,20.43-3.44,6.86.25,13.49,1.82,19.68,4.19,6.2,2.36,12.01,5.56,17.2,9.49-5.93-2.65-12.08-4.62-18.26-5.93-6.18-1.29-12.45-1.86-18.52-1.42-6.07.5-11.95,1.96-17.22,4.63-5.29,2.6-9.98,6.25-13.93,10.63l-5.47,6.07-2.52-8.07c-3.75-11.98-7.79-23.85-12.76-35.36-4.71-11.61-10.3-22.84-16.24-33.89-3-5.51-6.22-10.91-9.44-16.31-3.29-5.37-6.75-10.63-10.26-15.88-7.15-10.42-14.76-20.59-22.75-30.63Z"/>
      </g>
      <rect class="cls-4" width="2061.08" height="3801.64"/>
    </g>
  </g>
</svg>