<?xml version="1.0" encoding="UTF-8"?>
<svg id="Layer_2" data-name="Layer 2" xmlns="http://www.w3.org/2000/svg" xmlns:xlink="http://www.w3.org/1999/xlink" viewBox="0 0 2069.32 3801.64">
  <defs>
    <style>
      .cls-1 {
        clip-path: url(#clippath);
      }

      .cls-2 {
        fill: none;
      }

      .cls-3 {
        fill: #1a1a1a;
      }
    </style>
    <clipPath id="clippath">
      <rect class="cls-2" width="2069.32" height="3801.64"/>
    </clipPath>
  </defs>
  <g id="Layer_1-2" data-name="Layer 1">
    <g class="cls-1">
      <g>
        <path class="cls-3" d="m350.02,2932.92c-65.86,49.38-123.45,87.83-167.05,115.57-85.81,54.6-151.09,96.13-244.06,134.95-77.1,32.19-132.86,50.54-132.86,50.54-65.95,23.29-92.88,29.57-160.01,58.57-63.94,27.62-76.11,37.04-370.4,209.61-153.19,89.83-286.89,167.61-447.93,261.29-52.28,30.41-95.39,55.44-124.16,72.14-90.72,59.91-231.24,172.36-332.38,358.56-148.46,273.33-123.18,541.97-111.98,646.05,7.16,66.52,18.86,121.58,28.71,160.79,6.09,32.44,12.36,83.13,5.03,143.57-11.18,92.14-45.57,137.67-94.75,247.65-15.97,35.7-65.78,148.23-92.6,264.88-28.74,124.98-23.78,222.93-21.54,284.26,6.04,165.21,4.7,401.58-11.48,762.34-3.39,18.81-8.88,46.82-17.23,80.4-19.76,79.48-39.13,124.32-51.68,163.67-12.9,40.44-22.59,87.65-25.84,212.48-7.11,273.28,22.25,704.73,24.41,736.5,23.05,339.26,23.65,418.03,47.38,572.83,32.82,214.18,74.76,344.55,86.14,379.01,12.73,38.55,19.5,54.87,34.45,103.37,33.62,109.02,46.87,180.39,73.22,310.1,42.7,210.16,64.4,316.25,81.83,366.09,33.26,95.11,53.53,121,71.78,205.3,21.68,100.15,19.64,186.32,14.36,244.06-7.18,129.45-14.36,258.9-21.53,388.35-1.8,19.33-2.22,41.04,0,64.6,8.11,86.04,46.99,149.9,73.22,185.2,24.65,54.82,60.46,129.2,109.11,214.63,54.76,96.17,86.34,151.63,145,219.66,84.47,97.95,164.61,151.82,189.51,167.97,39.02,25.31,73.96,43.35,100.14,55.63,15.22,5.76,37.58,11.81,64.6,10.77,9.19-.35,17.59-1.48,25.05-2.96,25.27,18.1,50.54,36.19,75.81,54.29,3.41,1.91,25.8,14.01,45.94,4.31,22.09-10.64,24.72-39.4,25.84-51.68,4.1-44.89-27.23-78.77-35.43-87.13,5.42-12.65,10.52-30.11,9.59-50.69-3.09-68.13-69.44-106.81-76.09-110.55-52.45-36.75-120.44-95.82-175.15-185.2-54.85-89.6-72.41-170.53-84.7-229.71-19.85-95.54-19.75-177.33-15.79-234.01,6.02-11.24,13.94-23.56,24.41-35.89,33.86-39.9,75.35-57.48,99.31-65.27,14.14,59.73,24.8,107.39,31.34,137.06,24.23,109.96,29.98,146.07,58.86,193.81,20.14,33.3,42.17,68.52,84.7,80.4,40.83,11.4,78.01-5,93.32-12.92,4.81-54.1,9.62-108.19,14.43-162.29-31.36-89.11-56.12-168.63-75.45-235.39-12.47-43.07-33.46-115.95-55.99-213.2-31.99-138.07-22.33-132.08-38.76-176.59-39.3-106.46-89.88-128.04-157.2-234.73-56.9-90.18-79.85-168.4-101.21-241.19-41.69-142.09-45.62-271.07-34.46-439.31,17.66-266.07,52.56-321.26,86.86-581.44,25.37-192.46,28.4-369.49,34.45-723.57,3.65-213.25,1.87-391.95-.72-521.15.7-47.53,3.36-117.87,12.92-202.43,17.98-159.04,44.4-227.42,77.53-381.17,44.27-205.47,58.43-368.14,68.19-480.23,12.6-144.65,15.57-265.57,15.79-351.02,6.22-74.89,12.44-149.79,18.66-224.68,18.18,31.11,36.37,62.21,54.56,93.32,18.46,57.51,44.79,147.92,66.04,261.29,29.38,156.73,24.09,224.23,51.68,353.17,31.2,145.78,76.97,241.8,103.37,304.36,64.13,151.96,137.5,399.17,170.84,812.59-9.89,156.58-14.92,323.48-12.92,499.61,2.97,261.66,21.03,503.87,47.38,723.57,985.34-100.5,1970.69-200.99,2956.03-301.49,26.89-263.79,1.1-466.71-27.28-602.98-43.15-207.21-96-278.04-81.83-456.54,4.01-50.5,9.25-57.57,68.91-379.01,16.23-87.44,31.41-170.78,40.92-223.96,22.62-126.53,52.33-301.54,83.98-516.84,40.2-134,80.4-267.99,120.59-401.99,13.7,9.63,27.41,19.25,41.11,28.87-3.93,126.92-10.88,438.17,14.88,671.73,7.9,71.63,15.75,107.57,22.97,134.95,37.4,141.84,86.9,164.09,126.33,301.49,23.86,83.13,28.86,155.55,31.58,198.12,3.83,60.02.57,90.09-1.34,175.14-1.41,63.01-.5,121.93,1.34,239.77,2.91,186.3,11.05,337.39,14.36,394.81,13.22,229.25,19.82,343.87,40.2,459.41,35.63,202.04,61.62,173.66,114.85,407.73,69.27,304.61,74.04,567.16,75.88,708.54,1,76.68-.46,140.08-1.95,183.01-105.37,130.44-158.59,251.48-187.36,338.1-21.12,63.59-31.39,115.67-47.37,198.12-27.87,143.76-42.79,269.45-51.16,369.66,5.57,78.49,11.14,156.98,16.71,235.48,16.89,1.5,46.54,1.66,77.53-12.92,59.18-27.84,79.82-89.03,88.3-114.14,12.55-37.19,10.23-59.1,12.92-111.98,2.1-41.34,7.28-101.9,21.53-176.59,24.7,9.55,61.81,28.62,85.42,66.76,12.42,20.06,21.1,45.38,21.53,145,.17,38.57-.89,89.39-5.74,149.31-32.54,78.48-65.09,156.97-97.63,235.45-31.56,17.49-65.44,38.33-100.5,63.17-25.16,17.83-48.11,35.7-68.91,53.12,1.92,115.33,3.83,230.66,5.74,345.99,42.78-20.3,101.86-50.41,169.41-91.88,68.03-41.77,142.25-87.34,216.78-159.36,15.22-14.7,59.76-58.84,152.18-195.25,50.04-73.86,115.01-176.1,183.76-304.36,10.31-12.09,24.25-30.45,36.61-54.91,31.21-61.77,29.98-118.17,29.07-172.28-4.35-260.89,2.86-233-3.95-282.47-16.23-117.89-35.09-115.6-44.51-228.27-5.25-62.81-10.22-129.08,10.77-209.61,13.63-52.29,24.27-57.14,34.46-107.67,14.91-73.97,4.4-124.58,0-178.74-4.57-56.27,4.13-120.06,21.53-247.65,33.66-246.8,83.07-400.31,114.14-597.24,28.48-180.54,27.12-315.61,24.41-585.75-2.29-227.99-17.38-421.41-33.02-567.8-1.75-105.13-8.65-220.62-23.69-344.56-18.29-150.79-45.33-287.1-75.37-407.01-2.39-259.38-4.78-518.75-7.18-778.13-1.82-118.38-19.53-209.99-35.89-272.78-30.72-117.92-60.3-195.25-60.3-195.25-21.44-56.06-36.96-86.6-45.23-138.54-9.14-57.39-3.97-106.54,2.16-139.98,20.97-51.04,46.46-122.26,66.04-209.61,56.8-253.41,21.9-455.68,14.36-496.74-20.99-114.22-61.39-333.97-231.14-508.22-94.93-97.45-225.09-175.31-258.42-195.25-48.84-29.22-62.19-33.35-160.79-84.7-126.85-66.06-170.28-93.34-328.05-180.89-164.08-91.06-246.12-136.59-342.4-185.2-261.87-132.21-297.03-134.8-447.93-219.66-93.54-52.61-225.54-134.59-374.71-256.27-192.33-15.38-410.76-21.97-650.36-10.77-228.68,10.69-436.45,35.7-619.69,66.76Z"/>
        <path class="cls-3" d="m97.18,3102.12c-41.57,24.24-105.1,58.76-186.13,92.73-98.61,41.35-136.34,45.51-230.02,83.14-79.85,32.08-132.41,61.41-237.55,120.07-112.8,62.94-151.98,91.78-283.61,171.85-62.93,38.28-156.42,94-273.47,159.38,403.6-209.06,807.19-418.12,1210.79-627.18Z"/>
        <path class="cls-3" d="m1922.61,3102.12c41.57,24.24,105.1,58.76,186.13,92.73,98.61,41.35,136.34,45.51,230.02,83.14,79.85,32.08,132.41,61.41,237.55,120.07,112.8,62.94,151.98,91.78,283.61,171.85,62.93,38.28,156.42,94,273.47,159.38-403.6-209.06-807.19-418.12-1210.79-627.18Z"/>
        <path class="cls-3" d="m278.61,1750.97c-11.37-38.39-22.74-76.78-34.11-115.17-3.63-28.42-22.08-52.07-47.38-60.3-29.25-9.51-54.53,5.87-58.86,8.61-20.6,13.06-27.93,32.58-30.15,38.76-8.23,22.92-3.35,42.74-1.36,49.51,10.7,64.23,17.74,116.88,22.17,152.92,6.95,56.5,12.53,114.06,28.71,192.38,14.83,71.76,25.11,96.05,44.51,117.84,28.76,32.32,65.5,45.61,89.01,51.57,15.47,74.91,29.02,154.94,39.48,239.76,22.98,186.4,26.2,356.85,19.38,506.07h1309.34c-2.8-149.27-.55-307.28,8.6-473.05,4.87-88.26,11.44-173.96,19.38-256.98,18.51-3.62,46.11-11.42,73.94-30.15,12.09-8.14,51.83-36.91,91.88-137.82,9.82-24.74,23.8-64.24,51.16-206.14,9.85-51.09,17.2-93.49,22.06-122.63,4.87-29.17-1.84-73.62-32.3-95.47-2.96-2.12-19.92-13.88-42.35-11.49-28.12,3-52.9,26.96-62.45,61.02-503.56,30.26-1007.11,60.51-1510.67,90.77Z"/>
        <path d="m427.04,2336.4c-62.02-174.86-102.83-320.36-129.21-424.24-24.11-94.94-44.14-186.55-74.14-323.74-23.4-107-41.91-195.91-54.56-257.7-7.18,28-14.36,55.99-21.53,83.99-18.65-52.34-38.92-129.54-38.76-223.96.27-157.79,57.45-276.27,90.45-333.79-28.23,22.73-56.47,45.46-84.71,68.19,11.89-33.12,32.16-76.79,67.48-120.6,73.13-90.72,165.69-126.09,208.17-139.26-4.39-.44-32.25-3.67-47.74-26.92-15.88-23.84-12.24-58.93,10.77-83.99-.79,3.31-5.35,23.8,7.54,41.99,11.42,16.13,32.05,24.11,52.76,20.46,16.06-21.16,33.09-39.7,50.61-55.99,216.82-201.62,578.99-122.99,684.09-96.55,35.52-11.77,90.54-25,157.92-21.53,41.92,2.15,77.45,10.19,104.8,18.66-29.91,5.86-59.82,11.72-89.73,17.59,31.06,1.2,72.22,5.96,118.44,20.46,57.41,18,100.72,44.15,129.21,64.6-47.86-6.46-95.71-12.92-143.57-19.38,24.69,13.84,61.47,33.8,106.96,55.99,37.65,18.37,70.85,33.45,100.21,46.13,137.02,59.17,134.95,49.67,171.13,70.16,149.48,84.63,193.66,263.41,198.84,285.7,8.73,37.6,10.97,69.49,11.49,90.45-20.33-42.53-46.09-91.19-57.43-87.58-13.31,4.24-.36,78.43,2.15,94.75,22.86,148.22-46.68,233.81-161.51,574.98-29.63,88.05-18.93,63.23-54.35,170.13-72.7,219.38-141.87,396.52-193.3,521.15-23.37,1.71-59.65,4.08-104.09,5.74-152.42,5.69-195.04-4.68-262.01,11.49-40.39,9.75-97.72,31.11-161.51,83.99-23.66-25.78-63.16-61.74-120.59-83.99-54.52-21.12-100.93-20.49-124.34-20.46-73.79.1-182.3-5.44-349.94-26.92Z"/>
        <path d="m1030.01,3602.65c-5.62,86.88-9.34,173.8-11.63,260.68-1.95,86.89-1.71,173.78.89,260.54,2.32,86.76,6.31,173.44,12.89,259.9,6.73,86.45,14.67,172.77,25.38,258.76l.26,2.16-.35,3.32-21.1,199.61c-7.12,66.5-15.5,132.87-19.89,199.61-10.08,133.35-16.85,266.86-19.98,400.47-5.92,267.26,5.33,534.65,20.34,802.52l19.82,402.31c5.25,134.2,10.25,268.41,13.92,402.66,3.33,134.25,6.48,268.5,7.33,402.8,1.15,134.29,2.35,268.55.82,402.84l-45.74-804.04-24.38-401.73-25.91-401.69c-16.82-267.93-30.18-537.44-21.84-807.01,3.37-134.75,11.55-269.36,24.18-403.48,5.44-67.15,14.86-133.87,23.04-200.71l25.97-200.28-.08,5.46c-8.38-86.99-15.06-174.16-18.42-261.45-3.46-87.28-4.96-174.61-3.57-261.88,1.57-87.26,5.52-174.43,11.64-261.38,5.95-86.98,14.85-173.69,26.39-259.99Z"/>
      </g>
    </g>
  </g>
</svg>