<?xml version="1.0" encoding="UTF-8"?>
<svg id="Layer_2" data-name="Layer 2" xmlns="http://www.w3.org/2000/svg" xmlns:xlink="http://www.w3.org/1999/xlink" viewBox="0 0 2069.32 3801.64">
  <defs>
    <style>
      .cls-1 {
        fill: #b4b4b4;
      }

      .cls-2 {
        fill: #ffd7ae;
      }

      .cls-3 {
        fill: #f4c79f;
      }

      .cls-4 {
        fill: #929292;
      }

      .cls-5 {
        fill: #f7cca6;
      }

      .cls-6 {
        fill: none;
      }

      .cls-7 {
        fill: #a5a4a4;
        opacity: .31;
      }

      .cls-8 {
        fill: url(#linear-gradient);
      }
    </style>
    <linearGradient id="linear-gradient" x1="990.29" y1="636.18" x2="1156.04" y2="636.18" gradientUnits="userSpaceOnUse">
      <stop offset="0" stop-color="#ffd7ae"/>
      <stop offset=".37" stop-color="#f7d2ac"/>
      <stop offset=".93" stop-color="#e2c5a8"/>
      <stop offset="1" stop-color="#dfc4a8"/>
    </linearGradient>
  </defs>
  <g id="Layer_1-2" data-name="Layer 1">
    <g>
      <g>
        <path class="cls-1" d="m832.1,1711.6c-9.85,11.18-23.41,27.36-38.22,47.87-19.63,27.19-36.88,51.07-49.44,82.57-4.94,12.4-19.42,51.71-17.74,96,3.45,90.92,73.05,151.9,89.22,165.39-.63,19.19-1.65,39.03-3.13,59.48-1.77,24.44-4.08,47.93-6.78,70.44,20.25,1.86,51.47,3.38,89.22-.52,42.94-4.44,46.87-11,100.7-18.78,17.07-2.47,61.13-8.23,117.92-7.83,23.94.17,44.12,1.4,58.96,2.61,16.01-100.52,32.02-201.04,48.04-301.56-3.45-19.18-6.2-41.35-7.08-66.01-1.05-29.3.77-55.43,3.65-77.48-16.45-17.35-91.08-92.22-210.26-97.83-86.39-4.06-150.22,30.42-175.05,45.65Z"/>
        <path class="cls-3" d="m1256.12,3589.04c1.28-.62,3.39-1.85,5.28-4.11,2.48-2.97,3.23-6.08,3.48-7.57.19-.57,4.62-13.88-4.56-23.35-5.92-6.11-14.65-4.95-26.61-6.26,0,0-7.22-.79-40.3-12.52-23.36-8.29-97.45-44.94-192.79-103.96-2.72-8.56-6.99-21.99-12.26-38.48-14.51-45.39-16.77-51.86-19.17-62.22-1.64-7.03-5.48-25.07-5.87-68.87-.34-39,2.13-90.7,13.3-156.52,6.81-40.14,9.16-40.17,14.09-75.13,6.73-47.8,7.24-82.55,7.83-100.18,1.36-40.49,6.82-100.45,25.83-181.57-23.41,32.93-56.32,84.27-85.31,151.83-25.14,58.6-145.91,340.05-15.65,524.36,29.33,41.5,63.72,67.23,82.96,81.39,98.4,72.45,203.01,81.91,249.76,83.15Z"/>
        <path class="cls-2" d="m1318.09,2143.88c-1.36,5.98-4.14,15.03-10.16,25.04-.42,5.43-.83,10.89-1.32,16.42-.94,11.13-1.98,22.09-3.13,32.87-.1,2.68-.8,8.56-4.94,14.09-1.91,2.57-4.04,4.35-5.74,5.5-27.65,18.89-55.31,37.74-82.96,56.59-3.72,2.3-8.35,2.26-11.65-.1-3.79-2.71-4.14-7.13-4.17-7.79-4,4.14-9.74,5.7-14.71,4-4.94-1.74-7.17-5.98-7.65-6.99-2.82,5.32-8.9,8.14-14.78,6.85-5.74-1.29-10.02-6.19-10.47-12.1-1.67-13.95-2.16-31.65,1.43-51.62,1.25-6.99,2.85-13.46,4.63-19.37,1.39-4.38,2.92-8.87,4.56-13.43,2.4-6.71,4.9-13.11,7.44-19.17-28.11-63.45-44.63-112-47.34-128.35-2.68-16.1,0-29.74,0-29.74,1.11-5.77,2.71-10.37,3.9-13.32-.17-8.07-.38-16.17-.59-24.24.21-2.16.28-5.43-.77-9.22-.73-2.61-1.77-4.7-2.68-6.19-65.5-73.71-106.13-115.97-132.53-141.92-9.98-9.81-35.55-34.61-64.98-72-12.35-15.69-21.81-29.15-27.93-38.09h-59.45c7.62-12.42,20.21-36.77,22.82-69.92.8-10.09,2.61-45.46-16.42-83.34-4.94-9.84-10.12-17.5-13.98-22.71-2.89-3.41-6.89-9.18-9.11-17.18-1.01-3.65-1.43-6.99-1.57-9.81.14-15.62-.83-33.43-3.9-52.8-1.46-9.11-3.23-17.67-5.18-25.67-16.63-39.2-33.11-79.65-49.36-121.33-18.68-48-36.04-94.99-52.18-140.87-15.69-15.72-50.05-54.72-53.22-106.96-1.95-32.28,8.14-68.18,10.96-78.26,4.07-14.47,8.56-26.23,12-34.44,1.98-18.5,5.88-40.21,13.32-63.79,3.83-12.17,8.1-23.27,12.52-33.25v-11.76c.35-8.38,2.3-27.1,15.23-45.39,7.65-10.78,16.42-17.64,22.57-21.64,29.57-16.52,50.75-34.19,64.7-47.48,20.21-19.3,29.43-33.36,31.69-36.91,9.36-14.57,13.53-25.98,20.49-45.01,15.23-41.6,18.96-73.71,20.04-84.35.83-8.56,1.18-15.65,1.36-20.52,4.52-23.17,12.63-55.03,28.18-90.79,13.5-31.03,38.02-87.48,89.22-131.48,71.24-61.22,186.37-91.62,219.9-53.22,11.13,12.73,11.37,30.78,10.19,43.03,2.89,24.66,7.9,43.62,12.14,56.77,4.8,14.99,10.47,28.24,4.49,40.87-3.23,6.82-8.7,11.03-12.73,13.5,3.55,13.32,8.66,28.7,16.24,45.22,5.67,12.35,11.76,23.17,17.6,32.49,4.38,5.08,5.36,11.9,2.57,17.01-2.47,4.45-6.92,6.02-8.21,6.43-7.24.9-14.51,1.84-21.74,2.75-.63.45-5.08,3.83-5.18,9.39-.03,2.61.87,4.63,1.46,5.67,5.11,3.55,7.48,9.08,6.05,13.5-.77,2.43-2.5,4.04-3.69,4.9-4.59,3.41-9.15,6.78-13.7,10.19,4.24,3.03,6.37,7.79,5.36,12-.63,2.54-2.3,4.21-3.27,5.08-4.35,3.34-8.7,6.68-13.04,10.05-.56.35-3.97,2.82-4.31,7.17-.17,2.12.49,3.79.9,4.7,2.33,2.85,10.75,13.81,8.87,27.13-.24,1.81-.83,5.67-3.34,9.84-4.28,7.1-11.03,9.88-13.88,11.03-5.95,2.43-11.41,2.57-14.85,2.33-8.1-.49-16.17-1.01-24.28-1.53-12.7-.77-25.39-1.57-38.09-2.37-3.17-.35-10.82-.73-17.98,3.9-5.01,3.23-7.58,7.44-9.39,10.44-3.51,5.84-3.1,8.56-6.02,16.97-.07.21-.14.42-.24.7-1.08,3.17-4.07,10.92-9.15,18.85-2.68,4.24-6.99,10.12-13.57,16.17-2.47,3.1-6.12,7.72-10.44,13.46-2.05,2.75-4.94,6.64-5.98,8.21-6.26,9.11-12.66,28-6.54,45.64,3.62,10.4,10.75,17.95,12.8,20.1,6.5,6.78,11.69,8.87,15.37,16.17,2.99,5.81,3.31,11.62,3.13,15.51,5.32,8.7,14.3,23.34,25.46,41.46,31.55,51.34,52.25,84.39,76.7,128.77,19.65,35.69,27.51,52.87,32.07,75.9,4,20.14,3.9,36.63,3.79,50.61-.17,25.46-3.48,37.91-7.3,47.48-1.67,4.14-3.34,7.48-4.56,9.77-1.7,4.94-3.48,11.97-3.27,20.49.07,3.58.49,6.85,1.04,9.67,7.3,20.35,9.91,36.24,10.96,46.96.63,6.47,1.53,20.14,2.09,33.64.45,11.03.21,10.61.59,14.4,1.63,17.43,5.98,19.83,8.77,35.83.59,3.23,4.31,24.49.21,38.33-.49,1.67-2.47,7.97-3.13,16.63-.17,2.64-.21,4.83-.17,6.19,1.74,16.8,3.17,34.4,4.17,52.7,1.18,21.67,1.63,42.4,1.57,62.09,4.63,11.41,11.3,30.23,15.13,54.26,5.91,37.04,1.95,66.92-5.22,118.06-2.16,15.44-5.67,37.71-11.24,64.56-19.41-4.07-42.4-10.5-67.31-20.87-19.9-8.24-37.04-17.36-51.37-26.09,10.37,16.17,24.28,37.91,40.7,63.65,18.33,28.73,34.78,58.75,54.4,86.61,15.62,22.23,35.83,48.7,41.84,75.13.49,2.05,2.89,13.01,5.5,25.04,2.92,13.57,5.25,24.66,6.78,32.11,16.63,21.46,29.67,37.64,39.9,48.77,3.34,3.62,10.37,11.03,12.28,22.44.9,5.46.35,10.16-.28,13.32,2.47,3.37,5.88,8.24,9.67,14.33,5.5,8.87,8.24,13.29,9.64,17.74,3.1,9.98,1.11,18.68-1.04,27.93Z"/>
        <path class="cls-2" d="m806.01,2233.35c-1.18,21.3-2.31,53.55-1.04,92.87,1.66,51.84,6.23,76.63,9.39,129.39,1.64,27.37,3.17,66.69,2.09,114.78-3.2,14.32-7.97,35.85-13.57,62.09-11.99,56.22-12.62,62.85-17.22,82.96-13.31,58.23-21.81,62.81-40.7,129.13-13.06,45.87-20.95,73.57-24.26,109.57-2.9,31.51-3.29,80.21,13.3,140.87,1.08,5.49,2.61,13.76,4.11,23.87,1.85,12.46,2.95,22.98,3.61,30.47.37,4.16.6,7.32.69,8.66,7.43,103.1,9.59,142.05,9.59,142.05,3.45,62.25,5.18,93.38,4.7,116.61-.75,35.9-3.56,65.59-6,86.09-2.41,18.83-4.43,33.49-5.74,42.78-1.89,13.44-3.23,22.36-2.61,34.96.61,12.47.36,20.01,5.35,26.35,3.86,4.91,8.8,7.15,12.26,8.52,22.2,8.78,47.55,7.13,54.26,6.74,19.4-1.14,38.87.46,58.31.39,32.16-.11,56.06.86,79.57,1.83,21.17.87,49.41,2.38,82.96,5.22,9.05,3.16,16.72,5.21,22.17,6.52,0,0,17.03,4.09,42.07,3.46,3.34-.08,9.19-.35,12.37-4.43,1.21-1.55,1.69-3.22,1.91-4.38,6.65,1.85,13.97,3.68,21.91,5.35,0,0,14.95,3.14,23.18.63,1.26-.38,2.45-.89,2.45-.89,1.24-.53,2.26-1.08,3.07-1.57,7.97,2.61,25.5,7.12,36.66-1.88.58-.47,1.14-.97,1.69-1.52,9.72,1.92,17.75,2.49,23.54,2.61,6.2.13,11.52-.22,16.04-3.72,1.1-.85,1.9-1.69,2.41-2.28,7.37,2.52,13.66,3.25,17.93,3.46,6.62.32,12.57.6,18.85-2.67,2.63-1.37,9.28-4.84,10.43-11.22,1.16-6.4-3.89-11.9-6.98-15.26-9.02-9.81-21.22-12.21-27.2-12.91-6.1-1.45-15.32-3.9-26.22-7.83-21.54-7.77-33.38-15.48-50.17-24.12-14-7.21-12.3-5.22-54.83-23.1-4.59-1.93-34.37-14.47-68.82-30.05-18.41-8.32-43.05-19.73-72.14-33.97-5.14-2.37-11.47-6-17.77-11.59-14.18-12.59-19.78-27.67-22-35.3-5.57-24.86-9.05-47.29-11.28-66.47-4.97-42.82-4.42-75.91-4.05-88.71.45-15.49,1.16-37.55,5.79-66.08,4.27-26.34,9.74-45.11,12.15-53.75,9.51-34.12,14.25-70.52,23.74-143.32,5.43-41.66,10.92-93.06,14.55-152.42,8.12-20.8,16.24-41.61,24.36-62.41,2.33-3.91,6.22-10.38,11.12-18.33,11.51-18.66,20.17-31.75,21.91-34.44,16.21-24.99,23.83-59.27,36.78-102.91,5.82-19.6,14.89-48.42,27.91-83.48,9.62-16.76,19.07-34.49,28.17-53.22,36.22-74.53,57.77-145.89,70.7-208.44-18.35-27.22-36.7-54.44-55.04-81.65-31.84-1.63-59.41-1.23-81.43-.21-26.76,1.24-48.19,2.23-76.45,7.19-11.95,2.1-34.36,6.54-53.07,10.44-18.99,3.96-22.1,4.86-31.51,6.33-21.26,3.32-37.69,3.78-50.22,4.09-14.48.36-32.71.13-53.76-1.76Z"/>
        <path class="cls-8" d="m1156.04,651.73c-.07.14-.14.31-.21.49-12.7-.77-25.39-1.57-38.09-2.37-3.17-.35-10.82-.73-17.98,3.9-5.01,3.23-7.58,7.44-9.39,10.44-3.51,5.84-3.1,8.56-6.02,16.97-.07.21-.14.42-.24.7-47.58-29.88-77.15-66.61-93.81-91.34,32.73,17.43,71.79,34.71,117.05,48.45,16.83,5.11,33.11,9.32,48.7,12.77Z"/>
        <path class="cls-4" d="m874.88,538.19c-2.91-22.73-8.27-49.08-18-77.48-4.15-12.11-8.66-23.34-13.3-33.65-6.38-8.36-14.68-21.21-20.35-38.35-14.53-43.93-.72-82.74,5.48-100.18,5.29-14.87,23.83-60.91,72.78-93.13,39.02-25.68,76.76-29.03,96.26-30.52,50.23-3.84,89.41,10.26,108.78,18.78,11.45,1.17,24.69,3.28,39.13,7.04,12.96,3.37,24.4,7.42,34.18,11.48-1.91-3.83-3.83-7.65-5.74-11.48,10,6.61,20,13.22,30,19.83.35-3.48.7-6.96,1.04-10.43,6.62,4.19,18.41,12.92,27.65,28.17,7.64,12.61,10.38,24.5,11.48,31.83,7.3,6.35,14.61,12.7,21.91,19.04-4.04.91-8.09,1.83-12.13,2.74,3.78,1.7,7.57,3.39,11.35,5.09-14.35,6.26-28.7,12.52-43.04,18.78-.76-2.37-2.2-5.81-5.09-9-7.54-8.35-18.77-8.15-34.83-9.78-8.63-.87-20.94-2.51-36-5.87,7.85,3.46,13.14,11.02,13.7,19.57.56,8.52-3.67,16.67-10.96,21.13,5.87-2.22,11.74-4.43,17.61-6.65-9.43,8-19.47,18.04-28.96,30.52-32.01,42.11-38.98,87.43-40.7,111.91-10.83-.78-21.65-1.57-32.48-2.35.67-8.95.84-22.03-1.92-37.47-2.56-14.29-3.91-21.84-9.95-29.84-10.93-14.46-28.42-18.75-34.96-20.35-6.31-1.54-11.76-1.99-15.65-2.09-7.57,5.09-16.85,12.36-26.09,22.44-10.44,11.38-17.38,22.58-21.91,31.3-2.39,15.74-4.66,31.74-6.78,48-1.1,8.41-2.14,16.76-3.13,25.04-2.65-5.17-5.3-10.35-7.96-15.52-1.95,7.25-3.72,15.23-5.09,23.87-2.55,16.07-3.1,30.63-2.74,43.04-2.42-3.76-10.5-15.25-25.83-19.96-8.07-2.48-15.16-2.15-19.57-1.57-2.74,5.35-5.48,10.7-8.22,16.04Z"/>
        <path class="cls-5" d="m1031.34,371.89c-6.27-2.91-13.21-4.61-19.98-3.88-3.36.36-6.66,1.33-9.6,2.84-2.93,1.6-5.55,3.78-7.9,6.22-9.43,9.86-14.39,23.19-15.89,36.68-.83,6.8-.9,13.61-.11,20.38.72,6.75,2.22,13.44,4.62,19.8,4.71,12.76,12.94,24.14,23.35,32.99l.19.16.09.18c1.56,2.94,3.88,5.5,6.74,7.25,2.9,1.77,6.12,3.19,9.45,3.06,3.33-.04,6.4-2.18,8.12-5.13,1.75-2.95,2.42-6.55,2.07-10.06.62,3.46.3,7.21-1.4,10.43-1.61,3.21-4.87,5.87-8.69,6.16-3.78.4-7.42-1.03-10.53-2.81-3.24-1.81-5.93-4.57-7.79-7.78l.28.33c-11.15-8.61-19.88-20.4-24.92-33.64-2.57-6.6-4.24-13.54-5.04-20.57-.74-7.03-.57-14.19.37-21.14.89-6.99,2.58-13.96,5.44-20.47,2.83-6.53,6.97-12.46,12.03-17.43,2.56-2.47,5.41-4.67,8.63-6.29,3.28-1.57,6.81-2.37,10.37-2.53,7.12-.32,14.09,1.8,20.08,5.26Z"/>
        <path class="cls-5" d="m993.78,447.1c-3.42-8.15-5.28-17.09-4.98-26.07.2-4.52.76-8.88,1.56-13.33.88-4.41,2.3-8.94,5.22-12.74,2.85-3.83,7.31-6.49,12.03-7.29,4.65-.83,9.71-.17,13.92,2.17,4.21,2.23,7.74,5.98,9.38,10.61,1.69,4.63,1.16,9.83-.87,14.12l-.58,1.23-1.27-.37c-4.58-1.31-9.63-.95-13.92,1.13-4.32,1.99-7.74,5.89-9.02,10.54-1.26,4.65-.67,9.9,1.24,14.45,2.02,4.56,5.79,8.33,10.31,10.74-4.77-1.9-8.96-5.5-11.47-10.17-2.45-4.69-3.35-10.22-2.18-15.55,1.2-5.33,4.93-10.04,9.83-12.57,4.9-2.57,10.74-3.02,16.05-1.6l-1.85.86c1.67-3.7,2-7.97.58-11.67-1.37-3.73-4.35-6.76-7.87-8.76-6.94-4.02-17.03-2.62-21.94,3.97-5.01,6.56-6.17,15.8-7.19,24.33-.71,8.68.41,17.51,3.01,25.96Z"/>
        <path class="cls-5" d="m1004.33,437.39c.92.9,7.84,7.44,17.68,6.17,6.31-.81,10.4-4.4,11.86-5.81-1.24,2.19-2.47,4.9-3.33,8.12-2.73,10.2-.07,19.04,1.48,23.1.01.12.22,2.63-1.25,3.61-1.5,1-4.49.24-6.06-2.63-2.79-5.96-5.58-11.92-8.36-17.88-1.77-.83-4.98-2.63-7.8-6.15-2.67-3.33-3.75-6.66-4.21-8.53Z"/>
        <path class="cls-5" d="m1158.01,1195.26c-3.92-3.67-.64-15.82,7.07-21.78,5.81-4.5,15.34-6.41,18.49-2.65,3.42,4.07-1.25,14.13-7.52,19.55-5.37,4.65-14.54,8.16-18.04,4.89Z"/>
        <g>
          <path class="cls-5" d="m1035.58,866.37c11.39,18.66,19.84,39.16,25.07,60.49,2.63,10.66,4.38,21.55,5.34,32.51.58,5.48.67,10.99.85,16.49-.12,5.5-.1,11.02-.64,16.51-1.51,21.99-6.6,43.76-14.8,64.27-8.19,20.52-19.36,39.89-33.36,57.09l.67-2.07c3.77,58.6,3.64,117.47-.42,176.08-1.03,14.65-2.43,29.28-4,43.88-.79,7.3-1.65,14.59-2.56,21.88l-1.42,10.93-.76,5.54-.96,5.39c-4.69,28.42-2.36,57.9,6.36,85.41l-.17-.43c10.1,20.21,19.24,40.88,27.8,61.78,8.52,20.91,16.3,42.12,23.39,63.54,7.1,21.42,13.29,43.14,18.74,65.02,5.47,21.88,10.2,43.93,14.01,66.13-4.73-22.02-10.08-43.9-16.13-65.57-6.03-21.68-12.95-43.09-20.28-64.34-7.43-21.22-15.54-42.19-24.38-62.84-8.82-20.67-18.46-40.96-28.5-61.04l-.1-.2-.07-.23c-9.15-28.29-11.75-58.79-7.06-88.25,4.36-28.76,7.02-57.99,9.19-87.09,4.37-58.28,4.83-116.86,1.41-175.22l-.07-1.17.74-.9c13.71-16.6,25.08-35.24,33.39-55.18,8.36-19.91,13.72-41.14,15.58-62.72,2.04-21.56.66-43.46-3.86-64.73-4.61-21.25-12.4-41.86-23-60.97Z"/>
          <path class="cls-5" d="m892.88,1713.69c-8.32-10.24-14.81-21.9-19.89-34.09-4.97-12.23-8.56-25.1-9.83-38.22,3.97,12.56,8.06,24.89,13.05,36.9,4.9,12.05,10.66,23.7,16.67,35.41Z"/>
          <path class="cls-5" d="m806.01,1435.07c-6.32-21.25-10.9-43.02-14.27-64.99-3.24-21.99-4.98-44.23-5.23-66.49l.17.96c-8.08-21.29-13.77-43.51-17.01-66.08-.79-5.65-1.44-11.31-1.93-17l-1.3-16.91-2.63-33.76-2.54-33.76c-.8-11.26-1.11-22.56-1.7-33.84l-2.87-67.7.46,1.3c-9.52-13.39-17.86-27.62-24.47-42.61-6.67-14.95-11.93-30.51-15.39-46.44,4.63,15.62,10.48,30.83,17.84,45.27,7.36,14.43,15.93,28.21,25.78,40.99l.41.53.05.77,4.4,67.52c.73,11.25,1.32,22.51,2.15,33.75l2.72,33.74,2.63,33.74,1.21,16.84c.44,5.56,1.05,11.11,1.8,16.65,2.92,22.14,8.19,43.97,15.64,65.07l.18.5v.47c-.25,22.03.78,44.09,3.14,66.04,1.14,10.98,2.59,21.94,4.41,32.85,1.84,10.9,3.96,21.77,6.34,32.59Z"/>
          <path class="cls-5" d="m1152.45,2207.26c-2.44,11.37-3.99,22.82-4.53,34.27-.52,11.45.02,22.89,1.52,34.17l.03.24-.02.32c-.26,4.99,3.38,9.76,8,10.77,2.28.55,4.76.19,6.88-.94,2.13-1.12,3.8-3,4.76-5.19l-.12.33c2.64-8.23,5.57-16.38,9.02-24.3,3.43-7.9,7.27-15.74,11.46-23.17,8.14-14.74,13.93-30.74,18.05-47.37-1.32,17.08-5.81,34.11-13.28,49.78-3.65,7.75-7.15,15.35-10.21,23.25-3.09,7.86-5.99,15.79-8.42,23.87l-.04.13-.08.2c-1.52,3.68-4.43,6.73-7.95,8.55-3.52,1.83-7.74,2.4-11.64,1.41-3.9-.96-7.37-3.38-9.6-6.62-2.25-3.22-3.33-7.22-3.03-11.1l.02.55c-1.18-11.74-.99-23.61.54-35.26,1.5-11.65,4.38-23.08,8.66-33.9Z"/>
          <path class="cls-5" d="m1171.67,2283.49c1.63,2.72,4.14,4.8,6.91,5.68,2.78.88,5.77.64,8.24-.6,1.23-.61,2.37-1.38,3.31-2.36l3.2-3.4,6.58-6.82c4.36-4.57,8.9-8.96,13.36-13.44l6.8-6.59,3.39-3.27c1-.99,1.95-2.08,2.81-3.2,1.76-2.24,3.24-4.69,4.38-7.33,1.2-2.64,1.78-5.36,2.66-8.51,1.75-6.08,3.37-12.19,5.24-18.23,3.61-12.12,7.46-24.19,11.98-36.07-1.71,12.59-4.09,25.01-6.71,37.36-1.24,6.19-2.74,12.32-4.11,18.49-.68,2.96-1.45,6.45-2.8,9.6-1.31,3.19-3.05,6.23-5.16,8.97-1.08,1.36-2.24,2.63-3.5,3.85l-3.49,3.24-6.96,6.43c-4.72,4.2-9.35,8.49-14.16,12.6l-7.18,6.2-3.7,3.09c-1.4,1.14-3.02,2.01-4.72,2.56-3.41,1.08-7.19.82-10.22-.81-3.06-1.61-5.18-4.43-6.15-7.45Z"/>
          <path class="cls-5" d="m1194.45,2286.04c2.62,3.75,4.65,4.89,6.64,5.96,1.01.5,2.07.96,3.43,1.31,1.38.37,2.98.59,5.31.56-.48,2.32-2.38,4.06-4.64,4.87-2.28.81-4.99.63-7.25-.54-2.27-1.14-4.02-3.23-4.71-5.55-.67-2.31-.38-4.87,1.21-6.62Z"/>
          <path class="cls-5" d="m1271.93,2248.48c1.93-4.03,2.55-8.33,1.83-12.29v-.32c.08-3.66.2-7.32.42-10.97.14-3.66.51-7.28.78-10.92.28-3.64.74-7.25,1.1-10.88.38-3.63.94-7.23,1.4-10.85l.09-.68.31-.56c1.55-2.75,3.19-5.46,4.63-8.27,1.45-2.81,2.98-5.6,4.32-8.49,1.45-2.85,2.73-5.77,4.1-8.69l3.97-8.9c-.19,3.28-.6,6.55-1.23,9.77-.58,3.24-1.44,6.41-2.35,9.59-1.01,3.13-2.05,6.27-3.35,9.31-1.31,3.03-2.63,6.07-4.22,8.97l.4-1.23c-.41,3.62-.72,7.26-1.21,10.87-.51,3.61-.92,7.23-1.5,10.83-.6,3.6-1.11,7.21-1.83,10.8-.65,3.59-1.4,7.18-2.19,10.75v-.32c-.08,2.41-.63,4.77-1.54,6.92-.94,2.14-2.29,4.05-3.92,5.58Z"/>
          <path class="cls-5" d="m1113.58,3630.72c-3.13-4.05-6.37-7.47-10.01-10.18-3.64-2.79-7.59-4.41-12.12-6.59-4.42-2.22-8.71-4.7-12.89-7.39-4.18-2.69-8.23-5.59-11.94-9.1,5.07.95,9.79,2.49,14.39,4.25,4.6,1.76,9.08,3.73,13.44,5.96,4.31,2.04,9.35,4.81,12.83,8.93,3.56,4.01,5.86,9.01,6.31,14.13Z"/>
          <path class="cls-5" d="m1164.19,3634.24c-1.61-4.35-3.66-7.97-6.35-10.76-2.67-2.77-6.03-4.71-9.85-6.99-3.8-2.16-7.44-4.58-10.98-7.2-3.54-2.63-6.97-5.48-10.12-8.96,4.5.92,8.72,2.48,12.83,4.26,4.11,1.79,8.12,3.78,11.98,6.02,3.72,2.2,7.92,5.26,10.5,9.67,2.59,4.33,3.29,9.5,2,13.97Z"/>
          <path class="cls-5" d="m1202.54,3630.85c-.74-3.39-1.69-6.36-3.09-8.44-1.38-1.86-3.7-3.95-5.86-6.03-2.23-2.07-4.42-4.32-6.65-6.59-2.19-2.31-4.29-4.78-6.05-7.9,3.4.72,6.46,2.08,9.43,3.6,2.95,1.54,5.6,3.54,8.07,5.85,2.39,2.4,4.78,4.93,6.09,8.96.94,3.94.14,7.67-1.94,10.54Z"/>
          <path class="cls-5" d="m1244.54,3627.46c-.58-3.34-1.53-6.01-3.08-7.67-1.33-1.52-3.69-2.62-6.31-4.21-2.62-1.54-5.17-3.33-7.55-5.33-2.37-2.04-4.64-4.24-6.54-7.05,3.39.32,6.4,1.26,9.32,2.35,2.91,1.13,5.64,2.48,8.32,4.06,1.34.83,2.71,1.69,4.08,2.88,1.35,1.15,2.76,2.8,3.47,4.71,1.43,3.8.49,7.73-1.71,10.27Z"/>
          <path class="cls-5" d="m1257.58,3588.85c-14.59-3.38-28.88-8.1-42.62-14.11-6.87-3-13.59-6.36-20.18-9.93-6.59-3.58-13.12-7.2-19.89-10.38-13.49-6.43-27.68-11.27-41.58-16.87-13.93-5.53-27.74-11.36-41.48-17.35-27.47-11.98-54.68-24.53-81.78-37.32l-20.3-9.65c-3.39-1.66-6.76-3.15-10.17-4.95-3.31-1.88-6.49-4-9.48-6.36-12.02-9.38-21.04-22.54-25.48-37.14l-.02-.05v-.05c-10.64-47.07-16.06-95.32-16.17-143.6.11-24.13,1.29-48.3,4.8-72.25,1.71-12.04,5.05-23.72,7.8-35.38,2.81-11.68,5.32-23.44,7.73-35.22,9.58-47.15,17.19-94.69,23.17-142.45,6.13-47.74,10.75-95.66,14.12-143.69v-.08s.03-.06.03-.06l25.48-64.01-24.61,64.34.03-.14c-2.56,48.1-6.98,96.1-12.94,143.89-5.77,47.82-13.17,95.47-22.54,142.74-2.35,11.81-4.82,23.62-7.58,35.36-2.72,11.77-5.97,23.32-7.59,35.16-3.38,23.72-4.44,47.79-4.44,71.78-.11,48.02,5.06,96.07,15.42,142.98l-.03-.1c4.21,14.09,12.84,26.81,24.41,35.92,2.88,2.29,5.94,4.35,9.13,6.19,3.2,1.72,6.68,3.28,10.01,4.93l20.23,9.73c27.02,12.91,54.16,25.57,81.54,37.67,13.7,6.04,27.46,11.93,41.34,17.51,13.83,5.68,27.96,10.78,41.45,17.42,6.75,3.28,13.27,7.01,19.8,10.67,6.53,3.65,13.18,7.09,19.99,10.17,13.62,6.18,27.83,11.09,42.37,14.66Z"/>
          <path class="cls-5" d="m1167.06,1746.03c-2.56-13.7-5.27-27.24-8.61-40.6-1.72-6.66-3.44-13.31-5.49-19.86-2-6.56-4.03-13.14-6.59-19.33-2.46-6.26-5.53-11.94-9.97-16.69-4.32-4.91-9.73-8.77-15.48-12.4-11.75-7.06-23.77-13.94-36.3-19.99,13.6,3.35,26.47,8.94,38.99,15.27,6.3,3.19,12.41,7.35,17.59,12.6,5.24,5.27,8.93,12.01,11.61,18.59,5.11,13.34,8.51,26.87,10.93,40.69,2.38,13.79,3.62,27.77,3.31,41.72Z"/>
          <path class="cls-5" d="m1188.71,1734.82c.63-5.23,1.3-10.43,1.61-15.66.43-5.21.7-10.44.71-15.66.05-10.43-.47-20.85-1.85-31.18-1.25-10.34-3.4-20.55-6.05-30.64-2.71-10.08-6.18-19.97-10.07-29.74,2.63,4.57,4.88,9.33,7.05,14.15,2.06,4.86,3.91,9.81,5.58,14.83,3.3,10.05,5.59,20.45,6.94,30.96,1.32,10.51,1.75,21.15,1.06,31.71-.66,10.56-2.23,21.05-4.98,31.22Z"/>
          <path class="cls-5" d="m1174.62,1593.16c-1.75-12.27-3.21-24.46-4.82-36.62-1.65-12.15-3.32-24.27-5.25-36.36-1.84-12.1-3.96-24.15-6.09-36.23-2.16-12.07-4.49-24.13-6.53-36.36,4.82,11.42,8.65,23.22,11.83,35.18,3.24,11.95,5.68,24.11,7.66,36.34,1.82,12.25,3.22,24.57,3.77,36.94.6,12.36.56,24.76-.56,37.11Z"/>
          <path class="cls-5" d="m1157.41,1433.51c2.62-7.31,5.12-14.42,7.19-21.63,1.97-7.22,3.72-14.44,4.86-21.78,1.27-7.32,1.92-14.73,2.38-22.22.38-7.49.41-15.04.44-22.81,2.82,7.25,4.34,14.95,4.99,22.73.65,7.79.28,15.67-.95,23.42-1.34,7.73-3.5,15.33-6.64,22.5-3.14,7.16-7.16,13.92-12.27,19.79Z"/>
          <path class="cls-5" d="m1076.8,1209.68c11.34,4.64,22.92,8.08,34.7,9.75,5.89.75,11.8,1.24,17.7,1.09,5.87-.13,12.04-.39,17.78-1.17,11.64-1.3,22.73-5.28,32-12.36,9.27-7.08,16.45-16.93,21.47-28.1-2.25,12.05-8.5,23.69-17.99,32.26-4.69,4.34-10.27,7.71-16.14,10.3-5.94,2.46-12.22,3.97-18.48,4.79-6.35.7-12.38.92-18.69.83-6.28-.23-12.55-.9-18.64-2.34-12.19-2.79-23.76-7.9-33.72-15.07Z"/>
          <path class="cls-5" d="m1026.71,1099.59c3.72-2.59,7.43-5.13,10.93-7.95,3.57-2.72,7.02-5.58,10.32-8.6,6.59-6.04,12.79-12.48,18.33-19.47,5.61-6.93,10.58-14.36,15.05-22.11,4.45-7.76,8.23-15.92,11.63-24.3-.98,4.42-2.37,8.74-3.86,13.04-1.59,4.25-3.41,8.43-5.41,12.52-3.99,8.2-9.01,15.89-14.7,23.03-5.74,7.1-12.17,13.66-19.32,19.32-7.12,5.69-14.79,10.67-22.98,14.52Z"/>
          <path class="cls-5" d="m1042.88,742.19c-1.18-5.55-1.67-11.06-1.92-16.56-.25-5.5-.26-10.99.01-16.47.24-5.48.78-10.94,1.54-16.4.77-5.46,1.79-10.9,3.49-16.31,1.19,5.55,1.68,11.06,1.93,16.56.24,5.5.26,10.99-.02,16.47-.26,5.48-.79,10.94-1.56,16.4-.77,5.45-1.79,10.9-3.48,16.31Z"/>
          <path class="cls-5" d="m948.45,755.23c-1.83,4.19-3.44,8.55-3.38,12.7-.07,4.2,2.09,7.33,5.48,9.16,1.71.95,3.55,1.55,5.71,2.2l6.59,2.13c4.34,1.52,8.6,3.2,12.86,4.86,8.44,3.52,16.78,7.22,24.94,11.34,8.17,4.08,16.21,8.42,23.97,13.42-8.92-2.34-17.56-5.3-26.12-8.43-8.57-3.1-16.99-6.52-25.41-9.89l-12.55-5.16-6.25-2.53c-2.15-.78-4.59-1.86-6.69-3.42-2.1-1.55-4.11-3.6-5.14-6.2-1.1-2.56-1.2-5.35-.76-7.82,1.01-4.97,3.66-8.99,6.76-12.38Z"/>
          <path class="cls-5" d="m703.22,1167.94c4.05,2.84,7.66,5.89,11.22,8.94,3.56,3.05,7.06,6.08,10.52,9.16,3.47,3.06,6.89,6.2,10.33,9.37,3.45,3.18,6.89,6.4,10.19,10.1-4.8-1.22-9.24-3.28-13.41-5.73-4.18-2.46-8.12-5.31-11.73-8.54-3.63-3.21-6.91-6.8-9.84-10.66-2.92-3.87-5.49-8.02-7.27-12.64Z"/>
          <path class="cls-7" d="m815.92,2103.43c6.93,2.73,13.59,5.62,20.28,8.35,6.72,2.67,13.38,5.34,20.17,7.68,6.74,2.48,13.59,4.64,20.48,6.81,6.91,2.13,13.89,4.11,20.99,6.38-7.43.6-14.88.09-22.21-1.09-7.35-1.14-14.56-3.09-21.59-5.55-6.99-2.56-13.8-5.62-20.22-9.38-6.42-3.73-12.52-8.04-17.9-13.2Z"/>
          <path class="cls-5" d="m1085.67,2553.7c-8.7,7.01-18.31,12.91-28.39,17.94-10.15,4.88-20.9,8.69-31.99,11.07-11.01,2.67-22.61,3.02-32.94,5.14-10.16,1.98-18.69,8.71-22.47,18.21-3.99,9.54-5.3,20.74-6.84,31.63-1.55,10.98-2.67,22.02-3.82,33.06-2.08,22.1-3.56,44.3-4.52,66.6-1.74-22.25-2.08-44.65-.9-67,.51-11.18,1.51-22.33,2.69-33.46.62-5.57,1.37-11.15,2.37-16.75,1.04-5.59,2.28-11.26,4.62-16.81,4.49-11.35,15.7-19.98,27.5-21.9,5.79-1.09,11.4-1.44,16.91-1.97,5.5-.53,10.94-1.13,16.34-2.06,21.59-3.69,42.39-12.05,61.42-23.7Z"/>
        </g>
        <polygon class="cls-5" points="1218.46 565.95 1206.92 569.91 1216.88 562.86 1218.46 565.95"/>
      </g>
      <rect class="cls-6" width="2069.32" height="3801.64"/>
    </g>
  </g>
</svg>