<?xml version="1.0" encoding="UTF-8"?>
<svg id="Layer_2" data-name="Layer 2" xmlns="http://www.w3.org/2000/svg" xmlns:xlink="http://www.w3.org/1999/xlink" viewBox="0 0 2061.08 3801.64">
  <defs>
    <style>
      .cls-1 {
        fill: #262626;
      }

      .cls-2 {
        fill: none;
      }

      .cls-3 {
        fill: #1a1a1a;
      }

      .cls-4 {
        fill: url(#linear-gradient);
      }
    </style>
    <linearGradient id="linear-gradient" x1="-3170.21" y1="634.84" x2="-3004.44" y2="634.84" gradientTransform="translate(-2078.38) rotate(-180) scale(1 -1)" gradientUnits="userSpaceOnUse">
      <stop offset="0" stop-color="#1a1a1a"/>
      <stop offset=".55" stop-color="#080808"/>
      <stop offset="1" stop-color="#000"/>
    </linearGradient>
  </defs>
  <g id="Layer_1-2" data-name="Layer 1">
    <g>
      <rect class="cls-2" x="0" y="0" width="2061.08" height="3801.64" transform="translate(2061.08 3801.64) rotate(-180)"/>
      <g>
        <path d="m1250.06,1710.47c9.86,11.18,23.41,27.37,38.23,47.88,19.64,27.19,36.88,51.08,49.44,82.58,4.94,12.4,19.42,51.72,17.74,96.02-3.45,90.94-73.06,151.93-89.24,165.43.63,19.19,1.65,39.04,3.13,59.49,1.77,24.44,4.08,47.94,6.78,70.45-20.26,1.86-51.48,3.38-89.24-.52-42.95-4.44-46.88-11-100.72-18.79-17.07-2.47-61.14-8.23-117.94-7.83-23.95.17-44.13,1.4-58.97,2.61-16.02-100.54-32.03-201.08-48.05-301.62,3.45-19.18,6.2-41.36,7.08-66.02,1.05-29.31-.77-55.44-3.65-77.49,16.46-17.35,91.1-92.24,210.31-97.85,86.41-4.07,150.25,30.43,175.08,45.66Z"/>
        <path d="m825.95,3588.28c-1.28-.62-3.39-1.85-5.28-4.11-2.49-2.97-3.23-6.09-3.48-7.57-.19-.57-4.62-13.88,4.57-23.35,5.92-6.11,14.65-4.96,26.61-6.26,0,0,7.22-.79,40.31-12.52,23.37-8.29,97.47-44.95,192.82-103.98,2.72-8.56,6.99-22,12.26-38.49,14.52-45.4,16.77-51.87,19.18-62.23,1.64-7.04,5.49-25.07,5.87-68.88.34-39.01-2.13-90.72-13.31-156.55-6.82-40.14-9.17-40.18-14.09-75.15-6.73-47.81-7.24-82.56-7.83-100.2-1.36-40.49-6.82-100.47-25.83-181.6,23.41,32.94,56.33,84.29,85.32,151.86,25.15,58.61,145.94,340.11,15.66,524.46-29.34,41.51-63.73,67.24-82.97,81.41-98.42,72.46-203.05,81.92-249.81,83.17Z"/>
        <path class="cls-3" d="m763.96,2142.84c1.36,5.98,4.14,15.03,10.16,25.05.42,5.43.83,10.89,1.32,16.42.94,11.13,1.98,22.09,3.13,32.88.1,2.68.8,8.56,4.94,14.09,1.91,2.57,4.04,4.35,5.74,5.5,27.66,18.89,55.32,37.75,82.98,56.6,3.72,2.3,8.35,2.26,11.66-.1,3.79-2.71,4.14-7.13,4.17-7.79,4,4.14,9.74,5.71,14.72,4,4.94-1.74,7.17-5.98,7.65-6.99,2.82,5.32,8.91,8.14,14.79,6.85,5.74-1.29,10.02-6.19,10.47-12.11,1.67-13.95,2.16-31.66-1.43-51.63-1.25-6.99-2.85-13.46-4.63-19.38-1.39-4.38-2.92-8.87-4.56-13.43-2.4-6.71-4.91-13.12-7.44-19.17,28.11-63.46,44.64-112.03,47.35-128.38,2.68-16.11,0-29.75,0-29.75-1.11-5.78-2.71-10.37-3.9-13.32.17-8.07.38-16.18.59-24.25-.21-2.16-.28-5.43.77-9.22.73-2.61,1.77-4.7,2.68-6.19,65.51-73.72,106.15-115.99,132.55-141.95,9.98-9.81,35.56-34.62,64.99-72.02,12.35-15.69,21.81-29.15,27.94-38.1h59.46c-7.62-12.42-20.21-36.77-22.82-69.93-.8-10.09-2.61-45.47,16.42-83.36,4.94-9.85,10.12-17.5,13.99-22.72,2.89-3.41,6.89-9.18,9.11-17.19,1.01-3.65,1.43-6.99,1.57-9.81-.14-15.62.83-33.43,3.9-52.81,1.46-9.12,3.24-17.67,5.18-25.68,16.63-39.21,33.12-79.67,49.37-121.35,18.68-48.01,36.04-95.01,52.19-140.9,15.69-15.73,50.06-54.73,53.23-106.98,1.95-32.29-8.14-68.19-10.96-78.28-4.07-14.47-8.56-26.23-12-34.44-1.98-18.51-5.88-40.22-13.33-63.81-3.83-12.18-8.11-23.27-12.52-33.26v-11.76c-.35-8.38-2.3-27.1-15.24-45.4-7.65-10.78-16.42-17.64-22.58-21.64-29.57-16.53-50.76-34.2-64.71-47.49-20.21-19.31-29.43-33.36-31.69-36.91-9.36-14.58-13.53-25.99-20.49-45.02-15.24-41.61-18.96-73.72-20.04-84.37-.83-8.56-1.18-15.66-1.36-20.53-4.52-23.17-12.63-55.04-28.18-90.8-13.5-31.03-38.03-87.5-89.24-131.51-71.25-61.23-186.41-91.64-219.95-53.23-11.13,12.73-11.38,30.79-10.19,43.04-2.89,24.67-7.9,43.63-12.14,56.78-4.8,14.99-10.47,28.25-4.49,40.88,3.24,6.82,8.7,11.03,12.73,13.5-3.55,13.32-8.66,28.7-16.25,45.23-5.67,12.35-11.76,23.17-17.6,32.49-4.38,5.08-5.36,11.9-2.57,17.01,2.47,4.45,6.92,6.02,8.21,6.44,7.24.9,14.51,1.84,21.74,2.75.63.45,5.08,3.83,5.18,9.39.03,2.61-.87,4.63-1.46,5.67-5.11,3.55-7.48,9.08-6.05,13.5.77,2.44,2.5,4.04,3.69,4.91,4.59,3.41,9.15,6.78,13.71,10.19-4.24,3.03-6.37,7.79-5.36,12,.63,2.54,2.3,4.21,3.27,5.08,4.35,3.34,8.7,6.68,13.05,10.05.56.35,3.97,2.82,4.31,7.17.17,2.12-.49,3.79-.9,4.7-2.33,2.85-10.75,13.81-8.87,27.14.24,1.81.83,5.67,3.34,9.85,4.28,7.1,11.03,9.88,13.88,11.03,5.95,2.44,11.41,2.57,14.86,2.33,8.11-.49,16.18-1.01,24.28-1.53,12.7-.77,25.4-1.57,38.1-2.37,3.17-.35,10.82-.73,17.99,3.9,5.01,3.24,7.58,7.45,9.39,10.44,3.51,5.84,3.1,8.56,6.02,16.98.07.21.14.42.24.7,1.08,3.17,4.07,10.92,9.15,18.86,2.68,4.24,6.99,10.12,13.57,16.18,2.47,3.1,6.12,7.72,10.44,13.46,2.05,2.75,4.94,6.64,5.98,8.21,6.26,9.12,12.66,28.01,6.54,45.65-3.62,10.4-10.75,17.95-12.8,20.11-6.51,6.78-11.69,8.87-15.38,16.18-2.99,5.81-3.31,11.62-3.13,15.52-5.32,8.7-14.3,23.34-25.47,41.47-31.55,51.35-52.26,84.4-76.71,128.79-19.66,35.69-27.52,52.88-32.08,75.91-4,20.14-3.9,36.63-3.79,50.62.17,25.47,3.48,37.92,7.31,47.49,1.67,4.14,3.34,7.48,4.56,9.78,1.7,4.94,3.48,11.97,3.27,20.49-.07,3.58-.49,6.85-1.04,9.67-7.31,20.35-9.91,36.25-10.96,46.97-.63,6.47-1.53,20.14-2.09,33.64-.45,11.03-.21,10.61-.59,14.4-1.64,17.43-5.98,19.83-8.77,35.83-.59,3.24-4.31,24.49-.21,38.34.49,1.67,2.47,7.97,3.13,16.63.17,2.64.21,4.84.17,6.19-1.74,16.8-3.17,34.41-4.18,52.71-1.18,21.67-1.63,42.41-1.57,62.1-4.63,11.41-11.31,30.23-15.13,54.27-5.92,37.05-1.95,66.94,5.22,118.08,2.16,15.45,5.67,37.71,11.24,64.57,19.41-4.07,42.41-10.51,67.32-20.87,19.9-8.25,37.05-17.36,51.38-26.09-10.37,16.18-24.28,37.92-40.7,63.67-18.33,28.74-34.79,58.76-54.41,86.63-15.62,22.23-35.83,48.71-41.85,75.15-.49,2.05-2.89,13.01-5.5,25.05-2.92,13.57-5.25,24.67-6.78,32.11-16.63,21.47-29.68,37.64-39.9,48.78-3.34,3.62-10.37,11.03-12.28,22.44-.9,5.46-.35,10.16.28,13.32-2.47,3.37-5.88,8.25-9.67,14.33-5.5,8.87-8.25,13.29-9.64,17.74-3.1,9.98-1.11,18.68,1.04,27.94Z"/>
        <path class="cls-1" d="m1276.15,2232.32c1.18,21.31,2.31,53.56,1.04,92.89-1.66,51.85-6.23,76.65-9.39,129.42-1.64,27.37-3.17,66.7-2.09,114.81,3.21,14.33,7.97,35.86,13.57,62.1,12,56.23,12.62,62.86,17.22,82.97,13.32,58.24,21.82,62.82,40.7,129.16,13.06,45.88,20.95,73.59,24.27,109.59,2.9,31.52,3.29,80.23-13.31,140.9-1.08,5.5-2.61,13.77-4.11,23.87-1.85,12.46-2.95,22.99-3.61,30.48-.37,4.16-.6,7.32-.69,8.66-7.43,103.12-9.59,142.07-9.59,142.07-3.45,62.26-5.18,93.4-4.7,116.63.75,35.91,3.56,65.6,6,86.11,2.41,18.84,4.43,33.5,5.74,42.79,1.89,13.44,3.23,22.36,2.61,34.96-.61,12.48-.36,20.01-5.35,26.35-3.86,4.91-8.81,7.15-12.27,8.52-22.2,8.78-47.56,7.14-54.27,6.74-19.41-1.14-38.88.46-58.32.39-32.16-.11-56.07.86-79.58,1.83-21.17.87-49.42,2.38-82.97,5.22-9.06,3.16-16.72,5.21-22.18,6.52,0,0-17.04,4.09-42.07,3.46-3.34-.08-9.19-.35-12.37-4.43-1.21-1.55-1.7-3.22-1.91-4.38-6.65,1.85-13.97,3.68-21.92,5.35,0,0-14.95,3.14-23.18.63-1.26-.38-2.46-.89-2.46-.89-1.24-.53-2.26-1.08-3.07-1.57-7.97,2.62-25.51,7.12-36.67-1.88-.58-.47-1.14-.97-1.69-1.52-9.72,1.92-17.75,2.49-23.55,2.61-6.2.13-11.52-.22-16.05-3.72-1.1-.85-1.9-1.69-2.41-2.28-7.37,2.52-13.66,3.25-17.94,3.46-6.62.32-12.57.6-18.85-2.67-2.63-1.37-9.28-4.84-10.44-11.22-1.16-6.4,3.89-11.91,6.98-15.26,9.02-9.82,21.23-12.21,27.2-12.92,6.1-1.45,15.32-3.9,26.22-7.83,21.55-7.77,33.39-15.48,50.18-24.13,14-7.21,12.31-5.22,54.85-23.11,4.59-1.93,34.38-14.48,68.84-30.06,18.41-8.33,43.06-19.73,72.15-33.98,5.14-2.37,11.48-6.01,17.77-11.59,14.18-12.59,19.78-27.67,22-35.31,5.57-24.87,9.06-47.3,11.28-66.49,4.97-42.82,4.43-75.92,4.05-88.72-.45-15.49-1.16-37.56-5.79-66.1-4.27-26.35-9.75-45.12-12.15-53.76-9.51-34.13-14.26-70.54-23.74-143.35-5.43-41.67-10.92-93.08-14.56-152.45-8.12-20.81-16.24-41.62-24.36-62.43-2.33-3.91-6.22-10.38-11.12-18.33-11.52-18.67-20.18-31.76-21.92-34.44-16.21-24.99-23.83-59.28-36.79-102.93-5.82-19.61-14.89-48.43-27.92-83.5-9.63-16.76-19.08-34.5-28.18-53.23-36.23-74.55-57.78-145.92-70.71-208.48,6.08-2.56,17.53-6.38,32.04-5.29,9.42.71,16.98,3.25,22.09,5.46,2.61-9.49,5.02-21.63,5.62-35.84.8-18.82-1.85-34.62-4.7-45.99,31.85-1.63,59.42-1.23,81.44-.21,26.03,1.2,48.02,2.19,76.47,7.2,11.96,2.1,34.36,6.54,53.08,10.45,18.99,3.96,22.1,4.86,31.52,6.33,21.26,3.32,37.7,3.78,50.23,4.09,14.48.36,32.71.13,53.77-1.76Z"/>
        <path class="cls-4" d="m926.05,650.39c.07.14.14.31.21.49,12.7-.77,25.4-1.57,38.1-2.37,3.17-.35,10.82-.73,17.99,3.9,5.01,3.24,7.58,7.45,9.39,10.44,3.51,5.84,3.1,8.56,6.02,16.98.07.21.14.42.24.7,47.59-29.89,77.17-66.62,93.83-91.36-32.74,17.43-71.81,34.72-117.07,48.46-16.84,5.11-33.12,9.32-48.71,12.77Z"/>
        <path d="m1207.26,536.83c2.91-22.74,8.27-49.09,18-77.49,4.15-12.12,8.66-23.34,13.31-33.66,6.38-8.37,14.68-21.22,20.35-38.36,14.53-43.94.72-82.76-5.48-100.2-5.29-14.87-23.84-60.92-72.8-93.15-39.02-25.69-76.78-29.04-96.28-30.53-50.24-3.84-89.43,10.26-108.81,18.79-11.45,1.17-24.69,3.28-39.14,7.04-12.96,3.37-24.4,7.42-34.18,11.48,1.91-3.83,3.83-7.65,5.74-11.48-10,6.61-20,13.22-30.01,19.83-.35-3.48-.7-6.96-1.04-10.44-6.62,4.19-18.42,12.92-27.66,28.18-7.64,12.62-10.38,24.5-11.48,31.83-7.31,6.35-14.61,12.7-21.92,19.05,4.04.91,8.09,1.83,12.13,2.74-3.78,1.7-7.57,3.39-11.35,5.09,14.35,6.26,28.7,12.52,43.05,18.79.76-2.37,2.2-5.81,5.09-9,7.54-8.35,18.77-8.16,34.83-9.78,8.63-.88,20.95-2.51,36.01-5.87-7.85,3.46-13.14,11.02-13.7,19.57-.56,8.52,3.67,16.67,10.96,21.13-5.87-2.22-11.74-4.44-17.61-6.65,9.43,8.01,19.47,18.04,28.96,30.53,32.02,42.12,38.99,87.45,40.7,111.94,10.83-.78,21.66-1.57,32.49-2.35-.67-8.96-.84-22.03,1.92-37.47,2.56-14.29,3.91-21.85,9.95-29.84,10.93-14.47,28.42-18.75,34.96-20.35,6.31-1.54,11.76-1.99,15.66-2.09,7.57,5.09,16.85,12.36,26.09,22.44,10.44,11.38,17.38,22.58,21.92,31.31,2.39,15.74,4.66,31.74,6.78,48.01,1.1,8.41,2.14,16.76,3.13,25.05,2.65-5.17,5.31-10.35,7.96-15.53,1.95,7.25,3.72,15.23,5.09,23.87,2.55,16.08,3.11,30.64,2.74,43.05,2.42-3.76,10.51-15.26,25.83-19.96,8.07-2.48,15.16-2.15,19.57-1.57,2.74,5.35,5.48,10.7,8.22,16.05Z"/>
        <path d="m1050.77,370.5c6.27-2.91,13.21-4.61,19.98-3.88,3.36.36,6.66,1.33,9.6,2.85,2.93,1.6,5.55,3.78,7.9,6.22,9.43,9.86,14.4,23.2,15.89,36.68.83,6.8.9,13.62.11,20.38-.72,6.76-2.22,13.44-4.62,19.8-4.72,12.76-12.94,24.15-23.36,33l-.19.16-.09.18c-1.56,2.94-3.88,5.5-6.74,7.25-2.9,1.77-6.12,3.19-9.45,3.06-3.33-.04-6.4-2.18-8.13-5.13-1.75-2.95-2.42-6.56-2.07-10.06-.62,3.46-.3,7.21,1.4,10.44,1.61,3.21,4.88,5.87,8.7,6.16,3.78.4,7.42-1.03,10.53-2.81,3.24-1.81,5.93-4.57,7.79-7.78l-.28.33c11.15-8.61,19.89-20.4,24.92-33.65,2.57-6.6,4.24-13.54,5.05-20.57.74-7.03.57-14.19-.37-21.15-.89-6.99-2.58-13.96-5.44-20.47-2.83-6.53-6.97-12.46-12.03-17.44-2.56-2.47-5.41-4.67-8.64-6.3-3.28-1.57-6.82-2.37-10.37-2.53-7.12-.32-14.09,1.8-20.08,5.26Z"/>
        <path d="m1088.34,445.73c3.42-8.15,5.28-17.09,4.98-26.08-.2-4.52-.76-8.88-1.56-13.34-.88-4.41-2.3-8.94-5.22-12.74-2.85-3.83-7.31-6.49-12.03-7.29-4.65-.83-9.71-.17-13.92,2.17-4.21,2.23-7.74,5.98-9.38,10.61-1.69,4.63-1.16,9.83.87,14.12l.58,1.23,1.27-.37c4.58-1.31,9.63-.95,13.92,1.13,4.33,1.99,7.74,5.89,9.02,10.54,1.26,4.65.67,9.9-1.24,14.45-2.02,4.56-5.79,8.33-10.31,10.74,4.77-1.9,8.96-5.5,11.47-10.17,2.45-4.7,3.35-10.22,2.18-15.55-1.2-5.33-4.93-10.05-9.84-12.57-4.9-2.57-10.75-3.02-16.05-1.6l1.85.86c-1.67-3.7-2-7.97-.58-11.68,1.37-3.73,4.35-6.76,7.87-8.76,6.94-4.02,17.04-2.62,21.94,3.98,5.01,6.56,6.17,15.8,7.19,24.33.71,8.68-.41,17.51-3.02,25.97Z"/>
        <path d="m1077.79,436.01c-.92.9-7.85,7.44-17.68,6.17-6.31-.81-10.4-4.4-11.86-5.81,1.24,2.19,2.47,4.9,3.33,8.13,2.73,10.2.07,19.04-1.48,23.1-.01.12-.22,2.63,1.25,3.61,1.5,1,4.49.24,6.06-2.63,2.79-5.96,5.58-11.93,8.36-17.89,1.77-.83,4.98-2.64,7.8-6.15,2.67-3.33,3.75-6.66,4.21-8.53Z"/>
        <path d="m924.08,1194.03c3.93-3.67.64-15.82-7.07-21.78-5.81-4.5-15.34-6.41-18.5-2.65-3.42,4.07,1.25,14.13,7.52,19.55,5.37,4.65,14.54,8.16,18.05,4.89Z"/>
        <g>
          <path d="m1046.53,865.08c-11.39,18.67-19.84,39.17-25.07,60.5-2.63,10.66-4.38,21.56-5.34,32.52-.58,5.48-.67,10.99-.85,16.49.12,5.51.1,11.02.64,16.52,1.51,22,6.6,43.77,14.8,64.28,8.19,20.52,19.37,39.9,33.37,57.1l-.67-2.07c-3.77,58.62-3.64,117.49.42,176.11,1.03,14.66,2.43,29.28,4,43.89.79,7.3,1.65,14.6,2.56,21.88l1.42,10.93.76,5.54.96,5.4c4.69,28.42,2.36,57.91-6.36,85.42l.17-.43c-10.1,20.21-19.25,40.89-27.8,61.79-8.53,20.92-16.31,42.12-23.4,63.55-7.1,21.43-13.29,43.15-18.74,65.03-5.47,21.88-10.2,43.94-14.01,66.15,4.73-22.03,10.08-43.91,16.13-65.59,6.03-21.68,12.95-43.1,20.28-64.35,7.43-21.22,15.54-42.2,24.38-62.86,8.82-20.67,18.46-40.97,28.51-61.06l.1-.2.07-.23c9.15-28.3,11.76-58.8,7.06-88.27-4.36-28.77-7.03-58-9.2-87.11-4.37-58.29-4.83-116.88-1.41-175.25l.07-1.17-.74-.9c-13.71-16.61-25.09-35.24-33.4-55.19-8.37-19.92-13.72-41.15-15.58-62.73-2.04-21.57-.66-43.47,3.86-64.74,4.62-21.26,12.4-41.86,23-60.98Z"/>
          <path d="m1189.26,1712.56c8.32-10.24,14.82-21.9,19.89-34.1,4.98-12.24,8.56-25.1,9.83-38.23-3.97,12.56-8.06,24.89-13.05,36.91-4.9,12.05-10.66,23.7-16.67,35.42Z"/>
          <path d="m1276.15,1433.89c6.33-21.25,10.9-43.03,14.27-65,3.24-22,4.98-44.24,5.23-66.51l-.17.96c8.09-21.29,13.78-43.51,17.01-66.09.79-5.65,1.44-11.32,1.93-17l1.3-16.92,2.63-33.77,2.54-33.77c.8-11.26,1.11-22.56,1.7-33.84l2.87-67.71-.46,1.3c9.53-13.39,17.86-27.63,24.47-42.62,6.67-14.95,11.93-30.52,15.39-46.45-4.63,15.62-10.48,30.84-17.85,45.28-7.36,14.43-15.93,28.21-25.79,40.99l-.41.53-.05.77-4.4,67.53c-.73,11.25-1.32,22.51-2.15,33.76l-2.72,33.74-2.63,33.75-1.21,16.85c-.44,5.57-1.05,11.12-1.8,16.65-2.92,22.15-8.19,43.98-15.64,65.08l-.18.5v.47c.25,22.03-.78,44.1-3.14,66.06-1.14,10.98-2.59,21.94-4.41,32.85-1.84,10.9-3.96,21.77-6.34,32.6Z"/>
          <path d="m929.64,2206.23c2.44,11.38,3.99,22.82,4.53,34.27.52,11.45-.02,22.89-1.52,34.18l-.03.24.02.32c.26,4.99-3.38,9.76-8,10.78-2.28.55-4.77.19-6.88-.94-2.13-1.12-3.8-3-4.77-5.19l.12.33c-2.64-8.24-5.57-16.38-9.02-24.31-3.43-7.9-7.27-15.74-11.46-23.17-8.15-14.75-13.93-30.74-18.06-47.38,1.32,17.08,5.81,34.11,13.28,49.79,3.65,7.75,7.15,15.35,10.21,23.26,3.1,7.86,5.99,15.79,8.42,23.87l.04.13.08.2c1.52,3.68,4.43,6.73,7.95,8.55,3.52,1.83,7.74,2.4,11.64,1.42,3.9-.96,7.38-3.38,9.6-6.62,2.25-3.22,3.33-7.22,3.03-11.1l-.02.55c1.18-11.75.99-23.62-.54-35.26-1.5-11.65-4.38-23.09-8.66-33.91Z"/>
          <path d="m910.42,2282.47c-1.63,2.72-4.14,4.8-6.91,5.69-2.78.88-5.77.64-8.25-.6-1.23-.61-2.37-1.38-3.31-2.36l-3.2-3.4-6.58-6.83c-4.37-4.57-8.9-8.96-13.36-13.44l-6.8-6.59-3.39-3.27c-1-.99-1.95-2.08-2.81-3.2-1.76-2.24-3.24-4.69-4.38-7.33-1.2-2.64-1.78-5.36-2.66-8.51-1.75-6.08-3.37-12.19-5.24-18.24-3.61-12.13-7.46-24.19-11.98-36.08,1.71,12.59,4.09,25.01,6.71,37.37,1.24,6.19,2.74,12.33,4.11,18.49.68,2.96,1.45,6.45,2.8,9.6,1.31,3.19,3.05,6.23,5.17,8.98,1.08,1.36,2.24,2.63,3.5,3.85l3.49,3.24,6.96,6.43c4.72,4.2,9.36,8.5,14.17,12.6l7.18,6.2,3.7,3.09c1.4,1.14,3.02,2.01,4.72,2.56,3.41,1.08,7.2.82,10.23-.81,3.06-1.61,5.18-4.43,6.15-7.45Z"/>
          <path d="m887.63,2285.03c-2.62,3.75-4.65,4.89-6.65,5.96-1.01.5-2.07.96-3.43,1.31-1.38.37-2.98.59-5.31.56.48,2.32,2.38,4.06,4.64,4.88,2.28.81,4.99.63,7.25-.54,2.27-1.14,4.02-3.23,4.71-5.55.67-2.31.38-4.87-1.21-6.62Z"/>
          <path d="m810.14,2247.45c-1.93-4.03-2.55-8.33-1.83-12.29v-.32c-.08-3.66-.2-7.32-.42-10.97-.14-3.66-.51-7.28-.78-10.92-.28-3.64-.74-7.26-1.1-10.89-.38-3.63-.94-7.23-1.4-10.85l-.09-.68-.31-.56c-1.55-2.75-3.19-5.46-4.63-8.28-1.45-2.81-2.98-5.6-4.32-8.49-1.45-2.85-2.73-5.77-4.1-8.7l-3.97-8.91c.19,3.28.6,6.55,1.23,9.77.58,3.24,1.44,6.42,2.35,9.59,1.01,3.13,2.05,6.28,3.35,9.31,1.31,3.03,2.63,6.07,4.22,8.97l-.4-1.23c.41,3.62.72,7.26,1.21,10.87.51,3.61.92,7.24,1.51,10.84.6,3.6,1.11,7.21,1.83,10.8.65,3.59,1.4,7.18,2.19,10.75v-.32c.08,2.41.63,4.77,1.54,6.92.94,2.14,2.29,4.05,3.92,5.58Z"/>
          <path d="m968.52,3629.96c3.13-4.05,6.37-7.47,10.01-10.18,3.64-2.79,7.59-4.41,12.13-6.6,4.42-2.22,8.71-4.71,12.89-7.39,4.18-2.69,8.24-5.6,11.94-9.1-5.07.95-9.79,2.49-14.39,4.25-4.6,1.77-9.08,3.73-13.44,5.96-4.31,2.05-9.35,4.81-12.83,8.93-3.56,4.01-5.86,9.01-6.31,14.13Z"/>
          <path d="m917.9,3633.49c1.61-4.35,3.66-7.98,6.35-10.76,2.67-2.77,6.03-4.71,9.85-6.99,3.8-2.16,7.44-4.58,10.98-7.2,3.54-2.63,6.97-5.48,10.13-8.97-4.5.92-8.72,2.48-12.83,4.26-4.11,1.79-8.12,3.78-11.98,6.02-3.72,2.2-7.92,5.26-10.51,9.67-2.59,4.33-3.29,9.51-2,13.97Z"/>
          <path d="m879.54,3630.09c.74-3.39,1.69-6.36,3.09-8.44,1.38-1.86,3.7-3.95,5.86-6.03,2.23-2.07,4.43-4.33,6.65-6.59,2.19-2.31,4.29-4.78,6.05-7.9-3.4.72-6.47,2.08-9.43,3.6-2.95,1.54-5.6,3.54-8.07,5.86-2.4,2.4-4.78,4.93-6.09,8.96-.94,3.94-.14,7.67,1.94,10.54Z"/>
          <path d="m837.53,3626.7c.58-3.34,1.53-6.01,3.08-7.67,1.34-1.52,3.69-2.62,6.31-4.21,2.62-1.54,5.17-3.33,7.55-5.33,2.37-2.04,4.64-4.24,6.54-7.05-3.39.32-6.4,1.26-9.32,2.35-2.91,1.13-5.64,2.48-8.32,4.06-1.34.83-2.71,1.69-4.08,2.88-1.35,1.15-2.76,2.8-3.47,4.71-1.43,3.8-.49,7.74,1.71,10.27Z"/>
          <path d="m824.49,3588.08c14.59-3.38,28.89-8.1,42.63-14.11,6.87-3,13.59-6.36,20.18-9.93,6.59-3.58,13.12-7.2,19.89-10.38,13.49-6.43,27.68-11.27,41.59-16.87,13.93-5.53,27.74-11.37,41.48-17.35,27.48-11.98,54.69-24.53,81.79-37.32l20.31-9.65c3.39-1.66,6.76-3.15,10.17-4.95,3.31-1.88,6.49-4,9.48-6.36,12.02-9.38,21.05-22.54,25.49-37.15l.02-.05v-.05c10.64-47.08,16.07-95.34,16.18-143.62-.11-24.14-1.29-48.31-4.81-72.26-1.71-12.04-5.05-23.72-7.8-35.39-2.81-11.69-5.32-23.44-7.73-35.23-9.58-47.16-17.19-94.71-23.18-142.48-6.13-47.75-10.75-95.68-14.13-143.71v-.08s-.03-.06-.03-.06l-25.48-64.02,24.61,64.36-.03-.14c2.56,48.11,6.98,96.11,12.94,143.92,5.77,47.83,13.17,95.49,22.54,142.77,2.35,11.82,4.82,23.62,7.58,35.36,2.72,11.77,5.97,23.32,7.59,35.16,3.38,23.73,4.44,47.8,4.44,71.8.11,48.03-5.06,96.09-15.43,143.01l.03-.1c-4.21,14.09-12.84,26.81-24.41,35.93-2.88,2.29-5.94,4.36-9.13,6.19-3.21,1.72-6.68,3.28-10.01,4.93l-20.24,9.73c-27.02,12.91-54.17,25.58-81.56,37.68-13.7,6.04-27.46,11.93-41.35,17.52-13.84,5.68-27.96,10.79-41.46,17.42-6.75,3.28-13.28,7.02-19.8,10.68-6.53,3.65-13.18,7.09-19.99,10.18-13.62,6.18-27.83,11.09-42.38,14.66Z"/>
          <path d="m915.03,1744.91c2.57-13.71,5.27-27.25,8.61-40.61,1.72-6.66,3.44-13.31,5.49-19.87,2-6.56,4.03-13.14,6.6-19.34,2.46-6.27,5.53-11.94,9.97-16.7,4.32-4.91,9.73-8.77,15.48-12.4,11.75-7.06,23.77-13.94,36.31-19.99-13.6,3.36-26.47,8.94-39,15.28-6.3,3.2-12.41,7.35-17.59,12.6-5.24,5.27-8.93,12.01-11.61,18.59-5.11,13.34-8.51,26.87-10.93,40.7-2.39,13.8-3.62,27.77-3.31,41.72Z"/>
          <path d="m893.37,1733.69c-.63-5.23-1.3-10.43-1.61-15.66-.43-5.22-.7-10.44-.71-15.66-.05-10.43.47-20.86,1.85-31.18,1.25-10.34,3.4-20.55,6.06-30.64,2.71-10.08,6.18-19.97,10.07-29.75-2.63,4.57-4.88,9.34-7.05,14.15-2.06,4.86-3.91,9.81-5.58,14.84-3.3,10.05-5.59,20.45-6.94,30.97-1.32,10.52-1.75,21.15-1.06,31.72.66,10.56,2.23,21.06,4.98,31.23Z"/>
          <path d="m907.46,1592.01c1.75-12.27,3.21-24.47,4.82-36.63,1.65-12.15,3.32-24.28,5.25-36.37,1.84-12.1,3.96-24.15,6.09-36.23,2.16-12.08,4.49-24.14,6.53-36.37-4.82,11.42-8.65,23.22-11.83,35.18-3.24,11.96-5.68,24.12-7.66,36.34-1.82,12.25-3.22,24.58-3.77,36.95-.6,12.37-.56,24.77.56,37.12Z"/>
          <path d="m924.68,1432.33c-2.62-7.31-5.12-14.43-7.19-21.63-1.97-7.22-3.72-14.45-4.86-21.79-1.27-7.32-1.92-14.74-2.38-22.22-.38-7.49-.41-15.05-.44-22.82-2.82,7.25-4.35,14.95-4.99,22.73-.65,7.79-.28,15.67.95,23.43,1.34,7.73,3.5,15.33,6.64,22.51,3.14,7.16,7.17,13.93,12.28,19.79Z"/>
          <path d="m1005.31,1208.45c-11.35,4.64-22.93,8.08-34.7,9.75-5.89.75-11.8,1.24-17.7,1.09-5.87-.13-12.04-.39-17.79-1.17-11.65-1.3-22.73-5.28-32.01-12.37-9.27-7.08-16.45-16.93-21.48-28.1,2.25,12.05,8.5,23.7,17.99,32.27,4.69,4.34,10.28,7.71,16.14,10.31,5.94,2.46,12.22,3.97,18.48,4.79,6.35.7,12.38.92,18.69.83,6.28-.23,12.55-.9,18.64-2.34,12.19-2.79,23.77-7.9,33.72-15.07Z"/>
          <path d="m1055.41,1098.34c-3.72-2.59-7.43-5.13-10.93-7.95-3.57-2.72-7.03-5.58-10.33-8.6-6.6-6.04-12.8-12.49-18.34-19.48-5.61-6.93-10.58-14.36-15.05-22.11-4.46-7.76-8.23-15.92-11.63-24.31.98,4.42,2.37,8.74,3.86,13.04,1.59,4.25,3.41,8.43,5.41,12.52,3.99,8.2,9.02,15.89,14.7,23.04,5.74,7.1,12.18,13.66,19.32,19.33,7.12,5.69,14.79,10.67,22.99,14.53Z"/>
          <path d="m1039.23,740.88c1.18-5.55,1.67-11.06,1.92-16.57.25-5.5.26-11-.01-16.47-.24-5.48-.78-10.95-1.54-16.4-.77-5.46-1.79-10.9-3.49-16.31-1.19,5.55-1.68,11.06-1.93,16.57-.24,5.5-.26,11,.02,16.47.26,5.48.79,10.95,1.56,16.4.77,5.45,1.79,10.9,3.48,16.31Z"/>
          <path d="m1133.68,753.92c1.83,4.19,3.44,8.55,3.38,12.71.07,4.2-2.09,7.33-5.48,9.17-1.71.95-3.56,1.55-5.71,2.2l-6.59,2.13c-4.35,1.52-8.6,3.2-12.87,4.87-8.44,3.52-16.79,7.22-24.94,11.35-8.17,4.08-16.22,8.43-23.97,13.42,8.92-2.34,17.57-5.3,26.12-8.43,8.57-3.1,17-6.52,25.42-9.89l12.56-5.16,6.25-2.53c2.15-.78,4.6-1.86,6.69-3.42,2.1-1.55,4.11-3.6,5.15-6.2,1.1-2.56,1.2-5.35.76-7.82-1.01-4.97-3.66-8.99-6.76-12.39Z"/>
          <path d="m1378.95,1166.7c-4.05,2.84-7.66,5.89-11.22,8.94-3.56,3.05-7.06,6.08-10.52,9.16-3.47,3.06-6.89,6.2-10.34,9.37-3.45,3.18-6.89,6.4-10.19,10.1,4.81-1.22,9.24-3.28,13.42-5.73,4.18-2.46,8.13-5.31,11.73-8.54,3.63-3.21,6.92-6.8,9.84-10.66,2.92-3.87,5.49-8.02,7.28-12.64Z"/>
          <path d="m1266.23,2102.38c-6.93,2.73-13.59,5.62-20.29,8.35-6.72,2.67-13.38,5.34-20.17,7.68-6.74,2.48-13.59,4.64-20.48,6.81-6.91,2.13-13.89,4.11-20.99,6.38,7.43.6,14.88.09,22.22-1.09,7.35-1.14,14.56-3.1,21.59-5.55,6.99-2.56,13.8-5.62,20.22-9.38,6.42-3.73,12.52-8.05,17.9-13.21Z"/>
          <path d="m996.44,2552.74c8.7,7.01,18.31,12.91,28.39,17.95,10.15,4.88,20.9,8.69,32,11.07,11.02,2.67,22.61,3.02,32.94,5.15,10.16,1.98,18.7,8.71,22.47,18.22,3.99,9.54,5.3,20.74,6.85,31.63,1.55,10.98,2.67,22.02,3.82,33.06,2.08,22.11,3.56,44.31,4.52,66.61,1.74-22.26,2.08-44.66.9-67.01-.51-11.18-1.51-22.33-2.69-33.47-.62-5.57-1.37-11.15-2.37-16.75-1.04-5.59-2.28-11.26-4.62-16.82-4.49-11.35-15.7-19.98-27.51-21.9-5.79-1.09-11.41-1.44-16.91-1.97-5.51-.53-10.94-1.13-16.34-2.06-21.59-3.69-42.4-12.05-61.43-23.71Z"/>
        </g>
        <polygon points="863.62 564.6 875.16 568.56 865.2 561.51 863.62 564.6"/>
      </g>
    </g>
  </g>
</svg>