<?xml version="1.0" encoding="UTF-8"?>
<svg id="Layer_2" data-name="Layer 2" xmlns="http://www.w3.org/2000/svg" xmlns:xlink="http://www.w3.org/1999/xlink" viewBox="0 0 2061.08 3801.64">
  <defs>
    <style>
      .cls-1 {
        fill: none;
      }

      .cls-2 {
        fill: #1a1a1a;
      }

      .cls-3 {
        fill: url(#linear-gradient);
      }
    </style>
    <linearGradient id="linear-gradient" x1="1075.19" y1="699.59" x2="1075.19" y2="556.66" gradientUnits="userSpaceOnUse">
      <stop offset="0" stop-color="#1a1a1a"/>
      <stop offset=".55" stop-color="#080808"/>
      <stop offset="1" stop-color="#000"/>
    </linearGradient>
  </defs>
  <g id="Layer_1-2" data-name="Layer 1">
    <g>
      <rect class="cls-1" width="2061.08" height="3801.64"/>
      <g>
        <path d="m928.23,418.35c-1.85-18.5-2.73-39.52-1.62-62.55.61-12.63,1.75-24.52,3.24-35.59-4.04,4.94-8.09,9.89-12.13,14.83,1.9-7.9,4.79-17.31,9.3-27.5,4.53-10.24,9.57-18.74,14.16-25.48-6.07,4.18-12.13,8.36-18.2,12.54-.16-3.71-.17-15.28,7.68-26.69,7.73-11.22,18.3-15.36,21.84-16.58-2.38-.09-9.5-.66-14.96-6.07-6.86-6.78-8.31-18.38-3.24-28.71,2.86,6.74,5.99,8.14,7.68,8.49,7.5,1.57,18.04-10.68,26.29-31.14.29,2.64,1.03,5.98,3.24,6.88,5.67,2.31,15.75-13.64,23.46-21.03,10.93-10.48,32.76-18.74,80.89-7.28-2.29-2.97-4.58-5.93-6.88-8.9,5.12.99,10.38,2.19,15.77,3.64,27.23,7.32,49.66,18.81,67.27,30.33-3.42-5.12-6.83-10.25-10.25-15.37,4.06,1.7,8.2,3.77,12.34,6.27,29.12,17.62,41.69,47.03,46.98,63.29,1.58-1.95,5.23-5.92,11.32-8.09,9.19-3.27,17.21-.04,19.14.81-2.65.67-9.25,2.73-13.75,8.9-3.87,5.31-4.2,10.95-4.31,13.48-.78,17.5,16.06,27.26,23.19,46.38,6.38,17.13-1.8,23.61-5.39,67.41-1.51,18.43-1.39,33.52-1.08,43.14-23.9,23.42-75.36,66.45-149.91,76.3-32.19,4.25-85.64,11.32-122.14-23.46-20.23-19.27-27.21-43.73-29.93-58.24Z"/>
        <path d="m730.47,1639.47c-.75,1.95-1.77,4.81-2.7,8.36-1.62,6.22-2.02,10.94-2.5,17.75-.85,12.08-1.3,21.17-1.82,29.7-.32,5.31-.61,9.64-.81,12.4-3.99,7.19-8.73,17.79-11.05,31.28-4.03,23.35,1.42,42.37,4.85,51.77-3.33,26.95-6.4,54.36-9.17,82.24-7.09,71.31-11.69,140.24-14.29,206.53,56.95,5.53,118.61,9.15,184.42,9.71,47.33.4,92.43-.83,135.08-3.24-4.13-22.11-8.27-44.22-12.4-66.33,5.25,3.06,14.36,7.43,26.42,8.63,19.24,1.9,33.85-5.47,39.36-8.63-4.08,12.03-7.9,26.92-9.71,44.22-.89,8.52-1.17,16.47-1.08,23.73,33.79,4.83,70.96,8.41,111.09,9.71,69.61,2.25,131.78-2.89,184.42-10.78.46-56.91.22-114.8-.81-173.64-.42-23.89-.96-47.62-1.62-71.18,2.73-6.57,6.25-16.58,8.09-29.12,2.08-14.16,1.39-27.3-8.09-69.56-8.82-39.33-12.33-46.23-15.37-69.56-2.27-17.46-2.68-31.85-2.7-40.98-61.14,26.94-171.7,66.14-314.32,64.97-126.54-1.04-225.99-33.44-285.32-57.96Z"/>
        <path class="cls-2" d="m955.07,671.25c-4.56,4.56-11.54,11.11-20.76,18.06-11.65,8.79-25.52,17.22-61.2,32.09-25.15,10.48-51.68,20.22-59.05,22.92-17.57,6.43-31.55,11.21-48.26,22.65-9.12,6.24-15.99,12.36-20.49,16.72-13.97.64-33.86,3.03-56.35,10.92-5.06,1.78-33.63,12.05-60.26,33.97-65.26,53.71-74.83,141.08-78.33,172.96-3.35,30.56-1.79,55.9,0,72.26.52,3.27,1.03,8.17.54,14.02-1.22,14.68-7.83,25.08-10.25,29.12-6.36,10.61-10.35,24.51-18.33,52.31-2.35,8.19-4.33,17.17-7.01,83.58-2.28,56.31-.96,52.44-2.7,64.17-3.84,25.99-10.74,48.08-20.49,79.27-6.21,19.88-11.07,33.41-12.94,38.83-4.56,13.19-19.8,60.18-22.65,169.32-1.18,45.29,1.02,53.21,2.7,130.5,1.28,58.93,1.14,107.13.81,139.13-3.91,12.66-4.07,22.78-3.51,29.66,1.51,18.29,9.3,27.34,9.17,47.45-.05,7.62-1.21,13.82-2.16,17.8-2.69,17.71-4.83,37.19-5.93,58.24-.91,17.43-1,33.84-.54,49.07-1.29,1.91-3.03,5.02-3.77,9.17-1.51,8.36,2.04,14.96,3.23,16.99,4.66,8.5,7.68,15.76,9.57,20.76,5.11,13.52,5.85,21.04,11.73,39.23,2.35,7.27,4.51,13.12,5.93,16.85.49,1.89,1.25,4.01,2.43,6.2,4.23,7.89,11.21,11.68,14.56,13.21,3.42.9,6.83,1.8,10.25,2.7,1.23,1.38,2.75,2.87,4.58,4.31,4.34,3.42,8.68,5.22,11.86,6.2,20.19,5.07,40.38,10.14,60.57,15.21,4.03,1.06,8.27-.12,10.88-3.07,3.23-3.66,3.45-9.44.27-13.75-14.2-13.03-28.4-26.06-42.6-39.1-3.24-30.83-6.47-61.65-9.71-92.48,2.49-.73,5.99-2.08,9.64-4.65,4.93-3.48,7.81-7.58,9.3-10.11,6.67,26.15,13.35,52.31,20.02,78.46.45,2.89,1.8,8.95,6.67,14.36,1.5,1.67,10.17,10.87,21.84,8.7,1.9-.36,8.77-1.93,12.64-7.81,5.66-8.6,1.07-20.63-.91-26.17-5.15-14.42-10.72-35.49-14.76-67.61.67-5.03,1.37-12.75.81-22.11-1.97-32.74-17.75-57.68-26.15-70.64-8.4-12.96-13.13-16.73-25.34-36.67-5.14-8.38-9.05-15.47-11.59-20.22,3.03-42.04,9.37-75.42,14.56-98.01,9.26-40.3,17.64-58.46,35.19-124.16,0,0,8.98-33.63,15.77-63.09,9.85-42.72,21.36-109.13,23.46-201.41,6.29-10.87,15.1-27.6,22.92-49.07,11.5-31.58,13.24-52.52,20.49-87.9,4.08-19.92,10.71-48.34,21.57-82.5,1.94,14.8,5.68,32.74,12.94,52.31,12.61,33.97,30.57,58.68,44.22,74.42,10.11,40.36,7.99,71.33,4.85,90.59-3.16,19.4-9.47,39.84-15.64,59.86-7.14,23.16-12.13,35.41-15.1,44.22-7.82,23.22-13.67,58.42-3.77,110.01,61.32,25.34,171.6,61.61,312.76,57.7,128.22-3.55,228.07-38.77,286.88-64.71,3.36-17.56,6.7-44.24,3.24-76.03-6.46-59.24-29.26-69.35-30.74-120.25-1.43-49.04,18.25-90.4,24.54-103.27,12.17-24.92,20.1-29.65,32.35-55,16.83-34.81,21.84-67.17,23.46-88.98,13.54,69.52,22.73,119.6,29.12,157.73,5.94,35.47,8.22,53.28,17.26,80.35,4.28,12.81,8.86,24.08,12.94,42.6,5.28,23.93,5.82,42.26,6.2,52.17,1.6,41.81,3.86,101.09,18.6,160.56,6.06,24.43,6.69,18.53,17.8,59.05,13.93,50.83,21.02,89.63,23.46,103.54,3.95,22.55,8.19,50.98,11.32,84.12-4.66,7.18-12,18.05-21.84,30.74-14.56,18.78-18.31,20.57-26.96,33.97-6.18,9.57-14.68,23.01-18.87,42.06-2.2,10.03-.64,9.92-2.7,26.96-1.44,11.94-3.13,19.65-10.25,50.15-4.53,19.39-8.26,35.19-10.78,45.84-.27,1.62-1.27,8.72,3.24,14.02,5.74,6.75,16.24,5.64,22.38,2.97,6.61-2.88,9.9-8.34,11.05-10.52,4.57-11.25,9.05-23.48,13.21-36.67,5.5-17.45,9.6-33.93,12.67-49.07.73-.81,1.88-1.84,3.51-2.43,5.74-2.07,12.17,3.27,13.75,4.58,8.93,7.42,9.01,21.77,8.9,37.48-.07,9.56-.97,22.75-4.58,38.29-2.07,6.15-7.44,19.4-20.49,31.01-13.28,11.81-27.35,15.56-33.7,16.85-.63.23-8.16,3.19-10.11,11.32-.14.59-1.96,8.79,3.91,14.69,4.14,4.16,9.39,4.45,10.65,4.48,9.47-.69,18.64-1.43,27.5-2.19,24.12-2.07,27.75-2.86,32.76-5.26.89-.42.42-.24,18.2-10.92,3.35-2.02,5.98-3.73,10.11-6.07,7.06-4,9.16-4.69,11.32-6.07,8.33-5.3,10.42-16.17,11.73-21.84,3.08-13.39,9.63-32.15,21.44-59.45,1.3-3.08,3.08-7.81,4.45-13.75,3.19-13.83,2.03-24.98,1.62-29.12-3.75-37.86-7.04-71.14-2.02-103.54,2.17-14.04,4.08-16.13,5.93-32.35,2.88-25.29.99-44.37.54-49.61-3.61-42.06,7.39-102,13.75-229.45,4.99-100.07,1.56-130.17-2.43-151.26-9.49-50.27-19.95-80.89-19.95-80.89-4.93-14.42-8.85-23.56-13.48-40.98-6.45-24.27-8.53-43.08-10.25-59.32-9.78-92.76-7.96-107.26-16.72-140.2-6-22.58-13.5-40.73-19.41-53.39-1.52-4.91-3.38-12.14-4.31-21.03-1.56-14.92.37-26.36,1.08-30.74,0,0,4.29-26.39,7.41-67.27,2.65-34.69-7.56-62.1-15.77-84.12-9.24-24.8-22.11-59.31-55.81-87.49-39.72-33.21-84.92-37.99-104.07-38.83-18.33-18.28-35.38-29.67-47.45-36.67-24.91-14.43-59.22-27.81-91.67-45.84-5.59-3.1-17.93-10.14-26.96-24.27-3.34-5.22-5.32-9.98-6.47-13.21-51.46-8.48-107.72-14.94-168.24-17.8-24.18-1.14-47.65-1.65-70.37-1.62Z"/>
        <path class="cls-2" d="m960.01,573.11c-1.65,32.71-3.29,65.43-4.94,98.14,79.54,6.47,159.08,12.94,238.62,19.41-1.5-44.67-3-89.34-4.5-134-76.39,5.48-152.79,10.96-229.18,16.45Z"/>
        <path class="cls-3" d="m960.01,573.11c-1.1,21.93-2.21,43.86-3.31,65.79,18.25,15.07,54.3,40.76,106.76,53.39,58.51,14.08,106.95,4.57,130.23-1.62-1.5-44.67-3-89.34-4.5-134-76.39,5.48-152.79,10.96-229.18,16.45Z"/>
        <path class="cls-2" d="m692.99,2079.5c-2.16,37.73-2.28,69.41-1.89,92.75,0,0,1.91,100.39,22.11,219.47,3.52,20.74,6.82,37.87,9.17,49.61.93,4.14,2.06,10.52,2.16,18.33.18,14.64-3.38,23.87-5.39,33.43-3.11,14.81-1.08,23.63.54,42.6,0,0,2.89,33.98,0,82.5-2.04,34.19-8.19,46.62-15.37,82.5-14.75,73.68-11.49,134.45-9.71,164.2.93,15.42,6.28,48.03,16.99,113.24,11.97,72.9,22.76,127.79,28.31,155.3,5.91,29.28,11.25,54.1,15.37,72.8,1.72,5.91,3.84,14.36,5.26,24.67,1.01,7.35,2.33,20.5.4,45.3-2.58,33.28-6.63,31.25-6.07,49.75.6,19.66,5.22,23.26,6.07,44.49.49,12.37.84,24.04-3.23,38.02-2.16,7.42-5.43,14.93-23.46,40.71-7.26,10.38-17.01,23.87-29.12,39.37-11.62,9.26-23.3,18.69-35.05,28.31-10.43,8.54-20.71,17.05-30.84,25.54-.79.58-6.37,4.8-6.64,11.94-.05,1.19-.15,5.57,2.97,9.44,1.7,2.11,3.67,3.23,4.85,3.77.46,1.94,2.15,7.91,7.82,12.13,9.17,6.82,20.24,2.73,21.03,2.43.3,3.07,1.3,7.41,4.58,10.79,8.06,8.28,22.89,3.57,24.8,2.97,4.6-1.46,7.89-3.68,14.02-7.82,4.53-3.06,8.07-5.95,10.51-8.09-1.16,3.64-2.87,11.01.27,18.33,6.19,14.44,25.94,16.21,31.55,16.72,5.25.47,19.19,1.72,31.55-8.09,11.27-8.95,13.93-21.32,14.56-24.81,13.01-12.27,21.56-24.18,26.96-32.89,3.96-6.39,8.86-14.4,12.54-25.88,3.43-10.7,3.3-16.6,4.72-26.69,1.21-8.59,6.07-41.01,25.34-69.56,7.26-10.75,9.43-10.38,12.94-18.33,7.54-17.06,4.72-34.9,1.08-47.45.93-3.4,2.07-8.53,2.43-14.83.97-17.32-4.79-30.17-8.09-38.69-4.53-11.7-9.75-28.95-12.16-52.57-2.17-29.36-3.38-60.56-3.21-93.43.34-67.61,6.44-128.97,15.1-182.8,5.2-4.98,12.47-12.86,18.87-23.86,17.77-30.5,15.82-62.47,7.28-124.97-13.32-97.49-18.09-89.48-16.18-115.67,3.35-45.85,20-97.81,22.65-105.96,5.64-17.35,5.63-14.25,9.71-27.5,12.74-41.38,12.76-71.36,15.37-118.09,1.79-32.07,4.45-65.8,6.47-84.12,4.04-36.69,14.04-89.23,41.25-152.88,6.27-14.21,12.42-30.84,17.39-49.75,9.17-34.89,11.28-66.02,10.92-90.19-54.93,3.09-114.25,4.26-177.41,2.45-50.05-1.43-97.5-4.59-142.1-8.92Z"/>
        <path class="cls-2" d="m1296.45,3538.3c-11.71-9.57-23.12-18.02-33.97-25.48-12.11-15.49-21.86-28.98-29.12-39.37-18.03-25.79-21.29-33.29-23.46-40.71-4.07-13.97-3.73-25.65-3.23-38.02.85-21.23,5.46-24.82,6.07-44.49.57-18.5-3.49-16.46-6.07-49.75-.86-11.09-1.07-19.83-.95-26.78h-104.62c-.13,1.9-.23,3.87-.37,5.76-2.4,23.63-7.62,40.87-12.16,52.57-3.3,8.52-9.06,21.37-8.09,38.69.35,6.3,1.5,11.43,2.43,14.83-3.65,12.55-6.47,30.4,1.08,47.45,3.52,7.95,5.68,7.58,12.94,18.33,19.27,28.55,24.14,60.98,25.34,69.56,1.42,10.09,1.29,15.99,4.72,26.69,3.68,11.48,8.58,19.5,12.54,25.88,5.4,8.72,13.95,20.62,26.96,32.89.63,3.49,3.29,15.86,14.56,24.81,12.35,9.81,26.29,8.56,31.55,8.09,5.6-.5,25.35-2.27,31.55-16.72,3.14-7.32,1.43-14.69.27-18.33,2.45,2.3,5.98,5.41,10.54,8.7,6.87,4.95,10.47,7.55,15.98,8.9,3.57.88,11.53,2.83,18.66-1.81,6.67-4.35,8.37-11.71,8.75-13.62.79.31,11.87,4.39,21.03-2.43,5.67-4.22,7.36-10.19,7.82-12.13,1.57-.72,3.38-1.89,4.85-3.77,5.31-6.82,1.01-16.54.81-16.99-10.66-10.56-22.76-21.62-36.4-32.76Z"/>
        <path class="cls-2" d="m1101.1,3273.7c2.84-36.88,4.82-75.59,5.63-115.98,1.21-60.14-.31-116.82-3.64-169.59-4.75-7.68-11.18-19.58-15.77-35.05-8.05-27.11-6.5-51.78,2.43-98.68,11.44-60.12,17.76-66.27,23.05-101.51,5.6-37.27,4.55-70.54,1.37-97.69-3.9-8.68-7.77-18.69-11.07-29.98-5.15-17.6-7.57-33.6-8.63-46.91-3.23-4.54-6.79-10.46-9.71-17.8-5.54-13.94-6.2-26.51-5.93-34.51.49-46.08,1.54-93,3.24-140.74.91-25.78,2-51.31,3.24-76.57.3-5.55.33-14.13-1.62-24.27-3.06-15.96-9.3-26.94-11.32-30.74-10.4-19.48-12.33-43.72-16.18-92.21-1.49-18.83-2.55-44-1.08-73.88,45.46,6.49,98.79,10.97,158.4,10.14,50.9-.72,96.94-5.18,137.11-11.21-.91,19.77-2.76,47.92-6.87,81.56-5.52,45.09-12.43,78.05-22.65,126.18-6.77,31.9-16.17,73.52-28.72,122.27-1.5,4.9-3.74,12.99-5.39,23.19-2.57,15.89-2.31,28.26-2.16,33.97,1.66,63.37,4.31,85.47.54,115.94-1.11,8.95-3.3,22.89-8.09,39.9,8.69,41.86,12.91,77.82,15.1,105.15,2.57,32.09,6.46,83.95-1.62,148.83-1.83,14.72-2.51,15.85-18.6,93.02-23.59,113.08-23.05,115.01-33.7,162.58-7.29,32.54-18.09,78.75-32.73,134.59-6.03,5.75-17.07,14.53-33.06,18.56-37.21,9.38-67.76-15.38-71.56-18.56Z"/>
        <path class="cls-2" d="m1207.44,436.14c1.14-14.46,7.92-25.82,17.15-28.51,1.39-.41,8.75-2.55,14.29,2.43,6.24,5.6,4.65,15.23,4.57,15.7-2.48,19.78-4.95,39.55-7.43,59.33-.1,1.91-1.39,20.8-16.01,29.93-6.43,4.01-12.82,4.5-16.39,4.45-6.01,24.01-8.83,39.17-10.29,48.94-.31,2.05-.85,5.84-2.67,10.52-4.23,10.85-11.8,17.33-18.3,22.24-21.8,16.5-54.01,32.47-58.7,34.78-3.99,2.04-8.97,4.13-14.87,5.66-9.77,2.54-18.31,2.55-24.39,2.02-5.61.46-14.32.58-24.39-2.02-6.91-1.78-11.8-4.16-14.86-5.66-4.69-2.31-36.9-18.28-58.7-34.78-6.5-4.92-14.07-11.4-18.3-22.24-1.82-4.67-2.36-8.47-2.67-10.52-1.46-9.77-4.28-24.93-10.29-48.94-3.57.05-9.96-.43-16.39-4.45-14.62-9.13-15.91-28.02-16.01-29.93-2.48-19.78-4.95-39.55-7.43-59.33-.08-.46-1.67-10.1,4.57-15.7,2.79-2.5,8.27-3.9,13.19-2.72,1.1.26,1.99.62,2.6.9,3.1,1.41,5.67,3.91,8.24,8.41,3.01,5.25,7.13,15.19,10.84,28.4,1.09-8.33,2.63-20.94,4.1-36.43,1.65-17.32,1.68-22.01,3.18-29.49,2.06-10.31,6.68-24.73,18.2-41.25-2.29-2.75-6.5-8.61-7.68-16.99-1.77-12.49,4.39-22.03,7-26.07,6.43-9.95,15.01-14.82,18.2-16.57,26.17-14.44,69.54-7.79,87.02-5.77,24.41,2.81,58.71,3.55,101.73-5.78-.89,2.94-1.91,7.57-1.35,13.08,2,19.54,21.03,21.36,26.42,39.37,5.3,17.68-10.09,25.82-3.95,50.19,2,7.93,4.05,8.74,7.18,17.75,6.27,18.03,5.02,34.78,2.85,46.4l-.28,2.67Z"/>
        <path d="m692.38,1244.2c6.14-41.34,12.27-82.68,18.41-124.02-5.55-12.24-11.76-29.88-13.75-51.77-3.75-41.34,9.77-73.55,17.26-88.44-4.43,9.48-17.98,41.58-7.55,80.35,6.69,24.87,20.27,41.44,28.04,49.61-7.64,24.1-15,55.41-17.36,92.4-1.57,24.6-.61,46.69,1.4,65.51-3.64-8.89-7.26-19.25-10.28-30.96-2.69-10.43-4.44-20.12-5.58-28.8-3.53,12.04-7.06,24.09-10.59,36.13Z"/>
        <path d="m1375.08,1235.92c-.07-16.27-1.32-35.56-5.06-56.97-3.5-20.08-8.43-37.64-13.48-52.31,6.94-8.09,14.25-17.93,21.03-29.66,16.89-29.22,22.99-57.25,25.34-76.57-.58,14.65-1.17,29.3-1.75,43.95,4.31-.94,8.63-1.89,12.94-2.83-8.43,8.39-18.61,21.01-25.48,38.42-9.66,24.47-7.98,46.18-7.01,57.16.91,10.27,2.27,12.67,5.12,28.04,2.71,14.6,5.53,34.14,6.62,57.82-3.47-18.02-6.93-36.03-10.4-54.05-.53,7.43-1.45,15.54-2.92,24.21-1.4,8.26-3.12,15.87-4.96,22.78Z"/>
        <path d="m841.42,1112.49c-13.02.38-22.91,14.08-19.82,26.29,2.28,9.02,11.28,15.77,21.03,15.37,10.9-.45,20.56-9.74,20.22-21.44-.34-11.84-10.77-20.53-21.43-20.22Z"/>
        <path d="m1247.07,1120.58c-11.23.59-22.82,9.13-24.27,21.84-1.5,13.21,8.69,24.54,20.22,27.1,14.58,3.24,31.07-7.59,31.95-22.65.86-14.66-13.45-27.05-27.91-26.29Z"/>
        <path d="m742.33,1123.41c17.42,16.95,37.2,31.16,58.65,41.8,10.79,5.16,21.86,9.82,33.41,12.85l8.61,2.42c2.85.91,5.83,1.22,8.74,1.86l8.78,1.69c2.95.39,5.93.65,8.89.99,23.7,2.73,47.84,1.08,71.28-3.99,11.74-2.48,23.35-5.74,34.68-9.87,11.4-3.95,22.51-8.8,33.34-14.33-20.3,13.36-42.97,23.49-66.77,29.47-11.85,3.3-24.08,4.95-36.33,6.22l-9.23.44-4.62.21-4.63-.13-9.25-.27c-3.09-.05-6.14-.57-9.22-.85-24.5-2.83-48.6-10.06-70.18-21.93-10.83-5.84-20.95-12.9-30.42-20.65-9.3-7.96-18.11-16.47-25.74-25.94Z"/>
        <path d="m1061.84,1159c22.98,14.09,47.96,24.47,73.81,30.72,12.96,3.02,26.12,5.09,39.36,5.83,3.31.2,6.62.44,9.93.41,3.31-.02,6.63.22,9.94-.02l9.92-.54,4.96-.28,4.92-.65,9.86-1.23c3.27-.49,6.5-1.26,9.76-1.87,6.55-1.08,12.87-3.12,19.3-4.78,12.66-3.93,25.16-8.56,37.08-14.5,23.85-11.79,46.22-26.97,65.85-45.45-17.69,20.37-39.39,37.41-63.37,50.28-11.9,6.67-24.71,11.56-37.62,15.97-6.57,1.86-13.1,3.94-19.84,5.14-3.35.66-6.68,1.47-10.06,2.01l-10.17,1.34c-27.17,3.16-54.93.91-81.18-6.42-26.26-7.29-51-19.63-72.46-35.95Z"/>
        <path d="m1049.71,928.2c.98,19.17,1.53,38.33,1.62,57.48.2,19.15-.02,38.3-.31,57.44-.42,19.14-.93,38.28-1.84,57.42-.81,19.14-2.08,38.26-3.79,57.38-.99-19.17-1.54-38.33-1.63-57.48-.19-19.15.02-38.3.32-57.44.43-19.14.94-38.28,1.85-57.42.82-19.14,2.08-38.26,3.78-57.38Z"/>
        <path d="m1047.28,1438.06c-5.81.39-10.24,15.33-9.77,27.43.37,9.61,4.05,23.19,9.36,23.55,5.98.41,14.48-15.88,12.55-30.76-1.23-9.5-6.99-20.57-12.13-20.22Z"/>
        <path d="m781.97,792.58c14.7.3,29.38.97,44.06,1.71,14.68.73,29.34,1.76,44.01,2.63l5.49.41c1.87.21,3.58.4,5.38.46,3.55.13,7.12-.11,10.63-.71,3.5-.64,6.92-1.64,10.19-3.04,1.64-.69,3.21-1.52,4.74-2.43,1.6-.8,3.04-1.83,4.5-2.86,5.85-4.12,10.45-9.86,14.03-16.13,3.56-6.31,6.07-13.27,7.42-20.49-.57,7.35-2.77,14.53-5.91,21.28-3.37,6.62-7.93,12.82-13.92,17.46-5.9,4.74-13.03,7.9-20.48,9.32-3.72.7-7.52,1-11.3.92-1.87-.03-3.83-.22-5.6-.4l-5.49-.34c-14.63-1.15-29.28-2.14-43.9-3.43-14.62-1.29-29.24-2.63-43.84-4.36Z"/>
        <path d="m1335.24,808.76c-15.17-.11-30.32-.56-45.46-.97-15.15-.4-30.28-1.03-45.41-1.23l-11.34-.26c-3.74-.08-7.62,0-11.52-.51-7.75-.92-15.41-3.79-21.53-8.69-6.2-4.8-10.9-11.18-14.37-18-3.37-6.9-5.65-14.24-7-21.7,2.12,7.27,4.71,14.43,8.5,20.9,3.68,6.5,8.45,12.41,14.47,16.66,5.98,4.26,12.97,6.97,20.29,7.7,3.63.42,7.36.3,11.19.33l11.39.11c15.17.49,30.32,1.07,45.46,2.04,15.13.97,30.25,2.09,45.34,3.63Z"/>
        <path d="m978.52,710.08c4.55,7.57,8.76,15.31,12.92,23.07,4.19,7.74,8.14,15.61,12.09,23.48,3.87,7.9,7.74,15.81,11.37,23.84l5.43,12.05c1.7,4.07,3.5,8.09,5.1,12.21-2.31-3.77-4.41-7.64-6.63-11.45l-6.3-11.61c-4.19-7.75-8.14-15.61-12.09-23.48-3.87-7.91-7.74-15.81-11.37-23.84-3.66-8.01-7.27-16.05-10.54-24.25Z"/>
        <path d="m1088.53,807.95c2.93-7.53,6.2-14.89,9.53-22.23,3.29-7.35,6.82-14.59,10.35-21.82,3.61-7.19,7.22-14.39,11.08-21.46l5.79-10.6c2.04-3.48,3.98-7.01,6.12-10.44-1.43,3.78-3.07,7.46-4.59,11.2l-4.92,11.03c-3.29,7.35-6.82,14.58-10.36,21.81-3.61,7.19-7.23,14.39-11.08,21.46-3.82,7.09-7.7,14.15-11.91,21.05Z"/>
        <path d="m560.34,1104c3.64,12.02,6.24,24.23,8.58,36.49,2.24,12.28,4.23,24.6,5.17,37.12-3.64-12.02-6.24-24.23-8.58-36.49-2.24-12.28-4.22-24.6-5.17-37.12Z"/>
        <path d="m1521.28,1120.18c-1.54,8.54-4.08,16.73-6.85,24.84-2.88,8.07-6,16.06-10.13,23.69,1.53-8.55,4.07-16.74,6.85-24.84,2.89-8.07,6.01-16.06,10.13-23.69Z"/>
        <path d="m739.64,3578.07c2.91-.13,5.97-.14,9.17,0,12.04.52,22.43,3.04,30.74,5.93,4.14-6.59,2.85-10.31,2.43-11.32-2.96-7-16.92-7-25.34-4.85-8.5,2.17-14.15,7.25-16.99,10.25Z"/>
        <path d="m1227.26,3602.84c-2.91-.13-5.97-.14-9.17,0-12.04.52-22.43,3.04-30.74,5.93-4.14-6.59-2.85-10.31-2.43-11.32,2.96-7,16.92-7,25.34-4.85,8.5,2.17,14.15,7.25,16.99,10.25Z"/>
        <g>
          <path d="m572.07,2223.09c-12.4-6.98-24.38-14.5-36.22-22.22-2.97-1.92-5.93-3.84-8.85-5.83-1.53-1.02-2.8-1.91-4.51-2.96-1.67-1.11-3.21-2.42-4.59-3.9-2.77-2.95-4.78-6.6-5.92-10.48l-3.26-10.06-6.19-20.22c-2.01-6.76-3.83-13.59-5.98-20.31-4.53-13.36-8.83-26.82-12.52-40.6,6.36,12.68,12.11,25.69,17.63,38.8,5.13,13.25,9.31,26.84,13.71,40.36l3.13,10.19c.79,2.93,2.3,5.63,4.26,7.94.99,1.15,2.11,2.2,3.34,3.12,1.27.86,2.86,2.06,4.23,3.07,2.86,2.09,5.69,4.25,8.51,6.41,11.3,8.59,22.47,17.38,33.21,26.71Z"/>
          <path d="m565.8,2063.93c-1.74-1.42-2.77-2.98-3.64-4.57-.82-1.6-1.37-3.24-1.7-4.93-.33-1.69-.41-3.42-.23-5.21.22-1.79.61-3.62,1.72-5.58,1.75,1.42,2.78,2.98,3.64,4.56.82,1.6,1.37,3.24,1.69,4.93s.4,3.43.22,5.21c-.23,1.79-.61,3.62-1.72,5.58Z"/>
          <path d="m511,2201.37c-4.3-4.59-7.89-9.68-11.11-14.98-3.22-5.3-6.07-10.81-8.5-16.51-2.46-5.68-4.46-11.56-6.09-17.54-1.61-5.98-2.81-12.09-3.15-18.38,3.12,5.46,5.73,11,8.26,16.54,2.54,5.54,5,11.07,7.37,16.65,2.39,5.57,4.68,11.17,6.95,16.83,2.26,5.66,4.47,11.37,6.28,17.39Z"/>
          <path d="m1465.48,2235.57c12.86-5.11,25.4-10.58,37.43-16.96,5.92-3.27,12.05-6.44,16.6-10.68,4.76-4.36,8.64-9.61,11.55-15.45,1.51-2.9,2.79-5.92,3.99-9.08,1.22-3.2,2.44-6.47,3.75-9.66,2.66-6.38,5.29-12.77,8.22-19.02,5.73-12.56,11.88-24.92,18.75-36.93-4.22,13.18-8.98,26.11-13.74,39l-7.09,19.32-3.53,9.67c-1.19,3.29-2.54,6.64-4.17,9.87-3.35,6.42-7.81,12.42-13.37,17.19-5.86,4.83-12.23,7.83-18.61,10.64-12.77,5.6-26.13,9.75-39.77,12.09Z"/>
          <path d="m1547.57,2207.7c.9-5.08,2.42-9.87,4.15-14.54,1.73-4.67,3.68-9.24,5.88-13.69,2.17-4.46,4.61-8.78,7.26-13.01,2.65-4.22,5.52-8.34,9.01-12.15-.89,5.09-2.41,9.87-4.14,14.54-1.74,4.67-3.68,9.24-5.89,13.68-2.19,4.45-4.62,8.78-7.26,13.01-2.65,4.22-5.51,8.34-9,12.15Z"/>
          <path d="m1492.16,2077.34c-.36-3.43-.03-6.63.46-9.78.53-3.13,1.32-6.17,2.32-9.14s2.24-5.86,3.74-8.66c1.53-2.79,3.23-5.52,5.62-8.02.37,3.44.04,6.64-.45,9.78-.53,3.13-1.32,6.17-2.33,9.14-1.01,2.96-2.25,5.85-3.74,8.66-1.54,2.79-3.23,5.52-5.61,8.02Z"/>
          <path d="m1447.67,1479.32c3.86,4.24,8.19,8.07,13.12,10.29,4.88,2.24,10.27,2.65,14.68.5,4.49-2.25,8.62-5.9,12.24-10.01,3.69-4.07,7.16-8.48,10.29-13.08,6.44-9.11,11.73-19.01,16.34-29.28,4.61-10.29,8.25-21.04,11.8-32.02-.7,11.51-2.95,22.98-6.75,33.99-3.72,11.04-9.01,21.61-15.69,31.28-3.42,4.78-7.06,9.38-11.23,13.63-4.22,4.15-8.89,8.25-14.98,10.5-3.03,1.07-6.53,1.53-9.67.88-3.16-.54-6.11-1.77-8.67-3.43-5.09-3.41-8.84-8.13-11.47-13.25Z"/>
          <path d="m631.25,1446.42c-3.32,3.62-7.54,6.69-12.71,8.07-2.59.61-5.38.76-8.13.18-2.77-.55-5.34-1.92-7.52-3.55-4.4-3.32-7.33-7.64-10.13-11.8-2.69-4.25-4.99-8.64-7.27-13.01-4.37-8.84-8.26-17.93-11.36-27.28-3.15-9.33-5.62-18.89-7.06-28.65,4.21,8.92,8.07,17.84,12.1,26.66,4.07,8.79,8.13,17.56,12.52,26.15,2.11,4.34,4.33,8.61,6.67,12.72,2.31,4.11,4.89,8.04,7.97,11.04,3.06,2.96,7.11,4.54,11.64,4.18,4.5-.28,9.01-2.28,13.27-4.72Z"/>
          <path d="m837.78,1257.68c1.7,8.01,4.11,15.77,7.37,23.11,3.29,7.31,7.3,14.25,12.22,20.44,4.98,6.12,10.52,11.78,16.91,16.36,6.3,4.67,13.25,8.46,20.57,11.27l4.11,1.58-2.51,3.61c-4.3,6.18-7.46,13.18-9.32,20.48-1.98,7.29-2.28,14.96-1.42,22.5,1.8,15.14,9.68,29.47,20.83,40.8-6.61-4.53-12.22-10.52-16.81-17.24-4.46-6.81-7.87-14.51-9.33-22.71-1.6-8.16-1.45-16.69.37-24.87,1.82-8.18,5.31-15.92,9.97-22.88l1.6,5.19c-7.87-3.11-15.34-7.29-22.04-12.48-6.64-5.26-12.54-11.46-17.31-18.39-4.86-6.89-8.4-14.58-11.04-22.45-2.46-7.94-4.01-16.12-4.16-24.33Z"/>
          <path d="m881.46,1439.41c-3.05,6.58-5.15,13.47-6.35,20.46-1.15,7-1.33,14.07-.43,20.99.83,6.93,2.87,13.63,5.69,19.93,2.84,6.31,6.71,12.1,11.19,17.31l.81.94v1.28c.07,19.74,2.64,39.43,7.7,58.55,2.47,9.58,5.54,19.03,9.15,28.3,3.57,9.3,7.73,18.39,12.14,27.44-5.92-8.14-11.1-16.84-15.61-25.91-4.56-9.04-8.28-18.52-11.37-28.2-2.99-9.71-5.37-19.65-6.78-29.75-1.51-10.08-2.12-20.29-1.97-30.48l.82,2.22c-4.94-5.75-8.82-12.33-11.68-19.3-2.9-6.96-4.48-14.43-4.96-21.89-.83-14.97,3.43-29.94,11.64-41.89Z"/>
          <path d="m1245.17,1257.68c-.15,8.2-1.7,16.39-4.16,24.33-2.64,7.87-6.19,15.56-11.04,22.45-4.77,6.94-10.67,13.14-17.31,18.39-6.7,5.19-14.17,9.37-22.04,12.48l1.6-5.19c4.66,6.96,8.15,14.7,9.97,22.88,1.82,8.17,1.97,16.7.37,24.87-1.46,8.2-4.87,15.9-9.33,22.71-4.6,6.73-10.21,12.72-16.82,17.24,11.15-11.33,19.02-25.66,20.83-40.8.86-7.54.56-15.21-1.42-22.5-1.86-7.3-5.03-14.29-9.33-20.48l-2.51-3.61,4.11-1.58c7.33-2.82,14.27-6.6,20.57-11.27,6.39-4.57,11.93-10.24,16.91-16.36,4.92-6.19,8.93-13.13,12.22-20.44,3.26-7.34,5.67-15.1,7.37-23.11Z"/>
          <path d="m1201.49,1439.41c8.21,11.96,12.47,26.92,11.64,41.89-.48,7.46-2.06,14.93-4.96,21.89-2.86,6.97-6.74,13.56-11.68,19.3l.82-2.22c.15,10.19-.46,20.4-1.97,30.48-1.41,10.1-3.79,20.04-6.78,29.75-3.09,9.69-6.81,19.16-11.37,28.2-4.51,9.06-9.69,17.76-15.61,25.91,4.41-9.05,8.56-18.14,12.14-27.44,3.61-9.28,6.68-18.73,9.15-28.3,5.07-19.13,7.64-38.82,7.7-58.55v-1.28s.82-.94.82-.94c4.48-5.21,8.35-11.01,11.19-17.31,2.82-6.3,4.86-13,5.69-19.93.89-6.92.72-13.99-.43-20.99-1.2-6.98-3.3-13.88-6.35-20.46Z"/>
          <path d="m1052.94,1235.58c.27,7.54.17,14.91.15,22.26.02,7.35-.05,14.66.11,21.96.03,7.31.27,14.61.44,21.96.2,7.35.47,14.71.38,22.26-2.76-7.03-4.55-14.34-5.78-21.73-1.28-7.4-1.83-14.9-1.98-22.4-.03-7.5.35-15.01,1.45-22.44,1.05-7.42,2.67-14.78,5.24-21.87Z"/>
          <path d="m1053.75,1336.95c-.17,6.48-.68,12.74-1.09,18.98-.42,6.23-.75,12.43-1.02,18.62-.25,6.19-.48,12.39-.6,18.63-.12,6.25-.16,12.53-.54,19-2.48-5.99-3.97-12.29-4.88-18.66-.91-6.37-1.23-12.83-.93-19.27.27-6.44,1.17-12.85,2.61-19.11,1.44-6.27,3.48-12.41,6.43-18.18Z"/>
          <path d="m872.83,1674.52c-8.27-10.19-17.09-19.68-26.97-27.83-9.88-8.19-20.68-14.8-32.31-20.49-5.75-3.01-11.75-5.92-17.38-9.74-5.59-3.84-10.82-8.39-15.03-13.69-8.61-10.45-14.08-23.14-16.16-36.1,4.87,12.18,11.46,23.4,20.22,32.5,8.65,9.31,19.68,15.1,31.51,20.83,5.82,3.01,11.71,6.23,17.24,10.01,5.49,3.83,10.78,7.95,15.52,12.65,9.6,9.26,17.51,20.11,23.37,31.86Z"/>
          <path d="m1186.29,1674.52c5.85-11.75,13.77-22.6,23.37-31.86,4.74-4.7,10.03-8.82,15.52-12.65,5.52-3.78,11.42-6.99,17.24-10.01,11.83-5.74,22.85-11.52,31.51-20.83,8.76-9.1,15.34-20.32,20.22-32.5-2.07,12.96-7.55,25.64-16.16,36.1-4.21,5.3-9.44,9.84-15.03,13.69-5.64,3.82-11.64,6.73-17.38,9.74-11.62,5.69-22.42,12.3-32.31,20.49-9.88,8.15-18.7,17.65-26.97,27.83Z"/>
          <path d="m735.06,2644.9c7.54,11.68,18.82,20.23,31.56,23.48,12.6,3.29,25.55-1.37,37.22-7.89,5.94-3.21,11.97-6.76,18.01-10.08,6.09-3.28,12.11-6.67,18.26-9.83,12.24-6.45,24.6-12.69,37.3-18.32-11.26,8.14-22.86,15.69-34.59,23.02-11.76,7.37-23.49,14.39-35.68,21.33-6.23,3.31-12.87,6.31-20.06,7.91-7.16,1.52-14.98,1.51-22.01-.95-13.89-4.59-25.12-15.65-30.02-28.65Z"/>
          <path d="m832.12,2466.14c8.88,10.23,18.25,19.76,28.26,28.54,5.04,4.35,10.14,8.62,15.42,12.79,2.63,2.1,5.23,4.29,7.83,6.59,2.57,2.36,5.27,4.69,7.39,8.5.99,1.96,1.68,4.58,1.1,7.19-.51,2.58-2.31,4.8-4.03,6.05-3.52,2.52-6.63,3.48-9.22,5.02-2.57,1.46-4.49,3.22-5.55,5.69-1.2,2.51-1.23,4.84-.63,8.18.6,3.32,1.01,7.22.38,10.81-.57,3.63-1.85,7.05-3.56,10.14-3.53,6.15-8.49,11.05-13.93,15.07,4.39-5.13,8.47-10.54,10.85-16.55,1.2-2.98,1.98-6.06,2.11-9.14.16-3.12-.29-5.99-1.16-9.24-.4-1.65-.86-3.52-.88-5.6,0-2.08.42-4.16,1.2-6.01.67-1.92,1.88-3.67,3.21-5.23,1.39-1.51,2.97-2.73,4.57-3.76,3.16-1.97,6.54-3.21,8.44-4.73,1.8-1.49,1.85-2.61.93-4.69-1.1-2.14-3.43-4.51-5.79-6.68-2.39-2.21-4.96-4.35-7.49-6.58-5.04-4.47-10.19-8.97-14.91-13.89-9.55-9.74-18.02-20.58-24.54-32.46Z"/>
          <path d="m723.19,3579.95c.55-2.79,1.64-5.09,2.86-7.28,1.25-2.16,2.7-4.14,4.33-5.96,1.63-1.82,3.43-3.49,5.44-4.96,2.04-1.45,4.21-2.79,6.92-3.64-.54,2.79-1.63,5.1-2.85,7.28-1.25,2.16-2.7,4.14-4.34,5.95-1.63,1.82-3.44,3.48-5.45,4.96-2.04,1.45-4.21,2.79-6.91,3.64Z"/>
          <path d="m669.27,3582.11c-1.89-5.64-1.09-12.3,1.88-17.86,1.41-2.82,3.49-5.34,5.71-7.49,2.08-1.99,4.23-3.89,6.39-5.79,4.33-3.78,8.86-7.33,13.54-10.72,4.68-3.38,9.52-6.57,14.81-9.23-3.39,4.85-7.23,9.18-11.24,13.31-4,4.14-8.16,8.1-12.51,11.84-2.18,1.86-4.37,3.71-6.63,5.49-2.13,1.58-3.84,3.46-5.51,5.49-3.2,4.12-5.41,9.14-6.44,14.97Z"/>
          <path d="m640.42,3567.55c-1.45-4.15.08-9.38,3.58-12.77,2.9-2.93,5.97-5.65,9.19-8.19,3.22-2.54,6.59-4.89,10.12-7.02,3.56-2.1,7.23-4.07,11.35-5.45-2.32,3.68-5.08,6.78-7.96,9.74-2.9,2.93-5.96,5.65-9.18,8.17-3.22,2.53-6.58,4.87-10.11,7-2.96,1.66-5.45,4.46-6.99,8.52Z"/>
          <path d="m1243.71,3604.72c-2.71-.85-4.87-2.19-6.92-3.64-2.01-1.48-3.81-3.14-5.45-4.96-1.63-1.82-3.08-3.79-4.33-5.95-1.22-2.19-2.31-4.49-2.85-7.28,2.71.85,4.89,2.19,6.92,3.64,2.01,1.48,3.82,3.14,5.44,4.96,1.63,1.82,3.08,3.8,4.33,5.96,1.22,2.19,2.31,4.49,2.86,7.28Z"/>
          <path d="m1297.64,3606.88c-1.03-5.83-3.24-10.84-6.44-14.97-1.68-2.02-3.38-3.91-5.51-5.49-2.26-1.77-4.45-3.62-6.63-5.49-4.35-3.74-8.5-7.7-12.51-11.84-4-4.14-7.84-8.46-11.24-13.31,5.29,2.66,10.13,5.86,14.81,9.24,4.68,3.38,9.21,6.94,13.54,10.71,2.16,1.9,4.31,3.8,6.39,5.79,2.23,2.15,4.3,4.68,5.71,7.49,2.97,5.57,3.77,12.22,1.88,17.86Z"/>
          <path d="m1326.49,3592.32c-1.54-4.06-4.03-6.86-6.99-8.52-3.53-2.13-6.9-4.48-10.11-7-3.22-2.53-6.29-5.24-9.18-8.17-2.87-2.96-5.64-6.06-7.96-9.74,4.12,1.39,7.79,3.35,11.35,5.45,3.54,2.14,6.9,4.48,10.12,7.02,3.22,2.54,6.29,5.26,9.19,8.19,3.51,3.39,5.03,8.62,3.58,12.77Z"/>
          <path d="m878.77,2978.96c-.96,2.24-2.72,3.78-4.71,4.85-2.01,1.05-4.34,1.52-6.65,1.4-4.6-.26-9.21-2.99-10.49-7.66,2.42.08,4.27.3,6.02.4l4.87.32,4.92.25c1.78.12,3.65.16,6.05.43Z"/>
          <path d="m1158.63,2812.34c1.48,20.78,2.26,41.61,2.29,62.43.14,20.83-.43,41.65-1.34,62.46-.56,10.4-1.14,20.79-1.88,31.18-.98,10.37-1.94,20.74-3.11,31.09-2.16,20.71-4.77,41.38-7.82,61.97.36-20.86,1.16-41.64,2.42-62.38.51-10.38,1.36-20.72,1.94-31.09l1.51-31.11,2.88-62.23c.89-20.76,1.91-41.52,3.11-62.33Z"/>
          <path d="m1150.01,2640.85c9.14,8.88,18.97,16.91,29.88,22.58,10.86,5.57,23.03,8.39,34.44,5.51,5.71-1.33,11.2-3.97,16.59-7,5.4-2.96,10.85-6.43,16.17-9.64,10.58-6.68,20.56-14.37,30.18-22.77-7.49,10.37-16.77,19.5-27.1,27.24-5.2,3.91-10.4,7.37-15.94,10.86-5.56,3.35-11.6,6.38-18.26,8.06-6.67,1.63-13.75,1.51-20.35.1-6.61-1.5-12.83-4.14-18.41-7.66-11.17-7-20.26-16.56-27.21-27.28Z"/>
          <path d="m1165.11,2471.53c-8.99,8.68-18.17,17.17-25.43,26.8-3.48,4.8-6.73,10.02-7.26,15.15-.29,2.53.13,4.82,1.36,6.9,1.19,2.12,3.4,4.17,5.54,6.97,4.44,5.74,5.78,13.95,3.37,20.75-1.15,3.4-2.88,6.2-4.25,8.84-1.38,2.64-2.43,5.13-2.88,7.78-.86,5.33,1.11,11.01,4.42,15.97,3.26,5.05,7.66,9.46,12.19,13.78-5.45-3.09-10.59-6.86-14.91-11.72-2.12-2.46-3.98-5.23-5.34-8.36-1.34-3.14-1.98-6.69-1.75-10.23.23-3.56,1.42-6.98,2.8-9.9,1.36-2.94,2.75-5.58,3.45-8.14.76-2.55.94-5.07.45-7.67-.44-2.59-1.45-4.79-3.12-6.95-1.55-2.21-3.98-4.44-5.87-7.78-1.9-3.31-2.62-7.49-1.96-11.11,1.33-7.32,5.34-12.86,9.56-17.68,8.6-9.62,18.89-16.99,29.63-23.4Z"/>
        </g>
        <path d="m1000.1,2019.64c-9.7-9.22-19.45-18.16-29.66-26.52-10.21-8.34-20.77-16.2-31.78-23.37-10.93-7.29-22.37-13.81-34.05-19.92-11.72-6.06-23.78-11.48-36.09-16.75,13.15,2.49,26.01,6.59,38.39,11.84,12.4,5.22,24.29,11.65,35.57,19.03,11.21,7.46,21.87,15.78,31.55,25.13,9.72,9.29,18.57,19.47,26.07,30.56Z"/>
        <path d="m1061.11,2022.12c5.41-11.08,12.31-21.43,20.21-30.98,7.86-9.6,16.84-18.26,26.49-26.09,9.7-7.77,20.14-14.59,31.15-20.28,11.02-5.65,22.55-10.29,34.51-13.3-10.92,5.71-21.54,11.62-31.83,18.01-10.21,6.5-20.15,13.35-29.49,20.98-9.44,7.49-18.34,15.65-26.82,24.28-8.46,8.66-16.4,17.86-24.23,27.37Z"/>
        <path d="m769.03,1704.99c39.63,12.64,80.03,22.49,120.86,29.48,40.85,6.9,82.17,10.81,123.56,11.52,41.38.72,82.82-1.62,123.89-7.09,41.07-5.48,81.79-13.87,121.87-25.01-39.27,13.72-79.86,23.95-121.09,30.37-41.21,6.62-83.04,9.28-124.79,8.67-41.75-.85-83.45-5.1-124.4-13.15-40.96-7.94-81.16-19.62-119.89-34.79Z"/>
      </g>
    </g>
  </g>
</svg>