<?xml version="1.0" encoding="UTF-8"?>
<svg id="Layer_2" data-name="Layer 2" xmlns="http://www.w3.org/2000/svg" xmlns:xlink="http://www.w3.org/1999/xlink" viewBox="0 0 2075.38 3688.98">
  <defs>
    <style>
      .cls-1 {
        fill: #262626;
      }

      .cls-2 {
        fill: #fff;
      }

      .cls-3 {
        fill: #ffd7ae;
      }

      .cls-4 {
        clip-path: url(#clippath-1);
      }

      .cls-5 {
        fill: #929292;
      }

      .cls-6 {
        fill: gray;
      }

      .cls-7 {
        clip-path: url(#clippath);
      }

      .cls-8 {
        fill: none;
      }

      .cls-9 {
        fill: #1a1a1a;
      }

      .cls-10 {
        fill: url(#linear-gradient);
      }
    </style>
    <clipPath id="clippath">
      <rect class="cls-8" width="2075.38" height="3688.98"/>
    </clipPath>
    <clipPath id="clippath-1">
      <rect class="cls-8" x="-453.91" y="-491.17" width="2983.2" height="4355.3"/>
    </clipPath>
    <linearGradient id="linear-gradient" x1="1073.99" y1="4454.71" x2="1073.99" y2="1917.54" gradientUnits="userSpaceOnUse">
      <stop offset="0" stop-color="#1a1a1a"/>
      <stop offset=".55" stop-color="#080808"/>
      <stop offset="1" stop-color="#000"/>
    </linearGradient>
  </defs>
  <g id="Layer_1-2" data-name="Layer 1">
    <g class="cls-7">
      <g class="cls-4">
        <g>
          <path class="cls-5" d="m-1534.69-537.77c-32.87-328.45-48.48-701.47-28.71-1110.39,10.84-224.13,31.14-435.18,57.44-631.78-71.79,87.75-143.6,175.49-215.39,263.24,33.73-140.3,85.07-307.22,165.13-488.19,80.4-181.78,169.82-332.64,251.28-452.29-107.69,74.19-215.37,148.37-323.07,222.56-2.76-65.86-3.03-271.32,136.4-473.83,137.13-199.16,324.87-272.74,387.68-294.35-42.18-1.52-168.57-11.7-265.63-107.69-121.7-120.34-147.46-326.25-57.44-509.73,50.75,119.61,106.24,144.44,136.4,150.76,133.08,27.91,320.31-189.53,466.65-552.8,5.08,46.81,18.28,106.07,57.44,122.05,100.67,41.09,279.62-242.16,416.41-373.32,194.09-186.11,581.49-332.71,1435.85-129.23-40.68-52.65-81.37-105.3-122.05-157.94,90.8,17.57,184.27,38.89,279.99,64.61,483.43,129.92,881.53,333.82,1194.15,538.45-60.62-90.94-121.24-181.88-181.87-272.81,72.09,30.21,145.52,66.83,218.97,111.28,517,312.85,740.01,834.92,834,1123.56,27.97-34.65,92.91-105.14,201.02-143.58,163.19-58.03,305.48-.63,339.82,14.36-47.07,11.87-164.25,48.41-244.1,157.94-68.78,94.34-74.58,194.45-76.59,239.31-13.91,310.7,285.11,483.82,411.61,823.22,113.34,304.09-32.02,419.16-95.72,1196.55-26.8,327.19-24.67,595.06-19.13,765.79C3401.62-26.35,2488.1,737.55,1164.72,912.44c-571.5,75.53-1520.21,200.9-2168.13-416.4-359.1-342.12-482.93-776.24-531.28-1033.82Z"/>
          <path class="cls-3" d="m-970.68,2209.5c-29.21,580.72-58.45,1161.45-87.66,1742.17,1411.92,114.87,2823.84,229.74,4235.76,344.61-26.61-792.91-53.24-1585.82-79.85-2378.73-1356.08,97.32-2712.17,194.64-4068.25,291.96Z"/>
          <path class="cls-10" d="m-970.69,2209.5c-19.58,389.28-39.17,778.56-58.75,1167.84,323.9,267.44,963.93,723.57,1895.15,947.66,1038.59,249.92,1898.57,81.07,2311.71-28.72-26.63-792.91-53.24-1585.82-79.87-2378.73-1356.08,97.32-2712.17,194.64-4068.25,291.96Z"/>
          <path class="cls-9" d="m3421.59-249.7c20.24-277.6,140.55-495.82,304.48-547.56,24.64-7.78,155.26-49.01,253.72,46.6,110.74,107.49,82.58,292.53,81.1,301.45-43.95,379.77-87.88,759.53-131.83,1139.3-1.78,36.63-24.62,399.51-284.18,574.75-114.21,77.1-227.65,86.43-290.95,85.43-106.73,461.02-156.82,752.14-182.69,939.79-5.43,39.34-15.03,112.21-47.36,201.94-75.01,208.3-209.47,332.75-324.79,427.18-386.99,316.91-958.71,623.61-1041.97,667.95-70.77,39.12-159.23,79.34-263.88,108.73-173.46,48.73-325.01,49.06-433.03,38.83-99.66,8.93-254.23,11.08-433.03-38.83-122.68-34.25-209.54-79.81-263.86-108.73-83.27-44.34-655-351.04-1041.99-667.95-115.31-94.43-249.78-218.88-324.79-427.18-32.32-89.73-41.93-162.6-47.36-201.94-25.87-187.65-75.96-478.77-182.69-939.79-63.3.99-176.74-8.33-290.95-85.43-259.56-175.24-282.4-538.12-284.18-574.75-43.95-379.77-87.88-759.53-131.83-1139.3-1.48-8.92-29.64-193.96,81.1-301.45,49.49-48.03,146.72-74.89,234.16-52.25,19.48,5.04,35.34,11.84,46.2,17.2,54.96,27.05,100.64,75.11,146.28,161.44,53.35,100.92,126.5,291.68,192.39,545.45,19.28-160.05,46.6-402.14,72.85-699.65,29.34-332.6,29.83-422.75,56.38-566.35,36.6-197.9,118.58-474.9,323.07-792.22-40.59-52.87-115.33-165.39-136.4-326.21-31.44-239.88,78.01-423.08,124.34-500.61,114.23-191.17,266.51-284.56,323.05-318.3,464.6-277.25,1234.39-149.58,1544.63-110.9,433.32,54.03,1042.13,68.13,1805.82-110.94-15.79,56.47-33.9,145.46-23.93,251.13,35.43,375.33,373.28,410.15,469.03,755.97,94.03,339.6-179.19,495.94-70.1,963.9,35.49,152.24,71.9,167.89,127.54,340.93,111.32,346.24,89.06,667.95,50.61,891.05l-4.95,51.33Z"/>
          <g>
            <path class="cls-9" d="m244.1,1316.97c-36.56,146.96-73.12,293.93-109.68,440.89,79.3,260.42,136.52,461.86,171.2,586.33,69.3,248.73,96.22,361.09,211.33,463.11,77.69,68.86,156.12,96.82,312.98,152.73,238.56,85.03,378.1,134.77,521.63,83.75,129.08-45.88,197.4-150.51,280.88-278.36,81.63-125.01,114.38-234.06,141.78-327.63,50.34-171.95,112.87-404.54,173.88-689.74-3.78-100.05-22.23-249.98-96.3-416.31-42.7-95.9-67.51-151.61-123.05-206.92-150.26-149.64-381.5-152.98-706.21-157.66-233.42-3.36-352.76-3.76-481.51,59.12-170.32,83.19-258.16,218.85-296.93,290.68Z"/>
            <path d="m279.66,2149.59c62.84-109.15,125.67-218.3,188.51-327.46,30.96-53.78,50.12-112.65,56.39-173.25,14.67-141.84,29.34-283.68,44.01-425.52-99.87,21.35-199.74,42.7-299.6,64.05-42.8,152.32-85.6,304.64-128.4,456.96,46.37,135.07,92.73,270.15,139.1,405.23Z"/>
            <path d="m1826.61,2149.59c-62.81-114.08-125.62-228.17-188.43-342.25-24.25-44.05-39.21-91.93-44.07-141.12-14.6-147.62-29.2-295.24-43.81-442.87,95.51,21.35,191.03,42.7,286.55,64.05,40.93,152.32,81.87,304.64,122.8,456.96-44.35,135.07-88.69,270.15-133.04,405.23Z"/>
            <path d="m663.08,2629.13c55.42,39.16,161.88,102.49,310.3,121.53,298.86,38.34,518.55-134.84,554.62-164.22-8.92-67.33-17.83-134.66-26.75-202-598.16-60.67-914.99-39.32-950.53,64.05-15.4,44.8,22.04,105.02,112.35,180.65Z"/>
            <path d="m530.22,1441.78c8.91,1.35,22.49,2.33,38.34-.82,26.36-5.24,43.48-18.82,50.82-25.45,20.98,3.14,38.89,5.2,52.61,6.57,39.79,3.97,51.49,2.89,62.42,0,14.87-3.93,25.94-10.57,32.99-15.6,4.79,3.75,11.29,8,19.62,11.5,18.44,7.73,35.54,7.4,44.58,6.57,63.61.82,127.21,1.64,190.82,2.46,2.63.04,6.54-.21,10.92-1.64,2.77-.91,5-2.05,6.69-3.08,2.22.88,4.67,1.73,7.36,2.46,7.67,2.09,14.62,2.56,20.06,2.46,70.22-.21,140.44-.41,210.66-.62,6.38.18,15.95-.28,26.75-3.7,16.21-5.12,26.52-14.13,31.43-19.09,16.83,6.48,31.32,9.52,41.46,11.09,19.05,2.94,14.69-.59,58.18,1.23,10.52.44,19.17,1,29.43-3.08,8.59-3.42,14.48-8.56,18.06-12.32,5.28,6.61,13.23,14.57,24.74,20.94,36.19,20.03,76.56,7.27,83.59,4.93-.89-28.12-1.78-56.25-2.68-84.37-48.38-12.73-125.4-30.56-221.58-41.67-269.45-31.12-316.71,33.51-568.89,4.93-128.79-14.6-209.47-42-253.24,1.64-33.64,33.54-26.84,90.47-15.16,134.66Z"/>
            <path d="m721.04,2649.66c32.75,41.72,41.17,55.97,41.02,74.72-.07,8.65-1.94,15.77-3.57,20.53,5.9,2.14,20.56,8.32,31.21,22.99,14.89,20.52,10.78,42.27,9.81,46.8,11.81-1.23,28.98-1.46,47.26,4.93,19.44,6.79,18.94,13.66,35.67,19.71,27.34,9.88,41.8-3.73,76.68,1.64,10.66,1.64,25.98,5.48,43.69,15.6,6.37-3.44,16.38-8.03,29.43-10.67,8.09-1.64,8.16-.66,38.34-1.64,21.01-.68,27.64-1.37,36.56,2.46,6.7,2.88,11.36,6.89,14.27,9.85,4.08-3.65,10.88-8.87,20.51-12.32,19.02-6.81,32.76-.86,62.42,2.46,31.01,3.48,46.52,5.22,62.42,0,18.55-6.09,26.6-16.22,51.72-20.53,8.89-1.53,16.4-1.72,21.4-1.64.22-8.19,1.67-19.57,7.13-32.02,11.83-26.98,34.57-41,43.69-45.98-1.96-7.66-4.06-20.8,0-36.13,8.01-30.23,33.86-45.73,40.13-49.27-1.76-2.71-8.39-13.6-4.46-25.45,5.34-16.12,26.77-23.72,41.91-21.35,25.02,3.92,35.35,35.46,37.45,41.88,16.04,48.99-22.34,99.56-40.12,122.35-62.5,80.06-152.84,111.6-197.06,126.45-113.5,38.11-209.85,30.41-292.47,23.81-70.23-5.61-116.37-9.78-169.42-37.77-70.32-37.1-105.48-91.09-122.16-117.42-26.24-41.41-29.54-67.04-30.32-78.83-2.52-38.11,11.3-82.9,29.43-84.58,3.92-.36,7.56,1.34,37.45,39.41Z"/>
            <path class="cls-6" d="m1056.02,1494.29c-51.13-24.21-180.23-76.98-302.21-31.98-160.41,59.18-202.94,248.47-238.11,405.03-25.19,112.11-58.03,257.37,7.27,428.41,24.43,64,110.71,289.21,359.24,369.71,31.08,10.07,205.25,63.4,389.97-13.52,175.97-73.28,247.12-217.21,290.71-305.41,108.37-219.24,66.49-420.55,51.1-489.29-29.55-131.94-74.94-334.57-250.19-395.72-128.6-44.87-259.8,9.93-307.78,32.76Z"/>
            <path class="cls-1" d="m1052.63,1543.6c3.93,86.61,6.72,173.23,8.36,259.86,1.06,43.31,1.46,86.62,2.17,129.94l1.17,129.94.2,129.95c-.28,43.32-.22,86.63-.83,129.95-.73,86.63-2.64,173.27-5.71,259.92-3.95-86.61-6.76-173.23-8.38-259.86-1.06-43.31-1.45-86.62-2.17-129.94l-1.14-129.94-.17-129.95c.27-43.32.23-86.63.84-129.95.74-86.63,2.64-173.27,5.68-259.92Z"/>
            <path class="cls-2" d="m1095.85,960.52c-16.97-.72-35.33-1.27-55.01-1.66v405.54c.64,3.77,2.29,16.28-5.79,22.52-1.35,1.04-2.98,1.67-6.73,3.16-9.63,3.82-18.36,4.77-24.08,4.93-57.06.22-114.12.5-171.18.78-6.92,0-23.35-.83-40.15-10.64-20.52-12.03-28.17-29.71-30.34-35.31-5,7.21-14.38,18.35-29.85,26.27-18.6,9.53-35.87,9.31-59.29,9.03-25.94-.33-39.36-.5-53.09-9.03-19.8-12.36-25.34-33.14-26.96-40.63-4.15,19.79-11.8,34.25-17.4,43.07-9.15,14.58-17.09,27.16-32.74,31.43-11.5,3.16-21.79.28-29.43-1.83-19.38-5.43-31.36-16.85-36.77-22.78-1.63,3.71-9.99,21.67-31.42,29.54-1.44.55-27.93,9.87-45.5-2.49-5.06-3.55-8.07-8.31-14.02-17.85-5.96-9.48-9.69-17.96-12.04-24-1.08,1.72-12.04,17.96-33.46,19.68-17.03,1.44-29.01-7.37-31.42-9.2-1.44,1.55-11.44,12.19-28.11,12.3-18.96.17-29.79-13.52-30.76-14.8,16.13-66.84,81.61-300.96,302.75-408.1,107.01-51.82,239.85-42.79,487.76-15.96,17.76,1.94,36.05,3.94,55.01,6.04Z"/>
            <path class="cls-2" d="m985.77,960.52c16.97-.72,35.33-1.27,55.01-1.66v405.54c-.64,3.77-2.29,16.28,5.79,22.52,1.35,1.04,2.98,1.67,6.73,3.16,9.63,3.82,18.36,4.77,24.08,4.93,57.06.22,114.12.5,171.18.78,6.92,0,23.35-.83,40.15-10.64,20.52-12.03,28.17-29.71,30.34-35.31,5,7.21,14.38,18.35,29.85,26.27,18.6,9.53,35.87,9.31,59.29,9.03,25.94-.33,39.36-.5,53.09-9.03,19.8-12.36,25.34-33.14,26.96-40.63,4.15,19.79,11.8,34.25,17.4,43.07,9.15,14.58,17.09,27.16,32.74,31.43,11.5,3.16,21.79.28,29.43-1.83,19.38-5.43,31.36-16.85,36.77-22.78,1.63,3.71,9.99,21.67,31.42,29.54,1.44.55,27.93,9.87,45.5-2.49,5.06-3.55,8.07-8.31,14.02-17.85,5.96-9.48,9.69-17.96,12.04-24,1.08,1.72,12.04,17.96,33.46,19.68,17.03,1.44,29.01-7.37,31.42-9.2,1.44,1.55,11.44,12.19,28.11,12.3,18.96.17,29.79-13.52,30.76-14.8-16.13-66.84-81.61-300.96-302.75-408.1-107.01-51.82-239.85-42.79-487.76-15.96-17.76,1.94-36.05,3.94-55.01,6.04Z"/>
            <path class="cls-2" d="m1850.01,2095.4c-2.58-3.32-46.32-57.8-105.22-50.91-7.21.84-28.63,3.64-46.37,19.71-30.07,27.25-22.3,67.97-21.4,72.26-7.25,2.63-29.79,11.82-42.8,34.49-21.76,37.91,4.11,77.02,5.35,78.83-9.28,3.38-56.73,21.65-76.68,68.97-10.42,24.72-8.98,47.02-7.13,59.12-14.65,9.37-40.21,28.48-58.85,60.76-27.26,47.21-22.25,92.3-19.62,108.39-7.8,7.69-29.39,30.99-33.44,66.92-2.94,26.09,4.74,46.63,9.36,56.66-2.28.35-33.95,5.75-46.81,33.26-10.68,22.84-.31,43.63,1.34,46.8-8.06,4.71-26.98,17.18-38.79,40.65-10.04,19.94-10.01,38.02-9.36,46.8-4.12-.83-10.17-1.67-17.39-1.23-15.47.95-26.07,7.17-34.77,11.7-10.96,5.71-26.74,12.82-48.15,19.09-9.26.49-24.56.99-43.47,0-35.84-1.88-51.17-7.34-68.21.62-6.85,3.2-16.63,9.81-24.74,25.25-1.66-5-4.97-12.03-12.04-17.24-6.75-4.98-13.3-5.61-35.67-6.57-41.95-1.81-49.28-.89-55.73,4.52-5.38,4.51-7.77,10.14-8.92,13.85-4.01-4.07-27.59-27.57-41.46-21.65-7.23,3.09-8.92,12.91-9.81,18.89-6.33,42.54-11.65,93.04-12.48,101,45.63,24.53,126.06,59.15,225.59,55.02,174.98-7.26,290.04-129.32,370.94-215.13,141.69-150.3,193.83-311.21,242.54-461.47,35.88-110.71,54.22-204.96,64.2-269.33Z"/>
            <path class="cls-2" d="m1003.29,2944.44c-.94-19.42,1.7-38.32,7.21-56.36-7.39-11.61-15.61-17.01-21.59-19.8-17.04-7.96-32.37-2.49-68.21-.62-18.91.99-34.21.49-43.47,0-21.41-6.28-37.19-13.38-48.15-19.09-8.71-4.53-19.3-10.75-34.77-11.7-7.22-.44-13.27.4-17.39,1.23.65-8.79.68-26.86-9.36-46.8-11.81-23.47-30.73-35.93-38.79-40.65,1.65-3.17,12.02-23.96,1.34-46.8-12.86-27.5-44.53-32.9-46.81-33.26,4.62-10.03,12.31-30.56,9.36-56.66-4.05-35.93-25.64-59.24-33.44-66.92,2.64-16.09,7.65-61.18-19.62-108.39-18.64-32.28-44.2-51.39-58.85-60.76,1.84-12.11,3.29-34.4-7.13-59.12-19.95-47.33-67.4-65.6-76.68-68.97,1.24-1.81,27.11-40.92,5.35-78.83-13.01-22.66-35.55-31.85-42.8-34.49.9-4.29,8.67-45.01-21.4-72.26-17.74-16.07-39.15-18.86-46.37-19.71-58.9-6.89-102.63,47.59-105.22,50.91,9.98,64.37,28.32,158.62,64.2,269.33,48.7,150.27,100.85,311.17,242.54,461.47,80.89,85.82,195.95,207.87,370.94,215.13,23.09.96,45.09-.24,65.92-2.84-15.72-28.48-25.16-60.49-26.8-94.06Z"/>
            <path d="m1040.84,958.85v171.04c-12.76-60.86-69.94-103.81-131.09-102.37-52.24,1.22-100.27,34.64-119.05,83.75-7.1,32.87-14.26,65.68-21.37,98.55-9.03-13.3-23.53-32.04-45.5-50.49-28.65-24.11-60.73-51.1-90.94-43.12-27.99,7.37-47.85,43.07-48.15,86.24-30.88-52.21-74.27-81.92-104.31-73.94-15.71,4.16-28.17,18.73-37.5,29.6-17.52,20.45-24.8,41.29-28.05,54.15-4.94-3.66-13.54-9.03-25.46-11.09-28.59-4.93-50.62,13.58-53.45,16.02,29.73-54.32,92.09-146.88,208.61-201.97,55.01-25.99,107.14-36.58,201.99-45.56,112.07-10.64,213.73-12.36,294.26-10.81Z"/>
            <path d="m1040.79,958.85v171.04c12.76-60.86,69.94-103.81,131.09-102.37,52.24,1.22,100.27,34.64,119.05,83.75,7.1,32.87,14.26,65.68,21.37,98.55,9.03-13.3,23.53-32.04,45.5-50.49,28.65-24.11,60.73-51.1,90.94-43.12,27.99,7.37,47.85,43.07,48.15,86.24,30.88-52.21,74.27-81.92,104.31-73.94,15.71,4.16,28.17,18.73,37.5,29.6,17.52,20.45,24.8,41.29,28.05,54.15,4.94-3.66,13.54-9.03,25.46-11.09,28.59-4.93,50.62,13.58,53.45,16.02-29.73-54.32-92.09-146.88-208.61-201.97-55.01-25.99-107.14-36.58-201.99-45.56-112.07-10.64-213.73-12.36-294.26-10.81Z"/>
            <path class="cls-1" d="m1117.69,960.52c-16.97-.72-35.33-1.27-55.01-1.66v-4.38c17.76,1.94,36.05,3.94,55.01,6.04Z"/>
            <path class="cls-1" d="m114.81,1750.53c33.83,175.12,75.43,359.54,126.62,551.8,17.41,65.37,54.06,249.14,139.1,466.4,32.98,84.25,76,181.86,174.66,271.38,14.43,13.1,64.51,57.28,141.78,97.3,217.39,112.61,528.62,129.43,756.25,4.93,82.8-45.29,138.44-100.47,151.14-113.32,78.33-79.27,114.81-159.17,136.87-212.67,93.75-227.36,110.97-424.31,172.09-765.29,20.43-113.97,38.17-225.7,53.5-335.02-13.37,10.13-26.75,20.25-40.12,30.38-25.27,128.58-59.75,268.89-107,417.95-58.21,183.63-125.24,347.18-192.6,489.39-18.09,34.56-48.43,83.09-98.09,131.38-105.72,102.81-228.52,135.99-287.12,151.09-69.86,18-220.98,56.93-386.99-3.28-124.22-45.06-197.89-124.27-237.18-167.51-60.62-66.72-94.86-132.27-114.13-177.36-50.44-94.22-100.38-196.07-148.02-305.46-79.08-181.58-138.56-353.48-183.69-510.74-19.02-7.12-38.04-14.23-57.07-21.35Z"/>
            <path class="cls-1" d="m171.88,1771.87c22.51-109.45,48.45-199.51,69.55-265.22,65.72-204.71,119.72-283.21,157.83-330.09,51.43-63.28,89.87-88.6,101.65-96.07,70.8-44.89,141.14-55.09,240.75-64.05,127.45-11.46,272.58-18.17,500.23-9.85,114.61,4.19,179.81,11.83,256.8,39.41,40.42,14.48,101.68,37.05,160.5,88.68,47.45,41.65,71.46,86.34,119.48,175.72,20.74,38.6,54.76,101.97,86.49,191.32,21.78,61.32,46.11,144.07,61.53,244.69,13.37-10.13,26.75-20.25,40.12-30.38-.83-23.6-2.43-60.22-5.75-104.88-13.66-184.14-25.39-326.08-95.9-478.94-41.18-89.28-81.74-144.68-133.63-188.36-33.68-28.36-63.88-45.48-74.72-51.37-27.64-15.04-91.07-45.67-209.51-57.1-164.73-15.9-319.04,16.6-394.57,35.72-108.37-31.74-359.1-91.5-559.51-3.43-13.19,5.79-39.06,16.55-68.75,36.98-106.16,73.04-146.24,173.45-207.68,327.4-84.93,212.8-100.95,399.89-102,518.49,19.02,7.12,38.04,14.23,57.07,21.35Z"/>
          </g>
          <g>
            <path d="m955.33,404.2c-4.36-11.44-31.41-79.3-99.21-101.78-37.72-12.51-72.64-5.86-88.9-2.58-37.26,7.53-64,24.14-78.59,34.79,10.21.56,25.7,2.73,41.66,11.17,37.08,19.61,41.36,54.43,61.84,73.01,20.14,18.27,63.02,27.26,163.2-14.6Z"/>
            <path d="m1221.17,404.2c4.36-11.44,31.41-79.3,99.21-101.78,37.72-12.51,72.64-5.86,88.9-2.58,37.26,7.53,64,24.14,78.59,34.79-10.21.56-25.7,2.73-41.66,11.17-37.08,19.61-41.36,54.43-61.84,73.01-20.14,18.27-63.02,27.26-163.2-14.6Z"/>
            <path d="m787.83,513.29c-19.33-2.39-113.06-16-171.79-97.92-30.54-42.6-37.63-84.15-39.51-97.92-14.95-109.26,62.09-190.65,73.87-202.71-97.9,67.59-129.11,193.48-79.88,286.88,39.5,74.93,125.81,119.56,217.31,111.66Z"/>
            <path d="m1372.09,513.29c19.33-2.39,113.06-16,171.79-97.92,30.54-42.6,37.63-84.15,39.51-97.92,14.95-109.26-62.09-190.65-73.87-202.71,97.9,67.59,129.11,193.48,79.88,286.88-39.5,74.93-125.81,119.56-217.31,111.66Z"/>
            <path d="m955.33,404.2c21.01,54.12,72.62,90.35,130.13,91.48,59.48,1.16,113.95-35.47,135.71-91.48-32.04,49.9-88.11,78.47-145.59,73.87-75.9-6.07-115.84-66.9-120.25-73.87Z"/>
          </g>
          <path d="m-328.97,1309.76c5.93,206.03,66.05,1633.43,1014.5,2128.68,102.08,53.3,222.26,99.89,363.27,130.23,124.31-10.49,233.29-38.45,329.02-76.94,1067.33-429.15,1089.77-2409.87,1089.83-2583.01,1.04,753.91,2.09,1507.82,3.13,2261.73-132.31,82.54-269.33,165.03-411.07,247.05-81.33,47.05-161.96,92.66-241.87,136.86-79.4,48.38-197.71,108.47-350.74,146.72-166.61,41.64-310.15,41.33-406.89,33.59-78.4,8.95-183.35,12.64-304.43-6.65-175.5-27.96-299.75-91.63-376.99-131.94-415.53-216.85-882.34-497.43-959.35-543.82,83.86-580.83,167.73-1161.67,251.58-1742.5Z"/>
          <path d="m-82.15,1707.77c-13.04-237.19-25.75-411.78-34.26-520.92-12.08-154.91-24.26-287.51,45.69-426.1,43.27-85.71,89.88-118.18,105.09-127.94,107.65-69.06,241.43-35,297.02-22.85,140.89,30.8,358.6,47.48,694.56-18.28,86.66,19.25,214.41,42.3,370.12,50.26,385.35,19.71,509.99-96.03,644.28-4.57,134.1,91.32,147.19,295.46,166.78,600.88,15.18,236.68-11.14,438.28-30.84,438.67-17.06.33-29.55-150.13-102.8-435.24-37.58-146.26-61.45-212.36-124.52-257.03-74.04-52.44-164.22-48.5-217.43-40.8-32.8-25.06-86.07-60.32-158.38-85.17-109.14-37.51-202.67-31.01-298.5-24.36-54.61,3.79-131.39,12.94-221.93,36.77-68.75-19.44-127.25-29.42-169.6-34.95-114.64-14.98-243.06-30.24-377.22,26.27-47.18,19.87-82.79,43.45-105.65,60.43-50.96-21.77-140.24-50.13-215.11-11.3-80.03,41.51-103.13,136.39-123.37,219.33-42.62,174.67-87.82,354.74-143.95,576.89Z"/>
        </g>
      </g>
    </g>
  </g>
</svg>