<?xml version="1.0" encoding="UTF-8"?>
<svg id="Layer_2" data-name="Layer 2" xmlns="http://www.w3.org/2000/svg" xmlns:xlink="http://www.w3.org/1999/xlink" viewBox="0 0 2061.08 3801.64">
  <defs>
    <style>
      .cls-1 {
        fill: #b4b4b4;
      }

      .cls-2 {
        fill: #ffd7ae;
      }

      .cls-3 {
        fill: #929292;
      }

      .cls-4 {
        fill: #f7cca6;
      }

      .cls-5 {
        fill: none;
      }

      .cls-6 {
        fill: #a5a4a4;
        opacity: .31;
      }

      .cls-7 {
        fill: url(#linear-gradient);
      }
    </style>
    <linearGradient id="linear-gradient" x1="1062.01" y1="700.16" x2="1062.01" y2="557.26" gradientUnits="userSpaceOnUse">
      <stop offset="0" stop-color="#ffd7ae"/>
      <stop offset="0" stop-color="#fed6ad"/>
      <stop offset=".62" stop-color="#e7c9a9"/>
      <stop offset="1" stop-color="#dfc4a8"/>
    </linearGradient>
  </defs>
  <g id="Layer_1-2" data-name="Layer 1">
    <g>
      <g>
        <path class="cls-3" d="m915.09,418.97c-1.85-18.5-2.73-39.51-1.62-62.54.61-12.62,1.75-24.51,3.23-35.58-4.04,4.94-8.09,9.88-12.13,14.83,1.9-7.9,4.79-17.3,9.3-27.5,4.53-10.24,9.56-18.74,14.15-25.47-6.07,4.18-12.13,8.36-18.2,12.54-.16-3.71-.17-15.28,7.68-26.69,7.72-11.22,18.3-15.36,21.84-16.58-2.38-.09-9.49-.66-14.96-6.07-6.85-6.78-8.31-18.38-3.23-28.71,2.86,6.74,5.98,8.14,7.68,8.49,7.5,1.57,18.04-10.67,26.28-31.14.29,2.64,1.03,5.97,3.23,6.87,5.67,2.31,15.75-13.64,23.45-21.03,10.93-10.48,32.75-18.74,80.87-7.28-2.29-2.97-4.58-5.93-6.87-8.9,5.11.99,10.38,2.19,15.77,3.64,27.23,7.32,49.65,18.8,67.26,30.33-3.41-5.12-6.83-10.24-10.24-15.37,4.06,1.7,8.2,3.76,12.33,6.27,29.12,17.62,41.68,47.03,46.97,63.28,1.58-1.95,5.23-5.92,11.32-8.09,9.19-3.27,17.21-.04,19.14.81-2.65.67-9.25,2.73-13.75,8.9-3.87,5.31-4.2,10.95-4.31,13.48-.78,17.5,16.06,27.25,23.18,46.37,6.38,17.13-1.8,23.61-5.39,67.39-1.51,18.43-1.39,33.52-1.08,43.13-23.89,23.41-75.35,66.44-149.88,76.29-32.19,4.25-85.62,11.32-122.12-23.45-20.23-19.27-27.2-43.72-29.92-58.23Z"/>
        <path class="cls-1" d="m717.36,1639.86c-.75,1.95-1.77,4.81-2.7,8.36-1.62,6.22-2.02,10.93-2.5,17.75-.85,12.07-1.3,21.16-1.82,29.69-.32,5.31-.61,9.63-.81,12.4-3.99,7.19-8.73,17.78-11.05,31.27-4.03,23.34,1.42,42.36,4.85,51.76-3.33,26.94-6.4,54.35-9.17,82.22-7.08,71.3-11.69,140.21-14.29,206.49,56.94,5.53,118.59,9.15,184.39,9.7,47.32.4,92.41-.83,135.06-3.23-4.13-22.1-8.27-44.21-12.4-66.31,5.25,3.06,14.35,7.43,26.42,8.63,19.23,1.9,33.84-5.47,39.36-8.63-4.08,12.03-7.9,26.92-9.7,44.21-.89,8.51-1.17,16.46-1.08,23.72,33.78,4.83,70.95,8.41,111.06,9.7,69.6,2.25,131.76-2.89,184.39-10.78.46-56.89.22-114.77-.81-173.6-.42-23.89-.96-47.61-1.62-71.17,2.73-6.57,6.25-16.57,8.09-29.11,2.08-14.15,1.39-27.3-8.09-69.55-8.82-39.32-12.33-46.22-15.37-69.55-2.27-17.46-2.68-31.85-2.7-40.97-61.13,26.93-171.66,66.13-314.26,64.96-126.51-1.04-225.94-33.43-285.27-57.95Z"/>
        <path class="cls-2" d="m941.92,671.83c-4.56,4.56-11.54,11.11-20.76,18.06-11.65,8.79-25.52,17.21-61.19,32.08-25.15,10.48-51.67,20.22-59.04,22.91-17.57,6.43-31.54,11.21-48.25,22.64-9.12,6.24-15.98,12.36-20.49,16.71-13.97.64-33.86,3.03-56.34,10.92-5.06,1.78-33.63,12.05-60.25,33.97-65.24,53.7-74.82,141.05-78.31,172.93-3.35,30.56-1.79,55.89,0,72.25.52,3.27,1.03,8.17.54,14.02-1.22,14.68-7.83,25.08-10.24,29.11-6.36,10.61-10.35,24.51-18.33,52.3-2.35,8.19-4.33,17.17-7.01,83.57-2.28,56.3-.96,52.43-2.7,64.16-3.84,25.99-10.74,48.07-20.49,79.25-6.21,19.88-11.07,33.4-12.94,38.82-4.56,13.18-19.79,60.17-22.64,169.29-1.18,45.29,1.02,53.2,2.7,130.47,1.28,58.92,1.14,107.11.81,139.1-3.91,12.66-4.07,22.77-3.51,29.65,1.51,18.29,9.29,27.33,9.17,47.44-.05,7.61-1.21,13.82-2.16,17.79-2.69,17.71-4.83,37.19-5.93,58.23-.91,17.43-1,33.84-.54,49.06-1.29,1.91-3.03,5.02-3.77,9.17-1.51,8.36,2.04,14.96,3.23,16.98,4.66,8.5,7.68,15.75,9.57,20.76,5.11,13.52,5.85,21.03,11.73,39.22,2.35,7.27,4.51,13.12,5.93,16.85.49,1.89,1.25,4.01,2.43,6.2,4.23,7.89,11.2,11.68,14.56,13.21,3.41.9,6.83,1.8,10.24,2.7,1.23,1.38,2.75,2.87,4.58,4.31,4.33,3.42,8.68,5.22,11.86,6.2,20.19,5.07,40.37,10.14,60.56,15.2,4.03,1.06,8.27-.12,10.88-3.07,3.23-3.66,3.44-9.44.27-13.75-14.2-13.03-28.39-26.06-42.59-39.09-3.23-30.82-6.47-61.64-9.7-92.46,2.49-.73,5.99-2.08,9.64-4.65,4.93-3.48,7.8-7.58,9.3-10.11,6.67,26.15,13.34,52.3,20.02,78.45.45,2.89,1.8,8.94,6.67,14.35,1.5,1.67,10.17,10.87,21.84,8.69,1.9-.36,8.77-1.93,12.63-7.8,5.66-8.6,1.07-20.63-.91-26.16-5.15-14.42-10.72-35.49-14.76-67.59.67-5.03,1.37-12.75.81-22.1-1.97-32.74-17.74-57.67-26.15-70.63-8.4-12.96-13.13-16.73-25.34-36.66-5.14-8.38-9.05-15.47-11.59-20.22,3.03-42.03,9.37-75.4,14.56-97.99,9.25-40.29,17.63-58.45,35.18-124.14,0,0,8.98-33.62,15.77-63.08,9.84-42.71,21.35-109.11,23.45-201.37,6.29-10.87,15.1-27.6,22.91-49.06,11.5-31.58,13.24-52.51,20.49-87.88,4.08-19.91,10.71-48.33,21.57-82.49,1.94,14.79,5.68,32.74,12.94,52.3,12.6,33.97,30.57,58.67,44.21,74.4,10.1,40.35,7.99,71.32,4.85,90.58-3.16,19.39-9.46,39.84-15.64,59.84-7.14,23.16-12.13,35.41-15.1,44.21-7.82,23.21-13.67,58.41-3.77,109.99,61.3,25.33,171.56,61.6,312.7,57.69,128.2-3.55,228.02-38.76,286.82-64.7,3.36-17.56,6.7-44.23,3.23-76.02-6.46-59.23-29.25-69.34-30.73-120.23-1.43-49.03,18.25-90.38,24.53-103.25,12.17-24.92,20.09-29.64,32.35-54.99,16.83-34.8,21.84-67.16,23.45-88.96,13.54,69.51,22.73,119.58,29.11,157.7,5.94,35.46,8.22,53.27,17.25,80.33,4.28,12.81,8.86,24.07,12.94,42.59,5.28,23.92,5.82,42.25,6.2,52.16,1.6,41.8,3.86,101.07,18.6,160.53,6.05,24.43,6.69,18.53,17.79,59.04,13.93,50.82,21.02,89.61,23.45,103.52,3.95,22.55,8.19,50.97,11.32,84.11-4.66,7.18-12,18.05-21.84,30.73-14.56,18.78-18.31,20.56-26.96,33.97-6.17,9.57-14.68,23-18.87,42.05-2.2,10.02-.64,9.92-2.7,26.96-1.44,11.94-3.12,19.64-10.24,50.14-4.53,19.38-8.26,35.19-10.78,45.83-.27,1.62-1.27,8.72,3.23,14.02,5.74,6.75,16.24,5.64,22.37,2.97,6.61-2.88,9.9-8.34,11.05-10.51,4.57-11.24,9.05-23.48,13.21-36.66,5.5-17.45,9.6-33.92,12.67-49.06.73-.81,1.88-1.84,3.51-2.43,5.74-2.07,12.17,3.27,13.75,4.58,8.93,7.42,9.01,21.77,8.9,37.47-.07,9.56-.97,22.75-4.58,38.28-2.07,6.15-7.44,19.39-20.49,31-13.28,11.81-27.34,15.56-33.7,16.85-.63.23-8.15,3.19-10.11,11.32-.14.59-1.96,8.79,3.91,14.69,4.14,4.16,9.39,4.45,10.65,4.48,9.46-.69,18.63-1.43,27.5-2.19,24.12-2.07,27.75-2.86,32.75-5.26.89-.42.42-.24,18.2-10.92,3.35-2.02,5.98-3.73,10.11-6.07,7.06-4,9.16-4.69,11.32-6.07,8.33-5.3,10.42-16.16,11.73-21.84,3.08-13.39,9.63-32.14,21.43-59.44,1.3-3.08,3.08-7.81,4.45-13.75,3.19-13.82,2.03-24.98,1.62-29.11-3.75-37.85-7.04-71.12-2.02-103.52,2.17-14.03,4.08-16.12,5.93-32.35,2.88-25.29.99-44.37.54-49.6-3.61-42.06,7.39-101.98,13.75-229.41,4.99-100.05,1.56-130.14-2.43-151.23-9.49-50.26-19.95-80.87-19.95-80.87-4.92-14.42-8.85-23.55-13.48-40.97-6.45-24.27-8.53-43.08-10.24-59.31-9.78-92.74-7.95-107.24-16.71-140.18-6-22.57-13.5-40.72-19.41-53.38-1.52-4.91-3.38-12.14-4.31-21.03-1.56-14.92.37-26.36,1.08-30.73,0,0,4.29-26.38,7.41-67.26,2.65-34.68-7.56-62.09-15.77-84.11-9.24-24.79-22.1-59.3-55.8-87.48-39.72-33.2-84.9-37.98-104.05-38.82-18.33-18.27-35.37-29.67-47.44-36.66-24.91-14.43-59.21-27.81-91.65-45.83-5.59-3.1-17.92-10.14-26.96-24.26-3.34-5.22-5.32-9.98-6.47-13.21-51.45-8.48-107.7-14.93-168.21-17.79-24.17-1.14-47.64-1.65-70.36-1.62Z"/>
        <path class="cls-2" d="m946.85,573.71c-1.65,32.71-3.29,65.42-4.94,98.12,79.52,6.47,159.05,12.94,238.57,19.41-1.5-44.66-3-89.32-4.5-133.98-76.38,5.48-152.76,10.96-229.14,16.44Z"/>
        <path class="cls-7" d="m946.85,573.71c-1.1,21.93-2.21,43.85-3.31,65.78,18.24,15.06,54.29,40.75,106.74,53.37,58.5,14.08,106.93,4.57,130.2-1.62-1.5-44.66-3-89.32-4.5-133.98-76.38,5.48-152.76,10.96-229.14,16.44Z"/>
        <path class="cls-2" d="m679.89,2079.8c-2.16,37.72-2.28,69.4-1.89,92.73,0,0,1.9,100.37,22.1,219.43,3.52,20.73,6.82,37.86,9.17,49.6.93,4.14,2.06,10.52,2.16,18.33.18,14.64-3.38,23.87-5.39,33.43-3.11,14.8-1.08,23.62.54,42.59,0,0,2.89,33.97,0,82.49-2.04,34.18-8.18,46.62-15.37,82.49-14.75,73.67-11.49,134.42-9.7,164.17.93,15.41,6.28,48.02,16.98,113.22,11.97,72.89,22.75,127.76,28.31,155.27,5.91,29.27,11.24,54.09,15.37,72.78,1.72,5.91,3.84,14.36,5.26,24.67,1.01,7.35,2.33,20.5.4,45.29-2.58,33.27-6.63,31.24-6.06,49.74.6,19.66,5.22,23.25,6.06,44.48.49,12.37.84,24.04-3.23,38.01-2.16,7.42-5.43,14.92-23.45,40.71-7.26,10.38-17.01,23.87-29.11,39.36-11.61,9.26-23.3,18.69-35.04,28.31-10.43,8.53-20.7,17.05-30.83,25.54-.79.58-6.37,4.8-6.64,11.93-.05,1.19-.15,5.57,2.96,9.44,1.7,2.11,3.67,3.22,4.85,3.77.46,1.94,2.15,7.91,7.82,12.13,9.16,6.82,20.24,2.73,21.03,2.43.3,3.07,1.3,7.41,4.58,10.78,8.05,8.27,22.88,3.57,24.8,2.97,4.6-1.46,7.89-3.68,14.02-7.82,4.53-3.06,8.06-5.95,10.51-8.09-1.16,3.64-2.87,11.01.27,18.33,6.19,14.44,25.94,16.21,31.54,16.71,5.25.47,19.19,1.72,31.54-8.09,11.26-8.95,13.93-21.31,14.56-24.8,13.01-12.27,21.56-24.17,26.96-32.89,3.96-6.39,8.85-14.4,12.53-25.88,3.43-10.7,3.3-16.6,4.72-26.69,1.2-8.58,6.07-41,25.34-69.55,7.26-10.75,9.42-10.38,12.94-18.33,7.54-17.05,4.72-34.89,1.08-47.44.93-3.4,2.07-8.53,2.43-14.83.97-17.32-4.78-30.16-8.09-38.68-4.53-11.7-9.75-28.94-12.15-52.56-2.17-29.35-3.38-60.55-3.21-93.41.34-67.6,6.44-128.94,15.1-182.77,5.2-4.98,12.46-12.86,18.87-23.86,17.77-30.5,15.81-62.45,7.28-124.95-13.31-97.47-18.09-89.46-16.17-115.65,3.35-45.84,20-97.8,22.64-105.94,5.64-17.35,5.62-14.24,9.7-27.5,12.73-41.37,12.76-71.34,15.37-118.07,1.79-32.06,4.45-65.79,6.47-84.11,4.04-36.68,14.04-89.22,41.24-152.85,6.26-14.21,12.42-30.83,17.39-49.74,9.17-34.88,11.27-66.01,10.92-90.17-54.92,3.09-114.23,4.26-177.37,2.45-50.04-1.43-97.48-4.59-142.07-8.92Z"/>
        <path class="cls-2" d="m1283.23,3538.32c-11.71-9.56-23.11-18.02-33.97-25.47-12.1-15.49-21.85-28.98-29.11-39.36-18.03-25.78-21.29-33.28-23.45-40.7-4.07-13.97-3.73-25.64-3.23-38.01.84-21.23,5.46-24.82,6.06-44.48.57-18.49-3.49-16.46-6.06-49.74-.86-11.08-1.07-19.83-.95-26.78h-104.6c-.13,1.9-.23,3.87-.37,5.75-2.4,23.62-7.62,40.87-12.15,52.56-3.3,8.52-9.06,21.36-8.09,38.68.35,6.3,1.5,11.43,2.43,14.83-3.64,12.55-6.46,30.39,1.08,47.44,3.52,7.95,5.68,7.58,12.94,18.33,19.27,28.55,24.13,60.97,25.34,69.55,1.42,10.09,1.29,15.99,4.72,26.69,3.68,11.48,8.58,19.49,12.53,25.88,5.4,8.71,13.95,20.62,26.96,32.89.63,3.49,3.29,15.85,14.56,24.8,12.35,9.81,26.29,8.56,31.54,8.09,5.6-.5,25.35-2.27,31.54-16.71,3.14-7.32,1.43-14.69.27-18.33,2.45,2.3,5.98,5.41,10.54,8.69,6.87,4.95,10.47,7.55,15.97,8.9,3.57.88,11.53,2.83,18.65-1.81,6.67-4.34,8.37-11.7,8.75-13.62.79.31,11.86,4.39,21.03-2.43,5.67-4.22,7.36-10.19,7.82-12.13,1.57-.72,3.38-1.89,4.85-3.77,5.31-6.82,1.01-16.54.81-16.98-10.66-10.56-22.76-21.62-36.39-32.75Z"/>
        <path class="cls-2" d="m1087.91,3273.78c2.84-36.87,4.82-75.57,5.63-115.96,1.21-60.13-.31-116.8-3.64-169.56-4.75-7.68-11.18-19.58-15.77-35.04-8.05-27.11-6.49-51.77,2.43-98.66,11.43-60.11,17.76-66.25,23.05-101.49,5.59-37.26,4.55-70.53,1.37-97.67-3.9-8.68-7.77-18.69-11.07-29.97-5.15-17.6-7.57-33.6-8.63-46.91-3.23-4.54-6.79-10.46-9.7-17.79-5.54-13.93-6.2-26.5-5.93-34.5.49-46.07,1.54-92.98,3.23-140.72.91-25.78,2-51.3,3.23-76.56.3-5.54.33-14.12-1.62-24.26-3.06-15.96-9.3-26.94-11.32-30.73-10.4-19.47-12.33-43.71-16.17-92.19-1.49-18.83-2.55-44-1.08-73.86,45.45,6.49,98.77,10.97,158.37,10.13,50.89-.72,96.92-5.18,137.08-11.21-.91,19.76-2.76,47.91-6.87,81.55-5.52,45.08-12.43,78.03-22.64,126.16-6.77,31.9-16.16,73.51-28.71,122.25-1.5,4.9-3.74,12.99-5.39,23.18-2.57,15.89-2.31,28.26-2.16,33.97,1.66,63.36,4.31,85.45.54,115.92-1.11,8.95-3.3,22.88-8.09,39.9,8.68,41.86,12.9,77.81,15.1,105.13,2.57,32.08,6.46,83.94-1.62,148.8-1.83,14.72-2.51,15.85-18.6,93-23.58,113.06-23.04,114.98-33.7,162.55-7.28,32.53-18.08,78.73-32.72,134.56-6.02,5.74-17.06,14.53-33.05,18.56-37.2,9.38-67.74-15.37-71.54-18.56Z"/>
        <path class="cls-2" d="m1194.24,436.76c1.14-14.45,7.92-25.81,17.15-28.51,1.39-.41,8.74-2.55,14.29,2.43,6.24,5.6,4.65,15.23,4.57,15.69-2.48,19.77-4.95,39.54-7.43,59.31-.1,1.91-1.39,20.8-16.01,29.92-6.43,4.01-12.82,4.5-16.39,4.45-6.01,24-8.83,39.16-10.29,48.93-.31,2.05-.85,5.84-2.67,10.51-4.22,10.84-11.8,17.32-18.29,22.24-21.8,16.5-54,32.47-58.69,34.77-3.99,2.04-8.97,4.13-14.86,5.66-9.77,2.54-18.31,2.55-24.39,2.02-5.61.46-14.32.58-24.39-2.02-6.91-1.78-11.8-4.15-14.86-5.66-4.69-2.31-36.89-18.28-58.69-34.77-6.49-4.92-14.07-11.4-18.29-22.24-1.82-4.67-2.36-8.47-2.67-10.51-1.46-9.77-4.28-24.93-10.29-48.93-3.57.05-9.95-.43-16.39-4.45-14.62-9.12-15.91-28.02-16.01-29.92-2.48-19.77-4.95-39.54-7.43-59.31-.08-.46-1.67-10.1,4.57-15.69,2.79-2.5,8.26-3.9,13.19-2.72,1.1.26,1.99.62,2.6.9,3.1,1.41,5.67,3.91,8.24,8.4,3,5.25,7.12,15.19,10.84,28.4,1.09-8.33,2.62-20.94,4.1-36.42,1.65-17.32,1.68-22.01,3.18-29.49,2.06-10.3,6.68-24.72,18.2-41.24-2.29-2.75-6.5-8.61-7.68-16.98-1.77-12.49,4.39-22.03,7-26.06,6.43-9.95,15.01-14.81,18.2-16.57,26.17-14.43,69.52-7.79,87-5.77,24.41,2.81,58.7,3.55,101.71-5.78-.89,2.94-1.91,7.57-1.35,13.07,2,19.54,21.02,21.35,26.42,39.36,5.3,17.68-10.09,25.82-3.95,50.18,2,7.93,4.05,8.74,7.18,17.75,6.27,18.03,5.02,34.77,2.85,46.39l-.28,2.67Z"/>
        <path class="cls-4" d="m679.28,1244.67c6.13-41.33,12.27-82.67,18.41-124-5.55-12.23-11.76-29.88-13.75-51.76-3.75-41.33,9.77-73.53,17.25-88.42-4.43,9.48-17.97,41.57-7.55,80.33,6.69,24.86,20.27,41.44,28.03,49.6-7.64,24.1-14.99,55.4-17.35,92.38-1.57,24.6-.61,46.69,1.4,65.5-3.64-8.89-7.26-19.25-10.28-30.96-2.69-10.42-4.44-20.11-5.58-28.8-3.53,12.04-7.06,24.08-10.59,36.12Z"/>
        <path class="cls-4" d="m1361.84,1236.39c-.07-16.27-1.32-35.55-5.06-56.95-3.5-20.08-8.43-37.63-13.48-52.3,6.94-8.09,14.25-17.93,21.03-29.65,16.88-29.22,22.99-57.24,25.34-76.56-.58,14.65-1.17,29.29-1.75,43.94,4.31-.94,8.63-1.89,12.94-2.83-8.43,8.38-18.6,21.01-25.47,38.41-9.66,24.46-7.98,46.17-7.01,57.15.91,10.27,2.26,12.67,5.12,28.04,2.71,14.6,5.53,34.13,6.62,57.81-3.47-18.01-6.93-36.03-10.4-54.04-.53,7.43-1.45,15.54-2.92,24.2-1.4,8.26-3.12,15.87-4.96,22.78Z"/>
        <path class="cls-4" d="m828.29,1112.98c-13.02.38-22.91,14.07-19.81,26.28,2.28,9.01,11.27,15.77,21.03,15.37,10.9-.45,20.56-9.74,20.22-21.43-.34-11.84-10.77-20.53-21.43-20.22Z"/>
        <path class="cls-4" d="m1233.86,1121.07c-11.22.59-22.82,9.13-24.26,21.84-1.5,13.21,8.69,24.53,20.22,27.09,14.58,3.24,31.07-7.59,31.94-22.64.86-14.66-13.45-27.05-27.9-26.28Z"/>
        <path class="cls-4" d="m729.22,1123.9c17.42,16.95,37.19,31.16,58.64,41.8,10.79,5.16,21.85,9.82,33.4,12.85l8.61,2.42c2.85.91,5.83,1.22,8.74,1.86l8.78,1.69c2.95.39,5.93.65,8.89.99,23.69,2.72,47.83,1.08,71.27-3.99,11.73-2.48,23.35-5.74,34.68-9.87,11.4-3.95,22.5-8.8,33.33-14.32-20.29,13.36-42.96,23.49-66.76,29.47-11.84,3.3-24.08,4.95-36.32,6.21l-9.23.44-4.62.21-4.62-.13-9.25-.27c-3.09-.05-6.14-.57-9.22-.85-24.5-2.83-48.59-10.06-70.16-21.92-10.83-5.84-20.95-12.9-30.41-20.65-9.3-7.95-18.1-16.46-25.74-25.94Z"/>
        <path class="cls-4" d="m1048.66,1159.48c22.98,14.09,47.95,24.47,73.8,30.72,12.95,3.02,26.11,5.09,39.35,5.83,3.31.2,6.61.44,9.93.41,3.31-.02,6.63.22,9.94-.02l9.92-.54,4.96-.28,4.92-.65,9.86-1.22c3.27-.49,6.5-1.26,9.76-1.87,6.55-1.08,12.87-3.12,19.29-4.78,12.66-3.93,25.15-8.55,37.07-14.5,23.85-11.79,46.21-26.97,65.84-45.44-17.69,20.37-39.38,37.4-63.36,50.27-11.9,6.66-24.7,11.55-37.61,15.96-6.57,1.86-13.09,3.94-19.83,5.14-3.35.66-6.68,1.47-10.05,2.01l-10.17,1.34c-27.17,3.16-54.92.91-81.17-6.42-26.26-7.29-50.99-19.63-72.45-35.95Z"/>
        <path class="cls-4" d="m1036.53,928.73c.98,19.17,1.53,38.32,1.62,57.47.2,19.15-.02,38.29-.31,57.43-.42,19.14-.93,38.27-1.84,57.4-.81,19.13-2.08,38.25-3.79,57.37-.99-19.17-1.54-38.32-1.63-57.47-.19-19.15.02-38.29.32-57.43.43-19.14.94-38.27,1.85-57.4.82-19.13,2.08-38.25,3.78-57.37Z"/>
        <path class="cls-4" d="m1034.11,1438.49c-5.81.39-10.24,15.33-9.77,27.42.37,9.61,4.05,23.19,9.36,23.55,5.98.41,14.47-15.87,12.54-30.75-1.23-9.5-6.99-20.56-12.13-20.22Z"/>
        <path class="cls-4" d="m768.85,793.14c14.7.3,29.38.97,44.05,1.7,14.68.73,29.33,1.76,44,2.63l5.49.41c1.87.21,3.58.4,5.37.46,3.55.13,7.12-.11,10.62-.71,3.49-.64,6.92-1.64,10.19-3.04,1.64-.69,3.21-1.52,4.74-2.43,1.6-.8,3.04-1.83,4.5-2.86,5.84-4.12,10.45-9.85,14.03-16.12,3.56-6.31,6.06-13.26,7.41-20.48-.57,7.35-2.77,14.53-5.91,21.27-3.37,6.62-7.93,12.81-13.92,17.46-5.9,4.74-13.03,7.9-20.48,9.31-3.72.7-7.52,1-11.3.92-1.87-.03-3.83-.22-5.6-.4l-5.49-.34c-14.63-1.15-29.27-2.14-43.89-3.43-14.62-1.29-29.24-2.63-43.84-4.36Z"/>
        <path class="cls-4" d="m1322.01,809.31c-15.17-.11-30.31-.56-45.46-.97-15.14-.4-30.27-1.03-45.4-1.22l-11.34-.26c-3.74-.08-7.62,0-11.51-.51-7.75-.92-15.4-3.79-21.52-8.69-6.2-4.8-10.9-11.17-14.37-18-3.37-6.9-5.64-14.24-7-21.7,2.12,7.27,4.7,14.42,8.5,20.89,3.68,6.5,8.45,12.41,14.46,16.66,5.98,4.26,12.97,6.97,20.28,7.7,3.63.42,7.36.3,11.18.33l11.38.11c15.17.49,30.32,1.07,45.45,2.04,15.13.97,30.25,2.09,45.34,3.63Z"/>
        <path class="cls-4" d="m965.37,710.65c4.55,7.57,8.76,15.3,12.92,23.06,4.19,7.74,8.14,15.61,12.09,23.47,3.87,7.9,7.74,15.81,11.37,23.83l5.43,12.04c1.69,4.07,3.5,8.09,5.1,12.2-2.31-3.77-4.41-7.63-6.63-11.45l-6.3-11.61c-4.19-7.75-8.14-15.61-12.08-23.48-3.87-7.9-7.74-15.81-11.36-23.84-3.66-8.01-7.27-16.04-10.54-24.24Z"/>
        <path class="cls-4" d="m1075.35,808.5c2.93-7.53,6.2-14.89,9.52-22.22,3.29-7.35,6.82-14.58,10.35-21.81,3.61-7.19,7.22-14.38,11.07-21.46l5.79-10.6c2.04-3.48,3.98-7.01,6.12-10.44-1.43,3.78-3.07,7.46-4.59,11.2l-4.92,11.03c-3.29,7.35-6.82,14.58-10.36,21.81-3.61,7.19-7.22,14.38-11.08,21.45-3.82,7.09-7.69,14.15-11.91,21.04Z"/>
        <path class="cls-4" d="m547.26,1104.49c3.64,12.01,6.23,24.22,8.58,36.48,2.24,12.27,4.23,24.6,5.17,37.11-3.64-12.01-6.24-24.22-8.58-36.48-2.24-12.28-4.22-24.6-5.17-37.11Z"/>
        <path class="cls-4" d="m1508.01,1120.67c-1.54,8.54-4.08,16.73-6.85,24.83-2.88,8.07-6,16.06-10.13,23.69,1.53-8.54,4.07-16.73,6.85-24.83,2.89-8.07,6.01-16.05,10.13-23.69Z"/>
        <path class="cls-4" d="m726.53,3578.08c2.91-.13,5.97-.14,9.17,0,12.04.52,22.43,3.04,30.73,5.93,4.14-6.59,2.85-10.31,2.43-11.32-2.96-6.99-16.92-7-25.34-4.85-8.5,2.17-14.15,7.25-16.98,10.24Z"/>
        <path class="cls-4" d="m1214.06,3602.84c-2.91-.13-5.97-.14-9.17,0-12.04.52-22.43,3.04-30.73,5.93-4.14-6.59-2.85-10.31-2.43-11.32,2.96-6.99,16.92-7,25.34-4.85,8.5,2.17,14.15,7.25,16.98,10.24Z"/>
        <g>
          <path class="cls-4" d="m558.99,2223.36c-12.4-6.98-24.37-14.5-36.21-22.21-2.97-1.92-5.93-3.84-8.85-5.82-1.53-1.02-2.8-1.91-4.51-2.96-1.67-1.11-3.21-2.42-4.59-3.9-2.77-2.95-4.78-6.6-5.91-10.48l-3.26-10.06-6.19-20.22c-2.01-6.76-3.83-13.58-5.98-20.3-4.53-13.36-8.83-26.81-12.51-40.59,6.36,12.68,12.11,25.69,17.63,38.79,5.13,13.24,9.3,26.84,13.71,40.35l3.13,10.19c.79,2.93,2.3,5.63,4.26,7.94.99,1.15,2.11,2.2,3.34,3.11,1.27.86,2.86,2.06,4.23,3.07,2.86,2.09,5.69,4.24,8.51,6.4,11.3,8.59,22.46,17.37,33.21,26.7Z"/>
          <path class="cls-4" d="m552.72,2064.23c-1.74-1.42-2.77-2.98-3.64-4.57-.82-1.6-1.37-3.24-1.7-4.93-.33-1.69-.41-3.42-.23-5.21.22-1.79.61-3.62,1.72-5.58,1.75,1.42,2.78,2.98,3.64,4.56.82,1.6,1.37,3.24,1.69,4.93s.4,3.43.22,5.21c-.23,1.79-.61,3.62-1.72,5.58Z"/>
          <path class="cls-4" d="m497.93,2201.65c-4.3-4.59-7.89-9.68-11.11-14.97-3.22-5.3-6.07-10.81-8.5-16.51-2.46-5.68-4.46-11.56-6.09-17.54-1.61-5.98-2.81-12.09-3.15-18.37,3.12,5.46,5.73,11,8.26,16.54,2.53,5.54,5,11.07,7.37,16.64,2.39,5.56,4.68,11.17,6.94,16.82,2.25,5.66,4.47,11.36,6.28,17.39Z"/>
          <path class="cls-4" d="m1452.23,2235.84c12.85-5.11,25.39-10.58,37.42-16.95,5.91-3.27,12.05-6.44,16.6-10.68,4.76-4.36,8.64-9.61,11.54-15.44,1.51-2.9,2.79-5.91,3.99-9.08,1.22-3.19,2.44-6.47,3.75-9.65,2.66-6.38,5.29-12.77,8.22-19.02,5.72-12.56,11.88-24.91,18.75-36.93-4.22,13.18-8.98,26.1-13.73,38.99l-7.09,19.32-3.53,9.66c-1.19,3.29-2.53,6.64-4.17,9.87-3.35,6.42-7.8,12.41-13.37,17.18-5.86,4.83-12.23,7.82-18.61,10.64-12.76,5.6-26.12,9.75-39.77,12.09Z"/>
          <path class="cls-4" d="m1534.3,2207.98c.9-5.08,2.42-9.86,4.15-14.54,1.73-4.67,3.68-9.24,5.88-13.69,2.17-4.45,4.61-8.78,7.25-13.01,2.65-4.22,5.52-8.34,9-12.15-.89,5.09-2.41,9.87-4.14,14.54-1.74,4.67-3.68,9.24-5.89,13.68-2.19,4.45-4.62,8.78-7.26,13-2.65,4.22-5.51,8.34-8.99,12.15Z"/>
          <path class="cls-4" d="m1478.9,2077.64c-.36-3.43-.03-6.63.46-9.78.53-3.13,1.31-6.17,2.32-9.14,1.01-2.97,2.24-5.86,3.74-8.66,1.53-2.79,3.23-5.52,5.62-8.01.37,3.44.04,6.63-.45,9.78-.53,3.13-1.31,6.17-2.33,9.14-1.01,2.96-2.25,5.85-3.74,8.65-1.54,2.79-3.23,5.52-5.61,8.02Z"/>
          <path class="cls-4" d="m1434.42,1479.74c3.86,4.24,8.19,8.07,13.12,10.29,4.88,2.24,10.27,2.65,14.68.5,4.49-2.25,8.61-5.9,12.24-10.01,3.68-4.07,7.16-8.47,10.28-13.08,6.44-9.1,11.73-19.01,16.33-29.28,4.61-10.29,8.25-21.04,11.8-32.01-.7,11.5-2.95,22.98-6.75,33.99-3.72,11.04-9,21.61-15.68,31.27-3.42,4.78-7.06,9.37-11.23,13.63-4.22,4.14-8.89,8.25-14.98,10.5-3.03,1.07-6.53,1.53-9.66.88-3.16-.54-6.11-1.77-8.67-3.43-5.08-3.41-8.84-8.13-11.47-13.25Z"/>
          <path class="cls-4" d="m618.16,1446.85c-3.32,3.62-7.54,6.69-12.71,8.07-2.59.61-5.38.76-8.12.18-2.77-.55-5.34-1.92-7.51-3.55-4.4-3.31-7.32-7.63-10.13-11.79-2.69-4.25-4.99-8.64-7.27-13.01-4.37-8.84-8.25-17.92-11.35-27.27-3.15-9.33-5.62-18.89-7.06-28.64,4.21,8.92,8.07,17.84,12.1,26.65,4.07,8.79,8.13,17.55,12.52,26.15,2.11,4.34,4.33,8.61,6.67,12.72,2.31,4.11,4.89,8.03,7.97,11.04,3.06,2.96,7.11,4.54,11.63,4.18,4.5-.28,9.01-2.28,13.26-4.72Z"/>
          <path class="cls-4" d="m824.65,1258.15c1.7,8.01,4.11,15.77,7.36,23.11,3.29,7.31,7.3,14.25,12.22,20.44,4.98,6.12,10.52,11.78,16.91,16.36,6.3,4.67,13.24,8.46,20.57,11.27l4.11,1.58-2.51,3.61c-4.3,6.18-7.46,13.17-9.32,20.47-1.98,7.29-2.28,14.96-1.42,22.5,1.8,15.14,9.68,29.47,20.82,40.8-6.6-4.52-12.21-10.51-16.81-17.24-4.46-6.81-7.87-14.51-9.33-22.71-1.6-8.16-1.45-16.69.37-24.86,1.82-8.18,5.31-15.92,9.97-22.87l1.6,5.19c-7.87-3.11-15.34-7.29-22.04-12.48-6.63-5.26-12.53-11.45-17.31-18.39-4.86-6.89-8.4-14.58-11.04-22.44-2.46-7.94-4.01-16.12-4.16-24.32Z"/>
          <path class="cls-4" d="m868.32,1439.84c-3.05,6.57-5.15,13.47-6.35,20.45-1.15,6.99-1.32,14.07-.43,20.99.83,6.93,2.87,13.63,5.69,19.93,2.84,6.3,6.71,12.1,11.19,17.31l.81.94v1.28c.07,19.73,2.63,39.42,7.7,58.54,2.47,9.58,5.54,19.02,9.15,28.3,3.57,9.3,7.73,18.39,12.13,27.43-5.92-8.14-11.1-16.84-15.6-25.9-4.56-9.04-8.27-18.51-11.37-28.2-2.99-9.71-5.36-19.65-6.78-29.75-1.51-10.08-2.12-20.29-1.97-30.47l.82,2.22c-4.94-5.75-8.82-12.33-11.68-19.3-2.9-6.96-4.48-14.43-4.96-21.88-.83-14.97,3.43-29.93,11.64-41.88Z"/>
          <path class="cls-4" d="m1231.96,1258.15c-.15,8.2-1.7,16.39-4.16,24.32-2.64,7.87-6.19,15.56-11.04,22.44-4.77,6.94-10.67,13.13-17.31,18.39-6.7,5.19-14.17,9.37-22.04,12.48l1.6-5.19c4.66,6.95,8.15,14.69,9.97,22.87,1.82,8.17,1.97,16.7.37,24.86-1.46,8.2-4.87,15.9-9.33,22.71-4.6,6.73-10.21,12.72-16.81,17.24,11.15-11.33,19.02-25.66,20.82-40.8.86-7.54.56-15.2-1.42-22.5-1.86-7.3-5.03-14.29-9.32-20.47l-2.51-3.61,4.11-1.58c7.32-2.81,14.27-6.6,20.57-11.27,6.39-4.57,11.92-10.24,16.91-16.36,4.92-6.19,8.93-13.13,12.22-20.44,3.26-7.34,5.67-15.1,7.36-23.11Z"/>
          <path class="cls-4" d="m1188.29,1439.84c8.21,11.96,12.47,26.92,11.64,41.88-.48,7.46-2.06,14.92-4.96,21.88-2.86,6.97-6.74,13.55-11.68,19.3l.82-2.22c.15,10.18-.46,20.39-1.97,30.47-1.41,10.1-3.79,20.03-6.78,29.75-3.09,9.68-6.81,19.16-11.37,28.2-4.5,9.06-9.68,17.76-15.6,25.9,4.41-9.05,8.56-18.14,12.13-27.43,3.61-9.27,6.68-18.72,9.15-28.3,5.07-19.12,7.63-38.81,7.7-58.54v-1.28s.82-.94.82-.94c4.48-5.21,8.35-11,11.19-17.31,2.82-6.3,4.86-13,5.69-19.93.89-6.91.72-13.99-.43-20.99-1.2-6.98-3.3-13.88-6.35-20.45Z"/>
          <path class="cls-4" d="m1039.77,1236.04c.27,7.54.17,14.91.15,22.25.02,7.35-.05,14.65.11,21.96.03,7.31.27,14.61.44,21.95.2,7.35.47,14.71.38,22.25-2.76-7.03-4.55-14.34-5.78-21.73-1.28-7.39-1.83-14.89-1.98-22.39-.03-7.5.35-15.01,1.45-22.43,1.05-7.42,2.67-14.77,5.24-21.86Z"/>
          <path class="cls-4" d="m1040.58,1337.4c-.17,6.48-.68,12.74-1.09,18.97-.42,6.23-.75,12.42-1.02,18.61-.25,6.19-.48,12.39-.6,18.63-.12,6.25-.16,12.52-.54,18.99-2.48-5.99-3.97-12.29-4.88-18.66-.91-6.37-1.23-12.83-.93-19.27.27-6.44,1.17-12.84,2.61-19.11,1.44-6.27,3.48-12.4,6.43-18.17Z"/>
          <path class="cls-4" d="m859.7,1674.91c-8.27-10.19-17.09-19.68-26.97-27.83-9.88-8.19-20.68-14.8-32.3-20.49-5.74-3-11.74-5.92-17.38-9.74-5.59-3.84-10.82-8.39-15.03-13.69-8.61-10.45-14.08-23.14-16.15-36.09,4.87,12.18,11.46,23.39,20.21,32.5,8.65,9.31,19.68,15.09,31.5,20.83,5.82,3.01,11.71,6.23,17.24,10.01,5.49,3.83,10.78,7.95,15.52,12.65,9.59,9.26,17.51,20.1,23.36,31.85Z"/>
          <path class="cls-4" d="m1173.09,1674.91c5.85-11.75,13.77-22.59,23.36-31.85,4.74-4.7,10.03-8.82,15.52-12.65,5.52-3.77,11.42-6.99,17.24-10.01,11.82-5.74,22.85-11.52,31.5-20.83,8.76-9.1,15.34-20.32,20.21-32.5-2.07,12.95-7.55,25.64-16.15,36.09-4.21,5.3-9.44,9.84-15.03,13.69-5.64,3.82-11.63,6.73-17.38,9.74-11.62,5.69-22.42,12.29-32.3,20.49-9.88,8.15-18.7,17.64-26.97,27.83Z"/>
          <path class="cls-4" d="m721.94,2645.09c7.54,11.68,18.82,20.22,31.56,23.47,12.6,3.29,25.54-1.37,37.22-7.89,5.94-3.21,11.97-6.76,18-10.08,6.09-3.28,12.11-6.67,18.26-9.83,12.24-6.45,24.59-12.68,37.3-18.32-11.26,8.14-22.86,15.69-34.58,23.01-11.75,7.37-23.49,14.38-35.67,21.32-6.23,3.3-12.87,6.31-20.06,7.91-7.16,1.52-14.97,1.51-22-.95-13.89-4.59-25.12-15.64-30.02-28.65Z"/>
          <path class="cls-4" d="m818.99,2466.37c8.88,10.22,18.24,19.76,28.25,28.53,5.04,4.35,10.14,8.61,15.42,12.79,2.63,2.1,5.23,4.29,7.83,6.59,2.57,2.36,5.27,4.69,7.39,8.5.99,1.96,1.68,4.58,1.1,7.19-.51,2.58-2.31,4.8-4.03,6.05-3.52,2.52-6.63,3.48-9.22,5.01-2.57,1.46-4.49,3.22-5.55,5.69-1.2,2.51-1.22,4.84-.63,8.18.6,3.31,1.01,7.22.38,10.81-.56,3.63-1.85,7.05-3.56,10.14-3.53,6.15-8.49,11.05-13.93,15.07,4.39-5.13,8.47-10.54,10.85-16.55,1.2-2.98,1.98-6.06,2.11-9.14.16-3.12-.29-5.99-1.16-9.24-.4-1.65-.86-3.52-.88-5.6,0-2.08.42-4.15,1.2-6.01.67-1.92,1.88-3.67,3.21-5.23,1.39-1.51,2.97-2.73,4.57-3.76,3.16-1.97,6.54-3.21,8.44-4.73,1.8-1.49,1.85-2.61.93-4.69-1.1-2.14-3.43-4.51-5.79-6.67-2.39-2.21-4.96-4.34-7.48-6.58-5.04-4.47-10.19-8.96-14.91-13.89-9.55-9.74-18.02-20.57-24.54-32.45Z"/>
          <path class="cls-4" d="m710.08,3579.97c.55-2.79,1.64-5.09,2.86-7.27,1.25-2.16,2.7-4.14,4.33-5.96,1.63-1.82,3.43-3.48,5.44-4.96,2.04-1.45,4.21-2.79,6.92-3.64-.54,2.79-1.63,5.09-2.85,7.28-1.25,2.16-2.7,4.14-4.33,5.95-1.63,1.82-3.44,3.48-5.45,4.96-2.04,1.45-4.21,2.79-6.91,3.64Z"/>
          <path class="cls-4" d="m656.17,3582.12c-1.89-5.64-1.09-12.29,1.88-17.86,1.41-2.81,3.49-5.34,5.71-7.49,2.08-1.98,4.23-3.89,6.39-5.79,4.33-3.78,8.86-7.33,13.54-10.71,4.68-3.38,9.52-6.57,14.81-9.23-3.39,4.85-7.23,9.17-11.23,13.31-4,4.13-8.16,8.09-12.5,11.83-2.18,1.86-4.37,3.71-6.63,5.48-2.13,1.58-3.84,3.46-5.51,5.49-3.2,4.12-5.41,9.14-6.44,14.96Z"/>
          <path class="cls-4" d="m627.32,3567.56c-1.45-4.15.08-9.37,3.58-12.77,2.9-2.93,5.97-5.65,9.19-8.19,3.22-2.54,6.58-4.89,10.12-7.02,3.56-2.1,7.23-4.06,11.35-5.45-2.32,3.67-5.08,6.77-7.95,9.74-2.9,2.93-5.96,5.64-9.18,8.17-3.21,2.53-6.58,4.87-10.11,7-2.96,1.66-5.45,4.46-6.99,8.52Z"/>
          <path class="cls-4" d="m1230.5,3604.73c-2.71-.85-4.87-2.19-6.91-3.64-2.01-1.48-3.81-3.14-5.45-4.96-1.63-1.82-3.08-3.79-4.33-5.95-1.22-2.19-2.31-4.49-2.85-7.28,2.71.85,4.88,2.19,6.92,3.64,2.01,1.48,3.82,3.14,5.44,4.96,1.63,1.82,3.08,3.8,4.33,5.96,1.22,2.19,2.31,4.49,2.86,7.27Z"/>
          <path class="cls-4" d="m1284.42,3606.89c-1.03-5.83-3.24-10.84-6.44-14.96-1.68-2.02-3.38-3.91-5.51-5.48-2.26-1.77-4.45-3.62-6.63-5.49-4.35-3.74-8.5-7.7-12.5-11.83-4-4.14-7.84-8.46-11.23-13.31,5.29,2.66,10.13,5.85,14.81,9.23,4.68,3.38,9.2,6.94,13.54,10.71,2.16,1.89,4.31,3.8,6.39,5.79,2.23,2.15,4.3,4.68,5.71,7.49,2.97,5.56,3.77,12.22,1.88,17.86Z"/>
          <path class="cls-4" d="m1313.26,3592.33c-1.54-4.06-4.03-6.86-6.99-8.52-3.53-2.13-6.89-4.48-10.11-7-3.22-2.53-6.28-5.24-9.18-8.17-2.87-2.96-5.64-6.06-7.95-9.74,4.12,1.39,7.79,3.35,11.35,5.45,3.54,2.14,6.9,4.48,10.12,7.02,3.22,2.54,6.29,5.26,9.19,8.19,3.5,3.39,5.03,8.62,3.58,12.77Z"/>
          <path class="cls-4" d="m865.63,2979.09c-.96,2.24-2.72,3.78-4.71,4.85-2.01,1.05-4.34,1.52-6.65,1.4-4.6-.26-9.21-2.99-10.49-7.66,2.42.08,4.27.3,6.02.4l4.87.32,4.92.25c1.78.12,3.65.16,6.05.43Z"/>
          <path class="cls-4" d="m1145.44,2812.5c1.48,20.78,2.26,41.6,2.29,62.42.14,20.82-.43,41.64-1.34,62.44-.56,10.4-1.14,20.79-1.88,31.17-.98,10.37-1.94,20.73-3.1,31.08-2.16,20.71-4.77,41.38-7.82,61.96.36-20.86,1.16-41.64,2.42-62.36.51-10.37,1.36-20.72,1.94-31.08l1.51-31.1,2.88-62.22c.89-20.75,1.91-41.51,3.11-62.31Z"/>
          <path class="cls-4" d="m1136.81,2641.05c9.14,8.88,18.97,16.91,29.87,22.58,10.86,5.57,23.03,8.39,34.43,5.51,5.71-1.33,11.2-3.97,16.59-7,5.4-2.96,10.85-6.43,16.17-9.64,10.58-6.68,20.55-14.37,30.18-22.77-7.49,10.36-16.76,19.49-27.1,27.23-5.2,3.91-10.4,7.36-15.94,10.86-5.56,3.35-11.6,6.38-18.26,8.06-6.67,1.63-13.75,1.5-20.35.1-6.6-1.5-12.83-4.14-18.4-7.66-11.16-7-20.26-16.55-27.2-27.27Z"/>
          <path class="cls-4" d="m1151.91,2471.76c-8.99,8.68-18.16,17.17-25.42,26.79-3.48,4.8-6.73,10.02-7.26,15.14-.29,2.53.13,4.82,1.36,6.9,1.19,2.12,3.4,4.17,5.54,6.97,4.44,5.73,5.78,13.95,3.37,20.75-1.15,3.4-2.88,6.19-4.25,8.84-1.38,2.64-2.43,5.13-2.88,7.78-.86,5.33,1.11,11.01,4.42,15.97,3.26,5.05,7.66,9.46,12.19,13.78-5.45-3.09-10.58-6.86-14.91-11.71-2.12-2.46-3.98-5.23-5.34-8.36-1.34-3.14-1.98-6.69-1.75-10.23.23-3.56,1.42-6.98,2.8-9.9,1.36-2.94,2.75-5.58,3.45-8.14.76-2.55.94-5.07.45-7.67-.44-2.59-1.45-4.79-3.12-6.95-1.55-2.21-3.98-4.44-5.87-7.78-1.89-3.31-2.62-7.49-1.96-11.11,1.32-7.32,5.34-12.85,9.56-17.68,8.6-9.62,18.88-16.98,29.62-23.4Z"/>
        </g>
        <path class="cls-6" d="m986.93,2019.96c-9.7-9.22-19.45-18.15-29.65-26.51-10.21-8.33-20.77-16.19-31.78-23.36-10.93-7.29-22.36-13.81-34.04-19.92-11.72-6.06-23.78-11.48-36.08-16.74,13.15,2.49,26.01,6.59,38.38,11.83,12.39,5.22,24.29,11.65,35.56,19.02,11.21,7.46,21.87,15.78,31.54,25.12,9.71,9.29,18.56,19.47,26.07,30.55Z"/>
        <path class="cls-6" d="m1047.93,2022.44c5.41-11.07,12.31-21.43,20.2-30.98,7.85-9.6,16.84-18.26,26.48-26.08,9.7-7.76,20.14-14.59,31.15-20.27,11.02-5.65,22.55-10.29,34.5-13.3-10.91,5.71-21.54,11.62-31.82,18.01-10.21,6.5-20.15,13.35-29.48,20.98-9.44,7.49-18.33,15.65-26.81,24.28-8.46,8.66-16.4,17.86-24.22,27.37Z"/>
        <path class="cls-6" d="m755.91,1705.37c39.62,12.64,80.01,22.49,120.84,29.47,40.84,6.9,82.16,10.81,123.53,11.52,41.37.72,82.8-1.62,123.87-7.09,41.06-5.48,81.77-13.87,121.84-25-39.26,13.71-79.85,23.95-121.06,30.37-41.2,6.62-83.02,9.28-124.77,8.67-41.74-.85-83.44-5.09-124.38-13.14-40.96-7.94-81.15-19.61-119.87-34.79Z"/>
      </g>
      <rect class="cls-5" width="2061.08" height="3801.64"/>
    </g>
  </g>
</svg>