<?xml version="1.0" encoding="UTF-8"?>
<svg id="Layer_2" data-name="Layer 2" xmlns="http://www.w3.org/2000/svg" xmlns:xlink="http://www.w3.org/1999/xlink" viewBox="0 0 2061.08 3801.64">
  <defs>
    <style>
      .cls-1 {
        clip-path: url(#clippath);
      }

      .cls-2 {
        fill: none;
      }

      .cls-3 {
        fill: #2d1440;
      }

      .cls-4 {
        fill: #1a1a1a;
      }

      .cls-5 {
        fill: url(#linear-gradient);
      }
    </style>
    <clipPath id="clippath">
      <rect class="cls-2" width="2061.08" height="3801.64"/>
    </clipPath>
    <linearGradient id="linear-gradient" x1="299.53" y1="2895.71" x2="1913.5" y2="2895.71" gradientUnits="userSpaceOnUse">
      <stop offset="0" stop-color="#1a1a1a"/>
      <stop offset=".55" stop-color="#080808"/>
      <stop offset="1" stop-color="#000"/>
    </linearGradient>
  </defs>
  <g id="Layer_1-2" data-name="Layer 1">
    <g class="cls-1">
      <g>
        <path class="cls-3" d="m-773.87,8144.54c-46-102.94-98.97-169.36-139.67-211.45-34.1-35.26-79.17-73.69-98.93-141.61-11.3-38.85-10.34-73.65-7.76-96.99-23.62-38.61-46.38-79.32-67.9-122.21-178.61-356.01-198.54-715.65-177.17-986.75-19.19-17.47-50.8-51.86-63.37-103.46-20.07-82.41,16.84-174.15,93.11-236.66,18.51-190.43,32.42-354.79,42.68-484.97,38.15-484.25,90.74-967.25,134.5-1451.02,3.38-37.37,20.69-228.92,108.63-455.22,68.73-176.86,135.28-258.33,181.05-305.21,91.68-93.89,186.41-137.53,235.37-160.36,207.31-96.67,484.2-235.31,832.85-411.25,537.99-42.25,1075.98-84.49,1613.97-126.74,230.81,55.6,464.5,114.17,700.94,175.88,149.89,39.12,298.19,78.8,444.88,118.98,22.87,8.85,49.82,21.88,77.59,41.38,63.76,44.77,98.74,100.34,116.39,134.5,123.11,301.58,242.84,636.58,349.18,1003.56,173.46,598.66,273.29,1151.36,329.78,1633.37,25.26,50.36,60.12,133.01,73.71,239.25,15.54,121.46-4.2,215.19-12.93,258.65-99.78,496.61-16.99,676.25-188.81,1030.72-26.19,54.02-70.42,137.15-139.67,232.78,2.79,44.99,1.05,107.74-19.4,178.47-41,141.82-131.94,228.17-174.59,263.82-84.49,147.86-168.99,295.72-253.48,443.58-173.29-121.57-346.59-243.13-519.89-364.7,41.38-86.22,82.77-172.43,124.15-258.65-12.8-21.53-27.52-53.99-26.64-93.16,1.08-48.19,25.1-77.06,49.76-128.1,16.74-34.65,36.8-85.78,48.26-154.52,1.3-69.81,11.29-174.04,54.06-292.18,41.7-115.17,98.81-200.02,141.61-254.12,14.52-109.47,17.46-198.7,17.46-259.94,0-117.55-10.82-179.46,2.59-287.1,9.46-75.95,26.26-136.78,38.8-175.88-27.57-27.31-64.44-69.9-93.11-129.32-51.19-106.11-37.41-185.43-46.56-325.9-6.01-92.32-24.98-180.84-62.92-357.88-19.28-89.97-48.46-212.02-92.27-355.99-.97,121.89-3.35,328.05-10.34,584.55-16.88,619.32-41.72,839.17-20.69,1215.65,7.98,142.85,25.7,364.49,71.38,638.12-3.48,65.63-21.51,108.87-37.76,136.53-11.82,20.13-28.94,42.65-44.58,83.89-8.04,21.21-14.62,38.97-15.68,62.2-1.74,38.23,12.42,70.6,26.64,93.16-41.38,86.22-82.77,172.43-124.15,258.65-183.53,47.74-367.07,95.48-550.6,143.23-293.85,68-690.05,129.75-1159.07,119.3-468.86-10.45-861.8-89.73-1152.28-170.71-20.26-166.83-40.52-333.66-60.78-500.49,4.1-4.22,11.32-12.91,14.23-25.87,5.88-26.23-11.08-46.96-13.38-49.68-30.67-70.73-61.34-141.45-92.02-212.18,50.66-32.61,108.05-82.11,115.1-148.75,8.35-78.9-60.23-121.83-100.87-232.78-31.09-84.89-26-155.44-17.46-258,52.39-629.19,62.08-690.59,62.08-690.59,26.12-165.52,65.92-420.82,120.27-782.41-14.85,103.31-44.28,230.42-103.46,367.28-25.33,58.59-52.74,111.16-80.18,157.78-18.14,177.83-17.21,294.36-10.35,375.04,2.73,32.05,9.65,96.9-25.86,160.36-21.61,38.62-51.36,63.19-72.42,77.6,7.61,20,18.34,50.33,28.45,87.94,47.52,176.8,28.91,320.2,23.28,385.39-9.71,112.42-5.47,277.99,61.43,501.16,35.13,87.29,70.27,174.57,105.4,261.86-21.99,35.13-43.97,70.27-65.96,105.4-165.54,77.6-331.07,155.19-496.61,232.78Z"/>
        <path d="m307.46,1476.98c-9.3-92.96-13.72-198.53-8.13-314.27,3.07-63.43,8.81-123.16,16.26-178.81-20.32,24.83-40.64,49.67-60.96,74.5,9.55-39.71,24.08-86.95,46.74-138.17,22.76-51.45,48.06-94.14,71.12-128.01-30.48,21-60.96,41.99-91.43,62.99-.78-18.64-.86-76.79,38.61-134.1,38.81-56.37,91.94-77.19,109.72-83.31-11.94-.43-47.71-3.31-75.18-30.48-34.44-34.06-41.73-92.34-16.26-144.26,14.36,33.85,30.07,40.88,38.61,42.67,37.66,7.9,90.65-53.64,132.07-156.46,1.44,13.25,5.17,30.02,16.26,34.54,28.49,11.63,79.14-68.54,117.85-105.66,54.93-52.67,164.57-94.16,406.38-36.57-11.51-14.9-23.03-29.8-34.54-44.7,25.7,4.97,52.15,11.01,79.24,18.29,136.82,36.77,249.49,94.48,337.97,152.39-17.16-25.74-34.31-51.47-51.47-77.21,20.4,8.55,41.19,18.92,61.97,31.49,146.32,88.54,209.44,236.3,236.04,317.99,7.92-9.81,26.3-29.76,56.89-40.64,46.19-16.42,86.46-.18,96.18,4.06-13.32,3.36-46.49,13.7-69.09,44.7-19.47,26.7-21.11,55.03-21.68,67.73-3.94,87.93,80.69,136.93,116.49,232.99,32.08,86.06-9.06,118.63-27.09,338.65-7.59,92.6-6.98,168.41-5.42,216.73-120.07,117.65-378.61,333.85-753.15,383.35-161.75,21.38-430.25,56.86-613.63-117.85-101.63-96.83-136.68-219.69-150.36-292.59Z"/>
        <path class="cls-5" d="m524.56,2214.36c.86,193.12,1.72,386.25,2.59,579.37-75.87,61.21-151.74,122.43-227.61,183.64,63.29,90.78,149.57,196.32,265.12,300.03,209.3,187.88,423.61,288.08,571.16,342.13,114.08-61.15,257.53-152.74,402.65-287.81,185.53-172.7,303.18-350.76,375.04-481.09-42.62-10.75-94.5-28.09-150.02-56.9-91.25-47.37-154.76-106.24-194.53-149.92-4.79-157.31-9.59-314.62-14.38-471.93-343.34,14.16-686.68,28.32-1030.02,42.47Z"/>
        <path class="cls-4" d="m1710.19,1566.38c5.73-72.62,39.78-129.71,86.18-143.25,6.97-2.04,43.94-12.82,71.81,12.19,31.34,28.12,23.37,76.53,22.95,78.86-12.44,99.35-24.87,198.7-37.31,298.05-.51,9.58-6.97,104.52-80.43,150.36-32.32,20.17-64.43,22.61-82.35,22.35-30.21,120.61-44.38,196.77-51.71,245.86-1.53,10.29-4.25,29.35-13.4,52.83-21.23,54.49-59.28,87.05-91.92,111.75-109.52,82.91-271.33,163.14-294.9,174.74-20.03,10.23-45.07,20.76-74.68,28.45-49.09,12.75-91.98,12.84-122.56,10.16-28.21,2.34-71.95,2.9-122.56-10.16-34.72-8.96-59.3-20.88-74.68-28.45-23.57-11.6-185.38-91.83-294.9-174.74-32.64-24.7-70.69-57.26-91.92-111.75-9.15-23.47-11.87-42.54-13.4-52.83-7.32-49.09-21.5-125.25-51.71-245.86-17.92.26-50.02-2.18-82.35-22.35-73.46-45.84-79.92-140.78-80.43-150.36-12.44-99.35-24.87-198.7-37.31-298.05-.42-2.33-8.39-50.74,22.95-78.86,14.01-12.57,41.52-19.59,66.27-13.67,5.51,1.32,10,3.1,13.08,4.5,15.56,7.08,28.48,19.65,41.4,42.23,15.1,26.4,35.8,76.31,54.45,142.7,5.46-41.87,13.19-105.2,20.62-183.03,8.3-87.01,8.44-110.6,15.96-148.16,10.36-51.77,33.56-124.24,91.44-207.25-11.49-13.83-32.64-43.27-38.6-85.34-8.9-62.76,22.08-110.68,35.19-130.97,32.33-50.01,75.43-74.44,91.43-83.27,131.49-72.53,349.36-39.13,437.16-29.01,122.64,14.13,294.94,17.82,511.08-29.02-4.47,14.77-9.59,38.05-6.77,65.7,10.03,98.19,105.65,107.3,132.75,197.77,26.61,88.84-50.71,129.74-19.84,252.17,10.05,39.83,20.35,43.92,36.1,89.19,31.51,90.58,25.21,174.74,14.32,233.11l-1.4,13.43Z"/>
      </g>
    </g>
  </g>
</svg>