<?xml version="1.0" encoding="UTF-8"?>
<svg id="Layer_2" data-name="Layer 2" xmlns="http://www.w3.org/2000/svg" viewBox="0 0 317.47 317.47">
  <defs>
    <style>
      .cls-1 {
        fill: #fff;
      }

      .cls-2 {
        fill: #febf2f;
      }

      .cls-3 {
        fill: #be1e2d;
      }

      .cls-4 {
        fill: #ecb229;
      }

      .cls-5 {
        fill: #dba627;
      }

      .cls-6 {
        fill: #fee380;
      }
    </style>
  </defs>
  <g id="Layer_1-2" data-name="Layer 1">
    <g>
      <rect class="cls-1" width="317.47" height="317.47"/>
      <g>
        <path class="cls-3" d="m262.75,172.94c-.07-.16-.14-.33-.21-.51-.99-13.23-5.46-23.78-13.4-31.65,0,0-3.28-3.26-7.41-5.92-10.71-6.88-31.19-10.79-53.15-7.58-7.2,1.05-17.79,3.34-29.85,8.87-12.06-5.53-22.65-7.82-29.85-8.87-9.76-1.43-33.88-4.96-53.15,7.58-4.12,2.68-6.78,5.29-7.41,5.92-7.94,7.87-12.4,18.42-13.4,31.65-.07.18-.15.35-.21.51,0,1.48.01,2.97.02,4.45,0,.3-.02.58-.02.88v69.83h38.1v-64.91c0-7.71,2.1-13.67,6.31-17.89,4.16-4.16,9.87-6.26,17.12-6.31,7.26.05,12.97,2.15,17.13,6.31,4.2,4.21,6.31,10.18,6.31,17.89v64.91h38.1v-64.91c0-7.71,2.1-13.67,6.31-17.89,4.16-4.16,9.87-6.26,17.13-6.31,7.26.05,12.97,2.15,17.12,6.31,4.2,4.21,6.31,10.18,6.31,17.89v64.91h38.1v-69.83c0-.3-.01-.59-.02-.88,0-1.48.01-2.97.02-4.45Z"/>
        <g>
          <path class="cls-4" d="m193.28,99.64h-65.7c-2.09-3.84-4.45-9.12-6.01-15.71-2.06-8.74-1.86-16.27-1.32-21.34,1,.24,2,.48,3,.72,2.6,8,9.22,13.36,16.18,13.43,3.51.03,8.29-1.27,11.63-5.27,3.78-4.54,3.45-9.81,3.36-10.91,1.8.25,3.9.43,6.23.41,2.04-.02,3.9-.18,5.52-.41-.21,9.08,7.13,16.32,15.35,16.18,7.23-.12,13.75-5.93,14.75-13.79,1.4-.88,2.8-1.76,4.2-2.64.83,6.25,1.23,15.95-2.04,26.97-1.44,4.87-3.31,8.99-5.14,12.35Z"/>
          <path class="cls-2" d="m193.28,99.64v8.39c0,1.52-1.23,2.76-2.76,2.76h-60.18c-1.52,0-2.76-1.23-2.76-2.76v-8.39h65.7Z"/>
          <path class="cls-5" d="m193.28,99.64v8.39c0,1.52-1.23,2.76-2.76,2.76h-30.06c-.01-.92-.02-1.84-.03-2.76v-8.39h32.85Z"/>
          <path class="cls-6" d="m160.43,60.97v38.68c-10.95,0-21.9,0-32.85,0-2.11-3.8-4.53-9.09-6.11-15.71-2.1-8.77-1.88-16.31-1.32-21.34,1,.24,1.99.48,3,.72,2.6,8,9.22,13.36,16.18,13.43,3.51.03,8.29-1.27,11.63-5.28,3.78-4.54,3.45-9.81,3.36-10.91,1.77.25,3.82.42,6.11.41Z"/>
          <circle class="cls-2" cx="122.43" cy="63.35" r="9.35"/>
          <circle class="cls-2" cx="160.43" cy="56.9" r="9.35"/>
          <path class="cls-4" d="m169.78,56.9c0,5.16-4.19,9.35-9.35,9.35v-18.7c5.16,0,9.35,4.19,9.35,9.35Z"/>
          <circle class="cls-5" cx="200" cy="63.35" r="9.35"/>
        </g>
      </g>
    </g>
  </g>
</svg>