<?xml version="1.0" encoding="UTF-8"?>
<svg id="Layer_2" data-name="Layer 2" xmlns="http://www.w3.org/2000/svg" viewBox="0 0 317.47 317.47">
  <defs>
    <style>
      .cls-1 {
        fill: #febf2f;
      }

      .cls-2 {
        fill: #be1e2d;
      }

      .cls-3 {
        fill: #ecb229;
      }

      .cls-4 {
        fill: #dba627;
      }

      .cls-5 {
        fill: none;
      }

      .cls-6 {
        fill: #fee380;
      }
    </style>
  </defs>
  <g id="Layer_1-2" data-name="Layer 1">
    <g>
      <rect class="cls-5" width="317.47" height="317.47"/>
      <g>
        <path class="cls-2" d="m277.15,181c-.07-.18-.16-.37-.24-.58-1.13-15.06-6.21-27.07-15.25-36.03,0,0-3.73-3.72-8.44-6.74-12.19-7.83-35.5-12.29-60.51-8.63-8.2,1.2-20.25,3.81-33.98,10.1-13.73-6.29-25.78-8.9-33.98-10.1-11.12-1.63-38.57-5.64-60.51,8.63-4.69,3.05-7.72,6.02-8.44,6.74-9.04,8.96-14.12,20.97-15.25,36.03-.08.2-.17.4-.24.58,0,1.69.01,3.38.02,5.07,0,.34-.02.66-.02,1v79.5h43.38v-73.89c0-8.78,2.39-15.57,7.18-20.36,4.73-4.74,11.23-7.13,19.5-7.18,8.26.05,14.76,2.45,19.5,7.18,4.79,4.8,7.18,11.58,7.18,20.36v73.89h43.38v-73.89c0-8.78,2.39-15.57,7.18-20.36,4.73-4.74,11.23-7.13,19.5-7.18,8.26.05,14.76,2.45,19.5,7.18,4.79,4.8,7.18,11.58,7.18,20.36v73.89h43.38v-79.5c0-.34-.01-.67-.02-1,0-1.69.01-3.38.02-5.07Z"/>
        <g>
          <path class="cls-3" d="m198.07,97.56h-74.79c-2.38-4.37-5.07-10.39-6.84-17.88-2.35-9.95-2.12-18.52-1.5-24.29,1.14.27,2.27.55,3.41.82,2.96,9.11,10.5,15.21,18.43,15.29,4,.04,9.43-1.44,13.24-6.01,4.31-5.16,3.93-11.16,3.82-12.42,2.05.29,4.44.48,7.09.46,2.33-.02,4.44-.2,6.29-.46-.24,10.33,8.12,18.58,17.47,18.43,8.23-.13,15.66-6.75,16.79-15.7,1.59-1,3.18-2,4.78-3,.94,7.11,1.4,18.16-2.32,30.71-1.64,5.54-3.77,10.24-5.85,14.06Z"/>
          <path class="cls-1" d="m198.07,97.56v9.55c0,1.74-1.4,3.14-3.14,3.14h-68.52c-1.73,0-3.14-1.4-3.14-3.14v-9.55h74.79Z"/>
          <path class="cls-4" d="m198.07,97.56v9.55c0,1.74-1.4,3.14-3.14,3.14h-34.22c-.01-1.05-.02-2.09-.03-3.14v-9.55h37.4Z"/>
          <path class="cls-6" d="m160.67,53.53v44.03c-12.47,0-24.93,0-37.4,0-2.4-4.33-5.16-10.35-6.96-17.88-2.39-9.98-2.13-18.57-1.5-24.29,1.14.27,2.27.54,3.41.82,2.96,9.11,10.5,15.21,18.42,15.29,4,.04,9.43-1.45,13.24-6.01,4.31-5.17,3.93-11.17,3.82-12.42,2.02.28,4.35.48,6.96.46Z"/>
          <circle class="cls-1" cx="117.4" cy="56.24" r="10.65"/>
          <circle class="cls-1" cx="160.67" cy="48.89" r="10.65"/>
          <path class="cls-3" d="m171.31,48.89c0,5.88-4.77,10.65-10.65,10.65v-21.29c5.88,0,10.65,4.77,10.65,10.65Z"/>
          <circle class="cls-4" cx="205.71" cy="56.24" r="10.65"/>
        </g>
      </g>
    </g>
  </g>
</svg>