<?xml version="1.0" encoding="UTF-8"?>
<svg id="Layer_2" data-name="Layer 2" xmlns="http://www.w3.org/2000/svg" viewBox="0 0 127.95 122.42">
  <defs>
    <style>
      .cls-1 {
        fill: #febf2f;
      }

      .cls-2 {
        fill: #ecb229;
      }

      .cls-3 {
        fill: #dba627;
      }

      .cls-4 {
        fill: #be1e2d;
        stroke: #bd202e;
        stroke-miterlimit: 10;
        stroke-width: 2px;
      }

      .cls-5 {
        fill: #fee380;
      }
    </style>
  </defs>
  <g id="Layer_1-2" data-name="Layer 1">
    <g>
      <path class="cls-4" d="m126.95,75.91c-.04-.09-.08-.2-.13-.31-.6-8.01-3.3-14.4-8.11-19.16,0,0-1.99-1.98-4.49-3.58-6.48-4.17-18.88-6.53-32.18-4.59-4.36.64-10.77,2.02-18.07,5.37-7.3-3.35-13.71-4.73-18.07-5.37-5.91-.86-20.51-3-32.18,4.59-2.5,1.62-4.1,3.2-4.49,3.58-4.81,4.77-7.51,11.15-8.11,19.16-.05.11-.09.21-.13.31,0,.9,0,1.8,0,2.69,0,.18,0,.35,0,.53v42.28h23.07v-39.3c0-4.67,1.27-8.28,3.82-10.83,2.52-2.52,5.97-3.79,10.37-3.82,4.39.03,7.85,1.3,10.37,3.82,2.55,2.55,3.82,6.16,3.82,10.83v39.3h23.07v-39.3c0-4.67,1.27-8.28,3.82-10.83,2.52-2.52,5.97-3.79,10.37-3.82,4.39.03,7.85,1.3,10.37,3.82,2.55,2.55,3.82,6.16,3.82,10.83v39.3h23.07v-42.28c0-.18,0-.35,0-.53,0-.9,0-1.8,0-2.69Z"/>
      <g>
        <path class="cls-2" d="m84.89,31.54h-39.78c-1.26-2.32-2.7-5.52-3.64-9.51-1.25-5.29-1.13-9.85-.8-12.92.6.15,1.21.29,1.81.44,1.58,4.84,5.58,8.09,9.8,8.13,2.13.02,5.02-.77,7.04-3.19,2.29-2.75,2.09-5.94,2.03-6.61,1.09.15,2.36.26,3.77.25,1.24-.01,2.36-.11,3.34-.25-.13,5.49,4.32,9.88,9.29,9.8,4.38-.07,8.33-3.59,8.93-8.35.85-.53,1.69-1.06,2.54-1.6.5,3.78.75,9.66-1.23,16.33-.87,2.95-2,5.44-3.11,7.48Z"/>
        <path class="cls-1" d="m84.89,31.54v5.08c0,.92-.75,1.67-1.67,1.67h-36.44c-.92,0-1.67-.75-1.67-1.67v-5.08h39.78Z"/>
        <path class="cls-3" d="m84.89,31.54v5.08c0,.92-.75,1.67-1.67,1.67h-18.2c0-.56-.01-1.11-.02-1.67v-5.08h19.89Z"/>
        <path class="cls-5" d="m65.01,8.13v23.42c-6.63,0-13.26,0-19.89,0-1.28-2.3-2.74-5.5-3.7-9.51-1.27-5.31-1.14-9.87-.8-12.92.6.14,1.21.29,1.81.43,1.57,4.84,5.58,8.09,9.8,8.13,2.13.02,5.02-.77,7.04-3.19,2.29-2.75,2.09-5.94,2.03-6.61,1.07.15,2.32.26,3.7.25Z"/>
        <circle class="cls-1" cx="42" cy="9.57" r="5.66"/>
        <circle class="cls-1" cx="65.01" cy="5.66" r="5.66"/>
        <path class="cls-2" d="m70.67,5.66c0,3.13-2.53,5.66-5.66,5.66V0c3.13,0,5.66,2.53,5.66,5.66Z"/>
        <circle class="cls-3" cx="88.96" cy="9.57" r="5.66"/>
      </g>
    </g>
  </g>
</svg>