<?xml version="1.0" encoding="UTF-8"?>
<svg id="Layer_2" data-name="Layer 2" xmlns="http://www.w3.org/2000/svg" viewBox="0 0 384.74 415.01">
  <defs>
    <style>
      .cls-1 {
        fill: #febf2f;
      }

      .cls-2 {
        fill: #be1e2d;
      }

      .cls-3 {
        fill: #ecb229;
      }

      .cls-4 {
        fill: #dba627;
      }

      .cls-5 {
        fill: #fee380;
      }
    </style>
  </defs>
  <g id="Layer_1-2" data-name="Layer 1">
    <g>
      <path class="cls-2" d="m384.74,269.17c-.12-.3-.26-.64-.39-.98-1.84-25.66-10.09-46.14-24.77-61.41,0,0-6.07-6.33-13.71-11.48-19.81-13.35-57.67-20.94-98.29-14.7-13.32,2.04-32.89,6.49-55.2,17.21-22.31-10.72-41.88-15.17-55.2-17.21-18.06-2.77-62.65-9.62-98.29,14.7-7.62,5.2-12.54,10.26-13.71,11.48-14.68,15.27-22.94,35.75-24.77,61.41-.14.34-.27.68-.39.98,0,2.88.02,5.76.03,8.64,0,.57-.03,1.13-.03,1.71v135.49h70.47v-125.93c0-14.96,3.89-26.53,11.66-34.71,7.69-8.08,18.25-12.15,31.67-12.24,13.42.09,23.98,4.17,31.67,12.24,7.77,8.18,11.66,19.74,11.66,34.71v125.93h70.47v-125.93c0-14.96,3.89-26.53,11.66-34.71,7.69-8.08,18.25-12.15,31.67-12.24,13.42.09,23.98,4.17,31.67,12.24,7.78,8.18,11.66,19.74,11.66,34.71v125.93h70.47v-135.49c0-.58-.02-1.14-.03-1.71,0-2.88.02-5.76.03-8.64Z"/>
      <g>
        <path class="cls-3" d="m270.19,126.42H110.77c-5.07-9.31-10.81-22.14-14.58-38.11-5-21.21-4.52-39.47-3.2-51.78,2.42.58,4.85,1.16,7.27,1.75,6.31,19.41,22.38,32.42,39.27,32.58,8.52.08,20.11-3.08,28.22-12.8,9.18-11.01,8.37-23.79,8.15-26.47,4.37.61,9.46,1.03,15.11.99,4.96-.04,9.45-.44,13.4-.99-.52,22.02,17.31,39.59,37.24,39.27,17.55-.28,33.37-14.39,35.78-33.45,3.39-2.13,6.79-4.27,10.18-6.4,2.01,15.16,2.99,38.71-4.95,65.45-3.51,11.81-8.03,21.82-12.47,29.96Z"/>
        <path class="cls-1" d="m270.19,126.42v20.36c0,3.7-2.99,6.69-6.69,6.69H117.46c-3.69,0-6.69-2.99-6.69-6.69v-20.36h159.42Z"/>
        <path class="cls-4" d="m270.19,126.42v20.36c0,3.7-2.99,6.69-6.69,6.69h-72.95c-.02-2.23-.05-4.46-.07-6.69v-20.36h79.71Z"/>
        <path class="cls-5" d="m190.48,32.57v93.85c-26.57,0-53.14,0-79.71,0-5.12-9.23-10.99-22.06-14.83-38.11-5.09-21.27-4.55-39.57-3.2-51.78,2.42.58,4.84,1.16,7.27,1.74,6.31,19.41,22.38,32.42,39.27,32.59,8.52.08,20.11-3.08,28.22-12.8,9.18-11.01,8.37-23.8,8.15-26.48,4.3.6,9.28,1.03,14.83.99Z"/>
        <circle class="cls-1" cx="98.26" cy="38.34" r="22.69"/>
        <circle class="cls-1" cx="190.48" cy="22.69" r="22.69"/>
        <path class="cls-3" d="m213.17,22.69c0,12.53-10.16,22.69-22.69,22.69V0c12.53,0,22.69,10.16,22.69,22.69Z"/>
        <circle class="cls-4" cx="286.48" cy="38.34" r="22.69"/>
      </g>
    </g>
  </g>
</svg>