<?xml version="1.0" encoding="UTF-8"?>
<svg id="Layer_2" data-name="Layer 2" xmlns="http://www.w3.org/2000/svg" viewBox="0 0 529.66 122.42">
  <defs>
    <style>
      .cls-1 {
        fill: #febf2f;
      }

      .cls-2 {
        fill: #ecb229;
      }

      .cls-3 {
        fill: #dba627;
      }

      .cls-4 {
        fill: #f1f2f2;
      }

      .cls-5 {
        fill: #be1e2d;
        stroke: #bd202e;
        stroke-miterlimit: 10;
        stroke-width: 2px;
      }

      .cls-6 {
        fill: #fee380;
      }
    </style>
  </defs>
  <g id="Layer_1-2" data-name="Layer 1">
    <g>
      <path class="cls-5" d="m126.95,75.91c-.04-.09-.08-.2-.13-.31-.6-8.01-3.3-14.4-8.11-19.16,0,0-1.99-1.98-4.49-3.58-6.48-4.17-18.88-6.53-32.18-4.59-4.36.64-10.77,2.02-18.07,5.37-7.3-3.35-13.71-4.73-18.07-5.37-5.91-.86-20.51-3-32.18,4.59-2.5,1.62-4.1,3.2-4.49,3.58-4.81,4.77-7.51,11.15-8.11,19.16-.05.11-.09.21-.13.31,0,.9,0,1.8,0,2.69,0,.18,0,.35,0,.53v42.28h23.07v-39.3c0-4.67,1.27-8.28,3.82-10.83,2.52-2.52,5.97-3.79,10.37-3.82,4.39.03,7.85,1.3,10.37,3.82,2.55,2.55,3.82,6.16,3.82,10.83v39.3h23.07v-39.3c0-4.67,1.27-8.28,3.82-10.83,2.52-2.52,5.97-3.79,10.37-3.82,4.39.03,7.85,1.3,10.37,3.82,2.55,2.55,3.82,6.16,3.82,10.83v39.3h23.07v-42.28c0-.18,0-.35,0-.53,0-.9,0-1.8,0-2.69Z"/>
      <g>
        <path class="cls-2" d="m84.89,31.54h-39.78c-1.26-2.32-2.7-5.52-3.64-9.51-1.25-5.29-1.13-9.85-.8-12.92.6.15,1.21.29,1.81.44,1.58,4.84,5.58,8.09,9.8,8.13,2.13.02,5.02-.77,7.04-3.19,2.29-2.75,2.09-5.94,2.03-6.61,1.09.15,2.36.26,3.77.25,1.24-.01,2.36-.11,3.34-.25-.13,5.49,4.32,9.88,9.29,9.8,4.38-.07,8.33-3.59,8.93-8.35.85-.53,1.69-1.06,2.54-1.6.5,3.78.75,9.66-1.23,16.33-.87,2.95-2,5.44-3.11,7.48Z"/>
        <path class="cls-1" d="m84.89,31.54v5.08c0,.92-.75,1.67-1.67,1.67h-36.44c-.92,0-1.67-.75-1.67-1.67v-5.08h39.78Z"/>
        <path class="cls-3" d="m84.89,31.54v5.08c0,.92-.75,1.67-1.67,1.67h-18.2c0-.56-.01-1.11-.02-1.67v-5.08h19.89Z"/>
        <path class="cls-6" d="m65.01,8.13v23.42c-6.63,0-13.26,0-19.89,0-1.28-2.3-2.74-5.5-3.7-9.51-1.27-5.31-1.14-9.87-.8-12.92.6.14,1.21.29,1.81.43,1.57,4.84,5.58,8.09,9.8,8.13,2.13.02,5.02-.77,7.04-3.19,2.29-2.75,2.09-5.94,2.03-6.61,1.07.15,2.32.26,3.7.25Z"/>
        <circle class="cls-1" cx="42" cy="9.57" r="5.66"/>
        <circle class="cls-1" cx="65.01" cy="5.66" r="5.66"/>
        <path class="cls-2" d="m70.67,5.66c0,3.13-2.53,5.66-5.66,5.66V0c3.13,0,5.66,2.53,5.66,5.66Z"/>
        <circle class="cls-3" cx="88.96" cy="9.57" r="5.66"/>
      </g>
      <g>
        <path class="cls-4" d="m216.14,53.59v67.83h-23.82v-9.67c-2.02,3.06-4.8,5.54-8.34,7.44-3.55,1.9-7.62,2.84-12.21,2.84-7.9,0-14.13-2.6-18.68-7.8-4.56-5.2-6.83-12.27-6.83-21.22v-39.42h23.58v36.4c0,3.87,1.03,6.91,3.08,9.13,2.06,2.22,4.78,3.33,8.16,3.33s6.21-1.11,8.22-3.33c2.01-2.22,3.02-5.26,3.02-9.13v-36.4h23.82Z"/>
        <path class="cls-4" d="m278.04,121.42l-12.21-17.05-9.67,17.05h-26l22.61-35.19-23.58-32.65h26.6l12.21,17.05,9.79-17.05h26l-23.09,34.58,23.94,33.25h-26.6Z"/>
        <path class="cls-4" d="m331.06,118.04c-5.36-2.82-9.57-6.85-12.64-12.09-3.06-5.24-4.59-11.41-4.59-18.5s1.55-13.14,4.66-18.38c3.1-5.24,7.33-9.27,12.7-12.09,5.36-2.82,11.43-4.23,18.2-4.23s12.84,1.41,18.2,4.23c5.36,2.82,9.59,6.85,12.7,12.09,3.1,5.24,4.66,11.37,4.66,18.38s-1.55,13.16-4.66,18.44c-3.1,5.28-7.36,9.33-12.76,12.15-5.4,2.82-11.49,4.23-18.26,4.23s-12.84-1.41-18.2-4.23Zm26.48-20.01c2.22-2.46,3.33-5.99,3.33-10.58s-1.11-8.1-3.33-10.52c-2.22-2.42-4.94-3.63-8.16-3.63s-5.92,1.21-8.1,3.63c-2.18,2.42-3.26,5.92-3.26,10.52s1.05,8.22,3.14,10.64c2.1,2.42,4.79,3.63,8.1,3.63s6.06-1.23,8.28-3.69Z"/>
        <path class="cls-4" d="m470.05,53.59v67.83h-23.82v-9.67c-2.02,3.06-4.8,5.54-8.34,7.44-3.55,1.9-7.62,2.84-12.21,2.84-7.9,0-14.13-2.6-18.68-7.8-4.56-5.2-6.83-12.27-6.83-21.22v-39.42h23.58v36.4c0,3.87,1.03,6.91,3.08,9.13,2.06,2.22,4.78,3.33,8.16,3.33s6.21-1.11,8.22-3.33c2.01-2.22,3.02-5.26,3.02-9.13v-36.4h23.82Z"/>
        <path class="cls-4" d="m529.66,101.23v20.19h-10.28c-17.33,0-26-8.58-26-25.75v-22.37h-8.34v-19.71h8.34v-16.44h23.82v16.44h12.33v19.71h-12.33v22.73c0,1.86.42,3.19,1.27,3.99.85.81,2.28,1.21,4.29,1.21h6.89Z"/>
      </g>
    </g>
  </g>
</svg>