<?xml version="1.0" encoding="UTF-8"?>
<svg id="Layer_2" data-name="Layer 2" xmlns="http://www.w3.org/2000/svg" viewBox="0 0 617.16 133.71">
  <defs>
    <style>
      .cls-1 {
        fill: #febf2f;
      }

      .cls-2 {
        fill: #ecb229;
      }

      .cls-3 {
        fill: #dba627;
      }

      .cls-4 {
        fill: #f1f2f2;
      }

      .cls-5 {
        fill: #be1e2d;
        stroke: #bd202e;
        stroke-miterlimit: 10;
        stroke-width: 2px;
      }

      .cls-6 {
        fill: #fee380;
      }
    </style>
  </defs>
  <g id="Layer_1-2" data-name="Layer 1">
    <g>
      <g>
        <path class="cls-5" d="m126.95,86.48c-.04-.09-.08-.2-.13-.31-.6-8.01-3.3-14.4-8.11-19.16,0,0-1.99-1.98-4.49-3.58-6.48-4.17-18.88-6.53-32.18-4.59-4.36.64-10.77,2.02-18.07,5.37-7.3-3.35-13.71-4.73-18.07-5.37-5.91-.86-20.51-3-32.18,4.59-2.5,1.62-4.1,3.2-4.49,3.58-4.81,4.77-7.51,11.15-8.11,19.16-.05.11-.09.21-.13.31,0,.9,0,1.8,0,2.69,0,.18,0,.35,0,.53v42.28h23.07v-39.3c0-4.67,1.27-8.28,3.82-10.83,2.52-2.52,5.97-3.79,10.37-3.82,4.39.03,7.85,1.3,10.37,3.82,2.55,2.55,3.82,6.16,3.82,10.83v39.3h23.07v-39.3c0-4.67,1.27-8.28,3.82-10.83,2.52-2.52,5.97-3.79,10.37-3.82,4.39.03,7.85,1.3,10.37,3.82,2.55,2.55,3.82,6.16,3.82,10.83v39.3h23.07v-42.28c0-.18,0-.35,0-.53,0-.9,0-1.8,0-2.69Z"/>
        <path class="cls-4" d="m232.88,61.89v70.93h-24.91v-10.12c-2.11,3.2-5.02,5.8-8.72,7.78-3.71,1.98-7.97,2.97-12.77,2.97-8.26,0-14.77-2.72-19.54-8.16-4.76-5.44-7.14-12.83-7.14-22.19v-41.22h24.66v38.06c0,4.05,1.07,7.23,3.22,9.55,2.15,2.32,4.99,3.48,8.53,3.48s6.49-1.16,8.6-3.48c2.11-2.32,3.16-5.5,3.16-9.55v-38.06h24.91Z"/>
        <path class="cls-4" d="m312.88,132.83l-12.77-17.83-10.12,17.83h-27.19l23.64-36.79-24.66-34.14h27.82l12.77,17.83,10.24-17.83h27.19l-24.15,36.16,25.04,34.77h-27.82Z"/>
        <path class="cls-4" d="m377.48,129.29c-5.61-2.95-10.01-7.16-13.21-12.64-3.2-5.48-4.8-11.93-4.8-19.35s1.62-13.74,4.87-19.22c3.24-5.48,7.67-9.69,13.28-12.64,5.6-2.95,11.95-4.43,19.03-4.43s13.42,1.48,19.03,4.43c5.61,2.95,10.03,7.17,13.28,12.64,3.24,5.48,4.87,11.89,4.87,19.22s-1.62,13.76-4.87,19.28c-3.25,5.52-7.69,9.76-13.34,12.71-5.65,2.95-12.01,4.43-19.09,4.43s-13.42-1.47-19.03-4.43Zm27.69-20.93c2.32-2.57,3.48-6.26,3.48-11.06s-1.16-8.47-3.48-11c-2.32-2.53-5.16-3.79-8.53-3.79s-6.2,1.26-8.47,3.79c-2.28,2.53-3.41,6.2-3.41,11s1.09,8.6,3.29,11.13c2.19,2.53,5.01,3.79,8.47,3.79s6.34-1.28,8.66-3.86Z"/>
        <path class="cls-4" d="m538.25,61.89v70.93h-24.91v-10.12c-2.11,3.2-5.02,5.8-8.72,7.78-3.71,1.98-7.97,2.97-12.77,2.97-8.26,0-14.77-2.72-19.53-8.16-4.76-5.44-7.14-12.83-7.14-22.19v-41.22h24.66v38.06c0,4.05,1.07,7.23,3.22,9.55,2.15,2.32,4.99,3.48,8.53,3.48s6.49-1.16,8.6-3.48c2.11-2.32,3.16-5.5,3.16-9.55v-38.06h24.91Z"/>
        <path class="cls-4" d="m617.16,111.71v21.12h-10.75c-18.13,0-27.19-8.98-27.19-26.93v-23.39h-8.73v-20.61h8.73v-17.2h24.91v17.2h12.9v20.61h-12.9v23.77c0,1.94.44,3.33,1.33,4.17.89.84,2.38,1.26,4.49,1.26h7.21Z"/>
      </g>
      <g>
        <path class="cls-2" d="m89.87,39.62h-49.97c-1.59-2.92-3.39-6.94-4.57-11.95-1.57-6.65-1.42-12.37-1-16.23.76.18,1.52.36,2.28.55,1.98,6.08,7.01,10.16,12.31,10.21,2.67.03,6.3-.96,8.84-4.01,2.88-3.45,2.62-7.46,2.55-8.3,1.37.19,2.96.32,4.74.31,1.55-.01,2.96-.14,4.2-.31-.16,6.9,5.43,12.41,11.67,12.31,5.5-.09,10.46-4.51,11.22-10.49,1.06-.67,2.13-1.34,3.19-2.01.63,4.75.94,12.13-1.55,20.52-1.1,3.7-2.52,6.84-3.91,9.39Z"/>
        <path class="cls-1" d="m89.87,39.62v6.38c0,1.16-.94,2.1-2.1,2.1h-45.78c-1.16,0-2.1-.94-2.1-2.1v-6.38h49.97Z"/>
        <path class="cls-3" d="m89.87,39.62v6.38c0,1.16-.94,2.1-2.1,2.1h-22.86c0-.7-.02-1.4-.02-2.1v-6.38h24.98Z"/>
        <path class="cls-6" d="m64.88,10.21v29.42c-8.33,0-16.66,0-24.98,0-1.61-2.89-3.45-6.91-4.65-11.95-1.59-6.67-1.43-12.4-1-16.23.76.18,1.52.36,2.28.55,1.98,6.08,7.01,10.16,12.31,10.22,2.67.03,6.3-.97,8.85-4.01,2.88-3.45,2.62-7.46,2.55-8.3,1.35.19,2.91.32,4.65.31Z"/>
        <circle class="cls-1" cx="35.98" cy="12.02" r="7.11"/>
        <circle class="cls-1" cx="64.88" cy="7.11" r="7.11"/>
        <path class="cls-2" d="m72,7.11c0,3.93-3.18,7.11-7.11,7.11V0c3.93,0,7.11,3.18,7.11,7.11Z"/>
        <circle class="cls-3" cx="94.98" cy="12.02" r="7.11"/>
      </g>
    </g>
  </g>
</svg>