<?xml version="1.0" encoding="UTF-8"?>
<svg id="Layer_2" data-name="Layer 2" xmlns="http://www.w3.org/2000/svg" xmlns:xlink="http://www.w3.org/1999/xlink" viewBox="0 0 2070.7 3688.98">
  <defs>
    <style>
      .cls-1 {
        clip-path: url(#clippath);
      }

      .cls-2 {
        fill: none;
      }

      .cls-3 {
        fill: #1a1a1a;
      }

      .cls-4 {
        fill: url(#linear-gradient);
      }
    </style>
    <clipPath id="clippath">
      <rect class="cls-2" x="0" width="2070.7" height="3688.98"/>
    </clipPath>
    <linearGradient id="linear-gradient" x1="1048.65" y1="4197.15" x2="1048.65" y2="2019.2" gradientUnits="userSpaceOnUse">
      <stop offset="0" stop-color="#1a1a1a"/>
      <stop offset=".48" stop-color="#171717"/>
      <stop offset=".76" stop-color="#0f0f0f"/>
      <stop offset=".98" stop-color="#010101"/>
      <stop offset="1" stop-color="#000"/>
    </linearGradient>
  </defs>
  <g id="Layer_1-2" data-name="Layer 1">
    <g class="cls-1">
      <g>
        <path d="m126.53,2934.02c61.64-454.55,61.93-816.44,50.26-1065.61-8.18-174.63-25.54-364.56,5.03-643.39,40.12-365.95,124.84-538.87,196.03-648.41,0,0,129.88-199.85,329.23-296.56,113.35-54.99,183.52-44.7,213.62-37.7,38.05,8.85,66.99,25.23,85.45,37.7,19.24-12.36,51.04-30.03,92.99-40.21,250.63-60.84,492.55,235.49,505.16,251.32,76.27,95.84,112.12,189.96,143.25,289.02,111.69,355.33,122.51,645.99,145.77,1029.17,8.94,147.29,23.36,368.27,45.24,640.87,13.74,77.98,37.97,171.97,81.7,273.25,86.53,200.39,209.4,336.61,295.28,416.63-400.21,49.67-922.14,67.61-1515.48-37.7-248.47-44.1-473.64-103.46-673.55-168.39Z"/>
        <path class="cls-3" d="m1897.1,2822.18c33.77,15.84,70.87,31.61,111.21,46.49,46.73,17.24,91.02,30.77,131.94,41.47,58.98-3.51,150.03-2.45,255.72,26.39,68.02,18.56,171.73,46.86,268.92,135.71,96.64,88.34,135.51,189.64,149.54,227.45,28.69,77.34,38.34,138.64,54.03,262.63,10.44,82.47,14.62,151.17,17.59,228.7,7.85,204.56,3.17,362.17,2.51,384.52-9.41,319.13-14.12,478.69-11.31,619.51,6.01,301.71,39.45,540.39,64.09,716.27,18.4,131.31,38.83,277.15,79.17,471.23,35.23,169.51,57.13,238.58,75.4,380.75,22.76,177.13,19.67,310.43,18.85,369.44-2.63,187.89,5.33,504.33,52.78,1066.87,2.76,20.49,7.51,52.81,15.08,92.36,13.78,71.95,21.37,86.64,22.62,126.29,1.19,37.62-4.97,46.09-11.31,105.56-4.08,38.29-6.48,81.15-5.65,128.17,1.52,93.6,9.66,201.05,30.16,318.55,13.54,77.62,30.58,148.81,49.01,213,3.29,10.88,6.11,23.52,7.54,37.7,4.36,43.18-6.4,78.65-15.08,99.9-41.51,123.82-83.02,247.64-124.54,371.46-2.8,7.22-7.15,16.15-14.01,25.32-13.23,17.69-29.05,27.26-38.64,32.04-37.78,28.59-84.49,59.38-140.43,87.65-84.79,42.85-163.4,66.06-225.25,79.17-1.46.3-32.15,6.31-46.18-10.37-14.33-17.02-8.93-54.87,24.5-78.22,57.7-42.72,115.4-85.45,173.1-128.17-17.73.83-30.47-3.16-39.27-7.54-44.24-22.02-64.77-91.7-49.95-173.41,2.51-116.03,5.03-232.05,7.54-348.08-23.86-93.63-24.17-172.69-20.11-226.19,2.19-28.83,6.36-79.58,26.39-142,28.52-88.88,74.12-154.47,110.58-197.29-47.71-274.49-96.7-508.62-138.23-692.39-57.49-254.45-121.55-534.67-238.76-893.45-40.17-122.97-76.73-224.99-103.67-297.82-11.69-31.89-22.73-67.13-32.04-105.56-21.58-88.99-27.74-169.49-27.43-235.58-1.28-285.81-19.45-606.33-66.82-953.8-32.24-236.5-74.04-456.28-120.64-657.84-63.36-161.32-108.64-298.82-139.48-399.6-86.7-283.3-155.24-512.93-160.85-809.26-2.69-142.4,9.91-259.71,21.36-338.03Z"/>
        <path class="cls-3" d="m372.82,2793.28c-87.59,34.58-187.52,66.58-299.07,90.48-34.89,7.47-68.89,13.72-101.9,18.91-86.49-10.39-201.53-10.91-327.86,26.33-69.5,20.49-161.75,47.68-248.81,128.17-89.54,82.78-124.88,176.9-149.53,242.53-30.67,81.68-39.33,146.44-54.03,262.63-10.44,82.47-14.62,151.17-17.59,228.7-7.85,204.56-3.17,362.17-2.51,384.52,9.41,319.13,14.12,478.69,11.31,619.51-6.01,301.71-39.45,540.39-64.09,716.27-18.4,131.31-38.83,277.15-79.17,471.23-35.23,169.51-57.13,238.58-75.4,380.75-22.76,177.13-19.67,310.43-18.85,369.44,2.63,187.89-5.33,504.33-52.78,1066.87-2.76,20.49-7.51,52.81-15.08,92.36-13.78,71.95-21.37,86.64-22.62,126.29-1.19,37.62,4.97,46.09,11.31,105.56,4.08,38.29,6.48,81.15,5.65,128.17-1.52,93.6-9.66,201.05-30.16,318.55-13.54,77.62-30.58,148.81-49.01,213-3.29,10.88-6.11,23.52-7.54,37.7-4.36,43.18,6.4,78.65,15.08,99.9,41.51,123.82,83.02,247.64,124.54,371.46,2.8,7.22,7.15,16.15,14.01,25.32,13.23,17.69,29.05,27.26,38.64,32.04,37.78,28.59,84.49,59.38,140.43,87.65,84.79,42.85,163.4,66.06,225.25,79.17,1.46.3,32.15,6.31,46.18-10.37,14.33-17.02,8.93-54.87-24.5-78.22-57.7-42.72-115.4-85.45-173.1-128.17,17.73.83,30.47-3.16,39.27-7.54,44.24-22.02,64.77-91.7,49.95-173.41-2.51-116.03-5.03-232.05-7.54-348.08,23.86-93.63,24.17-172.69,20.11-226.19-2.19-28.83-6.36-79.58-26.39-142-28.52-88.88-74.12-154.47-110.58-197.29,47.71-274.49,96.7-508.62,138.23-692.39,57.49-254.45,121.55-534.67,238.76-893.45,40.17-122.97,76.73-224.99,103.67-297.82,11.69-31.89,22.73-67.13,32.04-105.56,21.58-88.99,27.74-169.49,27.43-235.58,1.28-285.81,19.45-606.33,66.82-953.8,32.24-236.5,74.04-456.28,120.64-657.84,35.47-89.68,87.13-227.61,139.48-399.6,79.18-260.11,95.96-387.9,162.1-625.79,36.9-132.72,95.66-323.07,187.24-550.4Z"/>
        <path class="cls-4" d="m629.17,2147.38c-.82,98.43-1.63,196.85-2.45,295.28-4.3,36.28-13.99,82.34-35.88,131.97-50.7,114.95-136.15,179.44-179.07,207.34-57.63,110.64-132.8,287.11-160.22,514.58-22.7,188.3-42.63,353.68,41.47,520.24,132.96,263.32,458.54,396.08,738.26,378.87,267.09-16.44,443.89-166.63,497.62-213.62,217.72-190.42,272.11-432.9,304.1-575.53,21.03-93.74,57.08-260.08,7.54-462.43-18.24-74.48-43.16-133.92-62.92-174.83-36.71-13.95-93.5-40.57-150.07-90.95-19.49-17.35-76.06-70.7-117.81-159.28-37.1-78.73-46.61-151.06-48.69-198.23-.42-100.53-.84-201.06-1.26-301.59-276.87,42.72-553.75,85.45-830.62,128.17Z"/>
        <path class="cls-3" d="m458.27,1762.86c4.19,45.09,9.67,83.68,14.77,114.35,10.51,63.24,20.52,97.42,32.99,130.06,7.78,20.37,31.39,76.1,143.25,179.07,52.6,48.41,129.01,111.23,231.46,172.8,21.45,12.68,70.14,37.56,136.73,38.31,72.26.82,124.78-27.24,146-40.15,98.04-71.8,178.31-137.22,239.78-189.81,92.49-79.13,124.39-113.79,147.02-165.87,24.68-56.79,36.01-128.97,39.58-151.74,6.39-40.69,8.63-75.17,9.42-99.9,11.62.72,31.76.19,52.78-10.37,48.65-24.45,57.52-80.33,58.43-86.71,34.39-53.85,55.3-101.21,67.86-133.83,51.42-133.56,53.13-254.57,21.23-287.1-12.55-12.8-26.85-14.27-26.85-14.27-3.13-.38-16.2-1.53-33.39,10.08-35.83,24.21-49.89,77.12-78.8,138.62-7.42,15.78-19.2,39.35-36.13,67.23-2.07-26.49-5.38-66.69-10.05-115.61-3.1-32.46-14.06-147.09-20.11-183.47-22.33-134.32-155.72-272.63-294.05-334.26-149.01-66.39-265.4-26.72-346.82-130.69-22.55-28.79-34.04-57.9-40.21-77.91-6.99,23.65-20.81,58.81-50.26,90.48-73.34,78.85-167.76,54.42-279.27,128.05-49.78,32.87-78.35,69.02-102.11,99.09-118.72,150.25-115.21,338.19-109.34,414.41-1.04-13.8-5.06-37.58-21.66-60.05-8.32-11.26-21.38-28.94-43.35-32.99,0,0-25.11-4.62-49.95,14.14-36.06,27.23-33.86,108.95,1.88,202.63,41.86,78.85,63.4,133.54,75.4,169.64,11.41,34.34,32.18,66.03,37.7,101.79,1.35,8.77,4.19,30.69,20.73,47.12,4.4,4.37,15.06,14.96,31.1,15.08,19.91.14,32.54-15.98,34.24-18.22Z"/>
        <path d="m312.93,2815.77c-29.47,66.96-71.53,168.75-113.52,296.69-22.65,69.01-32.25,105.94-44.82,148.16-65.78,220.96-128.21,302.52-214.05,516.59-69.97,174.51-104.49,261.83-123.15,383.27-13.64,88.78-37.59,310.68,32.67,552.91,16.64,57.38,31.77,92.43,57.8,191.01,32.24,122.06,50.17,223.97,60.32,291.53,217.39-93.91,603.46-227.3,1099.54-223.68,435.26,3.18,779.47,110.56,989.41,194.43,31.13-155.88,59.01-258.05,79.35-323.86,16.54-53.53,30.28-107.92,47.61-161.2,6.1-18.77,19.06-60.26,31.09-117.11,2.63-12.45,4.96-25.63,7.38-42.13,36.61-249.87-23.73-454.39-47.75-532.8-51.96-169.65-124.52-177.29-179.69-366.93-22.08-75.9-28.38-129.66-42.73-262.63-16.52-153.17-35.36-333.97-55.29-537.83-16.96-9.17-35.41-18.39-55.35-27.33-22.45-10.07-43.95-18.5-64.13-25.6,7.56,56.03,15.93,129.22,21.79,215.25,4.45,65.31,6.48,123.83,7.2,174.46,2.68,186.88,3.33,282.69-32.04,397.72-19.51,63.44-64.19,203-187.86,324.83-159.16,156.78-350.33,186.86-472.49,206.09-129.51,20.38-360.7,56.76-570.5-77.91-33.83-21.71-129-84.36-196.03-203.57-77.68-138.15-72.93-272.91-67.86-417.2,4.72-134.06,29.74-235.71,52.78-329.23,29.35-119.14,64.19-216.5,92.38-286.61-16.48,5.52-33.38,11.51-50.65,18.01-21.4,8.05-41.88,16.32-61.41,24.69Z"/>
      </g>
    </g>
  </g>
</svg>