<?xml version="1.0" encoding="UTF-8"?>
<svg id="Layer_2" data-name="Layer 2" xmlns="http://www.w3.org/2000/svg" viewBox="0 0 2069.32 3801.64">
  <defs>
    <style>
      .cls-1 {
        fill: #262626;
        opacity: .31;
      }

      .cls-2 {
        fill: none;
      }

      .cls-3 {
        fill: #1a1a1a;
      }
    </style>
  </defs>
  <g id="Layer_1-2" data-name="Layer 1">
    <g>
      <g>
        <path class="cls-3" d="m715.48,2040.44c-1.6,14.39-2.85,29.25-3.69,44.55-3.91,71.29,2.11,135.9,12.38,191.82,7.37,45.51,12.68,83.41,16.34,111.19,5.99,45.52,7.79,65.67,8.43,73.25,2.61,30.63,3.37,53.57,4.22,84.84,1.02,37.69,2.11,85.83,2.9,142.55-5.95,25.76-12.5,59.87-16.6,100.39-6.94,68.51-3.3,119.95-2.37,132.01,2.12,27.51,6.98,54.02,16.6,105.92,10.39,56.01,18.7,100.86,33.59,162.84,11.15,46.4,25.67,101.1,44.62,162.04.7,2.27,2.98,7.88,4.78,15.81,3.86,16.99,3.31,31.93,1.98,42.69h133.2c-1.64-4.7-4.49-12.35-8.82-21.5-4.06-8.59-7.6-14.63-8.19-15.66-14.61-25.52-12.25-82.21-12.25-82.21,1.57-37.65.03-75.39,1.58-113.04.77-18.84,2.17-53.08,3.95-98.02.36-3.51,1.01-9.28,2.11-16.34,4.75-30.51,12.81-52.31,14.76-57.97,16.3-47.3,3.69-120.37,0-141.76-.37-2.16-6.92-31.39-20.03-89.85-2.46-10.97-6.3-28.07-8.7-38.73-.16-1.87-.33-4.83-.13-8.43.47-8.4,2.65-14.56,3.16-16.07,4.17-12.33,7.01-38.73,9.88-55.07,5.59-31.88,15.09-47.17,23.45-73.78,7.32-23.3,8.84-39.55,11.86-109.48,2.47-57.06,4.12-107.93,5.27-151.37-.03-5.58.14-13.38,1.05-22.66,2.01-20.44,6.4-35.66,8.96-44.27,7.55-25.37,11.32-38.05,21.47-64.29,9.19-23.75,19.58-59.94,22.79-112.25-52.8,3.27-117.03,2.86-189.18-7.11-52.59-7.27-99.33-18.22-139.38-30.06"/>
        <path class="cls-3" d="m1060.38,2073.4c.65,8.84,1.94,22.29,4.74,38.47,7.65,44.22,19.13,65.71,32.15,103.29,18.77,54.19,26.02,99.29,30.56,127.53,2.8,17.42,5.2,39.98,10.01,85.11,4.24,39.82,7.39,72.78,9.49,95.65,1,10.35,3.12,25.91,8.17,44.27,4.72,17.17,9.17,26.5,18.71,51.38,10.81,28.22,16.22,42.33,18.58,51.78,7.84,31.41,6.06,57.8,3.95,85.77-1.58,20.89-3.15,21.75-8.83,60.87-4.68,32.2-9.29,64.54-11.07,104.87-2.18,49.47,1.69,70.76,7.38,88.53,4.42,13.81,9.69,24.69,13.59,31.92,2.05,3.3,4.17,7.23,6.04,11.82,3.52,8.62,4.96,16.5,5.53,22.53,2.85,31.65,5.37,63.94,7.51,96.83,3.84,59.12,6.22,116.52,7.38,172.06-.05,2.08-.19,5.2-.66,8.96-2.11,17.03-8.47,28.34-11.07,33.99-8.59,18.71-4.99,38.86-1.98,55.73,3.18,17.78,8.41,24.12,13.83,51.78.89,4.52,2.27,12.14,1.98,22.13-.29,9.6-2.01,17.49-3.56,22.92-5.91,5.77-14.35,15.79-18.97,30.43-2.61,8.29-8.23,26.1.79,42.29,6.03,10.82,15.7,15.72,21.71,18.76,14.31,7.25,26.96,6.97,50.62,6.14,20.19-.7,32.17-1.25,46.64-7.9,10.97-5.05,18.81-11.52,23.71-16.2,1.61-1.07,3.51-2.17,5.73-3.16,4.45-2,8.56-2.86,11.7-3.24,11.29-.52,23.15-1.39,35.53-2.69,15.32-1.61,29.75-3.72,43.22-6.13,1.46-.37,8.2-2.25,11.85-8.75,3.37-6.02,1.9-12.08,1.32-14.49-2.88-11.88-14.33-18.14-19.23-20.82-5.48-2.99-6.85-2.46-13.7-5.27,0,0-13.04-5.36-25.29-16.07-11.49-10.05-13.76-18.75-23.06-34.78-5.77-9.95-14.86-23.79-28.85-39.13-.13-10.01-.54-25.27-1.98-43.87-2.24-29.07-4.82-38.33-5.14-53.36-.67-31.45,9.25-54.71,14.23-67.98,13.56-36.12,22.83-99.4,41.37-225.94,15.38-104.98,23.07-157.47,17.92-212.37-6.53-69.54-25.72-125.02-41.1-161.25-.44-2.33-1.04-5.74-1.58-9.88-3.04-23.49-.3-41.62.79-49.4,0,0,4.27-30.34,5.53-64.03,1.39-37.04-6.64-36.5-8.7-79.84-1.73-36.52,2.61-65.71,7.11-96.04,4.16-28.02,8.38-44.88,11.86-61.26,7.06-33.25,14.77-81.91,16.07-145.97.25-20.24-.05-41.43-1.05-63.5-1.62-35.57-4.87-68.86-9.09-99.6-110.8,15.72-221.59,31.44-332.39,47.16Z"/>
        <path class="cls-3" d="m967.85,3541.55c-6.89-23.09-6.02-40.75-3.9-52.7,3.9-22.04,14.64-39.31,10.54-66.66-.77-5.12-1.85-9.24-2.63-11.86-11.51-18.18-23.02-36.36-34.53-54.54-8.15-1.83-17.65-3.29-28.27-3.73-24.07-.99-44.04,3.69-57.8,8.27,0,.5,0,.99,0,1.48,0,0,0,.75,0,1.49-.01,1.11-5.02,20.56-12.6,47.03-.11,4.82-.05,9.91.26,15.25.74,13.14,2.77,24.88,5.23,34.95-14,15.34-23.08,29.18-28.85,39.13-9.29,16.04-11.56,24.73-23.06,34.78-12.26,10.72-25.29,16.07-25.29,16.07-6.85,2.81-8.22,2.28-13.7,5.27-4.91,2.68-16.35,8.93-19.23,20.82-.59,2.41-2.05,8.48,1.32,14.49,3.65,6.51,10.39,8.38,11.85,8.75,13.47,2.41,27.91,4.52,43.22,6.13,12.38,1.3,24.24,2.17,35.53,2.69,3.14.38,7.25,1.24,11.7,3.24,2.22,1,4.12,2.1,5.73,3.16,4.9,4.69,12.75,11.16,23.71,16.2,14.46,6.66,26.45,7.2,46.64,7.9,23.66.83,36.31,1.11,50.62-6.14,6.69-3.39,16.4-8.11,21.71-18.76,4.89-9.81,3.5-19.31,2.03-28.46-3.09-19.23-12.15-34.18-20.21-44.27Z"/>
        <path class="cls-3" d="m913.45,621.98c-12.09,9.06-22.66,16.12-30.66,21.21-15.75,10.02-27.73,17.64-44.79,24.77-14.15,5.91-24.38,9.28-24.38,9.28-12.1,4.27-17.05,5.43-29.37,10.75-11.74,5.07-13.97,6.8-67.98,38.47-28.11,16.49-52.65,30.76-82.21,47.95-9.6,5.58-17.51,10.18-22.79,13.24-16.65,11-42.44,31.63-61,65.81-27.25,50.16-22.61,99.47-20.55,118.57,1.31,12.21,3.46,22.31,5.27,29.51,1.12,5.95,2.27,15.26.92,26.35-2.05,16.91-8.36,25.27-17.39,45.45-2.93,6.55-12.07,27.21-16.99,48.61-5.27,22.94-4.36,40.91-3.95,52.17,1.11,30.32.86,73.7-2.11,139.91-.62,3.45-1.63,8.59-3.16,14.76-3.63,14.59-7.18,22.82-9.49,30.04-2.37,7.42-4.15,16.09-4.74,39-1.3,50.15,4.08,129.34,4.48,135.17,4.23,62.26,4.34,76.72,8.7,105.13,6.02,39.31,13.72,63.24,15.81,69.56,2.34,7.08,3.58,10.07,6.32,18.97,6.17,20.01,8.6,33.11,13.44,56.91,7.84,38.57,11.82,58.04,15.02,67.19,6.1,17.46,9.82,22.21,13.17,37.68,3.98,18.38,3.6,34.2,2.63,44.79-1.32,23.76-2.63,47.52-3.95,71.27-.33,3.55-.41,7.53,0,11.86,1.49,15.79,8.62,27.51,13.44,33.99,4.52,10.06,11.1,23.71,20.03,39.39,10.05,17.65,15.85,27.83,26.61,40.31,15.5,17.98,30.21,27.86,34.78,30.83,7.16,4.64,13.57,7.96,18.38,10.21,2.79,1.06,6.9,2.17,11.86,1.98,1.69-.07,3.23-.27,4.6-.54,4.64,3.32,9.28,6.64,13.91,9.96.63.35,4.73,2.57,8.43.79,4.05-1.95,4.54-7.23,4.74-9.49.75-8.24-5-14.46-6.5-15.99,1-2.32,1.93-5.53,1.76-9.3-.57-12.5-12.74-19.6-13.96-20.29-9.63-6.74-22.1-17.59-32.15-33.99-10.07-16.45-13.29-31.3-15.55-42.16-3.64-17.54-3.62-32.55-2.9-42.95,1.1-2.06,2.56-4.32,4.48-6.59,6.21-7.32,13.83-10.55,18.23-11.98,2.59,10.96,4.55,19.71,5.75,25.15,4.45,20.18,5.5,26.81,10.8,35.57,3.7,6.11,7.74,12.58,15.55,14.76,7.49,2.09,14.32-.92,17.13-2.37.88-9.93,1.77-19.86,2.65-29.79-5.76-16.35-10.3-30.95-13.85-43.2-2.29-7.9-6.14-21.28-10.28-39.13-5.87-25.34-4.1-24.24-7.11-32.41-7.21-19.54-16.5-23.5-28.85-43.08-10.44-16.55-14.66-30.91-18.58-44.27-7.65-26.08-8.37-49.75-6.32-80.63,3.24-48.83,9.65-58.96,15.94-106.71,4.66-35.32,5.21-67.81,6.32-132.8.67-39.14.34-71.93-.13-95.65.13-8.72.62-21.63,2.37-37.15,3.3-29.19,8.15-41.74,14.23-69.96,8.12-37.71,10.72-67.57,12.52-88.14,2.31-26.55,2.86-48.74,2.9-64.42,1.14-13.75,2.28-27.49,3.43-41.24,3.34,5.71,6.68,11.42,10.01,17.13,3.39,10.55,8.22,27.15,12.12,47.95,5.39,28.76,4.42,41.15,9.49,64.82,5.73,26.75,14.13,44.38,18.97,55.86,11.77,27.89,25.24,73.26,31.36,149.13-1.82,28.74-2.74,59.37-2.37,91.69.55,48.02,3.86,92.48,8.7,132.8,180.84-18.44,361.68-36.89,542.52-55.33,4.94-48.41.2-85.66-5.01-110.66-7.92-38.03-17.62-51.03-15.02-83.79.74-9.27,1.7-10.57,12.65-69.56,2.98-16.05,5.76-31.34,7.51-41.1,4.15-23.22,9.6-55.34,15.41-94.86,7.38-24.59,14.76-49.18,22.13-73.78,2.51,1.77,5.03,3.53,7.54,5.3-.72,23.29-2,80.42,2.73,123.28,1.45,13.15,2.89,19.74,4.22,24.77,6.86,26.03,15.95,30.12,23.19,55.33,4.38,15.26,5.3,28.55,5.8,36.36.7,11.01.11,16.53-.25,32.14-.26,11.56-.09,22.38.25,44.01.53,34.19,2.03,61.92,2.64,72.46,2.43,42.07,3.64,63.11,7.38,84.32,6.54,37.08,11.31,31.87,21.08,74.83,12.71,55.91,13.59,104.09,13.93,130.04.18,14.07-.09,25.71-.36,33.59-19.34,23.94-29.11,46.16-34.39,62.05-3.88,11.67-5.76,21.23-8.69,36.36-5.11,26.39-7.85,49.45-9.39,67.84,1.02,14.41,2.04,28.81,3.07,43.22,3.1.27,8.54.3,14.23-2.37,10.86-5.11,14.65-16.34,16.2-20.95,2.3-6.82,1.88-10.85,2.37-20.55.39-7.59,1.34-18.7,3.95-32.41,4.53,1.75,11.34,5.25,15.68,12.25,2.28,3.68,3.87,8.33,3.95,26.61.03,7.08-.16,16.41-1.05,27.4-5.97,14.4-11.95,28.81-17.92,43.21-5.79,3.21-12.01,7.03-18.44,11.59-4.62,3.27-8.83,6.55-12.65,9.75.35,21.17.7,42.33,1.05,63.5,7.85-3.72,18.69-9.25,31.09-16.86,12.49-7.67,26.11-16.03,39.79-29.25,2.79-2.7,10.97-10.8,27.93-35.83,9.18-13.56,21.11-32.32,33.73-55.86,1.89-2.22,4.45-5.59,6.72-10.08,5.73-11.34,5.5-21.69,5.34-31.62-.8-47.88.53-42.76-.72-51.84-2.98-21.64-6.44-21.22-8.17-41.89-.96-11.53-1.88-23.69,1.98-38.47,2.5-9.6,4.46-10.49,6.32-19.76,2.74-13.57.81-22.86,0-32.8-.84-10.33.76-22.04,3.95-45.45,6.18-45.29,15.25-73.47,20.95-109.61,5.23-33.13,4.98-57.92,4.48-107.5-.42-41.84-3.19-77.34-6.06-104.21-.32-19.29-1.59-40.49-4.35-63.24-3.36-27.67-8.32-52.69-13.83-74.7-.44-47.6-.88-95.21-1.32-142.81-.33-21.73-3.58-38.54-6.59-50.06-5.64-21.64-11.07-35.83-11.07-35.83-3.94-10.29-6.78-15.89-8.3-25.43-1.68-10.53-.73-19.55.4-25.69,3.85-9.37,8.53-22.44,12.12-38.47,10.42-46.51,4.02-83.63,2.63-91.17-3.85-20.96-11.27-61.29-42.42-93.27-17.42-17.89-41.31-32.18-47.43-35.83-8.96-5.36-11.41-6.12-29.51-15.55-23.28-12.12-31.25-17.13-60.21-33.2-30.11-16.71-45.17-25.07-62.84-33.99-48.06-24.26-54.51-24.74-82.21-40.31-17.17-9.66-41.39-24.7-68.77-47.03-35.3-2.82-75.39-4.03-119.36-1.98-41.97,1.96-80.1,6.55-113.73,12.25Z"/>
        <path class="cls-3" d="m867.04,653.03c-7.63,4.45-19.29,10.78-34.16,17.02-18.1,7.59-25.02,8.35-42.22,15.26-14.65,5.89-24.3,11.27-43.6,22.04-20.7,11.55-27.89,16.84-52.05,31.54-11.55,7.03-28.71,17.25-50.19,29.25,74.07-38.37,148.14-76.74,222.22-115.11Z"/>
        <path class="cls-3" d="m1202.07,653.03c7.63,4.45,19.29,10.78,34.16,17.02,18.1,7.59,25.02,8.35,42.22,15.26,14.65,5.89,24.3,11.27,43.6,22.04,20.7,11.55,27.89,16.84,52.05,31.54,11.55,7.03,28.71,17.25,50.19,29.25-74.07-38.37-148.14-76.74-222.22-115.11Z"/>
        <path d="m772.38,1641.12c.91-4.23,2.77-10.54,6.86-17.23,0,0,6.85-11.23,20.55-19.76,27.47-17.1,74.93-7.89,77.09-7.45,50.72,4.59,108.07,7.02,170.85,5.07,61.25-1.9,117.04-7.62,166.4-15.05,26.17-3.5,46.56-2.82,60.2-1.55,7.43.69,14.03,1.67,21.21,5.53,14.2,7.65,20.79,21.26,23.58,28.46,2.41,16.06,5.91,38.51,10.54,65.35,3.44,19.94,7.05,40.83,11.33,61.13,9.42,44.68,20.07,76.82,23.71,88.53,11.25,36.12,23.53,94.86,27.76,193.92-25.36,15.41-57.78,31.49-97.06,43.22-100.94,30.13-189.21,14.18-235.03,2.11-.25-11.45-.64-23.09-1.19-34.91-1.24-26.9-3.18-52.85-5.67-77.79-3.16,38.97-6.32,77.95-9.48,116.92-34.29,6.95-77.4,12.29-127,10.54-87.46-3.09-157.06-26.88-201.61-46.51.96-25.06,2.73-51.41,5.58-78.91,4.67-45.14,11.53-86.89,19.5-124.89,1.9-20.96,4.33-42.59,7.38-64.82,6.47-47.16,14.93-91.21,24.5-131.9Z"/>
        <path d="m1233,1584.79c10.81-.75,19.83-1.72,26.42-2.53,16.11-1.98,25.96-3.24,38.21-6.85,10.1-2.98,18.08-6.46,23.36-9.01,1.45,8.69,2.55,18.8,2.73,30.09.21,13.62-.98,25.66-2.61,35.67-29.37-15.79-58.74-31.58-88.11-47.37Z"/>
        <path d="m866.74,1595.13c-19.92-1.67-40.93-4.13-62.88-7.6-12-1.9-23.63-3.99-34.85-6.24-3.32,10.8-7.15,28.34-4.93,49.72,3.5,33.66,19.91,56.78,27.67,66.4,12.4-13.1,25.58-28.42,38.73-46.11,14.74-19.83,26.66-38.88,36.27-56.17Z"/>
        <path class="cls-3" d="m900.34,405.05c-2.09-7.05-4.17-14.09-6.26-21.14-.67-5.22-4.05-9.56-8.7-11.07-5.37-1.75-10.01,1.08-10.8,1.58-3.78,2.4-5.13,5.98-5.53,7.11-1.51,4.21-.61,7.84-.25,9.09,1.96,11.79,3.26,21.45,4.07,28.07,1.28,10.37,2.3,20.93,5.27,35.31,2.72,13.17,4.61,17.63,8.17,21.63,5.28,5.93,12.02,8.37,16.34,9.46,2.84,13.75,5.33,28.44,7.25,44,4.22,34.21,4.81,65.49,3.56,92.88h240.3c-.51-27.4-.1-56.39,1.58-86.82.89-16.2,2.1-31.93,3.56-47.16,3.4-.66,8.46-2.1,13.57-5.53,2.22-1.49,9.51-6.78,16.86-25.29,1.8-4.54,4.37-11.79,9.39-37.83,1.81-9.38,3.16-17.16,4.05-22.51.89-5.35-.34-13.51-5.93-17.52-.54-.39-3.66-2.55-7.77-2.11-5.16.55-9.71,4.95-11.46,11.2-92.42,5.55-184.84,11.11-277.25,16.66Z"/>
        <path d="m927.58,512.5c-11.38-32.09-18.87-58.8-23.71-77.86-4.42-17.42-8.1-34.24-13.61-59.42-4.29-19.64-7.69-35.96-10.01-47.3-1.32,5.14-2.63,10.28-3.95,15.41-3.42-9.61-7.14-23.77-7.11-41.1.05-28.96,10.54-50.7,16.6-61.26-5.18,4.17-10.36,8.34-15.55,12.52,2.18-6.08,5.9-14.09,12.38-22.13,13.42-16.65,30.41-23.14,38.21-25.56-.81-.08-5.92-.67-8.76-4.94-2.92-4.38-2.25-10.82,1.98-15.41-.15.61-.98,4.37,1.38,7.71,2.1,2.96,5.88,4.42,9.68,3.75,2.95-3.88,6.07-7.29,9.29-10.28,39.79-37,106.26-22.57,125.55-17.72,6.52-2.16,16.62-4.59,28.98-3.95,7.69.4,14.22,1.87,19.23,3.43-5.49,1.08-10.98,2.15-16.47,3.23,5.7.22,13.25,1.09,21.74,3.75,10.54,3.3,18.48,8.1,23.71,11.86-8.78-1.19-17.57-2.37-26.35-3.56,4.53,2.54,11.28,6.2,19.63,10.28,6.91,3.37,13,6.14,18.39,8.47,25.15,10.86,24.77,9.12,31.41,12.88,27.43,15.53,35.54,48.34,36.49,52.43,1.6,6.9,2.01,12.75,2.11,16.6-3.73-7.8-8.46-16.74-10.54-16.07-2.44.78-.07,14.39.4,17.39,4.2,27.2-8.57,42.91-29.64,105.53-5.44,16.16-3.47,11.61-9.97,31.22-13.34,40.26-26.04,72.77-35.48,95.65-4.29.31-10.95.75-19.1,1.05-27.97,1.04-35.8-.86-48.09,2.11-7.41,1.79-17.93,5.71-29.64,15.41-4.34-4.73-11.59-11.33-22.13-15.41-10.01-3.88-18.52-3.76-22.82-3.75-13.54.02-33.46-1-64.23-4.94Z"/>
        <path d="m1364.35,1150.69c-1.62-13.4-2.81-33.32.62-56.94,2.51-17.26,6.37-28.84,15.81-57.44,4.48-13.58,12.7-38.52,24.24-73.78-20.33,43.07-33.4,80.58-41.89,108.82-7.22,24.01-11.63,42.97-13.44,50.98-8.7,38.65-12.87,71.91-15.02,96.83,5.69-12.75,11.35-25.67,17-38.73,4.3-9.97,8.53-19.88,12.68-29.74Z"/>
        <path d="m698.35,1132.22c-1.03-25.8-6.51-46.94-13.44-64.03-9.75-24.06-19.44-32.91-30.04-57.7-9.59-22.43-14.02-44.1-15.81-63.24-1.04,17.39-.51,43.1,8.7,71.93,5.83,18.24,11.8,27.33,18.18,41.89,8.99,20.53,18.61,51.54,18.97,95.25,1.41-12.25,2.81-24.5,4.22-36.76,3.07,4.22,6.15,8.43,9.22,12.65Z"/>
        <path d="m1038.25,744.89c-1.03,15.95-1.71,31.9-2.13,47.84-.36,15.95-.31,31.89.16,47.82.43,15.92,1.16,31.83,2.37,47.7,1.24,15.87,2.69,31.71,4.66,47.49l.05.4-.06.61-3.87,36.63c-1.31,12.21-2.84,24.38-3.65,36.63-1.85,24.47-3.09,48.98-3.67,73.5-1.09,49.05.98,98.12,3.73,147.29l3.64,73.84c.96,24.63,1.88,49.26,2.55,73.9.61,24.64,1.19,49.28,1.35,73.93.21,24.65.43,49.29.15,73.93l-8.39-147.57-4.47-73.73-4.76-73.72c-3.09-49.17-5.54-98.64-4.01-148.11.62-24.73,2.12-49.44,4.44-74.05,1-12.32,2.73-24.57,4.23-36.84l4.77-36.76-.02,1c-1.54-15.97-2.76-31.96-3.38-47.98-.63-16.02-.91-32.05-.66-48.06.29-16.02,1.01-32.01,2.14-47.97,1.09-15.96,2.72-31.88,4.84-47.72Z"/>
        <path d="m1124.67,928.81c6.36,17.92,14.2,35.13,23.34,51.53,4.66,8.15,9.54,16.17,14.93,23.83,5.34,7.69,10.93,15.22,17.08,22.28,6,7.18,12.35,14.07,19.1,20.57,6.65,6.6,13.73,12.76,20.97,18.74,14.64,11.76,30.28,22.38,46.86,31.69-17.74-6.85-34.67-16.09-50.18-27.36-15.51-11.27-29.7-24.44-42.09-39.13-24.75-29.37-42.54-64.8-50.01-102.14Z"/>
        <path d="m903.87,933.02c1.22,17.88-.26,36.02-4.1,53.67-3.76,17.68-9.95,34.89-18.25,51.01-8.34,16.1-18.71,31.16-30.98,44.45-12.2,13.33-26.18,25-41.53,34.26,13.64-11.61,26.24-24.15,37.41-37.83,11.14-13.69,20.91-28.42,28.89-44.08,4.15-7.75,7.66-15.83,10.85-24.02,3.32-8.16,5.89-16.6,8.33-25.08,4.74-17.02,7.7-34.55,9.38-52.38Z"/>
        <path d="m938.65,1571.72c-11.45-6.33-22.19-13.93-32.28-22.31-10.1-8.38-19.5-17.61-28.2-27.46-8.64-9.9-16.6-20.4-23.57-31.52-7-11.09-13.14-22.73-17.92-34.91,7.35,10.82,14.68,21.48,22.41,31.82,7.76,10.31,15.77,20.39,24.33,30,8.41,9.74,17.39,18.97,26.58,28.03,9.25,9,18.87,17.66,28.65,26.35Z"/>
        <path d="m1127.57,1572.51c9.05-7.88,17.85-15.79,26.22-24.12,8.33-8.35,16.31-16.99,23.69-26.13,3.79-4.49,7.33-9.18,10.81-13.92,3.55-4.69,6.82-9.58,10.12-14.47,6.51-9.84,12.53-20.03,18.49-30.45-3.28,11.55-8.06,22.67-13.82,33.26-5.73,10.62-12.59,20.62-20.2,30-7.69,9.32-16.15,18.01-25.43,25.72-9.24,7.74-19.2,14.61-29.88,20.1Z"/>
        <path d="m540.44,1025.24c-1.3-11.52-1.07-23.21.27-34.77,1.3-11.58,3.85-23.02,7.31-34.16,1.83-5.54,3.82-11.03,6.07-16.41,2.36-5.34,4.79-10.64,7.63-15.72,5.56-10.22,12.12-19.91,19.82-28.57-5.3,10.31-10.39,20.53-14.92,30.97-4.51,10.44-8.57,21.04-11.94,31.85-3.49,10.78-6.25,21.78-8.61,32.91-2.32,11.15-4.04,22.43-5.63,33.91Z"/>
        <path d="m1518.6,1040.53c2.5-12.77,4.3-25.48,4.69-38.22.37-12.71-.24-25.42-2.79-37.77-2.33-12.39-6.51-24.35-11.91-35.8-5.58-11.38-12.72-22.04-20.94-32.13,10.27,8.01,19,18.15,25.74,29.53,3.3,5.73,6.18,11.73,8.54,17.93,2.36,6.21,4.06,12.65,5.43,19.14,2.54,13.04,2.86,26.43,1.35,39.5-1.45,13.08-4.85,25.9-10.11,37.8Z"/>
        <path d="m1441.38,1424.69c7.92,7.41,16.34,13.91,25.45,19.1,9.27,4.92,18.74,10.03,28.57,11.6,9.82,1.72,20.02-.05,29.33-4.49,9.33-4.41,17.9-10.84,25.73-18.3-5.6,9.31-13.53,17.38-23.19,23.13-4.82,2.89-10.17,5.03-15.81,6.25-2.83.5-5.7.92-8.6.89-2.9.17-5.8-.14-8.64-.59-5.68-1.04-11.1-2.98-16.1-5.46-4.97-2.59-9.63-5.22-14.21-8.44-9.06-6.36-16.85-14.42-22.54-23.68Z"/>
        <path d="m502.84,1429.43c6.84,9.3,14.38,17.95,23.35,24.39,4.5,3.15,9.26,5.83,14.35,7.38,5.02,1.66,10.36,2.17,15.79,1.92,10.81-.29,21.44-3.87,31.26-9.1,9.78-5.21,18.48-12.57,25.92-21.43-4.98,10.47-13.13,19.62-23.13,26.12-9.84,6.54-21.56,10.94-33.79,11.39-3.05.11-6.1-.08-9.14-.45l-4.59-.84c-1.49-.42-2.98-.88-4.44-1.36-5.78-2.19-11.08-5.39-15.58-9.36-9.09-7.87-15.65-17.94-19.98-28.66Z"/>
        <path class="cls-1" d="m1084.99,1978.54c22.13,8.17,44.72,14.15,67.66,17.29,11.48,1.46,22.98,2.45,34.51,2.47,11.51.11,23.04-.27,34.44-1.82,5.74-.47,11.39-1.56,17.08-2.4,5.63-1.18,11.3-2.21,16.86-3.7,5.63-1.26,11.13-2.96,16.67-4.58,5.45-1.88,10.96-3.63,16.35-5.73,21.61-8.28,42.32-19.12,62.02-32.1-16.99,16.41-37.16,29.67-58.85,39.63-10.81,5.11-22.14,9.1-33.67,12.36-5.73,1.77-11.65,2.83-17.49,4.17-5.92.96-11.8,2.19-17.78,2.74-47.63,5.54-97.18-4.15-137.81-28.34Z"/>
        <path class="cls-1" d="m1030.19,1981.71c-21.12,13.16-44.88,22.38-69.52,27.52-12.32,2.68-24.9,4.06-37.51,4.79-12.64.5-25.29-.16-37.87-1.45-12.52-1.77-24.98-4.11-37.12-7.64-12.08-3.72-23.97-8.05-35.29-13.6-22.7-10.88-43.57-25.51-60.93-43.35,20.19,14.5,41.63,26.7,64.25,35.88,22.6,9.17,46.25,15.39,70.35,18.31,12.05,1.42,24.18,2.1,36.33,1.95,12.15-.14,24.28-1.26,36.36-2.91,24.16-3.51,47.9-10.23,70.96-19.5Z"/>
        <path d="m933.91,2721.58c-6.19-11.63-11.15-23.91-15.18-36.48-4.08-12.57-7.09-25.47-9.28-38.52-2.09-13.05-3.38-26.25-3.53-39.46-.2-13.2.54-26.42,2.69-39.42.75,13.15,1.54,26.17,2.75,39.13.67,6.47,1.25,12.94,2.16,19.37.8,6.44,1.69,12.87,2.81,19.25,2.01,12.82,4.67,25.52,7.62,38.19,2.99,12.67,6.44,25.24,9.95,37.94Z"/>
        <path d="m1204.77,2709.99c1.52-10.89,3.16-21.62,4.52-32.36,1.29-10.75,2.47-21.48,3.19-32.24.85-10.76,1.25-21.54,1.52-32.36.24-10.83.17-21.68.25-32.67,2.8,10.64,4.4,21.56,5.19,32.53.84,10.98.73,22.02-.01,33.01-.87,10.98-2.38,21.92-4.8,32.66-2.4,10.74-5.56,21.31-9.87,31.43Z"/>
        <path d="m1342.58,3458.56c2.27,5.04,3.59,10.38,4.36,15.79.74,5.41.97,10.91.55,16.37-.39,5.46-1.39,10.88-2.94,16.13-1.54,5.24-3.67,10.33-6.71,14.95.27-5.52.86-10.77,1.36-16,.51-5.23.92-10.4,1.32-15.58.39-5.18.7-10.37.99-15.62.27-5.25.48-10.54,1.07-16.04Z"/>
        <path d="m845.32,3458.56c.59,5.49.8,10.78,1.07,16.04.29,5.25.6,10.43.99,15.62.41,5.18.81,10.35,1.32,15.58.5,5.23,1.09,10.48,1.36,16-3.04-4.62-5.17-9.71-6.71-14.95-1.55-5.25-2.55-10.66-2.94-16.13-.42-5.46-.19-10.96.55-16.37.77-5.41,2.09-10.75,4.36-15.79Z"/>
        <path d="m1224.8,3375.56c1.58,8.45,2.46,16.92,3.11,25.38.69,8.47.97,16.94,1.17,25.42.07,8.48.05,16.95-.37,25.44-.38,8.48-1.01,16.97-2.33,25.47-1.59-8.45-2.48-16.92-3.12-25.38-.69-8.47-.97-16.94-1.16-25.42-.06-8.48-.05-16.95.38-25.44.38-8.48,1.01-16.97,2.32-25.47Z"/>
        <path d="m1223.22,2799.31c2.82,38.1,9.54,75.52,21.69,111.32,2.92,8.98,6.24,17.83,9.88,26.54,3.49,8.79,7.52,17.34,11.62,25.87,8.34,16.99,17.7,33.55,27.94,49.69-12.43-14.52-23.49-30.33-32.77-47.16-9.4-16.76-17.18-34.47-23.3-52.73-3.08-9.12-5.59-18.43-7.89-27.77-2.13-9.38-3.97-18.84-5.21-28.37-2.64-19.04-3.29-38.32-1.97-57.39Z"/>
        <path d="m760.79,2439.65c-2.46-21.33-4.48-42.69-6.05-64.07-1.67-21.38-2.93-42.78-4.11-64.19-1.01-21.42-2.11-42.83-2.48-64.27-.46-21.44-.46-42.9-.01-64.37,2.27,21.36,4.09,42.73,5.46,64.12l2.15,32.08,1.85,32.09c1.04,21.4,2.01,42.81,2.56,64.24.65,21.43.86,42.88.62,64.36Z"/>
        <path d="m1192.12,2462.31c.19-26.67-1.38-53.22-5.07-79.43-1.92-13.08-4.25-26.14-7.35-38.94-3.09-12.77-7.11-25.4-11.25-38.03l-24.72-75.93c-8.19-25.35-15.95-50.84-23.28-76.48,9.91,24.76,19.39,49.67,28.44,74.73,9.11,25.04,17.88,50.19,26.2,75.54,4.03,12.72,8.08,25.5,11.03,38.69,2.79,13.18,5.01,26.4,6.31,39.76,2.82,26.67,2.57,53.58-.32,80.09Z"/>
        <path d="m1456.67,1885.27c-.96,10.65-.13,21.09,2.8,30.87,1.54,4.86,3.35,9.61,5.77,14.11,2.31,4.42,5.21,9.11,7.61,13.94,4.73,9.7,8.62,19.73,11.67,29.98,3.1,10.23,5.48,20.66,6.93,31.25-4.26-9.82-8.06-19.69-12.07-29.43-4.03-9.73-8.11-19.39-12.78-28.7-2.2-4.73-4.88-9.07-7.28-14.15-2.26-5.03-4.1-10.29-5.12-15.71-2.16-10.82-1.32-22.15,2.47-32.16Z"/>
        <polygon points="1429.37 1996.93 1419.78 1975.91 1435.21 1993.1 1429.37 1996.93"/>
        <path d="m1407.31,2137.17c5.13-3.44,10.4-6.58,15.73-9.58,5.33-3.01,10.7-5.92,16.16-8.66l-1.01.75c4.09-4.8,8.39-9.42,12.64-14.09,4.31-4.61,8.78-9.06,13.47-13.28,4.64-4.27,9.47-8.35,14.45-12.23,4.96-3.9,10.12-7.56,15.52-10.89-4.13,4.82-8.37,9.45-12.67,14.01-4.28,4.58-8.56,9.12-12.89,13.62-4.24,4.58-8.7,8.93-12.84,13.59-4.31,4.5-8.57,9.05-13.03,13.41l-.58.56-.43.19c-5.61,2.4-11.3,4.63-17.04,6.76-5.73,2.14-11.53,4.13-17.47,5.84Z"/>
        <path d="m1403.21,2164.04c5.35-2.03,10.48-4.1,15.34-6.6,4.88-2.42,9.52-5.2,13.88-8.32l.24-.17.47-.19c3.79-1.53,7.56-3.1,11.29-4.77,3.72-1.68,7.46-3.35,11.12-5.19,7.41-3.55,14.62-7.54,22.23-11.38-5.45,6.58-12.14,11.97-19.28,16.62-3.6,2.27-7.32,4.4-11.18,6.23-3.85,1.83-7.81,3.46-11.86,4.82l.71-.36c-4.97,3.1-10.32,5.54-15.89,7.18-2.8.76-5.62,1.43-8.48,1.76-2.85.4-5.73.52-8.59.38Z"/>
        <path d="m682.01,2147.7c-3.46,1.96-7.57,2.95-11.76,2.87-4.19-.11-8.45-1.31-12.15-3.55l.23.14c-2.76-1.23-5.46-2.58-8.15-3.96-2.7-1.35-5.36-2.78-7.97-4.29-5.28-2.92-10.38-6.16-15.43-9.47l-7.41-5.2c-2.42-1.81-4.79-3.69-7.12-5.62-4.65-3.88-9.22-7.85-13.5-12.16,5.58,2.52,10.86,5.39,16.07,8.35l15.49,9.02,15.33,9.2c2.57,1.51,5.11,3.07,7.64,4.66,2.54,1.56,5.09,3.11,7.61,4.74l.23.14c2.76,2.15,5.98,3.82,9.55,4.66,3.56.93,7.41.99,11.34.46Z"/>
        <path d="m678.59,2132.55c-6.5-3.14-12.48-7.11-18.14-11.5-5.65-4.39-10.99-9.19-15.91-14.4-4.94-5.18-9.46-10.76-13.54-16.64-4.08-5.87-7.73-12.07-10.51-18.72,5.18,5.01,9.97,10.18,14.76,15.3l14.37,15.26,14.47,15.16c4.86,5.06,9.77,10.1,14.51,15.54Z"/>
        <path d="m635.11,1906.48c4.56,7.61,6.96,16.78,6.5,26.04-.11,4.65-1.26,9.29-2.77,13.65-1.59,4.35-3.65,8.35-5.61,12.28-4.15,7.73-8.02,15.33-11.67,23.21-3.64,7.87-6.99,15.9-10.56,24.03.75-8.86,2.72-17.56,5.49-26.02,1.32-4.26,3.02-8.38,4.75-12.49,1.81-4.08,3.83-8.04,5.8-11.94,4.16-7.74,7.89-15.07,9.17-23.26,1.38-8.21.76-16.82-1.09-25.49Z"/>
        <path d="m704.94,2158.24c-2.52.44-4.73.22-6.87-.15-2.12-.41-4.13-1.07-6.05-1.95-1.91-.87-3.72-1.97-5.42-3.31-1.68-1.38-3.28-2.92-4.58-5.13,2.52-.45,4.74-.24,6.88.14,2.12.41,4.13,1.07,6.04,1.96,1.91.88,3.72,1.98,5.42,3.32,1.68,1.38,3.29,2.92,4.59,5.12Z"/>
        <path d="m662.23,1987.46c4.99-2,9.62-5.31,13.22-9.67,3.61-4.35,6.18-9.75,7.35-15.58,0,5.94-1.48,12.03-4.44,17.52-2.96,5.49-7.39,10.33-12.84,13.9l-3.29-6.17Z"/>
        <path d="m718.9,960.43c-4.07-13.26-4.85-27.76-1.51-41.74,3.58-14.07,11.29-26.09,18.65-37.77,7.68-11.56,15.65-22.84,24.11-33.77,8.42-10.96,17.03-21.77,26.2-32.17-6.81,12.1-14.17,23.77-21.74,35.3l-22.72,34.45c-3.8,5.7-7.43,11.48-10.8,17.34-3.45,5.83-6.32,11.85-8.48,18.11-4.03,12.64-4.94,26.49-3.71,40.25Z"/>
        <path d="m1392.37,947.25c-2.06-15.42-5.67-30.68-13.28-43.65-3.82-6.43-8.54-12.28-14.23-16.96-5.57-4.79-12.16-8.27-19.15-11.52-6.93-3.34-14.15-6.67-21.01-10.64-6.82-4.05-13.43-8.47-19.51-13.52-12.27-9.95-22.99-21.76-31.4-34.93,10.7,11.37,22.19,21.73,34.7,30.59,12.49,9.01,25.95,15.79,40.22,22.2,7.03,3.41,14.37,7.28,20.46,12.84,6.07,5.51,11.13,12.07,14.67,19.35,7.26,14.51,9.33,30.72,8.51,46.25Z"/>
        <path class="cls-1" d="m1050.89,1918.47c-.6-22.97-.98-45.89-1.21-68.81l-.79-68.73-.81-68.73c-.57-22.9-.68-45.84-.35-68.82,2.38,22.83,4.32,45.72,5.8,68.64,1.37,22.92,2,45.88,2.35,68.83.18,22.96.06,45.92-.76,68.86-.7,22.95-2.13,45.87-4.23,68.75Z"/>
      </g>
      <rect class="cls-2" width="2069.32" height="3801.64"/>
    </g>
  </g>
</svg>